<?xml version="1.0" standalone="no"?>
<!DOCTYPE svg PUBLIC "-//W3C//DTD SVG 1.1//EN" "http://www.w3.org/Graphics/SVG/1.1/DTD/svg11.dtd" >
<svg xmlns="http://www.w3.org/2000/svg" xmlns:xlink="http://www.w3.org/1999/xlink" version="1.1">
<metadata>
Created by FontForge 20170731 at Tue Feb 14 21:04:49 2017
 By Aleksey,,,
(c) 2015 Connary Fagen
</metadata>
<defs>
<font id="VisbyRoundCF-Bold" horiz-adv-x="623" >
  <font-face 
    font-family="Visby Round CF Bold"
    font-weight="700"
    font-stretch="normal"
    units-per-em="1000"
    panose-1="0 0 8 0 0 0 0 0 0 0"
    ascent="800"
    descent="-200"
    x-height="520"
    cap-height="700"
    bbox="-239.909 -248.154 1166 987"
    underline-thickness="50"
    underline-position="-200"
    unicode-range="U+0020-FB02"
  />
<missing-glyph horiz-adv-x="495" 
d="M406 800v-990h-314v990h314zM330 734h-164v-33h65v-37h-66v-32h165v32h-66v37h66v33zM264 606h-99v-103h165v34h-66v69zM231 572v-35h-33v35h33zM330 476h-165v-32h66v-37h-66v-33h99v70h66v32zM330 417h-33v-65h-132v-34h165v99zM330 296h-99v-55h33v22h33v-46h-99v79
h-33v-112h165v112zM330 125h-165v-112h165v112zM297 92v-46h-99v46h99zM330 -10h-165v-32h70l-70 -47v-33h165v33h-101l69 47h32v32z" />
    <glyph glyph-name="fl" unicode="fl" horiz-adv-x="664" 
d="M387 699q35 -21 35 -53q0 -21 -14 -34t-35 -13q-13 0 -42 9q-21 8 -34 8q-26 0 -41 -13.5t-18.5 -26t-3.5 -26.5v-30h82q24 0 38.5 -14.5t14.5 -37.5t-14.5 -37t-38.5 -14h-82v-358q0 -27 -19.5 -46t-46.5 -19q-26 0 -45.5 19t-19.5 46v358h-30q-24 0 -38.5 14t-14.5 37
t14.5 37.5t38.5 14.5h30v37q0 40 12.5 71t30.5 49.5t42.5 30t46.5 15.5t43 4q65 0 109 -28zM539 714q26 0 45.5 -19.5t19.5 -45.5v-589q0 -27 -19.5 -46t-45.5 -19q-27 0 -46.5 19t-19.5 46v589q0 26 19.5 45.5t46.5 19.5z" />
    <glyph glyph-name="f_t" unicode="ft" horiz-adv-x="770" 
d="M691 112q23 2 36 -11t13 -36q0 -34 -30.5 -52t-82.5 -18q-62 0 -99.5 33.5t-37.5 127.5v261h-256v-358q0 -27 -19.5 -46t-46.5 -19q-26 0 -45.5 19t-19.5 46v358h-30q-24 0 -38.5 14t-14.5 37t14.5 37.5t38.5 14.5h30v37q0 40 12.5 71t30.5 49.5t42.5 30t46.5 15.5t43 4
q65 0 109 -28q35 -21 35 -53q0 -21 -14 -34t-35 -13q-13 0 -42 9q-21 8 -34 8q-26 0 -41 -13.5t-18.5 -26t-3.5 -26.5v-30h256v68q0 27 19.5 46.5t46.5 19.5t46 -19.5t19 -46.5v-68h66q25 0 39 -14t14 -38q0 -23 -14.5 -37t-38.5 -14h-66v-265q0 -44 32 -44q5 0 19 2t19 2z
" />
    <glyph glyph-name=".notdef" horiz-adv-x="495" 
d="M406 800v-990h-314v990h314zM330 734h-164v-33h65v-37h-66v-32h165v32h-66v37h66v33zM264 606h-99v-103h165v34h-66v69zM231 572v-35h-33v35h33zM330 476h-165v-32h66v-37h-66v-33h99v70h66v32zM330 417h-33v-65h-132v-34h165v99zM330 296h-99v-55h33v22h33v-46h-99v79
h-33v-112h165v112zM330 125h-165v-112h165v112zM297 92v-46h-99v46h99zM330 -10h-165v-32h70l-70 -47v-33h165v33h-101l69 47h32v32z" />
    <glyph glyph-name=".null" horiz-adv-x="0" 
 />
    <glyph glyph-name="nonmarkingreturn" horiz-adv-x="333" 
 />
    <glyph glyph-name="space" unicode=" " horiz-adv-x="287" 
 />
    <glyph glyph-name="exclam" unicode="!" horiz-adv-x="271" 
d="M136 703q30 0 51.5 -22t21.5 -52v-342q0 -30 -21.5 -52t-51.5 -22t-52 22t-22 52v342q0 30 22 52t52 22zM136 -4q-32 0 -54 22t-22 54q0 31 22.5 53t53.5 22t53 -22t22 -53t-22 -53.5t-53 -22.5z" />
    <glyph glyph-name="quotedbl" unicode="&#x22;" horiz-adv-x="395" 
d="M106 707q26 0 45.5 -19t19.5 -46v-72q0 -27 -19.5 -46.5t-45.5 -19.5q-27 0 -46.5 19.5t-19.5 46.5v72q0 27 19.5 46t46.5 19zM290 707q26 0 45.5 -19t19.5 -46v-72q0 -27 -19.5 -46.5t-45.5 -19.5q-27 0 -46.5 19.5t-19.5 46.5v72q0 27 19.5 46t46.5 19z" />
    <glyph glyph-name="numbersign" unicode="#" horiz-adv-x="645" 
d="M544 293q23 0 39.5 -16.5t16.5 -39.5q0 -24 -16.5 -40.5t-39.5 -16.5h-58l-9 -127q-1 -25 -20 -42.5t-45 -17.5q-28 0 -47.5 21.5t-17.5 48.5l8 117h-95l-9 -127q-1 -25 -20 -42.5t-44 -17.5q-28 0 -48 21.5t-18 48.5l8 117h-27q-23 0 -40 16.5t-17 40.5q0 23 17 39.5
t40 16.5h36l8 115h-44q-24 0 -40.5 16t-16.5 40q0 23 17 39.5t40 16.5h52l9 127q1 25 20 42.5t44 17.5q29 0 48.5 -21t17.5 -49l-8 -117h94l9 127q2 25 21 42.5t44 17.5q28 0 47.5 -21.5t17.5 -48.5l-8 -117h34q23 0 39.5 -16.5t16.5 -39.5q0 -24 -16.5 -40t-39.5 -16h-42
l-8 -115h50zM268 293h95l8 115h-94z" />
    <glyph glyph-name="dollar" unicode="$" horiz-adv-x="572" 
d="M532 200q0 -80 -55 -132.5t-136 -68.5v-5v-41q0 -23 -16 -40t-39 -17q-24 0 -40.5 17t-16.5 40v41v3q-104 18 -161 90q-28 34 -28 65q0 23 14.5 40t40.5 17q36 0 64 -38q46 -58 120 -58q45 0 80.5 20.5t35.5 66.5q0 37 -25.5 59.5t-86.5 46.5l-42 16q-87 34 -133 77.5
t-46 114.5q0 73 46 122.5t121 64.5v46q0 23 16.5 40t40.5 17q23 0 39 -17t16 -40v-45q74 -13 128 -72q29 -34 29 -60q0 -23 -16 -38.5t-40 -15.5q-29 0 -54 27q-43 45 -96 45q-45 0 -70.5 -20.5t-25.5 -54.5q0 -56 78 -86l39 -15q118 -45 168.5 -93t50.5 -119z" />
    <glyph glyph-name="percent" unicode="%" horiz-adv-x="698" 
d="M168 705q52 0 88 -35.5t36 -87.5q0 -51 -36 -87t-88 -36q-51 0 -87 36t-36 87q0 52 36 87.5t87 35.5zM481 658q17 28 51 28q25 0 43 -18t18 -43q0 -17 -11 -35l-366 -546q-21 -28 -51 -28q-25 0 -43 18t-18 43q0 20 9 35zM168 615q-15 0 -25.5 -9t-10.5 -24t10.5 -24.5
t25.5 -9.5q12 0 21.5 10t9.5 24t-9.5 23.5t-21.5 9.5zM529 241q52 0 88 -35.5t36 -87.5q0 -51 -36 -87t-88 -36q-51 0 -87 36t-36 87q0 52 36 87.5t87 35.5zM529 151q-15 0 -25.5 -9t-10.5 -24t10.5 -24.5t25.5 -9.5q12 0 21.5 10t9.5 24t-9.5 23.5t-21.5 9.5z" />
    <glyph glyph-name="ampersand" unicode="&#x26;" horiz-adv-x="753" 
d="M312 -9q-99 0 -175.5 62.5t-76.5 163.5q0 81 47.5 133.5t114.5 69.5l-93 152q-27 47 -1.5 87.5t80.5 40.5h278q23 0 40 -16.5t17 -39.5q0 -24 -16.5 -40t-40.5 -16h-241l107 -181q17 -25 8 -49.5t-45 -24.5q-63 0 -93.5 -36t-30.5 -80q0 -45 34.5 -79t91.5 -34q24 0 49 6
t51.5 20t43 41t16.5 63v115q0 32 21 53t53 21h80q24 0 40.5 -15.5t16.5 -39.5t-17 -40.5t-40 -16.5h-26v-150q0 -35 13.5 -45.5t49.5 -8.5q22 3 38.5 -11.5t16.5 -39.5q0 -61 -90 -61q-113 0 -113 111v6q-31 -57 -85 -89t-123 -32z" />
    <glyph glyph-name="quotesingle" unicode="'" horiz-adv-x="211" 
d="M106 707q26 0 45.5 -19t19.5 -46v-72q0 -27 -19.5 -46.5t-45.5 -19.5q-27 0 -46.5 19.5t-19.5 46.5v72q0 27 19.5 46t46.5 19z" />
    <glyph glyph-name="parenleft" unicode="(" horiz-adv-x="280" 
d="M188 752q23 0 40.5 -17t17.5 -41q0 -8 -5 -20q-64 -162 -64 -354q0 -206 65 -379q3 -6 3 -21q0 -24 -16 -40.5t-40 -16.5q-35 0 -52 32q-92 193 -92 425q0 221 92 402q17 30 51 30z" />
    <glyph glyph-name="parenright" unicode=")" horiz-adv-x="278" 
d="M141 722q92 -181 92 -402q0 -232 -92 -425q-17 -32 -52 -32q-24 0 -40 16.5t-16 40.5q0 15 3 21q65 173 65 379q0 192 -64 354q-5 12 -5 20q0 24 17.5 41t40.5 17q34 0 51 -30z" />
    <glyph glyph-name="asterisk" unicode="*" horiz-adv-x="508" 
d="M201 691q-1 21 15 37t36 16q22 0 37.5 -15.5t15.5 -36.5l-1 -67l73 16q22 6 39 -11.5t17 -40.5q0 -18 -11.5 -32.5t-28.5 -19.5l-54 -15l36 -48q11 -13 11 -32q0 -22 -15.5 -37.5t-37.5 -15.5q-26 0 -43 22l-36 51l-37 -51q-15 -22 -43 -22q-22 0 -37 15.5t-15 37.5
q0 21 10 32l36 48l-53 15q-17 5 -28.5 19.5t-11.5 32.5q0 23 16.5 40.5t39.5 11.5l72 -16z" />
    <glyph glyph-name="plus" unicode="+" horiz-adv-x="470" 
d="M367 329q23 0 40 -16t17 -38t-17 -37.5t-40 -15.5h-78v-77q0 -23 -16 -40t-38 -17t-37.5 17t-15.5 40v77h-79q-24 0 -41 15.5t-17 37.5t17.5 38t40.5 16h79v80q0 24 15.5 41t37.5 17t38 -17.5t16 -40.5v-80h78z" />
    <glyph glyph-name="comma" unicode="," horiz-adv-x="265" 
d="M64 -109q-23 0 -30.5 15.5t1.5 37.5l49 151q19 53 69 53h37q62 0 27 -67l-79 -151q-21 -39 -68 -39h-6z" />
    <glyph glyph-name="hyphen" unicode="-" horiz-adv-x="441" 
d="M343 329q21 0 37 -16t16 -38t-16 -37.5t-37 -15.5h-244q-22 0 -38 15.5t-16 37.5t16 38t38 16h244z" />
    <glyph glyph-name="period" unicode="." horiz-adv-x="231" 
d="M116 -4q-32 0 -54 22t-22 54q0 31 22.5 53t53.5 22t53 -22t22 -53t-22 -53.5t-53 -22.5z" />
    <glyph glyph-name="slash" unicode="/" horiz-adv-x="494" 
d="M395 752q35 0 52.5 -28.5t6.5 -56.5l-297 -763q-6 -17 -22.5 -29t-35.5 -12q-35 0 -52.5 28.5t-6.5 56.5l297 763q6 17 22.5 29t35.5 12z" />
    <glyph glyph-name="zero" unicode="0" horiz-adv-x="655" 
d="M327 707q115 0 199 -91t84 -253v-24q0 -162 -84 -253t-199 -91q-114 0 -198 91.5t-84 252.5v24q0 161 84 252.5t198 91.5zM327 595q-53 0 -88.5 -37t-49 -87t-13.5 -108v-24q0 -58 13.5 -108t49 -86.5t88.5 -36.5t89 36.5t49.5 86.5t13.5 108v24q0 58 -13.5 108t-49.5 87
t-89 37z" />
    <glyph glyph-name="one" unicode="1" horiz-adv-x="373" 
d="M223 700q32 0 53.5 -21t21.5 -53v-567q0 -26 -19.5 -45.5t-46.5 -19.5q-26 0 -45.5 19.5t-19.5 45.5v529h-65q-24 0 -40.5 16t-16.5 40q0 23 17 39.5t40 16.5h121z" />
    <glyph glyph-name="two" unicode="2" horiz-adv-x="551" 
d="M270 707q102 0 168 -62.5t66 -147.5q0 -13 -2 -25.5t-4.5 -23t-10 -23.5t-12 -21.5t-17 -23.5t-19 -22.5t-25 -26l-27 -27t-32 -31.5t-35.5 -34l-127 -123h256q23 0 40 -17t17 -41t-17 -41t-40 -17h-304q-45 0 -75 28t-29.5 64.5t31.5 71.5l117 113q17 17 40.5 39t36 34
t29 28.5t25 26t19 22t15.5 20.5t10 18.5t6.5 19.5t1.5 19q0 45 -30 66.5t-66 21.5q-32 0 -61 -18t-41 -59q-6 -21 -24.5 -35.5t-42.5 -14.5q-35 0 -50.5 27.5t-4.5 65.5q21 64 78 106.5t140 42.5z" />
    <glyph glyph-name="three" unicode="3" horiz-adv-x="581" 
d="M403 700q59 0 86 -45t-8 -92l-118 -147q67 -14 120 -68.5t53 -135.5q0 -98 -72.5 -160t-179.5 -62q-80 0 -143 36.5t-92 108.5q-11 30 5 57t49 27q22 0 37 -11t21 -26q17 -43 52.5 -61t70.5 -18q17 0 35 4.5t38.5 15.5t34 34t13.5 55q0 86 -134 120q-20 4 -33 19.5
t-13 33.5q0 5 1.5 10.5t3 9t5.5 9.5l6 9t7.5 10.5t7.5 9.5l110 145h-242q-24 0 -40.5 16t-16.5 40q0 23 17 39.5t40 16.5h279z" />
    <glyph glyph-name="four" unicode="4" horiz-adv-x="574" 
d="M457 269h25q23 0 40 -15.5t17 -37.5q0 -23 -16.5 -38.5t-40.5 -15.5h-25v-104q0 -27 -19.5 -46t-46.5 -19q-26 0 -45.5 19t-19.5 46v104h-194q-62 0 -81.5 39t14.5 85l263 375q21 30 52 36t54 -13t23 -54v-361zM326 476l-142 -207h142v207z" />
    <glyph glyph-name="five" unicode="5" horiz-adv-x="562" 
d="M397 700q23 0 40 -16.5t17 -39.5q0 -24 -16.5 -40t-40.5 -16h-203l-15 -145l16 7q16 7 42 13.5t55 6.5q94 0 159.5 -66.5t65.5 -172.5q0 -105 -72.5 -173t-182.5 -68q-126 0 -199 84q-19 19 -19 47q0 24 16.5 40.5t42.5 16.5q30 0 49 -23q41 -52 107 -52q50 0 88.5 31
t38.5 97q0 60 -36 93t-83 33q-40 0 -83 -27q-19 -11 -54 -11q-38 0 -60 27t-17 67l27 225q4 28 23.5 45t47.5 17h246z" />
    <glyph glyph-name="six" unicode="6" horiz-adv-x="560" 
d="M354 707q24 0 40.5 -17t16.5 -41q0 -17 -13 -36l-129 -166q4 -4 13 -4q92 0 162.5 -66t70.5 -164q0 -96 -70.5 -159.5t-162.5 -63.5q-95 0 -166 66t-71 172q0 26 6 52.5t14 46t25 47.5t28 43.5t35.5 48.5t35.5 49l118 167q16 25 47 25zM280 322q-51 0 -81.5 -31.5
t-30.5 -77.5q0 -45 32.5 -77t79.5 -32t78.5 32t31.5 77q0 44 -31.5 76.5t-78.5 32.5z" />
    <glyph glyph-name="seven" unicode="7" horiz-adv-x="521" 
d="M398 700q51 0 76 -38.5t3 -84.5l-261 -547q-17 -37 -56 -37q-25 0 -43 18.5t-18 44.5q0 16 6 26l248 506h-261q-24 0 -40.5 16t-16.5 40q0 23 17 39.5t40 16.5h306z" />
    <glyph glyph-name="eight" unicode="8" horiz-adv-x="577" 
d="M440 396q97 -64 97 -177q0 -102 -75 -165t-173 -63t-173.5 63t-75.5 165q0 112 97 178q-52 54 -52 123q0 79 55 133t149 54t149 -54t55 -133q0 -71 -53 -124zM211 519q0 -31 21.5 -54t56.5 -23t56.5 23t21.5 54t-22 53t-56 22t-56 -22t-22 -53zM289 104q46 0 79 33t33 82
q0 53 -33.5 83.5t-78.5 30.5t-79 -31t-34 -83q0 -49 33.5 -82t79.5 -33z" />
    <glyph glyph-name="nine" unicode="9" horiz-adv-x="562" 
d="M208 -8q-24 0 -40.5 17t-16.5 41q0 17 13 36l129 166q-4 4 -13 4q-92 0 -162.5 66t-70.5 164q0 96 70.5 159.5t162.5 63.5q95 0 166 -66t71 -172q0 -26 -6 -52.5t-14 -46t-25 -47.5t-28 -43.5t-35.5 -48.5t-35.5 -49l-118 -167q-16 -25 -47 -25zM282 377q51 0 81.5 31.5
t30.5 77.5q0 45 -32.5 77t-79.5 32t-78.5 -32t-31.5 -77q0 -44 31.5 -76.5t78.5 -32.5z" />
    <glyph glyph-name="colon" unicode=":" horiz-adv-x="251" 
d="M126 376q-32 0 -54 22t-22 54q0 31 22.5 53t53.5 22t53 -22t22 -53t-22 -53.5t-53 -22.5zM126 -4q-32 0 -54 22t-22 54q0 31 22.5 53t53.5 22t53 -22t22 -53t-22 -53.5t-53 -22.5z" />
    <glyph glyph-name="semicolon" unicode=";" horiz-adv-x="289" 
d="M164 376q-32 0 -54 22t-22 54q0 31 22.5 53t53.5 22t53 -22t22 -53t-22 -53.5t-53 -22.5zM64 -109q-23 0 -30.5 15.5t1.5 37.5l49 151q19 53 69 53h37q62 0 27 -67l-79 -151q-21 -39 -68 -39h-6z" />
    <glyph glyph-name="less" unicode="&#x3c;" horiz-adv-x="453" 
d="M330 443q10 6 24 6q23 0 38.5 -15.5t15.5 -38.5q0 -32 -29 -47l-211 -108l211 -106q29 -14 29 -48q0 -22 -16 -38t-38 -16q-14 0 -25 7l-229 118q-55 29 -55 83t55 83z" />
    <glyph glyph-name="equal" unicode="=" horiz-adv-x="470" 
d="M367 416q23 0 40 -16t17 -38t-17 -37.5t-40 -15.5h-264q-24 0 -41 15.5t-17 37.5t17.5 38t40.5 16h264zM367 242q23 0 40 -16t17 -38t-17 -37.5t-40 -15.5h-264q-24 0 -41 15.5t-17 37.5t17.5 38t40.5 16h264z" />
    <glyph glyph-name="greater" unicode="&#x3e;" horiz-adv-x="453" 
d="M123 443l230 -120q55 -29 55 -83t-55 -83l-229 -118q-11 -7 -25 -7q-23 0 -38.5 16t-15.5 38q0 34 29 48l211 106l-211 108q-29 15 -29 47q0 23 15.5 38.5t38.5 15.5q14 0 24 -6z" />
    <glyph glyph-name="question" unicode="?" horiz-adv-x="536" 
d="M271 707q93 0 161.5 -56t68.5 -149q0 -41 -15.5 -71t-38 -48t-45 -34t-38 -38t-15.5 -50t-18 -48t-50 -20t-50 20t-18 48q0 38 16 68.5t39.5 50.5t46.5 38.5t39 40.5t16 47q0 33 -25 61t-74 28q-53 0 -79 -34t-25 -77q0 -29 -16 -50t-49 -21q-34 0 -50.5 21t-16.5 50
q0 102 71.5 162.5t164.5 60.5zM280 -4q-32 0 -54 22t-22 54q0 31 22.5 53t53.5 22t53 -22t22 -53t-22 -53.5t-53 -22.5z" />
    <glyph glyph-name="at" unicode="@" horiz-adv-x="812" 
d="M519 522q20 0 33.5 -13t13.5 -34v-153q0 -45 25 -45q24 0 34 26t10 59q0 113 -63.5 171t-162.5 58t-166 -68t-67 -177q0 -104 66 -170.5t159 -66.5q58 0 99 24q14 10 38 10q27 0 42.5 -16.5t15.5 -41.5q0 -33 -29 -51q-63 -41 -157 -41q-149 0 -254.5 100.5t-105.5 252.5
q0 155 109.5 258t249.5 103q141 0 247 -101t106 -252q0 -91 -45.5 -141.5t-114.5 -50.5q-61 0 -98 63q-13 -28 -42.5 -46t-68.5 -18q-65 0 -115.5 49.5t-50.5 137.5q0 84 51 133t110 49q37 0 62.5 -19.5t26.5 -34.5v9q0 15 11.5 26t30.5 11zM398 417q-32 0 -46.5 -22
t-14.5 -48q0 -25 15 -48t46 -23q30 0 45.5 22.5t15.5 48.5t-15 48t-46 22z" />
    <glyph glyph-name="A" unicode="A" horiz-adv-x="714" 
d="M671 95q8 -18 8 -38q0 -25 -19 -43t-46 -18q-47 0 -65 43l-50 118h-284l-50 -118q-18 -43 -64 -43q-28 0 -47 18t-19 43q0 18 9 38l248 559q21 50 65 50t66 -50zM261 264h192l-96 226z" />
    <glyph glyph-name="B" unicode="B" horiz-adv-x="614" 
d="M433 389q141 -53 141 -185q0 -93 -67 -148.5t-191 -55.5h-182q-32 0 -53 21t-21 53v552q0 32 21 53t53 21h172q97 0 158.5 -45.5t61.5 -130.5q0 -100 -93 -135zM195 586v-160h111q41 0 65 22.5t24 59.5t-23.5 57.5t-65.5 20.5h-111zM316 114q65 0 96 28.5t31 73.5
q0 46 -30.5 76.5t-96.5 30.5h-121v-209h121z" />
    <glyph glyph-name="C" unicode="C" horiz-adv-x="664" 
d="M566 176q26 0 44.5 -16.5t18.5 -44.5q0 -40 -60 -79q-69 -43 -165 -43q-138 0 -246 102t-108 255q0 102 52 185t132 127.5t168 44.5q95 0 167 -43q60 -39 60 -79q0 -28 -18.5 -44.5t-44.5 -16.5q-25 0 -54 21q-51 34 -108 34q-86 0 -149.5 -67t-63.5 -162
q0 -96 63.5 -162.5t150.5 -66.5q56 0 107 34q29 21 54 21z" />
    <glyph glyph-name="D" unicode="D" horiz-adv-x="679" 
d="M281 700q155 0 256.5 -92.5t101.5 -254.5q0 -166 -101.5 -259.5t-256.5 -93.5h-147q-32 0 -53 21t-21 53v552q0 32 21 53t53 21h147zM281 114q223 0 223 239q0 233 -223 233h-86v-472h86z" />
    <glyph glyph-name="E" unicode="E" horiz-adv-x="571" 
d="M195 118h281q24 0 42 -17.5t18 -41.5t-18 -41.5t-42 -17.5h-342q-32 0 -53 21t-21 53v552q0 32 21 53t53 21h332q24 0 42 -17t18 -41q0 -25 -18 -42.5t-42 -17.5h-271v-174h178q25 0 42 -16.5t17 -39.5t-17 -40t-42 -17h-178v-177z" />
    <glyph glyph-name="F" unicode="F" horiz-adv-x="561" 
d="M526 642q0 -25 -18 -42.5t-42 -17.5h-271v-190h222q24 0 41.5 -17t17.5 -41t-17.5 -40.5t-41.5 -16.5h-222v-215q0 -28 -19.5 -48.5t-47.5 -20.5t-48 20.5t-20 48.5v564q0 32 21 53t53 21h332q24 0 42 -17t18 -41z" />
    <glyph glyph-name="G" unicode="G" horiz-adv-x="759" 
d="M643 374q37 0 55.5 -23t16.5 -61q-6 -140 -96 -218.5t-214 -78.5q-90 0 -170.5 44.5t-132.5 127.5t-52 185t52 185t132 127.5t168 44.5q95 0 167 -43q60 -39 60 -79q0 -28 -18.5 -44.5t-44.5 -16.5q-25 0 -54 21q-51 34 -108 34q-86 0 -149.5 -67t-63.5 -162
q0 -96 63.5 -162.5t150.5 -66.5q64 0 117 38t62 104h-114q-24 0 -41.5 16t-17.5 39q0 24 17.5 40t41.5 16h173z" />
    <glyph glyph-name="H" unicode="H" horiz-adv-x="691" 
d="M497 635q0 28 20 48t48 20t47 -20t19 -48v-570q0 -28 -19 -48t-47 -20t-48 20t-20 48v222h-302v-222q0 -28 -19.5 -48t-47.5 -20t-48 20t-20 48v570q0 28 20 48t48 20t47.5 -20t19.5 -48v-233h302v233z" />
    <glyph glyph-name="I" unicode="I" horiz-adv-x="257" 
d="M129 703q28 0 48 -20.5t20 -48.5v-572q0 -28 -20 -48.5t-48 -20.5t-48.5 20.5t-20.5 48.5v572q0 28 20.5 48.5t48.5 20.5z" />
    <glyph glyph-name="J" unicode="J" horiz-adv-x="529" 
d="M400 703q28 0 48.5 -19.5t20.5 -45.5v-387q0 -72 -20.5 -124t-56 -80.5t-75.5 -41t-87 -12.5q-89 0 -154 44q-41 27 -41 66q0 23 15 39.5t41 16.5q29 0 50 -16q49 -29 85 -29q106 0 106 137v387q0 26 20 45.5t48 19.5z" />
    <glyph glyph-name="K" unicode="K" horiz-adv-x="679" 
d="M634 92q15 -17 15 -40q0 -24 -17.5 -41.5t-42.5 -17.5q-26 0 -44 20l-244 276l-106 -110v-118q0 -28 -20 -48t-48 -20t-47.5 20t-19.5 47v579q0 28 19.5 48t47.5 20t48 -20t20 -48v-280l318 325q21 23 48 23q25 0 43 -17.5t18 -42.5q0 -21 -14 -39l-223 -232z" />
    <glyph glyph-name="L" unicode="L" horiz-adv-x="545" 
d="M195 119h255q24 0 42 -17.5t18 -42.5q0 -24 -18 -41.5t-42 -17.5h-316q-32 0 -53 21t-21 53v560q0 29 20 49t48 20t47.5 -20t19.5 -49v-515z" />
    <glyph glyph-name="M" unicode="M" horiz-adv-x="871" 
d="M749 703q25 0 43.5 -16.5t18.5 -46.5v-574q0 -28 -20.5 -48.5t-49.5 -20.5q-28 0 -48 20.5t-20 48.5v336l-179 -337q-21 -38 -59 -38q-37 0 -58 38l-180 337v-336q0 -28 -19.5 -48.5t-47.5 -20.5q-29 0 -49.5 20.5t-20.5 48.5v574q0 30 18.5 46.5t43.5 16.5q42 0 68 -45
l245 -441l246 441q26 45 68 45z" />
    <glyph glyph-name="N" unicode="N" horiz-adv-x="700" 
d="M571 703q29 0 49 -20.5t20 -48.5v-574q0 -31 -18 -48.5t-45 -17.5q-41 0 -70 40l-310 422v-393q0 -28 -19.5 -48.5t-47.5 -20.5q-29 0 -49.5 20.5t-20.5 48.5v575q0 31 18 48t46 17q41 0 69 -39l310 -423v393q0 28 20 48.5t48 20.5z" />
    <glyph glyph-name="O" unicode="O" horiz-adv-x="797" 
d="M398 707q137 0 243 -102t106 -255t-106 -255t-243 -102q-88 0 -167.5 44.5t-130 127.5t-50.5 185t50.5 185t130 127.5t167.5 44.5zM398 579q-85 0 -146 -64.5t-61 -164.5t61 -164.5t146 -64.5q86 0 147 64.5t61 164.5t-61 164.5t-147 64.5z" />
    <glyph glyph-name="P" unicode="P" horiz-adv-x="608" 
d="M317 700q115 0 185.5 -65t70.5 -162q0 -98 -70.5 -161.5t-185.5 -63.5h-122v-187q0 -28 -19.5 -48t-47.5 -20t-48 20t-20 48v565q0 32 21 53t53 21h183zM311 363q131 0 131 110q0 112 -131 112h-116v-222h116z" />
    <glyph glyph-name="Q" unicode="Q" horiz-adv-x="797" 
d="M652 106l23 -23q15 -18 15 -38q0 -23 -16.5 -39.5t-39.5 -16.5t-39 16l-31 32q-80 -44 -166 -44q-88 0 -167.5 44.5t-130 127.5t-50.5 185t50.5 185t130 127.5t167.5 44.5q137 0 243 -102t106 -255q0 -142 -95 -244zM398 121q35 0 72 13l-55 57q-17 17 -17 38
q0 23 16.5 39.5t39.5 16.5q25 0 39 -17l65 -67q48 62 48 149q0 100 -61 164.5t-147 64.5q-85 0 -146 -64.5t-61 -164.5t61 -164.5t146 -64.5z" />
    <glyph glyph-name="R" unicode="R" horiz-adv-x="622" 
d="M566 101q16 -20 16 -41q0 -26 -17.5 -44.5t-43.5 -18.5q-32 0 -50 25l-177 226h-99v-187q0 -28 -19.5 -48t-47.5 -20t-48 20t-20 48v565q0 32 21 53t53 21h183q115 0 185.5 -65t70.5 -162q0 -71 -38.5 -125.5t-106.5 -80.5zM195 585v-222h116q131 0 131 110
q0 112 -131 112h-116z" />
    <glyph glyph-name="S" unicode="S" horiz-adv-x="572" 
d="M287 707q112 0 182 -77q29 -34 29 -60q0 -23 -16 -38.5t-40 -15.5q-29 0 -54 27q-43 45 -96 45q-45 0 -70.5 -20.5t-25.5 -54.5q0 -56 78 -86l39 -15q118 -45 168.5 -93t50.5 -119q0 -65 -40 -114t-96 -71t-117 -22t-118 24.5t-93 69.5q-28 34 -28 65q0 23 14.5 40
t40.5 17q36 0 64 -38q46 -58 120 -58q45 0 80.5 20.5t35.5 66.5q0 37 -25.5 59.5t-86.5 46.5l-42 16q-87 34 -133 77.5t-46 114.5q0 87 64.5 140t160.5 53z" />
    <glyph glyph-name="T" unicode="T" horiz-adv-x="597" 
d="M508 700q24 0 41.5 -17.5t17.5 -42.5t-17.5 -42t-41.5 -17h-142v-517q0 -29 -20 -50t-47 -21q-28 0 -48 21t-20 50v517h-141q-24 0 -42 17.5t-18 41.5q0 25 18 42.5t42 17.5h418z" />
    <glyph glyph-name="U" unicode="U" horiz-adv-x="688" 
d="M558 703q27 0 46 -19t19 -46v-387q0 -118 -79.5 -188t-199.5 -70t-199.5 70t-79.5 188v387q0 26 19.5 45.5t46.5 19.5q28 0 48.5 -19.5t20.5 -45.5v-385q0 -74 40.5 -110.5t103.5 -36.5t103.5 36.5t40.5 110.5v385q0 26 21 45.5t49 19.5z" />
    <glyph glyph-name="V" unicode="V" horiz-adv-x="714" 
d="M614 703q27 0 46 -18t19 -43q0 -20 -8 -38l-248 -559q-22 -50 -66 -50t-65 50l-248 559q-9 20 -9 38q0 25 19 43t47 18q46 0 64 -43l192 -451l192 451q18 43 65 43z" />
    <glyph glyph-name="W" unicode="W" horiz-adv-x="1023" 
d="M923 703q27 0 46 -18t19 -43q0 -9 -8 -38l-172 -559q-15 -50 -71 -50q-53 0 -71 50l-154 420l-155 -420q-18 -50 -70 -50q-56 0 -72 50l-171 559q-9 25 -9 38q0 25 19 43t47 18q22 0 40.5 -12t23.5 -31l127 -451l160 450q16 44 59 44q45 0 61 -44l160 -450l126 451
q5 19 23.5 31t41.5 12z" />
    <glyph glyph-name="X" unicode="X" horiz-adv-x="649" 
d="M589 98q15 -22 15 -46q0 -26 -17.5 -42.5t-45.5 -16.5q-36 0 -56 29l-160 230l-161 -230q-20 -29 -55 -29q-28 0 -46 16.5t-18 42.5q0 24 15 46l189 261l-173 239q-15 22 -15 46q0 26 17.5 42.5t45.5 16.5q36 0 56 -29l145 -207l144 207q20 29 56 29q28 0 46 -16.5
t18 -42.5q0 -25 -16 -46l-173 -239z" />
    <glyph glyph-name="Y" unicode="Y" horiz-adv-x="633" 
d="M534 703q26 0 44 -18t18 -43q0 -20 -10 -34l-203 -296v-254q0 -27 -20 -46t-47 -19t-46.5 19t-19.5 46v254l-203 296q-10 14 -10 34q0 26 18 43.5t44 17.5q30 0 49 -25l168 -252l169 252q17 25 49 25z" />
    <glyph glyph-name="Z" unicode="Z" horiz-adv-x="590" 
d="M448 700q61 0 87.5 -47.5t-9.5 -95.5l-344 -438h308q25 0 42.5 -17.5t17.5 -42.5t-17.5 -42t-42.5 -17h-352q-60 0 -87 47.5t10 95.5l344 438h-285q-24 0 -42 17.5t-18 41.5q0 25 18 42.5t42 17.5h328z" />
    <glyph glyph-name="bracketleft" unicode="[" horiz-adv-x="298" 
d="M193 745q60 0 60 -56t-60 -56h-17v-650h17q60 0 60 -57q0 -56 -60 -56h-71q-37 0 -57 20t-20 57v721q0 37 20 57t57 20h71z" />
    <glyph glyph-name="backslash" unicode="\" horiz-adv-x="494" 
d="M99 752q19 0 35.5 -12t22.5 -29l297 -763q11 -28 -6.5 -56.5t-52.5 -28.5q-19 0 -35.5 12t-22.5 29l-297 763q-11 28 6.5 56.5t52.5 28.5z" />
    <glyph glyph-name="bracketright" unicode="]" horiz-adv-x="298" 
d="M105 745h71q37 0 57 -20t20 -57v-721q0 -37 -20 -57t-57 -20h-71q-60 0 -60 56q0 57 60 57h17v650h-17q-60 0 -60 56t60 56z" />
    <glyph glyph-name="asciicircum" unicode="^" horiz-adv-x="438" 
d="M387 528q6 -10 6 -22q0 -15 -11 -26t-26 -11q-14 0 -26 10l-110 110l-112 -110q-13 -11 -25 -11q-16 0 -27 11.5t-11 26.5q0 12 7 22l102 140q26 35 66 35t66 -35z" />
    <glyph glyph-name="underscore" unicode="_" horiz-adv-x="604" 
d="M503 0q23 0 39.5 -16.5t16.5 -40.5q0 -23 -16.5 -39.5t-39.5 -16.5h-401q-23 0 -40 16.5t-17 39.5q0 24 17 40.5t40 16.5h401z" />
    <glyph glyph-name="grave" unicode="`" horiz-adv-x="230" 
d="M121 774q47 0 64 -46l37 -104q10 -25 -4 -43.5t-39 -18.5q-23 0 -36 18l-75 83q-15 18 -15 43q0 28 19.5 48t48.5 20z" />
    <glyph glyph-name="a" unicode="a" 
d="M496 523q26 0 46.5 -19.5t20.5 -45.5v-399q0 -27 -20 -46t-47 -19t-46.5 19t-19.5 46v19q-7 -29 -48 -57t-100 -28q-43 0 -84.5 16.5t-77.5 48t-58 84.5t-22 118q0 64 22.5 116t58 84t77.5 49t84 17q52 0 92 -24t56 -61v17q0 26 19.5 45.5t46.5 19.5zM306 106
q50 0 90 38.5t40 115.5t-40 115.5t-90 38.5q-54 0 -94.5 -41t-40.5 -113q0 -73 40.5 -113.5t94.5 -40.5z" />
    <glyph glyph-name="b" unicode="b" 
d="M341 526q42 0 84 -17t77.5 -49t58 -84t22.5 -116q0 -65 -22 -118t-58 -84.5t-77.5 -48t-84.5 -16.5q-59 0 -100 28t-48 57v-19q0 -27 -19.5 -46t-46.5 -19t-47 19t-20 46v590q0 26 20 45.5t47 19.5q26 0 45.5 -19.5t19.5 -45.5v-180q1 -4 1 -11v-17q16 37 56 61t92 24z
M317 106q54 0 94.5 40.5t40.5 113.5q0 72 -40.5 113t-94.5 41q-50 0 -90 -38.5t-40 -115.5t40 -115.5t90 -38.5z" />
    <glyph glyph-name="c" unicode="c" horiz-adv-x="540" 
d="M447 161q21 0 37 -14t16 -36q0 -8 -2 -15t-4.5 -12t-7.5 -10.5t-7.5 -8.5t-8.5 -8t-7 -6q-64 -56 -156 -56q-47 0 -93 17t-85.5 48.5t-64 83.5t-24.5 116q0 85 42.5 147.5t101.5 90.5t123 28q94 0 156 -55q2 -2 8.5 -8t10 -10t8.5 -11t7.5 -15t2.5 -17q0 -22 -16 -36
t-37 -14q-27 0 -51 21q-32 31 -84 31q-61 0 -101.5 -40.5t-40.5 -111.5q0 -70 40.5 -110.5t101.5 -40.5q52 0 84 31q24 21 51 21z" />
    <glyph glyph-name="d" unicode="d" 
d="M496 714q27 0 47 -19.5t20 -45.5v-590q0 -27 -20 -46t-47 -19t-46.5 19t-19.5 46v19q-7 -29 -48 -57t-100 -28q-43 0 -84.5 16.5t-77.5 48t-58 84.5t-22 118q0 64 22.5 116t58 84t77.5 49t84 17q52 0 92 -24t56 -61v17q0 7 1 11v180q0 26 19.5 45.5t45.5 19.5zM306 106
q50 0 90 38.5t40 115.5t-40 115.5t-90 38.5q-54 0 -94.5 -41t-40.5 -113q0 -73 40.5 -113.5t94.5 -40.5z" />
    <glyph glyph-name="e" unicode="e" horiz-adv-x="595" 
d="M303 526q94 0 173 -68t79 -177q0 -38 -20.5 -54t-61.5 -16l-297 2q9 -53 48 -82.5t95 -29.5q35 0 83 21q36 16 49 16q20 0 32.5 -13t12.5 -32q0 -28 -32 -55q-61 -43 -150 -43q-70 0 -130.5 27t-102 89t-41.5 148q0 64 25 117t64 84.5t84.5 48.5t89.5 17zM303 412
q-47 0 -84 -27.5t-43 -81.5h250q-7 54 -41.5 81.5t-81.5 27.5z" />
    <glyph glyph-name="f" unicode="f" horiz-adv-x="432" 
d="M387 699q35 -21 35 -53q0 -21 -14 -34t-35 -13q-13 0 -42 9q-21 8 -34 8q-26 0 -41 -13.5t-18.5 -26t-3.5 -26.5v-30h82q24 0 38.5 -14.5t14.5 -37.5t-14.5 -37t-38.5 -14h-82v-358q0 -27 -19.5 -46t-46.5 -19q-26 0 -45.5 19t-19.5 46v358h-30q-24 0 -38.5 14t-14.5 37
t14.5 37.5t38.5 14.5h30v37q0 40 12.5 71t30.5 49.5t42.5 30t46.5 15.5t43 4q65 0 109 -28z" />
    <glyph glyph-name="g" unicode="g" horiz-adv-x="622" 
d="M563 458v-399q0 -5 -2 -15v-34q0 -58 -25 -102t-65 -67.5t-82.5 -34.5t-85.5 -11q-75 0 -134 27q-43 18 -43 56q0 22 15.5 37t36.5 15q11 0 27 -5q68 -17 99 -17q59 0 92.5 28.5t33.5 73.5v68q-7 -29 -48 -57t-100 -28q-43 0 -84.5 16.5t-77.5 48t-58 84.5t-22 118
q0 64 22.5 116t58 84t77.5 49t84 17q52 0 92 -24t56 -61v17q0 26 19.5 45.5t46.5 19.5q26 0 46.5 -19.5t20.5 -45.5zM306 106q50 0 90 38.5t40 115.5t-40 115.5t-90 38.5q-54 0 -94.5 -41t-40.5 -113q0 -73 40.5 -113.5t94.5 -40.5z" />
    <glyph glyph-name="h" unicode="h" horiz-adv-x="612" 
d="M362 525q83 0 136.5 -58.5t53.5 -180.5v-226q0 -27 -19.5 -46t-46.5 -19q-26 0 -45.5 19t-19.5 46v226q0 64 -29.5 95.5t-76.5 31.5q-31 0 -56 -13t-38.5 -33t-20.5 -36.5t-9 -29.5v-241q0 -27 -19.5 -46t-45.5 -19q-27 0 -46.5 19t-19.5 46v589q0 26 19.5 45.5
t46.5 19.5q26 0 45.5 -19.5t19.5 -45.5v-242q4 35 51.5 76.5t119.5 41.5z" />
    <glyph glyph-name="i" unicode="i" horiz-adv-x="253" 
d="M127 594q-27 0 -47 19.5t-20 45.5t20 45.5t47 19.5q26 0 46 -19.5t20 -45.5t-20 -45.5t-46 -19.5zM127 523q26 0 45.5 -19.5t19.5 -46.5v-396q0 -28 -19.5 -47.5t-45.5 -19.5q-27 0 -46.5 19.5t-19.5 47.5v396q0 27 19.5 46.5t46.5 19.5z" />
    <glyph glyph-name="j" unicode="j" horiz-adv-x="285" 
d="M158 594q-26 0 -46 19.5t-20 45.5t20 45.5t46 19.5q27 0 47 -19.5t20 -45.5t-20 -45.5t-47 -19.5zM158 523q27 0 46.5 -19.5t19.5 -47.5v-507q0 -74 -41.5 -114t-111.5 -40q-44 0 -81 16q-50 27 -50 67q0 29 22.5 47.5t51.5 9.5q2 0 15 -6.5t24 -6.5q40 0 40 62v472
q0 28 19.5 47.5t45.5 19.5z" />
    <glyph glyph-name="k" unicode="k" horiz-adv-x="553" 
d="M511 92q17 -17 17 -40t-17 -40t-41 -17q-25 0 -40 18l-179 199l-60 -56v-96q0 -27 -19.5 -46t-45.5 -19q-27 0 -46.5 19t-19.5 46v589q0 26 19.5 45.5t46.5 19.5q26 0 45.5 -19.5t19.5 -45.5v-339l198 194q19 19 44 19q24 0 41.5 -17.5t17.5 -41.5t-16 -42l-144 -134z
" />
    <glyph glyph-name="l" unicode="l" horiz-adv-x="251" 
d="M191 60q0 -27 -19.5 -46t-45.5 -19q-27 0 -46.5 19t-19.5 46v589q0 26 19.5 45.5t46.5 19.5q26 0 45.5 -19.5t19.5 -45.5v-589z" />
    <glyph glyph-name="m" unicode="m" horiz-adv-x="973" 
d="M723 525q83 0 136.5 -58.5t53.5 -180.5v-226q0 -27 -19.5 -46t-46.5 -19q-26 0 -45.5 19t-19.5 46v226q0 64 -29.5 95.5t-76.5 31.5q-41 0 -71 -23.5t-40.5 -46.5t-12.5 -42v1v-16v-226q0 -27 -19.5 -46t-46.5 -19q-26 0 -45.5 19t-19.5 46v226q0 64 -29.5 95.5
t-76.5 31.5q-31 0 -56 -13t-38.5 -33t-20.5 -36.5t-9 -29.5v-241q0 -27 -19.5 -46t-45.5 -19q-27 0 -46.5 19t-19.5 46v397q0 27 19.5 46.5t46.5 19.5q26 0 45.5 -19.5t19.5 -46.5v-50q4 35 51.5 76.5t119.5 41.5q60 0 106 -30.5t67 -94.5q24 52 72.5 88.5t115.5 36.5z" />
    <glyph glyph-name="n" unicode="n" horiz-adv-x="612" 
d="M362 525q83 0 136.5 -58.5t53.5 -180.5v-226q0 -27 -19.5 -46t-46.5 -19q-26 0 -45.5 19t-19.5 46v226q0 64 -29.5 95.5t-76.5 31.5q-31 0 -56 -13t-38.5 -33t-20.5 -36.5t-9 -29.5v-241q0 -27 -19.5 -46t-45.5 -19q-27 0 -46.5 19t-19.5 46v397q0 27 19.5 46.5
t46.5 19.5q26 0 45.5 -19.5t19.5 -46.5v-50q4 35 51.5 76.5t119.5 41.5z" />
    <glyph glyph-name="o" unicode="o" horiz-adv-x="614" 
d="M307 526q44 0 90 -17t86 -49t65.5 -84.5t25.5 -116.5t-25.5 -116.5t-65.5 -84t-86 -48.5t-90 -17q-61 0 -120.5 28t-103 91t-43.5 147t43.5 147t103 91.5t120.5 28.5zM307 412q-56 0 -96.5 -41.5t-40.5 -111.5q0 -69 40.5 -110.5t96.5 -41.5t96.5 41.5t40.5 110.5
q0 70 -40.5 111.5t-96.5 41.5z" />
    <glyph glyph-name="p" unicode="p" 
d="M341 526q42 0 84 -17t77.5 -49t58 -84t22.5 -116q0 -65 -22 -118t-58 -84.5t-77.5 -48t-84.5 -16.5q-59 0 -100 28t-48 57v-19q0 -8 -1 -11v-180q0 -27 -19.5 -46t-46.5 -19t-46.5 19t-19.5 46v590q0 26 20.5 45.5t46.5 19.5q27 0 46.5 -19.5t19.5 -45.5v-17q16 37 56 61
t92 24zM317 106q54 0 94.5 40.5t40.5 113.5q0 72 -40.5 113t-94.5 41q-50 0 -90 -38.5t-40 -115.5t40 -115.5t90 -38.5z" />
    <glyph glyph-name="q" unicode="q" 
d="M496 523q26 0 46.5 -19.5t20.5 -45.5v-590q0 -27 -19.5 -46t-46.5 -19t-46.5 19t-19.5 46v180q-1 3 -1 11v19q-7 -29 -48 -57t-100 -28q-43 0 -84.5 16.5t-77.5 48t-58 84.5t-22 118q0 64 22.5 116t58 84t77.5 49t84 17q52 0 92 -24t56 -61v17q0 26 19.5 45.5t46.5 19.5z
M306 106q50 0 90 38.5t40 115.5t-40 115.5t-90 38.5q-54 0 -94.5 -41t-40.5 -113q0 -73 40.5 -113.5t94.5 -40.5z" />
    <glyph glyph-name="r" unicode="r" horiz-adv-x="439" 
d="M347 525q29 0 45.5 -17.5t16.5 -42.5q0 -29 -21.5 -45.5t-62.5 -16.5q-55 0 -92.5 -33.5t-41.5 -68.5v-241q0 -26 -19.5 -45.5t-45.5 -19.5q-27 0 -46.5 19.5t-19.5 45.5v397q0 27 19.5 46.5t46.5 19.5q26 0 45.5 -19.5t19.5 -46.5v-50q4 34 49.5 76t106.5 42z" />
    <glyph glyph-name="s" unicode="s" horiz-adv-x="475" 
d="M238 526q52 0 97 -19.5t69 -53.5q16 -24 16 -44q0 -23 -14 -36t-37 -13q-32 0 -55 28q-30 34 -72 34q-29 0 -45.5 -13t-16.5 -34q0 -35 52 -50l61 -18q69 -19 108 -53t39 -96q0 -78 -60.5 -120.5t-145.5 -42.5q-113 0 -172 72q-27 38 -27 63q0 19 12.5 34.5t37.5 15.5
q28 0 54 -32q37 -46 95 -46q36 0 56 13.5t20 35.5q0 36 -59 53l-57 17q-143 40 -143 153q0 71 55.5 111.5t131.5 40.5z" />
    <glyph glyph-name="t" unicode="t" horiz-adv-x="382" 
d="M303 112q23 2 36 -11t13 -36q0 -34 -30.5 -52t-82.5 -18q-62 0 -99.5 33.5t-37.5 127.5v261h-29q-24 0 -38.5 14t-14.5 37t14.5 37.5t38.5 14.5h29v68q0 27 19.5 46.5t46.5 19.5t46 -19.5t19 -46.5v-68h66q25 0 39 -14t14 -38q0 -23 -14.5 -37t-38.5 -14h-66v-265
q0 -44 32 -44q5 0 19 2t19 2z" />
    <glyph glyph-name="u" unicode="u" horiz-adv-x="612" 
d="M250 -7q-83 0 -136.5 58.5t-53.5 180.5v226q0 27 19.5 46t46.5 19q26 0 45.5 -19t19.5 -46v-226q0 -64 29.5 -95.5t76.5 -31.5q31 0 56 13t38.5 33t20.5 36.5t9 29.5v241q0 27 19.5 46t45.5 19q27 0 46.5 -19t19.5 -46v-397q0 -27 -19.5 -46.5t-46.5 -19.5
q-26 0 -45.5 19.5t-19.5 46.5v50q-4 -35 -51.5 -76.5t-119.5 -41.5z" />
    <glyph glyph-name="v" unicode="v" horiz-adv-x="559" 
d="M468 523q26 0 43.5 -17.5t17.5 -41.5q0 -14 -8 -30l-176 -386q-24 -50 -66 -50t-65 50l-177 386q-7 19 -7 30q0 24 17.5 41.5t42.5 17.5q43 0 63 -46l126 -296l127 296q19 46 62 46z" />
    <glyph glyph-name="w" unicode="w" horiz-adv-x="843" 
d="M751 523q26 0 44 -18t18 -44q0 -5 -4 -16t-5 -14l-134 -383q-17 -50 -62 -50t-65 50l-122 286l-122 -286q-20 -50 -64 -50q-46 0 -63 50l-133 383q-9 25 -9 30q0 26 18 44t44 18q18 0 34 -10t21 -25l96 -301l119 296q17 40 59 40q44 0 59 -40l119 -296l96 301
q5 15 21.5 25t34.5 10z" />
    <glyph glyph-name="x" unicode="x" horiz-adv-x="530" 
d="M481 88q14 -16 14 -35q0 -24 -18 -41t-42 -17q-25 0 -46 24l-124 154l-124 -154q-21 -24 -46 -24q-24 0 -42 17t-18 41q0 19 13 35l144 172l-142 170q-13 16 -13 35q0 24 18 41t42 17q28 0 46 -24l122 -151l122 151q19 24 46 24q23 0 41 -17t18 -41q0 -21 -13 -35
l-141 -170z" />
    <glyph glyph-name="y" unicode="y" horiz-adv-x="577" 
d="M486 523q26 0 43.5 -17.5t17.5 -41.5q0 -14 -8 -30l-259 -583q-20 -46 -63 -46q-25 0 -41.5 17.5t-16.5 41.5q0 11 7 30l57 130l-186 410q-7 19 -7 30q0 24 17.5 41.5t42.5 17.5q43 0 63 -46l134 -310l137 310q20 46 62 46z" />
    <glyph glyph-name="z" unicode="z" horiz-adv-x="500" 
d="M358 520q39 0 66.5 -24t29 -57t-26.5 -67l-249 -259h225q23 0 40 -16.5t17 -39.5q0 -24 -17 -40.5t-40 -16.5h-269q-62 0 -85.5 50t20.5 100l247 258h-208q-24 0 -40.5 16t-16.5 40q0 23 17 39.5t40 16.5h250z" />
    <glyph glyph-name="braceleft" unicode="{" horiz-adv-x="358" 
d="M256 745q23 0 40 -16.5t17 -39.5q0 -24 -16.5 -40t-40.5 -16h-12q-35 0 -35 -31v-208q0 -19 -11 -36l-43 -52l41 -50q13 -16 13 -35v-208q0 -30 35 -30h12q23 0 40 -16.5t17 -40.5q0 -23 -17 -39.5t-40 -16.5h-71q-43 0 -75 24t-32 83v258l-24 36q-21 35 0 70l24 38v259
q0 59 32.5 83t74.5 24h71z" />
    <glyph glyph-name="bar" unicode="|" horiz-adv-x="263" 
d="M132 807q23 0 39.5 -17t16.5 -40v-890q0 -23 -16.5 -40t-39.5 -17q-24 0 -40.5 17t-16.5 40v890q0 23 16.5 40t40.5 17z" />
    <glyph glyph-name="braceright" unicode="}" horiz-adv-x="336" 
d="M80 745h71q42 0 74.5 -24t32.5 -83v-259l24 -38q21 -35 0 -70l-24 -36v-258q0 -59 -32 -83t-75 -24h-71q-23 0 -40 16.5t-17 39.5q0 24 17 40.5t40 16.5h12q35 0 35 30v208q0 19 13 35l41 50l-43 52q-11 17 -11 36v208q0 31 -35 31h-12q-24 0 -40.5 16t-16.5 40
q0 23 17 39.5t40 16.5z" />
    <glyph glyph-name="asciitilde" unicode="~" horiz-adv-x="519" 
d="M171 372q43 0 107 -35t92 -35q27 0 44 7q3 2 7 6t6.5 5.5t5.5 3.5t6 2.5t7 0.5q33 0 27 -29q-9 -44 -40 -70.5t-82 -26.5q-44 0 -109 39.5t-96 39.5q-29 0 -45 -14q-7 -9 -9 -11.5t-8 -5.5t-14 -3q-28 0 -24 24q7 46 38.5 74t86.5 28z" />
    <glyph glyph-name="exclamdown" unicode="&#xa1;" horiz-adv-x="271" 
d="M136 524q31 0 53 -22.5t22 -53.5t-22 -53t-53 -22t-53.5 22t-22.5 53q0 32 22 54t54 22zM136 -183q-30 0 -52 22t-22 52v342q0 30 22 52t52 22t51.5 -22t21.5 -52v-342q0 -30 -21.5 -52t-51.5 -22z" />
    <glyph glyph-name="cent" unicode="&#xa2;" horiz-adv-x="540" 
d="M447 233q21 0 37 -13.5t16 -35.5q0 -9 -2 -17t-7.5 -14.5t-8.5 -10t-10.5 -10t-8.5 -7.5q-45 -39 -105 -51v-64q0 -23 -16 -40t-39 -17q-24 0 -40.5 17t-16.5 40v67q-86 19 -146 84.5t-60 168.5t60 168.5t146 84.5v67q0 23 16.5 40t40.5 17q23 0 39 -17t16 -40v-64
q60 -10 105 -49q2 -2 8.5 -8t10.5 -10t8.5 -11t7 -14.5t2.5 -16.5q0 -22 -16 -35.5t-37 -13.5q-24 0 -51 20q-17 16 -38 23v-281q23 8 38 22q24 21 51 21zM170 330q0 -97 76 -134v269q-76 -37 -76 -135z" />
    <glyph glyph-name="sterling" unicode="&#xa3;" horiz-adv-x="588" 
d="M489 113q23 0 39.5 -16.5t16.5 -39.5q0 -24 -16.5 -40.5t-39.5 -16.5h-395q-29 0 -41 13q-19 19 1 47q59 76 80 118t21 77q0 14 -1 20h-53q-21 0 -35.5 14.5t-14.5 34.5t14.5 35t35.5 15h10q-41 64 -41 124q0 96 73.5 152.5t172.5 56.5q78 0 140 -39t85 -110
q10 -36 -8 -61t-55 -25q-46 0 -59 38q-31 85 -106 85q-50 0 -79.5 -28.5t-29.5 -77.5q0 -45 42 -115h108q20 0 34.5 -15t14.5 -35t-14.5 -34.5t-34.5 -14.5h-67q0 -3 0.5 -11t0.5 -12q0 -65 -58 -139h259z" />
    <glyph glyph-name="currency" unicode="&#xa4;" horiz-adv-x="534" 
d="M455 476q0 -53 -23 -99l47 -47l-81 -79l-40 40q-56 -39 -127 -39q-69 0 -124 38l-39 -39l-81 79l44 44q-24 50 -24 102q0 58 26 105l-46 46l81 79l42 -42q55 36 121 36t124 -37l43 43l81 -79l-49 -49q25 -47 25 -102zM231 358q59 0 89 39t30 79t-30 79t-89 39t-88.5 -39
t-29.5 -79q0 -41 29.5 -79.5t88.5 -38.5z" />
    <glyph glyph-name="yen" unicode="&#xa5;" horiz-adv-x="633" 
d="M586 608l-203 -296v-2h65q20 0 35 -14.5t15 -32.5q0 -19 -15 -33t-35 -14h-65v-26h65q20 0 35 -14.5t15 -32.5q0 -19 -15 -33t-35 -14h-65v-38q0 -27 -20 -46t-47 -19t-46.5 19t-19.5 46v38h-66q-20 0 -35 14t-15 33q0 18 15 32.5t35 14.5h66v26h-66q-20 0 -35 14t-15 33
q0 18 15 32.5t35 14.5h66v2l-203 296q-10 14 -10 34q0 26 18 43.5t44 17.5q30 0 49 -25l168 -252l169 252q17 25 49 25q26 0 44 -18t18 -43q0 -20 -10 -34z" />
    <glyph glyph-name="brokenbar" unicode="&#xa6;" horiz-adv-x="263" 
d="M132 807q23 0 39.5 -17t16.5 -40v-180q0 -23 -16.5 -40t-39.5 -17q-24 0 -40.5 17t-16.5 40v180q0 23 16.5 40t40.5 17zM132 97q23 0 39.5 -17t16.5 -40v-180q0 -23 -16.5 -40t-39.5 -17q-24 0 -40.5 17t-16.5 40v180q0 23 16.5 40t40.5 17z" />
    <glyph glyph-name="section" unicode="&#xa7;" horiz-adv-x="592" 
d="M552 215q0 -49 -27 -95q27 -48 27 -104q0 -64 -40.5 -113.5t-99 -73.5t-120.5 -24q-80 0 -144 40t-98 108q-16 37 -4.5 62t45.5 37q33 9 53 -3.5t41 -49.5q35 -60 107 -60q50 0 84 20.5t34 56.5t-22.5 56t-65.5 35l-87 29q-176 56 -176 201q0 44 28 100q-28 54 -28 104
q0 87 69.5 145t166.5 58q82 0 143.5 -38t92.5 -98q18 -36 5.5 -61.5t-48.5 -35.5q-33 -9 -50 2.5t-39 47.5q-35 49 -104 49q-42 0 -68 -19.5t-26 -49.5q0 -29 17.5 -46.5t56.5 -29.5l71 -25q206 -64 206 -225zM346 238q27 -8 64 -23q0 66 -88 95l-87 27q-4 1 -17.5 6.5
t-20.5 7.5q4 -10 4 -14q0 -54 74 -74zM410 215q2 -1 5.5 -2.5t4.5 -1.5q-3 2 -5.5 3.5t-3.5 1.5z" />
    <glyph glyph-name="dieresis" unicode="&#xa8;" horiz-adv-x="396" 
d="M70 575q-29 0 -49.5 20.5t-20.5 49.5q0 28 21 48.5t49 20.5q29 0 49.5 -20.5t20.5 -48.5q0 -29 -20.5 -49.5t-49.5 -20.5zM326 575q-29 0 -49.5 20.5t-20.5 49.5q0 28 20.5 48.5t49.5 20.5q28 0 49 -20.5t21 -48.5q0 -29 -20.5 -49.5t-49.5 -20.5z" />
    <glyph glyph-name="copyright" unicode="&#xa9;" horiz-adv-x="824" 
d="M413 707q144 0 252.5 -101t108.5 -256t-108.5 -256t-252.5 -101q-93 0 -175.5 43.5t-135 127t-52.5 186.5t52.5 186.5t135 127t175.5 43.5zM413 583q-94 0 -159.5 -65.5t-65.5 -167.5t65.5 -167.5t159.5 -65.5t159.5 65.5t65.5 167.5t-65.5 167.5t-159.5 65.5zM418 534
q46 0 81.5 -19t34.5 -52q0 -20 -17.5 -36t-41.5 -16q-6 0 -22 7q-3 1 -7 3.5t-10 4t-14 1.5q-31 0 -54 -22.5t-23 -54.5t22.5 -54.5t54.5 -22.5q8 0 14 2t10 4.5t5 2.5q21 9 27 9q23 0 38.5 -16t16.5 -39q0 -25 -20.5 -41.5t-46 -22.5t-53.5 -6q-73 0 -124.5 52t-51.5 132
q0 81 52 132.5t129 51.5z" />
    <glyph glyph-name="ordfeminine" unicode="&#xaa;" horiz-adv-x="414" 
d="M197 714q70 0 108.5 -40t38.5 -116v-96q0 -30 5 -45q7 -23 1 -31t-27 -8q-44 0 -50 19l-7 20q-33 -41 -100 -41q-57 0 -91.5 27t-34.5 75q0 52 39 79.5t99 32.5l74 6q1 23 -16 34t-41 11q-33 0 -67 -24q-28 -20 -52 4q-28 25 -8 46q50 47 129 47zM252 523q-29 -5 -76 -8
q-25 -2 -36.5 -12.5t-11.5 -22.5q0 -32 44 -32q58 0 80 53v22z" />
    <glyph glyph-name="guillemotleft" unicode="&#xab;" horiz-adv-x="473" 
d="M40 291q0 14 4.5 24.5t9.5 16t20 20.5l98 93q20 18 41.5 9.5t21.5 -33.5q0 -17 -29 -47l-77 -85l77 -85q29 -29 29 -46q0 -24 -21.5 -33.5t-41.5 8.5l-98 94q-14 14 -19.5 20t-10 16.5t-4.5 23.5v4zM238 291q0 14 4.5 24.5t9.5 16t20 20.5l98 93q20 18 41.5 9.5
t21.5 -33.5q0 -17 -29 -47l-77 -85l77 -85q29 -29 29 -46q0 -24 -21.5 -33.5t-41.5 8.5l-98 94q-14 14 -19.5 20t-10 16.5t-4.5 23.5v4z" />
    <glyph glyph-name="logicalnot" unicode="&#xac;" horiz-adv-x="523" 
d="M404 329q32 0 53 -21t21 -53v-98q0 -27 -19.5 -46t-46.5 -19q-26 0 -45.5 19t-19.5 46v65h-248q-22 0 -38 15.5t-16 37.5t16 38t38 16h305z" />
    <glyph glyph-name="uni00AD" unicode="&#xad;" horiz-adv-x="441" 
d="M343 329q21 0 37 -16t16 -38t-16 -37.5t-37 -15.5h-244q-22 0 -38 15.5t-16 37.5t16 38t38 16h244z" />
    <glyph glyph-name="registered" unicode="&#xae;" horiz-adv-x="824" 
d="M413 707q144 0 252.5 -101t108.5 -256t-108.5 -256t-252.5 -101q-93 0 -175.5 43.5t-135 127t-52.5 186.5t52.5 186.5t135 127t175.5 43.5zM413 583q-94 0 -159.5 -65.5t-65.5 -167.5t65.5 -167.5t159.5 -65.5t159.5 65.5t65.5 167.5t-65.5 167.5t-159.5 65.5zM398 527
q64 0 100.5 -30.5t36.5 -77.5q0 -75 -75 -104l90 -138h-72l-86 135h-34v-135h-72v350h112zM404 463h-47v-88h47q25 0 39.5 12t14.5 32t-14.5 32t-39.5 12z" />
    <glyph glyph-name="macron" unicode="&#xaf;" horiz-adv-x="390" 
d="M333 700q23 0 40 -16.5t17 -39.5q0 -24 -16.5 -40t-40.5 -16h-276q-24 0 -40.5 16t-16.5 40q0 23 17 39.5t40 16.5h276z" />
    <glyph glyph-name="degree" unicode="&#xb0;" horiz-adv-x="387" 
d="M194 719q61 0 104.5 -43t43.5 -103q0 -61 -43.5 -105t-104.5 -44t-105 44t-44 105q0 60 44 103t105 43zM194 625q-28 0 -40.5 -18.5t-12.5 -33.5q0 -18 12.5 -36.5t40.5 -18.5t40 18.5t12 36.5q0 16 -12 34t-40 18z" />
    <glyph glyph-name="plusminus" unicode="&#xb1;" horiz-adv-x="470" 
d="M103 323q-24 0 -41 15.5t-17 37.5t17.5 38t40.5 16h79v80q0 24 15.5 41t37.5 17t38 -17.5t16 -40.5v-80h78q23 0 40 -16t17 -38t-17 -37.5t-40 -15.5h-78v-77q0 -23 -16 -40t-38 -17t-37.5 17t-15.5 40v77h-79zM367 108q23 0 40 -16t17 -38t-17 -37.5t-40 -15.5h-264
q-24 0 -41 15.5t-17 37.5t17.5 38t40.5 16h264z" />
    <glyph glyph-name="uni00B2" unicode="&#xb2;" horiz-adv-x="261" 
d="M129 704q34 0 59 -22.5t25 -52.5q0 -26 -14.5 -47t-53.5 -61l-47 -49h118v-32h-168v32l68 69q28 29 36.5 38.5t15.5 22.5t7 27q0 18 -14 31t-32 13q-19 0 -33 -13t-14 -37v-14h-37v14q0 35 24.5 58t59.5 23z" />
    <glyph glyph-name="uni00B3" unicode="&#xb3;" horiz-adv-x="273" 
d="M136 703q32 0 56 -20.5t24 -47.5q0 -32 -30 -53q42 -18 42 -66q0 -34 -27.5 -57t-64.5 -23q-41 0 -68 27.5t-23 63.5h38q-6 -23 11 -41t42 -18q22 0 38 13.5t16 34.5q0 28 -20 39t-54 5v32q63 3 63 43q0 15 -12.5 26t-30.5 11q-22 0 -35.5 -16t-10.5 -42h-38
q-4 38 21.5 63.5t62.5 25.5z" />
    <glyph glyph-name="acute" unicode="&#xb4;" horiz-adv-x="182" 
d="M109 774q29 0 48.5 -20t19.5 -48q0 -25 -15 -43l-75 -83q-13 -18 -36 -18q-25 0 -39 18.5t-4 43.5l37 104q17 46 64 46z" />
    <glyph glyph-name="uni00B5" unicode="&#xb5;" horiz-adv-x="617" 
d="M491 523q27 0 46.5 -19t19.5 -46v-397q0 -27 -19.5 -46.5t-46.5 -19.5q-26 0 -45.5 19.5t-19.5 46.5v50q-4 -35 -51.5 -76.5t-119.5 -41.5q-35 0 -64 10v-135q0 -27 -19.5 -46t-45.5 -19q-27 0 -46.5 19t-19.5 46v590q0 26 19.5 45.5t46.5 19.5h2h3q26 0 45.5 -19
t19.5 -46v-226q0 -64 29.5 -95.5t76.5 -31.5q58 0 88.5 38.5t35.5 73.5v241q0 27 19.5 46t45.5 19z" />
    <glyph glyph-name="paragraph" unicode="&#xb6;" horiz-adv-x="885" 
d="M750 707q26 0 45.5 -19t19.5 -46v-584q0 -27 -19.5 -46t-45.5 -19q-27 0 -46.5 19t-19.5 46v584q0 27 19.5 46t46.5 19zM517 700q32 0 53 -21t21 -53v-565q0 -28 -20 -48t-48 -20t-47.5 20t-19.5 48v187h-122q-115 0 -185.5 63.5t-70.5 161.5q0 97 70.5 162t185.5 65h183
zM340 363h116v222h-116q-131 0 -131 -112q0 -110 131 -110z" />
    <glyph glyph-name="periodcentered" unicode="&#xb7;" horiz-adv-x="251" 
d="M126 205q-32 0 -54 22.5t-22 53.5t22.5 53t53.5 22t53 -22t22 -53t-22 -53.5t-53 -22.5z" />
    <glyph glyph-name="cedilla" unicode="&#xb8;" horiz-adv-x="200" 
d="M110 -53q39 -9 64.5 -34t25.5 -61q0 -50 -49 -72.5t-126 -17.5q-12 1 -19 8t-5 17q3 14 28 17q71 6 71 46q0 18 -13.5 27.5t-29.5 4.5q-30 -7 -43 17q-11 19 -2 40l36 61h112z" />
    <glyph glyph-name="uni00B9" unicode="&#xb9;" horiz-adv-x="192" 
d="M117 701v-261h-37v221l-17 -11l-18 31l35 20h37z" />
    <glyph glyph-name="ordmasculine" unicode="&#xba;" horiz-adv-x="392" 
d="M196 705q60 0 108 -45t48 -118q0 -74 -48 -118.5t-108 -44.5t-108 44.5t-48 118.5q0 73 48 118t108 45zM196 619q-30 0 -50.5 -20.5t-20.5 -54.5q0 -36 20.5 -57t50.5 -21t50 20.5t20 57.5q0 34 -20 54.5t-50 20.5z" />
    <glyph glyph-name="guillemotright" unicode="&#xbb;" horiz-adv-x="473" 
d="M235 291v-4q0 -19 -7 -30t-27 -30l-98 -94q-20 -18 -41.5 -8.5t-21.5 33.5q0 17 29 46l77 85l-77 85q-29 30 -29 47q0 25 21.5 33.5t41.5 -9.5l98 -93q15 -15 20 -20.5t9.5 -16t4.5 -24.5zM433 291v-4q0 -19 -7 -30t-27 -30l-98 -94q-20 -18 -41.5 -8.5t-21.5 33.5
q0 17 29 46l77 85l-77 85q-29 30 -29 47q0 25 21.5 33.5t41.5 -9.5l98 -93q15 -15 20 -20.5t9.5 -16t4.5 -24.5z" />
    <glyph glyph-name="onequarter" unicode="&#xbc;" horiz-adv-x="569" 
d="M100 701v-261h-37v221l-17 -11l-18 31l35 20h37zM503 700l-430 -700h-48l436 700h42zM517 261v-154h27v-31h-27v-76h-37v76h-132l132 185h37zM480 202l-65 -95h65v95z" />
    <glyph glyph-name="onehalf" unicode="&#xbd;" horiz-adv-x="544" 
d="M100 701v-261h-37v221l-17 -11l-18 31l35 20h37zM503 700l-430 -700h-48l436 700h42zM432 264q34 0 59 -22.5t25 -52.5q0 -26 -14.5 -47t-53.5 -61l-47 -49h118v-32h-168v32l68 69q28 29 36.5 38.5t15.5 22.5t7 27q0 18 -14 31t-32 13q-19 0 -33 -13t-14 -37v-14h-37v14
q0 35 24.5 58t59.5 23z" />
    <glyph glyph-name="threequarters" unicode="&#xbe;" horiz-adv-x="587" 
d="M116 703q32 0 56 -20.5t24 -47.5q0 -32 -30 -53q42 -18 42 -66q0 -34 -27.5 -57t-64.5 -23q-41 0 -68 27.5t-23 63.5h38q-6 -23 11 -41t42 -18q22 0 38 13.5t16 34.5q0 28 -20 39t-54 5v32q63 3 63 43q0 15 -12.5 26t-30.5 11q-22 0 -35.5 -16t-10.5 -42h-38
q-4 38 21.5 63.5t62.5 25.5zM531 700l-430 -700h-48l436 700h42zM535 261v-154h27v-31h-27v-76h-37v76h-132l132 185h37zM498 202l-65 -95h65v95z" />
    <glyph glyph-name="questiondown" unicode="&#xbf;" horiz-adv-x="536" 
d="M256 524q32 0 54 -22t22 -54q0 -31 -22.5 -53t-53.5 -22t-53 22t-22 53t22 53.5t53 22.5zM265 -187q-93 0 -161.5 56t-68.5 149q0 41 15.5 71t38 48t45 34t38 38t15.5 50t18 48t50 20t50 -20t18 -48q0 -38 -16 -68.5t-39.5 -50.5t-46.5 -38.5t-39 -40.5t-16 -47
q0 -33 25 -61t74 -28q53 0 79 34t25 77q0 29 16 50t49 21q34 0 50.5 -21t16.5 -50q0 -102 -71.5 -162.5t-164.5 -60.5z" />
    <glyph glyph-name="Agrave" unicode="&#xc0;" horiz-adv-x="714" 
d="M333 760l-75 83q-15 18 -15 43q0 28 19.5 48t48.5 20q47 0 64 -46l37 -104q10 -25 -4 -43.5t-39 -18.5q-23 0 -36 18zM671 95q8 -18 8 -38q0 -25 -19 -43t-46 -18q-47 0 -65 43l-50 118h-284l-50 -118q-18 -43 -64 -43q-28 0 -47 18t-19 43q0 18 9 38l248 559
q21 50 65 50t66 -50zM261 264h192l-96 226z" />
    <glyph glyph-name="Aacute" unicode="&#xc1;" horiz-adv-x="714" 
d="M337 742q-25 0 -39 18.5t-4 43.5l37 104q17 46 64 46q29 0 48.5 -20t19.5 -48q0 -25 -15 -43l-75 -83q-13 -18 -36 -18zM671 95q8 -18 8 -38q0 -25 -19 -43t-46 -18q-47 0 -65 43l-50 118h-284l-50 -118q-18 -43 -64 -43q-28 0 -47 18t-19 43q0 18 9 38l248 559
q21 50 65 50t66 -50zM261 264h192l-96 226z" />
    <glyph glyph-name="Acircumflex" unicode="&#xc2;" horiz-adv-x="714" 
d="M248 792q-24 0 -32 21t8 42l70 91q15 19 27.5 26.5t33.5 7.5h4q20 0 32.5 -7.5t28.5 -26.5l70 -91q16 -21 7.5 -42t-32.5 -21q-23 0 -47 28l-61 71l-62 -71q-23 -28 -47 -28zM671 95q8 -18 8 -38q0 -25 -19 -43t-46 -18q-47 0 -65 43l-50 118h-284l-50 -118
q-18 -43 -64 -43q-28 0 -47 18t-19 43q0 18 9 38l248 559q21 50 65 50t66 -50zM261 264h192l-96 226z" />
    <glyph glyph-name="Atilde" unicode="&#xc3;" horiz-adv-x="714" 
d="M184 791q-16 0 -26 12t-6 28q11 42 45 67.5t81 25.5q39 0 97 -34t81 -34q29 0 42 18q11 13 29 13q17 0 27 -13t5 -29q-12 -41 -43 -66.5t-72 -25.5q-42 0 -104 39t-87 39q-27 0 -39 -22q-9 -18 -30 -18zM671 95q8 -18 8 -38q0 -25 -19 -43t-46 -18q-47 0 -65 43l-50 118
h-284l-50 -118q-18 -43 -64 -43q-28 0 -47 18t-19 43q0 18 9 38l248 559q21 50 65 50t66 -50zM261 264h192l-96 226z" />
    <glyph glyph-name="Adieresis" unicode="&#xc4;" horiz-adv-x="714" 
d="M229 755q-29 0 -49.5 20.5t-20.5 49.5q0 28 21 48.5t49 20.5q29 0 49.5 -20.5t20.5 -48.5q0 -29 -20.5 -49.5t-49.5 -20.5zM485 755q-29 0 -49.5 20.5t-20.5 49.5q0 28 20.5 48.5t49.5 20.5q28 0 49 -20.5t21 -48.5q0 -29 -20.5 -49.5t-49.5 -20.5zM671 95q8 -18 8 -38
q0 -25 -19 -43t-46 -18q-47 0 -65 43l-50 118h-284l-50 -118q-18 -43 -64 -43q-28 0 -47 18t-19 43q0 18 9 38l248 559q21 50 65 50t66 -50zM261 264h192l-96 226z" />
    <glyph glyph-name="Aring" unicode="&#xc5;" horiz-adv-x="714" 
d="M358 771q-46 0 -78.5 32t-32.5 76t32.5 76t78.5 32q44 0 75.5 -32t31.5 -76t-32 -76t-75 -32zM355 909q-11 0 -19 -8.5t-8 -20.5q0 -11 8 -19t19 -8t20 8t9 19q0 12 -9 20.5t-20 8.5zM671 95q8 -18 8 -38q0 -25 -19 -43t-46 -18q-47 0 -65 43l-50 118h-284l-50 -118
q-18 -43 -64 -43q-28 0 -47 18t-19 43q0 18 9 38l248 559q21 50 65 50t66 -50zM261 264h192l-96 226z" />
    <glyph glyph-name="AE" unicode="&#xc6;" horiz-adv-x="967" 
d="M872 118q24 0 42 -17.5t18 -41.5t-18 -41.5t-42 -17.5h-342q-32 0 -53 21t-21 53v85h-206l-80 -119q-27 -40 -78 -40h-2q-39 0 -51 23t10 54l398 583q27 40 78 40h337q24 0 42 -17t18 -41q0 -25 -18 -42.5t-42 -17.5h-271v-174h178q25 0 42 -16.5t17 -39.5t-17 -40
t-42 -17h-178v-177h281zM327 272h129v191z" />
    <glyph glyph-name="Ccedilla" unicode="&#xc7;" horiz-adv-x="664" 
d="M566 176q26 0 44.5 -16.5t18.5 -44.5q0 -40 -60 -79q-55 -34 -129 -41l-45 -48q39 -9 64.5 -34t25.5 -61q0 -50 -49 -72.5t-126 -17.5q-12 1 -19 8t-5 17q3 14 28 17q71 6 71 46q0 18 -13.5 27.5t-29.5 4.5q-30 -7 -43 17q-11 19 -2 40l36 61h3q-119 24 -202.5 120.5
t-83.5 229.5q0 102 52 185t132 127.5t168 44.5q95 0 167 -43q60 -39 60 -79q0 -28 -18.5 -44.5t-44.5 -16.5q-25 0 -54 21q-51 34 -108 34q-86 0 -149.5 -67t-63.5 -162q0 -96 63.5 -162.5t150.5 -66.5q56 0 107 34q29 21 54 21z" />
    <glyph glyph-name="Egrave" unicode="&#xc8;" horiz-adv-x="571" 
d="M256 954q47 0 64 -46l37 -104q10 -25 -4 -43.5t-39 -18.5q-23 0 -36 18l-75 83q-15 18 -15 43q0 28 20 48t48 20zM195 118h281q24 0 42 -17.5t18 -41.5t-18 -41.5t-42 -17.5h-342q-32 0 -53 21t-21 53v552q0 32 21 53t53 21h332q24 0 42 -17t18 -41q0 -25 -18 -42.5
t-42 -17.5h-271v-174h178q25 0 42 -16.5t17 -39.5t-17 -40t-42 -17h-178v-177z" />
    <glyph glyph-name="Eacute" unicode="&#xc9;" horiz-adv-x="571" 
d="M340 954q28 0 48 -20t20 -48q0 -25 -15 -43l-75 -83q-13 -18 -36 -18q-25 0 -39 18.5t-4 43.5l37 104q17 46 64 46zM195 118h281q24 0 42 -17.5t18 -41.5t-18 -41.5t-42 -17.5h-342q-32 0 -53 21t-21 53v552q0 32 21 53t53 21h332q24 0 42 -17t18 -41q0 -25 -18 -42.5
t-42 -17.5h-271v-174h178q25 0 42 -16.5t17 -39.5t-17 -40t-42 -17h-178v-177z" />
    <glyph glyph-name="Ecircumflex" unicode="&#xca;" horiz-adv-x="571" 
d="M304 980q20 0 32.5 -7.5t28.5 -26.5l70 -91q16 -21 7.5 -42t-32.5 -21q-23 0 -47 28l-61 71l-62 -71q-23 -28 -47 -28t-32 21t8 42l70 91q15 19 27.5 26.5t33.5 7.5h4zM195 118h281q24 0 42 -17.5t18 -41.5t-18 -41.5t-42 -17.5h-342q-32 0 -53 21t-21 53v552q0 32 21 53
t53 21h332q24 0 42 -17t18 -41q0 -25 -18 -42.5t-42 -17.5h-271v-174h178q25 0 42 -16.5t17 -39.5t-17 -40t-42 -17h-178v-177z" />
    <glyph glyph-name="Edieresis" unicode="&#xcb;" horiz-adv-x="571" 
d="M174 755q-29 0 -49.5 20.5t-20.5 49.5q0 28 21 48.5t49 20.5q29 0 49.5 -20.5t20.5 -48.5q0 -29 -20.5 -49.5t-49.5 -20.5zM430 755q-29 0 -49.5 20.5t-20.5 49.5q0 28 20.5 48.5t49.5 20.5q28 0 49 -20.5t21 -48.5q0 -29 -20.5 -49.5t-49.5 -20.5zM195 118h281
q24 0 42 -17.5t18 -41.5t-18 -41.5t-42 -17.5h-342q-32 0 -53 21t-21 53v552q0 32 21 53t53 21h332q24 0 42 -17t18 -41q0 -25 -18 -42.5t-42 -17.5h-271v-174h178q25 0 42 -16.5t17 -39.5t-17 -40t-42 -17h-178v-177z" />
    <glyph glyph-name="Igrave" unicode="&#xcc;" horiz-adv-x="257" 
d="M83 954q47 0 64 -46l37 -104q10 -25 -4 -43.5t-39 -18.5q-23 0 -36 18l-75 83q-15 18 -15 43q0 28 19.5 48t48.5 20zM129 703q28 0 48 -20.5t20 -48.5v-572q0 -28 -20 -48.5t-48 -20.5t-48.5 20.5t-20.5 48.5v572q0 28 20.5 48.5t48.5 20.5z" />
    <glyph glyph-name="Iacute" unicode="&#xcd;" horiz-adv-x="257" 
d="M167 954q29 0 48.5 -20t19.5 -48q0 -25 -15 -43l-75 -83q-13 -18 -36 -18q-25 0 -39 18.5t-4 43.5l37 104q17 46 64 46zM129 703q28 0 48 -20.5t20 -48.5v-572q0 -28 -20 -48.5t-48 -20.5t-48.5 20.5t-20.5 48.5v572q0 28 20.5 48.5t48.5 20.5z" />
    <glyph glyph-name="Icircumflex" unicode="&#xce;" horiz-adv-x="257" 
d="M131 980q20 0 32.5 -7.5t28.5 -26.5l70 -91q16 -21 7.5 -42t-32.5 -21q-23 0 -47 28l-61 71l-62 -71q-23 -28 -47 -28t-32 21t8 42l70 91q15 19 27.5 26.5t33.5 7.5h4zM129 703q28 0 48 -20.5t20 -48.5v-572q0 -28 -20 -48.5t-48 -20.5t-48.5 20.5t-20.5 48.5v572
q0 28 20.5 48.5t48.5 20.5z" />
    <glyph glyph-name="Idieresis" unicode="&#xcf;" horiz-adv-x="257" 
d="M1 755q-29 0 -49.5 20.5t-20.5 49.5q0 28 21 48.5t49 20.5q29 0 49.5 -20.5t20.5 -48.5q0 -29 -20.5 -49.5t-49.5 -20.5zM257 755q-29 0 -49.5 20.5t-20.5 49.5q0 28 20.5 48.5t49.5 20.5q28 0 49 -20.5t21 -48.5q0 -29 -20.5 -49.5t-49.5 -20.5zM129 703q28 0 48 -20.5
t20 -48.5v-572q0 -28 -20 -48.5t-48 -20.5t-48.5 20.5t-20.5 48.5v572q0 28 20.5 48.5t48.5 20.5z" />
    <glyph glyph-name="Eth" unicode="&#xd0;" horiz-adv-x="737" 
d="M339 700q155 0 256.5 -92.5t101.5 -254.5q0 -166 -101.5 -259.5t-256.5 -93.5h-147q-32 0 -53 21t-21 53v216h-4q-22 0 -38 15.5t-16 37.5t16 38t38 16h4v229q0 32 21 53t53 21h147zM339 114q223 0 223 239q0 233 -223 233h-86v-189h105q21 0 37 -16t16 -38t-16 -37.5
t-37 -15.5h-105v-176h86z" />
    <glyph glyph-name="Ntilde" unicode="&#xd1;" horiz-adv-x="700" 
d="M272 924q39 0 97 -34t81 -34q29 0 42 18q11 13 29 13q17 0 27 -13t5 -29q-12 -41 -43 -66.5t-72 -25.5q-42 0 -104 39t-87 39q-27 0 -39 -22q-9 -18 -30 -18q-16 0 -26 12t-6 28q11 42 45 67.5t81 25.5zM571 703q29 0 49 -20.5t20 -48.5v-574q0 -31 -18 -48.5t-45 -17.5
q-41 0 -70 40l-310 422v-393q0 -28 -19.5 -48.5t-47.5 -20.5q-29 0 -49.5 20.5t-20.5 48.5v575q0 31 18 48t46 17q41 0 69 -39l310 -423v393q0 28 20 48.5t48 20.5z" />
    <glyph glyph-name="Ograve" unicode="&#xd2;" horiz-adv-x="797" 
d="M352 954q47 0 64 -46l37 -104q10 -25 -4 -43.5t-39 -18.5q-23 0 -36 18l-75 83q-15 18 -15 43q0 28 20 48t48 20zM398 707q137 0 243 -102t106 -255t-106 -255t-243 -102q-88 0 -167.5 44.5t-130 127.5t-50.5 185t50.5 185t130 127.5t167.5 44.5zM398 579
q-85 0 -146 -64.5t-61 -164.5t61 -164.5t146 -64.5q86 0 147 64.5t61 164.5t-61 164.5t-147 64.5z" />
    <glyph glyph-name="Oacute" unicode="&#xd3;" horiz-adv-x="797" 
d="M436 954q28 0 48 -20t20 -48q0 -25 -15 -43l-75 -83q-13 -18 -36 -18q-25 0 -39 18.5t-4 43.5l37 104q17 46 64 46zM398 707q137 0 243 -102t106 -255t-106 -255t-243 -102q-88 0 -167.5 44.5t-130 127.5t-50.5 185t50.5 185t130 127.5t167.5 44.5zM398 579
q-85 0 -146 -64.5t-61 -164.5t61 -164.5t146 -64.5q86 0 147 64.5t61 164.5t-61 164.5t-147 64.5z" />
    <glyph glyph-name="Ocircumflex" unicode="&#xd4;" horiz-adv-x="797" 
d="M400 980q20 0 32.5 -7.5t28.5 -26.5l70 -91q16 -21 7.5 -42t-32.5 -21q-23 0 -47 28l-61 71l-62 -71q-23 -28 -47 -28t-32 21t8 42l70 91q15 19 27.5 26.5t33.5 7.5h4zM398 707q137 0 243 -102t106 -255t-106 -255t-243 -102q-88 0 -167.5 44.5t-130 127.5t-50.5 185
t50.5 185t130 127.5t167.5 44.5zM398 579q-85 0 -146 -64.5t-61 -164.5t61 -164.5t146 -64.5q86 0 147 64.5t61 164.5t-61 164.5t-147 64.5z" />
    <glyph glyph-name="Otilde" unicode="&#xd5;" horiz-adv-x="797" 
d="M319 924q39 0 97 -34t81 -34q29 0 42 18q11 13 29 13q17 0 27 -13t5 -29q-12 -41 -43 -66.5t-72 -25.5q-34 0 -70 19.5t-67.5 39t-53.5 19.5q-27 0 -39 -22q-9 -18 -30 -18q-16 0 -26 12t-6 28q11 42 45 67.5t81 25.5zM398 707q137 0 243 -102t106 -255t-106 -255
t-243 -102q-88 0 -167.5 44.5t-130 127.5t-50.5 185t50.5 185t130 127.5t167.5 44.5zM398 579q-85 0 -146 -64.5t-61 -164.5t61 -164.5t146 -64.5q86 0 147 64.5t61 164.5t-61 164.5t-147 64.5z" />
    <glyph glyph-name="Odieresis" unicode="&#xd6;" horiz-adv-x="797" 
d="M270 755q-29 0 -49.5 20.5t-20.5 49.5q0 28 21 48.5t49 20.5q29 0 49.5 -20.5t20.5 -48.5q0 -29 -20.5 -49.5t-49.5 -20.5zM526 755q-29 0 -49.5 20.5t-20.5 49.5q0 28 20.5 48.5t49.5 20.5q28 0 49 -20.5t21 -48.5q0 -29 -20.5 -49.5t-49.5 -20.5zM398 707
q137 0 243 -102t106 -255t-106 -255t-243 -102q-88 0 -167.5 44.5t-130 127.5t-50.5 185t50.5 185t130 127.5t167.5 44.5zM398 579q-85 0 -146 -64.5t-61 -164.5t61 -164.5t146 -64.5q86 0 147 64.5t61 164.5t-61 164.5t-147 64.5z" />
    <glyph glyph-name="multiply" unicode="&#xd7;" horiz-adv-x="389" 
d="M325 206q17 -16 18 -39t-15 -40q-17 -15 -39.5 -14t-38.5 17l-56 56l-54 -55q-17 -16 -40 -17t-39 15q-15 16 -14 38.5t17 39.5l55 54l-56 56q-17 17 -18.5 40t14.5 39t39.5 15t40.5 -18l56 -56l56 56q17 17 39.5 18.5t39.5 -14.5q16 -16 14.5 -39t-18.5 -40l-56 -57z
" />
    <glyph glyph-name="Oslash" unicode="&#xd8;" horiz-adv-x="797" 
d="M609 633q63 -49 100.5 -122t37.5 -161q0 -153 -106 -255t-243 -102q-48 0 -90 13l-12 -25q-20 -38 -59 -38q-28 0 -47 19.5t-19 46.5q0 16 6 29l13 27q-64 49 -102 123t-38 162q0 102 50.5 185t130 127.5t167.5 44.5q46 0 93 -14l10 21q8 16 24 27t34 11q28 0 47.5 -19.5
t19.5 -46.5q0 -11 -6 -29zM191 350q0 -96 58 -161l186 387q-18 3 -37 3q-85 0 -146 -64.5t-61 -164.5zM398 121q86 0 147 64.5t61 164.5q0 95 -57 160l-185 -386q16 -3 34 -3z" />
    <glyph glyph-name="Ugrave" unicode="&#xd9;" horiz-adv-x="688" 
d="M298 954q47 0 64 -46l37 -104q10 -25 -4 -43.5t-39 -18.5q-23 0 -36 18l-75 83q-15 18 -15 43q0 28 20 48t48 20zM558 703q27 0 46 -19t19 -46v-387q0 -118 -79.5 -188t-199.5 -70t-199.5 70t-79.5 188v387q0 26 19.5 45.5t46.5 19.5q28 0 48.5 -19.5t20.5 -45.5v-385
q0 -74 40.5 -110.5t103.5 -36.5t103.5 36.5t40.5 110.5v385q0 26 21 45.5t49 19.5z" />
    <glyph glyph-name="Uacute" unicode="&#xda;" horiz-adv-x="688" 
d="M382 954q28 0 48 -20t20 -48q0 -25 -15 -43l-75 -83q-13 -18 -36 -18q-25 0 -39 18.5t-4 43.5l37 104q17 46 64 46zM558 703q27 0 46 -19t19 -46v-387q0 -118 -79.5 -188t-199.5 -70t-199.5 70t-79.5 188v387q0 26 19.5 45.5t46.5 19.5q28 0 48.5 -19.5t20.5 -45.5v-385
q0 -74 40.5 -110.5t103.5 -36.5t103.5 36.5t40.5 110.5v385q0 26 21 45.5t49 19.5z" />
    <glyph glyph-name="Ucircumflex" unicode="&#xdb;" horiz-adv-x="688" 
d="M346 980q20 0 32.5 -7.5t28.5 -26.5l70 -91q16 -21 7.5 -42t-32.5 -21q-23 0 -47 28l-61 71l-62 -71q-23 -28 -47 -28t-32 21t8 42l70 91q15 19 27.5 26.5t33.5 7.5h4zM558 703q27 0 46 -19t19 -46v-387q0 -118 -79.5 -188t-199.5 -70t-199.5 70t-79.5 188v387
q0 26 19.5 45.5t46.5 19.5q28 0 48.5 -19.5t20.5 -45.5v-385q0 -74 40.5 -110.5t103.5 -36.5t103.5 36.5t40.5 110.5v385q0 26 21 45.5t49 19.5z" />
    <glyph glyph-name="Udieresis" unicode="&#xdc;" horiz-adv-x="688" 
d="M216 755q-29 0 -49.5 20.5t-20.5 49.5q0 28 21 48.5t49 20.5q29 0 49.5 -20.5t20.5 -48.5q0 -29 -20.5 -49.5t-49.5 -20.5zM472 755q-29 0 -49.5 20.5t-20.5 49.5q0 28 20.5 48.5t49.5 20.5q28 0 49 -20.5t21 -48.5q0 -29 -20.5 -49.5t-49.5 -20.5zM558 703q27 0 46 -19
t19 -46v-387q0 -118 -79.5 -188t-199.5 -70t-199.5 70t-79.5 188v387q0 26 19.5 45.5t46.5 19.5q28 0 48.5 -19.5t20.5 -45.5v-385q0 -74 40.5 -110.5t103.5 -36.5t103.5 36.5t40.5 110.5v385q0 26 21 45.5t49 19.5z" />
    <glyph glyph-name="Yacute" unicode="&#xdd;" horiz-adv-x="633" 
d="M354 954q28 0 48 -20t20 -48q0 -25 -15 -43l-75 -83q-13 -18 -36 -18q-25 0 -39 18.5t-4 43.5l37 104q17 46 64 46zM534 703q26 0 44 -18t18 -43q0 -20 -10 -34l-203 -296v-254q0 -27 -20 -46t-47 -19t-46.5 19t-19.5 46v254l-203 296q-10 14 -10 34q0 26 18 43.5
t44 17.5q30 0 49 -25l168 -252l169 252q17 25 49 25z" />
    <glyph glyph-name="Thorn" unicode="&#xde;" horiz-adv-x="645" 
d="M331 565q126 0 202.5 -59t76.5 -154q0 -101 -75.5 -157t-203.5 -56h-140v-139h-131v700h131v-135h140zM333 252q77 0 101 11q45 19 45 89q0 28 -8.5 47t-20.5 29.5t-33.5 16t-39 6.5t-44.5 1h-142v-200h142z" />
    <glyph glyph-name="germandbls" unicode="&#xdf;" horiz-adv-x="650" 
d="M319 700q109 0 180 -50t71 -134q0 -63 -35 -97t-74 -35q61 -5 105 -52.5t44 -125.5q0 -94 -65 -150t-175 -56h-47q-65 0 -65 58q0 59 65 59h39q117 0 117 98q0 31 -12 52.5t-31.5 31.5t-37.5 14t-37 4h-38q-65 0 -65 57t65 57h39q40 0 58.5 23t18.5 55q0 79 -122 79
q-66 0 -96 -26.5t-30 -87.5v-407q0 -67 -65 -67q-66 0 -66 67v407q0 105 70.5 165.5t188.5 60.5z" />
    <glyph glyph-name="agrave" unicode="&#xe0;" 
d="M292 580l-75 83q-15 18 -15 43q0 28 20 48t48 20q47 0 64 -46l37 -104q10 -25 -4 -43.5t-39 -18.5q-23 0 -36 18zM496 523q26 0 46.5 -19.5t20.5 -45.5v-399q0 -27 -20 -46t-47 -19t-46.5 19t-19.5 46v19q-7 -29 -48 -57t-100 -28q-43 0 -84.5 16.5t-77.5 48t-58 84.5
t-22 118q0 64 22.5 116t58 84t77.5 49t84 17q52 0 92 -24t56 -61v17q0 26 19.5 45.5t46.5 19.5zM306 106q50 0 90 38.5t40 115.5t-40 115.5t-90 38.5q-54 0 -94.5 -41t-40.5 -113q0 -73 40.5 -113.5t94.5 -40.5z" />
    <glyph glyph-name="aacute" unicode="&#xe1;" 
d="M296 562q-25 0 -39 18.5t-4 43.5l37 104q17 46 64 46q28 0 48 -20t20 -48q0 -25 -15 -43l-75 -83q-13 -18 -36 -18zM496 523q26 0 46.5 -19.5t20.5 -45.5v-399q0 -27 -20 -46t-47 -19t-46.5 19t-19.5 46v19q-7 -29 -48 -57t-100 -28q-43 0 -84.5 16.5t-77.5 48t-58 84.5
t-22 118q0 64 22.5 116t58 84t77.5 49t84 17q52 0 92 -24t56 -61v17q0 26 19.5 45.5t46.5 19.5zM306 106q50 0 90 38.5t40 115.5t-40 115.5t-90 38.5q-54 0 -94.5 -41t-40.5 -113q0 -73 40.5 -113.5t94.5 -40.5z" />
    <glyph glyph-name="acircumflex" unicode="&#xe2;" 
d="M207 612q-24 0 -32 21t8 42l70 91q15 19 27.5 26.5t33.5 7.5h4q20 0 32.5 -7.5t28.5 -26.5l70 -91q16 -21 7.5 -42t-32.5 -21q-23 0 -47 28l-61 71l-62 -71q-23 -28 -47 -28zM496 523q26 0 46.5 -19.5t20.5 -45.5v-399q0 -27 -20 -46t-47 -19t-46.5 19t-19.5 46v19
q-7 -29 -48 -57t-100 -28q-43 0 -84.5 16.5t-77.5 48t-58 84.5t-22 118q0 64 22.5 116t58 84t77.5 49t84 17q52 0 92 -24t56 -61v17q0 26 19.5 45.5t46.5 19.5zM306 106q50 0 90 38.5t40 115.5t-40 115.5t-90 38.5q-54 0 -94.5 -41t-40.5 -113q0 -73 40.5 -113.5t94.5 -40.5
z" />
    <glyph glyph-name="atilde" unicode="&#xe3;" 
d="M143 611q-16 0 -26 12t-6 28q11 42 45 67.5t81 25.5q39 0 97 -34t81 -34q29 0 42 18q11 13 29 13q17 0 27 -13t5 -29q-12 -41 -43 -66.5t-72 -25.5q-34 0 -70 19.5t-67.5 39t-53.5 19.5q-27 0 -39 -22q-9 -18 -30 -18zM496 523q26 0 46.5 -19.5t20.5 -45.5v-399
q0 -27 -20 -46t-47 -19t-46.5 19t-19.5 46v19q-7 -29 -48 -57t-100 -28q-43 0 -84.5 16.5t-77.5 48t-58 84.5t-22 118q0 64 22.5 116t58 84t77.5 49t84 17q52 0 92 -24t56 -61v17q0 26 19.5 45.5t46.5 19.5zM306 106q50 0 90 38.5t40 115.5t-40 115.5t-90 38.5
q-54 0 -94.5 -41t-40.5 -113q0 -73 40.5 -113.5t94.5 -40.5z" />
    <glyph glyph-name="adieresis" unicode="&#xe4;" 
d="M188 575q-29 0 -49.5 20.5t-20.5 49.5q0 28 21 48.5t49 20.5q29 0 49.5 -20.5t20.5 -48.5q0 -29 -20.5 -49.5t-49.5 -20.5zM444 575q-29 0 -49.5 20.5t-20.5 49.5q0 28 20.5 48.5t49.5 20.5q28 0 49 -20.5t21 -48.5q0 -29 -20.5 -49.5t-49.5 -20.5zM496 523
q26 0 46.5 -19.5t20.5 -45.5v-399q0 -27 -20 -46t-47 -19t-46.5 19t-19.5 46v19q-7 -29 -48 -57t-100 -28q-43 0 -84.5 16.5t-77.5 48t-58 84.5t-22 118q0 64 22.5 116t58 84t77.5 49t84 17q52 0 92 -24t56 -61v17q0 26 19.5 45.5t46.5 19.5zM306 106q50 0 90 38.5t40 115.5
t-40 115.5t-90 38.5q-54 0 -94.5 -41t-40.5 -113q0 -73 40.5 -113.5t94.5 -40.5z" />
    <glyph glyph-name="aring" unicode="&#xe5;" 
d="M317 591q-46 0 -78.5 32t-32.5 76t32.5 76t78.5 32q44 0 75.5 -32t31.5 -76t-32 -76t-75 -32zM314 729q-11 0 -19 -8.5t-8 -20.5q0 -11 8 -19t19 -8t20 8t9 19q0 12 -9 20.5t-20 8.5zM496 523q26 0 46.5 -19.5t20.5 -45.5v-399q0 -27 -20 -46t-47 -19t-46.5 19t-19.5 46
v19q-7 -29 -48 -57t-100 -28q-43 0 -84.5 16.5t-77.5 48t-58 84.5t-22 118q0 64 22.5 116t58 84t77.5 49t84 17q52 0 92 -24t56 -61v17q0 26 19.5 45.5t46.5 19.5zM306 106q50 0 90 38.5t40 115.5t-40 115.5t-90 38.5q-54 0 -94.5 -41t-40.5 -113q0 -73 40.5 -113.5
t94.5 -40.5z" />
    <glyph glyph-name="ae" unicode="&#xe6;" horiz-adv-x="992" 
d="M952 281q0 -38 -20.5 -54t-61.5 -16l-297 2q9 -53 48 -82.5t95 -29.5q35 0 83 21q36 16 49 16q20 0 32.5 -13t12.5 -32q0 -28 -32 -55q-61 -43 -150 -43q-85 0 -153 40q-8 -18 -25 -29.5t-37 -11.5q-27 0 -46.5 19t-19.5 46v19q-7 -29 -48 -57t-100 -28q-43 0 -84.5 16.5
t-77.5 48t-58 84.5t-22 118q0 64 22.5 116t58 84t77.5 49t84 17q52 0 92 -24t56 -61v17q0 26 19.5 45.5t46.5 19.5q19 0 36 -11.5t25 -28.5q68 43 143 43q94 0 173 -68t79 -177zM306 106q50 0 90 38.5t40 115.5t-40 115.5t-90 38.5q-54 0 -94.5 -41t-40.5 -113
q0 -73 40.5 -113.5t94.5 -40.5zM573 303h250q-7 54 -41.5 81.5t-81.5 27.5t-84 -27.5t-43 -81.5z" />
    <glyph glyph-name="ccedilla" unicode="&#xe7;" horiz-adv-x="540" 
d="M447 161q21 0 37 -14t16 -36q0 -8 -2 -15t-4.5 -12t-7.5 -10.5t-7.5 -8.5t-8.5 -8t-7 -6q-46 -42 -109 -52l-49 -52q39 -9 64.5 -34t25.5 -61q0 -50 -49 -72.5t-126 -17.5q-12 1 -19 8t-5 17q3 14 28 17q71 6 71 46q0 18 -13.5 27.5t-29.5 4.5q-30 -7 -43 17
q-11 19 -2 40l36 61h13q-89 17 -152.5 85t-63.5 175q0 85 42.5 147.5t101.5 90.5t123 28q94 0 156 -55q2 -2 8.5 -8t10 -10t8.5 -11t7.5 -15t2.5 -17q0 -22 -16 -36t-37 -14q-27 0 -51 21q-32 31 -84 31q-61 0 -101.5 -40.5t-40.5 -111.5q0 -70 40.5 -110.5t101.5 -40.5
q52 0 84 31q24 21 51 21z" />
    <glyph glyph-name="egrave" unicode="&#xe8;" horiz-adv-x="595" 
d="M257 774q47 0 64 -46l37 -104q10 -25 -4 -43.5t-39 -18.5q-23 0 -36 18l-75 83q-15 18 -15 43q0 28 19.5 48t48.5 20zM303 526q94 0 173 -68t79 -177q0 -38 -20.5 -54t-61.5 -16l-297 2q9 -53 48 -82.5t95 -29.5q35 0 83 21q36 16 49 16q20 0 32.5 -13t12.5 -32
q0 -28 -32 -55q-61 -43 -150 -43q-70 0 -130.5 27t-102 89t-41.5 148q0 64 25 117t64 84.5t84.5 48.5t89.5 17zM303 412q-47 0 -84 -27.5t-43 -81.5h250q-7 54 -41.5 81.5t-81.5 27.5z" />
    <glyph glyph-name="eacute" unicode="&#xe9;" horiz-adv-x="595" 
d="M341 774q29 0 48.5 -20t19.5 -48q0 -25 -15 -43l-75 -83q-13 -18 -36 -18q-25 0 -39 18.5t-4 43.5l37 104q17 46 64 46zM303 526q94 0 173 -68t79 -177q0 -38 -20.5 -54t-61.5 -16l-297 2q9 -53 48 -82.5t95 -29.5q35 0 83 21q36 16 49 16q20 0 32.5 -13t12.5 -32
q0 -28 -32 -55q-61 -43 -150 -43q-70 0 -130.5 27t-102 89t-41.5 148q0 64 25 117t64 84.5t84.5 48.5t89.5 17zM303 412q-47 0 -84 -27.5t-43 -81.5h250q-7 54 -41.5 81.5t-81.5 27.5z" />
    <glyph glyph-name="ecircumflex" unicode="&#xea;" horiz-adv-x="595" 
d="M305 800q20 0 32.5 -7.5t28.5 -26.5l70 -91q16 -21 7.5 -42t-32.5 -21q-23 0 -47 28l-61 71l-62 -71q-23 -28 -47 -28t-32 21t8 42l70 91q15 19 27.5 26.5t33.5 7.5h4zM303 526q94 0 173 -68t79 -177q0 -38 -20.5 -54t-61.5 -16l-297 2q9 -53 48 -82.5t95 -29.5
q35 0 83 21q36 16 49 16q20 0 32.5 -13t12.5 -32q0 -28 -32 -55q-61 -43 -150 -43q-70 0 -130.5 27t-102 89t-41.5 148q0 64 25 117t64 84.5t84.5 48.5t89.5 17zM303 412q-47 0 -84 -27.5t-43 -81.5h250q-7 54 -41.5 81.5t-81.5 27.5z" />
    <glyph glyph-name="edieresis" unicode="&#xeb;" horiz-adv-x="595" 
d="M175 575q-29 0 -49.5 20.5t-20.5 49.5q0 28 21 48.5t49 20.5q29 0 49.5 -20.5t20.5 -48.5q0 -29 -20.5 -49.5t-49.5 -20.5zM431 575q-29 0 -49.5 20.5t-20.5 49.5q0 28 20.5 48.5t49.5 20.5q28 0 49 -20.5t21 -48.5q0 -29 -20.5 -49.5t-49.5 -20.5zM303 526q94 0 173 -68
t79 -177q0 -38 -20.5 -54t-61.5 -16l-297 2q9 -53 48 -82.5t95 -29.5q35 0 83 21q36 16 49 16q20 0 32.5 -13t12.5 -32q0 -28 -32 -55q-61 -43 -150 -43q-70 0 -130.5 27t-102 89t-41.5 148q0 64 25 117t64 84.5t84.5 48.5t89.5 17zM303 412q-47 0 -84 -27.5t-43 -81.5h250
q-7 54 -41.5 81.5t-81.5 27.5z" />
    <glyph glyph-name="igrave" unicode="&#xec;" horiz-adv-x="281" 
d="M95 774q47 0 64 -46l37 -104q10 -25 -4 -43.5t-39 -18.5q-23 0 -36 18l-75 83q-15 18 -15 43q0 28 19.5 48t48.5 20zM141 523q26 0 45.5 -19.5t19.5 -45.5v-399q0 -26 -19.5 -45.5t-45.5 -19.5q-27 0 -46.5 19.5t-19.5 45.5v399q0 26 19.5 45.5t46.5 19.5z" />
    <glyph glyph-name="iacute" unicode="&#xed;" horiz-adv-x="281" 
d="M179 774q29 0 48.5 -20t19.5 -48q0 -25 -15 -43l-75 -83q-13 -18 -36 -18q-25 0 -39 18.5t-4 43.5l37 104q17 46 64 46zM141 523q26 0 45.5 -19.5t19.5 -45.5v-399q0 -26 -19.5 -45.5t-45.5 -19.5q-27 0 -46.5 19.5t-19.5 45.5v399q0 26 19.5 45.5t46.5 19.5z" />
    <glyph glyph-name="icircumflex" unicode="&#xee;" horiz-adv-x="281" 
d="M143 800q20 0 32.5 -7.5t28.5 -26.5l70 -91q16 -21 7.5 -42t-32.5 -21q-23 0 -47 28l-61 71l-62 -71q-23 -28 -47 -28t-32 21t8 42l70 91q15 19 27.5 26.5t33.5 7.5h4zM141 523q26 0 45.5 -19.5t19.5 -45.5v-399q0 -26 -19.5 -45.5t-45.5 -19.5q-27 0 -46.5 19.5
t-19.5 45.5v399q0 26 19.5 45.5t46.5 19.5z" />
    <glyph glyph-name="idieresis" unicode="&#xef;" horiz-adv-x="281" 
d="M13 575q-29 0 -49.5 20.5t-20.5 49.5q0 28 21 48.5t49 20.5q29 0 49.5 -20.5t20.5 -48.5q0 -29 -20.5 -49.5t-49.5 -20.5zM269 575q-29 0 -49.5 20.5t-20.5 49.5q0 28 20.5 48.5t49.5 20.5q28 0 49 -20.5t21 -48.5q0 -29 -20.5 -49.5t-49.5 -20.5zM141 523
q26 0 45.5 -19.5t19.5 -45.5v-399q0 -26 -19.5 -45.5t-45.5 -19.5q-27 0 -46.5 19.5t-19.5 45.5v399q0 26 19.5 45.5t46.5 19.5z" />
    <glyph glyph-name="eth" unicode="&#xf0;" horiz-adv-x="610" 
d="M458 566q92 -143 92 -304q0 -134 -74 -203t-182 -69q-107 0 -180.5 68t-73.5 199q0 124 67 193.5t172 69.5q62 0 88 -24l-38 51l-45 -6q-24 -4 -43.5 11.5t-19.5 39.5q0 20 14 34.5t33 16.5v6q0 24 17 41t41 17q28 0 47 -24l17 -23l40 5q24 4 43.5 -11.5t19.5 -39.5
q0 -36 -35 -48zM293 103q23 0 43 6.5t40 22.5t31.5 48t11.5 77q0 75 -36 112.5t-89 37.5q-54 0 -88.5 -37.5t-34.5 -112.5q0 -85 37 -119.5t85 -34.5z" />
    <glyph glyph-name="ntilde" unicode="&#xf1;" horiz-adv-x="612" 
d="M227 744q39 0 97 -34t81 -34q29 0 42 18q11 13 29 13q17 0 27 -13t5 -29q-12 -41 -43 -66.5t-72 -25.5q-34 0 -70 19.5t-67.5 39t-53.5 19.5q-27 0 -39 -22q-9 -18 -30 -18q-16 0 -26 12t-6 28q11 42 45 67.5t81 25.5zM362 525q83 0 136.5 -58.5t53.5 -180.5v-226
q0 -27 -19.5 -46t-46.5 -19q-26 0 -45.5 19t-19.5 46v226q0 64 -29.5 95.5t-76.5 31.5q-31 0 -56 -13t-38.5 -33t-20.5 -36.5t-9 -29.5v-241q0 -27 -19.5 -46t-45.5 -19q-27 0 -46.5 19t-19.5 46v397q0 27 19.5 46.5t46.5 19.5q26 0 45.5 -19.5t19.5 -46.5v-50
q4 35 51.5 76.5t119.5 41.5z" />
    <glyph glyph-name="ograve" unicode="&#xf2;" horiz-adv-x="614" 
d="M261 774q47 0 64 -46l37 -104q10 -25 -4 -43.5t-39 -18.5q-23 0 -36 18l-75 83q-15 18 -15 43q0 28 19.5 48t48.5 20zM307 526q44 0 90 -17t86 -49t65.5 -84.5t25.5 -116.5t-25.5 -116.5t-65.5 -84t-86 -48.5t-90 -17q-61 0 -120.5 28t-103 91t-43.5 147t43.5 147
t103 91.5t120.5 28.5zM307 412q-56 0 -96.5 -41.5t-40.5 -111.5q0 -69 40.5 -110.5t96.5 -41.5t96.5 41.5t40.5 110.5q0 70 -40.5 111.5t-96.5 41.5z" />
    <glyph glyph-name="oacute" unicode="&#xf3;" horiz-adv-x="614" 
d="M345 774q29 0 48.5 -20t19.5 -48q0 -25 -15 -43l-75 -83q-13 -18 -36 -18q-25 0 -39 18.5t-4 43.5l37 104q17 46 64 46zM307 526q44 0 90 -17t86 -49t65.5 -84.5t25.5 -116.5t-25.5 -116.5t-65.5 -84t-86 -48.5t-90 -17q-61 0 -120.5 28t-103 91t-43.5 147t43.5 147
t103 91.5t120.5 28.5zM307 412q-56 0 -96.5 -41.5t-40.5 -111.5q0 -69 40.5 -110.5t96.5 -41.5t96.5 41.5t40.5 110.5q0 70 -40.5 111.5t-96.5 41.5z" />
    <glyph glyph-name="ocircumflex" unicode="&#xf4;" horiz-adv-x="614" 
d="M309 800q20 0 32.5 -7.5t28.5 -26.5l70 -91q16 -21 7.5 -42t-32.5 -21q-23 0 -47 28l-61 71l-62 -71q-23 -28 -47 -28t-32 21t8 42l70 91q15 19 27.5 26.5t33.5 7.5h4zM307 526q44 0 90 -17t86 -49t65.5 -84.5t25.5 -116.5t-25.5 -116.5t-65.5 -84t-86 -48.5t-90 -17
q-61 0 -120.5 28t-103 91t-43.5 147t43.5 147t103 91.5t120.5 28.5zM307 412q-56 0 -96.5 -41.5t-40.5 -111.5q0 -69 40.5 -110.5t96.5 -41.5t96.5 41.5t40.5 110.5q0 70 -40.5 111.5t-96.5 41.5z" />
    <glyph glyph-name="otilde" unicode="&#xf5;" horiz-adv-x="614" 
d="M228 744q39 0 97 -34t81 -34q29 0 42 18q11 13 29 13q17 0 27 -13t5 -29q-12 -41 -43 -66.5t-72 -25.5q-34 0 -70 19.5t-67.5 39t-53.5 19.5q-27 0 -39 -22q-9 -18 -30 -18q-16 0 -26 12t-6 28q11 42 45 67.5t81 25.5zM307 526q44 0 90 -17t86 -49t65.5 -84.5
t25.5 -116.5t-25.5 -116.5t-65.5 -84t-86 -48.5t-90 -17q-61 0 -120.5 28t-103 91t-43.5 147t43.5 147t103 91.5t120.5 28.5zM307 412q-56 0 -96.5 -41.5t-40.5 -111.5q0 -69 40.5 -110.5t96.5 -41.5t96.5 41.5t40.5 110.5q0 70 -40.5 111.5t-96.5 41.5z" />
    <glyph glyph-name="odieresis" unicode="&#xf6;" horiz-adv-x="614" 
d="M179 575q-29 0 -49.5 20.5t-20.5 49.5q0 28 21 48.5t49 20.5q29 0 49.5 -20.5t20.5 -48.5q0 -29 -20.5 -49.5t-49.5 -20.5zM435 575q-29 0 -49.5 20.5t-20.5 49.5q0 28 20.5 48.5t49.5 20.5q28 0 49 -20.5t21 -48.5q0 -29 -20.5 -49.5t-49.5 -20.5zM307 526q44 0 90 -17
t86 -49t65.5 -84.5t25.5 -116.5t-25.5 -116.5t-65.5 -84t-86 -48.5t-90 -17q-61 0 -120.5 28t-103 91t-43.5 147t43.5 147t103 91.5t120.5 28.5zM307 412q-56 0 -96.5 -41.5t-40.5 -111.5q0 -69 40.5 -110.5t96.5 -41.5t96.5 41.5t40.5 110.5q0 70 -40.5 111.5t-96.5 41.5z
" />
    <glyph glyph-name="divide" unicode="&#xf7;" horiz-adv-x="470" 
d="M235 375q-31 0 -53.5 22.5t-22.5 53.5t22.5 53t53.5 22t53 -22t22 -53t-22 -53.5t-53 -22.5zM367 329q23 0 40 -16t17 -38t-17 -37.5t-40 -15.5h-264q-24 0 -41 15.5t-17 37.5t17.5 38t40.5 16h264zM235 25q-31 0 -53.5 22.5t-22.5 53.5t22.5 53t53.5 22t53 -22t22 -53
t-22 -53.5t-53 -22.5z" />
    <glyph glyph-name="oslash" unicode="&#xf8;" horiz-adv-x="614" 
d="M471 469q103 -77 103 -210q0 -64 -25.5 -116.5t-65.5 -84t-86 -48.5t-90 -17q-33 0 -61 8l-11 -24q-15 -34 -55 -34q-24 0 -41.5 17.5t-17.5 42.5q0 17 6 27l11 23q-98 77 -98 206q0 84 43.5 147t103 91.5t120.5 28.5q27 0 55 -6l15 31q15 34 54 34q24 0 42 -17.5
t18 -42.5q0 -17 -6 -27zM170 259q0 -52 24 -89l116 242h-3q-56 0 -96.5 -41.5t-40.5 -111.5zM307 107q56 0 96.5 41.5t40.5 110.5q0 55 -28 95l-118 -247h9z" />
    <glyph glyph-name="ugrave" unicode="&#xf9;" horiz-adv-x="612" 
d="M260 774q47 0 64 -46l37 -104q10 -25 -4 -43.5t-39 -18.5q-23 0 -36 18l-75 83q-15 18 -15 43q0 28 20 48t48 20zM250 -7q-83 0 -136.5 58.5t-53.5 180.5v226q0 27 19.5 46t46.5 19q26 0 45.5 -19t19.5 -46v-226q0 -64 29.5 -95.5t76.5 -31.5q31 0 56 13t38.5 33
t20.5 36.5t9 29.5v241q0 27 19.5 46t45.5 19q27 0 46.5 -19t19.5 -46v-397q0 -27 -19.5 -46.5t-46.5 -19.5q-26 0 -45.5 19.5t-19.5 46.5v50q-4 -35 -51.5 -76.5t-119.5 -41.5z" />
    <glyph glyph-name="uacute" unicode="&#xfa;" horiz-adv-x="612" 
d="M344 774q28 0 48 -20t20 -48q0 -25 -15 -43l-75 -83q-13 -18 -36 -18q-25 0 -39 18.5t-4 43.5l37 104q17 46 64 46zM250 -7q-83 0 -136.5 58.5t-53.5 180.5v226q0 27 19.5 46t46.5 19q26 0 45.5 -19t19.5 -46v-226q0 -64 29.5 -95.5t76.5 -31.5q31 0 56 13t38.5 33
t20.5 36.5t9 29.5v241q0 27 19.5 46t45.5 19q27 0 46.5 -19t19.5 -46v-397q0 -27 -19.5 -46.5t-46.5 -19.5q-26 0 -45.5 19.5t-19.5 46.5v50q-4 -35 -51.5 -76.5t-119.5 -41.5z" />
    <glyph glyph-name="ucircumflex" unicode="&#xfb;" horiz-adv-x="612" 
d="M308 800q20 0 32.5 -7.5t28.5 -26.5l70 -91q16 -21 7.5 -42t-32.5 -21q-23 0 -47 28l-61 71l-62 -71q-23 -28 -47 -28t-32 21t8 42l70 91q15 19 27.5 26.5t33.5 7.5h4zM250 -7q-83 0 -136.5 58.5t-53.5 180.5v226q0 27 19.5 46t46.5 19q26 0 45.5 -19t19.5 -46v-226
q0 -64 29.5 -95.5t76.5 -31.5q31 0 56 13t38.5 33t20.5 36.5t9 29.5v241q0 27 19.5 46t45.5 19q27 0 46.5 -19t19.5 -46v-397q0 -27 -19.5 -46.5t-46.5 -19.5q-26 0 -45.5 19.5t-19.5 46.5v50q-4 -35 -51.5 -76.5t-119.5 -41.5z" />
    <glyph glyph-name="udieresis" unicode="&#xfc;" horiz-adv-x="612" 
d="M178 575q-29 0 -49.5 20.5t-20.5 49.5q0 28 21 48.5t49 20.5q29 0 49.5 -20.5t20.5 -48.5q0 -29 -20.5 -49.5t-49.5 -20.5zM434 575q-29 0 -49.5 20.5t-20.5 49.5q0 28 20.5 48.5t49.5 20.5q28 0 49 -20.5t21 -48.5q0 -29 -20.5 -49.5t-49.5 -20.5zM250 -7
q-83 0 -136.5 58.5t-53.5 180.5v226q0 27 19.5 46t46.5 19q26 0 45.5 -19t19.5 -46v-226q0 -64 29.5 -95.5t76.5 -31.5q31 0 56 13t38.5 33t20.5 36.5t9 29.5v241q0 27 19.5 46t45.5 19q27 0 46.5 -19t19.5 -46v-397q0 -27 -19.5 -46.5t-46.5 -19.5q-26 0 -45.5 19.5
t-19.5 46.5v50q-4 -35 -51.5 -76.5t-119.5 -41.5z" />
    <glyph glyph-name="yacute" unicode="&#xfd;" horiz-adv-x="577" 
d="M264 562q-25 0 -39 18.5t-4 43.5l37 104q17 46 64 46q28 0 48 -20t20 -48q0 -25 -15 -43l-75 -83q-13 -18 -36 -18zM486 523q26 0 43.5 -17.5t17.5 -41.5q0 -14 -8 -30l-259 -583q-20 -46 -63 -46q-25 0 -41.5 17.5t-16.5 41.5q0 11 7 30l57 130l-186 410q-7 19 -7 30
q0 24 17.5 41.5t42.5 17.5q43 0 63 -46l134 -310l137 310q20 46 62 46z" />
    <glyph glyph-name="thorn" unicode="&#xfe;" 
d="M341 526q42 0 84 -17t77.5 -49t58 -84t22.5 -116q0 -65 -22 -118t-58 -84.5t-77.5 -48t-84.5 -16.5q-59 0 -100 28t-48 57v-19q0 -8 -1 -11v-180q0 -27 -19.5 -46t-46.5 -19t-46.5 19t-19.5 46v781q0 26 20 45.5t47 19.5q26 0 45.5 -19.5t19.5 -45.5v-180q1 -4 1 -11v-17
q16 37 56 61t92 24zM317 106q54 0 94.5 40.5t40.5 113.5q0 72 -40.5 113t-94.5 41q-50 0 -90 -38.5t-40 -115.5t40 -115.5t90 -38.5z" />
    <glyph glyph-name="ydieresis" unicode="&#xff;" horiz-adv-x="577" 
d="M156 575q-29 0 -49.5 20.5t-20.5 49.5q0 28 21 48.5t49 20.5q29 0 49.5 -20.5t20.5 -48.5q0 -29 -20.5 -49.5t-49.5 -20.5zM412 575q-29 0 -49.5 20.5t-20.5 49.5q0 28 20.5 48.5t49.5 20.5q28 0 49 -20.5t21 -48.5q0 -29 -20.5 -49.5t-49.5 -20.5zM486 523
q26 0 43.5 -17.5t17.5 -41.5q0 -14 -8 -30l-259 -583q-20 -46 -63 -46q-25 0 -41.5 17.5t-16.5 41.5q0 11 7 30l57 130l-186 410q-7 19 -7 30q0 24 17.5 41.5t42.5 17.5q43 0 63 -46l134 -310l137 310q20 46 62 46z" />
    <glyph glyph-name="Amacron" unicode="&#x100;" horiz-adv-x="714" 
d="M219 768q-24 0 -40.5 16t-16.5 40q0 23 17 39.5t40 16.5h276q23 0 40 -16.5t17 -39.5q0 -24 -16.5 -40t-40.5 -16h-276zM671 95q8 -18 8 -38q0 -25 -19 -43t-46 -18q-47 0 -65 43l-50 118h-284l-50 -118q-18 -43 -64 -43q-28 0 -47 18t-19 43q0 18 9 38l248 559
q21 50 65 50t66 -50zM261 264h192l-96 226z" />
    <glyph glyph-name="amacron" unicode="&#x101;" 
d="M178 588q-24 0 -40.5 16t-16.5 40q0 23 17 39.5t40 16.5h276q23 0 40 -16.5t17 -39.5q0 -24 -16.5 -40t-40.5 -16h-276zM496 523q26 0 46.5 -19.5t20.5 -45.5v-399q0 -27 -20 -46t-47 -19t-46.5 19t-19.5 46v19q-7 -29 -48 -57t-100 -28q-43 0 -84.5 16.5t-77.5 48
t-58 84.5t-22 118q0 64 22.5 116t58 84t77.5 49t84 17q52 0 92 -24t56 -61v17q0 26 19.5 45.5t46.5 19.5zM306 106q50 0 90 38.5t40 115.5t-40 115.5t-90 38.5q-54 0 -94.5 -41t-40.5 -113q0 -73 40.5 -113.5t94.5 -40.5z" />
    <glyph glyph-name="Abreve" unicode="&#x102;" horiz-adv-x="714" 
d="M357 755q-68 0 -113 36.5t-61 94.5q-8 27 7 47.5t42 20.5q36 0 47 -31q10 -22 31.5 -35.5t46.5 -13.5q24 0 45.5 13.5t31.5 35.5q13 31 47 31q27 0 42 -20.5t8 -47.5q-17 -58 -61.5 -94.5t-112.5 -36.5zM671 95q8 -18 8 -38q0 -25 -19 -43t-46 -18q-47 0 -65 43l-50 118
h-284l-50 -118q-18 -43 -64 -43q-28 0 -47 18t-19 43q0 18 9 38l248 559q21 50 65 50t66 -50zM261 264h192l-96 226z" />
    <glyph glyph-name="abreve" unicode="&#x103;" 
d="M316 575q-68 0 -113 36.5t-61 94.5q-8 27 7 47.5t42 20.5q36 0 47 -31q10 -22 31.5 -35.5t46.5 -13.5q24 0 45.5 13.5t31.5 35.5q13 31 47 31q27 0 42 -20.5t8 -47.5q-17 -58 -61.5 -94.5t-112.5 -36.5zM496 523q26 0 46.5 -19.5t20.5 -45.5v-399q0 -27 -20 -46t-47 -19
t-46.5 19t-19.5 46v19q-7 -29 -48 -57t-100 -28q-43 0 -84.5 16.5t-77.5 48t-58 84.5t-22 118q0 64 22.5 116t58 84t77.5 49t84 17q52 0 92 -24t56 -61v17q0 26 19.5 45.5t46.5 19.5zM306 106q50 0 90 38.5t40 115.5t-40 115.5t-90 38.5q-54 0 -94.5 -41t-40.5 -113
q0 -73 40.5 -113.5t94.5 -40.5z" />
    <glyph glyph-name="Aogonek" unicode="&#x104;" horiz-adv-x="714" 
d="M679 64q4 -37 -16 -65t-47 -42.5t-49.5 -32t-22.5 -35.5q0 -17 13 -27t36 -10q48 0 48 -33q0 -34 -78 -34q-57 0 -99.5 21.5t-42.5 70.5q0 31 21 57.5t46 41t43 34t13 40.5l-45 107h-284l-50 -118q-18 -43 -64 -43q-28 0 -47 18t-19 43q0 18 9 38l248 559q21 50 65 50
t66 -50l248 -559q7 -15 8 -31zM261 264h192l-96 226z" />
    <glyph glyph-name="aogonek" unicode="&#x105;" 
d="M496 523q26 0 46.5 -19.5t20.5 -45.5v-399v-6q-2 -25 -16 -44.5t-32.5 -32.5t-37 -24.5t-31 -26.5t-12.5 -32q0 -40 52 -40q42 0 42 -29q0 -39 -92 -39q-55 0 -90.5 22t-35.5 70q0 32 19 57.5t41 39t41 36t19 51.5v17q-7 -29 -48 -57t-100 -28q-43 0 -84.5 16.5t-77.5 48
t-58 84.5t-22 118q0 64 22.5 116t58 84t77.5 49t84 17q52 0 92 -24t56 -61v17q0 26 19.5 45.5t46.5 19.5zM306 106q50 0 90 38.5t40 115.5t-40 115.5t-90 38.5q-54 0 -94.5 -41t-40.5 -113q0 -73 40.5 -113.5t94.5 -40.5z" />
    <glyph glyph-name="Cacute" unicode="&#x106;" horiz-adv-x="664" 
d="M424 954q28 0 48 -20t20 -48q0 -25 -15 -43l-75 -83q-13 -18 -36 -18q-25 0 -39 18.5t-4 43.5l37 104q17 46 64 46zM566 176q26 0 44.5 -16.5t18.5 -44.5q0 -40 -60 -79q-69 -43 -165 -43q-138 0 -246 102t-108 255q0 102 52 185t132 127.5t168 44.5q95 0 167 -43
q60 -39 60 -79q0 -28 -18.5 -44.5t-44.5 -16.5q-25 0 -54 21q-51 34 -108 34q-86 0 -149.5 -67t-63.5 -162q0 -96 63.5 -162.5t150.5 -66.5q56 0 107 34q29 21 54 21z" />
    <glyph glyph-name="cacute" unicode="&#x107;" horiz-adv-x="540" 
d="M345 774q29 0 48.5 -20t19.5 -48q0 -25 -15 -43l-75 -83q-13 -18 -36 -18q-25 0 -39 18.5t-4 43.5l37 104q17 46 64 46zM447 161q21 0 37 -14t16 -36q0 -8 -2 -15t-4.5 -12t-7.5 -10.5t-7.5 -8.5t-8.5 -8t-7 -6q-64 -56 -156 -56q-47 0 -93 17t-85.5 48.5t-64 83.5
t-24.5 116q0 85 42.5 147.5t101.5 90.5t123 28q94 0 156 -55q2 -2 8.5 -8t10 -10t8.5 -11t7.5 -15t2.5 -17q0 -22 -16 -36t-37 -14q-27 0 -51 21q-32 31 -84 31q-61 0 -101.5 -40.5t-40.5 -111.5q0 -70 40.5 -110.5t101.5 -40.5q52 0 84 31q24 21 51 21z" />
    <glyph glyph-name="Cdotaccent" unicode="&#x10a;" horiz-adv-x="664" 
d="M386 805q-27 0 -47 20t-20 47q0 28 20 47.5t47 19.5q28 0 48 -19.5t20 -47.5q0 -27 -20 -47t-48 -20zM566 176q26 0 44.5 -16.5t18.5 -44.5q0 -40 -60 -79q-69 -43 -165 -43q-138 0 -246 102t-108 255q0 102 52 185t132 127.5t168 44.5q95 0 167 -43q60 -39 60 -79
q0 -28 -18.5 -44.5t-44.5 -16.5q-25 0 -54 21q-51 34 -108 34q-86 0 -149.5 -67t-63.5 -162q0 -96 63.5 -162.5t150.5 -66.5q56 0 107 34q29 21 54 21z" />
    <glyph glyph-name="cdotaccent" unicode="&#x10b;" horiz-adv-x="540" 
d="M307 625q-27 0 -47 20t-20 47q0 28 20 47.5t47 19.5q28 0 48 -19.5t20 -47.5q0 -27 -20 -47t-48 -20zM447 161q21 0 37 -14t16 -36q0 -8 -2 -15t-4.5 -12t-7.5 -10.5t-7.5 -8.5t-8.5 -8t-7 -6q-64 -56 -156 -56q-47 0 -93 17t-85.5 48.5t-64 83.5t-24.5 116
q0 85 42.5 147.5t101.5 90.5t123 28q94 0 156 -55q2 -2 8.5 -8t10 -10t8.5 -11t7.5 -15t2.5 -17q0 -22 -16 -36t-37 -14q-27 0 -51 21q-32 31 -84 31q-61 0 -101.5 -40.5t-40.5 -111.5q0 -70 40.5 -110.5t101.5 -40.5q52 0 84 31q24 21 51 21z" />
    <glyph glyph-name="Ccaron" unicode="&#x10c;" horiz-adv-x="664" 
d="M388 792h-4q-21 0 -33.5 7.5t-27.5 26.5l-70 91q-16 21 -8 42t32 21t47 -28l62 -71l61 71q24 28 47 28q24 0 32.5 -21t-7.5 -42l-70 -91q-16 -19 -28.5 -26.5t-32.5 -7.5zM566 176q26 0 44.5 -16.5t18.5 -44.5q0 -40 -60 -79q-69 -43 -165 -43q-138 0 -246 102t-108 255
q0 102 52 185t132 127.5t168 44.5q95 0 167 -43q60 -39 60 -79q0 -28 -18.5 -44.5t-44.5 -16.5q-25 0 -54 21q-51 34 -108 34q-86 0 -149.5 -67t-63.5 -162q0 -96 63.5 -162.5t150.5 -66.5q56 0 107 34q29 21 54 21z" />
    <glyph glyph-name="ccaron" unicode="&#x10d;" horiz-adv-x="540" 
d="M309 612h-4q-21 0 -33.5 7.5t-27.5 26.5l-70 91q-16 21 -8 42t32 21t47 -28l62 -71l61 71q24 28 47 28q24 0 32.5 -21t-7.5 -42l-70 -91q-16 -19 -28.5 -26.5t-32.5 -7.5zM447 161q21 0 37 -14t16 -36q0 -8 -2 -15t-4.5 -12t-7.5 -10.5t-7.5 -8.5t-8.5 -8t-7 -6
q-64 -56 -156 -56q-47 0 -93 17t-85.5 48.5t-64 83.5t-24.5 116q0 85 42.5 147.5t101.5 90.5t123 28q94 0 156 -55q2 -2 8.5 -8t10 -10t8.5 -11t7.5 -15t2.5 -17q0 -22 -16 -36t-37 -14q-27 0 -51 21q-32 31 -84 31q-61 0 -101.5 -40.5t-40.5 -111.5q0 -70 40.5 -110.5
t101.5 -40.5q52 0 84 31q24 21 51 21z" />
    <glyph glyph-name="Dcaron" unicode="&#x10e;" horiz-adv-x="679" 
d="M349 792h-4q-21 0 -33.5 7.5t-27.5 26.5l-70 91q-16 21 -8 42t32 21t47 -28l62 -71l61 71q24 28 47 28q24 0 32.5 -21t-7.5 -42l-70 -91q-16 -19 -28.5 -26.5t-32.5 -7.5zM281 700q155 0 256.5 -92.5t101.5 -254.5q0 -166 -101.5 -259.5t-256.5 -93.5h-147q-32 0 -53 21
t-21 53v552q0 32 21 53t53 21h147zM281 114q223 0 223 239q0 233 -223 233h-86v-472h86z" />
    <glyph glyph-name="dcaron" unicode="&#x10f;" horiz-adv-x="774" 
d="M496 714q27 0 47 -19.5t20 -45.5v-590q0 -27 -20 -46t-47 -19t-46.5 19t-19.5 46v19q-7 -29 -48 -57t-100 -28q-43 0 -84.5 16.5t-77.5 48t-58 84.5t-22 118q0 64 22.5 116t58 84t77.5 49t84 17q52 0 92 -24t56 -61v17q0 7 1 11v180q0 26 19.5 45.5t45.5 19.5zM701 707
q29 0 48.5 -19.5t19.5 -48.5q0 -25 -15 -43l-75 -83q-13 -18 -36 -18q-25 0 -39 18.5t-4 43.5l37 104q17 46 64 46zM306 106q50 0 90 38.5t40 115.5t-40 115.5t-90 38.5q-54 0 -94.5 -41t-40.5 -113q0 -73 40.5 -113.5t94.5 -40.5z" />
    <glyph glyph-name="Dcroat" unicode="&#x110;" horiz-adv-x="737" 
d="M339 700q155 0 256.5 -92.5t101.5 -254.5q0 -166 -101.5 -259.5t-256.5 -93.5h-147q-32 0 -53 21t-21 53v216h-4q-22 0 -38 15.5t-16 37.5t16 38t38 16h4v229q0 32 21 53t53 21h147zM339 114q223 0 223 239q0 233 -223 233h-86v-189h105q21 0 37 -16t16 -38t-16 -37.5
t-37 -15.5h-105v-176h86z" />
    <glyph glyph-name="dcroat" unicode="&#x111;" horiz-adv-x="641" 
d="M583 648q22 0 38 -14.5t16 -35.5t-16 -35t-38 -14h-20v-490q0 -27 -20 -46t-47 -19t-46.5 19t-19.5 46v19q-7 -29 -48 -57t-100 -28q-43 0 -84.5 16.5t-77.5 48t-58 84.5t-22 118q0 64 22.5 116t58 84t77.5 49t84 17q52 0 92 -24t56 -61v17q0 7 1 11v80h-110
q-22 0 -38 14t-16 35t16 35.5t38 14.5h110v1q0 26 19.5 45.5t45.5 19.5q27 0 47 -19.5t20 -45.5v-1h20zM306 106q50 0 90 38.5t40 115.5t-40 115.5t-90 38.5q-54 0 -94.5 -41t-40.5 -113q0 -73 40.5 -113.5t94.5 -40.5z" />
    <glyph glyph-name="Emacron" unicode="&#x112;" horiz-adv-x="571" 
d="M440 880q23 0 40 -16.5t17 -39.5q0 -24 -16.5 -40t-40.5 -16h-276q-24 0 -40.5 16t-16.5 40q0 23 17 39.5t40 16.5h276zM195 118h281q24 0 42 -17.5t18 -41.5t-18 -41.5t-42 -17.5h-342q-32 0 -53 21t-21 53v552q0 32 21 53t53 21h332q24 0 42 -17t18 -41
q0 -25 -18 -42.5t-42 -17.5h-271v-174h178q25 0 42 -16.5t17 -39.5t-17 -40t-42 -17h-178v-177z" />
    <glyph glyph-name="emacron" unicode="&#x113;" horiz-adv-x="595" 
d="M441 700q23 0 40 -16.5t17 -39.5q0 -24 -16.5 -40t-40.5 -16h-276q-24 0 -40.5 16t-16.5 40q0 23 17 39.5t40 16.5h276zM303 526q94 0 173 -68t79 -177q0 -38 -20.5 -54t-61.5 -16l-297 2q9 -53 48 -82.5t95 -29.5q35 0 83 21q36 16 49 16q20 0 32.5 -13t12.5 -32
q0 -28 -32 -55q-61 -43 -150 -43q-70 0 -130.5 27t-102 89t-41.5 148q0 64 25 117t64 84.5t84.5 48.5t89.5 17zM303 412q-47 0 -84 -27.5t-43 -81.5h250q-7 54 -41.5 81.5t-81.5 27.5z" />
    <glyph glyph-name="Edotaccent" unicode="&#x116;" horiz-adv-x="571" 
d="M302 805q-27 0 -47 20t-20 47q0 28 20 47.5t47 19.5q28 0 48 -19.5t20 -47.5q0 -27 -20 -47t-48 -20zM195 118h281q24 0 42 -17.5t18 -41.5t-18 -41.5t-42 -17.5h-342q-32 0 -53 21t-21 53v552q0 32 21 53t53 21h332q24 0 42 -17t18 -41q0 -25 -18 -42.5t-42 -17.5h-271
v-174h178q25 0 42 -16.5t17 -39.5t-17 -40t-42 -17h-178v-177z" />
    <glyph glyph-name="edotaccent" unicode="&#x117;" horiz-adv-x="595" 
d="M303 625q-27 0 -47 20t-20 47q0 28 20 47.5t47 19.5q28 0 48 -19.5t20 -47.5q0 -27 -20 -47t-48 -20zM303 526q94 0 173 -68t79 -177q0 -38 -20.5 -54t-61.5 -16l-297 2q9 -53 48 -82.5t95 -29.5q35 0 83 21q36 16 49 16q20 0 32.5 -13t12.5 -32q0 -28 -32 -55
q-61 -43 -150 -43q-70 0 -130.5 27t-102 89t-41.5 148q0 64 25 117t64 84.5t84.5 48.5t89.5 17zM303 412q-47 0 -84 -27.5t-43 -81.5h250q-7 54 -41.5 81.5t-81.5 27.5z" />
    <glyph glyph-name="Eogonek" unicode="&#x118;" horiz-adv-x="587" 
d="M536 59q0 -24 -18 -41.5t-42 -17.5h4q-45 -11 -86.5 -37.5t-41.5 -61.5q0 -22 17 -35t41 -13q36 0 36 -29q0 -39 -91 -39q-55 0 -91 22t-36 71q0 43 26.5 73t54 39.5t50.5 9.5h-225q-32 0 -53 21t-21 53v552q0 32 21 53t53 21h332q24 0 42 -17t18 -41q0 -25 -18 -42.5
t-42 -17.5h-271v-174h178q25 0 42 -16.5t17 -39.5t-17 -40t-42 -17h-178v-177h281q24 0 42 -17.5t18 -41.5z" />
    <glyph glyph-name="eogonek" unicode="&#x119;" horiz-adv-x="596" 
d="M555 281q0 -38 -20.5 -54t-61.5 -16l-297 2q9 -53 48 -82.5t95 -29.5q35 0 83 21q36 16 49 16q20 0 32.5 -13t12.5 -32q0 -28 -32 -55q-39 -28 -99 -39q-45 -12 -84.5 -38t-39.5 -60q0 -22 17 -35t41 -13q36 0 36 -29q0 -39 -91 -39q-55 0 -91 22t-36 71q0 43 26.5 73
t54 39.5t50.5 9.5h9q-93 16 -155 82.5t-62 176.5q0 64 25 117t64 84.5t84.5 48.5t89.5 17q94 0 173 -68t79 -177zM176 303h250q-7 54 -41.5 81.5t-81.5 27.5t-84 -27.5t-43 -81.5z" />
    <glyph glyph-name="Ecaron" unicode="&#x11a;" horiz-adv-x="571" 
d="M304 792h-4q-21 0 -33.5 7.5t-27.5 26.5l-70 91q-16 21 -8 42t32 21t47 -28l62 -71l61 71q24 28 47 28q24 0 32.5 -21t-7.5 -42l-70 -91q-16 -19 -28.5 -26.5t-32.5 -7.5zM195 118h281q24 0 42 -17.5t18 -41.5t-18 -41.5t-42 -17.5h-342q-32 0 -53 21t-21 53v552
q0 32 21 53t53 21h332q24 0 42 -17t18 -41q0 -25 -18 -42.5t-42 -17.5h-271v-174h178q25 0 42 -16.5t17 -39.5t-17 -40t-42 -17h-178v-177z" />
    <glyph glyph-name="ecaron" unicode="&#x11b;" horiz-adv-x="595" 
d="M305 612h-4q-21 0 -33.5 7.5t-27.5 26.5l-70 91q-16 21 -8 42t32 21t47 -28l62 -71l61 71q24 28 47 28q24 0 32.5 -21t-7.5 -42l-70 -91q-16 -19 -28.5 -26.5t-32.5 -7.5zM303 526q94 0 173 -68t79 -177q0 -38 -20.5 -54t-61.5 -16l-297 2q9 -53 48 -82.5t95 -29.5
q35 0 83 21q36 16 49 16q20 0 32.5 -13t12.5 -32q0 -28 -32 -55q-61 -43 -150 -43q-70 0 -130.5 27t-102 89t-41.5 148q0 64 25 117t64 84.5t84.5 48.5t89.5 17zM303 412q-47 0 -84 -27.5t-43 -81.5h250q-7 54 -41.5 81.5t-81.5 27.5z" />
    <glyph glyph-name="Gbreve" unicode="&#x11e;" horiz-adv-x="759" 
d="M521 954q27 0 42 -20.5t8 -47.5q-17 -58 -61.5 -94.5t-112.5 -36.5t-113 36.5t-61 94.5q-8 27 7 47.5t42 20.5q36 0 47 -31q10 -22 31.5 -35.5t46.5 -13.5q24 0 45.5 13.5t31.5 35.5q13 31 47 31zM643 374q37 0 55.5 -23t16.5 -61q-6 -140 -96 -218.5t-214 -78.5
q-90 0 -170.5 44.5t-132.5 127.5t-52 185t52 185t132 127.5t168 44.5q95 0 167 -43q60 -39 60 -79q0 -28 -18.5 -44.5t-44.5 -16.5q-25 0 -54 21q-51 34 -108 34q-86 0 -149.5 -67t-63.5 -162q0 -96 63.5 -162.5t150.5 -66.5q64 0 117 38t62 104h-114q-24 0 -41.5 16
t-17.5 39q0 24 17.5 40t41.5 16h173z" />
    <glyph glyph-name="gbreve" unicode="&#x11f;" horiz-adv-x="622" 
d="M313 575q-68 0 -113 36.5t-61 94.5q-8 27 7 47.5t42 20.5q36 0 47 -31q10 -22 31.5 -35.5t46.5 -13.5q24 0 45.5 13.5t31.5 35.5q13 31 47 31q27 0 42 -20.5t8 -47.5q-17 -58 -61.5 -94.5t-112.5 -36.5zM563 458v-399q0 -5 -2 -15v-34q0 -58 -25 -102t-65 -67.5
t-82.5 -34.5t-85.5 -11q-75 0 -134 27q-43 18 -43 56q0 22 15.5 37t36.5 15q11 0 27 -5q68 -17 99 -17q59 0 92.5 28.5t33.5 73.5v68q-7 -29 -48 -57t-100 -28q-43 0 -84.5 16.5t-77.5 48t-58 84.5t-22 118q0 64 22.5 116t58 84t77.5 49t84 17q52 0 92 -24t56 -61v17
q0 26 19.5 45.5t46.5 19.5q26 0 46.5 -19.5t20.5 -45.5zM306 106q50 0 90 38.5t40 115.5t-40 115.5t-90 38.5q-54 0 -94.5 -41t-40.5 -113q0 -73 40.5 -113.5t94.5 -40.5z" />
    <glyph glyph-name="Gdotaccent" unicode="&#x120;" horiz-adv-x="759" 
d="M397 805q-27 0 -47 20t-20 47q0 28 20 47.5t47 19.5q28 0 48 -19.5t20 -47.5q0 -27 -20 -47t-48 -20zM643 374q37 0 55.5 -23t16.5 -61q-6 -140 -96 -218.5t-214 -78.5q-90 0 -170.5 44.5t-132.5 127.5t-52 185t52 185t132 127.5t168 44.5q95 0 167 -43q60 -39 60 -79
q0 -28 -18.5 -44.5t-44.5 -16.5q-25 0 -54 21q-51 34 -108 34q-86 0 -149.5 -67t-63.5 -162q0 -96 63.5 -162.5t150.5 -66.5q64 0 117 38t62 104h-114q-24 0 -41.5 16t-17.5 39q0 24 17.5 40t41.5 16h173z" />
    <glyph glyph-name="gdotaccent" unicode="&#x121;" horiz-adv-x="622" 
d="M313 625q-27 0 -47 20t-20 47q0 28 20 47.5t47 19.5q28 0 48 -19.5t20 -47.5q0 -27 -20 -47t-48 -20zM563 458v-399q0 -5 -2 -15v-34q0 -58 -25 -102t-65 -67.5t-82.5 -34.5t-85.5 -11q-75 0 -134 27q-43 18 -43 56q0 22 15.5 37t36.5 15q11 0 27 -5q68 -17 99 -17
q59 0 92.5 28.5t33.5 73.5v68q-7 -29 -48 -57t-100 -28q-43 0 -84.5 16.5t-77.5 48t-58 84.5t-22 118q0 64 22.5 116t58 84t77.5 49t84 17q52 0 92 -24t56 -61v17q0 26 19.5 45.5t46.5 19.5q26 0 46.5 -19.5t20.5 -45.5zM306 106q50 0 90 38.5t40 115.5t-40 115.5t-90 38.5
q-54 0 -94.5 -41t-40.5 -113q0 -73 40.5 -113.5t94.5 -40.5z" />
    <glyph glyph-name="Gcommaaccent" unicode="&#x122;" horiz-adv-x="759" 
d="M643 374q37 0 55.5 -23t16.5 -61q-5 -128 -81.5 -204.5t-187.5 -90.5l-76 -145q-21 -39 -68 -39h-6q-23 0 -30.5 15.5t1.5 37.5l46 142q-112 31 -187.5 124.5t-75.5 219.5q0 102 52 185t132 127.5t168 44.5q95 0 167 -43q60 -39 60 -79q0 -28 -18.5 -44.5t-44.5 -16.5
q-25 0 -54 21q-51 34 -108 34q-86 0 -149.5 -67t-63.5 -162q0 -96 63.5 -162.5t150.5 -66.5q64 0 117 38t62 104h-114q-24 0 -41.5 16t-17.5 39q0 24 17.5 40t41.5 16h173z" />
    <glyph glyph-name="gcommaaccent" unicode="&#x123;" horiz-adv-x="622" 
d="M563 458v-399q0 -5 -2 -15v-34q0 -58 -25 -102t-65 -67.5t-82.5 -34.5t-85.5 -11q-75 0 -134 27q-43 18 -43 56q0 22 15.5 37t36.5 15q11 0 27 -5q68 -17 99 -17q59 0 92.5 28.5t33.5 73.5v68q-7 -29 -48 -57t-100 -28q-43 0 -84.5 16.5t-77.5 48t-58 84.5t-22 118
q0 104 55 171.5t133 87.5l78 149q21 39 68 39h6q23 0 30.5 -15.5t-1.5 -37.5l-47 -146q48 -23 68 -67v17q0 26 19.5 45.5t46.5 19.5q26 0 46.5 -19.5t20.5 -45.5zM306 106q50 0 90 38.5t40 115.5t-40 115.5t-90 38.5q-54 0 -94.5 -41t-40.5 -113q0 -73 40.5 -113.5
t94.5 -40.5z" />
    <glyph glyph-name="Hbar" unicode="&#x126;" horiz-adv-x="691" 
d="M565 703q28 0 47 -20t19 -48v-570q0 -28 -19 -48t-47 -20t-48 20t-20 48v222h-302v-222q0 -28 -19.5 -48t-47.5 -20t-48 20t-20 48v570q0 28 20 48t48 20t47.5 -20t19.5 -48v-61h302v61q0 28 20 48t48 20zM195 402h302v64h-302v-64z" />
    <glyph glyph-name="hbar" unicode="&#x127;" horiz-adv-x="650" 
d="M400 525q83 0 136.5 -58.5t53.5 -180.5v-226q0 -27 -19.5 -46t-46.5 -19q-26 0 -45.5 19t-19.5 46v226q0 64 -29.5 95.5t-76.5 31.5q-31 0 -56 -13t-38.5 -33t-20.5 -36.5t-9 -29.5v-241q0 -27 -19.5 -46t-45.5 -19q-27 0 -46.5 19t-19.5 46v461h-14q-22 0 -38 15.5
t-16 37.5t16 38t38 16h14v21q0 26 19.5 45.5t46.5 19.5q26 0 45.5 -19.5t19.5 -45.5v-21h36q21 0 37 -16t16 -38t-16 -37.5t-37 -15.5h-36v-114q4 35 51.5 76.5t119.5 41.5z" />
    <glyph glyph-name="Imacron" unicode="&#x12a;" horiz-adv-x="257" 
d="M267 880q23 0 40 -16.5t17 -39.5q0 -24 -16.5 -40t-40.5 -16h-276q-24 0 -40.5 16t-16.5 40q0 23 17 39.5t40 16.5h276zM129 703q28 0 48 -20.5t20 -48.5v-572q0 -28 -20 -48.5t-48 -20.5t-48.5 20.5t-20.5 48.5v572q0 28 20.5 48.5t48.5 20.5z" />
    <glyph glyph-name="imacron" unicode="&#x12b;" horiz-adv-x="281" 
d="M279 700q23 0 40 -16.5t17 -39.5q0 -24 -16.5 -40t-40.5 -16h-276q-24 0 -40.5 16t-16.5 40q0 23 17 39.5t40 16.5h276zM141 523q26 0 45.5 -19.5t19.5 -45.5v-399q0 -26 -19.5 -45.5t-45.5 -19.5q-27 0 -46.5 19.5t-19.5 45.5v399q0 26 19.5 45.5t46.5 19.5z" />
    <glyph glyph-name="Iogonek" unicode="&#x12e;" horiz-adv-x="262" 
d="M202 634v-572v-1q0 -33 -20.5 -58t-45 -38t-45 -32t-20.5 -40q0 -40 52 -40q42 0 42 -29q0 -39 -91 -39q-55 0 -91 22t-36 70q0 27 12 48t29.5 34.5l35 27t29.5 32t12 42.5v1v572q0 28 20.5 48.5t48.5 20.5t48 -20.5t20 -48.5z" />
    <glyph glyph-name="iogonek" unicode="&#x12f;" horiz-adv-x="259" 
d="M131 625q-27 0 -47 20t-20 47q0 28 20 47.5t47 19.5q28 0 48 -19.5t20 -47.5q0 -27 -20 -47t-48 -20zM132 523q26 0 45.5 -19.5t19.5 -45.5v-399q0 -32 -20 -57.5t-44 -38.5t-44 -32t-20 -40q0 -40 52 -40q43 0 43 -28q0 -39 -92 -39q-55 0 -91 22t-36 70q0 27 12.5 48
t30.5 34.5t35.5 27t30 32t12.5 41.5v399q0 26 19.5 45.5t46.5 19.5z" />
    <glyph glyph-name="Idotaccent" unicode="&#x130;" horiz-adv-x="257" 
d="M129 805q-27 0 -47 20t-20 47q0 28 20 47.5t47 19.5q28 0 48 -19.5t20 -47.5q0 -27 -20 -47t-48 -20zM129 703q28 0 48 -20.5t20 -48.5v-572q0 -28 -20 -48.5t-48 -20.5t-48.5 20.5t-20.5 48.5v572q0 28 20.5 48.5t48.5 20.5z" />
    <glyph glyph-name="dotlessi" unicode="&#x131;" horiz-adv-x="281" 
d="M141 523q26 0 45.5 -19.5t19.5 -45.5v-399q0 -26 -19.5 -45.5t-45.5 -19.5q-27 0 -46.5 19.5t-19.5 45.5v399q0 26 19.5 45.5t46.5 19.5z" />
    <glyph glyph-name="IJ" unicode="&#x132;" horiz-adv-x="786" 
d="M129 703q28 0 48 -20.5t20 -48.5v-572q0 -28 -20 -48.5t-48 -20.5t-48.5 20.5t-20.5 48.5v572q0 28 20.5 48.5t48.5 20.5zM657 703q28 0 48.5 -19.5t20.5 -45.5v-387q0 -72 -20.5 -124t-56 -80.5t-75.5 -41t-87 -12.5q-89 0 -154 44q-41 27 -41 66q0 23 15 39.5t41 16.5
q29 0 50 -16q49 -29 85 -29q106 0 106 137v387q0 26 20 45.5t48 19.5z" />
    <glyph glyph-name="ij" unicode="&#x133;" horiz-adv-x="538" 
d="M127 594q-27 0 -47 19.5t-20 45.5t20 45.5t47 19.5q26 0 46 -19.5t20 -45.5t-20 -45.5t-46 -19.5zM411 594q-26 0 -46 19.5t-20 45.5t20 45.5t46 19.5q27 0 47 -19.5t20 -45.5t-20 -45.5t-47 -19.5zM127 523q26 0 45.5 -19.5t19.5 -46.5v-396q0 -28 -19.5 -47.5
t-45.5 -19.5q-27 0 -46.5 19.5t-19.5 47.5v396q0 27 19.5 46.5t46.5 19.5zM411 523q27 0 46.5 -19.5t19.5 -47.5v-507q0 -74 -41.5 -114t-111.5 -40q-44 0 -81 16q-50 27 -50 67q0 29 22.5 47.5t51.5 9.5q2 0 15 -6.5t24 -6.5q40 0 40 62v472q0 28 19.5 47.5t45.5 19.5z" />
    <glyph glyph-name="Kcommaaccent" unicode="&#x136;" horiz-adv-x="679" 
d="M634 92q15 -17 15 -40q0 -24 -17.5 -41.5t-42.5 -17.5q-26 0 -44 20l-244 276l-106 -110v-118q0 -28 -20 -48t-48 -20t-47.5 20t-19.5 47v579q0 28 19.5 48t47.5 20t48 -20t20 -48v-280l318 325q21 23 48 23q25 0 43 -17.5t18 -42.5q0 -21 -14 -39l-223 -232zM394 68
q62 0 27 -67l-79 -151q-21 -39 -68 -39h-6q-23 0 -30.5 15.5t1.5 37.5l49 151q19 53 69 53h37z" />
    <glyph glyph-name="kcommaaccent" unicode="&#x137;" horiz-adv-x="553" 
d="M511 92q17 -17 17 -40t-17 -40t-41 -17q-25 0 -40 18l-179 199l-60 -56v-96q0 -27 -19.5 -46t-45.5 -19q-27 0 -46.5 19t-19.5 46v589q0 26 19.5 45.5t46.5 19.5q26 0 45.5 -19.5t19.5 -45.5v-339l198 194q19 19 44 19q24 0 41.5 -17.5t17.5 -41.5t-16 -42l-144 -134z
M328 68q62 0 27 -67l-79 -151q-21 -39 -68 -39h-6q-23 0 -30.5 15.5t1.5 37.5l49 151q19 53 69 53h37z" />
    <glyph glyph-name="Lacute" unicode="&#x139;" horiz-adv-x="545" 
d="M191 952q29 0 48.5 -20t19.5 -48q0 -25 -15 -43l-75 -83q-13 -18 -36 -18q-25 0 -39 18.5t-4 43.5l37 104q17 46 64 46zM195 119h255q24 0 42 -17.5t18 -42.5q0 -24 -18 -41.5t-42 -17.5h-316q-32 0 -53 21t-21 53v560q0 29 20 49t48 20t47.5 -20t19.5 -49v-515z" />
    <glyph glyph-name="lacute" unicode="&#x13a;" horiz-adv-x="251" 
d="M165 954q29 0 48.5 -20t19.5 -48q0 -25 -15 -43l-75 -83q-13 -18 -36 -18q-25 0 -39 18.5t-4 43.5l37 104q17 46 64 46zM191 60q0 -27 -19.5 -46t-45.5 -19q-27 0 -46.5 19t-19.5 46v589q0 26 19.5 45.5t46.5 19.5q26 0 45.5 -19.5t19.5 -45.5v-589z" />
    <glyph glyph-name="Lcommaaccent" unicode="&#x13b;" horiz-adv-x="545" 
d="M450 119q24 0 42 -17.5t18 -42.5q0 -24 -18 -41.5t-42 -17.5h-100l-78 -150q-21 -39 -68 -39h-6q-23 0 -30.5 15.5t1.5 37.5l44 136h-79q-32 0 -53 21t-21 53v560q0 29 20 49t48 20t47.5 -20t19.5 -49v-515h255z" />
    <glyph glyph-name="lcommaaccent" unicode="&#x13c;" horiz-adv-x="251" 
d="M191 649v-589q0 -10 -3 -20q0 -13 -13 -39l-79 -151q-21 -39 -68 -39h-6q-23 0 -30.5 15.5t1.5 37.5l49 151q8 21 19 34q-1 3 -1 11v589q0 26 19.5 45.5t46.5 19.5q26 0 45.5 -19.5t19.5 -45.5z" />
    <glyph glyph-name="Lcaron" unicode="&#x13d;" horiz-adv-x="545" 
d="M320 540q-23 0 -30.5 15t1.5 38l49 151q19 53 69 53h37q62 0 27 -67l-79 -151q-21 -39 -68 -39h-6zM195 119h255q24 0 42 -17.5t18 -42.5q0 -24 -18 -41.5t-42 -17.5h-316q-32 0 -53 21t-21 53v560q0 29 20 49t48 20t47.5 -20t19.5 -49v-515z" />
    <glyph glyph-name="lcaron" unicode="&#x13e;" horiz-adv-x="453" 
d="M191 60q0 -27 -19.5 -46t-45.5 -19q-27 0 -46.5 19t-19.5 46v589q0 26 19.5 45.5t46.5 19.5q26 0 45.5 -19.5t19.5 -45.5v-589zM279 443q-23 0 -30.5 15.5t1.5 37.5l49 151q19 53 69 53h37q62 0 27 -67l-79 -151q-21 -39 -68 -39h-6z" />
    <glyph glyph-name="Ldot" unicode="&#x13f;" horiz-adv-x="545" 
d="M195 119h255q24 0 42 -17.5t18 -42.5q0 -24 -18 -41.5t-42 -17.5h-316q-32 0 -53 21t-21 53v560q0 29 20 49t48 20t47.5 -20t19.5 -49v-515zM413 292q-31 0 -53.5 22t-22.5 54q0 31 22.5 53t53.5 22t53 -22t22 -53t-22 -53.5t-53 -22.5z" />
    <glyph glyph-name="ldot" unicode="&#x140;" horiz-adv-x="479" 
d="M191 60q0 -27 -19.5 -46t-45.5 -19q-27 0 -46.5 19t-19.5 46v589q0 26 19.5 45.5t46.5 19.5q26 0 45.5 -19.5t19.5 -45.5v-589zM344 290q-32 0 -54 22t-22 54q0 31 22.5 53t53.5 22t53 -22t22 -53t-22 -53.5t-53 -22.5z" />
    <glyph glyph-name="Lslash" unicode="&#x141;" horiz-adv-x="613" 
d="M518 119q24 0 42 -17.5t18 -42.5q0 -24 -18 -41.5t-42 -17.5h-316q-32 0 -53 21t-21 53v133q-9 -6 -22 -6q-19 0 -32.5 14t-13.5 33t13 32l55 58v296q0 29 20 49t48 20t47.5 -20t19.5 -49v-155l16 17q17 15 33 15q20 0 33.5 -13.5t13.5 -33.5q0 -14 -13 -31l-83 -87v-227
h255z" />
    <glyph glyph-name="lslash" unicode="&#x142;" horiz-adv-x="316" 
d="M296 454q0 -16 -13 -31l-63 -66v-297q0 -27 -19.5 -46t-45.5 -19q-27 0 -46.5 19t-19.5 46v161q-10 -6 -23 -6q-19 0 -32.5 13.5t-13.5 32.5t13 32l56 59v297q0 26 19.5 45.5t46.5 19.5q26 0 45.5 -19.5t19.5 -45.5v-160q13 11 30 11q19 0 32.5 -13.5t13.5 -32.5z" />
    <glyph glyph-name="Nacute" unicode="&#x143;" horiz-adv-x="700" 
d="M389 954q29 0 48.5 -20t19.5 -48q0 -25 -15 -43l-75 -83q-13 -18 -36 -18q-25 0 -39 18.5t-4 43.5l37 104q17 46 64 46zM571 703q29 0 49 -20.5t20 -48.5v-574q0 -31 -18 -48.5t-45 -17.5q-41 0 -70 40l-310 422v-393q0 -28 -19.5 -48.5t-47.5 -20.5q-29 0 -49.5 20.5
t-20.5 48.5v575q0 31 18 48t46 17q41 0 69 -39l310 -423v393q0 28 20 48.5t48 20.5z" />
    <glyph glyph-name="nacute" unicode="&#x144;" horiz-adv-x="612" 
d="M344 774q28 0 48 -20t20 -48q0 -25 -15 -43l-75 -83q-13 -18 -36 -18q-25 0 -39 18.5t-4 43.5l37 104q17 46 64 46zM362 525q83 0 136.5 -58.5t53.5 -180.5v-226q0 -27 -19.5 -46t-46.5 -19q-26 0 -45.5 19t-19.5 46v226q0 64 -29.5 95.5t-76.5 31.5q-31 0 -56 -13
t-38.5 -33t-20.5 -36.5t-9 -29.5v-241q0 -27 -19.5 -46t-45.5 -19q-27 0 -46.5 19t-19.5 46v397q0 27 19.5 46.5t46.5 19.5q26 0 45.5 -19.5t19.5 -46.5v-50q4 35 51.5 76.5t119.5 41.5z" />
    <glyph glyph-name="Ncommaaccent" unicode="&#x145;" horiz-adv-x="700" 
d="M571 703q29 0 49 -20.5t20 -48.5v-574q0 -31 -18 -48.5t-45 -17.5q-41 0 -70 40l-310 422v-393q0 -28 -19.5 -48.5t-47.5 -20.5q-29 0 -49.5 20.5t-20.5 48.5v575q0 31 18 48t46 17q41 0 69 -39l310 -423v393q0 28 20 48.5t48 20.5zM247 -189q-23 0 -30.5 15.5t1.5 37.5
l49 151q19 53 69 53h37q62 0 27 -67l-79 -151q-21 -39 -68 -39h-6z" />
    <glyph glyph-name="ncommaaccent" unicode="&#x146;" horiz-adv-x="612" 
d="M362 525q83 0 136.5 -58.5t53.5 -180.5v-226q0 -27 -19.5 -46t-46.5 -19q-26 0 -45.5 19t-19.5 46v226q0 64 -29.5 95.5t-76.5 31.5q-31 0 -56 -13t-38.5 -33t-20.5 -36.5t-9 -29.5v-241q0 -27 -19.5 -46t-45.5 -19q-27 0 -46.5 19t-19.5 46v397q0 27 19.5 46.5
t46.5 19.5q26 0 45.5 -19.5t19.5 -46.5v-50q4 35 51.5 76.5t119.5 41.5zM202 -189q-23 0 -30.5 15.5t1.5 37.5l49 151q19 53 69 53h37q62 0 27 -67l-79 -151q-21 -39 -68 -39h-6z" />
    <glyph glyph-name="Ncaron" unicode="&#x147;" horiz-adv-x="700" 
d="M353 792h-4q-21 0 -33.5 7.5t-27.5 26.5l-70 91q-16 21 -8 42t32 21t47 -28l62 -71l61 71q24 28 47 28q24 0 32.5 -21t-7.5 -42l-70 -91q-16 -19 -28.5 -26.5t-32.5 -7.5zM571 703q29 0 49 -20.5t20 -48.5v-574q0 -31 -18 -48.5t-45 -17.5q-41 0 -70 40l-310 422v-393
q0 -28 -19.5 -48.5t-47.5 -20.5q-29 0 -49.5 20.5t-20.5 48.5v575q0 31 18 48t46 17q41 0 69 -39l310 -423v393q0 28 20 48.5t48 20.5z" />
    <glyph glyph-name="ncaron" unicode="&#x148;" horiz-adv-x="612" 
d="M308 612h-4q-21 0 -33.5 7.5t-27.5 26.5l-70 91q-16 21 -8 42t32 21t47 -28l62 -71l61 71q24 28 47 28q24 0 32.5 -21t-7.5 -42l-70 -91q-16 -19 -28.5 -26.5t-32.5 -7.5zM362 525q83 0 136.5 -58.5t53.5 -180.5v-226q0 -27 -19.5 -46t-46.5 -19q-26 0 -45.5 19t-19.5 46
v226q0 64 -29.5 95.5t-76.5 31.5q-31 0 -56 -13t-38.5 -33t-20.5 -36.5t-9 -29.5v-241q0 -27 -19.5 -46t-45.5 -19q-27 0 -46.5 19t-19.5 46v397q0 27 19.5 46.5t46.5 19.5q26 0 45.5 -19.5t19.5 -46.5v-50q4 35 51.5 76.5t119.5 41.5z" />
    <glyph glyph-name="Eng" unicode="&#x14a;" horiz-adv-x="700" 
d="M571 703q29 0 49 -20.5t20 -48.5v-613q0 -72 -20.5 -124t-56 -80.5t-75.5 -41t-87 -12.5q-89 0 -154 44q-41 27 -41 66q0 23 15 39.5t41 16.5q29 0 50 -16q49 -29 85 -29q106 0 106 137v18l-306 417v-393q0 -28 -19.5 -48.5t-47.5 -20.5q-29 0 -49.5 20.5t-20.5 48.5v575
q0 31 18 48t46 17q41 0 69 -39l310 -423v393q0 28 20 48.5t48 20.5z" />
    <glyph glyph-name="eng" unicode="&#x14b;" horiz-adv-x="622" 
d="M552 146q10 -17 10 -35v-162q0 -78 -40 -116t-111 -38q-24 0 -69 9q-20 6 -32.5 23t-12.5 38q0 31 23.5 51t53.5 13q4 -1 19 -1q38 0 38 61v37q-10 17 -10 34v226q0 64 -29.5 95.5t-76.5 31.5q-31 0 -56 -13t-38.5 -33t-20.5 -36.5t-9 -29.5v-241q0 -27 -19.5 -46
t-45.5 -19q-27 0 -46.5 19t-19.5 46v397q0 27 19.5 46.5t46.5 19.5q26 0 45.5 -19.5t19.5 -46.5v-50q4 35 51.5 76.5t119.5 41.5q83 0 136.5 -58.5t53.5 -180.5v-140z" />
    <glyph glyph-name="Omacron" unicode="&#x14c;" horiz-adv-x="797" 
d="M536 880q23 0 40 -16.5t17 -39.5q0 -24 -16.5 -40t-40.5 -16h-276q-24 0 -40.5 16t-16.5 40q0 23 17 39.5t40 16.5h276zM398 707q137 0 243 -102t106 -255t-106 -255t-243 -102q-88 0 -167.5 44.5t-130 127.5t-50.5 185t50.5 185t130 127.5t167.5 44.5zM398 579
q-85 0 -146 -64.5t-61 -164.5t61 -164.5t146 -64.5q86 0 147 64.5t61 164.5t-61 164.5t-147 64.5z" />
    <glyph glyph-name="omacron" unicode="&#x14d;" horiz-adv-x="614" 
d="M445 700q23 0 40 -16.5t17 -39.5q0 -24 -16.5 -40t-40.5 -16h-276q-24 0 -40.5 16t-16.5 40q0 23 17 39.5t40 16.5h276zM307 526q44 0 90 -17t86 -49t65.5 -84.5t25.5 -116.5t-25.5 -116.5t-65.5 -84t-86 -48.5t-90 -17q-61 0 -120.5 28t-103 91t-43.5 147t43.5 147
t103 91.5t120.5 28.5zM307 412q-56 0 -96.5 -41.5t-40.5 -111.5q0 -69 40.5 -110.5t96.5 -41.5t96.5 41.5t40.5 110.5q0 70 -40.5 111.5t-96.5 41.5z" />
    <glyph glyph-name="Ohungarumlaut" unicode="&#x150;" horiz-adv-x="797" 
d="M380 954q28 0 48 -20t20 -48q0 -25 -15 -43l-75 -83q-13 -18 -36 -18q-25 0 -39 18.5t-4 43.5l37 104q17 46 64 46zM579 954q29 0 48.5 -20t19.5 -48q0 -25 -15 -43l-75 -83q-13 -18 -36 -18q-25 0 -39 18.5t-4 43.5l37 104q17 46 64 46zM398 707q137 0 243 -102
t106 -255t-106 -255t-243 -102q-88 0 -167.5 44.5t-130 127.5t-50.5 185t50.5 185t130 127.5t167.5 44.5zM398 579q-85 0 -146 -64.5t-61 -164.5t61 -164.5t146 -64.5q86 0 147 64.5t61 164.5t-61 164.5t-147 64.5z" />
    <glyph glyph-name="ohungarumlaut" unicode="&#x151;" horiz-adv-x="614" 
d="M289 774q29 0 48.5 -20t19.5 -48q0 -25 -15 -43l-75 -83q-13 -18 -36 -18q-25 0 -39 18.5t-4 43.5l37 104q17 46 64 46zM488 774q28 0 48 -20t20 -48q0 -25 -15 -43l-75 -83q-13 -18 -36 -18q-25 0 -39 18.5t-4 43.5l37 104q17 46 64 46zM307 526q44 0 90 -17t86 -49
t65.5 -84.5t25.5 -116.5t-25.5 -116.5t-65.5 -84t-86 -48.5t-90 -17q-61 0 -120.5 28t-103 91t-43.5 147t43.5 147t103 91.5t120.5 28.5zM307 412q-56 0 -96.5 -41.5t-40.5 -111.5q0 -69 40.5 -110.5t96.5 -41.5t96.5 41.5t40.5 110.5q0 70 -40.5 111.5t-96.5 41.5z" />
    <glyph glyph-name="OE" unicode="&#x152;" horiz-adv-x="1104" 
d="M1010 118q24 0 42 -17.5t18 -41.5t-18 -41.5t-42 -17.5h-342q-28 0 -47.5 15.5t-24.5 41.5q-92 -64 -198 -64q-88 0 -167.5 44.5t-130 127.5t-50.5 185t50.5 185t130 127.5t167.5 44.5q106 0 198 -64q5 26 24.5 41.5t47.5 15.5h332q24 0 42 -17t18 -41q0 -25 -18 -42.5
t-42 -17.5h-271v-118q6 -18 14 -56h164q25 0 42 -16.5t17 -39.5t-17 -40t-42 -17h-164q-4 -28 -14 -59v-118h281zM398 121q66 0 120 40.5t76 108.5v160q-22 68 -75.5 108.5t-120.5 40.5q-85 0 -146 -64.5t-61 -164.5t61 -164.5t146 -64.5z" />
    <glyph glyph-name="oe" unicode="&#x153;" horiz-adv-x="1000" 
d="M960 281q0 -38 -20.5 -54t-61.5 -16l-297 2q9 -53 48 -82.5t95 -29.5q35 0 83 21q36 16 49 16q20 0 32.5 -13t12.5 -32q0 -28 -32 -55q-61 -43 -150 -43q-133 0 -211 87q-40 -43 -94.5 -66t-106.5 -23q-61 0 -120.5 28t-103 91t-43.5 147t43.5 147t103 91.5t120.5 28.5
q53 0 107 -23.5t94 -67.5q39 44 93 67.5t107 23.5q94 0 173 -68t79 -177zM307 107q56 0 96.5 41.5t40.5 110.5q0 70 -40.5 111.5t-96.5 41.5t-96.5 -41.5t-40.5 -111.5q0 -69 40.5 -110.5t96.5 -41.5zM581 303h250q-7 54 -41.5 81.5t-81.5 27.5t-84 -27.5t-43 -81.5z" />
    <glyph glyph-name="Racute" unicode="&#x154;" horiz-adv-x="622" 
d="M300 742q-25 0 -39 18.5t-4 43.5l37 104q17 46 64 46q28 0 48 -20t20 -48q0 -25 -15 -43l-75 -83q-13 -18 -36 -18zM566 101q16 -20 16 -41q0 -26 -17.5 -44.5t-43.5 -18.5q-32 0 -50 25l-177 226h-99v-187q0 -28 -19.5 -48t-47.5 -20t-48 20t-20 48v565q0 32 21 53
t53 21h183q115 0 185.5 -65t70.5 -162q0 -71 -38.5 -125.5t-106.5 -80.5zM195 585v-222h116q131 0 131 110q0 112 -131 112h-116z" />
    <glyph glyph-name="racute" unicode="&#x155;" horiz-adv-x="439" 
d="M236 562q-25 0 -39 18.5t-4 43.5l37 104q17 46 64 46q28 0 48 -20t20 -48q0 -25 -15 -43l-75 -83q-13 -18 -36 -18zM347 525q29 0 45.5 -17.5t16.5 -42.5q0 -29 -21.5 -45.5t-62.5 -16.5q-55 0 -92.5 -33.5t-41.5 -68.5v-241q0 -26 -19.5 -45.5t-45.5 -19.5
q-27 0 -46.5 19.5t-19.5 45.5v397q0 27 19.5 46.5t46.5 19.5q26 0 45.5 -19.5t19.5 -46.5v-50q4 34 49.5 76t106.5 42z" />
    <glyph glyph-name="Rcommaaccent" unicode="&#x156;" horiz-adv-x="622" 
d="M566 101q16 -20 16 -41q0 -26 -17.5 -44.5t-43.5 -18.5q-32 0 -50 25l-177 226h-99v-187q0 -28 -19.5 -48t-47.5 -20t-48 20t-20 48v565q0 32 21 53t53 21h183q115 0 185.5 -65t70.5 -162q0 -71 -38.5 -125.5t-106.5 -80.5zM195 585v-222h116q131 0 131 110
q0 112 -131 112h-116zM349 68q62 0 27 -67l-79 -151q-21 -39 -68 -39h-6q-23 0 -30.5 15.5t1.5 37.5l49 151q19 53 69 53h37z" />
    <glyph glyph-name="rcommaaccent" unicode="&#x157;" horiz-adv-x="439" 
d="M347 525q29 0 45.5 -17.5t16.5 -42.5q0 -29 -21.5 -45.5t-62.5 -16.5q-55 0 -92.5 -33.5t-41.5 -68.5v-241q0 -14 -6 -26q-1 -14 -12 -33l-79 -151q-21 -39 -68 -39h-6q-23 0 -30.5 15.5t1.5 37.5l49 151q8 23 21 35q-1 3 -1 10v397q0 27 19.5 46.5t46.5 19.5
q26 0 45.5 -19.5t19.5 -46.5v-50q4 34 49.5 76t106.5 42z" />
    <glyph glyph-name="Rcaron" unicode="&#x158;" horiz-adv-x="622" 
d="M257 826l-70 91q-16 21 -8 42t32 21t47 -28l62 -71l61 71q24 28 47 28q24 0 32.5 -21t-7.5 -42l-70 -91q-16 -19 -28.5 -26.5t-32.5 -7.5h-4q-21 0 -33.5 7.5t-27.5 26.5zM566 101q16 -20 16 -41q0 -26 -17.5 -44.5t-43.5 -18.5q-32 0 -50 25l-177 226h-99v-187
q0 -28 -19.5 -48t-47.5 -20t-48 20t-20 48v565q0 32 21 53t53 21h183q115 0 185.5 -65t70.5 -162q0 -71 -38.5 -125.5t-106.5 -80.5zM195 585v-222h116q131 0 131 110q0 112 -131 112h-116z" />
    <glyph glyph-name="rcaron" unicode="&#x159;" horiz-adv-x="439" 
d="M193 646l-70 91q-16 21 -8 42t32 21t47 -28l62 -71l61 71q24 28 47 28q24 0 32.5 -21t-7.5 -42l-70 -91q-16 -19 -28.5 -26.5t-32.5 -7.5h-4q-21 0 -33.5 7.5t-27.5 26.5zM347 525q29 0 45.5 -17.5t16.5 -42.5q0 -29 -21.5 -45.5t-62.5 -16.5q-55 0 -92.5 -33.5
t-41.5 -68.5v-241q0 -26 -19.5 -45.5t-45.5 -19.5q-27 0 -46.5 19.5t-19.5 45.5v397q0 27 19.5 46.5t46.5 19.5q26 0 45.5 -19.5t19.5 -46.5v-50q4 34 49.5 76t106.5 42z" />
    <glyph glyph-name="Sacute" unicode="&#x15a;" horiz-adv-x="572" 
d="M320 954q28 0 48 -20t20 -48q0 -25 -15 -43l-75 -83q-13 -18 -36 -18q-25 0 -39 18.5t-4 43.5l37 104q17 46 64 46zM287 707q112 0 182 -77q29 -34 29 -60q0 -23 -16 -38.5t-40 -15.5q-29 0 -54 27q-43 45 -96 45q-45 0 -70.5 -20.5t-25.5 -54.5q0 -56 78 -86l39 -15
q118 -45 168.5 -93t50.5 -119q0 -65 -40 -114t-96 -71t-117 -22t-118 24.5t-93 69.5q-28 34 -28 65q0 23 14.5 40t40.5 17q36 0 64 -38q46 -58 120 -58q45 0 80.5 20.5t35.5 66.5q0 37 -25.5 59.5t-86.5 46.5l-42 16q-87 34 -133 77.5t-46 114.5q0 87 64.5 140t160.5 53z
" />
    <glyph glyph-name="sacute" unicode="&#x15b;" horiz-adv-x="475" 
d="M278 774q28 0 48 -20t20 -48q0 -25 -15 -43l-75 -83q-13 -18 -36 -18q-25 0 -39 18.5t-4 43.5l37 104q17 46 64 46zM238 526q52 0 97 -19.5t69 -53.5q16 -24 16 -44q0 -23 -14 -36t-37 -13q-32 0 -55 28q-30 34 -72 34q-29 0 -45.5 -13t-16.5 -34q0 -35 52 -50l61 -18
q69 -19 108 -53t39 -96q0 -78 -60.5 -120.5t-145.5 -42.5q-113 0 -172 72q-27 38 -27 63q0 19 12.5 34.5t37.5 15.5q28 0 54 -32q37 -46 95 -46q36 0 56 13.5t20 35.5q0 36 -59 53l-57 17q-143 40 -143 153q0 71 55.5 111.5t131.5 40.5z" />
    <glyph glyph-name="Scedilla" unicode="&#x15e;" horiz-adv-x="572" 
d="M532 200q0 -82 -57 -134t-140 -68l-48 -51q39 -9 64.5 -34t25.5 -61q0 -50 -49 -72.5t-126 -17.5q-12 1 -19 8t-5 17q3 14 28 17q71 6 71 46q0 18 -13.5 27.5t-29.5 4.5q-30 -7 -43 17q-11 19 -2 40l35 59q-100 18 -156 89q-28 34 -28 65q0 23 14.5 40t40.5 17
q36 0 64 -38q46 -58 120 -58q45 0 80.5 20.5t35.5 66.5q0 37 -25.5 59.5t-86.5 46.5l-42 16q-87 34 -133 77.5t-46 114.5q0 87 64.5 140t160.5 53q112 0 182 -77q29 -34 29 -60q0 -23 -16 -38.5t-40 -15.5q-29 0 -54 27q-43 45 -96 45q-45 0 -70.5 -20.5t-25.5 -54.5
q0 -56 78 -86l39 -15q118 -45 168.5 -93t50.5 -119z" />
    <glyph glyph-name="scedilla" unicode="&#x15f;" horiz-adv-x="475" 
d="M440 158q0 -65 -42.5 -105t-109.5 -53h14l-50 -53q39 -9 64.5 -34t25.5 -61q0 -50 -49 -72.5t-126 -17.5q-12 1 -19 8t-5 17q3 14 28 17q71 6 71 46q0 18 -13.5 27.5t-29.5 4.5q-30 -7 -43 17q-11 19 -2 40l35 59q-81 13 -127 69q-27 38 -27 63q0 19 12.5 34.5t37.5 15.5
q28 0 54 -32q37 -46 95 -46q36 0 56 13.5t20 35.5q0 36 -59 53l-57 17q-143 40 -143 153q0 71 55.5 111.5t131.5 40.5q52 0 97 -19.5t69 -53.5q16 -24 16 -44q0 -23 -14 -36t-37 -13q-32 0 -55 28q-30 34 -72 34q-29 0 -45.5 -13t-16.5 -34q0 -35 52 -50l61 -18
q69 -19 108 -53t39 -96z" />
    <glyph glyph-name="Scaron" unicode="&#x160;" horiz-adv-x="572" 
d="M284 792h-4q-21 0 -33.5 7.5t-27.5 26.5l-70 91q-16 21 -8 42t32 21t47 -28l62 -71l61 71q24 28 47 28q24 0 32.5 -21t-7.5 -42l-70 -91q-16 -19 -28.5 -26.5t-32.5 -7.5zM287 707q112 0 182 -77q29 -34 29 -60q0 -23 -16 -38.5t-40 -15.5q-29 0 -54 27q-43 45 -96 45
q-45 0 -70.5 -20.5t-25.5 -54.5q0 -56 78 -86l39 -15q118 -45 168.5 -93t50.5 -119q0 -65 -40 -114t-96 -71t-117 -22t-118 24.5t-93 69.5q-28 34 -28 65q0 23 14.5 40t40.5 17q36 0 64 -38q46 -58 120 -58q45 0 80.5 20.5t35.5 66.5q0 37 -25.5 59.5t-86.5 46.5l-42 16
q-87 34 -133 77.5t-46 114.5q0 87 64.5 140t160.5 53z" />
    <glyph glyph-name="scaron" unicode="&#x161;" horiz-adv-x="475" 
d="M242 612h-4q-21 0 -33.5 7.5t-27.5 26.5l-70 91q-16 21 -8 42t32 21t47 -28l62 -71l61 71q24 28 47 28q24 0 32.5 -21t-7.5 -42l-70 -91q-16 -19 -28.5 -26.5t-32.5 -7.5zM238 526q52 0 97 -19.5t69 -53.5q16 -24 16 -44q0 -23 -14 -36t-37 -13q-32 0 -55 28
q-30 34 -72 34q-29 0 -45.5 -13t-16.5 -34q0 -35 52 -50l61 -18q69 -19 108 -53t39 -96q0 -78 -60.5 -120.5t-145.5 -42.5q-113 0 -172 72q-27 38 -27 63q0 19 12.5 34.5t37.5 15.5q28 0 54 -32q37 -46 95 -46q36 0 56 13.5t20 35.5q0 36 -59 53l-57 17q-143 40 -143 153
q0 71 55.5 111.5t131.5 40.5z" />
    <glyph glyph-name="uni0162" unicode="&#x162;" horiz-adv-x="597" 
d="M508 700q24 0 41.5 -17.5t17.5 -42.5t-17.5 -42t-41.5 -17h-142v-517v-1h19q0 -28 -20.5 -62t-40.5 -55q39 -9 65.5 -35t26.5 -62q0 -51 -48.5 -75t-128.5 -22q-15 0 -22 6t-3 16q9 19 30 22q70 13 70 53q0 19 -14 29.5t-31 2.5q-12 -7 -21.5 -4.5t-18.5 19.5
q-10 17 -3 42q13 58 16 88q-11 17 -11 38v517h-141q-24 0 -42 17.5t-18 41.5q0 25 18 42.5t42 17.5h418z" />
    <glyph glyph-name="uni0163" unicode="&#x163;" horiz-adv-x="382" 
d="M352 65q0 -51 -64 -65h13l-50 -53q39 -9 64.5 -34t25.5 -61q0 -50 -49 -72.5t-126 -17.5q-12 1 -19 8t-5 17q3 14 28 17q71 6 71 46q0 18 -13.5 27.5t-29.5 4.5q-30 -7 -43 17q-11 19 -2 40l36 61h2q-89 22 -89 156v261h-29q-24 0 -38.5 14t-14.5 37t14.5 37.5t38.5 14.5
h29v68q0 27 19.5 46.5t46.5 19.5t46 -19.5t19 -46.5v-68h66q25 0 39 -14t14 -38q0 -23 -14.5 -37t-38.5 -14h-66v-265q0 -44 32 -44q5 0 19 2t19 2q23 2 36 -11t13 -36z" />
    <glyph glyph-name="Tcaron" unicode="&#x164;" horiz-adv-x="597" 
d="M300 792h-4q-21 0 -33.5 7.5t-27.5 26.5l-70 91q-16 21 -8 42t32 21t47 -28l62 -71l61 71q24 28 47 28q24 0 32.5 -21t-7.5 -42l-70 -91q-16 -19 -28.5 -26.5t-32.5 -7.5zM508 700q24 0 41.5 -17.5t17.5 -42.5t-17.5 -42t-41.5 -17h-142v-517q0 -29 -20 -50t-47 -21
q-28 0 -48 21t-20 50v517h-141q-24 0 -42 17.5t-18 41.5q0 25 18 42.5t42 17.5h418z" />
    <glyph glyph-name="tcaron" unicode="&#x165;" horiz-adv-x="448" 
d="M365 764q29 0 48.5 -20t19.5 -48q0 -25 -15 -43l-75 -83q-13 -18 -36 -18q-25 0 -39 18.5t-4 43.5l37 104q17 46 64 46zM299 417h-66v-265q0 -44 32 -44q5 0 19 2t19 2q23 2 36 -11t13 -36q0 -34 -30.5 -52t-82.5 -18q-62 0 -99.5 33.5t-37.5 127.5v261h-29
q-24 0 -38.5 14t-14.5 37t14.5 37.5t38.5 14.5h29v68q0 27 19.5 46.5t46.5 19.5t46 -19.5t19 -46.5v-68h66q25 0 39 -14t14 -38q0 -23 -14.5 -37t-38.5 -14z" />
    <glyph glyph-name="Tbar" unicode="&#x166;" horiz-adv-x="597" 
d="M508 700q24 0 41.5 -17.5t17.5 -42.5t-17.5 -42t-41.5 -17h-142v-61h71q23 0 40 -16.5t17 -39.5q0 -24 -16.5 -40t-40.5 -16h-71v-344q0 -29 -20 -50t-47 -21q-28 0 -48 21t-20 50v344h-70q-24 0 -40.5 16t-16.5 40q0 23 17 39.5t40 16.5h70v61h-141q-24 0 -42 17.5
t-18 41.5q0 25 18 42.5t42 17.5h418z" />
    <glyph glyph-name="tbar" unicode="&#x167;" horiz-adv-x="382" 
d="M303 112q23 2 36 -11t13 -36q0 -34 -30.5 -52t-82.5 -18q-62 0 -99.5 33.5t-37.5 127.5v103h-20q-23 0 -40 16.5t-17 39.5t17 39.5t40 16.5h20v46h-29q-24 0 -38.5 14t-14.5 37t14.5 37.5t38.5 14.5h29v68q0 27 19.5 46.5t46.5 19.5t46 -19.5t19 -46.5v-68h66
q25 0 39 -14t14 -38q0 -23 -14.5 -37t-38.5 -14h-66v-46h60q23 0 39.5 -16.5t16.5 -39.5t-16.5 -39.5t-39.5 -16.5h-60v-107q0 -44 32 -44q5 0 19 2t19 2z" />
    <glyph glyph-name="Umacron" unicode="&#x16a;" horiz-adv-x="688" 
d="M482 880q23 0 40 -16.5t17 -39.5q0 -24 -16.5 -40t-40.5 -16h-276q-24 0 -40.5 16t-16.5 40q0 23 17 39.5t40 16.5h276zM558 703q27 0 46 -19t19 -46v-387q0 -118 -79.5 -188t-199.5 -70t-199.5 70t-79.5 188v387q0 26 19.5 45.5t46.5 19.5q28 0 48.5 -19.5t20.5 -45.5
v-385q0 -74 40.5 -110.5t103.5 -36.5t103.5 36.5t40.5 110.5v385q0 26 21 45.5t49 19.5z" />
    <glyph glyph-name="umacron" unicode="&#x16b;" horiz-adv-x="612" 
d="M444 700q23 0 40 -16.5t17 -39.5q0 -24 -16.5 -40t-40.5 -16h-276q-24 0 -40.5 16t-16.5 40q0 23 17 39.5t40 16.5h276zM250 -7q-83 0 -136.5 58.5t-53.5 180.5v226q0 27 19.5 46t46.5 19q26 0 45.5 -19t19.5 -46v-226q0 -64 29.5 -95.5t76.5 -31.5q31 0 56 13t38.5 33
t20.5 36.5t9 29.5v241q0 27 19.5 46t45.5 19q27 0 46.5 -19t19.5 -46v-397q0 -27 -19.5 -46.5t-46.5 -19.5q-26 0 -45.5 19.5t-19.5 46.5v50q-4 -35 -51.5 -76.5t-119.5 -41.5z" />
    <glyph glyph-name="Ubreve" unicode="&#x16c;" horiz-adv-x="688" 
d="M468 954q27 0 42 -20.5t8 -47.5q-17 -58 -61.5 -94.5t-112.5 -36.5t-113 36.5t-61 94.5q-8 27 7 47.5t42 20.5q36 0 47 -31q10 -22 31.5 -35.5t46.5 -13.5q24 0 45.5 13.5t31.5 35.5q13 31 47 31zM558 703q27 0 46 -19t19 -46v-387q0 -118 -79.5 -188t-199.5 -70
t-199.5 70t-79.5 188v387q0 26 19.5 45.5t46.5 19.5q28 0 48.5 -19.5t20.5 -45.5v-385q0 -74 40.5 -110.5t103.5 -36.5t103.5 36.5t40.5 110.5v385q0 26 21 45.5t49 19.5z" />
    <glyph glyph-name="ubreve" unicode="&#x16d;" horiz-adv-x="612" 
d="M430 774q27 0 42 -20.5t8 -47.5q-17 -58 -61.5 -94.5t-112.5 -36.5t-113 36.5t-61 94.5q-8 27 7 47.5t42 20.5q36 0 47 -31q10 -22 31.5 -35.5t46.5 -13.5q24 0 45.5 13.5t31.5 35.5q13 31 47 31zM250 -7q-83 0 -136.5 58.5t-53.5 180.5v226q0 27 19.5 46t46.5 19
q26 0 45.5 -19t19.5 -46v-226q0 -64 29.5 -95.5t76.5 -31.5q31 0 56 13t38.5 33t20.5 36.5t9 29.5v241q0 27 19.5 46t45.5 19q27 0 46.5 -19t19.5 -46v-397q0 -27 -19.5 -46.5t-46.5 -19.5q-26 0 -45.5 19.5t-19.5 46.5v50q-4 -35 -51.5 -76.5t-119.5 -41.5z" />
    <glyph glyph-name="Uring" unicode="&#x16e;" horiz-adv-x="688" 
d="M345 987q44 0 75.5 -32t31.5 -76t-32 -76t-75 -32q-46 0 -78.5 32t-32.5 76t32.5 76t78.5 32zM342 909q-11 0 -19 -8.5t-8 -20.5q0 -11 8 -19t19 -8t20 8t9 19q0 12 -9 20.5t-20 8.5zM558 703q27 0 46 -19t19 -46v-387q0 -118 -79.5 -188t-199.5 -70t-199.5 70t-79.5 188
v387q0 26 19.5 45.5t46.5 19.5q28 0 48.5 -19.5t20.5 -45.5v-385q0 -74 40.5 -110.5t103.5 -36.5t103.5 36.5t40.5 110.5v385q0 26 21 45.5t49 19.5z" />
    <glyph glyph-name="uring" unicode="&#x16f;" horiz-adv-x="612" 
d="M307 807q44 0 75.5 -32t31.5 -76t-32 -76t-75 -32q-46 0 -78.5 32t-32.5 76t32.5 76t78.5 32zM304 729q-11 0 -19 -8.5t-8 -20.5q0 -11 8 -19t19 -8t20 8t9 19q0 12 -9 20.5t-20 8.5zM250 -7q-83 0 -136.5 58.5t-53.5 180.5v226q0 27 19.5 46t46.5 19q26 0 45.5 -19
t19.5 -46v-226q0 -64 29.5 -95.5t76.5 -31.5q31 0 56 13t38.5 33t20.5 36.5t9 29.5v241q0 27 19.5 46t45.5 19q27 0 46.5 -19t19.5 -46v-397q0 -27 -19.5 -46.5t-46.5 -19.5q-26 0 -45.5 19.5t-19.5 46.5v50q-4 -35 -51.5 -76.5t-119.5 -41.5z" />
    <glyph glyph-name="Uhungarumlaut" unicode="&#x170;" horiz-adv-x="688" 
d="M326 954q28 0 48 -20t20 -48q0 -25 -15 -43l-75 -83q-13 -18 -36 -18q-25 0 -39 18.5t-4 43.5l37 104q17 46 64 46zM525 954q29 0 48.5 -20t19.5 -48q0 -25 -15 -43l-75 -83q-13 -18 -36 -18q-25 0 -39 18.5t-4 43.5l37 104q17 46 64 46zM558 703q27 0 46 -19t19 -46
v-387q0 -118 -79.5 -188t-199.5 -70t-199.5 70t-79.5 188v387q0 26 19.5 45.5t46.5 19.5q28 0 48.5 -19.5t20.5 -45.5v-385q0 -74 40.5 -110.5t103.5 -36.5t103.5 36.5t40.5 110.5v385q0 26 21 45.5t49 19.5z" />
    <glyph glyph-name="uhungarumlaut" unicode="&#x171;" horiz-adv-x="612" 
d="M288 774q28 0 48 -20t20 -48q0 -25 -15 -43l-75 -83q-13 -18 -36 -18q-25 0 -39 18.5t-4 43.5l37 104q17 46 64 46zM487 774q29 0 48.5 -20t19.5 -48q0 -25 -15 -43l-75 -83q-13 -18 -36 -18q-25 0 -39 18.5t-4 43.5l37 104q17 46 64 46zM250 -7q-83 0 -136.5 58.5
t-53.5 180.5v226q0 27 19.5 46t46.5 19q26 0 45.5 -19t19.5 -46v-226q0 -64 29.5 -95.5t76.5 -31.5q31 0 56 13t38.5 33t20.5 36.5t9 29.5v241q0 27 19.5 46t45.5 19q27 0 46.5 -19t19.5 -46v-397q0 -27 -19.5 -46.5t-46.5 -19.5q-26 0 -45.5 19.5t-19.5 46.5v50
q-4 -35 -51.5 -76.5t-119.5 -41.5z" />
    <glyph glyph-name="Uogonek" unicode="&#x172;" horiz-adv-x="688" 
d="M558 703q27 0 46 -19t19 -46v-387q0 -100 -58 -166.5t-153 -85.5q-44 -11 -85 -37.5t-41 -60.5q0 -22 17 -35t41 -13q36 0 36 -29q0 -39 -91 -39q-55 0 -91 22t-36 71q0 56 37.5 85.5t79.5 35.5q-96 18 -155 84.5t-59 167.5v387q0 26 19.5 45.5t46.5 19.5
q28 0 48.5 -19.5t20.5 -45.5v-385q0 -74 40.5 -110.5t103.5 -36.5t103.5 36.5t40.5 110.5v385q0 26 21 45.5t49 19.5z" />
    <glyph glyph-name="uogonek" unicode="&#x173;" horiz-adv-x="612" 
d="M486 523q27 0 46.5 -19t19.5 -46v-397q0 -33 -20 -58t-44 -38t-44 -32t-20 -40q0 -40 52 -40q42 0 42 -29q0 -39 -91 -39q-55 0 -91 22t-36 70q0 27 12.5 48t30 34.5t35.5 27t30.5 32t12.5 42.5v50q-4 -35 -51.5 -76.5t-119.5 -41.5q-83 0 -136.5 58.5t-53.5 180.5v226
q0 27 19.5 46t46.5 19q26 0 45.5 -19t19.5 -46v-226q0 -64 29.5 -95.5t76.5 -31.5q31 0 56 13t38.5 33t20.5 36.5t9 29.5v241q0 27 19.5 46t45.5 19z" />
    <glyph glyph-name="Wcircumflex" unicode="&#x174;" horiz-adv-x="1023" 
d="M514 980q20 0 32.5 -7.5t28.5 -26.5l70 -91q16 -21 7.5 -42t-32.5 -21q-23 0 -47 28l-61 71l-62 -71q-23 -28 -47 -28t-32 21t8 42l70 91q15 19 27.5 26.5t33.5 7.5h4zM923 703q27 0 46 -18t19 -43q0 -9 -8 -38l-172 -559q-15 -50 -71 -50q-53 0 -71 50l-154 420
l-155 -420q-18 -50 -70 -50q-56 0 -72 50l-171 559q-9 25 -9 38q0 25 19 43t47 18q22 0 40.5 -12t23.5 -31l127 -451l160 450q16 44 59 44q45 0 61 -44l160 -450l126 451q5 19 23.5 31t41.5 12z" />
    <glyph glyph-name="wcircumflex" unicode="&#x175;" horiz-adv-x="843" 
d="M423 800q20 0 32.5 -7.5t28.5 -26.5l70 -91q16 -21 7.5 -42t-32.5 -21q-23 0 -47 28l-61 71l-62 -71q-23 -28 -47 -28t-32 21t8 42l70 91q15 19 27.5 26.5t33.5 7.5h4zM751 523q26 0 44 -18t18 -44q0 -5 -4 -16t-5 -14l-134 -383q-17 -50 -62 -50t-65 50l-122 286
l-122 -286q-20 -50 -64 -50q-46 0 -63 50l-133 383q-9 25 -9 30q0 26 18 44t44 18q18 0 34 -10t21 -25l96 -301l119 296q17 40 59 40q44 0 59 -40l119 -296l96 301q5 15 21.5 25t34.5 10z" />
    <glyph glyph-name="Ycircumflex" unicode="&#x176;" horiz-adv-x="633" 
d="M318 980q20 0 32.5 -7.5t28.5 -26.5l70 -91q16 -21 7.5 -42t-32.5 -21q-23 0 -47 28l-61 71l-62 -71q-23 -28 -47 -28t-32 21t8 42l70 91q15 19 27.5 26.5t33.5 7.5h4zM534 703q26 0 44 -18t18 -43q0 -20 -10 -34l-203 -296v-254q0 -27 -20 -46t-47 -19t-46.5 19
t-19.5 46v254l-203 296q-10 14 -10 34q0 26 18 43.5t44 17.5q30 0 49 -25l168 -252l169 252q17 25 49 25z" />
    <glyph glyph-name="ycircumflex" unicode="&#x177;" horiz-adv-x="577" 
d="M175 612q-24 0 -32 21t8 42l70 91q15 19 27.5 26.5t33.5 7.5h4q20 0 32.5 -7.5t28.5 -26.5l70 -91q16 -21 7.5 -42t-32.5 -21q-23 0 -47 28l-61 71l-62 -71q-23 -28 -47 -28zM486 523q26 0 43.5 -17.5t17.5 -41.5q0 -14 -8 -30l-259 -583q-20 -46 -63 -46
q-25 0 -41.5 17.5t-16.5 41.5q0 11 7 30l57 130l-186 410q-7 19 -7 30q0 24 17.5 41.5t42.5 17.5q43 0 63 -46l134 -310l137 310q20 46 62 46z" />
    <glyph glyph-name="Ydieresis" unicode="&#x178;" horiz-adv-x="633" 
d="M188 755q-29 0 -49.5 20.5t-20.5 49.5q0 28 21 48.5t49 20.5q29 0 49.5 -20.5t20.5 -48.5q0 -29 -20.5 -49.5t-49.5 -20.5zM444 755q-29 0 -49.5 20.5t-20.5 49.5q0 28 20.5 48.5t49.5 20.5q28 0 49 -20.5t21 -48.5q0 -29 -20.5 -49.5t-49.5 -20.5zM534 703q26 0 44 -18
t18 -43q0 -20 -10 -34l-203 -296v-254q0 -27 -20 -46t-47 -19t-46.5 19t-19.5 46v254l-203 296q-10 14 -10 34q0 26 18 43.5t44 17.5q30 0 49 -25l168 -252l169 252q17 25 49 25z" />
    <glyph glyph-name="Zacute" unicode="&#x179;" horiz-adv-x="590" 
d="M341 954q29 0 48.5 -20t19.5 -48q0 -25 -15 -43l-75 -83q-13 -18 -36 -18q-25 0 -39 18.5t-4 43.5l37 104q17 46 64 46zM448 700q61 0 87.5 -47.5t-9.5 -95.5l-344 -438h308q25 0 42.5 -17.5t17.5 -42.5t-17.5 -42t-42.5 -17h-352q-60 0 -87 47.5t10 95.5l344 438h-285
q-24 0 -42 17.5t-18 41.5q0 25 18 42.5t42 17.5h328z" />
    <glyph glyph-name="zacute" unicode="&#x17a;" horiz-adv-x="500" 
d="M278 774q28 0 48 -20t20 -48q0 -25 -15 -43l-75 -83q-13 -18 -36 -18q-25 0 -39 18.5t-4 43.5l37 104q17 46 64 46zM358 520q39 0 66.5 -24t29 -57t-26.5 -67l-249 -259h225q23 0 40 -16.5t17 -39.5q0 -24 -17 -40.5t-40 -16.5h-269q-62 0 -85.5 50t20.5 100l247 258
h-208q-24 0 -40.5 16t-16.5 40q0 23 17 39.5t40 16.5h250z" />
    <glyph glyph-name="Zdotaccent" unicode="&#x17b;" horiz-adv-x="590" 
d="M303 805q-27 0 -47 20t-20 47q0 28 20 47.5t47 19.5q28 0 48 -19.5t20 -47.5q0 -27 -20 -47t-48 -20zM448 700q61 0 87.5 -47.5t-9.5 -95.5l-344 -438h308q25 0 42.5 -17.5t17.5 -42.5t-17.5 -42t-42.5 -17h-352q-60 0 -87 47.5t10 95.5l344 438h-285q-24 0 -42 17.5
t-18 41.5q0 25 18 42.5t42 17.5h328z" />
    <glyph glyph-name="zdotaccent" unicode="&#x17c;" horiz-adv-x="500" 
d="M240 625q-27 0 -47 20t-20 47q0 28 20 47.5t47 19.5q28 0 48 -19.5t20 -47.5q0 -27 -20 -47t-48 -20zM358 520q39 0 66.5 -24t29 -57t-26.5 -67l-249 -259h225q23 0 40 -16.5t17 -39.5q0 -24 -17 -40.5t-40 -16.5h-269q-62 0 -85.5 50t20.5 100l247 258h-208
q-24 0 -40.5 16t-16.5 40q0 23 17 39.5t40 16.5h250z" />
    <glyph glyph-name="Zcaron" unicode="&#x17d;" horiz-adv-x="590" 
d="M305 792h-4q-21 0 -33.5 7.5t-27.5 26.5l-70 91q-16 21 -8 42t32 21t47 -28l62 -71l61 71q24 28 47 28q24 0 32.5 -21t-7.5 -42l-70 -91q-16 -19 -28.5 -26.5t-32.5 -7.5zM448 700q61 0 87.5 -47.5t-9.5 -95.5l-344 -438h308q25 0 42.5 -17.5t17.5 -42.5t-17.5 -42
t-42.5 -17h-352q-60 0 -87 47.5t10 95.5l344 438h-285q-24 0 -42 17.5t-18 41.5q0 25 18 42.5t42 17.5h328z" />
    <glyph glyph-name="zcaron" unicode="&#x17e;" horiz-adv-x="500" 
d="M242 612h-4q-21 0 -33.5 7.5t-27.5 26.5l-70 91q-16 21 -8 42t32 21t47 -28l62 -71l61 71q24 28 47 28q24 0 32.5 -21t-7.5 -42l-70 -91q-16 -19 -28.5 -26.5t-32.5 -7.5zM358 520q39 0 66.5 -24t29 -57t-26.5 -67l-249 -259h225q23 0 40 -16.5t17 -39.5q0 -24 -17 -40.5
t-40 -16.5h-269q-62 0 -85.5 50t20.5 100l247 258h-208q-24 0 -40.5 16t-16.5 40q0 23 17 39.5t40 16.5h250z" />
    <glyph glyph-name="florin" unicode="&#x192;" horiz-adv-x="356" 
d="M296 520q24 0 38 -14.5t14 -37.5t-14 -37t-38 -14h-51v-438q0 -149 -123 -175q-37 -6 -60 10t-23 44q0 42 41 56q13 4 20.5 11.5t10 23t3 23.5t0.5 34v411h-45q-24 0 -38.5 14t-14.5 37t14.5 37.5t38.5 14.5h45v9q0 150 124 174q37 7 59.5 -9.5t22.5 -44.5
q0 -19 -11.5 -34.5t-29.5 -20.5q-21 -7 -27.5 -24.5t-6.5 -49.5h51z" />
    <glyph glyph-name="uni01CD" unicode="&#x1cd;" horiz-adv-x="714" 
d="M294 826l-70 91q-16 21 -8 42t32 21t47 -28l62 -71l61 71q24 28 47 28q24 0 32.5 -21t-7.5 -42l-70 -91q-16 -19 -28.5 -26.5t-32.5 -7.5h-4q-21 0 -33.5 7.5t-27.5 26.5zM671 95q8 -18 8 -38q0 -25 -19 -43t-46 -18q-47 0 -65 43l-50 118h-284l-50 -118q-18 -43 -64 -43
q-28 0 -47 18t-19 43q0 18 9 38l248 559q21 50 65 50t66 -50zM261 264h192l-96 226z" />
    <glyph glyph-name="uni01CE" unicode="&#x1ce;" 
d="M253 646l-70 91q-16 21 -8 42t32 21t47 -28l62 -71l61 71q24 28 47 28q24 0 32.5 -21t-7.5 -42l-70 -91q-16 -19 -28.5 -26.5t-32.5 -7.5h-4q-21 0 -33.5 7.5t-27.5 26.5zM496 523q26 0 46.5 -19.5t20.5 -45.5v-399q0 -27 -20 -46t-47 -19t-46.5 19t-19.5 46v19
q-7 -29 -48 -57t-100 -28q-43 0 -84.5 16.5t-77.5 48t-58 84.5t-22 118q0 64 22.5 116t58 84t77.5 49t84 17q52 0 92 -24t56 -61v17q0 26 19.5 45.5t46.5 19.5zM306 106q50 0 90 38.5t40 115.5t-40 115.5t-90 38.5q-54 0 -94.5 -41t-40.5 -113q0 -73 40.5 -113.5t94.5 -40.5
z" />
    <glyph glyph-name="uni01CF" unicode="&#x1cf;" horiz-adv-x="257" 
d="M131 792h-4q-21 0 -33.5 7.5t-27.5 26.5l-70 91q-16 21 -8 42t32 21t47 -28l62 -71l61 71q24 28 47 28q24 0 32.5 -21t-7.5 -42l-70 -91q-16 -19 -28.5 -26.5t-32.5 -7.5zM129 703q28 0 48 -20.5t20 -48.5v-572q0 -28 -20 -48.5t-48 -20.5t-48.5 20.5t-20.5 48.5v572
q0 28 20.5 48.5t48.5 20.5z" />
    <glyph glyph-name="uni01D0" unicode="&#x1d0;" horiz-adv-x="281" 
d="M143 612h-4q-21 0 -33.5 7.5t-27.5 26.5l-70 91q-16 21 -8 42t32 21t47 -28l62 -71l61 71q24 28 47 28q24 0 32.5 -21t-7.5 -42l-70 -91q-16 -19 -28.5 -26.5t-32.5 -7.5zM141 523q26 0 45.5 -19.5t19.5 -45.5v-399q0 -26 -19.5 -45.5t-45.5 -19.5q-27 0 -46.5 19.5
t-19.5 45.5v399q0 26 19.5 45.5t46.5 19.5z" />
    <glyph glyph-name="uni01D1" unicode="&#x1d1;" horiz-adv-x="797" 
d="M400 792h-4q-21 0 -33.5 7.5t-27.5 26.5l-70 91q-16 21 -8 42t32 21t47 -28l62 -71l61 71q24 28 47 28q24 0 32.5 -21t-7.5 -42l-70 -91q-16 -19 -28.5 -26.5t-32.5 -7.5zM398 707q137 0 243 -102t106 -255t-106 -255t-243 -102q-88 0 -167.5 44.5t-130 127.5t-50.5 185
t50.5 185t130 127.5t167.5 44.5zM398 579q-85 0 -146 -64.5t-61 -164.5t61 -164.5t146 -64.5q86 0 147 64.5t61 164.5t-61 164.5t-147 64.5z" />
    <glyph glyph-name="uni01D2" unicode="&#x1d2;" horiz-adv-x="614" 
d="M309 612h-4q-21 0 -33.5 7.5t-27.5 26.5l-70 91q-16 21 -8 42t32 21t47 -28l62 -71l61 71q24 28 47 28q24 0 32.5 -21t-7.5 -42l-70 -91q-16 -19 -28.5 -26.5t-32.5 -7.5zM307 526q44 0 90 -17t86 -49t65.5 -84.5t25.5 -116.5t-25.5 -116.5t-65.5 -84t-86 -48.5t-90 -17
q-61 0 -120.5 28t-103 91t-43.5 147t43.5 147t103 91.5t120.5 28.5zM307 412q-56 0 -96.5 -41.5t-40.5 -111.5q0 -69 40.5 -110.5t96.5 -41.5t96.5 41.5t40.5 110.5q0 70 -40.5 111.5t-96.5 41.5z" />
    <glyph glyph-name="uni01D3" unicode="&#x1d3;" horiz-adv-x="688" 
d="M346 792h-4q-21 0 -33.5 7.5t-27.5 26.5l-70 91q-16 21 -8 42t32 21t47 -28l62 -71l61 71q24 28 47 28q24 0 32.5 -21t-7.5 -42l-70 -91q-16 -19 -28.5 -26.5t-32.5 -7.5zM558 703q27 0 46 -19t19 -46v-387q0 -118 -79.5 -188t-199.5 -70t-199.5 70t-79.5 188v387
q0 26 19.5 45.5t46.5 19.5q28 0 48.5 -19.5t20.5 -45.5v-385q0 -74 40.5 -110.5t103.5 -36.5t103.5 36.5t40.5 110.5v385q0 26 21 45.5t49 19.5z" />
    <glyph glyph-name="uni01D4" unicode="&#x1d4;" horiz-adv-x="612" 
d="M308 612h-4q-21 0 -33.5 7.5t-27.5 26.5l-70 91q-16 21 -8 42t32 21t47 -28l62 -71l61 71q24 28 47 28q24 0 32.5 -21t-7.5 -42l-70 -91q-16 -19 -28.5 -26.5t-32.5 -7.5zM250 -7q-83 0 -136.5 58.5t-53.5 180.5v226q0 27 19.5 46t46.5 19q26 0 45.5 -19t19.5 -46v-226
q0 -64 29.5 -95.5t76.5 -31.5q31 0 56 13t38.5 33t20.5 36.5t9 29.5v241q0 27 19.5 46t45.5 19q27 0 46.5 -19t19.5 -46v-397q0 -27 -19.5 -46.5t-46.5 -19.5q-26 0 -45.5 19.5t-19.5 46.5v50q-4 -35 -51.5 -76.5t-119.5 -41.5z" />
    <glyph glyph-name="uni01EA" unicode="&#x1ea;" horiz-adv-x="797" 
d="M747 350q0 -133 -82 -229.5t-200 -120.5h1q-45 -11 -86.5 -37.5t-41.5 -61.5q0 -22 17 -35t41 -13q36 0 36 -29q0 -39 -91 -39q-55 0 -91 22t-36 71q0 58 39 87.5t81 33.5q-118 24 -201 120.5t-83 230.5q0 102 50.5 185t130 127.5t167.5 44.5q137 0 243 -102t106 -255z
M398 121q86 0 147 64.5t61 164.5t-61 164.5t-147 64.5q-85 0 -146 -64.5t-61 -164.5t61 -164.5t146 -64.5z" />
    <glyph glyph-name="uni01EB" unicode="&#x1eb;" horiz-adv-x="614" 
d="M362 -1q-44 -11 -84.5 -37.5t-40.5 -60.5q0 -22 17 -35t41 -13q36 0 36 -29q0 -39 -91 -39q-55 0 -91 22t-36 71q0 43 26.5 73t54 39.5t50.5 9.5h4q-86 20 -147 87t-61 172q0 84 43.5 147t103 91.5t120.5 28.5q44 0 90 -17t86 -49t65.5 -84.5t25.5 -116.5
q0 -105 -63 -173t-149 -87zM170 259q0 -69 40.5 -110.5t96.5 -41.5t96.5 41.5t40.5 110.5q0 70 -40.5 111.5t-96.5 41.5t-96.5 -41.5t-40.5 -111.5z" />
    <glyph glyph-name="Scommaaccent" unicode="&#x218;" horiz-adv-x="572" 
d="M532 200q0 -84 -61 -137.5t-146 -66.5l-77 -146q-21 -39 -68 -39h-6q-23 0 -30.5 15.5t1.5 37.5l46 142q-78 24 -123 81q-28 34 -28 65q0 23 14.5 40t40.5 17q36 0 64 -38q46 -58 120 -58q45 0 80.5 20.5t35.5 66.5q0 37 -25.5 59.5t-86.5 46.5l-42 16q-87 34 -133 77.5
t-46 114.5q0 87 64.5 140t160.5 53q112 0 182 -77q29 -34 29 -60q0 -23 -16 -38.5t-40 -15.5q-29 0 -54 27q-43 45 -96 45q-45 0 -70.5 -20.5t-25.5 -54.5q0 -56 78 -86l39 -15q118 -45 168.5 -93t50.5 -119z" />
    <glyph glyph-name="scommaaccent" unicode="&#x219;" horiz-adv-x="475" 
d="M440 158q0 -63 -41.5 -103.5t-106.5 -53.5l-79 -151q-21 -39 -68 -39h-6q-23 0 -30.5 15.5t1.5 37.5l46 142q-59 18 -94 61q-27 38 -27 63q0 19 12.5 34.5t37.5 15.5q28 0 54 -32q37 -46 95 -46q36 0 56 13.5t20 35.5q0 36 -59 53l-57 17q-143 40 -143 153
q0 71 55.5 111.5t131.5 40.5q52 0 97 -19.5t69 -53.5q16 -24 16 -44q0 -23 -14 -36t-37 -13q-32 0 -55 28q-30 34 -72 34q-29 0 -45.5 -13t-16.5 -34q0 -35 52 -50l61 -18q69 -19 108 -53t39 -96z" />
    <glyph glyph-name="uni021A" unicode="&#x21a;" horiz-adv-x="597" 
d="M508 700q24 0 41.5 -17.5t17.5 -42.5t-17.5 -42t-41.5 -17h-142v-517q0 -17 -7 -30q-1 -14 -12 -34l-79 -151q-21 -39 -68 -39h-6q-23 0 -30.5 15t1.5 38l49 151q8 22 19 33q-2 12 -2 17v517h-141q-24 0 -42 17.5t-18 41.5q0 25 18 42.5t42 17.5h418z" />
    <glyph glyph-name="uni021B" unicode="&#x21b;" horiz-adv-x="382" 
d="M303 112q23 2 36 -11t13 -36q0 -50 -61 -64l-79 -151q-21 -39 -68 -39h-6q-23 0 -30.5 15.5t1.5 37.5l49 150q-56 34 -56 142v261h-29q-24 0 -38.5 14t-14.5 37t14.5 37.5t38.5 14.5h29v68q0 27 19.5 46.5t46.5 19.5t46 -19.5t19 -46.5v-68h66q25 0 39 -14t14 -38
q0 -23 -14.5 -37t-38.5 -14h-66v-265q0 -44 32 -44q5 0 19 2t19 2z" />
    <glyph glyph-name="uni0237" unicode="&#x237;" horiz-adv-x="284" 
d="M158 523q27 0 46.5 -19.5t19.5 -47.5v-507q0 -74 -41.5 -114t-111.5 -40q-44 0 -81 16q-50 27 -50 67q0 29 22.5 47.5t51.5 9.5q2 0 15 -6.5t24 -6.5q40 0 40 62v472q0 28 19.5 47.5t45.5 19.5z" />
    <glyph glyph-name="circumflex" unicode="&#x2c6;" horiz-adv-x="288" 
d="M146 800q20 0 32.5 -7.5t28.5 -26.5l70 -91q16 -21 7.5 -42t-32.5 -21q-23 0 -47 28l-61 71l-62 -71q-23 -28 -47 -28t-32 21t8 42l70 91q15 19 27.5 26.5t33.5 7.5h4z" />
    <glyph glyph-name="caron" unicode="&#x2c7;" horiz-adv-x="288" 
d="M146 612h-4q-21 0 -33.5 7.5t-27.5 26.5l-70 91q-16 21 -8 42t32 21t47 -28l62 -71l61 71q24 28 47 28q24 0 32.5 -21t-7.5 -42l-70 -91q-16 -19 -28.5 -26.5t-32.5 -7.5z" />
    <glyph glyph-name="breve" unicode="&#x2d8;" horiz-adv-x="354" 
d="M301 774q27 0 42 -20.5t8 -47.5q-17 -58 -61.5 -94.5t-112.5 -36.5t-113 36.5t-61 94.5q-8 27 7 47.5t42 20.5q36 0 47 -31q10 -22 31.5 -35.5t46.5 -13.5q24 0 45.5 13.5t31.5 35.5q13 31 47 31z" />
    <glyph glyph-name="dotaccent" unicode="&#x2d9;" horiz-adv-x="145" 
d="M72 625q-27 0 -47 20t-20 47q0 28 20 47.5t47 19.5q28 0 48 -19.5t20 -47.5q0 -27 -20 -47t-48 -20z" />
    <glyph glyph-name="ring" unicode="&#x2da;" horiz-adv-x="218" 
d="M111 807q44 0 75.5 -32t31.5 -76t-32 -76t-75 -32q-46 0 -78.5 32t-32.5 76t32.5 76t78.5 32zM108 729q-11 0 -19 -8.5t-8 -20.5q0 -11 8 -19t19 -8t20 8t9 19q0 12 -9 20.5t-20 8.5z" />
    <glyph glyph-name="ogonek" unicode="&#x2db;" horiz-adv-x="252" 
d="M252 0q-45 -11 -86.5 -37.5t-41.5 -61.5q0 -22 17 -35t41 -13q36 0 36 -29q0 -39 -91 -39q-55 0 -91 22t-36 71q0 43 26.5 73t54 39.5t50.5 9.5h121z" />
    <glyph glyph-name="tilde" unicode="&#x2dc;" horiz-adv-x="420" 
d="M132 744q39 0 97 -34t81 -34q29 0 42 18q11 13 29 13q17 0 27 -13t5 -29q-12 -41 -43 -66.5t-72 -25.5q-42 0 -104 39t-87 39q-27 0 -39 -22q-9 -18 -30 -18q-16 0 -26 12t-6 28q11 42 45 67.5t81 25.5z" />
    <glyph glyph-name="hungarumlaut" unicode="&#x2dd;" horiz-adv-x="429" 
d="M109 774q29 0 48.5 -20t19.5 -48q0 -25 -15 -43l-75 -83q-13 -18 -36 -18q-25 0 -39 18.5t-4 43.5l37 104q17 46 64 46zM308 774q28 0 48 -20t20 -48q0 -25 -15 -43l-75 -83q-13 -18 -36 -18q-25 0 -39 18.5t-4 43.5l37 104q17 46 64 46z" />
    <glyph glyph-name="uni0326" unicode="&#x326;" horiz-adv-x="0" 
d="M-206 -189q-23 0 -30.5 15.5t1.5 37.5l49 151q19 53 69 53h37q62 0 27 -67l-79 -151q-21 -39 -68 -39h-6z" />
    <glyph glyph-name="uni0394" unicode="&#x394;" horiz-adv-x="733" 
d="M381 700l302 -700h-633l302 700h29zM367 488l-153 -375h305z" />
    <glyph glyph-name="uni03A9" unicode="&#x3a9;" horiz-adv-x="794" 
d="M655 125q64 0 64 -62q0 -63 -64 -63h-165v152l32 26q88 71 88 178q0 102 -62.5 161.5t-150.5 59.5t-150 -59.5t-62 -161.5q0 -108 87 -178l32 -26v-152h-165q-64 0 -64 63q0 62 64 62h4q-93 100 -93 231q0 99 51.5 181t130.5 126t165 44t165 -44t130.5 -126t51.5 -181
q0 -131 -93 -231h4z" />
    <glyph glyph-name="uni03BC" unicode="&#x3bc;" horiz-adv-x="617" 
d="M491 523q27 0 46.5 -19t19.5 -46v-397q0 -27 -19.5 -46.5t-46.5 -19.5q-26 0 -45.5 19.5t-19.5 46.5v50q-4 -35 -51.5 -76.5t-119.5 -41.5q-35 0 -64 10v-135q0 -27 -19.5 -46t-45.5 -19q-27 0 -46.5 19t-19.5 46v590q0 26 19.5 45.5t46.5 19.5h2h3q26 0 45.5 -19
t19.5 -46v-226q0 -64 29.5 -95.5t76.5 -31.5q58 0 88.5 38.5t35.5 73.5v241q0 27 19.5 46t45.5 19z" />
    <glyph glyph-name="pi" unicode="&#x3c0;" horiz-adv-x="733" 
d="M613 107h15q24 3 42 -13.5t18 -40.5q0 -20 -11.5 -34.5t-31.5 -19.5q-37 -5 -72 -5q-50 0 -91.5 24.5t-41.5 75.5v314h-157v-350q0 -27 -19 -46t-46 -19t-46.5 19t-19.5 46v350h-50q-24 0 -40.5 16t-16.5 40q0 23 17 39.5t40 16.5h519q23 0 39.5 -16.5t16.5 -39.5
q0 -24 -16.5 -40t-39.5 -16h-50v-246q0 -33 9.5 -44t32.5 -11z" />
    <glyph glyph-name="uni0401" unicode="&#x401;" horiz-adv-x="571" 
d="M157 755q-29 0 -49.5 20.5t-20.5 49.5q0 28 21 48.5t49 20.5q29 0 49.5 -20.5t20.5 -48.5q0 -29 -20.5 -49.5t-49.5 -20.5zM413 755q-29 0 -49.5 20.5t-20.5 49.5q0 28 20.5 48.5t49.5 20.5q28 0 49 -20.5t21 -48.5q0 -29 -20.5 -49.5t-49.5 -20.5zM195 118h281
q24 0 42 -17.5t18 -41.5t-18 -41.5t-42 -17.5h-342q-32 0 -53 21t-21 53v552q0 32 21 53t53 21h332q24 0 42 -17t18 -41q0 -25 -18 -42.5t-42 -17.5h-271v-174h178q25 0 42 -16.5t17 -39.5t-17 -40t-42 -17h-178v-177z" />
    <glyph glyph-name="uni0404" unicode="&#x404;" horiz-adv-x="649" 
d="M541 176q26 0 44.5 -16.5t18.5 -44.5q0 -40 -60 -79q-69 -43 -165 -43q-138 0 -246 102t-108 255q0 102 52 185t132 127.5t168 44.5q95 0 167 -43q60 -39 60 -79q0 -28 -18.5 -44.5t-44.5 -16.5q-25 0 -54 21q-51 34 -108 34q-72 0 -130 -48.5t-76 -123.5h155
q23 0 40 -16.5t17 -39.5q0 -24 -17 -40.5t-40 -16.5h-156q18 -76 76.5 -124.5t131.5 -48.5q56 0 107 34q29 21 54 21z" />
    <glyph glyph-name="uni0407" unicode="&#x407;" horiz-adv-x="257" 
d="M1 755q-29 0 -49.5 20.5t-20.5 49.5q0 28 21 48.5t49 20.5q29 0 49.5 -20.5t20.5 -48.5q0 -29 -20.5 -49.5t-49.5 -20.5zM257 755q-29 0 -49.5 20.5t-20.5 49.5q0 28 20.5 48.5t49.5 20.5q28 0 49 -20.5t21 -48.5q0 -29 -20.5 -49.5t-49.5 -20.5zM129 703q28 0 48 -20.5
t20 -48.5v-572q0 -28 -20 -48.5t-48 -20.5t-48.5 20.5t-20.5 48.5v572q0 28 20.5 48.5t48.5 20.5z" />
    <glyph glyph-name="uni0410" unicode="&#x410;" horiz-adv-x="714" 
d="M671 95q8 -18 8 -38q0 -25 -19 -43t-46 -18q-47 0 -65 43l-50 118h-284l-50 -118q-18 -43 -64 -43q-28 0 -47 18t-19 43q0 18 9 38l248 559q21 50 65 50t66 -50zM261 264h192l-96 226z" />
    <glyph glyph-name="uni0411" unicode="&#x411;" horiz-adv-x="613" 
d="M317 429q116 0 186 -59t70 -155t-70 -155.5t-186 -59.5h-183q-32 0 -53 21t-21 53v557v7v6q0 23 17 39.5t40 16.5h321q23 0 40 -16.5t17 -39.5q0 -24 -16.5 -40t-40.5 -16h-243v-159h122zM310 115q132 0 132 100q0 99 -132 99h-115v-199h115z" />
    <glyph glyph-name="uni0412" unicode="&#x412;" horiz-adv-x="614" 
d="M433 389q141 -53 141 -185q0 -93 -67 -148.5t-191 -55.5h-182q-32 0 -53 21t-21 53v552q0 32 21 53t53 21h172q97 0 158.5 -45.5t61.5 -130.5q0 -100 -93 -135zM195 586v-160h111q41 0 65 22.5t24 59.5t-23.5 57.5t-65.5 20.5h-111zM316 114q65 0 96 28.5t31 73.5
q0 46 -30.5 76.5t-96.5 30.5h-121v-209h121z" />
    <glyph glyph-name="uni0413" unicode="&#x413;" horiz-adv-x="557" 
d="M465 700q23 0 40 -16.5t17 -39.5q0 -24 -16.5 -40t-40.5 -16h-274v-529q0 -26 -19.5 -45.5t-45.5 -19.5q-27 0 -46.5 19.5t-19.5 45.5v567q0 32 21 53t53 21h331z" />
    <glyph glyph-name="uni0414" unicode="&#x414;" horiz-adv-x="880" 
d="M727 113h49q32 0 53 -21.5t21 -53.5v-79q0 -32 -22 -53.5t-51 -21.5q-30 0 -52 21.5t-22 53.5v41h-526v-41q0 -32 -22 -53.5t-51 -21.5q-30 0 -52 21.5t-22 53.5v79q0 32 21 53.5t53 21.5h35q13 14 21 51.5t11 106.5t3.5 117.5t0.5 143.5v28v66q0 32 21 53t53 21h403
q32 0 53.5 -21t21.5 -53v-513zM268 113h328v475h-290v-28q0 -280 -10 -358q-9 -70 -28 -89z" />
    <glyph glyph-name="uni0415" unicode="&#x415;" horiz-adv-x="571" 
d="M195 118h281q24 0 42 -17.5t18 -41.5t-18 -41.5t-42 -17.5h-342q-32 0 -53 21t-21 53v552q0 32 21 53t53 21h332q24 0 42 -17t18 -41q0 -25 -18 -42.5t-42 -17.5h-271v-174h178q25 0 42 -16.5t17 -39.5t-17 -40t-42 -17h-178v-177z" />
    <glyph glyph-name="uni0416" unicode="&#x416;" horiz-adv-x="1103" 
d="M1058 92q15 -17 15 -40q0 -24 -17.5 -41.5t-42.5 -17.5q-26 0 -44 20l-244 276l-106 -110v-119q0 -27 -19.5 -47t-47.5 -20h-1q-28 0 -47.5 20t-19.5 47v119l-106 110l-244 -276q-18 -20 -44 -20q-25 0 -42.5 17.5t-17.5 41.5q0 23 15 40l249 284l-223 232q-14 18 -14 39
q0 25 18 42.5t43 17.5q27 0 48 -23l318 -325v280q0 28 19.5 48t47.5 20h1q28 0 47.5 -20t19.5 -48v-280l318 325q21 23 48 23q25 0 43 -17.5t18 -42.5q0 -21 -14 -39l-223 -232z" />
    <glyph glyph-name="uni0417" unicode="&#x417;" horiz-adv-x="575" 
d="M277 707q93 0 161 -56t68 -134q0 -59 -41.5 -100.5t-98.5 -51.5q62 -1 115.5 -46t53.5 -122q0 -88 -74.5 -147.5t-183.5 -59.5q-81 0 -141 35t-89 96q-14 29 0 60t50 31q22 0 40 -11.5t25 -27.5q39 -69 119 -69q23 0 47 6t48 28.5t24 58.5q0 87 -118 104q-24 2 -39 19
t-15 39q0 21 15 38t38 19q49 7 70 34.5t21 58.5q0 38 -28.5 61t-64.5 23q-67 0 -96 -65q-19 -44 -65 -44q-35 0 -50 27t-5 58q24 65 82 101.5t132 36.5z" />
    <glyph glyph-name="uni0418" unicode="&#x418;" horiz-adv-x="700" 
d="M129 703q28 0 48 -20.5t20 -48.5v-393l310 423q28 39 69 39q28 0 46 -17t18 -48v-575q0 -28 -20.5 -48.5t-49.5 -20.5q-28 0 -47.5 20.5t-19.5 48.5v393l-310 -422q-29 -40 -70 -40q-27 0 -45 17.5t-18 48.5v574q0 28 20 48.5t49 20.5z" />
    <glyph glyph-name="uni0419" unicode="&#x419;" horiz-adv-x="700" 
d="M475 954q27 0 42 -20.5t8 -47.5q-17 -58 -61.5 -94.5t-112.5 -36.5t-113 36.5t-61 94.5q-8 27 7 47.5t42 20.5q36 0 47 -31q10 -22 31.5 -35.5t46.5 -13.5q24 0 45.5 13.5t31.5 35.5q13 31 47 31zM129 703q28 0 48 -20.5t20 -48.5v-393l310 423q28 39 69 39q28 0 46 -17
t18 -48v-575q0 -28 -20.5 -48.5t-49.5 -20.5q-28 0 -47.5 20.5t-19.5 48.5v393l-310 -422q-29 -40 -70 -40q-27 0 -45 17.5t-18 48.5v574q0 28 20 48.5t49 20.5z" />
    <glyph glyph-name="uni041A" unicode="&#x41a;" horiz-adv-x="679" 
d="M634 92q15 -17 15 -40q0 -24 -17.5 -41.5t-42.5 -17.5q-26 0 -44 20l-244 276l-106 -110v-118q0 -28 -20 -48t-48 -20t-47.5 20t-19.5 47v579q0 28 19.5 48t47.5 20t48 -20t20 -48v-280l318 325q21 23 48 23q25 0 43 -17.5t18 -42.5q0 -21 -14 -39l-223 -232z" />
    <glyph glyph-name="uni041B" unicode="&#x41b;" horiz-adv-x="757" 
d="M623 700q32 0 53 -21t21 -53v-567q0 -26 -19.5 -45.5t-46.5 -19.5q-26 0 -45.5 19.5t-19.5 45.5v529h-299v-436q0 -91 -37.5 -124.5t-106.5 -33.5q-49 0 -78.5 16.5t-29.5 49.5q0 27 18 42t40 13q1 0 13 -2t19 -2q31 0 31 46v469q0 32 21 53t53 21h413z" />
    <glyph glyph-name="uni041C" unicode="&#x41c;" horiz-adv-x="871" 
d="M749 703q25 0 43.5 -16.5t18.5 -46.5v-574q0 -28 -20.5 -48.5t-49.5 -20.5q-28 0 -48 20.5t-20 48.5v336l-179 -337q-21 -38 -59 -38q-37 0 -58 38l-180 337v-336q0 -28 -19.5 -48.5t-47.5 -20.5q-29 0 -49.5 20.5t-20.5 48.5v574q0 30 18.5 46.5t43.5 16.5q42 0 68 -45
l245 -441l246 441q26 45 68 45z" />
    <glyph glyph-name="uni041D" unicode="&#x41d;" horiz-adv-x="691" 
d="M497 635q0 28 20 48t48 20t47 -20t19 -48v-570q0 -28 -19 -48t-47 -20t-48 20t-20 48v222h-302v-222q0 -28 -19.5 -48t-47.5 -20t-48 20t-20 48v570q0 28 20 48t48 20t47.5 -20t19.5 -48v-233h302v233z" />
    <glyph glyph-name="uni041E" unicode="&#x41e;" horiz-adv-x="797" 
d="M398 707q137 0 243 -102t106 -255t-106 -255t-243 -102q-88 0 -167.5 44.5t-130 127.5t-50.5 185t50.5 185t130 127.5t167.5 44.5zM398 579q-85 0 -146 -64.5t-61 -164.5t61 -164.5t146 -64.5q86 0 147 64.5t61 164.5t-61 164.5t-147 64.5z" />
    <glyph glyph-name="uni041F" unicode="&#x41f;" horiz-adv-x="709" 
d="M575 700q32 0 53 -21t21 -53v-567q0 -26 -19.5 -45.5t-45.5 -19.5q-27 0 -46.5 19.5t-19.5 45.5v529h-327v-529q0 -26 -19.5 -45.5t-45.5 -19.5q-27 0 -46.5 19.5t-19.5 45.5v567q0 32 21 53t53 21h441z" />
    <glyph glyph-name="uni0420" unicode="&#x420;" horiz-adv-x="608" 
d="M317 700q115 0 185.5 -65t70.5 -162q0 -98 -70.5 -161.5t-185.5 -63.5h-122v-187q0 -28 -19.5 -48t-47.5 -20t-48 20t-20 48v565q0 32 21 53t53 21h183zM311 363q131 0 131 110q0 112 -131 112h-116v-222h116z" />
    <glyph glyph-name="uni0421" unicode="&#x421;" horiz-adv-x="664" 
d="M566 176q26 0 44.5 -16.5t18.5 -44.5q0 -40 -60 -79q-69 -43 -165 -43q-138 0 -246 102t-108 255q0 102 52 185t132 127.5t168 44.5q95 0 167 -43q60 -39 60 -79q0 -28 -18.5 -44.5t-44.5 -16.5q-25 0 -54 21q-51 34 -108 34q-86 0 -149.5 -67t-63.5 -162
q0 -96 63.5 -162.5t150.5 -66.5q56 0 107 34q29 21 54 21z" />
    <glyph glyph-name="uni0422" unicode="&#x422;" horiz-adv-x="597" 
d="M508 700q24 0 41.5 -17.5t17.5 -42.5t-17.5 -42t-41.5 -17h-142v-517q0 -29 -20 -50t-47 -21q-28 0 -48 21t-20 50v517h-141q-24 0 -42 17.5t-18 41.5q0 25 18 42.5t42 17.5h418z" />
    <glyph glyph-name="uni0423" unicode="&#x423;" horiz-adv-x="649" 
d="M499 675q16 32 52 32q25 0 43 -17.5t18 -43.5q0 -16 -7 -30l-324 -589q-17 -33 -52 -33q-25 0 -43 18t-18 43q0 15 7 29l80 145l-211 387q-7 14 -7 30q0 26 17.5 43.5t43.5 17.5q36 0 52 -32l174 -319z" />
    <glyph glyph-name="uni0424" unicode="&#x424;" horiz-adv-x="841" 
d="M801 350q0 -117 -89.5 -196.5t-226.5 -87.5v-8q0 -27 -19.5 -46t-46.5 -19q-26 0 -45.5 19t-19.5 46v8q-136 8 -225 87.5t-89 196.5t89 196.5t225 87.5v8q0 27 19.5 46t45.5 19q27 0 46.5 -19t19.5 -46v-8q137 -8 226.5 -87.5t89.5 -196.5zM485 179q55 3 93 19.5t57 42.5
t27 52t8 57t-8 57.5t-27 52.5t-57 42.5t-93 19.5v-343zM171 350q0 -31 7.5 -57t26.5 -52t57 -42.5t92 -19.5v343q-54 -3 -92 -19.5t-57 -43t-26.5 -52.5t-7.5 -57z" />
    <glyph glyph-name="uni0425" unicode="&#x425;" horiz-adv-x="649" 
d="M589 98q15 -22 15 -46q0 -26 -17.5 -42.5t-45.5 -16.5q-36 0 -56 29l-160 230l-161 -230q-20 -29 -55 -29q-28 0 -46 16.5t-18 42.5q0 24 15 46l189 261l-173 239q-15 22 -15 46q0 26 17.5 42.5t45.5 16.5q36 0 56 -29l145 -207l144 207q20 29 56 29q28 0 46 -16.5
t18 -42.5q0 -25 -16 -46l-173 -239z" />
    <glyph glyph-name="uni0426" unicode="&#x426;" horiz-adv-x="798" 
d="M694 113q32 0 53 -21.5t21 -53.5v-62q0 -27 -18.5 -46.5t-45.5 -19.5q-28 0 -47 19.5t-19 46.5v24h-504q-32 0 -53 21t-21 53v567q0 26 19.5 45.5t46.5 19.5q26 0 45.5 -19.5t19.5 -45.5v-529h236v1h91v528q0 26 19.5 45.5t46.5 19.5q26 0 45.5 -19.5t19.5 -45.5v-528h45
z" />
    <glyph glyph-name="uni0427" unicode="&#x427;" horiz-adv-x="632" 
d="M441 638q0 26 19.5 45.5t45.5 19.5q27 0 46.5 -19.5t19.5 -45.5v-579q0 -26 -19.5 -45.5t-46.5 -19.5q-26 0 -45.5 19.5t-19.5 45.5v240q-13 -30 -60 -59t-119 -29q-96 0 -156.5 52.5t-60.5 164.5v210q0 26 19.5 45.5t46.5 19.5q26 0 45.5 -19.5t19.5 -45.5v-210
q0 -56 33 -81t81 -25q92 0 151 101v215z" />
    <glyph glyph-name="uni0428" unicode="&#x428;" horiz-adv-x="1107" 
d="M982 706q26 0 45.5 -19t19.5 -46v-567q0 -32 -21 -53t-53 -21h-839q-32 0 -53 21t-21 53v567q0 27 19.5 46t46.5 19q26 0 45.5 -19t19.5 -46v-528h297v528q0 27 19.5 46t46.5 19q26 0 45.5 -19t19.5 -46v-528h297v528q0 27 19.5 46t46.5 19z" />
    <glyph glyph-name="uni0429" unicode="&#x429;" horiz-adv-x="1196" 
d="M1092 113q32 0 53 -21.5t21 -53.5v-62q0 -27 -18.5 -46.5t-45.5 -19.5q-28 0 -47 19.5t-19 46.5v24h-902q-32 0 -53 21t-21 53v567q0 27 19.5 46t46.5 19q26 0 45.5 -19t19.5 -46v-528h297v528q0 27 19.5 46t46.5 19q26 0 45.5 -19t19.5 -46v-528h297v528q0 27 19.5 46
t46.5 19q26 0 45.5 -19t19.5 -46v-528h45z" />
    <glyph glyph-name="uni042A" unicode="&#x42a;" horiz-adv-x="718" 
d="M421 452q115 0 185.5 -63.5t70.5 -161.5q0 -97 -70.5 -162t-185.5 -65h-183q-32 0 -53 21t-21 53v521h-87q-24 0 -40.5 16t-16.5 40q0 23 17 39.5t40 16.5h155q28 0 47.5 -20t19.5 -48v-187h122zM415 115q131 0 131 112q0 110 -131 110h-116v-222h116z" />
    <glyph glyph-name="uni042B" unicode="&#x42b;" horiz-adv-x="906" 
d="M317 452q115 0 185.5 -63.5t70.5 -161.5q0 -97 -70.5 -162t-185.5 -65h-183q-32 0 -53 21t-21 53v565q0 28 20 48t48 20t47.5 -20t19.5 -48v-187h122zM777 703q28 0 48 -20.5t20 -48.5v-572q0 -28 -20 -48.5t-48 -20.5t-48.5 20.5t-20.5 48.5v572q0 28 20.5 48.5
t48.5 20.5zM311 115q131 0 131 112q0 110 -131 110h-116v-222h116z" />
    <glyph glyph-name="uni042C" unicode="&#x42c;" horiz-adv-x="608" 
d="M317 452q115 0 185.5 -63.5t70.5 -161.5q0 -97 -70.5 -162t-185.5 -65h-183q-32 0 -53 21t-21 53v565q0 28 20 48t48 20t47.5 -20t19.5 -48v-187h122zM311 115q131 0 131 112q0 110 -131 110h-116v-222h116z" />
    <glyph glyph-name="uni042D" unicode="&#x42d;" horiz-adv-x="649" 
d="M252 707q88 0 168 -44.5t132 -127.5t52 -185q0 -153 -108 -255t-246 -102q-96 0 -165 43q-60 39 -60 79q0 28 18.5 44.5t44.5 16.5q25 0 54 -21q51 -34 107 -34q73 0 131.5 48.5t76.5 124.5h-156q-23 0 -40 16.5t-17 40.5q0 23 17 39.5t40 16.5h155q-18 75 -76 123.5
t-130 48.5q-57 0 -108 -34q-29 -21 -54 -21q-26 0 -44.5 16.5t-18.5 44.5q0 40 60 79q72 43 167 43z" />
    <glyph glyph-name="uni042E" unicode="&#x42e;" horiz-adv-x="1030" 
d="M632 707q137 0 243 -102t106 -255t-106 -255t-243 -102q-80 0 -153 37t-125 107t-66 157h-91v-232q0 -28 -20 -48.5t-48 -20.5t-48.5 20.5t-20.5 48.5v572q0 28 20.5 48.5t48.5 20.5t48 -20.5t20 -48.5v-227h91q14 87 66 156.5t125 106.5t153 37zM632 121q86 0 147 64.5
t61 164.5t-61 164.5t-147 64.5q-85 0 -146 -64.5t-61 -164.5t61 -164.5t146 -64.5z" />
    <glyph glyph-name="uni042F" unicode="&#x42f;" horiz-adv-x="622" 
d="M488 700q32 0 53 -21t21 -53v-565q0 -28 -20 -48t-48 -20t-47.5 20t-19.5 48v187h-99l-177 -226q-18 -25 -50 -25q-26 0 -43.5 18.5t-17.5 44.5q0 21 16 41l138 166q-68 26 -106.5 80.5t-38.5 125.5q0 97 70.5 162t185.5 65h183zM311 363h116v222h-116q-131 0 -131 -112
q0 -110 131 -110z" />
    <glyph glyph-name="uni0430" unicode="&#x430;" 
d="M496 523q26 0 46.5 -19.5t20.5 -45.5v-399q0 -27 -20 -46t-47 -19t-46.5 19t-19.5 46v19q-7 -29 -48 -57t-100 -28q-43 0 -84.5 16.5t-77.5 48t-58 84.5t-22 118q0 64 22.5 116t58 84t77.5 49t84 17q52 0 92 -24t56 -61v17q0 26 19.5 45.5t46.5 19.5zM306 106
q50 0 90 38.5t40 115.5t-40 115.5t-90 38.5q-54 0 -94.5 -41t-40.5 -113q0 -73 40.5 -113.5t94.5 -40.5z" />
    <glyph glyph-name="uni0431" unicode="&#x431;" horiz-adv-x="622" 
d="M340 526q42 0 84 -17t77.5 -49t58 -84t22.5 -116q0 -65 -22 -118t-58 -84.5t-77.5 -48t-84.5 -16.5q-59 0 -100 28t-48 57v-19q0 -27 -19.5 -46t-46.5 -19t-47 19t-20 46v399q0 5 2 15v47q0 92 51 136t156 44h38q74 0 96 13q28 15 41 15q22 0 35.5 -15.5t13.5 -36.5
q0 -32 -21 -51q-37 -37 -131 -37h-72q-76 0 -76 -68v-79q16 37 56 61t92 24zM316 106q54 0 94.5 40.5t40.5 113.5q0 72 -40.5 113t-94.5 41q-50 0 -90 -38.5t-40 -115.5t40 -115.5t90 -38.5z" />
    <glyph glyph-name="uni0432" unicode="&#x432;" horiz-adv-x="582" 
d="M440 288q107 -40 107 -134q0 -78 -63 -116t-168 -38h-182q-32 0 -53 21t-21 53v372q0 32 21 53t53 21h182q85 0 137.5 -35.5t52.5 -99.5q0 -72 -66 -97zM191 414v-86h123q61 0 61 44q0 42 -61 42h-123zM316 106q99 0 99 61t-99 61h-125v-122h125z" />
    <glyph glyph-name="uni0433" unicode="&#x433;" horiz-adv-x="506" 
d="M419 520q23 0 40 -16.5t17 -39.5q0 -24 -16.5 -40t-40.5 -16h-228v-349q0 -26 -19.5 -45.5t-45.5 -19.5q-27 0 -46.5 19.5t-19.5 45.5v387q0 32 21 53t53 21h285z" />
    <glyph glyph-name="uni0434" unicode="&#x434;" horiz-adv-x="705" 
d="M606 113q32 0 53 -21.5t21 -53.5v-67q0 -27 -19 -46.5t-46 -19.5t-46.5 19.5t-19.5 46.5v29h-393v-29q0 -27 -19.5 -46.5t-45.5 -19.5q-27 0 -46.5 19.5t-19.5 46.5v67q0 32 21 53.5t53 21.5h1q27 77 27 240v93q0 32 21 53t53 21h331q32 0 53 -21t21 -53v-333zM258 353
q0 -162 -26 -240h243v295h-217v-55z" />
    <glyph glyph-name="uni0435" unicode="&#x435;" horiz-adv-x="595" 
d="M303 526q94 0 173 -68t79 -177q0 -38 -20.5 -54t-61.5 -16l-297 2q9 -53 48 -82.5t95 -29.5q35 0 83 21q36 16 49 16q20 0 32.5 -13t12.5 -32q0 -28 -32 -55q-61 -43 -150 -43q-70 0 -130.5 27t-102 89t-41.5 148q0 64 25 117t64 84.5t84.5 48.5t89.5 17zM303 412
q-47 0 -84 -27.5t-43 -81.5h250q-7 54 -41.5 81.5t-81.5 27.5z" />
    <glyph glyph-name="uni0436" unicode="&#x436;" horiz-adv-x="834" 
d="M793 98q17 -17 17 -43q0 -25 -18 -43t-43 -18q-28 0 -44 19l-170 178l-52 -54v-78q0 -27 -19 -46t-46 -19h-1q-27 0 -46 19t-19 46v78l-52 54l-170 -178q-16 -19 -44 -19q-25 0 -43 18t-18 43q0 26 17 43l174 178l-143 145q-18 16 -18 41t18 43t43 18q26 0 43 -19
l193 -194v148v2q1 25 20 44t45 19h1q26 0 45 -19t20 -44v-2v-148l193 194q17 19 43 19q25 0 43 -18t18 -43t-18 -41l-143 -145z" />
    <glyph glyph-name="uni0437" unicode="&#x437;" horiz-adv-x="534" 
d="M259 525q81 0 142 -40.5t61 -100.5q0 -45 -28.5 -71t-59.5 -35q15 -3 31.5 -10t38.5 -21t36 -39t14 -57q0 -72 -68.5 -115t-161.5 -43q-149 0 -216 114q-16 29 -2.5 59.5t49.5 30.5q39 0 53 -28q40 -66 119 -66q37 0 67 15t29 46q-2 23 -25.5 39.5t-66.5 18.5
q-24 1 -39 14t-15 35q0 21 14 35t38 15q62 6 62 47q0 18 -15.5 29.5t-31 14.5t-30.5 3q-63 0 -98 -54q-14 -21 -46 -21q-37 0 -50 32t5 61q28 42 80.5 67t113.5 25z" />
    <glyph glyph-name="uni0438" unicode="&#x438;" horiz-adv-x="631" 
d="M409 485q26 36 65 41t68 -20.5t29 -70.5v-377q0 -27 -19.5 -46t-45.5 -19q-27 0 -46.5 19t-19.5 46v273l-218 -296q-26 -36 -65 -41t-68 20.5t-29 70.5v377q0 27 19.5 46t46.5 19q26 0 45.5 -19t19.5 -46v-273z" />
    <glyph glyph-name="uni0439" unicode="&#x439;" horiz-adv-x="631" 
d="M440 774q27 0 42 -20.5t8 -47.5q-17 -58 -61.5 -94.5t-112.5 -36.5t-113 36.5t-61 94.5q-8 27 7 47.5t42 20.5q36 0 47 -31q10 -22 31.5 -35.5t46.5 -13.5q24 0 45.5 13.5t31.5 35.5q13 31 47 31zM409 485q26 36 65 41t68 -20.5t29 -70.5v-377q0 -27 -19.5 -46t-45.5 -19
q-27 0 -46.5 19t-19.5 46v273l-218 -296q-26 -36 -65 -41t-68 20.5t-29 70.5v377q0 27 19.5 46t46.5 19q26 0 45.5 -19t19.5 -46v-273z" />
    <glyph glyph-name="uni043A" unicode="&#x43a;" horiz-adv-x="543" 
d="M501 98q17 -17 17 -43q0 -25 -18 -43t-43 -18q-28 0 -44 19l-170 178l-52 -54v-77q0 -27 -19.5 -46.5t-45.5 -19.5q-27 0 -46.5 19.5t-19.5 45.5v399q0 26 19.5 45.5t46.5 19.5q26 0 45.5 -19.5t19.5 -45.5v-148l193 194q17 19 43 19q25 0 43 -18t18 -43t-18 -41
l-143 -145z" />
    <glyph glyph-name="uni043B" unicode="&#x43b;" horiz-adv-x="683" 
d="M549 520q32 0 53 -21t21 -53v-387q0 -27 -19.5 -46t-45.5 -19q-27 0 -46.5 19t-19.5 46v349h-237v-253q0 -92 -38.5 -126.5t-101.5 -34.5q-100 0 -100 62q0 25 17.5 39.5t41.5 11.5h15q35 0 35 50v289q0 32 21 53t53 21h351z" />
    <glyph glyph-name="uni043C" unicode="&#x43c;" horiz-adv-x="837" 
d="M571 463q26 49 76 59.5t90 -19.5t40 -85v-359q0 -26 -19.5 -45.5t-46.5 -19.5t-46 19.5t-19 45.5v271l-164 -301q-18 -35 -63.5 -35t-64.5 35l-163 301v-271q0 -26 -19.5 -45.5t-45.5 -19.5q-27 0 -46.5 19.5t-19.5 45.5v359q0 55 39.5 85t89.5 19.5t76 -59.5l153 -280z
" />
    <glyph glyph-name="uni043D" unicode="&#x43d;" horiz-adv-x="599" 
d="M408 458q0 26 19 45.5t46 19.5t46.5 -19.5t19.5 -45.5v-399q0 -26 -19.5 -45.5t-46.5 -19.5t-46 19.5t-19 45.5v145h-217v-145q0 -26 -19.5 -45.5t-45.5 -19.5q-27 0 -46.5 19.5t-19.5 45.5v399q0 26 19.5 45.5t46.5 19.5q26 0 45.5 -19.5t19.5 -45.5v-141h217v141z" />
    <glyph glyph-name="uni043E" unicode="&#x43e;" horiz-adv-x="614" 
d="M307 526q44 0 90 -17t86 -49t65.5 -84.5t25.5 -116.5t-25.5 -116.5t-65.5 -84t-86 -48.5t-90 -17q-61 0 -120.5 28t-103 91t-43.5 147t43.5 147t103 91.5t120.5 28.5zM307 412q-56 0 -96.5 -41.5t-40.5 -111.5q0 -69 40.5 -110.5t96.5 -41.5t96.5 41.5t40.5 110.5
q0 70 -40.5 111.5t-96.5 41.5z" />
    <glyph glyph-name="uni043F" unicode="&#x43f;" horiz-adv-x="619" 
d="M485 520q32 0 53 -21t21 -53v-387q0 -26 -19.5 -45.5t-45.5 -19.5q-27 0 -46.5 19.5t-19.5 45.5v349h-237v-349q0 -26 -19.5 -45.5t-45.5 -19.5q-27 0 -46.5 19.5t-19.5 45.5v387q0 32 21 53t53 21h351z" />
    <glyph glyph-name="uni0440" unicode="&#x440;" 
d="M341 526q42 0 84 -17t77.5 -49t58 -84t22.5 -116q0 -65 -22 -118t-58 -84.5t-77.5 -48t-84.5 -16.5q-59 0 -100 28t-48 57v-19q0 -8 -1 -11v-180q0 -27 -19.5 -46t-46.5 -19t-46.5 19t-19.5 46v590q0 26 20.5 45.5t46.5 19.5q27 0 46.5 -19.5t19.5 -45.5v-17q16 37 56 61
t92 24zM317 106q54 0 94.5 40.5t40.5 113.5q0 72 -40.5 113t-94.5 41q-50 0 -90 -38.5t-40 -115.5t40 -115.5t90 -38.5z" />
    <glyph glyph-name="uni0441" unicode="&#x441;" horiz-adv-x="540" 
d="M447 161q21 0 37 -14t16 -36q0 -8 -2 -15t-4.5 -12t-7.5 -10.5t-7.5 -8.5t-8.5 -8t-7 -6q-64 -56 -156 -56q-47 0 -93 17t-85.5 48.5t-64 83.5t-24.5 116q0 85 42.5 147.5t101.5 90.5t123 28q94 0 156 -55q2 -2 8.5 -8t10 -10t8.5 -11t7.5 -15t2.5 -17q0 -22 -16 -36
t-37 -14q-27 0 -51 21q-32 31 -84 31q-61 0 -101.5 -40.5t-40.5 -111.5q0 -70 40.5 -110.5t101.5 -40.5q52 0 84 31q24 21 51 21z" />
    <glyph glyph-name="uni0442" unicode="&#x442;" horiz-adv-x="489" 
d="M403 520q23 0 39.5 -16.5t16.5 -39.5q0 -24 -16.5 -40t-39.5 -16h-93v-349q0 -26 -19 -45.5t-46 -19.5t-46.5 19.5t-19.5 45.5v349h-92q-24 0 -40.5 16t-16.5 40q0 23 17 39.5t40 16.5h316z" />
    <glyph glyph-name="uni0443" unicode="&#x443;" horiz-adv-x="577" 
d="M486 523q26 0 43.5 -17.5t17.5 -41.5q0 -14 -8 -30l-259 -583q-20 -46 -63 -46q-25 0 -41.5 17.5t-16.5 41.5q0 11 7 30l57 130l-186 410q-7 19 -7 30q0 24 17.5 41.5t42.5 17.5q43 0 63 -46l134 -310l137 310q20 46 62 46z" />
    <glyph glyph-name="uni0444" unicode="&#x444;" horiz-adv-x="993" 
d="M711 526q42 0 84 -17t77.5 -49t58 -84t22.5 -116q0 -65 -22 -118t-58 -84.5t-77.5 -48t-84.5 -16.5q-59 0 -100 28t-48 57v-19q0 -8 -1 -11v-180q0 -27 -19.5 -46t-46.5 -19t-46.5 19t-19.5 46v211q-16 -37 -56 -61t-92 -24q-42 0 -84 17t-77.5 49t-58 84t-22.5 116
q0 65 22 118t58 84.5t77.5 48t84.5 16.5q59 0 100 -28t48 -57v19q0 8 1 11v180q0 27 19.5 46t46.5 19t46.5 -19t19.5 -46v-211q16 37 56 61t92 24zM306 106q39 0 75 25.5t49 76.5v104q-13 51 -49 76.5t-75 25.5q-54 0 -94.5 -40.5t-40.5 -113.5q0 -72 40.5 -113t94.5 -41z
M687 106q54 0 94.5 40.5t40.5 113.5q0 72 -40.5 113t-94.5 41q-39 0 -75 -25.5t-49 -76.5v-104q13 -51 49 -76.5t75 -25.5z" />
    <glyph glyph-name="uni0445" unicode="&#x445;" horiz-adv-x="530" 
d="M481 88q14 -16 14 -35q0 -24 -18 -41t-42 -17q-25 0 -46 24l-124 154l-124 -154q-21 -24 -46 -24q-24 0 -42 17t-18 41q0 19 13 35l144 172l-142 170q-13 16 -13 35q0 24 18 41t42 17q28 0 46 -24l122 -151l122 151q19 24 46 24q23 0 41 -17t18 -41q0 -21 -13 -35
l-141 -170z" />
    <glyph glyph-name="uni0446" unicode="&#x446;" horiz-adv-x="689" 
d="M585 113q32 0 53 -21.5t21 -53.5v-62q0 -27 -18.5 -46.5t-45.5 -19.5q-28 0 -47 19.5t-19 46.5v24h-395q-32 0 -53 21t-21 53v387q0 26 19.5 45.5t46.5 19.5q26 0 45.5 -19.5t19.5 -45.5v-349h117v1h120v348q0 26 19.5 45.5t46.5 19.5q26 0 45.5 -19.5t19.5 -45.5v-348
h26z" />
    <glyph glyph-name="uni0447" unicode="&#x447;" horiz-adv-x="602" 
d="M411 458q0 26 19.5 45.5t46.5 19.5q26 0 45.5 -19.5t19.5 -45.5v-399q0 -26 -19.5 -45.5t-45.5 -19.5q-27 0 -46.5 19.5t-19.5 45.5v174q-1 -10 -9.5 -24t-24.5 -31t-47.5 -29t-71.5 -12q-91 0 -152 59t-61 164v98q0 26 19.5 45.5t46.5 19.5q26 0 45.5 -19.5t19.5 -45.5
v-99q0 -45 24.5 -75.5t77.5 -30.5q55 0 93 33.5t40 83.5v88z" />
    <glyph glyph-name="uni0448" unicode="&#x448;" horiz-adv-x="839" 
d="M648 462q0 27 19.5 46t46.5 19q26 0 45.5 -19t19.5 -46v-388q0 -32 -21 -53t-53 -21h-571q-32 0 -53 21t-21 53v388q0 27 19.5 46t46.5 19q26 0 45.5 -19t19.5 -46v-349h163v349q0 27 19.5 46t46.5 19q26 0 45.5 -19t19.5 -46v-349h163v349z" />
    <glyph glyph-name="uni0449" unicode="&#x449;" horiz-adv-x="909" 
d="M805 113q32 0 53 -21.5t21 -53.5v-62q0 -27 -18.5 -46.5t-45.5 -19.5q-28 0 -47 19.5t-19 46.5v24h-615q-32 0 -53 21t-21 53v388q0 27 19.5 46t46.5 19q26 0 45.5 -19t19.5 -46v-349h163v349q0 27 19.5 46t46.5 19q26 0 45.5 -19t19.5 -46v-349h163v349q0 27 19.5 46
t46.5 19q26 0 45.5 -19t19.5 -46v-349h26z" />
    <glyph glyph-name="uni044A" unicode="&#x44a;" horiz-adv-x="683" 
d="M441 332q94 0 150.5 -42.5t56.5 -121.5q0 -78 -57 -123t-150 -45h-222q-32 0 -53 21t-21 53v337h-53q-24 0 -40.5 16t-16.5 40q0 23 17 39.5t40 16.5h117h2q26 0 45.5 -19.5t19.5 -45.5v-126h165zM441 113q76 0 76 55q0 51 -76 51h-165v-106h165z" />
    <glyph glyph-name="uni044B" unicode="&#x44b;" horiz-adv-x="822" 
d="M356 332q94 0 150.5 -42.5t56.5 -121.5q0 -78 -57 -123t-150 -45h-222q-32 0 -53 21t-21 53v384q0 26 19.5 45.5t46.5 19.5q26 0 45.5 -19.5t19.5 -45.5v-126h165zM696 523q27 0 46.5 -19.5t19.5 -45.5v-399q0 -26 -19.5 -45.5t-46.5 -19.5t-46 19.5t-19 45.5v399
q0 26 19 45.5t46 19.5zM356 113q76 0 76 55q0 51 -76 51h-165v-106h165z" />
    <glyph glyph-name="uni044C" unicode="&#x44c;" horiz-adv-x="598" 
d="M356 332q94 0 150.5 -42.5t56.5 -121.5q0 -78 -57 -123t-150 -45h-222q-32 0 -53 21t-21 53v384q0 26 19.5 45.5t46.5 19.5q26 0 45.5 -19.5t19.5 -45.5v-126h165zM356 113q76 0 76 55q0 51 -76 51h-165v-106h165z" />
    <glyph glyph-name="uni044D" unicode="&#x44d;" horiz-adv-x="540" 
d="M233 526q64 0 123 -28t101.5 -90.5t42.5 -147.5q0 -64 -24.5 -116t-64 -83.5t-85.5 -48.5t-93 -17q-92 0 -156 56q-1 1 -7 6t-8.5 8t-7.5 8.5t-7.5 10.5t-4.5 12t-2 15q0 22 16 36t37 14q27 0 51 -21q32 -31 84 -31q48 0 84 25t50 71h-106q-25 0 -40.5 14.5t-15.5 36.5
q0 23 15.5 37.5t40.5 14.5h108q-13 49 -49.5 76.5t-86.5 27.5q-52 0 -84 -31q-24 -21 -51 -21q-21 0 -37 14t-16 36q0 9 2.5 17t7.5 15t8.5 11t10 10t8.5 8q62 55 156 55z" />
    <glyph glyph-name="uni044E" unicode="&#x44e;" horiz-adv-x="848" 
d="M528 526q44 0 90 -17t86 -49t65.5 -84.5t25.5 -116.5t-25.5 -116.5t-65.5 -84t-86 -48.5t-90 -17q-84 0 -161.5 54t-98.5 150h-77v-138q0 -26 -19.5 -45.5t-45.5 -19.5q-27 0 -46.5 19.5t-19.5 45.5v399q0 26 19.5 45.5t46.5 19.5q26 0 45.5 -19.5t19.5 -45.5v-142h76
q20 98 98 154t163 56zM528 107q56 0 96.5 41.5t40.5 110.5q0 70 -40.5 111.5t-96.5 41.5t-96.5 -41.5t-40.5 -111.5q0 -69 40.5 -110.5t96.5 -41.5z" />
    <glyph glyph-name="uni044F" unicode="&#x44f;" horiz-adv-x="601" 
d="M467 520q32 0 53 -21t21 -53v-384q0 -26 -19.5 -45.5t-46.5 -19.5q-26 0 -45.5 19.5t-19.5 45.5v126h-97l-167 -175q-17 -19 -42 -19q-24 0 -41 17t-17 41q0 25 17 39l109 105q-62 14 -98 54t-36 102q0 78 57 123t150 45h222zM410 301v106h-165q-76 0 -76 -55
q0 -51 76 -51h165z" />
    <glyph glyph-name="uni0451" unicode="&#x451;" horiz-adv-x="595" 
d="M179 575q-29 0 -49.5 20.5t-20.5 49.5q0 28 21 48.5t49 20.5q29 0 49.5 -20.5t20.5 -48.5q0 -29 -20.5 -49.5t-49.5 -20.5zM435 575q-29 0 -49.5 20.5t-20.5 49.5q0 28 20.5 48.5t49.5 20.5q28 0 49 -20.5t21 -48.5q0 -29 -20.5 -49.5t-49.5 -20.5zM303 526q94 0 173 -68
t79 -177q0 -38 -20.5 -54t-61.5 -16l-297 2q9 -53 48 -82.5t95 -29.5q35 0 83 21q36 16 49 16q20 0 32.5 -13t12.5 -32q0 -28 -32 -55q-61 -43 -150 -43q-70 0 -130.5 27t-102 89t-41.5 148q0 64 25 117t64 84.5t84.5 48.5t89.5 17zM303 412q-47 0 -84 -27.5t-43 -81.5h250
q-7 54 -41.5 81.5t-81.5 27.5z" />
    <glyph glyph-name="uni0454" unicode="&#x454;" horiz-adv-x="540" 
d="M447 161q21 0 37 -14t16 -36q0 -8 -2 -15t-4.5 -12t-7.5 -10.5t-7.5 -8.5t-8.5 -8t-7 -6q-64 -56 -156 -56q-47 0 -93 17t-85.5 48.5t-64 83.5t-24.5 116q0 85 42.5 147.5t101.5 90.5t123 28q94 0 156 -55q2 -2 8.5 -8t10 -10t8.5 -11t7.5 -15t2.5 -17q0 -22 -16 -36
t-37 -14q-27 0 -51 21q-32 31 -84 31q-50 0 -86.5 -27.5t-49.5 -76.5h108q25 0 40.5 -14.5t15.5 -37.5q0 -22 -15.5 -36.5t-40.5 -14.5h-106q14 -46 50 -71t84 -25q52 0 84 31q24 21 51 21z" />
    <glyph glyph-name="uni0457" unicode="&#x457;" horiz-adv-x="281" 
d="M13 575q-29 0 -49.5 20.5t-20.5 49.5q0 28 21 48.5t49 20.5q29 0 49.5 -20.5t20.5 -48.5q0 -29 -20.5 -49.5t-49.5 -20.5zM269 575q-29 0 -49.5 20.5t-20.5 49.5q0 28 20.5 48.5t49.5 20.5q28 0 49 -20.5t21 -48.5q0 -29 -20.5 -49.5t-49.5 -20.5zM141 523
q26 0 45.5 -19.5t19.5 -45.5v-399q0 -26 -19.5 -45.5t-45.5 -19.5q-27 0 -46.5 19.5t-19.5 45.5v399q0 26 19.5 45.5t46.5 19.5z" />
    <glyph glyph-name="uni0490" unicode="&#x490;" horiz-adv-x="557" 
d="M522 697v-51v-2q0 -24 -16.5 -40t-40.5 -16h-274v-529q0 -26 -19.5 -45.5t-45.5 -19.5q-27 0 -46.5 19.5t-19.5 45.5v567q0 32 21 53t53 21h254q2 26 21 44.5t45 18.5q28 0 48 -19.5t20 -46.5z" />
    <glyph glyph-name="uni0491" unicode="&#x491;" horiz-adv-x="506" 
d="M408 594q28 0 48 -19.5t20 -47.5v-66q-1 -22 -17.5 -37.5t-39.5 -15.5h-228v-349q0 -26 -19.5 -45.5t-45.5 -19.5q-27 0 -46.5 19.5t-19.5 45.5v387q0 32 21 53t53 21h207v7q0 28 20 47.5t47 19.5z" />
    <glyph glyph-name="Wgrave" unicode="&#x1e80;" horiz-adv-x="1023" 
d="M466 954q47 0 64 -46l37 -104q10 -25 -4 -43.5t-39 -18.5q-23 0 -36 18l-75 83q-15 18 -15 43q0 28 20 48t48 20zM923 703q27 0 46 -18t19 -43q0 -9 -8 -38l-172 -559q-15 -50 -71 -50q-53 0 -71 50l-154 420l-155 -420q-18 -50 -70 -50q-56 0 -72 50l-171 559
q-9 25 -9 38q0 25 19 43t47 18q22 0 40.5 -12t23.5 -31l127 -451l160 450q16 44 59 44q45 0 61 -44l160 -450l126 451q5 19 23.5 31t41.5 12z" />
    <glyph glyph-name="wgrave" unicode="&#x1e81;" horiz-adv-x="843" 
d="M375 774q47 0 64 -46l37 -104q10 -25 -4 -43.5t-39 -18.5q-23 0 -36 18l-75 83q-15 18 -15 43q0 28 19.5 48t48.5 20zM751 523q26 0 44 -18t18 -44q0 -5 -4 -16t-5 -14l-134 -383q-17 -50 -62 -50t-65 50l-122 286l-122 -286q-20 -50 -64 -50q-46 0 -63 50l-133 383
q-9 25 -9 30q0 26 18 44t44 18q18 0 34 -10t21 -25l96 -301l119 296q17 40 59 40q44 0 59 -40l119 -296l96 301q5 15 21.5 25t34.5 10z" />
    <glyph glyph-name="Wacute" unicode="&#x1e82;" horiz-adv-x="1023" 
d="M550 954q28 0 48 -20t20 -48q0 -25 -15 -43l-75 -83q-13 -18 -36 -18q-25 0 -39 18.5t-4 43.5l37 104q17 46 64 46zM923 703q27 0 46 -18t19 -43q0 -9 -8 -38l-172 -559q-15 -50 -71 -50q-53 0 -71 50l-154 420l-155 -420q-18 -50 -70 -50q-56 0 -72 50l-171 559
q-9 25 -9 38q0 25 19 43t47 18q22 0 40.5 -12t23.5 -31l127 -451l160 450q16 44 59 44q45 0 61 -44l160 -450l126 451q5 19 23.5 31t41.5 12z" />
    <glyph glyph-name="wacute" unicode="&#x1e83;" horiz-adv-x="843" 
d="M459 774q29 0 48.5 -20t19.5 -48q0 -25 -15 -43l-75 -83q-13 -18 -36 -18q-25 0 -39 18.5t-4 43.5l37 104q17 46 64 46zM751 523q26 0 44 -18t18 -44q0 -5 -4 -16t-5 -14l-134 -383q-17 -50 -62 -50t-65 50l-122 286l-122 -286q-20 -50 -64 -50q-46 0 -63 50l-133 383
q-9 25 -9 30q0 26 18 44t44 18q18 0 34 -10t21 -25l96 -301l119 296q17 40 59 40q44 0 59 -40l119 -296l96 301q5 15 21.5 25t34.5 10z" />
    <glyph glyph-name="Wdieresis" unicode="&#x1e84;" horiz-adv-x="1023" 
d="M384 755q-29 0 -49.5 20.5t-20.5 49.5q0 28 21 48.5t49 20.5q29 0 49.5 -20.5t20.5 -48.5q0 -29 -20.5 -49.5t-49.5 -20.5zM640 755q-29 0 -49.5 20.5t-20.5 49.5q0 28 20.5 48.5t49.5 20.5q28 0 49 -20.5t21 -48.5q0 -29 -20.5 -49.5t-49.5 -20.5zM923 703q27 0 46 -18
t19 -43q0 -9 -8 -38l-172 -559q-15 -50 -71 -50q-53 0 -71 50l-154 420l-155 -420q-18 -50 -70 -50q-56 0 -72 50l-171 559q-9 25 -9 38q0 25 19 43t47 18q22 0 40.5 -12t23.5 -31l127 -451l160 450q16 44 59 44q45 0 61 -44l160 -450l126 451q5 19 23.5 31t41.5 12z" />
    <glyph glyph-name="wdieresis" unicode="&#x1e85;" horiz-adv-x="843" 
d="M293 575q-29 0 -49.5 20.5t-20.5 49.5q0 28 21 48.5t49 20.5q29 0 49.5 -20.5t20.5 -48.5q0 -29 -20.5 -49.5t-49.5 -20.5zM549 575q-29 0 -49.5 20.5t-20.5 49.5q0 28 20.5 48.5t49.5 20.5q28 0 49 -20.5t21 -48.5q0 -29 -20.5 -49.5t-49.5 -20.5zM751 523q26 0 44 -18
t18 -44q0 -5 -4 -16t-5 -14l-134 -383q-17 -50 -62 -50t-65 50l-122 286l-122 -286q-20 -50 -64 -50q-46 0 -63 50l-133 383q-9 25 -9 30q0 26 18 44t44 18q18 0 34 -10t21 -25l96 -301l119 296q17 40 59 40q44 0 59 -40l119 -296l96 301q5 15 21.5 25t34.5 10z" />
    <glyph glyph-name="Ygrave" unicode="&#x1ef2;" horiz-adv-x="633" 
d="M270 954q47 0 64 -46l37 -104q10 -25 -4 -43.5t-39 -18.5q-23 0 -36 18l-75 83q-15 18 -15 43q0 28 20 48t48 20zM534 703q26 0 44 -18t18 -43q0 -20 -10 -34l-203 -296v-254q0 -27 -20 -46t-47 -19t-46.5 19t-19.5 46v254l-203 296q-10 14 -10 34q0 26 18 43.5t44 17.5
q30 0 49 -25l168 -252l169 252q17 25 49 25z" />
    <glyph glyph-name="ygrave" unicode="&#x1ef3;" horiz-adv-x="577" 
d="M260 580l-75 83q-15 18 -15 43q0 28 20 48t48 20q47 0 64 -46l37 -104q10 -25 -4 -43.5t-39 -18.5q-23 0 -36 18zM486 523q26 0 43.5 -17.5t17.5 -41.5q0 -14 -8 -30l-259 -583q-20 -46 -63 -46q-25 0 -41.5 17.5t-16.5 41.5q0 11 7 30l57 130l-186 410q-7 19 -7 30
q0 24 17.5 41.5t42.5 17.5q43 0 63 -46l134 -310l137 310q20 46 62 46z" />
    <glyph glyph-name="endash" unicode="&#x2013;" horiz-adv-x="614" 
d="M516 329q21 0 37 -16t16 -38t-16 -37.5t-37 -15.5h-417q-22 0 -38 15.5t-16 37.5t16 38t38 16h417z" />
    <glyph glyph-name="emdash" unicode="&#x2014;" horiz-adv-x="674" 
d="M576 329q21 0 37 -16t16 -38t-16 -37.5t-37 -15.5h-477q-22 0 -38 15.5t-16 37.5t16 38t38 16h477z" />
    <glyph glyph-name="quoteleft" unicode="&#x2018;" horiz-adv-x="260" 
d="M196 700q23 0 30.5 -15t-1.5 -38l-49 -151q-19 -53 -69 -53h-37q-62 0 -27 67l79 151q21 39 68 39h6z" />
    <glyph glyph-name="quoteright" unicode="&#x2019;" horiz-adv-x="260" 
d="M64 443q-23 0 -30.5 15.5t1.5 37.5l49 151q19 53 69 53h37q62 0 27 -67l-79 -151q-21 -39 -68 -39h-6z" />
    <glyph glyph-name="quotesinglbase" unicode="&#x201a;" horiz-adv-x="265" 
d="M64 -109q-23 0 -30.5 15.5t1.5 37.5l49 151q19 53 69 53h37q62 0 27 -67l-79 -151q-21 -39 -68 -39h-6z" />
    <glyph glyph-name="quotedblleft" unicode="&#x201c;" horiz-adv-x="449" 
d="M196 700q23 0 30.5 -15t-1.5 -38l-49 -151q-19 -53 -69 -53h-37q-62 0 -27 67l79 151q21 39 68 39h6zM385 700q23 0 30.5 -15t-1.5 -38l-49 -151q-19 -53 -69 -53h-37q-62 0 -27 67l79 151q21 39 68 39h6z" />
    <glyph glyph-name="quotedblright" unicode="&#x201d;" horiz-adv-x="449" 
d="M64 443q-23 0 -30.5 15.5t1.5 37.5l49 151q19 53 69 53h37q62 0 27 -67l-79 -151q-21 -39 -68 -39h-6zM253 443q-23 0 -30.5 15.5t1.5 37.5l49 151q19 53 69 53h37q62 0 27 -67l-79 -151q-21 -39 -68 -39h-6z" />
    <glyph glyph-name="quotedblbase" unicode="&#x201e;" horiz-adv-x="454" 
d="M64 -109q-23 0 -30.5 15.5t1.5 37.5l49 151q19 53 69 53h37q62 0 27 -67l-79 -151q-21 -39 -68 -39h-6zM253 -109q-23 0 -30.5 15.5t1.5 37.5l49 151q19 53 69 53h37q62 0 27 -67l-79 -151q-21 -39 -68 -39h-6z" />
    <glyph glyph-name="dagger" unicode="&#x2020;" horiz-adv-x="370" 
d="M325 565v-86h-99l-26 -194h-29l-26 194h-100v86h89l-18 135h139l-18 -135h88z" />
    <glyph glyph-name="daggerdbl" unicode="&#x2021;" horiz-adv-x="360" 
d="M229 567h91v-89h-105l-16 -104h-37l-16 104h-106v89h92l-21 133h139zM199 326l16 -104h105v-89h-91l21 -133h-139l21 133h-92v89h106l16 104h37z" />
    <glyph glyph-name="bullet" unicode="&#x2022;" horiz-adv-x="246" 
d="M123 216q-31 0 -52 21t-21 52t21 52t52 21t52 -21t21 -52t-21 -52t-52 -21z" />
    <glyph glyph-name="ellipsis" unicode="&#x2026;" horiz-adv-x="725" 
d="M116 -4q-32 0 -54 22t-22 54q0 31 22.5 53t53.5 22t53 -22t22 -53t-22 -53.5t-53 -22.5zM363 -4q-31 0 -53.5 22t-22.5 54q0 31 22.5 53t53.5 22t53 -22t22 -53t-22 -53.5t-53 -22.5zM610 -4q-32 0 -54 22t-22 54q0 31 22.5 53t53.5 22t53 -22t22 -53t-22 -53.5
t-53 -22.5z" />
    <glyph glyph-name="perthousand" unicode="&#x2030;" horiz-adv-x="1024" 
d="M168 705q52 0 88 -35.5t36 -87.5q0 -51 -36 -87t-88 -36q-51 0 -87 36t-36 87q0 52 36 87.5t87 35.5zM481 658q17 28 51 28q25 0 43 -18t18 -43q0 -17 -11 -35l-366 -546q-21 -28 -51 -28q-25 0 -43 18t-18 43q0 20 9 35zM168 615q-15 0 -25.5 -9t-10.5 -24t10.5 -24.5
t25.5 -9.5q12 0 21.5 10t9.5 24t-9.5 23.5t-21.5 9.5zM529 241q52 0 88 -35.5t36 -87.5q0 -51 -36 -87t-88 -36q-51 0 -87 36t-36 87q0 52 36 87.5t87 35.5zM855 241q52 0 87.5 -35.5t35.5 -87.5q0 -51 -35.5 -87t-87.5 -36q-51 0 -87 36t-36 87q0 52 35.5 87.5t87.5 35.5z
M529 151q-15 0 -25.5 -9t-10.5 -24t10.5 -24.5t25.5 -9.5q12 0 21.5 10t9.5 24t-9.5 23.5t-21.5 9.5zM855 151q-15 0 -25.5 -9t-10.5 -24t10.5 -24.5t25.5 -9.5q11 0 21 10t10 24t-10 23.5t-21 9.5z" />
    <glyph glyph-name="guilsinglleft" unicode="&#x2039;" horiz-adv-x="275" 
d="M40 291q0 14 4.5 24.5t9.5 16t20 20.5l98 93q20 18 41.5 9.5t21.5 -33.5q0 -17 -29 -47l-77 -85l77 -85q29 -29 29 -46q0 -24 -21.5 -33.5t-41.5 8.5l-98 94q-14 14 -19.5 20t-10 16.5t-4.5 23.5v4z" />
    <glyph glyph-name="guilsinglright" unicode="&#x203a;" horiz-adv-x="275" 
d="M235 291v-4q0 -19 -7 -30t-27 -30l-98 -94q-20 -18 -41.5 -8.5t-21.5 33.5q0 17 29 46l77 85l-77 85q-29 30 -29 47q0 25 21.5 33.5t41.5 -9.5l98 -93q15 -15 20 -20.5t9.5 -16t4.5 -24.5z" />
    <glyph glyph-name="fraction" unicode="&#x2044;" horiz-adv-x="108" 
d="M288 700l-430 -700h-48l436 700h42z" />
    <glyph glyph-name="Euro" unicode="&#x20ac;" horiz-adv-x="716" 
d="M618 176q26 0 44.5 -16.5t18.5 -44.5q0 -40 -60 -79q-69 -43 -165 -43q-105 0 -198 63t-133 166h-40q-20 0 -35 15t-15 35t15 35t35 15h18q-1 9 -1 28v15h-17q-20 0 -35 15t-15 35t15 35t35 15h36q37 108 131.5 175t201.5 67q95 0 167 -43q60 -39 60 -79
q0 -28 -18.5 -44.5t-44.5 -16.5q-25 0 -54 21q-51 34 -108 34t-106 -31t-78 -83h100q20 0 35 -15t15 -35t-15 -35t-35 -15h-129v-15q0 -10 2 -28h127q20 0 35 -15t15 -35t-15 -35t-35 -15h-92q30 -46 77 -73.5t100 -27.5q56 0 107 34q29 21 54 21z" />
    <glyph glyph-name="uni20B4" unicode="&#x20b4;" horiz-adv-x="619" 
d="M530 335q20 0 34.5 -14t14.5 -32t-14.5 -32t-34.5 -14h-315q-11 -19 -11 -43q0 -46 35.5 -66.5t80.5 -20.5q74 0 120 58q28 38 64 38q26 0 40.5 -17t14.5 -40q0 -31 -28 -65q-36 -45 -93 -69.5t-118 -24.5t-117 22t-96 71t-40 114q0 25 6 46q-14 5 -23.5 17.5t-9.5 25.5
q0 18 15 32t35 14h46q22 18 57 36h-103q-20 0 -35 14t-15 31q0 18 15 32t35 14h293q20 21 20 51q0 34 -25.5 54.5t-70.5 20.5q-53 0 -96 -45q-25 -27 -54 -27q-24 0 -40 15.5t-16 38.5q0 26 29 60q70 77 182 77q96 0 160.5 -53t64.5 -140q0 -26 -8 -52h1q20 0 34.5 -14
t14.5 -32t-14.5 -31.5t-34.5 -13.5h-74q-25 -17 -66 -36h140z" />
    <glyph glyph-name="trademark" unicode="&#x2122;" horiz-adv-x="558" 
d="M241 700v-43h-62v-137h-52v137h-62v43h176zM493 700v-180h-49v77l-48 -77h-23l-47 77v-77h-50v180h35l73 -117l75 117h34z" />
    <glyph glyph-name="oneeighth" unicode="&#x215b;" horiz-adv-x="556" 
d="M100 701v-261h-37v221l-17 -11l-18 31l35 20h37zM503 700l-430 -700h-48l436 700h42zM439 263q36 0 57.5 -20t21.5 -47q0 -34 -30 -53q43 -21 43 -66q0 -34 -27 -56.5t-65 -22.5q-37 0 -64 22.5t-27 56.5q0 45 43 66q-30 19 -30 53q0 26 21.5 46.5t56.5 20.5zM439 232
q-20 0 -30.5 -10.5t-10.5 -25.5t12.5 -27t28.5 -12q17 0 29 11.5t12 27.5q0 36 -41 36zM439 126q-22 0 -38 -14t-16 -35q0 -20 16 -34t38 -14q24 0 39 13t15 35t-15 35.5t-39 13.5z" />
    <glyph glyph-name="threeeighths" unicode="&#x215c;" horiz-adv-x="574" 
d="M116 703q32 0 56 -20.5t24 -47.5q0 -32 -30 -53q42 -18 42 -66q0 -34 -27.5 -57t-64.5 -23q-41 0 -68 27.5t-23 63.5h38q-6 -23 11 -41t42 -18q22 0 38 13.5t16 34.5q0 28 -20 39t-54 5v32q63 3 63 43q0 15 -12.5 26t-30.5 11q-22 0 -35.5 -16t-10.5 -42h-38
q-4 38 21.5 63.5t62.5 25.5zM523 700l-430 -700h-48l436 700h42zM457 263q36 0 57.5 -20t21.5 -47q0 -34 -30 -53q43 -21 43 -66q0 -34 -27 -56.5t-65 -22.5q-37 0 -64 22.5t-27 56.5q0 45 43 66q-30 19 -30 53q0 26 21.5 46.5t56.5 20.5zM457 232q-20 0 -30.5 -10.5
t-10.5 -25.5t12.5 -27t28.5 -12q17 0 29 11.5t12 27.5q0 36 -41 36zM457 126q-22 0 -38 -14t-16 -35q0 -20 16 -34t38 -14q24 0 39 13t15 35t-15 35.5t-39 13.5z" />
    <glyph glyph-name="fiveeighths" unicode="&#x215d;" horiz-adv-x="576" 
d="M186 701v-32h-104l-8 -58q22 10 45 10q35 0 63 -26.5t28 -65.5t-28 -66t-67 -27q-33 0 -58.5 18.5t-31.5 43.5l33 19q2 -20 17.5 -34.5t39.5 -14.5q23 0 40 17.5t17 43.5q0 25 -16.5 42.5t-36.5 17.5q-35 0 -57 -29l-32 8l18 133h138zM523 700l-430 -700h-48l436 700h42z
M459 263q36 0 57.5 -20t21.5 -47q0 -34 -30 -53q43 -21 43 -66q0 -34 -27 -56.5t-65 -22.5q-37 0 -64 22.5t-27 56.5q0 45 43 66q-30 19 -30 53q0 26 21.5 46.5t56.5 20.5zM459 232q-20 0 -30.5 -10.5t-10.5 -25.5t12.5 -27t28.5 -12q17 0 29 11.5t12 27.5q0 36 -41 36z
M459 126q-22 0 -38 -14t-16 -35q0 -20 16 -34t38 -14q24 0 39 13t15 35t-15 35.5t-39 13.5z" />
    <glyph glyph-name="seveneighths" unicode="&#x215e;" horiz-adv-x="556" 
d="M200 701l-102 -261h-39l89 229h-121v32h173zM503 700l-430 -700h-48l436 700h42zM439 263q36 0 57.5 -20t21.5 -47q0 -34 -30 -53q43 -21 43 -66q0 -34 -27 -56.5t-65 -22.5q-37 0 -64 22.5t-27 56.5q0 45 43 66q-30 19 -30 53q0 26 21.5 46.5t56.5 20.5zM439 232
q-20 0 -30.5 -10.5t-10.5 -25.5t12.5 -27t28.5 -12q17 0 29 11.5t12 27.5q0 36 -41 36zM439 126q-22 0 -38 -14t-16 -35q0 -20 16 -34t38 -14q24 0 39 13t15 35t-15 35.5t-39 13.5z" />
    <glyph glyph-name="partialdiff" unicode="&#x2202;" horiz-adv-x="560" 
d="M253 682l118 -167q11 -16 35.5 -49t35.5 -48.5t28 -43.5t25 -47.5t14 -46t6 -52.5q0 -106 -71 -172t-166 -66q-92 0 -162.5 63.5t-70.5 159.5q0 98 70.5 164t162.5 66q9 0 13 4l-129 166q-13 19 -13 36q0 24 16.5 41t40.5 17q31 0 47 -25zM280 322q-47 0 -78.5 -32.5
t-31.5 -76.5q0 -45 31.5 -77t78.5 -32t79.5 32t32.5 77q0 46 -30.5 77.5t-81.5 31.5z" />
    <glyph glyph-name="product" unicode="&#x220f;" horiz-adv-x="729" 
d="M45 726q0 32 21 53t53 21h491q32 0 53 -21t21 -53v-860q0 -26 -18.5 -44.5t-43.5 -18.5q-26 0 -45 18.5t-19 44.5v817h-387v-817q0 -26 -18.5 -44.5t-43.5 -18.5q-26 0 -45 18.5t-19 44.5v860z" />
    <glyph glyph-name="summation" unicode="&#x2211;" horiz-adv-x="634" 
d="M531 800q24 0 41 -17t17 -42q0 -24 -17 -41t-41 -17h-340l192 -347q15 -31 0 -62l-192 -347h340q24 0 41 -17t17 -41q0 -25 -17 -42t-41 -17h-394q-56 0 -81 42t2 91l201 362l-201 362q-27 49 -2 91t81 42h394z" />
    <glyph glyph-name="minus" unicode="&#x2212;" horiz-adv-x="425" 
d="M367 329q23 0 40 -16t17 -38t-17 -37.5t-40 -15.5h-264q-24 0 -41 15.5t-17 37.5t17.5 38t40.5 16h264z" />
    <glyph glyph-name="radical" unicode="&#x221a;" horiz-adv-x="807" 
d="M701 807q30 0 48 -23t12 -56l-235 -850q-10 -33 -36.5 -54t-61.5 -21q-31 0 -57 17.5t-37 45.5l-147 376h-70q-30 0 -51 21t-21 51q0 29 21 50.5t51 21.5h111q48 0 62 -43l135 -363l216 781q5 20 21.5 33t38.5 13z" />
    <glyph glyph-name="infinity" unicode="&#x221e;" horiz-adv-x="852" 
d="M616 428q77 0 131.5 -45.5t54.5 -120.5q0 -76 -54.5 -122.5t-131.5 -46.5q-100 0 -190 85q-92 -85 -189 -85q-78 0 -132.5 46.5t-54.5 122.5q0 75 54.5 120.5t132.5 45.5q97 0 189 -85q90 85 190 85zM239 193q66 0 116 69q-51 69 -116 69q-34 0 -51 -20t-17 -49t17 -49
t51 -20zM613 193q34 0 51 20t17 49t-17 49t-51 20q-65 0 -117 -69q51 -69 117 -69z" />
    <glyph glyph-name="integral" unicode="&#x222b;" horiz-adv-x="297" 
d="M287 800v-112q-25 0 -39.5 -5.5t-20.5 -21.5t-7 -28t-1 -42v-599q0 -95 -47 -138.5t-152 -43.5v113q21 0 34 5t20 10.5t10 21.5t3.5 25t0.5 34v599q0 95 47.5 138.5t151.5 43.5z" />
    <glyph glyph-name="approxequal" unicode="&#x2248;" horiz-adv-x="521" 
d="M172 440q43 0 106.5 -35t92.5 -35q27 0 44 7q3 2 7 6t6.5 5.5t5.5 3.5t6 2.5t7 0.5q33 0 27 -29q-9 -44 -40 -70.5t-82 -26.5q-44 0 -109 39.5t-96 39.5q-29 0 -45 -14q-7 -9 -9 -11.5t-8 -5.5t-14 -3q-29 0 -24 24q7 46 38.5 74t86.5 28zM172 273q43 0 106.5 -35
t92.5 -35q27 0 44 7q3 2 7 6t6.5 5.5t5.5 3.5t6 2.5t7 0.5q33 0 27 -29q-9 -44 -40 -70.5t-82 -26.5q-44 0 -109 39.5t-96 39.5q-29 0 -45 -14q-7 -9 -9 -11.5t-8 -5.5t-14 -3q-29 0 -24 24q7 46 38.5 74t86.5 28z" />
    <glyph glyph-name="notequal" unicode="&#x2260;" horiz-adv-x="470" 
d="M367 242q23 0 40 -16t17 -38t-17 -37.5t-40 -15.5h-133l-42 -109q-12 -33 -49 -33q-29 0 -43.5 24.5t-4.5 45.5l28 72h-20q-24 0 -41 15.5t-17 37.5t17.5 38t40.5 16h62l26 67h-88q-24 0 -41 15.5t-17 37.5t17.5 38t40.5 16h130l46 119q10 33 47 33q29 0 44.5 -24.5
t4.5 -45.5l-32 -82h24q23 0 40 -16t17 -38t-17 -37.5t-40 -15.5h-65l-26 -67h91z" />
    <glyph glyph-name="lessequal" unicode="&#x2264;" horiz-adv-x="470" 
d="M319 559q10 5 23 5q22 0 37 -14t15 -35q0 -29 -28 -42l-203 -98l203 -96q28 -14 28 -44q0 -20 -15 -34.5t-37 -14.5q-12 0 -24 6l-221 107q-53 26 -53 75.5t53 75.5zM367 109q23 0 40 -16t17 -38t-17 -37.5t-40 -15.5h-264q-24 0 -41 15.5t-17 37.5t17.5 38t40.5 16h264z
" />
    <glyph glyph-name="greaterequal" unicode="&#x2265;" horiz-adv-x="470" 
d="M151 559l222 -109q53 -26 53 -75.5t-53 -75.5l-221 -107q-12 -6 -24 -6q-22 0 -37 14.5t-15 34.5q0 30 28 44l203 96l-203 98q-28 13 -28 42q0 21 15 35t37 14q13 0 23 -5zM103 109h264q23 0 40.5 -16t17.5 -38t-17 -37.5t-41 -15.5h-264q-23 0 -40 15.5t-17 37.5t17 38
t40 16z" />
    <glyph glyph-name="lozenge" unicode="&#x25ca;" horiz-adv-x="574" 
d="M287 707q41 0 75 -22.5t49 -58.5l112 -251q10 -25 0 -50l-112 -251q-15 -36 -49 -58.5t-75 -22.5t-75 22.5t-49 58.5l-112 251q-10 25 0 50l112 251q15 36 49 58.5t75 22.5zM287 93l114 257l-114 257l-114 -257z" />
    <glyph glyph-name="Q.ss01" horiz-adv-x="797" 
d="M723 9q25 0 42.5 -17t17.5 -44q0 -41 -41 -67.5t-96 -26.5q-46 0 -90.5 22t-73.5 48.5t-66 48.5t-71 22q-48 0 -95 -44q-22 -22 -46 -22q-26 0 -45 19.5t-19 46.5q0 29 20 47q13 13 28 25q-63 49 -100.5 122t-37.5 161q0 102 50.5 185t130 127.5t167.5 44.5
q137 0 243 -102t106 -255q0 -112 -59.5 -198.5t-152.5 -128.5q55 -46 93 -46q25 0 53 19q26 13 42 13zM398 579q-85 0 -146 -64.5t-61 -164.5t61 -164.5t146 -64.5q86 0 147 64.5t61 164.5t-61 164.5t-147 64.5z" />
    <glyph glyph-name="R.ss01" horiz-adv-x="665" 
d="M588 159q23 0 37.5 -15.5t14.5 -38.5q0 -24 -18 -50q-23 -32 -50.5 -47.5t-73.5 -15.5q-44 0 -75.5 15.5t-48.5 40t-34.5 54t-32.5 57t-44 50.5t-68 32v-180q0 -28 -19.5 -48t-47.5 -20t-48 20t-20 48v565q0 32 21 53t53 21h183q115 0 185.5 -65t70.5 -162
q0 -88 -58 -149.5t-156 -73.5q31 -23 54.5 -60.5t41.5 -59t45 -21.5q24 0 44 28q15 22 44 22zM311 585h-116v-222h116q131 0 131 110q0 112 -131 112z" />
    <glyph glyph-name="R.ss02" horiz-adv-x="626" 
d="M480 294q59 -28 82.5 -83t23.5 -144q0 -33 -20 -51.5t-47 -18.5q-29 0 -48.5 18.5t-19.5 51.5q0 100 -31 140.5t-124 40.5h-101v-187q0 -28 -19.5 -48t-47.5 -20t-48 20t-20 48v565q0 32 21 53t53 21h183q115 0 185.5 -65t70.5 -162q0 -116 -93 -179zM195 363h116
q131 0 131 110q0 112 -131 112h-116v-222z" />
    <glyph glyph-name="i.loclTRK" horiz-adv-x="281" 
d="M141 625q-27 0 -47 20t-20 47q0 28 20 47.5t47 19.5q28 0 48 -19.5t20 -47.5q0 -27 -20 -47t-48 -20zM141 523q26 0 45.5 -19.5t19.5 -45.5v-399q0 -26 -19.5 -45.5t-45.5 -19.5q-27 0 -46.5 19.5t-19.5 45.5v399q0 26 19.5 45.5t46.5 19.5z" />
    <glyph glyph-name="t_t" horiz-adv-x="749" 
d="M670 112q23 2 36 -11t13 -36q0 -34 -30.5 -52t-82.5 -18q-62 0 -99.5 33.5t-37.5 127.5v261h-236v-265q0 -44 32 -44q5 0 19 2t19 2q23 2 36 -11t13 -36q0 -34 -30.5 -52t-82.5 -18q-62 0 -99.5 33.5t-37.5 127.5v261h-29q-24 0 -38.5 14t-14.5 37t14.5 37.5t38.5 14.5
h29v68q0 27 19.5 46.5t46.5 19.5t46 -19.5t19 -46.5v-68h236v68q0 27 19.5 46.5t46.5 19.5t46 -19.5t19 -46.5v-68h66q24 0 38.5 -14t14.5 -38q0 -23 -14.5 -37t-38.5 -14h-66v-265q0 -44 32 -44q6 0 19 2t19 2z" />
    <glyph glyph-name="zero.tf" horiz-adv-x="700" 
d="M340 707q115 0 199 -91t84 -253v-24q0 -162 -84 -253t-199 -91q-114 0 -198 91.5t-84 252.5v24q0 161 84 252.5t198 91.5zM340 595q-53 0 -88.5 -37t-49 -87t-13.5 -108v-24q0 -58 13.5 -108t49 -86.5t88.5 -36.5t89 36.5t49.5 86.5t13.5 108v24q0 58 -13.5 108t-49.5 87
t-89 37z" />
    <glyph glyph-name="one.tf" horiz-adv-x="700" 
d="M338 700q32 0 53.5 -21t21.5 -53v-567q0 -26 -19.5 -45.5t-46.5 -19.5q-26 0 -45.5 19.5t-19.5 45.5v529h-65q-24 0 -40.5 16t-16.5 40q0 23 17 39.5t40 16.5h121z" />
    <glyph glyph-name="two.tf" horiz-adv-x="700" 
d="M335 707q102 0 168 -62.5t66 -147.5q0 -13 -2 -25.5t-4.5 -23t-10 -23.5t-12 -21.5t-17 -23.5t-19 -22.5t-25 -26l-27 -27t-32 -31.5t-35.5 -34l-127 -123h256q24 0 40.5 -17t16.5 -41t-16.5 -41t-40.5 -17h-304q-45 0 -75 28t-29.5 64.5t31.5 71.5l117 113
q17 17 40.5 39t36 34t29 28.5t25 26t19 22t15.5 20.5t10 18.5t6.5 19.5t1.5 19q0 45 -30 66.5t-66 21.5q-32 0 -61 -18t-41 -59q-6 -21 -24.5 -35.5t-42.5 -14.5q-35 0 -50.5 27.5t-4.5 65.5q21 64 78 106.5t140 42.5z" />
    <glyph glyph-name="three.tf" horiz-adv-x="700" 
d="M452 700q59 0 86 -45t-8 -92l-118 -147q67 -14 120 -68.5t53 -135.5q0 -98 -72.5 -160t-179.5 -62q-80 0 -143 36.5t-92 108.5q-11 30 5 57t49 27q22 0 37 -11t21 -26q17 -43 52.5 -61t70.5 -18q17 0 35 4.5t38.5 15.5t34 34t13.5 55q0 86 -134 120q-20 4 -33 19.5
t-13 33.5q0 5 1.5 10.5t3 9t5.5 9.5l6 9t7.5 10.5t7.5 9.5l110 145h-242q-24 0 -40.5 16t-16.5 40q0 23 17 39.5t40 16.5h279z" />
    <glyph glyph-name="four.tf" horiz-adv-x="700" 
d="M507 269h25q23 0 40 -15.5t17 -37.5q0 -23 -16.5 -38.5t-40.5 -15.5h-25v-104q0 -27 -19.5 -46t-46.5 -19q-26 0 -45.5 19t-19.5 46v104h-194q-62 0 -81.5 39t14.5 85l263 375q21 30 52 36t54 -13t23 -54v-361zM376 476l-142 -207h142v207z" />
    <glyph glyph-name="five.tf" horiz-adv-x="700" 
d="M445 700q23 0 40 -16.5t17 -39.5q0 -24 -16.5 -40t-40.5 -16h-203l-15 -145l16 7q16 7 42 13.5t55 6.5q94 0 159.5 -66.5t65.5 -172.5q0 -105 -72.5 -173t-182.5 -68q-126 0 -199 84q-19 19 -19 47q0 24 16.5 40.5t42.5 16.5q30 0 49 -23q41 -52 107 -52q50 0 88.5 31
t38.5 97q0 60 -36 93t-83 33q-40 0 -83 -27q-19 -11 -54 -11q-38 0 -60 27t-17 67l27 225q4 28 23.5 45t47.5 17h246z" />
    <glyph glyph-name="six.tf" horiz-adv-x="700" 
d="M422 707q24 0 40.5 -17t16.5 -41q0 -17 -13 -36l-129 -166q4 -4 13 -4q92 0 162.5 -66t70.5 -164q0 -96 -70.5 -159.5t-162.5 -63.5q-95 0 -166 66t-71 172q0 26 6 52.5t14 46t25 47.5t28 43.5t35.5 48.5t35.5 49l118 167q16 25 47 25zM348 322q-51 0 -81.5 -31.5
t-30.5 -77.5q0 -45 32.5 -77t79.5 -32t78.5 32t31.5 77q0 44 -31.5 76.5t-78.5 32.5z" />
    <glyph glyph-name="seven.tf" horiz-adv-x="700" 
d="M501 700q51 0 76 -38.5t3 -84.5l-261 -547q-17 -37 -56 -37q-25 0 -43 18.5t-18 44.5q0 16 6 26l248 506h-261q-24 0 -40.5 16t-16.5 40q0 23 17 39.5t40 16.5h306z" />
    <glyph glyph-name="eight.tf" horiz-adv-x="700" 
d="M508 396q97 -64 97 -177q0 -102 -75 -165t-173 -63t-173.5 63t-75.5 165q0 112 97 178q-52 54 -52 123q0 79 55 133t149 54t149 -54t55 -133q0 -71 -53 -124zM279 519q0 -31 21.5 -54t56.5 -23t56.5 23t21.5 54t-22 53t-56 22t-56 -22t-22 -53zM357 104q46 0 79 33t33 82
q0 53 -33.5 83.5t-78.5 30.5t-79 -31t-34 -83q0 -49 33.5 -82t79.5 -33z" />
    <glyph glyph-name="nine.tf" horiz-adv-x="700" 
d="M278 -8q-24 0 -40.5 17t-16.5 41q0 17 13 36l129 166q-4 4 -13 4q-92 0 -162.5 66t-70.5 164q0 96 70.5 159.5t162.5 63.5q95 0 166 -66t71 -172q0 -26 -6 -52.5t-14 -46t-25 -47.5t-28 -43.5t-35.5 -48.5t-35.5 -49l-118 -167q-16 -25 -47 -25zM352 377q51 0 81.5 31.5
t30.5 77.5q0 45 -32.5 77t-79.5 32t-78.5 -32t-31.5 -77q0 -44 31.5 -76.5t78.5 -32.5z" />
    <glyph glyph-name="zero.dnom" horiz-adv-x="260" 
d="M130 263q47 0 76 -35t29 -91v-13q0 -56 -29 -91t-76 -35q-45 0 -75 35t-30 91v13q0 56 30 91t75 35zM130 232q-29 0 -48.5 -25.5t-19.5 -69.5v-13q0 -44 19.5 -69.5t48.5 -25.5q31 0 49.5 25t18.5 70v13q0 45 -18.5 70t-49.5 25z" />
    <glyph glyph-name="one.dnom" horiz-adv-x="122" 
d="M97 261v-261h-37v221l-17 -11l-18 31l35 20h37z" />
    <glyph glyph-name="two.dnom" horiz-adv-x="221" 
d="M109 264q34 0 59 -22.5t25 -52.5q0 -26 -14.5 -47t-53.5 -61l-47 -49h118v-32h-168v32l68 69q28 29 36.5 38.5t15.5 22.5t7 27q0 18 -14 31t-32 13q-19 0 -33 -13t-14 -37v-14h-37v14q0 35 24.5 58t59.5 23z" />
    <glyph glyph-name="three.dnom" horiz-adv-x="233" 
d="M116 263q32 0 56 -20.5t24 -47.5q0 -32 -30 -53q42 -18 42 -66q0 -34 -27.5 -57t-64.5 -23q-41 0 -68 27.5t-23 63.5h38q-6 -23 11 -41t42 -18q22 0 38 13.5t16 34.5q0 28 -20 39t-54 5v32q63 3 63 43q0 15 -12.5 26t-30.5 11q-22 0 -35.5 -16t-10.5 -42h-38
q-4 38 21.5 63.5t62.5 25.5z" />
    <glyph glyph-name="four.dnom" horiz-adv-x="246" 
d="M194 261v-154h27v-31h-27v-76h-37v76h-132l132 185h37zM157 202l-65 -95h65v95z" />
    <glyph glyph-name="five.dnom" horiz-adv-x="235" 
d="M186 261v-32h-104l-8 -58q22 10 45 10q35 0 63 -26.5t28 -65.5t-28 -66t-67 -27q-33 0 -58.5 18.5t-31.5 43.5l33 19q2 -20 17.5 -34.5t39.5 -14.5q23 0 40 17.5t17 43.5q0 25 -16.5 42.5t-36.5 17.5q-35 0 -57 -29l-32 8l18 133h138z" />
    <glyph glyph-name="six.dnom" horiz-adv-x="223" 
d="M174 261l-68 -96h6q34 0 60 -25t26 -59q0 -35 -26 -60t-60 -25t-60.5 25t-26.5 60q0 16 5.5 31.5t10 23t18 25t16.5 21.5l57 79h42zM112 133q-22 0 -36 -14t-14 -38q0 -23 15.5 -38t34.5 -15q18 0 33.5 15t15.5 38t-15 37.5t-34 14.5z" />
    <glyph glyph-name="seven.dnom" horiz-adv-x="223" 
d="M198 261l-102 -261h-39l89 229h-121v32h173z" />
    <glyph glyph-name="eight.dnom" horiz-adv-x="233" 
d="M116 263q36 0 57.5 -20t21.5 -47q0 -34 -30 -53q43 -21 43 -66q0 -34 -27 -56.5t-65 -22.5q-37 0 -64 22.5t-27 56.5q0 45 43 66q-30 19 -30 53q0 26 21.5 46.5t56.5 20.5zM116 232q-20 0 -30.5 -10.5t-10.5 -25.5t12.5 -27t28.5 -12q18 0 29.5 11.5t11.5 27.5
q0 36 -41 36zM116 126q-22 0 -38 -14t-16 -35q0 -20 16 -34t38 -14q24 0 39 13t15 35t-15 35.5t-39 13.5z" />
    <glyph glyph-name="nine.dnom" horiz-adv-x="224" 
d="M112 264q34 0 60.5 -24.5t26.5 -59.5q0 -13 -2.5 -24t-9 -22.5t-10.5 -18t-14.5 -19.5t-14.5 -18l-56 -78h-43l68 95h-5q-35 0 -61 25.5t-26 59.5q0 35 26.5 59.5t60.5 24.5zM112 232q-19 0 -34.5 -15t-15.5 -37q0 -23 15.5 -38t34.5 -15q22 0 35.5 14.5t13.5 38.5
q0 22 -15.5 37t-33.5 15z" />
    <glyph glyph-name="zero.numr" horiz-adv-x="260" 
d="M130 703q47 0 76 -35t29 -91v-13q0 -56 -29 -91t-76 -35q-45 0 -75 35t-30 91v13q0 56 30 91t75 35zM130 672q-29 0 -48.5 -25.5t-19.5 -69.5v-13q0 -44 19.5 -69.5t48.5 -25.5q31 0 49.5 25t18.5 70v13q0 45 -18.5 70t-49.5 25z" />
    <glyph glyph-name="one.numr" horiz-adv-x="122" 
d="M97 701v-261h-37v221l-17 -11l-18 31l35 20h37z" />
    <glyph glyph-name="two.numr" horiz-adv-x="221" 
d="M109 704q34 0 59 -22.5t25 -52.5q0 -26 -14.5 -47t-53.5 -61l-47 -49h118v-32h-168v32l68 69q28 29 36.5 38.5t15.5 22.5t7 27q0 18 -14 31t-32 13q-19 0 -33 -13t-14 -37v-14h-37v14q0 35 24.5 58t59.5 23z" />
    <glyph glyph-name="three.numr" horiz-adv-x="233" 
d="M116 703q32 0 56 -20.5t24 -47.5q0 -32 -30 -53q42 -18 42 -66q0 -34 -27.5 -57t-64.5 -23q-41 0 -68 27.5t-23 63.5h38q-6 -23 11 -41t42 -18q22 0 38 13.5t16 34.5q0 28 -20 39t-54 5v32q63 3 63 43q0 15 -12.5 26t-30.5 11q-22 0 -35.5 -16t-10.5 -42h-38
q-4 38 21.5 63.5t62.5 25.5z" />
    <glyph glyph-name="four.numr" horiz-adv-x="246" 
d="M194 701v-154h27v-31h-27v-76h-37v76h-132l132 185h37zM157 642l-65 -95h65v95z" />
    <glyph glyph-name="five.numr" horiz-adv-x="235" 
d="M186 701v-32h-104l-8 -58q22 10 45 10q35 0 63 -26.5t28 -65.5t-28 -66t-67 -27q-33 0 -58.5 18.5t-31.5 43.5l33 19q2 -20 17.5 -34.5t39.5 -14.5q23 0 40 17.5t17 43.5q0 25 -16.5 42.5t-36.5 17.5q-35 0 -57 -29l-32 8l18 133h138z" />
    <glyph glyph-name="six.numr" horiz-adv-x="223" 
d="M174 701l-68 -96h6q34 0 60 -25t26 -59q0 -35 -26 -60t-60 -25t-60.5 25t-26.5 60q0 16 5.5 31.5t10 23t18 25t16.5 21.5l57 79h42zM112 573q-22 0 -36 -14t-14 -38q0 -23 15.5 -38t34.5 -15q18 0 33.5 15t15.5 38t-15 37.5t-34 14.5z" />
    <glyph glyph-name="seven.numr" horiz-adv-x="223" 
d="M198 701l-102 -261h-39l89 229h-121v32h173z" />
    <glyph glyph-name="eight.numr" horiz-adv-x="233" 
d="M116 703q36 0 57.5 -20t21.5 -47q0 -34 -30 -53q43 -21 43 -66q0 -34 -27 -56.5t-65 -22.5q-37 0 -64 22.5t-27 56.5q0 45 43 66q-30 19 -30 53q0 26 21.5 46.5t56.5 20.5zM116 672q-20 0 -30.5 -10.5t-10.5 -25.5t12.5 -27t28.5 -12q18 0 29.5 11.5t11.5 27.5
q0 36 -41 36zM116 566q-22 0 -38 -14t-16 -35q0 -20 16 -34t38 -14q24 0 39 13t15 35t-15 35.5t-39 13.5z" />
    <glyph glyph-name="nine.numr" horiz-adv-x="224" 
d="M112 704q34 0 60.5 -24.5t26.5 -59.5q0 -13 -2.5 -24t-9 -22.5t-10.5 -18t-14.5 -19.5t-14.5 -18l-56 -78h-43l68 95h-5q-35 0 -61 25.5t-26 59.5q0 35 26.5 59.5t60.5 24.5zM112 672q-19 0 -34.5 -15t-15.5 -37q0 -23 15.5 -38t34.5 -15q22 0 35.5 14.5t13.5 38.5
q0 22 -15.5 37t-33.5 15z" />
    </font>
</defs>
</svg>
