<svg width="28" height="27" viewBox="0 0 28 27" fill="none" xmlns="http://www.w3.org/2000/svg">
<path d="M17.4593 8.49349C17.4593 7.21156 16.4202 6.17247 15.1383 6.17247H12.7261C11.4441 6.17247 10.405 7.21156 10.405 8.49349V24.6615C10.405 25.9434 11.4441 26.9825 12.7261 26.9825H15.1383C16.4202 26.9825 17.4593 25.9434 17.4593 24.6615V8.49349Z" fill="#1B516A"/>
<path d="M7.05425 14.1369C7.05425 12.7576 5.93615 11.6395 4.55687 11.6395H2.49738C1.1181 11.6395 0 12.7576 0 14.1369V24.4851C0 25.8644 1.1181 26.9825 2.49738 26.9825H4.55687C5.93615 26.9825 7.05425 25.8644 7.05425 24.4851V14.1369Z" fill="#1B516A"/>
<path d="M27.6879 2.32103C27.6879 1.03909 26.6488 0 25.3669 0H22.9547C21.6728 0 20.6337 1.03909 20.6337 2.32103V24.6615C20.6337 25.9434 21.6728 26.9825 22.9547 26.9825H25.3669C26.6488 26.9825 27.6879 25.9434 27.6879 24.6615V2.32103Z" fill="#1B516A"/>
</svg>
