<?xml version="1.0" standalone="no"?>
<!DOCTYPE svg PUBLIC "-//W3C//DTD SVG 1.1//EN" "http://www.w3.org/Graphics/SVG/1.1/DTD/svg11.dtd" >
<svg>
<metadata>
Created by FontForge 20090622 at Wed May  8 19:10:52 2019
 By deploy user
Copyright &#194;&#169; 2003 - 2012 Linotype GmbH, www.linotype.com. All rights reserved. This font software may not be reproduced, modified, disclosed or transferred without the express written approval of Linotype GmbH. Avenir is a trademark of Linotype GmbH registered in the U.S. Patent and Trademark Office and may be registered in certain other jurisdictions. This typeface is original artwork of Adrian Frutiger and Akira Kobayashi. The design may be protected in certain jurisdictions.
</metadata>
<defs>
<font id="AvenirNextCyrBold" horiz-adv-x="300" >
  <font-face 
    font-family="AvenirNextCyrBold"
    font-weight="750"
    font-stretch="normal"
    units-per-em="1000"
    panose-1="2 11 8 3 2 2 2 2 2 4"
    ascent="756"
    descent="-244"
    x-height="498"
    cap-height="708"
    bbox="-194 -250 1210 963"
    underline-thickness="50"
    underline-position="125"
    unicode-range="U+000D-U+FB04"
  />
<missing-glyph horiz-adv-x="512" 
d="M222 117v67h56v-67h-56zM225 234l-2 17q0 56 13 81q15 28 46 59q50 48 50 83q0 36 -23 61q-22 24 -53 24q-71 0 -82 -95l-50 8q13 137 135 137q54 0 89 -36t35 -95q0 -62 -63 -120q-37 -33 -43 -52t-6 -72h-46zM462 50v617h-412v-617h412zM512 718v-718h-512v718h512z
" />
    <glyph glyph-name="napostrophe" unicode="&#x22;n" horiz-adv-x="706" 
d="M481 0v272q0 105 -74 105q-42 0 -66 -32q-22 -30 -22 -75v-270h-165v498h159v-69h2q43 83 149 83q93 0 141 -64q41 -55 41 -140v-308h-165zM117 513h-126l67 195h145z" />
    <glyph glyph-name="uniFB00" unicode="ff" horiz-adv-x="698" 
d="M707 635q-21 7 -45 7q-73 0 -73 -94v-50h111v-123h-111v-375h-164v375h-170v-375h-164v375h-91v123h91v48q0 229 214 229q48 0 79 -10l-11 -130q-21 7 -45 7q-73 0 -73 -94v-50h170v48q0 229 214 229q48 0 79 -10z" />
    <glyph glyph-name="uniFB01" unicode="fi" horiz-adv-x="665" 
d="M583 593q-27 -26 -66 -26t-67 27q-27 26 -27 63q0 36 27 63q28 27 67 27q38 0 66 -26q28 -27 28 -64q0 -38 -28 -64zM434 0v498h165v-498h-165zM373 635q-21 7 -45 7q-73 0 -73 -94v-50h111v-123h-111v-375h-164v375h-91v123h91v48q0 229 214 229q48 0 79 -10z" />
    <glyph glyph-name="uniFB02" unicode="fl" horiz-adv-x="666" 
d="M434 0v756h166v-756h-166zM373 635q-21 7 -45 7q-73 0 -73 -94v-50h111v-123h-111v-375h-164v375h-91v123h91v48q0 229 214 229q48 0 79 -10z" />
    <glyph glyph-name="uniFB03" unicode="ffi" horiz-adv-x="999" 
d="M707 635q-21 7 -45 7q-73 0 -73 -94v-50h111v-123h-111v-375h-164v375h-170v-375h-164v375h-91v123h91v48q0 229 214 229q48 0 79 -10l-11 -130q-21 7 -45 7q-73 0 -73 -94v-50h170v48q0 229 214 229q48 0 79 -10zM918 593q-28 -26 -67 -26t-67 27q-27 26 -27 63
q0 36 27 63q28 27 67 27t67 -26q27 -27 27 -64q0 -38 -27 -64zM769 0v498h164v-498h-164z" />
    <glyph glyph-name="uniFB04" unicode="ffl" horiz-adv-x="1000" 
d="M707 635q-21 7 -45 7q-73 0 -73 -94v-50h111v-123h-111v-375h-164v375h-170v-375h-164v375h-91v123h91v48q0 229 214 229q48 0 79 -10l-11 -130q-21 7 -45 7q-73 0 -73 -94v-50h170v48q0 229 214 229q48 0 79 -10zM768 0v756h166v-756h-166z" />
    <glyph glyph-name=".notdef" horiz-adv-x="512" 
d="M222 117v67h56v-67h-56zM225 234l-2 17q0 56 13 81q15 28 46 59q50 48 50 83q0 36 -23 61q-22 24 -53 24q-71 0 -82 -95l-50 8q13 137 135 137q54 0 89 -36t35 -95q0 -62 -63 -120q-37 -33 -43 -52t-6 -72h-46zM462 50v617h-412v-617h412zM512 718v-718h-512v718h512z
" />
    <glyph glyph-name="glyph1" horiz-adv-x="500" 
 />
    <glyph glyph-name="glyph1" horiz-adv-x="500" 
 />
    <glyph glyph-name="uni000D" unicode="&#xd;" horiz-adv-x="500" 
 />
    <glyph glyph-name="space" unicode=" " horiz-adv-x="250" 
 />
    <glyph glyph-name="exclam" unicode="!" horiz-adv-x="357" 
d="M94 237v471h168v-471h-168zM247 18q-28 -28 -69 -28q-39 0 -68 27q-29 28 -29 67t28 67q29 28 69 28q41 0 69 -27q29 -28 29 -67q0 -40 -29 -67z" />
    <glyph glyph-name="quotedbl" unicode="&#x22;" horiz-adv-x="498" 
d="M281 437v271h130v-271h-130zM86 437v271h131v-271h-131z" />
    <glyph glyph-name="numbersign" unicode="#" horiz-adv-x="603" 
d="M458 404l-14 -100h85v-104h-98l-30 -200h-110l29 200h-79l-29 -200h-110l29 200h-85v104h99l15 100h-85v104h98l29 200h111l-29 -200h78l29 200h110l-28 -200h84v-104h-99zM269 404l-13 -100h78l14 100h-79z" />
    <glyph glyph-name="dollar" unicode="$" horiz-adv-x="646" 
d="M360 718q134 -4 224 -76l-97 -109q-52 52 -127 54v-160q105 -31 152 -67q75 -56 75 -151q0 -103 -72 -163q-63 -53 -159 -56v-73h-74v73q-150 5 -247 92l105 110q62 -67 142 -69v175q-104 28 -152 66q-66 52 -66 143q0 92 72 152q65 54 151 58v69h73v-68zM287 589
q-70 -8 -70 -71q0 -56 70 -74v145zM356 122q73 3 73 78q0 57 -73 80v-158z" />
    <glyph glyph-name="percent" unicode="%" horiz-adv-x="911" 
d="M833 43q-55 -55 -134 -55t-134 55q-56 55 -56 134t56 134q55 55 134 55t134 -55q56 -55 56 -134t-56 -134zM754 232q-23 23 -55 23t-55 -23t-23 -55t23 -55q23 -22 55 -22t55 22q23 23 23 55t-23 55zM353 398q-55 -56 -134 -56t-134 56q-56 55 -56 133q0 79 56 134
q55 55 134 55t134 -55q56 -55 56 -134q0 -78 -56 -133zM274 586q-23 23 -55 23t-55 -23t-23 -55t23 -55q23 -22 55 -22t55 22q23 23 23 55t-23 55zM296 -34l-89 44l413 730l93 -45z" />
    <glyph glyph-name="ampersand" unicode="&#x26;" horiz-adv-x="781" 
d="M573 0l-67 69q-78 -83 -207 -83q-105 0 -175 52q-79 57 -79 159q0 131 148 196q-73 71 -73 154q0 89 71 138q61 42 150 42t149 -43q67 -49 67 -137q0 -114 -142 -185l89 -91l71 109h182l-153 -205l176 -175h-207zM392 588q-19 19 -49 19q-29 0 -49 -19q-19 -18 -19 -46
q0 -48 53 -92q82 33 82 92q0 28 -18 46zM284 299q-75 -30 -75 -95q0 -40 30 -65q28 -24 66 -24q64 0 104 54z" />
    <glyph glyph-name="quotesingle" unicode="'" horiz-adv-x="303" 
d="M86 437v271h130v-271h-130z" />
    <glyph glyph-name="parenleft" unicode="(" horiz-adv-x="342" 
d="M176 -166q-147 203 -147 454t147 454l112 -55q-130 -178 -130 -399t130 -399z" />
    <glyph glyph-name="parenright" unicode=")" horiz-adv-x="342" 
d="M166 -166l-112 55q130 178 130 399t-130 399l112 55q147 -203 147 -454t-147 -454z" />
    <glyph glyph-name="asterisk" unicode="*" horiz-adv-x="489" 
d="M333 478l81 -107l-90 -63l-81 109l-79 -105l-88 63l81 104l-129 43l35 100l127 -44v130h110v-130l127 40l34 -100z" />
    <glyph glyph-name="plus" unicode="+" horiz-adv-x="666" 
d="M399 240v-209h-130v209h-213v126h212v209h130v-209h213v-126h-212z" />
    <glyph glyph-name="comma" unicode="," 
d="M155 -124h-135l75 284h157z" />
    <glyph glyph-name="hyphen" unicode="-" horiz-adv-x="326" 
d="M36 197v130h254v-130h-254z" />
    <glyph glyph-name="period" unicode="." 
d="M221 18q-29 -28 -70 -28q-42 0 -72 28t-30 69t30 70t72 29q41 0 70 -28q30 -29 30 -70t-30 -70z" />
    <glyph glyph-name="slash" unicode="/" horiz-adv-x="415" 
d="M106 -52l-113 37l309 777l113 -39z" />
    <glyph glyph-name="zero" unicode="0" horiz-adv-x="646" 
d="M537 93q-72 -112 -213 -112q-142 0 -214 112q-64 99 -64 263q0 163 64 261q72 110 214 110q141 0 213 -110q63 -98 63 -261q0 -165 -63 -263zM324 585q-59 0 -86 -81q-20 -59 -20 -148q0 -231 106 -231q104 0 104 231q0 229 -104 229z" />
    <glyph glyph-name="one" unicode="1" horiz-adv-x="646" 
d="M283 0v520l-132 -102l-87 119l233 171h154v-708h-168z" />
    <glyph glyph-name="two" unicode="2" horiz-adv-x="646" 
d="M68 0v140l276 250q58 55 58 109q0 38 -24 61q-24 24 -64 24q-41 0 -68 -30q-27 -29 -32 -77l-161 22q12 105 89 168q75 60 181 60t177 -53q79 -59 79 -164q0 -107 -124 -218l-164 -146h289v-146h-512z" />
    <glyph glyph-name="three" unicode="3" horiz-adv-x="646" 
d="M498 35q-74 -54 -182 -54q-103 0 -176 45q-81 49 -108 143l156 41q24 -88 120 -88q41 0 70 20q33 24 33 70q0 93 -144 93h-45v123h49q124 0 124 84q0 36 -27 58q-25 20 -62 20q-79 0 -97 -79l-156 36q25 86 101 135q70 45 163 45q102 0 171 -49q78 -55 78 -151
q0 -57 -34 -99q-32 -41 -85 -55v-3q60 -14 98 -59q38 -46 38 -105q0 -109 -85 -171z" />
    <glyph glyph-name="four" unicode="4" horiz-adv-x="646" 
d="M515 138v-138h-157v138h-333v141l288 429h201v-434h98v-136h-97zM359 536h-3l-168 -262h171v262z" />
    <glyph glyph-name="five" unicode="5" horiz-adv-x="646" 
d="M498 43q-76 -62 -189 -62q-98 0 -170 48q-74 49 -99 132l153 47q26 -85 114 -85q45 0 74 26q32 28 32 77q0 108 -145 108q-87 0 -173 -31l17 405h434v-144h-285l-6 -112q29 7 71 7q112 0 181 -57q75 -60 75 -168q0 -122 -84 -191z" />
    <glyph glyph-name="six" unicode="6" horiz-adv-x="646" 
d="M519 49q-78 -68 -197 -68t-197 68q-82 71 -82 185q0 101 79 219l171 255h203l-177 -247q21 8 50 8q96 0 163 -64q69 -66 69 -167q0 -117 -82 -189zM403 314q-31 31 -80 31t-81 -31q-31 -31 -31 -81q0 -47 30 -79q32 -33 81 -33t80 31q31 32 31 82q0 48 -30 80z" />
    <glyph glyph-name="seven" unicode="7" horiz-adv-x="646" 
d="M306 0h-195l287 564h-335v144h514v-134z" />
    <glyph glyph-name="eight" unicode="8" horiz-adv-x="646" 
d="M509 36q-74 -55 -186 -55q-113 0 -185 54q-81 60 -81 166q0 62 38 109q34 43 89 60v2q-108 41 -108 153q0 94 74 150q69 52 173 52t172 -50q75 -55 75 -149q0 -119 -108 -155v-3q55 -15 90 -60q37 -47 37 -108q0 -106 -80 -166zM383 574q-25 23 -60 23q-37 0 -61 -23
q-23 -23 -23 -58t23 -59q23 -25 61 -25q36 0 61 25q24 25 24 59t-25 58zM393 276q-28 28 -70 28q-43 0 -71 -27q-28 -28 -28 -69q0 -42 28 -68q27 -26 71 -26t71 26q27 25 27 68q0 41 -28 68z" />
    <glyph glyph-name="nine" unicode="9" horiz-adv-x="646" 
d="M523 255l-171 -255h-203l178 247q-22 -8 -50 -8q-96 0 -163 64q-70 66 -70 167q0 117 82 189q78 68 197 68t198 -68q81 -71 81 -185q0 -101 -79 -219zM404 555q-31 34 -80 34q-50 0 -81 -32t-31 -82q0 -48 30 -79q31 -32 80 -32q50 0 81 31q31 32 31 81q0 47 -30 79z" />
    <glyph glyph-name="colon" unicode=":" horiz-adv-x="332" 
d="M235 342q-29 -28 -68 -28q-40 0 -69 27q-30 28 -30 67q0 40 29 68t70 28q39 0 68 -27q29 -28 29 -67t-29 -68zM235 22q-29 -28 -68 -28q-40 0 -69 27q-30 28 -30 67q0 40 29 68t70 28q39 0 68 -28t29 -67t-29 -67z" />
    <glyph glyph-name="semicolon" unicode=";" horiz-adv-x="332" 
d="M235 343q-28 -28 -68 -28t-68 27q-30 28 -30 67q0 40 29 68q28 28 69 28q39 0 68 -28t29 -67q0 -40 -29 -67zM168 -124h-138l75 284h160z" />
    <glyph glyph-name="less" unicode="&#x3c;" horiz-adv-x="666" 
d="M79 251v103l508 214v-136l-306 -131l306 -127v-137z" />
    <glyph glyph-name="equal" unicode="=" horiz-adv-x="666" 
d="M68 335v123h530v-123h-530zM68 150v123h530v-123h-530z" />
    <glyph glyph-name="greater" unicode="&#x3e;" horiz-adv-x="666" 
d="M79 37v137l306 127l-306 131v136l508 -214v-103z" />
    <glyph glyph-name="question" unicode="?" horiz-adv-x="546" 
d="M497 423q-22 -32 -82 -78q-54 -43 -54 -93v-26h-156v38q0 80 79 150l33 31q41 36 41 71q0 70 -73 70q-39 0 -63 -28q-21 -26 -23 -65l-159 17q11 105 83 163q67 54 168 54q98 0 163 -48q73 -54 73 -152q0 -61 -30 -104zM353 18q-28 -28 -69 -28q-40 0 -69 27
q-29 28 -29 67t29 67t69 28t68 -27q29 -28 29 -67q0 -40 -28 -67z" />
    <glyph glyph-name="at" unicode="@" horiz-adv-x="800" 
d="M715 223q-56 -63 -146 -63q-87 0 -95 64h-4q-37 -64 -119 -64q-67 0 -106 47q-38 47 -38 122q0 89 53 155q55 70 139 70q78 0 95 -54h1l7 34h108l-31 -157q-13 -59 -13 -83q0 -36 29 -36q32 0 54 35q23 38 23 104q0 114 -72 178q-70 60 -187 60q-121 0 -198 -81
q-76 -79 -76 -201q0 -126 81 -202q79 -75 206 -75q136 0 230 86l63 -70q-113 -110 -304 -110q-170 0 -278 104t-108 267q0 158 113 266q112 107 272 107q150 0 251 -82q109 -89 109 -243q0 -112 -59 -178zM409 457q-36 0 -60 -42q-23 -39 -23 -86q0 -70 55 -70q40 0 64 41
q20 35 20 79q0 78 -56 78z" />
    <glyph glyph-name="A" unicode="A" horiz-adv-x="729" 
d="M553 0l-55 139h-274l-52 -139h-186l297 708h166l294 -708h-190zM363 519l-90 -243h178z" />
    <glyph glyph-name="B" unicode="B" horiz-adv-x="665" 
d="M541 45q-71 -45 -186 -45h-282v708h282q99 0 162 -37q79 -47 79 -145q0 -114 -116 -153v-2q64 -11 103 -53q42 -45 42 -112q0 -107 -84 -161zM322 572h-84v-146h92q101 0 101 77q0 69 -109 69zM333 300h-95v-162h96q120 0 120 84q0 78 -121 78z" />
    <glyph glyph-name="C" unicode="C" horiz-adv-x="696" 
d="M696 98q-101 -117 -275 -117q-165 0 -272 104q-109 105 -109 270q0 167 111 271q108 101 273 101q175 0 265 -104l-116 -116q-47 65 -143 65q-89 0 -147 -62q-57 -61 -57 -155q0 -96 56 -157q56 -60 145 -60q99 0 150 72z" />
    <glyph glyph-name="D" unicode="D" horiz-adv-x="774" 
d="M609 85q-110 -85 -272 -85h-264v708h256q172 0 278 -75q127 -92 127 -277q0 -174 -125 -271zM485 519q-59 43 -160 43h-85v-414h81q103 0 163 45q72 53 72 163t-71 163z" />
    <glyph glyph-name="E" unicode="E" horiz-adv-x="607" 
d="M73 0v708h476v-145h-311v-133h294v-137h-294v-147h329v-146h-494z" />
    <glyph glyph-name="F" unicode="F" horiz-adv-x="576" 
d="M242 562v-146h274v-141h-274v-275h-169v708h466v-146h-297z" />
    <glyph glyph-name="G" unicode="G" horiz-adv-x="769" 
d="M702 43q-117 -61 -273 -61q-171 0 -279 103q-110 104 -110 270q0 167 111 271q108 101 273 101q176 0 273 -94l-108 -123q-57 66 -159 66q-90 0 -149 -63t-59 -158q0 -100 56 -160q58 -63 160 -63q63 0 107 19v129h-135v138h292v-375z" />
    <glyph glyph-name="H" unicode="H" horiz-adv-x="764" 
d="M520 0v296h-276v-296h-171v708h171v-268h276v268h171v-708h-171z" />
    <glyph glyph-name="I" unicode="I" horiz-adv-x="318" 
d="M73 0v708h172v-708h-172z" />
    <glyph glyph-name="J" unicode="J" horiz-adv-x="529" 
d="M460 242q0 -106 -44 -172q-59 -89 -189 -89q-87 0 -150 47q-60 45 -80 119l151 51q15 -62 71 -62q69 0 69 105v467h172v-466z" />
    <glyph glyph-name="K" unicode="K" horiz-adv-x="711" 
d="M506 0l-263 326h-2v-326h-168v708h168v-288h3l253 288h214l-305 -326l323 -382h-223z" />
    <glyph glyph-name="L" unicode="L" horiz-adv-x="526" 
d="M73 0v708h172v-559h274v-149h-446z" />
    <glyph glyph-name="M" unicode="M" horiz-adv-x="955" 
d="M715 0l4 501h-3l-184 -501h-120l-179 501h-3l4 -501h-161v708h243l161 -454h4l154 454h247v-708h-167z" />
    <glyph glyph-name="N" unicode="N" horiz-adv-x="790" 
d="M523 0l-285 463h-3l4 -463h-166v708h195l284 -462h3l-4 462h166v-708h-194z" />
    <glyph glyph-name="O" unicode="O" horiz-adv-x="851" 
d="M701 85q-108 -104 -276 -104q-167 0 -275 104q-110 105 -110 272q0 168 110 270q107 100 275 100q169 0 276 -100q110 -102 110 -270q0 -167 -110 -272zM572 512q-58 61 -147 61t-146 -61q-56 -61 -56 -155q0 -96 56 -158q57 -62 146 -62t146 62t57 158q0 94 -56 155z
" />
    <glyph glyph-name="P" unicode="P" horiz-adv-x="640" 
d="M525 317q-73 -50 -196 -50h-85v-267h-171v708h260q277 0 277 -218q0 -115 -85 -173zM319 570h-75v-167h72q123 0 123 86q0 81 -120 81z" />
    <glyph glyph-name="Q" unicode="Q" horiz-adv-x="857" 
d="M414 0q-172 0 -273 95q-105 97 -105 268q0 160 110 263q108 101 274 101t273 -101q108 -101 108 -260q0 -150 -105 -230v-3l149 3v-136h-431zM564 513q-56 59 -144 59q-86 0 -143 -59q-57 -60 -57 -152q0 -95 56 -155q55 -60 143 -60q87 0 144 60t57 155q0 93 -56 152z
" />
    <glyph glyph-name="R" unicode="R" horiz-adv-x="663" 
d="M452 0l-153 281h-58v-281h-168v708h270q116 0 187 -46q84 -56 84 -168q0 -146 -147 -191l185 -303h-200zM331 570h-91v-165h81q124 0 124 86q0 79 -114 79z" />
    <glyph glyph-name="S" unicode="S" horiz-adv-x="591" 
d="M447 524q-48 61 -126 61q-99 0 -99 -71q0 -32 29 -51q21 -13 80 -32q102 -33 146 -65q74 -55 74 -148q0 -115 -83 -179q-74 -57 -188 -57q-168 0 -265 102l112 114q59 -75 153 -75q98 0 98 77q0 37 -39 60q-24 14 -108 41q-83 27 -124 64q-57 52 -57 139q0 110 88 170
q75 52 186 52q137 0 232 -87z" />
    <glyph glyph-name="T" unicode="T" horiz-adv-x="581" 
d="M376 562v-562h-171v562h-200v146h571v-146h-200z" />
    <glyph glyph-name="U" unicode="U" horiz-adv-x="738" 
d="M673 267q0 -128 -83 -207q-84 -79 -222 -79t-221 79q-81 78 -81 207v441h170v-427q0 -63 31 -101q35 -45 102 -45q68 0 103 45q30 38 30 101v427h171v-441z" />
    <glyph glyph-name="V" unicode="V" horiz-adv-x="682" 
d="M424 0h-171l-268 708h192l164 -502h4l163 502h189z" />
    <glyph glyph-name="W" unicode="W" horiz-adv-x="1025" 
d="M823 0h-169l-140 479h-3l-140 -479h-170l-201 708h184l112 -471h3l126 471h178l127 -471h3l114 471h178z" />
    <glyph glyph-name="X" unicode="X" horiz-adv-x="703" 
d="M500 0l-155 250l-149 -250h-204l248 374l-228 334h206l132 -220l130 220h199l-224 -334l256 -374h-211z" />
    <glyph glyph-name="Y" unicode="Y" horiz-adv-x="669" 
d="M417 300v-300h-171v300l-266 408h207l151 -262l151 262h200z" />
    <glyph glyph-name="Z" unicode="Z" horiz-adv-x="635" 
d="M39 0v148l337 415h-329v145h543v-137l-345 -423h352v-148h-558z" />
    <glyph glyph-name="bracketleft" unicode="[" horiz-adv-x="342" 
d="M53 -156v888h216v-102h-89v-684h89v-102h-216z" />
    <glyph glyph-name="backslash" unicode="\" horiz-adv-x="415" 
d="M309 -52l-308 775l113 39l308 -777z" />
    <glyph glyph-name="bracketright" unicode="]" horiz-adv-x="342" 
d="M73 -156v102h89v684h-89v102h216v-888h-216z" />
    <glyph glyph-name="asciicircum" unicode="^" horiz-adv-x="690" 
d="M468 343l-124 213l-123 -213h-148l213 365h118l212 -365h-148z" />
    <glyph glyph-name="underscore" unicode="_" horiz-adv-x="500" 
d="M0 -164v89h500v-89h-500z" />
    <glyph glyph-name="grave" unicode="`" 
d="M107 572l-146 144h166l104 -144h-124z" />
    <glyph glyph-name="a" unicode="a" horiz-adv-x="566" 
d="M358 217h-21q-153 0 -153 -68q0 -51 71 -51q49 0 76 28q27 27 27 74v17zM57 430q89 84 222 84q123 0 177 -64q52 -61 52 -199v-251h-150v53h-3q-40 -65 -141 -65q-71 0 -120 34q-61 42 -61 122q0 168 320 168v8q0 72 -90 72q-68 0 -123 -51z" />
    <glyph glyph-name="b" unicode="b" horiz-adv-x="659" 
d="M557 66q-67 -80 -175 -80q-112 0 -163 79h-2v-65h-151v756h164v-311h2q57 67 152 67q105 0 172 -78q63 -75 63 -183q0 -110 -62 -185zM431 339q-33 39 -88 39q-53 0 -88 -40q-32 -38 -32 -88q0 -51 32 -88q35 -40 88 -40q55 0 88 40q30 36 30 89q0 52 -30 88z" />
    <glyph glyph-name="c" unicode="c" horiz-adv-x="503" 
d="M407 337q-30 40 -87 40q-51 0 -83 -38q-32 -37 -32 -90t32 -89q32 -38 85 -38q58 0 89 37l91 -111q-66 -64 -184 -64q-121 0 -198 71q-81 73 -81 194q0 119 81 193q78 72 197 72q120 0 185 -67z" />
    <glyph glyph-name="d" unicode="d" horiz-adv-x="658" 
d="M441 0v65h-2q-51 -79 -163 -79q-108 0 -175 80q-62 75 -62 185q0 108 63 183q67 78 172 78q95 0 152 -67h2v311h164v-756h-151zM403 338q-35 40 -88 40q-55 0 -88 -39q-30 -36 -30 -88q0 -53 30 -89q33 -40 88 -40q53 0 88 40q32 37 32 88q0 50 -32 88z" />
    <glyph glyph-name="e" unicode="e" horiz-adv-x="596" 
d="M407 306q0 41 -25 67q-26 28 -73 28q-46 0 -79 -28q-31 -28 -34 -67h211zM557 204h-361q4 -40 39 -68q35 -26 80 -26q72 0 110 52l114 -72q-73 -106 -226 -106q-117 0 -193 69q-81 72 -81 194q0 120 78 195q75 72 191 72q112 0 180 -72q70 -73 70 -199q0 -27 -1 -39z" />
    <glyph glyph-name="f" unicode="f" horiz-adv-x="364" 
d="M373 635q-21 7 -45 7q-73 0 -73 -94v-50h111v-123h-111v-375h-164v375h-91v123h91v48q0 229 214 229q48 0 79 -10z" />
    <glyph glyph-name="g" unicode="g" horiz-adv-x="658" 
d="M592 47q0 -142 -80 -217q-76 -70 -213 -70q-151 0 -256 78l82 117q72 -63 165 -63q141 0 141 139v30h-3q-51 -66 -151 -66q-109 0 -176 76q-62 72 -62 180t62 182q67 79 175 79q107 0 159 -78h2v64h155v-451zM403 341q-34 37 -88 37t-86 -37q-31 -35 -31 -89
q0 -52 31 -88q33 -39 86 -39q55 0 89 38q32 36 32 89t-33 89z" />
    <glyph glyph-name="h" unicode="h" horiz-adv-x="617" 
d="M392 0v270q0 105 -73 105q-41 0 -66 -31q-23 -29 -23 -75v-269h-164v756h164v-321h2q42 77 143 77q94 0 142 -64q40 -55 40 -140v-308h-165z" />
    <glyph glyph-name="i" unicode="i" horiz-adv-x="296" 
d="M215 593q-28 -26 -67 -26t-67 27q-27 26 -27 63q0 36 27 63q28 27 67 27t67 -26q27 -27 27 -64q0 -38 -27 -64zM66 0v498h164v-498h-164z" />
    <glyph glyph-name="j" unicode="j" horiz-adv-x="299" 
d="M218 593q-28 -26 -67 -26t-67 27q-27 26 -27 63q0 36 27 63q28 27 67 27t67 -26q27 -27 27 -64q0 -38 -27 -64zM233 -13q0 -227 -199 -227q-42 0 -71 8l11 137q15 -5 35 -5q60 0 60 87v511h164v-511z" />
    <glyph glyph-name="k" unicode="k" horiz-adv-x="595" 
d="M599 0h-203l-163 239h-3v-239h-165v756h165v-460h3l159 202h199l-192 -225z" />
    <glyph glyph-name="l" unicode="l" horiz-adv-x="298" 
d="M66 0v756h166v-756h-166z" />
    <glyph glyph-name="m" unicode="m" horiz-adv-x="924" 
d="M700 0v272q0 105 -71 105q-40 0 -62 -33q-21 -30 -21 -75v-269h-164v284q0 93 -71 93q-38 0 -60 -31q-22 -30 -22 -76v-270h-165v498h159v-69h2q45 83 149 83q106 0 150 -85q54 85 159 85q93 0 141 -67q40 -55 40 -137v-308h-164z" />
    <glyph glyph-name="n" unicode="n" horiz-adv-x="616" 
d="M391 0v272q0 105 -74 105q-42 0 -66 -32q-22 -30 -22 -75v-270h-165v498h159v-69h2q43 83 149 83q93 0 141 -64q41 -55 41 -140v-308h-165z" />
    <glyph glyph-name="o" unicode="o" horiz-adv-x="632" 
d="M510 56q-78 -72 -195 -72q-116 0 -194 72q-82 76 -82 195t82 193q78 70 194 70q117 0 195 -70q82 -74 82 -193t-82 -195zM403 339q-33 39 -88 39t-87 -39q-30 -36 -30 -88t30 -88q33 -41 88 -41t88 41q30 36 30 88q0 51 -31 88z" />
    <glyph glyph-name="p" unicode="p" horiz-adv-x="657" 
d="M556 66q-67 -80 -175 -80q-101 0 -151 69h-2v-295h-164v738h156v-61h3q56 75 159 75q105 0 172 -78q64 -75 64 -183q0 -110 -62 -185zM430 339q-33 39 -88 39q-53 0 -88 -40q-32 -38 -32 -88q0 -51 32 -88q35 -40 88 -40q55 0 88 40q29 36 29 89q0 52 -29 88z" />
    <glyph glyph-name="q" unicode="q" horiz-adv-x="657" 
d="M429 -240v295h-2q-51 -69 -151 -69q-109 0 -175 80q-62 75 -62 185q0 108 63 183q67 78 172 78q104 0 160 -75h3v61h155v-738h-163zM403 338q-35 40 -88 40q-55 0 -88 -39q-30 -36 -30 -88q0 -53 30 -89q33 -40 88 -40q53 0 88 40q32 37 32 88q0 50 -32 88z" />
    <glyph glyph-name="r" unicode="r" horiz-adv-x="396" 
d="M387 364q-19 5 -42 5q-59 0 -91 -41q-26 -32 -26 -72v-256h-164v498h158v-72h2q43 86 135 86q24 0 35 -4z" />
    <glyph glyph-name="s" unicode="s" horiz-adv-x="472" 
d="M357 351q-47 45 -104 45q-62 0 -62 -40q0 -20 22 -30q16 -8 69 -20q159 -36 159 -152q0 -87 -68 -132q-57 -38 -145 -38q-137 0 -217 77l92 97q51 -56 122 -56q59 0 59 43q0 22 -24 34q-19 10 -75 23q-145 34 -145 145q0 82 68 128q58 39 139 39q125 0 200 -70z" />
    <glyph glyph-name="t" unicode="t" horiz-adv-x="372" 
d="M242 375v-190q0 -70 62 -70q29 0 48 8l2 -120q-41 -15 -95 -15q-177 0 -177 177v210h-80v123h79v131h161v-131h117v-123h-117z" />
    <glyph glyph-name="u" unicode="u" horiz-adv-x="614" 
d="M392 0v69h-2q-43 -83 -150 -83q-93 0 -141 65q-40 54 -40 139v308h165v-270q0 -106 74 -106q41 0 65 32q23 30 23 75v269h164v-498h-158z" />
    <glyph glyph-name="v" unicode="v" horiz-adv-x="567" 
d="M372 0h-177l-196 498h181l105 -323h3l105 323h175z" />
    <glyph glyph-name="w" unicode="w" horiz-adv-x="871" 
d="M698 0h-165l-98 310h-2l-96 -310h-165l-172 498h177l86 -315h3l89 315h165l92 -315h2l87 315h170z" />
    <glyph glyph-name="x" unicode="x" horiz-adv-x="594" 
d="M404 0l-107 153l-110 -153h-190l199 261l-180 237h191l93 -133l94 133h185l-179 -237l197 -261h-193z" />
    <glyph glyph-name="y" unicode="y" horiz-adv-x="567" 
d="M345 -75q-32 -84 -78 -121q-52 -44 -141 -44q-46 0 -90 11l18 138q29 -9 53 -9q59 0 84 67l16 41l-208 490h182l111 -320h3l99 320h174z" />
    <glyph glyph-name="z" unicode="z" horiz-adv-x="512" 
d="M34 0v128l234 244h-225v126h425v-123l-241 -248h251v-127h-444z" />
    <glyph glyph-name="braceleft" unicode="{" horiz-adv-x="342" 
d="M210 -156q-62 0 -100 40q-37 41 -37 108v167q0 74 -67 74v110q67 0 67 70v171q0 67 37 108q38 40 100 40h82v-105h-47q-46 0 -46 -60v-167q0 -52 -34 -83q-27 -24 -59 -28v-2q33 -3 59 -26q34 -31 34 -89v-163q0 -60 46 -60h47v-105h-82z" />
    <glyph glyph-name="bar" unicode="|" horiz-adv-x="241" 
d="M56 -250l-1 1000h131v-1000h-130z" />
    <glyph glyph-name="braceright" unicode="}" horiz-adv-x="342" 
d="M336 233q-67 0 -67 -74v-167q0 -67 -37 -108q-38 -40 -100 -40h-82v105h47q46 0 46 60v163q0 58 35 89q25 23 58 26v2q-32 4 -58 28q-35 31 -35 83v167q0 60 -46 60h-47v105h82q62 0 100 -40q37 -41 37 -108v-171q0 -70 67 -70v-110z" />
    <glyph glyph-name="asciitilde" unicode="~" horiz-adv-x="666" 
d="M593 285q-59 -100 -139 -100q-52 0 -112 38q-61 38 -107 38q-50 0 -84 -70l-66 104q51 99 137 99q58 0 120 -37q69 -40 99 -40q40 0 87 71l65 -101v-2z" />
    <glyph glyph-name="uni00A0" unicode="&#xa0;" horiz-adv-x="250" 
 />
    <glyph glyph-name="exclamdown" unicode="&#xa1;" horiz-adv-x="357" 
d="M247 357q-28 -28 -69 -28q-40 0 -69 28q-28 28 -28 67t29 67q29 27 68 27q41 0 69 -28q29 -27 29 -67q0 -39 -29 -66zM94 -200v471h168v-471h-168z" />
    <glyph glyph-name="cent" unicode="&#xa2;" horiz-adv-x="646" 
d="M550 51q-56 -56 -160 -65v-65h-76v65q-105 12 -169 85q-64 72 -64 179q0 106 64 177q63 70 169 85v64h76v-64q106 -7 159 -63l-83 -104q-31 33 -76 39v-270q46 4 79 39zM314 382q-92 -21 -92 -133q0 -108 92 -133v266z" />
    <glyph glyph-name="sterling" unicode="&#xa3;" horiz-adv-x="646" 
d="M529 548q-35 38 -92 38q-105 0 -105 -119v-51h156v-115h-156v-160h259v-141h-519v141h95v160h-95v115h95v61q0 96 60 166q72 84 200 84q122 0 198 -69z" />
    <glyph glyph-name="currency" unicode="&#xa4;" horiz-adv-x="950" 
d="M713 459q42 -65 42 -150q0 -90 -45 -155l93 -93l-84 -84l-97 96q-64 -39 -146 -39q-78 0 -147 41l-99 -98l-84 84l96 96q-42 62 -42 152q0 83 39 147l-93 93l85 84l95 -94q68 41 150 41q83 0 150 -39l92 92l85 -84zM385 402q-35 -38 -35 -93q0 -57 35 -95q36 -39 91 -39
q56 0 92 39q35 38 35 95q0 54 -35 93q-37 39 -92 39t-91 -39z" />
    <glyph glyph-name="yen" unicode="&#xa5;" horiz-adv-x="646" 
d="M458 416h124v-103h-179v-65h179v-103h-179v-145h-158v145h-178v103h178v65h-178v103h127l-182 292h185l132 -260l129 260h179z" />
    <glyph glyph-name="brokenbar" unicode="&#xa6;" horiz-adv-x="241" 
d="M55 313v362h131v-362h-131zM55 -175v362h131v-362h-131z" />
    <glyph glyph-name="section" unicode="&#xa7;" horiz-adv-x="607" 
d="M487 154q50 -35 50 -110q0 -95 -80 -148q-68 -44 -164 -44q-173 0 -253 121l122 87q43 -73 134 -73q28 0 49 13q24 14 24 38q0 31 -31 50q-22 13 -100 40q-88 30 -125 61q-51 41 -51 109q0 89 86 138q-53 39 -53 113q0 86 77 135q65 42 153 42q157 0 228 -103l-116 -88
q-39 60 -105 60q-28 0 -48 -12q-23 -13 -23 -37q0 -41 117 -82q89 -33 130 -68q54 -47 54 -117q0 -83 -75 -125zM336 339l-86 35q-41 -17 -41 -53q0 -41 80 -72l94 -37q31 14 31 51q0 43 -78 76z" />
    <glyph glyph-name="dieresis" unicode="&#xa8;" 
d="M317 600q-24 -24 -58 -24q-35 0 -59 24t-24 58q0 33 24 57t59 24q34 0 58 -24q25 -23 25 -57t-25 -58zM100 600q-24 -24 -59 -24q-34 0 -59 24q-24 24 -24 58q0 33 24 57q25 24 59 24q35 0 59 -24q25 -23 25 -57t-25 -58z" />
    <glyph glyph-name="copyright" unicode="&#xa9;" horiz-adv-x="800" 
d="M669 87q-111 -109 -268 -109q-158 0 -269 109q-112 110 -112 266q0 157 112 267q111 110 269 110q157 0 268 -110t111 -267q0 -156 -111 -266zM627 580q-94 94 -226 94q-133 0 -227 -94t-94 -227q0 -132 93 -225q93 -94 226 -94q132 0 227 94q94 93 94 225q0 133 -93 227
zM508 440q-31 39 -90 39q-53 0 -85 -39q-29 -36 -29 -87q0 -52 30 -88q34 -40 90 -40q57 0 88 36l72 -76q-60 -63 -165 -63q-101 0 -167 60q-70 63 -70 170q0 104 70 168q67 61 167 61q109 0 166 -71z" />
    <glyph glyph-name="ordfeminine" unicode="&#xaa;" horiz-adv-x="384" 
d="M236 458h-1q-22 -34 -84 -34q-43 0 -72 21q-34 24 -34 67q0 98 186 98v4q0 35 -50 35q-40 0 -68 -28l-54 55q50 47 131 47q139 0 139 -128v-164h-93v27zM234 553h-12q-80 0 -80 -35q0 -27 37 -27q55 0 55 50v12z" />
    <glyph glyph-name="guillemotleft" unicode="&#xab;" horiz-adv-x="543" 
d="M412 22l-161 232l161 232l97 -63l-115 -169l115 -169zM186 22l-161 232l161 232l97 -63l-115 -169l116 -169z" />
    <glyph glyph-name="logicalnot" unicode="&#xac;" horiz-adv-x="666" 
d="M476 145v183h-425v123h555v-306h-130z" />
    <glyph glyph-name="uni00AD" unicode="&#xad;" horiz-adv-x="326" 
d="M36 197v130h254v-130h-254z" />
    <glyph glyph-name="registered" unicode="&#xae;" horiz-adv-x="600" 
d="M305 521q28 0 28 23q0 18 -28 18h-26v-41h26zM339 365l-44 94h-16v-94h-88v266h114q121 0 121 -86q0 -55 -48 -74l61 -106h-100zM139 653q67 66 162 66q94 0 160 -66q67 -67 67 -161t-67 -160q-66 -65 -160 -65q-95 0 -162 65q-67 66 -67 160t67 161zM164 357
q57 -57 137 -57q79 0 135 57q56 56 56 135q0 80 -56 136t-135 56q-80 0 -137 -56q-56 -56 -56 -136q0 -79 56 -135z" />
    <glyph glyph-name="macron" unicode="&#xaf;" 
d="M-18 601v86h336v-86h-336z" />
    <glyph glyph-name="degree" unicode="&#xb0;" horiz-adv-x="416" 
d="M327 439q-48 -49 -119 -49q-70 0 -119 49t-49 119t49 119q48 48 119 48t119 -48q49 -49 49 -119t-49 -119zM270 620q-25 26 -62 26t-62 -26q-26 -26 -26 -62q0 -37 26 -62q25 -26 62 -26t62 26q26 25 26 62q0 36 -26 62z" />
    <glyph glyph-name="plusminus" unicode="&#xb1;" horiz-adv-x="666" 
d="M404 331v-132h-130v132h-213v127h213v132h130v-132h212v-127h-212zM61 31v127h555v-127h-555z" />
    <glyph glyph-name="uni00B2" unicode="&#xb2;" horiz-adv-x="420" 
d="M55 445v92l170 156q29 26 29 56q0 40 -45 40q-49 0 -54 -61l-110 14q7 69 56 109q46 39 113 39t110 -32q50 -36 50 -102t-76 -134l-87 -77h163v-100h-319z" />
    <glyph glyph-name="uni00B3" unicode="&#xb3;" horiz-adv-x="420" 
d="M327 469q-46 -33 -112 -33q-141 0 -176 122l105 28q16 -53 64 -53q56 0 56 46q0 47 -78 47h-33v84h36q65 0 65 47q0 38 -46 38q-41 0 -51 -48l-105 25q16 56 63 88q44 30 101 30q64 0 106 -29q47 -33 47 -92q0 -67 -57 -96q67 -23 67 -100q0 -67 -52 -104z" />
    <glyph glyph-name="acute" unicode="&#xb4;" 
d="M193 572h-124l104 144h166z" />
    <glyph glyph-name="uni00B5" unicode="&#xb5;" horiz-adv-x="663" 
d="M628 1q-36 -13 -85 -13q-96 0 -111 81h-2q-13 -32 -43 -56q-36 -27 -78 -27q-55 0 -77 27h-2v-253h-166v738h166v-268q0 -108 74 -108q41 0 65 32q23 30 23 77v267h166v-339q0 -43 38 -43q15 0 30 5z" />
    <glyph glyph-name="paragraph" unicode="&#xb6;" horiz-adv-x="618" 
d="M439 -129v737h-85v-737h-116v464q-98 2 -156 52t-58 131q0 190 244 190h287v-837h-116z" />
    <glyph glyph-name="periodcentered" unicode="&#xb7;" 
d="M221 221q-29 -28 -70 -28q-42 0 -72 28t-30 69t30 70t72 29q41 0 70 -28q30 -29 30 -70t-30 -70z" />
    <glyph glyph-name="cedilla" unicode="&#xb8;" 
d="M233 -220q-39 -20 -97 -20q-67 0 -119 25l27 60q40 -19 84 -19q50 0 50 33q0 29 -47 29q-22 0 -40 -6l-31 29l67 89h82l-47 -60q7 1 18 1q103 0 103 -83q0 -52 -50 -78z" />
    <glyph glyph-name="uni00B9" unicode="&#xb9;" horiz-adv-x="420" 
d="M181 445v306l-74 -58l-60 81l145 107h106v-436h-117z" />
    <glyph glyph-name="ordmasculine" unicode="&#xba;" horiz-adv-x="384" 
d="M303 465q-44 -41 -111 -41q-66 0 -110 41q-45 43 -45 110q0 66 45 108q44 41 110 41q67 0 111 -41q45 -42 45 -108q0 -67 -45 -110zM237 619q-18 19 -45 19t-44 -19q-15 -18 -15 -44q0 -27 15 -45q17 -19 44 -19q28 0 45 19q16 18 16 45q0 26 -16 44z" />
    <glyph glyph-name="guillemotright" unicode="&#xbb;" horiz-adv-x="543" 
d="M357 22l-97 63l115 168l-115 170l97 63l162 -233zM132 22l-97 63l115 168l-116 170l98 63l161 -233z" />
    <glyph glyph-name="onequarter" unicode="&#xbc;" horiz-adv-x="940" 
d="M824 83v-83h-106v83h-200v93l175 260h131v-259h58v-94h-58zM718 311h-1l-88 -134h89v134zM313 -30l-87 39l384 730l91 -40zM180 272v306l-74 -58l-60 81l145 107h106v-436h-117z" />
    <glyph glyph-name="onehalf" unicode="&#xbd;" horiz-adv-x="940" 
d="M575 0v92l170 156q29 26 29 55q0 41 -44 41q-50 0 -55 -61l-110 14q7 68 56 109q47 39 113 39t110 -33q50 -36 50 -102t-76 -134l-87 -76h163v-100h-319zM313 -30l-87 39l384 730l91 -40zM180 272v306l-74 -58l-60 81l145 107h106v-436h-117z" />
    <glyph glyph-name="threequarters" unicode="&#xbe;" horiz-adv-x="940" 
d="M824 83v-83h-106v83h-200v93l175 260h131v-259h58v-94h-58zM718 311h-1l-88 -134h89v134zM313 -30l-87 39l384 730l91 -40zM327 300q-46 -33 -112 -33q-141 0 -176 122l105 28q16 -53 64 -53q56 0 56 46q0 47 -78 47h-33v84h36q65 0 65 46q0 38 -46 38q-41 0 -51 -48
l-105 25q16 56 63 88q44 30 101 30q64 0 106 -29q47 -33 47 -92q0 -66 -57 -95q67 -23 67 -100q0 -67 -52 -104z" />
    <glyph glyph-name="questiondown" unicode="&#xbf;" horiz-adv-x="546" 
d="M332 357q-29 -28 -69 -28t-69 28q-29 27 -29 66q0 40 29 67q28 28 69 28q40 0 69 -27q29 -28 29 -67t-29 -67zM507 -2q-12 -105 -84 -162q-67 -54 -168 -54q-97 0 -162 48q-74 54 -74 151q0 96 113 183q54 41 54 92v26h156v-37q0 -78 -79 -151l-34 -30q-41 -37 -41 -71
q0 -32 20 -52q20 -19 54 -19q39 0 62 29q22 26 23 65z" />
    <glyph glyph-name="Agrave" unicode="&#xc0;" horiz-adv-x="729" 
d="M553 0l-55 139h-274l-52 -139h-186l297 708h166l294 -708h-190zM363 519l-90 -243h178zM315 764l-146 144h166l104 -144h-124z" />
    <glyph glyph-name="Aacute" unicode="&#xc1;" horiz-adv-x="729" 
d="M553 0l-55 139h-274l-52 -139h-186l297 708h166l294 -708h-190zM363 519l-90 -243h178zM418 764h-124l104 144h166z" />
    <glyph glyph-name="Acircumflex" unicode="&#xc2;" horiz-adv-x="729" 
d="M553 0l-55 139h-274l-52 -139h-186l297 708h166l294 -708h-190zM363 519l-90 -243h178zM434 764l-68 81l-68 -81h-128l124 144h148l122 -144h-130z" />
    <glyph glyph-name="Atilde" unicode="&#xc3;" horiz-adv-x="729" 
d="M553 0l-55 139h-274l-52 -139h-186l297 708h166l294 -708h-190zM363 519l-90 -243h178zM551 900q-15 -132 -113 -132q-35 0 -81 21q-39 20 -63 20q-31 0 -42 -40h-72q17 130 113 130q37 0 80 -20t65 -20q32 0 42 41h71z" />
    <glyph glyph-name="Adieresis" unicode="&#xc4;" horiz-adv-x="729" 
d="M553 0l-55 139h-274l-52 -139h-186l297 708h166l294 -708h-190zM363 519l-90 -243h178zM533 792q-24 -24 -58 -24q-35 0 -59 24t-24 58q0 33 24 57t59 24q34 0 58 -24q25 -23 25 -57t-25 -58zM316 792q-24 -24 -59 -24q-34 0 -59 24q-24 24 -24 58q0 33 24 57
q25 24 59 24q35 0 59 -24q25 -23 25 -57t-25 -58z" />
    <glyph glyph-name="Aring" unicode="&#xc5;" horiz-adv-x="729" 
d="M553 0l-55 139h-274l-52 -139h-186l297 708h166l294 -708h-190zM363 519l-90 -243h178zM444 779q-31 -30 -77 -30q-45 0 -77 30q-32 31 -32 76q0 46 32 77q31 31 77 31q45 0 77 -31t32 -76q0 -46 -32 -77zM409 897q-17 17 -42 17t-42 -17t-17 -42q0 -24 17 -40
q17 -17 42 -17t42 17q17 16 17 41t-17 41z" />
    <glyph glyph-name="AE" unicode="&#xc6;" horiz-adv-x="1033" 
d="M514 0v153h-231l-88 -153h-199l414 708h565v-145h-298v-133h281v-137h-281v-147h316v-146h-479zM514 563h-10l-153 -272h163v272z" />
    <glyph glyph-name="Ccedilla" unicode="&#xc7;" horiz-adv-x="696" 
d="M481 -220q-39 -20 -97 -20q-67 0 -119 25l27 60q40 -19 84 -19q50 0 50 33q0 29 -47 29q-22 0 -40 -6l-31 29l55 74q-143 18 -232 118q-91 102 -91 252q0 167 111 271q108 101 273 101q175 0 265 -104l-116 -116q-47 65 -143 65q-89 0 -147 -62q-57 -61 -57 -155
q0 -96 56 -157q56 -60 145 -60q99 0 150 72l119 -112q-93 -109 -254 -116l-32 -42q7 1 18 1q103 0 103 -83q0 -52 -50 -78z" />
    <glyph glyph-name="Egrave" unicode="&#xc8;" horiz-adv-x="607" 
d="M73 0v708h476v-145h-311v-133h294v-137h-294v-147h329v-146h-494zM282 764l-146 144h166l104 -144h-124z" />
    <glyph glyph-name="Eacute" unicode="&#xc9;" horiz-adv-x="607" 
d="M73 0v708h476v-145h-311v-133h294v-137h-294v-147h329v-146h-494zM357 764h-124l104 144h166z" />
    <glyph glyph-name="Ecircumflex" unicode="&#xca;" horiz-adv-x="607" 
d="M73 0v708h476v-145h-311v-133h294v-137h-294v-147h329v-146h-494zM382 764l-68 81l-68 -81h-128l124 144h148l122 -144h-130z" />
    <glyph glyph-name="Edieresis" unicode="&#xcb;" horiz-adv-x="607" 
d="M73 0v708h476v-145h-311v-133h294v-137h-294v-147h329v-146h-494zM482 792q-24 -24 -58 -24q-35 0 -59 24t-24 58q0 33 24 57t59 24q34 0 58 -24q25 -23 25 -57t-25 -58zM265 792q-24 -24 -59 -24q-34 0 -59 24q-24 24 -24 58q0 33 24 57q25 24 59 24q35 0 59 -24
q25 -23 25 -57t-25 -58z" />
    <glyph glyph-name="Igrave" unicode="&#xcc;" horiz-adv-x="318" 
d="M73 0v708h172v-708h-172zM121 764l-146 144h166l104 -144h-124z" />
    <glyph glyph-name="Iacute" unicode="&#xcd;" horiz-adv-x="318" 
d="M73 0v708h172v-708h-172zM197 764h-124l104 144h166z" />
    <glyph glyph-name="Icircumflex" unicode="&#xce;" horiz-adv-x="318" 
d="M73 0v708h172v-708h-172zM225 764l-68 81l-68 -81h-128l124 144h148l122 -144h-130z" />
    <glyph glyph-name="Idieresis" unicode="&#xcf;" horiz-adv-x="318" 
d="M73 0v708h172v-708h-172zM326 792q-24 -24 -58 -24q-35 0 -59 24t-24 58q0 33 24 57t59 24q34 0 58 -24q25 -23 25 -57t-25 -58zM109 792q-24 -24 -59 -24q-34 0 -59 24q-24 24 -24 58q0 33 24 57q25 24 59 24q35 0 59 -24q25 -23 25 -57t-25 -58z" />
    <glyph glyph-name="Eth" unicode="&#xd0;" horiz-adv-x="774" 
d="M609 86q-108 -86 -263 -86h-272v309h-61v107h61v292h273q165 0 268 -81q117 -94 117 -271q0 -172 -123 -270zM494 510q-59 49 -163 49h-90v-143h181v-107h-181v-159h74q111 0 173 48q69 53 69 158q0 101 -63 154z" />
    <glyph glyph-name="Ntilde" unicode="&#xd1;" horiz-adv-x="790" 
d="M523 0l-285 463h-3l4 -463h-166v708h195l284 -462h3l-4 462h166v-708h-194zM584 900q-15 -132 -113 -132q-35 0 -81 21q-39 20 -63 20q-31 0 -42 -40h-72q17 130 113 130q37 0 80 -20t65 -20q32 0 42 41h71z" />
    <glyph glyph-name="Ograve" unicode="&#xd2;" horiz-adv-x="851" 
d="M701 85q-108 -104 -276 -104q-167 0 -275 104q-110 105 -110 272q0 168 110 270q107 100 275 100q169 0 276 -100q110 -102 110 -270q0 -167 -110 -272zM572 512q-58 61 -147 61t-146 -61q-56 -61 -56 -155q0 -96 56 -158q57 -62 146 -62t146 62t57 158q0 94 -56 155z
M403 764l-146 144h166l104 -144h-124z" />
    <glyph glyph-name="Oacute" unicode="&#xd3;" horiz-adv-x="851" 
d="M701 85q-108 -104 -276 -104q-167 0 -275 104q-110 105 -110 272q0 168 110 270q107 100 275 100q169 0 276 -100q110 -102 110 -270q0 -167 -110 -272zM572 512q-58 61 -147 61t-146 -61q-56 -61 -56 -155q0 -96 56 -158q57 -62 146 -62t146 62t57 158q0 94 -56 155z
M459 764h-124l104 144h166z" />
    <glyph glyph-name="Ocircumflex" unicode="&#xd4;" horiz-adv-x="851" 
d="M701 85q-108 -104 -276 -104q-167 0 -275 104q-110 105 -110 272q0 168 110 270q107 100 275 100q169 0 276 -100q110 -102 110 -270q0 -167 -110 -272zM572 512q-58 61 -147 61t-146 -61q-56 -61 -56 -155q0 -96 56 -158q57 -62 146 -62t146 62t57 158q0 94 -56 155z
M493 764l-68 81l-68 -81h-128l124 144h148l122 -144h-130z" />
    <glyph glyph-name="Otilde" unicode="&#xd5;" horiz-adv-x="851" 
d="M701 85q-108 -104 -276 -104q-167 0 -275 104q-110 105 -110 272q0 168 110 270q107 100 275 100q169 0 276 -100q110 -102 110 -270q0 -167 -110 -272zM572 512q-58 61 -147 61t-146 -61q-56 -61 -56 -155q0 -96 56 -158q57 -62 146 -62t146 62t57 158q0 94 -56 155z
M612 900q-15 -132 -113 -132q-35 0 -81 21q-39 20 -63 20q-31 0 -42 -40h-72q17 130 113 130q37 0 80 -20t65 -20q32 0 42 41h71z" />
    <glyph glyph-name="Odieresis" unicode="&#xd6;" horiz-adv-x="851" 
d="M701 85q-108 -104 -276 -104q-167 0 -275 104q-110 105 -110 272q0 168 110 270q107 100 275 100q169 0 276 -100q110 -102 110 -270q0 -167 -110 -272zM572 512q-58 61 -147 61t-146 -61q-56 -61 -56 -155q0 -96 56 -158q57 -62 146 -62t146 62t57 158q0 94 -56 155z
M593 792q-24 -24 -58 -24q-35 0 -59 24t-24 58q0 33 24 57t59 24q34 0 58 -24q25 -23 25 -57t-25 -58zM376 792q-24 -24 -59 -24q-34 0 -59 24q-24 24 -24 58q0 33 24 57q25 24 59 24q35 0 59 -24q25 -23 25 -57t-25 -58z" />
    <glyph glyph-name="multiply" unicode="&#xd7;" horiz-adv-x="666" 
d="M510 37l-177 173l-176 -173l-93 89l177 175l-178 174l94 91l177 -173l174 172l91 -87l-174 -173l179 -175z" />
    <glyph glyph-name="Oslash" unicode="&#xd8;" horiz-adv-x="851" 
d="M150 626q107 100 275 100q126 0 219 -58l87 97l67 -59q-17 -17 -43 -46l-43 -47q99 -101 99 -257q0 -166 -110 -270q-109 -103 -277 -104h-5q-135 0 -224 69l-89 -95l-67 57l89 97q-88 94 -88 246q0 168 110 270zM597 486l-292 -318q46 -37 119 -37q95 0 154 65
q57 63 57 160q0 80 -38 130zM245 235l290 315q-43 29 -110 29q-96 0 -155 -65q-56 -63 -56 -159q0 -73 31 -120z" />
    <glyph glyph-name="Ugrave" unicode="&#xd9;" horiz-adv-x="738" 
d="M673 267q0 -128 -83 -207q-84 -79 -222 -79t-221 79q-81 78 -81 207v441h170v-427q0 -63 31 -101q35 -45 102 -45q68 0 103 45q30 38 30 101v427h171v-441zM346 764l-146 144h166l104 -144h-124z" />
    <glyph glyph-name="Uacute" unicode="&#xda;" horiz-adv-x="738" 
d="M673 267q0 -128 -83 -207q-84 -79 -222 -79t-221 79q-81 78 -81 207v441h170v-427q0 -63 31 -101q35 -45 102 -45q68 0 103 45q30 38 30 101v427h171v-441zM397 764h-124l104 144h166z" />
    <glyph glyph-name="Ucircumflex" unicode="&#xdb;" horiz-adv-x="738" 
d="M673 267q0 -128 -83 -207q-84 -79 -222 -79t-221 79q-81 78 -81 207v441h170v-427q0 -63 31 -101q35 -45 102 -45q68 0 103 45q30 38 30 101v427h171v-441zM437 764l-68 81l-68 -81h-128l124 144h148l122 -144h-130z" />
    <glyph glyph-name="Udieresis" unicode="&#xdc;" horiz-adv-x="738" 
d="M673 267q0 -128 -83 -207q-84 -79 -222 -79t-221 79q-81 78 -81 207v441h170v-427q0 -63 31 -101q35 -45 102 -45q68 0 103 45q30 38 30 101v427h171v-441zM537 792q-24 -24 -58 -24q-35 0 -59 24t-24 58q0 33 24 57t59 24q34 0 58 -24q25 -23 25 -57t-25 -58zM320 792
q-24 -24 -59 -24q-34 0 -59 24q-24 24 -24 58q0 33 24 57q25 24 59 24q35 0 59 -24q25 -23 25 -57t-25 -58z" />
    <glyph glyph-name="Yacute" unicode="&#xdd;" horiz-adv-x="669" 
d="M417 300v-300h-171v300l-266 408h207l151 -262l151 262h200zM397 764h-124l104 144h166z" />
    <glyph glyph-name="Thorn" unicode="&#xde;" horiz-adv-x="640" 
d="M525 196q-73 -50 -196 -50h-85v-146h-171v708h171v-121h89q277 0 277 -218q0 -115 -85 -173zM319 450h-75v-168h72q123 0 123 86q0 82 -120 82z" />
    <glyph glyph-name="germandbls" unicode="&#xdf;" horiz-adv-x="667" 
d="M277 140q36 -13 73 -13q113 0 113 103q0 57 -40 87q-36 27 -95 27h-21v129h22q86 0 86 81q0 34 -21 57q-24 24 -63 24q-103 0 -103 -135v-500h-164v501q0 120 66 191q72 76 208 76q103 0 171 -53q71 -56 71 -147q0 -54 -30 -96q-29 -40 -74 -54v-1q70 -14 111 -65
q42 -53 42 -130q0 -109 -70 -173q-69 -62 -186 -62q-46 0 -96 12v141z" />
    <glyph glyph-name="agrave" unicode="&#xe0;" horiz-adv-x="566" 
d="M358 217h-21q-153 0 -153 -68q0 -51 71 -51q49 0 76 28q27 27 27 74v17zM57 430q89 84 222 84q123 0 177 -64q52 -61 52 -199v-251h-150v53h-3q-40 -65 -141 -65q-71 0 -120 34q-61 42 -61 122q0 168 320 168v8q0 72 -90 72q-68 0 -123 -51zM258 572l-146 144h166
l104 -144h-124z" />
    <glyph glyph-name="aacute" unicode="&#xe1;" horiz-adv-x="566" 
d="M358 217h-21q-153 0 -153 -68q0 -51 71 -51q49 0 76 28q27 27 27 74v17zM57 430q89 84 222 84q123 0 177 -64q52 -61 52 -199v-251h-150v53h-3q-40 -65 -141 -65q-71 0 -120 34q-61 42 -61 122q0 168 320 168v8q0 72 -90 72q-68 0 -123 -51zM312 572h-124l104 144h166z
" />
    <glyph glyph-name="acircumflex" unicode="&#xe2;" horiz-adv-x="566" 
d="M358 217h-21q-153 0 -153 -68q0 -51 71 -51q49 0 76 28q27 27 27 74v17zM57 430q89 84 222 84q123 0 177 -64q52 -61 52 -199v-251h-150v53h-3q-40 -65 -141 -65q-71 0 -120 34q-61 42 -61 122q0 168 320 168v8q0 72 -90 72q-68 0 -123 -51zM352 572l-68 81l-68 -81h-128
l124 144h148l122 -144h-130z" />
    <glyph glyph-name="atilde" unicode="&#xe3;" horiz-adv-x="566" 
d="M358 217h-21q-153 0 -153 -68q0 -51 71 -51q49 0 76 28q27 27 27 74v17zM57 430q89 84 222 84q123 0 177 -64q52 -61 52 -199v-251h-150v53h-3q-40 -65 -141 -65q-71 0 -120 34q-61 42 -61 122q0 168 320 168v8q0 72 -90 72q-68 0 -123 -51zM473 708q-15 -132 -113 -132
q-35 0 -81 21q-39 20 -63 20q-31 0 -42 -40h-72q17 130 113 130q37 0 80 -20t65 -20q32 0 42 41h71z" />
    <glyph glyph-name="adieresis" unicode="&#xe4;" horiz-adv-x="566" 
d="M358 217h-21q-153 0 -153 -68q0 -51 71 -51q49 0 76 28q27 27 27 74v17zM57 430q89 84 222 84q123 0 177 -64q52 -61 52 -199v-251h-150v53h-3q-40 -65 -141 -65q-71 0 -120 34q-61 42 -61 122q0 168 320 168v8q0 72 -90 72q-68 0 -123 -51zM452 600q-24 -24 -58 -24
q-35 0 -59 24t-24 58q0 33 24 57t59 24q34 0 58 -24q25 -23 25 -57t-25 -58zM235 600q-24 -24 -59 -24q-34 0 -59 24q-24 24 -24 58q0 33 24 57q25 24 59 24q35 0 59 -24q25 -23 25 -57t-25 -58z" />
    <glyph glyph-name="aring" unicode="&#xe5;" horiz-adv-x="566" 
d="M358 217h-21q-153 0 -153 -68q0 -51 71 -51q49 0 76 28q27 27 27 74v17zM57 430q89 84 222 84q123 0 177 -64q52 -61 52 -199v-251h-150v53h-3q-40 -65 -141 -65q-71 0 -120 34q-61 42 -61 122q0 168 320 168v8q0 72 -90 72q-68 0 -123 -51zM364 587q-31 -30 -77 -30
q-45 0 -77 30q-32 31 -32 76q0 46 32 77q31 31 77 31q45 0 77 -31t32 -76q0 -46 -32 -77zM329 705q-17 17 -42 17t-42 -17t-17 -42q0 -24 17 -40q17 -17 42 -17t42 17q17 16 17 41t-17 41z" />
    <glyph glyph-name="ae" unicode="&#xe6;" horiz-adv-x="899" 
d="M358 207h-21q-77 0 -112 -11q-41 -13 -41 -47q0 -51 71 -51q103 0 103 93v16zM709 306q0 41 -25 67q-26 28 -73 28q-46 0 -79 -28q-31 -28 -34 -67h211zM840 90q-72 -106 -226 -106q-125 0 -187 90q-53 -86 -202 -86q-75 0 -128 35q-64 43 -64 121q0 95 99 133
q74 28 221 28v7q0 80 -89 80q-69 0 -124 -51l-82 89q87 84 221 84q111 0 161 -73q63 73 171 73q111 0 180 -72q70 -74 70 -199q0 -15 -2 -39h-360q4 -41 39 -68q34 -26 79 -26q74 0 110 52z" />
    <glyph glyph-name="ccedilla" unicode="&#xe7;" horiz-adv-x="503" 
d="M380 -220q-39 -20 -97 -20q-67 0 -119 25l27 60q40 -19 84 -19q50 0 50 33q0 29 -47 29q-22 0 -40 -6l-31 29l58 77q-101 15 -162 83q-64 71 -64 178q0 119 81 193q78 72 197 72q120 0 185 -67l-95 -110q-30 40 -87 40q-51 0 -83 -38q-32 -37 -32 -90t32 -89
q32 -38 85 -38q58 0 89 37l91 -111q-57 -55 -158 -63l-35 -45q7 1 18 1q103 0 103 -83q0 -52 -50 -78z" />
    <glyph glyph-name="egrave" unicode="&#xe8;" horiz-adv-x="596" 
d="M407 306q0 41 -25 67q-26 28 -73 28q-46 0 -79 -28q-31 -28 -34 -67h211zM557 204h-361q4 -40 39 -68q35 -26 80 -26q72 0 110 52l114 -72q-73 -106 -226 -106q-117 0 -193 69q-81 72 -81 194q0 120 78 195q75 72 191 72q112 0 180 -72q70 -73 70 -199q0 -27 -1 -39z
M278 572l-146 144h166l104 -144h-124z" />
    <glyph glyph-name="eacute" unicode="&#xe9;" horiz-adv-x="596" 
d="M407 306q0 41 -25 67q-26 28 -73 28q-46 0 -79 -28q-31 -28 -34 -67h211zM557 204h-361q4 -40 39 -68q35 -26 80 -26q72 0 110 52l114 -72q-73 -106 -226 -106q-117 0 -193 69q-81 72 -81 194q0 120 78 195q75 72 191 72q112 0 180 -72q70 -73 70 -199q0 -27 -1 -39z
M331 572h-124l104 144h166z" />
    <glyph glyph-name="ecircumflex" unicode="&#xea;" horiz-adv-x="596" 
d="M407 306q0 41 -25 67q-26 28 -73 28q-46 0 -79 -28q-31 -28 -34 -67h211zM557 204h-361q4 -40 39 -68q35 -26 80 -26q72 0 110 52l114 -72q-73 -106 -226 -106q-117 0 -193 69q-81 72 -81 194q0 120 78 195q75 72 191 72q112 0 180 -72q70 -73 70 -199q0 -27 -1 -39z
M381 572l-68 81l-68 -81h-128l124 144h148l122 -144h-130z" />
    <glyph glyph-name="edieresis" unicode="&#xeb;" horiz-adv-x="596" 
d="M407 306q0 41 -25 67q-26 28 -73 28q-46 0 -79 -28q-31 -28 -34 -67h211zM557 204h-361q4 -40 39 -68q35 -26 80 -26q72 0 110 52l114 -72q-73 -106 -226 -106q-117 0 -193 69q-81 72 -81 194q0 120 78 195q75 72 191 72q112 0 180 -72q70 -73 70 -199q0 -27 -1 -39z
M480 600q-24 -24 -58 -24q-35 0 -59 24t-24 58q0 33 24 57t59 24q34 0 58 -24q25 -23 25 -57t-25 -58zM263 600q-24 -24 -59 -24q-34 0 -59 24q-24 24 -24 58q0 33 24 57q25 24 59 24q35 0 59 -24q25 -23 25 -57t-25 -58z" />
    <glyph glyph-name="igrave" unicode="&#xec;" horiz-adv-x="296" 
d="M66 0v498h164v-498h-164zM104 572l-146 144h166l104 -144h-124z" />
    <glyph glyph-name="iacute" unicode="&#xed;" horiz-adv-x="296" 
d="M66 0v498h164v-498h-164zM191 572h-124l104 144h166z" />
    <glyph glyph-name="icircumflex" unicode="&#xee;" horiz-adv-x="296" 
d="M66 0v498h164v-498h-164zM218 572l-68 81l-68 -81h-128l124 144h148l122 -144h-130z" />
    <glyph glyph-name="idieresis" unicode="&#xef;" horiz-adv-x="296" 
d="M66 0v498h164v-498h-164zM317 600q-24 -24 -58 -24q-35 0 -59 24t-24 58q0 33 24 57t59 24q34 0 58 -24q25 -23 25 -57t-25 -58zM100 600q-24 -24 -59 -24q-34 0 -59 24q-24 24 -24 58q0 33 24 57q25 24 59 24q35 0 59 -24q25 -23 25 -57t-25 -58z" />
    <glyph glyph-name="eth" unicode="&#xf0;" horiz-adv-x="632" 
d="M517 64q-76 -80 -202 -80q-117 0 -195 72q-81 75 -81 194q0 117 77 190q75 70 187 70q49 0 82 -25l2 1q-51 75 -98 114l-108 -48l-80 70l109 47q-25 25 -75 59l127 71q34 -25 86 -72l113 50l87 -71l-121 -52q166 -180 166 -372q0 -137 -76 -218zM404 337q-34 40 -89 40
t-88 -40q-30 -36 -30 -87q0 -52 31 -88q33 -40 88 -40t88 40q31 36 31 88q0 51 -31 87z" />
    <glyph glyph-name="ntilde" unicode="&#xf1;" horiz-adv-x="616" 
d="M391 0v272q0 105 -74 105q-42 0 -66 -32q-22 -30 -22 -75v-270h-165v498h159v-69h2q43 83 149 83q93 0 141 -64q41 -55 41 -140v-308h-165zM497 708q-15 -132 -113 -132q-35 0 -81 21q-39 20 -63 20q-31 0 -42 -40h-72q17 130 113 130q37 0 80 -20t65 -20q32 0 42 41h71z
" />
    <glyph glyph-name="ograve" unicode="&#xf2;" horiz-adv-x="632" 
d="M510 56q-78 -72 -195 -72q-116 0 -194 72q-82 76 -82 195t82 193q78 70 194 70q117 0 195 -70q82 -74 82 -193t-82 -195zM403 339q-33 39 -88 39t-87 -39q-30 -36 -30 -88t30 -88q33 -41 88 -41t88 41q30 36 30 88q0 51 -31 88zM273 572l-146 144h166l104 -144h-124z" />
    <glyph glyph-name="oacute" unicode="&#xf3;" horiz-adv-x="632" 
d="M510 56q-78 -72 -195 -72q-116 0 -194 72q-82 76 -82 195t82 193q78 70 194 70q117 0 195 -70q82 -74 82 -193t-82 -195zM403 339q-33 39 -88 39t-87 -39q-30 -36 -30 -88t30 -88q33 -41 88 -41t88 41q30 36 30 88q0 51 -31 88zM354 572h-124l104 144h166z" />
    <glyph glyph-name="ocircumflex" unicode="&#xf4;" horiz-adv-x="632" 
d="M510 56q-78 -72 -195 -72q-116 0 -194 72q-82 76 -82 195t82 193q78 70 194 70q117 0 195 -70q82 -74 82 -193t-82 -195zM403 339q-33 39 -88 39t-87 -39q-30 -36 -30 -88t30 -88q33 -41 88 -41t88 41q30 36 30 88q0 51 -31 88zM381 576l-66 79l-66 -79h-125l121 140h144
l118 -140h-126z" />
    <glyph glyph-name="otilde" unicode="&#xf5;" horiz-adv-x="632" 
d="M510 56q-78 -72 -195 -72q-116 0 -194 72q-82 76 -82 195t82 193q78 70 194 70q117 0 195 -70q82 -74 82 -193t-82 -195zM403 339q-33 39 -88 39t-87 -39q-30 -36 -30 -88t30 -88q33 -41 88 -41t88 41q30 36 30 88q0 51 -31 88zM501 708q-15 -132 -113 -132q-35 0 -81 21
q-39 20 -63 20q-31 0 -42 -40h-72q17 130 113 130q37 0 80 -20t65 -20q32 0 42 41h71z" />
    <glyph glyph-name="odieresis" unicode="&#xf6;" horiz-adv-x="632" 
d="M510 56q-78 -72 -195 -72q-116 0 -194 72q-82 76 -82 195t82 193q78 70 194 70q117 0 195 -70q82 -74 82 -193t-82 -195zM403 339q-33 39 -88 39t-87 -39q-30 -36 -30 -88t30 -88q33 -41 88 -41t88 41q30 36 30 88q0 51 -31 88zM482 600q-24 -24 -58 -24q-35 0 -59 24
t-24 58q0 33 24 57t59 24q34 0 58 -24q25 -23 25 -57t-25 -58zM265 600q-24 -24 -59 -24q-34 0 -59 24q-24 24 -24 58q0 33 24 57q25 24 59 24q35 0 59 -24q25 -23 25 -57t-25 -58z" />
    <glyph glyph-name="divide" unicode="&#xf7;" horiz-adv-x="666" 
d="M272 548q26 25 61 25t61 -25q25 -25 25 -59q0 -35 -25 -60q-26 -25 -61 -25t-61 25t-26 60q0 34 26 59zM272 176q26 25 61 25t61 -25q25 -25 25 -59q0 -35 -25 -60q-26 -25 -61 -25t-61 25q-26 26 -26 60t26 59zM79 240v127h507v-127h-507z" />
    <glyph glyph-name="oslash" unicode="&#xf8;" horiz-adv-x="632" 
d="M537 411q55 -64 55 -161q0 -118 -81 -193q-79 -73 -196 -73q-93 0 -157 47l-75 -74l-59 58l72 71q-57 65 -57 164q0 118 81 193q78 72 195 72q94 0 160 -49l72 72l60 -58zM372 365q-24 19 -59 19q-56 0 -90 -40q-31 -37 -31 -90q0 -37 14 -57zM423 306l-167 -168
q22 -20 61 -20q56 0 89 40q30 37 30 90q0 36 -13 58z" />
    <glyph glyph-name="ugrave" unicode="&#xf9;" horiz-adv-x="614" 
d="M392 0v69h-2q-43 -83 -150 -83q-93 0 -141 65q-40 54 -40 139v308h165v-270q0 -106 74 -106q41 0 65 32q23 30 23 75v269h164v-498h-158zM284 572l-146 144h166l104 -144h-124z" />
    <glyph glyph-name="uacute" unicode="&#xfa;" horiz-adv-x="614" 
d="M392 0v69h-2q-43 -83 -150 -83q-93 0 -141 65q-40 54 -40 139v308h165v-270q0 -106 74 -106q41 0 65 32q23 30 23 75v269h164v-498h-158zM343 572h-124l104 144h166z" />
    <glyph glyph-name="ucircumflex" unicode="&#xfb;" horiz-adv-x="614" 
d="M392 0v69h-2q-43 -83 -150 -83q-93 0 -141 65q-40 54 -40 139v308h165v-270q0 -106 74 -106q41 0 65 32q23 30 23 75v269h164v-498h-158zM375 572l-68 81l-68 -81h-128l124 144h148l122 -144h-130z" />
    <glyph glyph-name="udieresis" unicode="&#xfc;" horiz-adv-x="614" 
d="M392 0v69h-2q-43 -83 -150 -83q-93 0 -141 65q-40 54 -40 139v308h165v-270q0 -106 74 -106q41 0 65 32q23 30 23 75v269h164v-498h-158zM474 600q-24 -24 -58 -24q-35 0 -59 24t-24 58q0 33 24 57t59 24q34 0 58 -24q25 -23 25 -57t-25 -58zM257 600q-24 -24 -59 -24
q-34 0 -59 24q-24 24 -24 58q0 33 24 57q25 24 59 24q35 0 59 -24q25 -23 25 -57t-25 -58z" />
    <glyph glyph-name="yacute" unicode="&#xfd;" horiz-adv-x="567" 
d="M345 -75q-32 -84 -78 -121q-52 -44 -141 -44q-46 0 -90 11l18 138q29 -9 53 -9q59 0 84 67l16 41l-208 490h182l111 -320h3l99 320h174zM342 572h-124l104 144h166z" />
    <glyph glyph-name="thorn" unicode="&#xfe;" horiz-adv-x="659" 
d="M557 66q-66 -80 -175 -80q-104 0 -151 70h-2v-296h-163v996h163v-311h3q57 67 152 67q105 0 172 -78q63 -75 63 -183q0 -110 -62 -185zM431 339q-33 39 -88 39q-53 0 -88 -40q-32 -38 -32 -88q0 -51 32 -88q35 -40 88 -40q55 0 88 40q30 36 30 89q0 52 -30 88z" />
    <glyph glyph-name="ydieresis" unicode="&#xff;" horiz-adv-x="567" 
d="M345 -75q-32 -84 -78 -121q-52 -44 -141 -44q-46 0 -90 11l18 138q29 -9 53 -9q59 0 84 67l16 41l-208 490h182l111 -320h3l99 320h174zM460 600q-24 -24 -58 -24q-35 0 -59 24t-24 58q0 33 24 57t59 24q34 0 58 -24q25 -23 25 -57t-25 -58zM243 600q-24 -24 -59 -24
q-34 0 -59 24q-24 24 -24 58q0 33 24 57q25 24 59 24q35 0 59 -24q25 -23 25 -57t-25 -58z" />
    <glyph glyph-name="Amacron" unicode="&#x100;" horiz-adv-x="729" 
d="M553 0l-55 139h-274l-52 -139h-186l297 708h166l294 -708h-190zM363 519l-90 -243h178zM196 793v86h336v-86h-336z" />
    <glyph glyph-name="amacron" unicode="&#x101;" horiz-adv-x="566" 
d="M358 217h-21q-153 0 -153 -68q0 -51 71 -51q49 0 76 28q27 27 27 74v17zM57 430q89 84 222 84q123 0 177 -64q52 -61 52 -199v-251h-150v53h-3q-40 -65 -141 -65q-71 0 -120 34q-61 42 -61 122q0 168 320 168v8q0 72 -90 72q-68 0 -123 -51zM118 601v86h336v-86h-336z
" />
    <glyph glyph-name="Abreve" unicode="&#x102;" horiz-adv-x="729" 
d="M553 0l-55 139h-274l-52 -139h-186l297 708h166l294 -708h-190zM363 519l-90 -243h178zM537 908q-12 -144 -175 -144t-173 144h84q9 -55 90 -55q79 0 90 55h84z" />
    <glyph glyph-name="abreve" unicode="&#x103;" horiz-adv-x="566" 
d="M358 217h-21q-153 0 -153 -68q0 -51 71 -51q49 0 76 28q27 27 27 74v17zM57 430q89 84 222 84q123 0 177 -64q52 -61 52 -199v-251h-150v53h-3q-40 -65 -141 -65q-71 0 -120 34q-61 42 -61 122q0 168 320 168v8q0 72 -90 72q-68 0 -123 -51zM460 716q-12 -144 -175 -144
t-173 144h84q6 -29 32 -44q23 -11 58 -11q79 0 90 55h84z" />
    <glyph glyph-name="Aogonek" unicode="&#x104;" horiz-adv-x="729" 
d="M680 -196q-54 -40 -115 -40q-46 0 -77 21q-36 25 -36 70q0 71 102 145h-1l-55 139h-274l-52 -139h-186l297 708h166l294 -708h-97q-90 -72 -90 -118q0 -36 37 -36q27 0 55 20zM363 519l-90 -243h178z" />
    <glyph glyph-name="aogonek" unicode="&#x105;" horiz-adv-x="566" 
d="M480 -196q-54 -40 -115 -40q-46 0 -77 21q-36 25 -36 70q0 74 106 147v51h-3q-40 -65 -141 -65q-71 0 -120 34q-61 42 -61 122q0 168 320 168v8q0 72 -90 72q-68 0 -123 -51l-83 89q89 84 222 84q123 0 177 -64q52 -61 52 -199v-251h-62q-90 -72 -90 -118q0 -36 37 -36
q27 0 55 20zM358 217h-21q-153 0 -153 -68q0 -51 71 -51q49 0 76 28q27 27 27 74v17z" />
    <glyph glyph-name="Cacute" unicode="&#x106;" horiz-adv-x="696" 
d="M696 98q-101 -117 -275 -117q-165 0 -272 104q-109 105 -109 270q0 167 111 271q108 101 273 101q175 0 265 -104l-116 -116q-47 65 -143 65q-89 0 -147 -62q-57 -61 -57 -155q0 -96 56 -157q56 -60 145 -60q99 0 150 72zM453 764h-124l104 144h166z" />
    <glyph glyph-name="cacute" unicode="&#x107;" horiz-adv-x="503" 
d="M407 337q-30 40 -87 40q-51 0 -83 -38q-32 -37 -32 -90t32 -89q32 -38 85 -38q58 0 89 37l91 -111q-66 -64 -184 -64q-121 0 -198 71q-81 73 -81 194q0 119 81 193q78 72 197 72q120 0 185 -67zM357 572h-124l104 144h166z" />
    <glyph glyph-name="Ccircumflex" unicode="&#x108;" horiz-adv-x="696" 
d="M696 98q-101 -117 -275 -117q-165 0 -272 104q-109 105 -109 270q0 167 111 271q108 101 273 101q175 0 265 -104l-116 -116q-47 65 -143 65q-89 0 -147 -62q-57 -61 -57 -155q0 -96 56 -157q56 -60 145 -60q99 0 150 72zM495 764l-68 81l-68 -81h-128l124 144h148
l122 -144h-130z" />
    <glyph glyph-name="ccircumflex" unicode="&#x109;" horiz-adv-x="503" 
d="M407 337q-30 40 -87 40q-51 0 -83 -38q-32 -37 -32 -90t32 -89q32 -38 85 -38q58 0 89 37l91 -111q-66 -64 -184 -64q-121 0 -198 71q-81 73 -81 194q0 119 81 193q78 72 197 72q120 0 185 -67zM386 572l-68 81l-68 -81h-128l124 144h148l122 -144h-130z" />
    <glyph glyph-name="Cdotaccent" unicode="&#x10a;" horiz-adv-x="696" 
d="M696 98q-101 -117 -275 -117q-165 0 -272 104q-109 105 -109 270q0 167 111 271q108 101 273 101q175 0 265 -104l-116 -116q-47 65 -143 65q-89 0 -147 -62q-57 -61 -57 -155q0 -96 56 -157q56 -60 145 -60q99 0 150 72zM489 789q-26 -25 -64 -25q-37 0 -63 25t-26 60
t26 60q26 26 63 26q38 0 64 -25t26 -61t-26 -60z" />
    <glyph glyph-name="cdotaccent" unicode="&#x10b;" horiz-adv-x="503" 
d="M407 337q-30 40 -87 40q-51 0 -83 -38q-32 -37 -32 -90t32 -89q32 -38 85 -38q58 0 89 37l91 -111q-66 -64 -184 -64q-121 0 -198 71q-81 73 -81 194q0 119 81 193q78 72 197 72q120 0 185 -67zM384 597q-26 -25 -64 -25q-37 0 -63 25t-26 60t26 60q26 26 63 26
q38 0 64 -25t26 -61t-26 -60z" />
    <glyph glyph-name="Ccaron" unicode="&#x10c;" horiz-adv-x="696" 
d="M696 98q-101 -117 -275 -117q-165 0 -272 104q-109 105 -109 270q0 167 111 271q108 101 273 101q175 0 265 -104l-116 -116q-47 65 -143 65q-89 0 -147 -62q-57 -61 -57 -155q0 -96 56 -157q56 -60 145 -60q99 0 150 72zM501 764h-147l-124 144h130l68 -81l68 81h128z
" />
    <glyph glyph-name="ccaron" unicode="&#x10d;" horiz-adv-x="503" 
d="M407 337q-30 40 -87 40q-51 0 -83 -38q-32 -37 -32 -90t32 -89q32 -38 85 -38q58 0 89 37l91 -111q-66 -64 -184 -64q-121 0 -198 71q-81 73 -81 194q0 119 81 193q78 72 197 72q120 0 185 -67zM391 572h-147l-124 144h130l68 -81l68 81h128z" />
    <glyph glyph-name="Dcaron" unicode="&#x10e;" horiz-adv-x="774" 
d="M609 85q-110 -85 -272 -85h-264v708h256q172 0 278 -75q127 -92 127 -277q0 -174 -125 -271zM485 519q-59 43 -160 43h-85v-414h81q103 0 163 45q72 53 72 163t-71 163zM431 764h-147l-124 144h130l68 -81l68 81h128z" />
    <glyph glyph-name="dcaron" unicode="&#x10f;" horiz-adv-x="791" 
d="M441 0v65h-2q-51 -79 -163 -79q-108 0 -175 80q-62 75 -62 185q0 108 63 183q67 78 172 78q95 0 152 -67h2v311h164v-756h-151zM403 338q-35 40 -88 40q-55 0 -88 -39q-30 -36 -30 -88q0 -53 30 -89q33 -40 88 -40q53 0 88 40q32 37 32 88q0 50 -32 88zM746 513h-126
l67 195h145z" />
    <glyph glyph-name="Dcroat" unicode="&#x110;" horiz-adv-x="774" 
d="M609 86q-108 -86 -263 -86h-272v309h-61v107h61v292h273q165 0 268 -81q117 -94 117 -271q0 -172 -123 -270zM494 510q-59 49 -163 49h-90v-143h181v-107h-181v-159h74q111 0 173 48q69 53 69 158q0 101 -63 154z" />
    <glyph glyph-name="dcroat" unicode="&#x111;" horiz-adv-x="658" 
d="M441 0v65h-2q-51 -79 -163 -79q-108 0 -175 80q-62 75 -62 185q0 108 63 183q67 78 172 78q95 0 152 -67h2v125h-149v89h149v97h164v-97h46v-89h-46v-570h-151zM403 338q-35 40 -88 40q-55 0 -88 -39q-30 -36 -30 -88q0 -53 30 -89q33 -40 88 -40q53 0 88 40q32 37 32 88
q0 50 -32 88z" />
    <glyph glyph-name="Emacron" unicode="&#x112;" horiz-adv-x="607" 
d="M73 0v708h476v-145h-311v-133h294v-137h-294v-147h329v-146h-494zM142 793v86h336v-86h-336z" />
    <glyph glyph-name="emacron" unicode="&#x113;" horiz-adv-x="596" 
d="M407 306q0 41 -25 67q-26 28 -73 28q-46 0 -79 -28q-31 -28 -34 -67h211zM557 204h-361q4 -40 39 -68q35 -26 80 -26q72 0 110 52l114 -72q-73 -106 -226 -106q-117 0 -193 69q-81 72 -81 194q0 120 78 195q75 72 191 72q112 0 180 -72q70 -73 70 -199q0 -27 -1 -39z
M144 601v86h336v-86h-336z" />
    <glyph glyph-name="Ebreve" unicode="&#x114;" horiz-adv-x="607" 
d="M73 0v708h476v-145h-311v-133h294v-137h-294v-147h329v-146h-494zM484 908q-12 -144 -175 -144t-173 144h84q9 -55 90 -55q79 0 90 55h84z" />
    <glyph glyph-name="ebreve" unicode="&#x115;" horiz-adv-x="596" 
d="M407 306q0 41 -25 67q-26 28 -73 28q-46 0 -79 -28q-31 -28 -34 -67h211zM557 204h-361q4 -40 39 -68q35 -26 80 -26q72 0 110 52l114 -72q-73 -106 -226 -106q-117 0 -193 69q-81 72 -81 194q0 120 78 195q75 72 191 72q112 0 180 -72q70 -73 70 -199q0 -27 -1 -39z
M486 716q-12 -144 -175 -144t-173 144h84q6 -29 32 -44q23 -11 58 -11q79 0 90 55h84z" />
    <glyph glyph-name="Edotaccent" unicode="&#x116;" horiz-adv-x="607" 
d="M73 0v708h476v-145h-311v-133h294v-137h-294v-147h329v-146h-494zM374 789q-26 -25 -64 -25q-37 0 -63 25t-26 60t26 60q26 26 63 26q38 0 64 -25t26 -61t-26 -60z" />
    <glyph glyph-name="edotaccent" unicode="&#x117;" horiz-adv-x="596" 
d="M407 306q0 41 -25 67q-26 28 -73 28q-46 0 -79 -28q-31 -28 -34 -67h211zM557 204h-361q4 -40 39 -68q35 -26 80 -26q72 0 110 52l114 -72q-73 -106 -226 -106q-117 0 -193 69q-81 72 -81 194q0 120 78 195q75 72 191 72q112 0 180 -72q70 -73 70 -199q0 -27 -1 -39z
M375 597q-26 -25 -64 -25q-37 0 -63 25t-26 60t26 60q26 26 63 26q38 0 64 -25t26 -61t-26 -60z" />
    <glyph glyph-name="Eogonek" unicode="&#x118;" horiz-adv-x="607" 
d="M584 -196q-54 -40 -115 -40q-46 0 -77 21q-36 25 -36 70q0 71 102 145h-385v708h476v-145h-311v-133h294v-137h-294v-147h329v-146h-17q-90 -72 -90 -118q0 -36 37 -36q27 0 55 20z" />
    <glyph glyph-name="eogonek" unicode="&#x119;" horiz-adv-x="596" 
d="M434 -196q-54 -40 -115 -40q-46 0 -77 21q-36 25 -36 70q0 62 82 130q-108 7 -177 75q-72 72 -72 187q0 120 78 195q75 72 191 72q112 0 180 -72q70 -73 70 -199q0 -27 -1 -39h-361q4 -40 39 -68q35 -26 80 -26q72 0 110 52l114 -72q-51 -76 -149 -97q-80 -68 -80 -111
q0 -36 37 -36q27 0 55 20zM407 306q0 41 -25 67q-26 28 -73 28q-46 0 -79 -28q-31 -28 -34 -67h211z" />
    <glyph glyph-name="Ecaron" unicode="&#x11a;" horiz-adv-x="607" 
d="M73 0v708h476v-145h-311v-133h294v-137h-294v-147h329v-146h-494zM385 764h-147l-124 144h130l68 -81l68 81h128z" />
    <glyph glyph-name="ecaron" unicode="&#x11b;" horiz-adv-x="596" 
d="M407 306q0 41 -25 67q-26 28 -73 28q-46 0 -79 -28q-31 -28 -34 -67h211zM557 204h-361q4 -40 39 -68q35 -26 80 -26q72 0 110 52l114 -72q-73 -106 -226 -106q-117 0 -193 69q-81 72 -81 194q0 120 78 195q75 72 191 72q112 0 180 -72q70 -73 70 -199q0 -27 -1 -39z
M386 572h-147l-124 144h130l68 -81l68 81h128z" />
    <glyph glyph-name="Gcircumflex" unicode="&#x11c;" horiz-adv-x="769" 
d="M702 43q-117 -61 -273 -61q-171 0 -279 103q-110 104 -110 270q0 167 111 271q108 101 273 101q176 0 273 -94l-108 -123q-57 66 -159 66q-90 0 -149 -63t-59 -158q0 -100 56 -160q58 -63 160 -63q63 0 107 19v129h-135v138h292v-375zM499 764l-68 81l-68 -81h-128
l124 144h148l122 -144h-130z" />
    <glyph glyph-name="gcircumflex" unicode="&#x11d;" horiz-adv-x="658" 
d="M592 47q0 -142 -80 -217q-76 -70 -213 -70q-151 0 -256 78l82 117q72 -63 165 -63q141 0 141 139v30h-3q-51 -66 -151 -66q-109 0 -176 76q-62 72 -62 180t62 182q67 79 175 79q107 0 159 -78h2v64h155v-451zM403 341q-34 37 -88 37t-86 -37q-31 -35 -31 -89
q0 -52 31 -88q33 -39 86 -39q55 0 89 38q32 36 32 89t-33 89zM387 572l-68 81l-68 -81h-128l124 144h148l122 -144h-130z" />
    <glyph glyph-name="Gbreve" unicode="&#x11e;" horiz-adv-x="769" 
d="M702 43q-117 -61 -273 -61q-171 0 -279 103q-110 104 -110 270q0 167 111 271q108 101 273 101q176 0 273 -94l-108 -123q-57 66 -159 66q-90 0 -149 -63t-59 -158q0 -100 56 -160q58 -63 160 -63q63 0 107 19v129h-135v138h292v-375zM610 908q-12 -144 -175 -144
t-173 144h84q9 -55 90 -55q79 0 90 55h84z" />
    <glyph glyph-name="gbreve" unicode="&#x11f;" horiz-adv-x="658" 
d="M592 47q0 -142 -80 -217q-76 -70 -213 -70q-151 0 -256 78l82 117q72 -63 165 -63q141 0 141 139v30h-3q-51 -66 -151 -66q-109 0 -176 76q-62 72 -62 180t62 182q67 79 175 79q107 0 159 -78h2v64h155v-451zM403 341q-34 37 -88 37t-86 -37q-31 -35 -31 -89
q0 -52 31 -88q33 -39 86 -39q55 0 89 38q32 36 32 89t-33 89zM499 716q-12 -144 -175 -144t-173 144h84q6 -29 32 -44q23 -11 58 -11q79 0 90 55h84z" />
    <glyph glyph-name="Gdotaccent" unicode="&#x120;" horiz-adv-x="769" 
d="M702 43q-117 -61 -273 -61q-171 0 -279 103q-110 104 -110 270q0 167 111 271q108 101 273 101q176 0 273 -94l-108 -123q-57 66 -159 66q-90 0 -149 -63t-59 -158q0 -100 56 -160q58 -63 160 -63q63 0 107 19v129h-135v138h292v-375zM495 789q-26 -25 -64 -25
q-37 0 -63 25t-26 60t26 60q26 26 63 26q38 0 64 -25t26 -61t-26 -60z" />
    <glyph glyph-name="gdotaccent" unicode="&#x121;" horiz-adv-x="658" 
d="M592 47q0 -142 -80 -217q-76 -70 -213 -70q-151 0 -256 78l82 117q72 -63 165 -63q141 0 141 139v30h-3q-51 -66 -151 -66q-109 0 -176 76q-62 72 -62 180t62 182q67 79 175 79q107 0 159 -78h2v64h155v-451zM403 341q-34 37 -88 37t-86 -37q-31 -35 -31 -89
q0 -52 31 -88q33 -39 86 -39q55 0 89 38q32 36 32 89t-33 89zM385 597q-26 -25 -64 -25q-37 0 -63 25t-26 60t26 60q26 26 63 26q38 0 64 -25t26 -61t-26 -60z" />
    <glyph glyph-name="Gcommaaccent" unicode="&#x122;" horiz-adv-x="769" 
d="M702 43q-117 -61 -273 -61q-171 0 -279 103q-110 104 -110 270q0 167 111 271q108 101 273 101q176 0 273 -94l-108 -123q-57 66 -159 66q-90 0 -149 -63t-59 -158q0 -100 56 -160q58 -63 160 -63q63 0 107 19v129h-135v138h292v-375zM420 -240h-126l67 195h145z" />
    <glyph glyph-name="gcommaaccent" unicode="&#x123;" horiz-adv-x="658" 
d="M592 47q0 -142 -80 -217q-76 -70 -213 -70q-151 0 -256 78l82 117q72 -63 165 -63q141 0 141 139v30h-3q-51 -66 -151 -66q-109 0 -176 76q-62 72 -62 180t62 182q67 79 175 79q107 0 159 -78h2v64h155v-451zM403 341q-34 37 -88 37t-86 -37q-31 -35 -31 -89
q0 -52 31 -88q33 -39 86 -39q55 0 89 38q32 36 32 89t-33 89zM333 767h126l-67 -195h-145z" />
    <glyph glyph-name="Hcircumflex" unicode="&#x124;" horiz-adv-x="764" 
d="M520 0v296h-276v-296h-171v708h171v-268h276v268h171v-708h-171zM452 764l-68 81l-68 -81h-128l124 144h148l122 -144h-130z" />
    <glyph glyph-name="hcircumflex" unicode="&#x125;" horiz-adv-x="617" 
d="M392 0v270q0 105 -73 105q-41 0 -66 -31q-23 -29 -23 -75v-269h-164v756h164v-321h2q42 77 143 77q94 0 142 -64q40 -55 40 -140v-308h-165zM382 796l-68 81l-68 -81h-128l124 144h148l122 -144h-130z" />
    <glyph glyph-name="Hbar" unicode="&#x126;" horiz-adv-x="764" 
d="M520 0v296h-276v-296h-171v708h171v-119h276v119h171v-708h-171zM520 440v60h-276v-60h276z" />
    <glyph glyph-name="hbar" unicode="&#x127;" horiz-adv-x="617" 
d="M392 0v270q0 105 -73 105q-41 0 -66 -31q-23 -29 -23 -75v-269h-164v570h-46v89h46v97h164v-97h149v-89h-149v-135h2q42 77 143 77q94 0 142 -64q40 -55 40 -140v-308h-165z" />
    <glyph glyph-name="Itilde" unicode="&#x128;" horiz-adv-x="318" 
d="M73 0v708h172v-708h-172zM345 900q-15 -132 -113 -132q-35 0 -81 21q-39 20 -63 20q-31 0 -42 -40h-72q17 130 113 130q37 0 80 -20t65 -20q32 0 42 41h71z" />
    <glyph glyph-name="itilde" unicode="&#x129;" horiz-adv-x="296" 
d="M66 0v498h164v-498h-164zM335 708q-15 -132 -113 -132q-35 0 -81 21q-39 20 -63 20q-31 0 -42 -40h-72q17 130 113 130q37 0 80 -20t65 -20q32 0 42 41h71z" />
    <glyph glyph-name="Imacron" unicode="&#x12a;" horiz-adv-x="318" 
d="M73 0v708h172v-708h-172zM-10 793v86h336v-86h-336z" />
    <glyph glyph-name="imacron" unicode="&#x12b;" horiz-adv-x="296" 
d="M66 0v498h164v-498h-164zM-18 601v86h336v-86h-336z" />
    <glyph glyph-name="Ibreve" unicode="&#x12c;" horiz-adv-x="318" 
d="M73 0v708h172v-708h-172zM333 908q-12 -144 -175 -144t-173 144h84q9 -55 90 -55q79 0 90 55h84z" />
    <glyph glyph-name="ibreve" unicode="&#x12d;" horiz-adv-x="296" 
d="M66 0v498h164v-498h-164zM322 716q-12 -144 -175 -144t-173 144h84q6 -29 32 -44q23 -11 58 -11q79 0 90 55h84z" />
    <glyph glyph-name="Iogonek" unicode="&#x12e;" horiz-adv-x="318" 
d="M268 -196q-54 -40 -115 -40q-46 0 -77 21q-36 25 -36 70q0 71 102 145h-69v708h172v-708h-11q-90 -72 -90 -118q0 -36 37 -36q27 0 55 20z" />
    <glyph glyph-name="iogonek" unicode="&#x12f;" horiz-adv-x="296" 
d="M249 -196q-54 -40 -115 -40q-46 0 -77 21q-36 25 -36 70q0 71 102 145h-57v498h164v-498h-15q-90 -72 -90 -118q0 -36 37 -36q27 0 55 20zM215 593q-28 -26 -67 -26t-67 27q-27 26 -27 63q0 36 27 63q28 27 67 27t67 -26q27 -27 27 -64q0 -38 -27 -64z" />
    <glyph glyph-name="Idotaccent" unicode="&#x130;" horiz-adv-x="318" 
d="M73 0v708h172v-708h-172zM223 789q-26 -25 -64 -25q-37 0 -63 25t-26 60t26 60q26 26 63 26q38 0 64 -25t26 -61t-26 -60z" />
    <glyph glyph-name="dotlessi" unicode="&#x131;" horiz-adv-x="296" 
d="M66 0v498h164v-498h-164z" />
    <glyph glyph-name="IJ" unicode="&#x132;" horiz-adv-x="837" 
d="M73 0v708h172v-708h-172zM768 242q0 -106 -44 -172q-59 -89 -189 -89q-87 0 -150 47q-60 45 -80 119l151 51q15 -62 71 -62q69 0 69 105v467h172v-466z" />
    <glyph glyph-name="ij" unicode="&#x133;" horiz-adv-x="589" 
d="M215 593q-28 -26 -67 -26t-67 27q-27 26 -27 63q0 36 27 63q28 27 67 27t67 -26q27 -27 27 -64q0 -38 -27 -64zM66 0v498h164v-498h-164zM508 593q-28 -26 -67 -26t-67 27q-27 26 -27 63q0 36 27 63q28 27 67 27t67 -26q27 -27 27 -64q0 -38 -27 -64zM523 -13
q0 -227 -199 -227q-42 0 -71 8l11 137q15 -5 35 -5q60 0 60 87v511h164v-511z" />
    <glyph glyph-name="Jcircumflex" unicode="&#x134;" horiz-adv-x="529" 
d="M460 242q0 -106 -44 -172q-59 -89 -189 -89q-87 0 -150 47q-60 45 -80 119l151 51q15 -62 71 -62q69 0 69 105v467h172v-466zM440 764l-68 81l-68 -81h-128l124 144h148l122 -144h-130z" />
    <glyph glyph-name="jcircumflex" unicode="&#x135;" horiz-adv-x="299" 
d="M233 -13q0 -227 -199 -227q-42 0 -71 8l11 137q15 -5 35 -5q60 0 60 87v511h164v-511zM216 572l-68 81l-68 -81h-128l124 144h148l122 -144h-130z" />
    <glyph glyph-name="Kcommaaccent" unicode="&#x136;" horiz-adv-x="711" 
d="M506 0l-263 326h-2v-326h-168v708h168v-288h3l253 288h214l-305 -326l323 -382h-223zM357 -240h-126l67 195h145z" />
    <glyph glyph-name="kcommaaccent" unicode="&#x137;" horiz-adv-x="595" 
d="M599 0h-203l-163 239h-3v-239h-165v756h165v-460h3l159 202h199l-192 -225zM299 -240h-126l67 195h145z" />
    <glyph glyph-name="kgreenlandic" unicode="&#x138;" horiz-adv-x="595" 
d="M599 0h-203l-163 239h-3v-239h-165v498h165v-202h3l159 202h199l-192 -225z" />
    <glyph glyph-name="Lacute" unicode="&#x139;" horiz-adv-x="526" 
d="M73 0v708h172v-559h274v-149h-446zM219 764h-124l104 144h166z" />
    <glyph glyph-name="lacute" unicode="&#x13a;" horiz-adv-x="298" 
d="M66 0v756h166v-756h-166zM190 792h-124l104 144h166z" />
    <glyph glyph-name="Lcommaaccent" unicode="&#x13b;" horiz-adv-x="526" 
d="M73 0v708h172v-559h274v-149h-446zM280 -240h-126l67 195h145z" />
    <glyph glyph-name="lcommaaccent" unicode="&#x13c;" horiz-adv-x="298" 
d="M66 0v756h166v-756h-166zM137 -240h-126l67 195h145z" />
    <glyph glyph-name="Lcaron" unicode="&#x13d;" horiz-adv-x="526" 
d="M73 0v708h172v-559h274v-149h-446zM400 513h-126l67 195h145z" />
    <glyph glyph-name="lcaron" unicode="&#x13e;" horiz-adv-x="432" 
d="M66 0v756h166v-756h-166zM387 513h-126l67 195h145z" />
    <glyph glyph-name="Ldot" unicode="&#x13f;" horiz-adv-x="526" 
d="M73 0v708h172v-559h274v-149h-446zM452 377q-26 -25 -64 -25q-37 0 -63 25t-26 60t26 60q26 26 63 26q38 0 64 -25t26 -61t-26 -60z" />
    <glyph glyph-name="ldot" unicode="&#x140;" horiz-adv-x="448" 
d="M66 0v756h166v-756h-166zM422 407q-26 -25 -64 -25q-37 0 -63 25t-26 60t26 60q26 26 63 26q38 0 64 -25t26 -61t-26 -60z" />
    <glyph glyph-name="Lslash" unicode="&#x141;" horiz-adv-x="526" 
d="M73 0v177l-64 -56v142l64 56v389h172v-262l191 167v-141l-191 -167v-156h274v-149h-446z" />
    <glyph glyph-name="lslash" unicode="&#x142;" horiz-adv-x="298" 
d="M232 398v-398h-166v267l-58 -56v143l58 57v345h166v-217l58 57v-142z" />
    <glyph glyph-name="Nacute" unicode="&#x143;" horiz-adv-x="790" 
d="M523 0l-285 463h-3l4 -463h-166v708h195l284 -462h3l-4 462h166v-708h-194zM442 764h-124l104 144h166z" />
    <glyph glyph-name="nacute" unicode="&#x144;" horiz-adv-x="616" 
d="M391 0v272q0 105 -74 105q-42 0 -66 -32q-22 -30 -22 -75v-270h-165v498h159v-69h2q43 83 149 83q93 0 141 -64q41 -55 41 -140v-308h-165zM338 572h-124l104 144h166z" />
    <glyph glyph-name="Ncommaaccent" unicode="&#x145;" horiz-adv-x="790" 
d="M523 0l-285 463h-3l4 -463h-166v708h195l284 -462h3l-4 462h166v-708h-194zM379 -240h-126l67 195h145z" />
    <glyph glyph-name="ncommaaccent" unicode="&#x146;" horiz-adv-x="616" 
d="M391 0v272q0 105 -74 105q-42 0 -66 -32q-22 -30 -22 -75v-270h-165v498h159v-69h2q43 83 149 83q93 0 141 -64q41 -55 41 -140v-308h-165zM293 -240h-126l67 195h145z" />
    <glyph glyph-name="Ncaron" unicode="&#x147;" horiz-adv-x="790" 
d="M523 0l-285 463h-3l4 -463h-166v708h195l284 -462h3l-4 462h166v-708h-194zM472 764h-147l-124 144h130l68 -81l68 81h128z" />
    <glyph glyph-name="ncaron" unicode="&#x148;" horiz-adv-x="616" 
d="M391 0v272q0 105 -74 105q-42 0 -66 -32q-22 -30 -22 -75v-270h-165v498h159v-69h2q43 83 149 83q93 0 141 -64q41 -55 41 -140v-308h-165zM384 572h-147l-124 144h130l68 -81l68 81h128z" />
    <glyph glyph-name="Eng" unicode="&#x14a;" horiz-adv-x="790" 
d="M717 -13q0 -227 -199 -227q-42 0 -71 8l11 137q15 -5 35 -5q60 0 60 87v5l-315 471h-3l4 -463h-166v708h195l284 -433h3l-4 433h166v-721z" />
    <glyph glyph-name="eng" unicode="&#x14b;" horiz-adv-x="616" 
d="M556 -13q0 -227 -199 -227q-42 0 -71 8l11 137q15 -5 35 -5q59 0 59 87v285q0 105 -74 105q-42 0 -66 -32q-22 -30 -22 -75v-270h-165v498h159v-69h2q43 83 149 83q93 0 141 -64q41 -55 41 -140v-321z" />
    <glyph glyph-name="Omacron" unicode="&#x14c;" horiz-adv-x="851" 
d="M701 85q-108 -104 -276 -104q-167 0 -275 104q-110 105 -110 272q0 168 110 270q107 100 275 100q169 0 276 -100q110 -102 110 -270q0 -167 -110 -272zM572 512q-58 61 -147 61t-146 -61q-56 -61 -56 -155q0 -96 56 -158q57 -62 146 -62t146 62t57 158q0 94 -56 155z
M255 793v86h336v-86h-336z" />
    <glyph glyph-name="omacron" unicode="&#x14d;" horiz-adv-x="632" 
d="M510 56q-78 -72 -195 -72q-116 0 -194 72q-82 76 -82 195t82 193q78 70 194 70q117 0 195 -70q82 -74 82 -193t-82 -195zM403 339q-33 39 -88 39t-87 -39q-30 -36 -30 -88t30 -88q33 -41 88 -41t88 41q30 36 30 88q0 51 -31 88zM147 601v86h336v-86h-336z" />
    <glyph glyph-name="Obreve" unicode="&#x14e;" horiz-adv-x="851" 
d="M701 85q-108 -104 -276 -104q-167 0 -275 104q-110 105 -110 272q0 168 110 270q107 100 275 100q169 0 276 -100q110 -102 110 -270q0 -167 -110 -272zM572 512q-58 61 -147 61t-146 -61q-56 -61 -56 -155q0 -96 56 -158q57 -62 146 -62t146 62t57 158q0 94 -56 155z
M598 908q-12 -144 -175 -144t-173 144h84q9 -55 90 -55q79 0 90 55h84z" />
    <glyph glyph-name="obreve" unicode="&#x14f;" horiz-adv-x="632" 
d="M510 56q-78 -72 -195 -72q-116 0 -194 72q-82 76 -82 195t82 193q78 70 194 70q117 0 195 -70q82 -74 82 -193t-82 -195zM403 339q-33 39 -88 39t-87 -39q-30 -36 -30 -88t30 -88q33 -41 88 -41t88 41q30 36 30 88q0 51 -31 88zM488 716q-12 -144 -175 -144t-173 144h84
q6 -29 32 -44q23 -11 58 -11q79 0 90 55h84z" />
    <glyph glyph-name="Ohungarumlaut" unicode="&#x150;" horiz-adv-x="851" 
d="M701 85q-108 -104 -276 -104q-167 0 -275 104q-110 105 -110 272q0 168 110 270q107 100 275 100q169 0 276 -100q110 -102 110 -270q0 -167 -110 -272zM572 512q-58 61 -147 61t-146 -61q-56 -61 -56 -155q0 -96 56 -158q57 -62 146 -62t146 62t57 158q0 94 -56 155z
M589 764h-124l104 144h166zM369 764h-124l104 144h166z" />
    <glyph glyph-name="ohungarumlaut" unicode="&#x151;" horiz-adv-x="632" 
d="M510 56q-78 -72 -195 -72q-116 0 -194 72q-82 76 -82 195t82 193q78 70 194 70q117 0 195 -70q82 -74 82 -193t-82 -195zM403 339q-33 39 -88 39t-87 -39q-30 -36 -30 -88t30 -88q33 -41 88 -41t88 41q30 36 30 88q0 51 -31 88zM487 572h-124l104 144h166zM267 572h-124
l104 144h166z" />
    <glyph glyph-name="OE" unicode="&#x152;" horiz-adv-x="1019" 
d="M442 0q-168 0 -276 81q-126 95 -126 274q0 180 126 274q107 79 276 79h520v-145h-298v-133h281v-137h-281v-147h315v-146h-537zM501 563h-46q-233 0 -233 -211q0 -105 71 -160q61 -46 158 -46h50v417z" />
    <glyph glyph-name="oe" unicode="&#x153;" horiz-adv-x="973" 
d="M228 162q32 -40 87 -40t88 40q30 37 30 89q0 51 -30 87q-33 40 -88 40t-87 -40q-30 -36 -30 -87q0 -52 30 -89zM784 306q0 41 -25 67q-26 28 -73 28q-46 0 -79 -28q-31 -28 -34 -67h211zM915 90q-72 -106 -225 -106q-128 0 -191 83q-65 -83 -186 -83q-116 0 -194 72
q-80 75 -80 195q0 119 80 192q78 71 194 71q124 0 187 -87q73 87 187 87q111 0 178 -72q70 -74 70 -199q0 -27 -1 -39h-361q5 -41 40 -68q34 -26 79 -26q72 0 110 52z" />
    <glyph glyph-name="Racute" unicode="&#x154;" horiz-adv-x="663" 
d="M452 0l-153 281h-58v-281h-168v708h270q116 0 187 -46q84 -56 84 -168q0 -146 -147 -191l185 -303h-200zM331 570h-91v-165h81q124 0 124 86q0 79 -114 79zM350 764h-124l104 144h166z" />
    <glyph glyph-name="racute" unicode="&#x155;" horiz-adv-x="396" 
d="M387 364q-19 5 -42 5q-59 0 -91 -41q-26 -32 -26 -72v-256h-164v498h158v-72h2q43 86 135 86q24 0 35 -4zM231 572h-124l104 144h166z" />
    <glyph glyph-name="Rcommaaccent" unicode="&#x156;" horiz-adv-x="663" 
d="M452 0l-153 281h-58v-281h-168v708h270q116 0 187 -46q84 -56 84 -168q0 -146 -147 -191l185 -303h-200zM331 570h-91v-165h81q124 0 124 86q0 79 -114 79zM327 -240h-126l67 195h145z" />
    <glyph glyph-name="rcommaaccent" unicode="&#x157;" horiz-adv-x="396" 
d="M387 364q-19 5 -42 5q-59 0 -91 -41q-26 -32 -26 -72v-256h-164v498h158v-72h2q43 86 135 86q24 0 35 -4zM138 -241h-126l67 195h145z" />
    <glyph glyph-name="Rcaron" unicode="&#x158;" horiz-adv-x="663" 
d="M452 0l-153 281h-58v-281h-168v708h270q116 0 187 -46q84 -56 84 -168q0 -146 -147 -191l185 -303h-200zM331 570h-91v-165h81q124 0 124 86q0 79 -114 79zM394 764h-147l-124 144h130l68 -81l68 81h128z" />
    <glyph glyph-name="rcaron" unicode="&#x159;" horiz-adv-x="396" 
d="M387 364q-19 5 -42 5q-59 0 -91 -41q-26 -32 -26 -72v-256h-164v498h158v-72h2q43 86 135 86q24 0 35 -4zM302 572h-147l-124 144h130l68 -81l68 81h128z" />
    <glyph glyph-name="Sacute" unicode="&#x15a;" horiz-adv-x="591" 
d="M447 524q-48 61 -126 61q-99 0 -99 -71q0 -32 29 -51q21 -13 80 -32q102 -33 146 -65q74 -55 74 -148q0 -115 -83 -179q-74 -57 -188 -57q-168 0 -265 102l112 114q59 -75 153 -75q98 0 98 77q0 37 -39 60q-24 14 -108 41q-83 27 -124 64q-57 52 -57 139q0 110 88 170
q75 52 186 52q137 0 232 -87zM341 764h-124l104 144h166z" />
    <glyph glyph-name="sacute" unicode="&#x15b;" horiz-adv-x="472" 
d="M357 351q-47 45 -104 45q-62 0 -62 -40q0 -20 22 -30q16 -8 69 -20q159 -36 159 -152q0 -87 -68 -132q-57 -38 -145 -38q-137 0 -217 77l92 97q51 -56 122 -56q59 0 59 43q0 22 -24 34q-19 10 -75 23q-145 34 -145 145q0 82 68 128q58 39 139 39q125 0 200 -70zM278 572
h-124l104 144h166z" />
    <glyph glyph-name="Scircumflex" unicode="&#x15c;" horiz-adv-x="591" 
d="M447 524q-48 61 -126 61q-99 0 -99 -71q0 -32 29 -51q21 -13 80 -32q102 -33 146 -65q74 -55 74 -148q0 -115 -83 -179q-74 -57 -188 -57q-168 0 -265 102l112 114q59 -75 153 -75q98 0 98 77q0 37 -39 60q-24 14 -108 41q-83 27 -124 64q-57 52 -57 139q0 110 88 170
q75 52 186 52q137 0 232 -87zM388 764l-68 81l-68 -81h-128l124 144h148l122 -144h-130z" />
    <glyph glyph-name="scircumflex" unicode="&#x15d;" horiz-adv-x="472" 
d="M357 351q-47 45 -104 45q-62 0 -62 -40q0 -20 22 -30q16 -8 69 -20q159 -36 159 -152q0 -87 -68 -132q-57 -38 -145 -38q-137 0 -217 77l92 97q51 -56 122 -56q59 0 59 43q0 22 -24 34q-19 10 -75 23q-145 34 -145 145q0 82 68 128q58 39 139 39q125 0 200 -70zM315 572
l-68 81l-68 -81h-128l124 144h148l122 -144h-130z" />
    <glyph glyph-name="Scedilla" unicode="&#x15e;" horiz-adv-x="591" 
d="M367 -220q-39 -20 -97 -20q-67 0 -119 25l27 60q40 -19 84 -19q50 0 50 33q0 29 -47 29q-22 0 -40 -6l-31 29l54 72q-150 12 -233 101l112 114q59 -75 153 -75q98 0 98 77q0 37 -39 60q-24 14 -108 41q-83 27 -124 64q-57 52 -57 139q0 110 88 170q75 52 186 52
q137 0 232 -87l-109 -115q-48 61 -126 61q-99 0 -99 -71q0 -32 29 -51q21 -13 80 -32q102 -33 146 -65q74 -55 74 -148q0 -102 -65 -164q-59 -56 -155 -68l-35 -46q7 1 18 1q103 0 103 -83q0 -52 -50 -78z" />
    <glyph glyph-name="scedilla" unicode="&#x15f;" horiz-adv-x="472" 
d="M313 -220q-39 -20 -97 -20q-67 0 -119 25l27 60q40 -19 84 -19q50 0 50 33q0 29 -47 29q-22 0 -40 -6l-31 29l56 75q-119 10 -185 75l92 97q51 -56 122 -56q59 0 59 43q0 22 -24 34q-19 10 -75 23q-145 34 -145 145q0 82 68 129q58 39 139 39q124 0 200 -71l-90 -93
q-47 45 -104 45q-62 0 -62 -40q0 -20 22 -30q16 -8 69 -20q159 -36 159 -152q0 -74 -49 -118q-43 -38 -113 -48l-37 -48q7 1 18 1q103 0 103 -83q0 -52 -50 -78z" />
    <glyph glyph-name="Scaron" unicode="&#x160;" horiz-adv-x="591" 
d="M447 524q-48 61 -126 61q-99 0 -99 -71q0 -32 29 -51q21 -13 80 -32q102 -33 146 -65q74 -55 74 -148q0 -115 -83 -179q-74 -57 -188 -57q-168 0 -265 102l112 114q59 -75 153 -75q98 0 98 77q0 37 -39 60q-24 14 -108 41q-83 27 -124 64q-57 52 -57 139q0 110 88 170
q75 52 186 52q137 0 232 -87zM397 764h-147l-124 144h130l68 -81l68 81h128z" />
    <glyph glyph-name="scaron" unicode="&#x161;" horiz-adv-x="472" 
d="M357 351q-47 45 -104 45q-62 0 -62 -40q0 -20 22 -30q16 -8 69 -20q159 -36 159 -152q0 -87 -68 -132q-57 -38 -145 -38q-137 0 -217 77l92 97q51 -56 122 -56q59 0 59 43q0 22 -24 34q-19 10 -75 23q-145 34 -145 145q0 82 68 128q58 39 139 39q125 0 200 -70zM321 572
h-147l-124 144h130l68 -81l68 81h128z" />
    <glyph glyph-name="Tcommaaccent" unicode="&#x162;" horiz-adv-x="581" 
d="M376 562v-562h-171v562h-200v146h571v-146h-200zM279 -240h-126l67 195h145z" />
    <glyph glyph-name="tcommaaccent" unicode="&#x163;" horiz-adv-x="372" 
d="M242 375v-190q0 -70 62 -70q29 0 48 8l2 -120q-41 -15 -95 -15q-177 0 -177 177v210h-80v123h79v131h161v-131h117v-123h-117zM202 -240h-126l67 195h145z" />
    <glyph glyph-name="Tcaron" unicode="&#x164;" horiz-adv-x="581" 
d="M376 562v-562h-171v562h-200v146h571v-146h-200zM365 764h-147l-124 144h130l68 -81l68 81h128z" />
    <glyph glyph-name="tcaron" unicode="&#x165;" horiz-adv-x="432" 
d="M242 375v-190q0 -70 62 -70q29 0 48 8l2 -120q-41 -15 -95 -15q-177 0 -177 177v210h-80v123h79v131h161v-131h117v-123h-117zM396 536h-126l67 195h145z" />
    <glyph glyph-name="Tbar" unicode="&#x166;" horiz-adv-x="581" 
d="M376 562v-85h136v-89h-136v-388h-171v388h-131v89h131v85h-200v146h571v-146h-200z" />
    <glyph glyph-name="tbar" unicode="&#x167;" horiz-adv-x="372" 
d="M242 215v-30q0 -70 62 -70q29 0 48 8l2 -120q-41 -15 -95 -15q-177 0 -177 177v50h-71v89h71v71h-80v123h79v131h161v-131h117v-123h-117v-71h97v-89h-97z" />
    <glyph glyph-name="Utilde" unicode="&#x168;" horiz-adv-x="738" 
d="M673 267q0 -128 -83 -207q-84 -79 -222 -79t-221 79q-81 78 -81 207v441h170v-427q0 -63 31 -101q35 -45 102 -45q68 0 103 45q30 38 30 101v427h171v-441zM559 900q-15 -132 -113 -132q-35 0 -81 21q-39 20 -63 20q-31 0 -42 -40h-72q17 130 113 130q37 0 80 -20t65 -20
q32 0 42 41h71z" />
    <glyph glyph-name="utilde" unicode="&#x169;" horiz-adv-x="614" 
d="M392 0v69h-2q-43 -83 -150 -83q-93 0 -141 65q-40 54 -40 139v308h165v-270q0 -106 74 -106q41 0 65 32q23 30 23 75v269h164v-498h-158zM491 708q-15 -132 -113 -132q-35 0 -81 21q-39 20 -63 20q-31 0 -42 -40h-72q17 130 113 130q37 0 80 -20t65 -20q32 0 42 41h71z
" />
    <glyph glyph-name="Umacron" unicode="&#x16a;" horiz-adv-x="738" 
d="M673 267q0 -128 -83 -207q-84 -79 -222 -79t-221 79q-81 78 -81 207v441h170v-427q0 -63 31 -101q35 -45 102 -45q68 0 103 45q30 38 30 101v427h171v-441zM206 793v86h336v-86h-336z" />
    <glyph glyph-name="umacron" unicode="&#x16b;" horiz-adv-x="614" 
d="M392 0v69h-2q-43 -83 -150 -83q-93 0 -141 65q-40 54 -40 139v308h165v-270q0 -106 74 -106q41 0 65 32q23 30 23 75v269h164v-498h-158zM136 601v86h336v-86h-336z" />
    <glyph glyph-name="Ubreve" unicode="&#x16c;" horiz-adv-x="738" 
d="M673 267q0 -128 -83 -207q-84 -79 -222 -79t-221 79q-81 78 -81 207v441h170v-427q0 -63 31 -101q35 -45 102 -45q68 0 103 45q30 38 30 101v427h171v-441zM544 908q-12 -144 -175 -144t-173 144h84q9 -55 90 -55q79 0 90 55h84z" />
    <glyph glyph-name="ubreve" unicode="&#x16d;" horiz-adv-x="614" 
d="M392 0v69h-2q-43 -83 -150 -83q-93 0 -141 65q-40 54 -40 139v308h165v-270q0 -106 74 -106q41 0 65 32q23 30 23 75v269h164v-498h-158zM479 716q-12 -144 -175 -144t-173 144h84q6 -29 32 -44q23 -11 58 -11q79 0 90 55h84z" />
    <glyph glyph-name="Uring" unicode="&#x16e;" horiz-adv-x="738" 
d="M673 267q0 -128 -83 -207q-84 -79 -222 -79t-221 79q-81 78 -81 207v441h170v-427q0 -63 31 -101q35 -45 102 -45q68 0 103 45q30 38 30 101v427h171v-441zM451 779q-31 -30 -77 -30q-45 0 -77 30q-32 31 -32 76q0 46 32 77q31 31 77 31q45 0 77 -31t32 -76
q0 -46 -32 -77zM416 897q-17 17 -42 17t-42 -17t-17 -42q0 -24 17 -40q17 -17 42 -17t42 17q17 16 17 41t-17 41z" />
    <glyph glyph-name="uring" unicode="&#x16f;" horiz-adv-x="614" 
d="M392 0v69h-2q-43 -83 -150 -83q-93 0 -141 65q-40 54 -40 139v308h165v-270q0 -106 74 -106q41 0 65 32q23 30 23 75v269h164v-498h-158zM382 587q-31 -30 -77 -30q-45 0 -77 30q-32 31 -32 76q0 46 32 77q31 31 77 31q45 0 77 -31t32 -76q0 -46 -32 -77zM347 705
q-17 17 -42 17t-42 -17t-17 -42q0 -24 17 -40q17 -17 42 -17t42 17q17 16 17 41t-17 41z" />
    <glyph glyph-name="Uhungarumlaut" unicode="&#x170;" horiz-adv-x="738" 
d="M673 267q0 -128 -83 -207q-84 -79 -222 -79t-221 79q-81 78 -81 207v441h170v-427q0 -63 31 -101q35 -45 102 -45q68 0 103 45q30 38 30 101v427h171v-441zM540 764h-124l104 144h166zM320 764h-124l104 144h166z" />
    <glyph glyph-name="uhungarumlaut" unicode="&#x171;" horiz-adv-x="614" 
d="M392 0v69h-2q-43 -83 -150 -83q-93 0 -141 65q-40 54 -40 139v308h165v-270q0 -106 74 -106q41 0 65 32q23 30 23 75v269h164v-498h-158zM476 572h-124l104 144h166zM256 572h-124l104 144h166z" />
    <glyph glyph-name="Uogonek" unicode="&#x172;" horiz-adv-x="738" 
d="M483 -196q-54 -40 -115 -40q-46 0 -77 21q-36 25 -36 70q0 62 80 128q-125 10 -197 87q-72 76 -72 197v441h170v-427q0 -63 31 -101q35 -45 102 -45q68 0 103 45q30 38 30 101v427h171v-441q0 -112 -65 -188q-65 -75 -176 -93q-73 -64 -73 -104q0 -36 37 -36q27 0 55 20z
" />
    <glyph glyph-name="uogonek" unicode="&#x173;" horiz-adv-x="614" 
d="M518 -196q-54 -40 -115 -40q-46 0 -77 21q-36 25 -36 70q0 71 102 145v69h-2q-43 -83 -150 -83q-93 0 -141 65q-40 54 -40 139v308h165v-270q0 -106 74 -106q41 0 65 32q23 30 23 75v269h164v-498h-66q-90 -72 -90 -118q0 -36 37 -36q27 0 55 20z" />
    <glyph glyph-name="Wcircumflex" unicode="&#x174;" horiz-adv-x="1025" 
d="M823 0h-169l-140 479h-3l-140 -479h-170l-201 708h184l112 -471h3l126 471h178l127 -471h3l114 471h178zM582 764l-68 81l-68 -81h-128l124 144h148l122 -144h-130z" />
    <glyph glyph-name="wcircumflex" unicode="&#x175;" horiz-adv-x="871" 
d="M698 0h-165l-98 310h-2l-96 -310h-165l-172 498h177l86 -315h3l89 315h165l92 -315h2l87 315h170zM505 572l-68 81l-68 -81h-128l124 144h148l122 -144h-130z" />
    <glyph glyph-name="Ycircumflex" unicode="&#x176;" horiz-adv-x="669" 
d="M417 300v-300h-171v300l-266 408h207l151 -262l151 262h200zM405 764l-68 81l-68 -81h-128l124 144h148l122 -144h-130z" />
    <glyph glyph-name="ycircumflex" unicode="&#x177;" horiz-adv-x="567" 
d="M345 -75q-32 -84 -78 -121q-52 -44 -141 -44q-46 0 -90 11l18 138q29 -9 53 -9q59 0 84 67l16 41l-208 490h182l111 -320h3l99 320h174zM359 572l-68 81l-68 -81h-128l124 144h148l122 -144h-130z" />
    <glyph glyph-name="Ydieresis" unicode="&#x178;" horiz-adv-x="669" 
d="M417 300v-300h-171v300l-266 408h207l151 -262l151 262h200zM505 792q-24 -24 -58 -24q-35 0 -59 24t-24 58q0 33 24 57t59 24q34 0 58 -24q25 -23 25 -57t-25 -58zM288 792q-24 -24 -59 -24q-34 0 -59 24q-24 24 -24 58q0 33 24 57q25 24 59 24q35 0 59 -24
q25 -23 25 -57t-25 -58z" />
    <glyph glyph-name="Zacute" unicode="&#x179;" horiz-adv-x="635" 
d="M39 0v148l337 415h-329v145h543v-137l-345 -423h352v-148h-558zM371 764h-124l104 144h166z" />
    <glyph glyph-name="zacute" unicode="&#x17a;" horiz-adv-x="512" 
d="M34 0v128l234 244h-225v126h425v-123l-241 -248h251v-127h-444zM297 572h-124l104 144h166z" />
    <glyph glyph-name="Zdotaccent" unicode="&#x17b;" horiz-adv-x="635" 
d="M39 0v148l337 415h-329v145h543v-137l-345 -423h352v-148h-558zM392 789q-26 -25 -64 -25q-37 0 -63 25t-26 60t26 60q26 26 63 26q38 0 64 -25t26 -61t-26 -60z" />
    <glyph glyph-name="zdotaccent" unicode="&#x17c;" horiz-adv-x="512" 
d="M34 0v128l234 244h-225v126h425v-123l-241 -248h251v-127h-444zM323 597q-26 -25 -64 -25q-37 0 -63 25t-26 60t26 60q26 26 63 26q38 0 64 -25t26 -61t-26 -60z" />
    <glyph glyph-name="Zcaron" unicode="&#x17d;" horiz-adv-x="635" 
d="M39 0v148l337 415h-329v145h543v-137l-345 -423h352v-148h-558zM393 764h-147l-124 144h130l68 -81l68 81h128z" />
    <glyph glyph-name="zcaron" unicode="&#x17e;" horiz-adv-x="512" 
d="M34 0v128l234 244h-225v126h425v-123l-241 -248h251v-127h-444zM336 572h-147l-124 144h130l68 -81l68 81h128z" />
    <glyph glyph-name="uni018F" unicode="&#x18f;" horiz-adv-x="851" 
d="M299 176q-50 38 -70 105h382q-20 -67 -70 -105q-51 -38 -121 -38t-121 38zM151 632l114 -131q57 70 155 70q73 0 126 -43q52 -42 69 -112h-575q-5 -29 -5 -60q0 -167 110 -272q108 -104 275 -104q168 0 276 104q109 106 109 272q0 168 -109 270q-107 100 -276 100
q-163 0 -269 -94z" />
    <glyph glyph-name="florin" unicode="&#x192;" horiz-adv-x="646" 
d="M528 323h-148l-55 -274q-37 -188 -205 -188q-68 0 -122 28l58 120q23 -16 50 -16q53 0 70 89l49 241h-114v113h134l16 78q20 97 58 144q51 65 150 65q79 0 137 -34l-60 -121q-30 18 -57 18q-55 0 -73 -85l-14 -65h126v-113z" />
    <glyph glyph-name="Scommaaccent" unicode="&#x218;" horiz-adv-x="591" 
d="M447 524q-48 61 -126 61q-99 0 -99 -71q0 -32 29 -51q21 -13 80 -32q102 -33 146 -65q74 -55 74 -148q0 -115 -83 -179q-74 -57 -188 -57q-168 0 -265 102l112 114q59 -75 153 -75q98 0 98 77q0 37 -39 60q-24 14 -108 41q-83 27 -124 64q-57 52 -57 139q0 110 88 170
q75 52 186 52q137 0 232 -87zM278 -240h-126l67 195h145z" />
    <glyph glyph-name="scommaaccent" unicode="&#x219;" horiz-adv-x="472" 
d="M357 351q-47 45 -104 45q-62 0 -62 -40q0 -20 22 -30q16 -8 69 -20q159 -36 159 -152q0 -87 -68 -132q-57 -38 -145 -38q-137 0 -217 77l92 97q51 -56 122 -56q59 0 59 43q0 22 -24 34q-19 10 -75 23q-145 34 -145 145q0 82 68 128q58 39 139 39q125 0 200 -70zM218 -240
h-126l67 195h145z" />
    <glyph glyph-name="uni021A" unicode="&#x21a;" horiz-adv-x="581" 
d="M376 562v-562h-171v562h-200v146h571v-146h-200zM279 -240h-126l67 195h145z" />
    <glyph glyph-name="uni021B" unicode="&#x21b;" horiz-adv-x="372" 
d="M242 375v-190q0 -70 62 -70q29 0 48 8l2 -120q-41 -15 -95 -15q-177 0 -177 177v210h-80v123h79v131h161v-131h117v-123h-117zM202 -240h-126l67 195h145z" />
    <glyph glyph-name="uni0237" unicode="&#x237;" horiz-adv-x="299" 
d="M233 -13q0 -227 -199 -227q-42 0 -71 8l11 137q15 -5 35 -5q60 0 60 87v511h164v-511z" />
    <glyph glyph-name="uni0259" unicode="&#x259;" horiz-adv-x="596" 
d="M190 192q0 -41 25 -67q26 -28 73 -28q46 0 79 28q31 28 34 67h-211zM40 294h361q-4 40 -39 68q-35 26 -80 26q-72 0 -110 -52l-114 72q73 106 226 106q117 0 193 -68q81 -73 81 -195q0 -120 -78 -195q-75 -72 -191 -72q-112 0 -180 72q-70 73 -70 199q0 27 1 39z" />
    <glyph glyph-name="circumflex" unicode="&#x2c6;" 
d="M217 572l-68 81l-68 -81h-128l124 144h148l122 -144h-130z" />
    <glyph glyph-name="caron" unicode="&#x2c7;" 
d="M224 572h-147l-124 144h130l68 -81l68 81h128z" />
    <glyph glyph-name="uni02C9" unicode="&#x2c9;" 
d="M-18 793v86h336v-86h-336z" />
    <glyph glyph-name="breve" unicode="&#x2d8;" 
d="M324 716q-12 -144 -175 -144t-173 144h84q6 -29 32 -44q23 -11 58 -11q79 0 90 55h84z" />
    <glyph glyph-name="dotaccent" unicode="&#x2d9;" 
d="M214 597q-26 -25 -64 -25q-37 0 -63 25t-26 60t26 60q26 26 63 26q38 0 64 -25t26 -61t-26 -60z" />
    <glyph glyph-name="ring" unicode="&#x2da;" 
d="M227 587q-31 -30 -77 -30q-45 0 -77 30q-32 31 -32 76q0 46 32 77q31 31 77 31q45 0 77 -31t32 -76q0 -46 -32 -77zM192 705q-17 17 -42 17t-42 -17t-17 -42q0 -24 17 -40q17 -17 42 -17t42 17q17 16 17 41t-17 41z" />
    <glyph glyph-name="ogonek" unicode="&#x2db;" 
d="M240 -196q-54 -40 -115 -40q-46 0 -77 21q-36 25 -36 70q0 73 108 149h91q-95 -75 -95 -122q0 -36 37 -36q27 0 55 20z" />
    <glyph glyph-name="tilde" unicode="&#x2dc;" 
d="M335 708q-15 -132 -113 -132q-35 0 -81 21q-39 20 -63 20q-31 0 -42 -40h-72q17 130 113 130q37 0 80 -20t65 -20q32 0 42 41h71z" />
    <glyph glyph-name="hungarumlaut" unicode="&#x2dd;" 
d="M310 572h-124l104 144h166zM90 572h-124l104 144h166z" />
    <glyph glyph-name="Delta" unicode="&#x394;" horiz-adv-x="735" 
d="M27 0v102l258 606h166l256 -602v-106h-680zM365 519l-142 -371h281z" />
    <glyph glyph-name="Omega" unicode="&#x3a9;" horiz-adv-x="760" 
d="M419 0v219q57 16 91 66q32 49 32 114q0 81 -47 129q-44 45 -115 45t-116 -46q-46 -48 -46 -128q0 -72 39 -123q34 -44 84 -57v-219h-287v144h157v11q-76 28 -120 96q-46 70 -46 165q0 145 99 231q93 80 234 80q146 0 239 -81q98 -86 98 -230q0 -197 -166 -261v-11h157
v-144h-287z" />
    <glyph glyph-name="mu" unicode="&#x3bc;" horiz-adv-x="663" 
d="M628 1q-36 -13 -85 -13q-96 0 -111 81h-2q-13 -32 -43 -56q-36 -27 -78 -27q-55 0 -77 27h-2v-253h-166v738h166v-268q0 -108 74 -108q41 0 65 32q23 30 23 77v267h166v-339q0 -43 38 -43q15 0 30 5z" />
    <glyph glyph-name="pi" unicode="&#x3c0;" horiz-adv-x="711" 
d="M644 1q-37 -13 -97 -13q-135 0 -135 145v236h-125l-45 -369h-157l52 369h-107v129h646v-129h-113v-214q0 -40 41 -40q14 0 38 6z" />
    <glyph glyph-name="uni0400" unicode="&#x400;" horiz-adv-x="607" 
d="M73 708h476v-145h-311v-133h294v-137h-294v-147h329v-146h-494v708zM276 764l-146 144h166l104 -144h-124z" />
    <glyph glyph-name="afii10023" unicode="&#x401;" horiz-adv-x="607" 
d="M73 708h476v-145h-311v-133h294v-137h-294v-147h329v-146h-494v708zM474 792q-24 -24 -58 -24q-35 0 -59 24t-24 58q0 33 24 57t59 24q34 0 58 -24q25 -23 25 -57t-25 -58zM257 792q-24 -24 -59 -24q-34 0 -59 24q-24 24 -24 58q0 33 24 57q25 24 59 24q35 0 59 -24
q25 -23 25 -57t-25 -58z" />
    <glyph glyph-name="afii10051" unicode="&#x402;" horiz-adv-x="820" 
d="M438 0l15 129q23 -7 52 -7q111 0 111 83q0 89 -130 89q-69 0 -110 -19v-275h-171v563h-200v145h570v-145h-199v-161q79 22 160 22q122 0 187 -58q66 -58 66 -165q0 -106 -73 -161q-66 -50 -172 -50q-56 0 -106 10z" />
    <glyph glyph-name="afii10052" unicode="&#x403;" horiz-adv-x="523" 
d="M317 764h-124l104 144h166zM73 708h445v-146h-274v-562h-171v708z" />
    <glyph glyph-name="afii10053" unicode="&#x404;" horiz-adv-x="696" 
d="M149 85q-109 106 -109 269q0 164 110 270q107 103 269 103q171 0 267 -104l-108 -121q-50 71 -161 71q-69 0 -121 -42q-50 -40 -64 -102h261v-136h-263q10 -68 61 -112q53 -46 125 -46q116 0 171 76l104 -115q-98 -115 -272 -115q-162 0 -270 104z" />
    <glyph glyph-name="afii10054" unicode="&#x405;" horiz-adv-x="591" 
d="M15 84l112 114q59 -75 153 -75q98 0 98 77q0 37 -39 60q-24 14 -108 41q-83 27 -124 64q-57 52 -57 139q0 110 88 170q75 52 186 52q137 0 232 -87l-109 -115q-48 61 -126 61q-99 0 -99 -71q0 -32 29 -51q21 -13 80 -32q102 -33 146 -65q74 -55 74 -148q0 -115 -83 -179
q-74 -57 -188 -57q-168 0 -265 102z" />
    <glyph glyph-name="afii10055" unicode="&#x406;" horiz-adv-x="318" 
d="M73 708h172v-708h-172v708z" />
    <glyph glyph-name="afii10056" unicode="&#x407;" horiz-adv-x="318" 
d="M73 708h172v-708h-172v708zM326 792q-24 -24 -58 -24q-35 0 -59 24t-24 58q0 33 24 57t59 24q34 0 58 -24q25 -23 25 -57t-25 -58zM109 792q-24 -24 -59 -24q-34 0 -59 24q-24 24 -24 58q0 33 24 57q25 24 59 24q35 0 59 -24q25 -23 25 -57t-25 -58z" />
    <glyph glyph-name="afii10057" unicode="&#x408;" horiz-adv-x="529" 
d="M77 28q-60 45 -80 119l151 51q15 -62 71 -62q69 0 69 105v467h172v-466q0 -106 -44 -172q-59 -89 -189 -89q-87 0 -150 47z" />
    <glyph glyph-name="afii10058" unicode="&#x409;" horiz-adv-x="1122" 
d="M7 4l14 142q20 -7 42 -7q62 0 90 63q33 74 33 256v250h540v-260h90q122 0 194 -50q82 -57 82 -173q0 -112 -82 -172q-73 -53 -193 -53h-262v563h-205v-98q0 -255 -59 -365q-57 -107 -186 -107q-61 0 -98 11zM804 136q119 0 119 90q0 89 -119 89h-78v-179h78z" />
    <glyph glyph-name="afii10059" unicode="&#x40a;" horiz-adv-x="1091" 
d="M73 708h171v-267h276v267h171v-267h103q119 0 188 -49q79 -56 79 -170q0 -111 -79 -169q-71 -53 -187 -53h-275v302h-276v-302h-171v708zM775 137q115 0 115 87q0 86 -115 86h-84v-173h84z" />
    <glyph glyph-name="afii10060" unicode="&#x40b;" horiz-adv-x="833" 
d="M205 563h-200v145h570v-145h-199v-161q79 22 159 22q121 0 178 -49q57 -50 57 -158v-217h-171v174q0 60 -25 85q-26 25 -86 25q-73 0 -112 -18v-266h-171v563z" />
    <glyph glyph-name="afii10061" unicode="&#x40c;" horiz-adv-x="711" 
d="M404 764h-124l104 144h166zM73 708h168v-288h3l253 288h214l-305 -326l323 -382h-223l-263 326h-2v-326h-168v708z" />
    <glyph glyph-name="uni040D" unicode="&#x40d;" horiz-adv-x="771" 
d="M73 708h169v-466h4l272 466h180v-708h-169v455h-3l-270 -455h-183v708zM322 764l-146 144h166l104 -144h-124z" />
    <glyph glyph-name="afii10062" unicode="&#x40e;" horiz-adv-x="681" 
d="M54 0l21 141q35 -11 64 -11q43 0 69 25q18 18 44 69l3 6l-270 478h197l166 -323l156 323h192l-265 -504q-60 -114 -102 -154q-63 -62 -162 -62q-67 0 -113 12zM172 904l85 17q10 -67 90 -67q79 0 89 67l86 -17q-23 -140 -175 -140q-153 0 -175 140z" />
    <glyph glyph-name="afii10145" unicode="&#x40f;" horiz-adv-x="760" 
d="M305 0h-232v708h171v-562h272v562h171v-708h-232v-151h-150v151z" />
    <glyph glyph-name="afii10017" unicode="&#x410;" horiz-adv-x="729" 
d="M283 708h166l294 -708h-190l-55 139h-274l-52 -139h-186zM451 276l-88 243l-90 -243h178z" />
    <glyph glyph-name="afii10018" unicode="&#x411;" horiz-adv-x="662" 
d="M73 708h498v-139h-327v-134h110q119 0 188 -49q80 -56 80 -168q0 -109 -79 -166q-72 -52 -188 -52h-282v708zM336 136q114 0 114 83t-114 83h-92v-166h92z" />
    <glyph glyph-name="afii10019" unicode="&#x412;" horiz-adv-x="665" 
d="M73 708h282q99 0 162 -37q79 -47 79 -145q0 -114 -116 -153v-2q64 -11 103 -53q42 -45 42 -112q0 -107 -84 -161q-71 -45 -186 -45h-282v708zM334 138q120 0 120 84q0 78 -121 78h-95v-162h96zM330 426q101 0 101 77q0 69 -109 69h-84v-146h92z" />
    <glyph glyph-name="afii10020" unicode="&#x413;" horiz-adv-x="523" 
d="M73 708h445v-146h-274v-562h-171v708z" />
    <glyph glyph-name="afii10021" unicode="&#x414;" horiz-adv-x="804" 
d="M12 146h62q96 119 96 382v180h536v-562h78v-297h-150v151h-472v-151h-150v297zM535 146v417h-200v-57q0 -241 -76 -360h276z" />
    <glyph glyph-name="afii10022" unicode="&#x415;" horiz-adv-x="607" 
d="M73 708h476v-145h-311v-133h294v-137h-294v-147h329v-146h-494v708z" />
    <glyph glyph-name="afii10024" unicode="&#x416;" horiz-adv-x="1050" 
d="M270 385l-272 323h205l236 -296v296h170v-296h2l235 296h206l-274 -323l290 -385h-215l-241 332h-2v-332h-171v332h-1l-243 -332h-213z" />
    <glyph glyph-name="afii10025" unicode="&#x417;" horiz-adv-x="611" 
d="M14 87l102 111q59 -75 160 -75q49 0 83 24q36 26 36 68q0 89 -141 89h-57v123h61q121 0 121 83q0 35 -32 57q-30 19 -69 19q-89 0 -143 -62l-99 105q96 98 257 98q117 0 187 -50q70 -52 70 -141q0 -61 -34 -106q-32 -42 -83 -56v-3q138 -37 138 -172q0 -103 -86 -164
q-77 -54 -183 -54q-184 0 -288 106z" />
    <glyph glyph-name="afii10026" unicode="&#x418;" horiz-adv-x="771" 
d="M73 708h169v-466h4l272 466h180v-708h-169v455h-3l-270 -455h-183v708z" />
    <glyph glyph-name="afii10027" unicode="&#x419;" horiz-adv-x="771" 
d="M73 708h169v-466h4l272 466h180v-708h-169v455h-3l-270 -455h-183v708zM204 904l85 17q10 -67 90 -67q79 0 89 67l86 -17q-23 -140 -175 -140q-153 0 -175 140z" />
    <glyph glyph-name="afii10028" unicode="&#x41a;" horiz-adv-x="711" 
d="M73 708h168v-288h3l253 288h214l-305 -326l323 -382h-223l-263 326h-2v-326h-168v708z" />
    <glyph glyph-name="afii10029" unicode="&#x41b;" horiz-adv-x="799" 
d="M7 4l14 142q20 -7 42 -7q62 0 90 63q33 74 33 256v250h540v-708h-171v563h-205v-98q0 -255 -59 -365q-57 -107 -186 -107q-61 0 -98 11z" />
    <glyph glyph-name="afii10030" unicode="&#x41c;" horiz-adv-x="955" 
d="M73 708h243l161 -454h4l154 454h247v-708h-167l4 501h-3l-184 -501h-120l-179 501h-3l4 -501h-161v708z" />
    <glyph glyph-name="afii10031" unicode="&#x41d;" horiz-adv-x="764" 
d="M73 708h171v-268h276v268h171v-708h-171v296h-276v-296h-171v708z" />
    <glyph glyph-name="afii10032" unicode="&#x41e;" horiz-adv-x="851" 
d="M150 85q-110 105 -110 272q0 168 110 270q107 100 275 100q169 0 276 -100q110 -102 110 -270q0 -167 -110 -272q-108 -104 -276 -104q-167 0 -275 104zM571 199q57 62 57 158q0 94 -56 155q-58 61 -147 61t-146 -61q-56 -61 -56 -155q0 -96 56 -158q57 -62 146 -62
t146 62z" />
    <glyph glyph-name="afii10033" unicode="&#x41f;" horiz-adv-x="760" 
d="M73 708h614v-708h-171v563h-272v-563h-171v708z" />
    <glyph glyph-name="afii10034" unicode="&#x420;" horiz-adv-x="640" 
d="M73 708h260q277 0 277 -218q0 -115 -85 -173q-73 -50 -196 -50h-85v-267h-171v708zM316 403q123 0 123 86q0 81 -120 81h-75v-167h72z" />
    <glyph glyph-name="afii10035" unicode="&#x421;" horiz-adv-x="696" 
d="M149 85q-109 105 -109 270q0 167 111 271q108 101 273 101q175 0 265 -104l-116 -116q-47 65 -143 65q-89 0 -147 -62q-57 -61 -57 -155q0 -96 56 -157q56 -60 145 -60q99 0 150 72l119 -112q-101 -117 -275 -117q-165 0 -272 104z" />
    <glyph glyph-name="afii10036" unicode="&#x422;" horiz-adv-x="581" 
d="M205 562h-200v146h571v-146h-200v-562h-171v562z" />
    <glyph glyph-name="afii10037" unicode="&#x423;" horiz-adv-x="681" 
d="M54 0l21 141q35 -11 64 -11q43 0 69 25q18 18 44 69l3 6l-270 478h197l166 -323l156 323h192l-265 -504q-60 -114 -102 -154q-63 -62 -162 -62q-67 0 -113 12z" />
    <glyph glyph-name="afii10038" unicode="&#x424;" horiz-adv-x="906" 
d="M367 67q-146 2 -239 83q-93 83 -93 215q0 139 89 217q87 76 243 81v64h171v-64q156 -5 243 -81q90 -78 90 -217q0 -131 -93 -214q-93 -82 -240 -84v-86h-171v86zM367 518q-157 -14 -157 -154q0 -135 157 -152v306zM538 212q157 17 157 152q0 140 -157 154v-306z" />
    <glyph glyph-name="afii10039" unicode="&#x425;" horiz-adv-x="703" 
d="M240 374l-228 334h206l132 -220l130 220h199l-224 -334l256 -374h-211l-155 250l-149 -250h-204z" />
    <glyph glyph-name="afii10040" unicode="&#x426;" horiz-adv-x="784" 
d="M614 0h-541v708h171v-562h272v562h171v-562h77v-297h-150v151z" />
    <glyph glyph-name="afii10041" unicode="&#x427;" horiz-adv-x="702" 
d="M458 262q-79 -22 -158 -22q-121 0 -178 49q-58 50 -58 158v261h169v-218q0 -60 27 -85q26 -25 87 -25q73 0 111 18v310h171v-708h-171v262z" />
    <glyph glyph-name="afii10042" unicode="&#x428;" horiz-adv-x="1105" 
d="M73 708h171v-562h223v562h171v-562h223v562h171v-708h-959v708z" />
    <glyph glyph-name="afii10043" unicode="&#x429;" horiz-adv-x="1129" 
d="M959 0h-886v708h171v-562h223v562h171v-562h223v562h171v-562h77v-297h-150v151z" />
    <glyph glyph-name="afii10044" unicode="&#x42a;" horiz-adv-x="722" 
d="M152 563h-147v145h318v-260h90q122 0 194 -50q82 -57 82 -173q0 -112 -82 -172q-73 -53 -193 -53h-262v563zM401 136q119 0 119 90q0 89 -119 89h-78v-179h78z" />
    <glyph glyph-name="afii10045" unicode="&#x42b;" horiz-adv-x="936" 
d="M73 708h171v-260h90q122 0 194 -50q82 -58 82 -173q0 -113 -82 -172q-74 -53 -193 -53h-262v708zM321 136q119 0 119 90q0 89 -119 89h-77v-179h77zM693 708h170v-708h-170v708z" />
    <glyph glyph-name="afii10046" unicode="&#x42c;" horiz-adv-x="640" 
d="M73 708h171v-260h90q122 0 194 -50q82 -58 82 -173q0 -113 -82 -172q-74 -53 -193 -53h-262v708zM321 136q119 0 119 90q0 89 -119 89h-77v-179h77z" />
    <glyph glyph-name="afii10047" unicode="&#x42d;" horiz-adv-x="696" 
d="M5 96l104 115q55 -76 171 -76q72 0 125 46q51 44 61 112h-263v136h261q-14 62 -64 102q-52 42 -121 42q-111 0 -161 -71l-108 121q96 104 267 104q162 0 269 -103q110 -106 110 -270q0 -163 -109 -269q-108 -104 -270 -104q-174 0 -272 115z" />
    <glyph glyph-name="afii10048" unicode="&#x42e;" horiz-adv-x="1114" 
d="M465 71q-95 87 -113 227h-108v-298h-171v708h171v-270h112q25 129 118 208q96 81 237 81q163 0 264 -106q99 -104 99 -265t-99 -267q-102 -108 -264 -108q-147 0 -246 90zM844 202q47 61 47 154t-47 154q-50 63 -133 63q-84 0 -134 -63q-47 -61 -47 -154q0 -94 47 -154
q50 -65 134 -65q83 0 133 65z" />
    <glyph glyph-name="afii10049" unicode="&#x42f;" horiz-adv-x="668" 
d="M196 289q-140 48 -140 201q0 114 83 170q72 48 196 48h260v-708h-171v263h-60l-149 -263h-197zM424 393v179h-80q-120 0 -120 -88q0 -91 126 -91h74z" />
    <glyph glyph-name="afii10065" unicode="&#x430;" horiz-adv-x="566" 
d="M94 22q-61 42 -61 122q0 168 320 168v8q0 72 -90 72q-68 0 -123 -51l-83 89q89 84 222 84q123 0 177 -64q52 -61 52 -199v-251h-150v53h-3q-40 -65 -141 -65q-71 0 -120 34zM331 126q27 27 27 74v17h-21q-153 0 -153 -68q0 -51 71 -51q49 0 76 28z" />
    <glyph glyph-name="afii10066" unicode="&#x431;" horiz-adv-x="644" 
d="M133 56q-85 78 -85 251q0 194 40 278q52 109 196 128l108 14q79 10 90 48l116 -33q-15 -72 -51 -106q-34 -32 -100 -40l-127 -17q-77 -11 -109 -39q-46 -40 -51 -141h2q59 102 196 102q102 0 171 -67q75 -72 75 -188q0 -119 -80 -192q-78 -70 -197 -70q-116 0 -194 72z
M416 163q30 36 30 88q0 51 -31 88q-33 39 -88 39t-87 -39q-30 -36 -30 -88t30 -88q33 -41 88 -41t88 41z" />
    <glyph glyph-name="afii10067" unicode="&#x432;" horiz-adv-x="585" 
d="M64 498h276q183 0 183 -131q0 -81 -79 -105v-2q43 -8 71 -37q30 -33 30 -80q0 -71 -57 -109q-51 -34 -135 -34h-289v498zM305 101q76 0 76 56q0 55 -78 55h-79v-111h81zM304 297q63 0 63 52q0 49 -70 49h-73v-101h80z" />
    <glyph glyph-name="afii10068" unicode="&#x433;" horiz-adv-x="449" 
d="M64 498h365v-126h-200v-372h-165v498z" />
    <glyph glyph-name="afii10069" unicode="&#x434;" horiz-adv-x="655" 
d="M10 127h47q61 77 61 244v127h453v-371h69v-252h-134v125h-362v-125h-134v252zM406 127v245h-134v-42q0 -127 -46 -203h180z" />
    <glyph glyph-name="afii10070" unicode="&#x435;" horiz-adv-x="596" 
d="M120 53q-81 72 -81 194q0 120 78 195q75 72 191 72q112 0 180 -72q70 -73 70 -199q0 -27 -1 -39h-361q4 -40 39 -68q35 -26 80 -26q72 0 110 52l114 -72q-73 -106 -226 -106q-117 0 -193 69zM407 306q0 41 -25 67q-26 28 -73 28q-46 0 -79 -28q-31 -28 -34 -67h211z" />
    <glyph glyph-name="afii10072" unicode="&#x436;" horiz-adv-x="857" 
d="M178 263l-170 235h190l145 -221h3v221h165v-221h3l145 221h190l-170 -235l182 -263h-191l-156 233h-3v-233h-165v233h-3l-156 -233h-191z" />
    <glyph glyph-name="afii10073" unicode="&#x437;" horiz-adv-x="502" 
d="M10 66l82 90q49 -57 128 -57q83 0 83 52q0 53 -100 53h-43v102h45q86 0 86 49q0 42 -70 42q-71 0 -113 -45l-78 83q74 79 212 79q92 0 148 -36q57 -37 57 -101q0 -43 -26 -75q-25 -31 -64 -40v-3q105 -24 105 -122q0 -74 -68 -117q-61 -39 -145 -39q-157 0 -239 85z" />
    <glyph glyph-name="afii10074" unicode="&#x438;" horiz-adv-x="639" 
d="M64 498h162v-290h2l173 290h174v-498h-160v283h-3l-170 -283h-178v498z" />
    <glyph glyph-name="afii10075" unicode="&#x439;" horiz-adv-x="639" 
d="M154 703l80 16q9 -59 85 -59q77 0 84 59l80 -16q-20 -131 -164 -131q-143 0 -165 131zM64 498h162v-290h2l173 290h174v-498h-160v283h-3l-170 -283h-178v498z" />
    <glyph glyph-name="afii10076" unicode="&#x43a;" horiz-adv-x="599" 
d="M64 498h165v-211h3l163 211h199l-195 -233l204 -265h-201l-170 225h-3v-225h-165v498z" />
    <glyph glyph-name="afii10077" unicode="&#x43b;" horiz-adv-x="640" 
d="M5 2l10 125q12 -4 31 -4q41 0 60 36q24 45 24 154v185h446v-498h-165v372h-123v-89q0 -157 -50 -226q-45 -63 -143 -63q-64 0 -90 8z" />
    <glyph glyph-name="afii10078" unicode="&#x43c;" horiz-adv-x="801" 
d="M64 498h217l121 -297h2l114 297h219v-498h-158v327h-3l-128 -327h-100l-127 328h-3v-328h-154v498z" />
    <glyph glyph-name="afii10079" unicode="&#x43d;" horiz-adv-x="620" 
d="M64 498h165v-176h162v176h165v-498h-165v196h-162v-196h-165v498z" />
    <glyph glyph-name="afii10080" unicode="&#x43e;" horiz-adv-x="632" 
d="M121 56q-82 76 -82 195t82 193q78 70 194 70q117 0 195 -70q82 -74 82 -193t-82 -195q-78 -72 -195 -72q-116 0 -194 72zM404 163q30 36 30 88q0 51 -31 88q-33 39 -88 39t-87 -39q-30 -36 -30 -88t30 -88q33 -41 88 -41t88 41z" />
    <glyph glyph-name="afii10081" unicode="&#x43f;" horiz-adv-x="620" 
d="M64 498h492v-498h-165v372h-162v-372h-165v498z" />
    <glyph glyph-name="afii10082" unicode="&#x440;" horiz-adv-x="657" 
d="M64 498h156v-61h3q56 75 159 75q105 0 172 -78q64 -75 64 -183q0 -110 -62 -185q-67 -80 -175 -80q-101 0 -151 69h-2v-295h-164v738zM430 162q29 36 29 89q0 52 -29 88q-33 39 -88 39q-53 0 -88 -40q-32 -38 -32 -88q0 -51 32 -88q35 -40 88 -40q55 0 88 40z" />
    <glyph glyph-name="afii10083" unicode="&#x441;" horiz-adv-x="503" 
d="M120 55q-81 73 -81 194q0 119 81 193q78 72 197 72q120 0 185 -67l-95 -110q-30 40 -87 40q-51 0 -83 -38q-32 -37 -32 -90t32 -89q32 -38 85 -38q58 0 89 37l91 -111q-66 -64 -184 -64q-121 0 -198 71z" />
    <glyph glyph-name="afii10084" unicode="&#x442;" horiz-adv-x="503" 
d="M169 372h-149v126h463v-126h-149v-372h-165v372z" />
    <glyph glyph-name="afii10085" unicode="&#x443;" horiz-adv-x="567" 
d="M36 -229l18 138q29 -9 53 -9q59 0 84 67l16 41l-208 490h182l111 -320h3l99 320h174l-223 -573q-32 -84 -78 -121q-52 -44 -141 -44q-46 0 -90 11z" />
    <glyph glyph-name="afii10086" unicode="&#x444;" horiz-adv-x="833" 
d="M334 -17q-138 2 -216 73q-79 71 -79 192t79 191q78 70 216 73v244h165v-244q138 -3 216 -73q79 -70 79 -191t-78 -192q-79 -71 -217 -73v-223h-165v223zM334 378q-129 -4 -129 -129q0 -126 129 -130v259zM499 119q129 4 129 130q0 125 -129 129v-259z" />
    <glyph glyph-name="afii10087" unicode="&#x445;" horiz-adv-x="594" 
d="M196 261l-180 237h191l93 -133l94 133h185l-179 -237l197 -261h-193l-107 153l-110 -153h-190z" />
    <glyph glyph-name="afii10088" unicode="&#x446;" horiz-adv-x="642" 
d="M493 0h-429v498h165v-371h164v371h165v-371h69v-252h-134v125z" />
    <glyph glyph-name="afii10089" unicode="&#x447;" horiz-adv-x="589" 
d="M360 171q-48 -13 -126 -13q-182 0 -182 155v185h161v-135q0 -48 21 -66q17 -16 59 -16q22 0 67 9v208h165v-498h-165v171z" />
    <glyph glyph-name="afii10090" unicode="&#x448;" horiz-adv-x="905" 
d="M64 498h165v-371h141v371h165v-371h141v371h165v-498h-777v498z" />
    <glyph glyph-name="afii10091" unicode="&#x449;" horiz-adv-x="925" 
d="M776 -125v125h-712v498h165v-371h141v371h165v-371h141v371h165v-371h69v-252h-134z" />
    <glyph glyph-name="afii10092" unicode="&#x44a;" horiz-adv-x="638" 
d="M138 372h-118v126h283v-163h101q92 0 145 -38q61 -42 61 -128q0 -84 -61 -128q-55 -41 -145 -41h-266v372zM373 108q75 0 75 62q0 59 -75 59h-70v-121h70z" />
    <glyph glyph-name="afii10093" unicode="&#x44b;" horiz-adv-x="833" 
d="M64 498h165v-163h101q92 0 145 -38q61 -42 61 -128q0 -84 -61 -128q-55 -41 -145 -41h-266v498zM299 108q75 0 75 62q0 59 -75 59h-70v-121h70zM604 498h165v-498h-165v498z" />
    <glyph glyph-name="afii10094" unicode="&#x44c;" horiz-adv-x="564" 
d="M64 498h165v-163h101q92 0 145 -38q61 -42 61 -128q0 -84 -61 -128q-55 -41 -145 -41h-266v498zM299 108q75 0 75 62q0 59 -75 59h-70v-121h70z" />
    <glyph glyph-name="afii10095" unicode="&#x44d;" horiz-adv-x="518" 
d="M1 50l82 105q37 -44 107 -44q106 0 125 93h-172v104h168q-21 82 -118 82q-71 0 -111 -46l-78 106q71 64 192 64q128 0 206 -73q77 -73 77 -193q0 -121 -76 -193q-76 -73 -206 -73q-121 0 -196 68z" />
    <glyph glyph-name="afii10096" unicode="&#x44e;" horiz-adv-x="874" 
d="M391 41q-74 59 -91 156h-71v-197h-165v498h165v-179h74q22 89 94 143q71 52 166 52q114 0 191 -71q80 -75 80 -194t-80 -194q-77 -72 -191 -72q-99 0 -172 58zM646 159q30 34 30 90t-31 91q-31 36 -82 36q-50 0 -81 -36t-31 -91q0 -56 31 -91t81 -35q52 0 83 36z" />
    <glyph glyph-name="afii10097" unicode="&#x44f;" horiz-adv-x="601" 
d="M147 183q-101 36 -101 148q0 83 61 127q55 40 143 40h278v-498h-165v165h-61l-85 -165h-187zM363 268v126h-79q-83 0 -83 -63t83 -63h79z" />
    <glyph glyph-name="uni0450" unicode="&#x450;" horiz-adv-x="596" 
d="M260 572l-146 144h166l104 -144h-124zM120 53q-81 72 -81 194q0 120 78 195q75 72 191 72q112 0 180 -72q70 -73 70 -199q0 -27 -1 -39h-361q4 -40 39 -68q35 -26 80 -26q72 0 110 52l114 -72q-73 -106 -226 -106q-117 0 -193 69zM407 306q0 41 -25 67q-26 28 -73 28
q-46 0 -79 -28q-31 -28 -34 -67h211z" />
    <glyph glyph-name="afii10071" unicode="&#x451;" horiz-adv-x="596" 
d="M478 600q-24 -24 -58 -24q-35 0 -59 24t-24 58q0 33 24 57t59 24q34 0 58 -24q25 -23 25 -57t-25 -58zM261 600q-24 -24 -59 -24q-34 0 -59 24q-24 24 -24 58q0 33 24 57q25 24 59 24q35 0 59 -24q25 -23 25 -57t-25 -58zM120 53q-81 72 -81 194q0 120 78 195
q75 72 191 72q112 0 180 -72q70 -73 70 -199q0 -27 -1 -39h-361q4 -40 39 -68q35 -26 80 -26q72 0 110 52l114 -72q-73 -106 -226 -106q-117 0 -193 69zM407 306q0 41 -25 67q-26 28 -73 28q-46 0 -79 -28q-31 -28 -34 -67h211z" />
    <glyph glyph-name="afii10099" unicode="&#x452;" horiz-adv-x="617" 
d="M271 -231l13 128q22 -6 37 -6q71 0 71 93v276q0 105 -73 105q-41 0 -66 -31q-23 -29 -23 -75v-259h-164v564h-66v95h66v97h164v-97h134v-95h-134v-139h2q42 77 143 77q94 0 142 -64q40 -55 40 -140v-320q0 -218 -209 -218q-42 0 -77 9z" />
    <glyph glyph-name="afii10100" unicode="&#x453;" horiz-adv-x="449" 
d="M275 572h-124l104 144h166zM64 498h365v-126h-200v-372h-165v498z" />
    <glyph glyph-name="afii10101" unicode="&#x454;" horiz-adv-x="518" 
d="M115 55q-76 72 -76 193q0 120 77 193q78 73 206 73q121 0 192 -64l-78 -106q-40 46 -111 46q-97 0 -118 -82h168v-104h-172q19 -93 125 -93q70 0 107 44l82 -105q-75 -68 -196 -68q-130 0 -206 73z" />
    <glyph glyph-name="afii10102" unicode="&#x455;" horiz-adv-x="472" 
d="M11 61l92 97q51 -56 122 -56q59 0 59 43q0 22 -24 34q-19 10 -75 23q-145 34 -145 145q0 82 68 128q58 39 139 39q125 0 200 -70l-90 -93q-47 45 -104 45q-62 0 -62 -40q0 -20 22 -30q16 -8 69 -20q159 -36 159 -152q0 -87 -68 -132q-57 -38 -145 -38q-137 0 -217 77z
" />
    <glyph glyph-name="afii10103" unicode="&#x456;" horiz-adv-x="296" 
d="M66 498h164v-498h-164v498zM81 594q-27 26 -27 63q0 36 27 63q28 27 67 27t67 -26q27 -27 27 -64q0 -38 -27 -64q-28 -26 -67 -26t-67 27z" />
    <glyph glyph-name="afii10104" unicode="&#x457;" horiz-adv-x="296" 
d="M315 600q-24 -24 -58 -24q-35 0 -59 24t-24 58q0 33 24 57t59 24q34 0 58 -24q25 -23 25 -57t-25 -58zM98 600q-24 -24 -59 -24q-34 0 -59 24q-24 24 -24 58q0 33 24 57q25 24 59 24q35 0 59 -24q25 -23 25 -57t-25 -58zM68 0v498h164v-498h-164z" />
    <glyph glyph-name="afii10105" unicode="&#x458;" horiz-adv-x="299" 
d="M-37 -232l11 137q15 -5 35 -5q60 0 60 87v511h164v-511q0 -227 -199 -227q-42 0 -71 8zM84 594q-27 26 -27 63q0 36 27 63q28 27 67 27t67 -26q27 -27 27 -64q0 -38 -27 -64q-28 -26 -67 -26t-67 27z" />
    <glyph glyph-name="afii10106" unicode="&#x459;" horiz-adv-x="915" 
d="M5 2l10 124q12 -4 31 -4q41 0 60 36q24 45 24 154v186h450v-163h101q92 0 145 -38q61 -42 61 -128q0 -84 -61 -128q-55 -41 -145 -41h-266v372h-129v-89q0 -158 -49 -226q-45 -63 -142 -63q-64 0 -90 8zM650 108q75 0 75 62q0 59 -75 59h-70v-121h70z" />
    <glyph glyph-name="afii10107" unicode="&#x45a;" horiz-adv-x="891" 
d="M64 498h165v-173h162v173h165v-173h101q206 0 206 -162q0 -81 -60 -124q-55 -39 -145 -39h-267v208h-162v-208h-165v498zM623 106q78 0 78 60q0 59 -78 59h-67v-119h67z" />
    <glyph glyph-name="afii10108" unicode="&#x45b;" horiz-adv-x="617" 
d="M66 564h-66v95h66v97h164v-97h134v-95h-134v-139h2q42 77 143 77q94 0 142 -64q40 -55 40 -140v-298h-165v260q0 105 -73 105q-41 0 -66 -31q-23 -29 -23 -75v-259h-164v564z" />
    <glyph glyph-name="afii10109" unicode="&#x45c;" horiz-adv-x="599" 
d="M357 572h-124l104 144h166zM64 498h165v-211h3l163 211h199l-195 -233l204 -265h-201l-170 225h-3v-225h-165v498z" />
    <glyph glyph-name="uni045D" unicode="&#x45d;" horiz-adv-x="639" 
d="M273 572l-146 144h166l104 -144h-124zM64 498h162v-290h2l173 290h174v-498h-160v283h-3l-170 -283h-178v498z" />
    <glyph glyph-name="afii10110" unicode="&#x45e;" horiz-adv-x="567" 
d="M129 703l80 16q9 -59 85 -59q77 0 84 59l80 -16q-20 -131 -164 -131q-143 0 -165 131zM36 -229l18 138q29 -9 53 -9q59 0 84 67l16 41l-208 490h182l111 -320h3l99 320h174l-223 -573q-32 -84 -78 -121q-52 -44 -141 -44q-46 0 -90 11z" />
    <glyph glyph-name="afii10193" unicode="&#x45f;" horiz-adv-x="620" 
d="M243 0h-179v498h165v-371h162v371h165v-498h-179v-125h-134v125z" />
    <glyph glyph-name="afii10050" unicode="&#x490;" horiz-adv-x="523" 
d="M73 708h307v132h138v-279h-274v-561h-171v708z" />
    <glyph glyph-name="afii10098" unicode="&#x491;" horiz-adv-x="449" 
d="M64 498h243v115h122v-241h-200v-372h-165v498z" />
    <glyph glyph-name="Wgrave" unicode="&#x1e80;" horiz-adv-x="1025" 
d="M823 0h-169l-140 479h-3l-140 -479h-170l-201 708h184l112 -471h3l126 471h178l127 -471h3l114 471h178zM467 764l-146 144h166l104 -144h-124z" />
    <glyph glyph-name="wgrave" unicode="&#x1e81;" horiz-adv-x="871" 
d="M698 0h-165l-98 310h-2l-96 -310h-165l-172 498h177l86 -315h3l89 315h165l92 -315h2l87 315h170zM385 572l-146 144h166l104 -144h-124z" />
    <glyph glyph-name="Wacute" unicode="&#x1e82;" horiz-adv-x="1025" 
d="M823 0h-169l-140 479h-3l-140 -479h-170l-201 708h184l112 -471h3l126 471h178l127 -471h3l114 471h178zM561 764h-124l104 144h166z" />
    <glyph glyph-name="wacute" unicode="&#x1e83;" horiz-adv-x="871" 
d="M698 0h-165l-98 310h-2l-96 -310h-165l-172 498h177l86 -315h3l89 315h165l92 -315h2l87 315h170zM490 572h-124l104 144h166z" />
    <glyph glyph-name="Wdieresis" unicode="&#x1e84;" horiz-adv-x="1025" 
d="M823 0h-169l-140 479h-3l-140 -479h-170l-201 708h184l112 -471h3l126 471h178l127 -471h3l114 471h178zM679 792q-24 -24 -58 -24q-35 0 -59 24t-24 58q0 33 24 57t59 24q34 0 58 -24q25 -23 25 -57t-25 -58zM462 792q-24 -24 -59 -24q-34 0 -59 24q-24 24 -24 58
q0 33 24 57q25 24 59 24q35 0 59 -24q25 -23 25 -57t-25 -58z" />
    <glyph glyph-name="wdieresis" unicode="&#x1e85;" horiz-adv-x="871" 
d="M698 0h-165l-98 310h-2l-96 -310h-165l-172 498h177l86 -315h3l89 315h165l92 -315h2l87 315h170zM601 600q-24 -24 -58 -24q-35 0 -59 24t-24 58q0 33 24 57t59 24q34 0 58 -24q25 -23 25 -57t-25 -58zM384 600q-24 -24 -59 -24q-34 0 -59 24q-24 24 -24 58q0 33 24 57
q25 24 59 24q35 0 59 -24q25 -23 25 -57t-25 -58z" />
    <glyph glyph-name="Ygrave" unicode="&#x1ef2;" horiz-adv-x="669" 
d="M417 300v-300h-171v300l-266 408h207l151 -262l151 262h200zM285 764l-146 144h166l104 -144h-124z" />
    <glyph glyph-name="ygrave" unicode="&#x1ef3;" horiz-adv-x="567" 
d="M345 -75q-32 -84 -78 -121q-52 -44 -141 -44q-46 0 -90 11l18 138q29 -9 53 -9q59 0 84 67l16 41l-208 490h182l111 -320h3l99 320h174zM232 572l-146 144h166l104 -144h-124z" />
    <glyph glyph-name="uni2010" unicode="&#x2010;" horiz-adv-x="326" 
d="M36 197v130h254v-130h-254z" />
    <glyph glyph-name="endash" unicode="&#x2013;" horiz-adv-x="400" 
d="M30 210v103h340v-103h-340z" />
    <glyph glyph-name="emdash" unicode="&#x2014;" horiz-adv-x="600" 
d="M30 209v104h540v-104h-540z" />
    <glyph glyph-name="quoteleft" unicode="&#x2018;" 
d="M187 437h-145l91 271h126z" />
    <glyph glyph-name="quoteright" unicode="&#x2019;" 
d="M167 437h-126l72 271h145z" />
    <glyph glyph-name="quotesinglbase" unicode="&#x201a;" 
d="M166 -126h-126l72 271h145z" />
    <glyph glyph-name="quotedblleft" unicode="&#x201c;" horiz-adv-x="507" 
d="M395 437h-144l89 271h126zM185 437h-143l91 271h126z" />
    <glyph glyph-name="quotedblright" unicode="&#x201d;" horiz-adv-x="507" 
d="M375 437h-127l74 271h143zM167 437h-126l72 271h143z" />
    <glyph glyph-name="quotedblbase" unicode="&#x201e;" horiz-adv-x="507" 
d="M374 -126h-127l74 271h143zM166 -126h-126l72 271h143z" />
    <glyph glyph-name="dagger" unicode="&#x2020;" horiz-adv-x="603" 
d="M371 382v-511h-142v511h-191v125h191v201h142v-201h194v-125h-194z" />
    <glyph glyph-name="daggerdbl" unicode="&#x2021;" horiz-adv-x="603" 
d="M372 50v-179h-141v179h-189v124h189v232h-189v123h188v179h142v-179h190v-123h-190v-232h190v-124h-190z" />
    <glyph glyph-name="bullet" unicode="&#x2022;" horiz-adv-x="500" 
d="M375 229q-51 -52 -125 -52q-73 0 -125 52t-52 125q0 74 52 125q52 52 125 52q74 0 125 -52q52 -51 52 -125q0 -73 -52 -125z" />
    <glyph glyph-name="ellipsis" unicode="&#x2026;" horiz-adv-x="1000" 
d="M903 18q-29 -28 -70 -28t-71 28q-31 28 -31 69t30 70t72 29q41 0 70 -28q30 -29 30 -70t-30 -70zM570 18q-29 -28 -70 -28t-71 28q-31 28 -31 69t30 70t72 29q41 0 70 -28q30 -29 30 -70t-30 -70zM238 18q-30 -28 -71 -28t-71 28t-30 69q0 40 30 70q30 29 71 29t70 -28
q30 -29 30 -70t-29 -70z" />
    <glyph glyph-name="perthousand" unicode="&#x2030;" horiz-adv-x="1245" 
d="M1157 40q-53 -52 -127 -52t-126 52q-53 53 -53 127t53 126q52 52 126 52t127 -52t53 -126t-53 -127zM1083 220q-21 21 -53 21q-31 0 -53 -21q-21 -21 -21 -53q0 -31 21 -53q22 -21 53 -21q32 0 53 21q21 22 21 53q0 32 -21 53zM759 40q-53 -52 -127 -52t-127 52
q-53 53 -53 127t53 126t127 52t127 -52t53 -126t-53 -127zM684 220q-21 21 -52 21t-53 -21q-21 -21 -21 -53q0 -31 21 -53q22 -21 53 -21t52 21q22 22 22 53t-22 53zM341 415q-53 -52 -127 -52t-127 52q-53 53 -53 127t53 126t127 52t127 -52t53 -126t-53 -127zM266 595
q-21 21 -52 21t-53 -21q-21 -21 -21 -53q0 -31 21 -53q22 -21 53 -21t52 21q22 22 22 53t-22 53zM272 -30l-89 39l388 731l89 -41z" />
    <glyph glyph-name="guilsinglleft" unicode="&#x2039;" horiz-adv-x="318" 
d="M186 22l-161 232l161 232l97 -63l-115 -169l116 -169z" />
    <glyph glyph-name="guilsinglright" unicode="&#x203a;" horiz-adv-x="318" 
d="M132 22l-97 63l115 168l-116 170l98 63l161 -233z" />
    <glyph glyph-name="uni203D" unicode="&#x203d;" horiz-adv-x="546" 
d="M198 226l-1 278h133l-5 -112l1 -1q56 60 56 118q0 89 -96 89q-88 0 -102 -83l-148 18q13 90 83 143q68 51 170 51q104 0 169 -51q69 -54 69 -152q0 -105 -118 -197q-59 -45 -59 -93v-8h-152zM344 18q-28 -28 -69 -28q-40 0 -69 27q-29 28 -29 67t29 67t69 28t69 -27
q29 -28 29 -67q0 -40 -29 -67z" />
    <glyph glyph-name="fraction" unicode="&#x2044;" horiz-adv-x="100" 
d="M-107 -30l-87 39l388 731l87 -41z" />
    <glyph glyph-name="uni2070" unicode="&#x2070;" horiz-adv-x="420" 
d="M346 504q-45 -68 -135 -68q-91 0 -136 68q-40 60 -40 160t40 158q45 68 136 68q90 0 135 -68q39 -58 39 -158q0 -101 -39 -160zM211 791q-58 0 -58 -127q0 -129 58 -129q56 0 56 129q0 127 -56 127z" />
    <glyph glyph-name="uni2074" unicode="&#x2074;" horiz-adv-x="420" 
d="M229 445v83h-200v93l175 260h131v-259h58v-94h-58v-83h-106zM229 756h-1l-88 -134h89v134z" />
    <glyph glyph-name="uni2075" unicode="&#x2075;" horiz-adv-x="420" 
d="M326 474q-47 -38 -117 -38q-134 0 -168 117l103 31q16 -51 63 -51q56 0 56 55q0 58 -77 58q-54 0 -112 -24l10 259h273v-100h-170l-3 -51q20 3 36 3q69 0 112 -36q46 -38 46 -104q0 -76 -52 -119z" />
    <glyph glyph-name="uni2076" unicode="&#x2076;" horiz-adv-x="420" 
d="M332 478q-48 -42 -122 -42t-122 43q-51 44 -51 114q0 65 47 135l104 153h139l-105 -142l1 -1q4 1 18 1q58 0 99 -40q43 -41 43 -104q0 -73 -51 -117zM253 635q-17 18 -43 18t-43 -17q-16 -18 -16 -44q0 -25 16 -41q16 -18 42 -18q27 0 44 17q16 17 16 43q0 25 -16 42z
" />
    <glyph glyph-name="uni2077" unicode="&#x2077;" horiz-adv-x="420" 
d="M77 445l171 336h-194v100h320v-87l-164 -349h-133z" />
    <glyph glyph-name="uni2078" unicode="&#x2078;" horiz-adv-x="420" 
d="M325 470q-45 -34 -115 -34t-115 34q-50 36 -50 102q0 71 68 101v2q-58 26 -58 89q0 59 47 94q43 32 108 32t108 -31q47 -34 47 -93q0 -65 -57 -91v-2q67 -27 67 -101q0 -66 -50 -102zM179 788q-13 -13 -13 -31q0 -43 44 -43q19 0 31 13q13 12 13 30t-13 31q-12 12 -31 12
t-31 -12zM172 613q-15 -14 -15 -36t15 -35q15 -14 38 -14t38 14q15 13 15 35q0 21 -15 36q-16 15 -38 15q-23 0 -38 -15z" />
    <glyph glyph-name="uni2079" unicode="&#x2079;" horiz-adv-x="420" 
d="M335 598l-103 -153h-140l105 142l-1 2q-5 -2 -18 -2q-59 0 -100 41t-41 103q0 72 50 117q49 42 122 42q74 0 123 -42q51 -44 51 -115q0 -63 -48 -135zM252 776q-16 18 -42 18q-60 0 -60 -61q0 -25 16 -42q17 -17 43 -17t43 17q16 17 16 43q0 25 -16 42z" />
    <glyph glyph-name="uni2080" unicode="&#x2080;" horiz-adv-x="420" 
d="M346 -86q-45 -68 -135 -68q-91 0 -136 68q-40 60 -40 160t40 158q45 68 136 68q90 0 135 -68q39 -58 39 -158q0 -101 -39 -160zM211 201q-58 0 -58 -127q0 -129 58 -129q56 0 56 129q0 127 -56 127z" />
    <glyph glyph-name="uni2081" unicode="&#x2081;" horiz-adv-x="420" 
d="M181 -145v306l-74 -58l-60 81l145 107h106v-436h-117z" />
    <glyph glyph-name="uni2082" unicode="&#x2082;" horiz-adv-x="420" 
d="M55 -145v92l170 156q29 26 29 56q0 40 -45 40q-49 0 -54 -61l-110 14q7 69 56 109q46 39 113 39t110 -32q50 -36 50 -102t-76 -134l-87 -77h163v-100h-319z" />
    <glyph glyph-name="uni2083" unicode="&#x2083;" horiz-adv-x="420" 
d="M327 -121q-46 -33 -112 -33q-141 0 -176 122l105 28q16 -53 64 -53q56 0 56 46q0 47 -78 47h-33v84h36q65 0 65 47q0 38 -46 38q-41 0 -51 -48l-105 25q16 56 63 88q44 30 101 30q64 0 106 -29q47 -33 47 -92q0 -67 -57 -96q67 -23 67 -100q0 -67 -52 -104z" />
    <glyph glyph-name="uni2084" unicode="&#x2084;" horiz-adv-x="420" 
d="M229 -145v83h-200v93l175 260h131v-259h58v-94h-58v-83h-106zM229 166h-1l-88 -134h89v134z" />
    <glyph glyph-name="uni2085" unicode="&#x2085;" horiz-adv-x="420" 
d="M326 -116q-47 -38 -117 -38q-134 0 -168 117l103 31q16 -51 63 -51q56 0 56 55q0 58 -77 58q-54 0 -112 -24l10 259h273v-100h-170l-3 -51q20 3 36 3q69 0 112 -36q46 -38 46 -104q0 -76 -52 -119z" />
    <glyph glyph-name="uni2086" unicode="&#x2086;" horiz-adv-x="420" 
d="M332 -112q-48 -42 -122 -42t-122 43q-51 44 -51 114q0 65 47 135l104 153h139l-105 -142l1 -1q4 1 18 1q58 0 99 -40q43 -41 43 -104q0 -73 -51 -117zM253 45q-17 18 -43 18t-43 -17q-16 -18 -16 -44q0 -25 16 -41q16 -18 42 -18q27 0 44 17q16 17 16 43q0 25 -16 42z
" />
    <glyph glyph-name="uni2087" unicode="&#x2087;" horiz-adv-x="420" 
d="M77 -145l171 336h-194v100h320v-87l-164 -349h-133z" />
    <glyph glyph-name="uni2088" unicode="&#x2088;" horiz-adv-x="420" 
d="M325 -120q-45 -34 -115 -34t-115 34q-50 36 -50 102q0 71 68 101v2q-58 26 -58 89q0 59 47 94q43 32 108 32t108 -31q47 -34 47 -93q0 -65 -57 -91v-2q67 -27 67 -101q0 -66 -50 -102zM179 198q-13 -13 -13 -31q0 -43 44 -43q19 0 31 13q13 12 13 30t-13 31
q-12 12 -31 12t-31 -12zM172 23q-15 -14 -15 -36t15 -35q15 -14 38 -14t38 14q15 13 15 35q0 21 -15 36q-16 15 -38 15q-23 0 -38 -15z" />
    <glyph glyph-name="uni2089" unicode="&#x2089;" horiz-adv-x="420" 
d="M335 8l-103 -153h-140l105 142l-1 2q-5 -2 -18 -2q-59 0 -100 41t-41 103q0 72 50 117q49 42 122 42q74 0 123 -42q51 -44 51 -115q0 -63 -48 -135zM252 186q-16 18 -42 18q-60 0 -60 -61q0 -25 16 -42q17 -17 43 -17t43 17q16 17 16 43q0 25 -16 42z" />
    <glyph glyph-name="Euro" unicode="&#x20ac;" horiz-adv-x="646" 
d="M604 20q-67 -39 -176 -39q-126 0 -210 67q-77 62 -105 168h-92l34 103h45q-1 12 -1 35q0 18 3 36h-78l36 104h57q32 109 122 171q88 62 211 62q100 0 163 -30l-49 -126q-44 23 -119 23q-53 0 -97 -26q-48 -27 -65 -74h265l-35 -104h-258q-2 -12 -2 -37q0 -23 1 -34h241
l-34 -103h-186q14 -43 59 -71q47 -29 106 -29q74 0 127 31z" />
    <glyph glyph-name="afii61248" unicode="&#x2105;" horiz-adv-x="942" 
d="M97 396q-58 52 -58 138q0 85 58 139q56 51 141 51q86 0 137 -54l-75 -83q-21 28 -60 28q-33 0 -54 -22t-21 -59q0 -33 21 -55q22 -24 56 -24q37 0 61 27l72 -84q-54 -52 -137 -52q-86 0 -141 50zM845 40q-56 -52 -139 -52t-139 52q-58 54 -58 139q0 84 58 137
q56 50 139 50t139 -50q58 -53 58 -137q0 -85 -58 -139zM763 233q-22 25 -57 25q-36 0 -57 -25q-19 -22 -19 -54q0 -33 19 -56q21 -26 57 -26t57 26q19 23 19 56q0 32 -19 54zM295 -34l-89 44l416 730l90 -45z" />
    <glyph glyph-name="afii61289" unicode="&#x2113;" horiz-adv-x="500" 
d="M465 56q-85 -70 -181 -70q-82 0 -129 44q-44 41 -44 107v25l-54 -45h-2l-54 84l109 86v233q0 85 54 143t138 58q73 0 117 -43q43 -42 43 -112q0 -145 -196 -303v-101q0 -63 57 -63q36 0 88 37h2zM301 619q-35 0 -35 -69v-157q70 71 70 164q0 62 -35 62z" />
    <glyph glyph-name="afii61352" unicode="&#x2116;" horiz-adv-x="1068" 
d="M73 708h181l227 -433h3v433h165v-708h-184l-223 422h-4v-422h-165v708zM739 371h289v-85h-289v85zM771 459q-45 43 -45 110q0 66 45 108q44 41 110 41q67 0 111 -41q45 -42 45 -108q0 -67 -45 -110q-44 -41 -111 -41q-66 0 -110 41zM926 524q16 18 16 45q0 26 -16 44
q-18 19 -45 19t-44 -19q-15 -18 -15 -44q0 -27 15 -45q17 -19 44 -19q28 0 45 19z" />
    <glyph glyph-name="uni2117" unicode="&#x2117;" horiz-adv-x="800" 
d="M132 620q111 110 269 110q157 0 268 -110t111 -267q0 -156 -111 -266q-111 -109 -268 -109q-158 0 -269 109q-112 110 -112 266q0 157 112 267zM173 128q93 -94 226 -94q132 0 227 94q94 93 94 225q0 133 -93 227q-94 94 -226 94q-133 0 -227 -94t-94 -227
q0 -132 93 -225zM260 569h178q80 0 126 -35q51 -39 51 -113t-52 -114q-48 -37 -125 -37h-59v-145h-119v444zM434 366q64 0 64 54q0 53 -62 53h-57v-107h55z" />
    <glyph glyph-name="trademark" unicode="&#x2122;" horiz-adv-x="1000" 
d="M842 296v259h-2l-97 -259h-79l-96 259h-2v-259h-105v412h150l95 -260l92 260h150v-412h-106zM268 613v-317h-110v317h-118v95h346v-95h-118z" />
    <glyph glyph-name="uni2126" unicode="&#x2126;" horiz-adv-x="760" 
d="M419 0v219q57 16 91 66q32 49 32 114q0 81 -47 129q-44 45 -115 45t-116 -46q-46 -48 -46 -128q0 -72 39 -123q34 -44 84 -57v-219h-287v144h157v11q-76 28 -120 96q-46 70 -46 165q0 145 99 231q93 80 234 80q146 0 239 -81q98 -86 98 -230q0 -197 -166 -261v-11h157
v-144h-287z" />
    <glyph glyph-name="estimated" unicode="&#x212e;" horiz-adv-x="500" 
d="M157 259v-181q59 -59 145 -59q122 0 193 120l35 -21q-87 -135 -228 -135q-115 0 -188 80q-70 78 -70 196q0 119 70 196q72 80 188 80q115 0 187 -77q71 -77 72 -199h-404zM448 295v145q-63 60 -147 60t-144 -60v-145h291z" />
    <glyph glyph-name="partialdiff" unicode="&#x2202;" horiz-adv-x="666" 
d="M396 532q-36 50 -98 50q-80 0 -137 -66l-77 112q93 93 215 93q153 0 229 -118q61 -96 61 -244q0 -152 -51 -245q-68 -127 -222 -127q-109 0 -178 68q-69 67 -69 174q0 101 63 164q66 64 177 64q65 0 118 -29q-1 61 -31 104zM420 292q-47 36 -92 36t-69 -30
q-24 -28 -24 -76q0 -45 23 -73q24 -29 61 -29q51 0 78 51q23 43 23 108v13z" />
    <glyph glyph-name="uni2206" unicode="&#x2206;" horiz-adv-x="735" 
d="M27 0v102l258 606h166l256 -602v-106h-680zM365 519l-142 -371h281z" />
    <glyph glyph-name="product" unicode="&#x220f;" horiz-adv-x="753" 
d="M543 -214v867h-333v-867h-151v1000h636v-1000h-152z" />
    <glyph glyph-name="summation" unicode="&#x2211;" horiz-adv-x="666" 
d="M26 -214v111l292 395l-280 383v111h594v-133h-402l256 -360l-273 -374h431v-133h-618z" />
    <glyph glyph-name="minus" unicode="&#x2212;" horiz-adv-x="666" 
d="M68 242v123h530v-123h-530z" />
    <glyph glyph-name="uni2215" unicode="&#x2215;" horiz-adv-x="100" 
d="M-107 -30l-87 39l388 731l87 -41z" />
    <glyph glyph-name="uni2219" unicode="&#x2219;" 
d="M221 221q-29 -28 -70 -28q-42 0 -72 28t-30 69t30 70t72 29q41 0 70 -28q30 -29 30 -70t-30 -70z" />
    <glyph glyph-name="radical" unicode="&#x221a;" horiz-adv-x="569" 
d="M365 -214h-126l-145 300l-51 -24l-54 114l175 79l112 -239l158 770h145z" />
    <glyph glyph-name="infinity" unicode="&#x221e;" horiz-adv-x="837" 
d="M744 131q-51 -56 -135 -56q-97 0 -190 103q-96 -102 -188 -102q-84 0 -136 54q-50 53 -50 135q0 80 48 133q51 54 134 54q98 0 192 -109q93 110 191 110q83 0 134 -54q48 -53 48 -133q0 -82 -48 -135zM656 314q-18 20 -49 20q-47 0 -114 -72q62 -68 117 -68q29 0 47 20
q17 19 17 49q0 31 -18 51zM227 333q-28 0 -46 -21q-18 -20 -18 -49q0 -68 67 -68q51 0 114 67q-71 71 -117 71z" />
    <glyph glyph-name="integral" unicode="&#x222b;" horiz-adv-x="633" 
d="M501 649q-19 -20 -48 -20q-30 0 -48 27q-20 31 -25 33q-11 -10 -11 -53l2 -83v-440q0 -76 -2 -113q-8 -214 -166 -214q-46 0 -81 21q-43 25 -43 71q0 10 5 18q12 46 62 46q30 0 46 -26q19 -30 24 -32q12 6 12 47q1 15 -1 40l-1 40v496q0 125 23 183q38 95 147 95
q43 0 79 -20q44 -25 44 -69q0 -28 -18 -47z" />
    <glyph glyph-name="approxequal" unicode="&#x2248;" horiz-adv-x="666" 
d="M580 468q-8 -91 -50 -142q-43 -50 -111 -50q-42 0 -130 32t-116 32q-39 0 -51 -55h-96q7 78 43 126q43 57 119 57q41 0 124 -29q82 -30 121 -30q42 0 50 59h97zM579 247q-21 -184 -159 -184q-43 0 -132 33q-89 32 -116 32q-42 0 -52 -62h-96q7 79 42 130q43 61 116 61
q42 0 126 -30q84 -31 125 -31q37 0 49 51h97z" />
    <glyph glyph-name="notequal" unicode="&#x2260;" horiz-adv-x="666" 
d="M296 110l-74 -146l-115 56l47 90h-102v127h167l43 84h-210v127h275l75 145l115 -55l-47 -90h99v-127h-164l-43 -84h207v-127h-273z" />
    <glyph glyph-name="lessequal" unicode="&#x2264;" horiz-adv-x="666" 
d="M79 18v123h508v-123h-508zM79 368v103l508 214v-136l-306 -131l306 -127v-137z" />
    <glyph glyph-name="greaterequal" unicode="&#x2265;" horiz-adv-x="666" 
d="M79 141h508v-123h-508v123zM79 291l306 127l-306 131v136l508 -214v-103l-508 -214v137z" />
    <glyph glyph-name="lozenge" unicode="&#x25ca;" horiz-adv-x="606" 
d="M362 -35h-120l-181 391l182 391h119l184 -391zM302 597l-101 -241l101 -241l103 241z" />
    <glyph glyph-name="uniF001" unicode="&#xf001;" horiz-adv-x="665" 
d="M373 635q-21 7 -45 7q-73 0 -73 -94v-50h111v-123h-111v-375h-164v375h-91v123h91v48q0 229 214 229q48 0 79 -10zM584 593q-28 -26 -67 -26t-67 27q-27 26 -27 63q0 36 27 63q28 27 67 27t67 -26q27 -27 27 -64q0 -38 -27 -64zM435 0v498h164v-498h-164z" />
    <glyph glyph-name="uniF002" unicode="&#xf002;" horiz-adv-x="666" 
d="M373 635q-21 7 -45 7q-73 0 -73 -94v-50h111v-123h-111v-375h-164v375h-91v123h91v48q0 229 214 229q48 0 79 -10zM434 0v756h166v-756h-166z" />
    <glyph glyph-name="uniF8FF" unicode="&#xf8ff;" horiz-adv-x="512" 
d="M222 117v67h56v-67h-56zM225 234l-2 17q0 56 13 81q15 28 46 59q50 48 50 83q0 36 -23 61q-22 24 -53 24q-71 0 -82 -95l-50 8q13 137 135 137q54 0 89 -36t35 -95q0 -62 -63 -120q-37 -33 -43 -52t-6 -72h-46zM462 50v617h-412v-617h412zM512 718v-718h-512v718h512z
" />
    <glyph glyph-name="glyph308" 
d="M111 764l-146 144h166l104 -144h-124z" />
    <glyph glyph-name="glyph310" 
d="M189 764h-124l104 144h166z" />
    <glyph glyph-name="glyph312" 
d="M217 764l-68 81l-68 -81h-128l124 144h148l122 -144h-130z" />
    <glyph glyph-name="glyph314" 
d="M224 764h-147l-124 144h130l68 -81l68 81h128z" />
    <glyph glyph-name="glyph315" 
d="M195 513h-126l67 195h145z" />
    <glyph glyph-name="glyph317" 
d="M335 900q-15 -132 -113 -132q-35 0 -81 21q-39 20 -63 20q-31 0 -42 -40h-72q17 130 113 130q37 0 80 -20t65 -20q32 0 42 41h71z" />
    <glyph glyph-name="glyph319" 
d="M317 792q-24 -24 -58 -24q-35 0 -59 24t-24 58q0 33 24 57t59 24q34 0 58 -24q25 -23 25 -57t-25 -58zM100 792q-24 -24 -59 -24q-34 0 -59 24q-24 24 -24 58q0 33 24 57q25 24 59 24q35 0 59 -24q25 -23 25 -57t-25 -58z" />
    <glyph glyph-name="glyph321" 
d="M-18 793v86h336v-86h-336z" />
    <glyph glyph-name="glyph324" 
d="M324 908q-12 -144 -175 -144t-173 144h84q9 -55 90 -55q79 0 90 55h84z" />
    <glyph glyph-name="glyph326" 
d="M227 779q-31 -30 -77 -30q-45 0 -77 30q-32 31 -32 76q0 46 32 77q31 31 77 31q45 0 77 -31t32 -76q0 -46 -32 -77zM192 897q-17 17 -42 17t-42 -17t-17 -42q0 -24 17 -40q17 -17 42 -17t42 17q17 16 17 41t-17 41z" />
    <glyph glyph-name="glyph328" 
d="M310 764h-124l104 144h166zM90 764h-124l104 144h166z" />
    <glyph glyph-name="glyph330" 
d="M214 789q-26 -25 -64 -25q-37 0 -63 25t-26 60t26 60q26 26 63 26q38 0 64 -25t26 -61t-26 -60z" />
    <glyph glyph-name="glyph333" 
d="M149 -240h-126l67 195h145z" />
    <glyph glyph-name="glyph334" 
d="M142 767h126l-67 -195h-145z" />
    <glyph glyph-name="zero.dnom" horiz-adv-x="420" 
d="M346 59q-45 -68 -135 -68q-91 0 -136 68q-40 60 -40 160t40 158q45 68 136 68q90 0 135 -68q39 -58 39 -158q0 -101 -39 -160zM211 346q-58 0 -58 -127q0 -129 58 -129q56 0 56 129q0 127 -56 127z" />
    <glyph glyph-name="one.dnom" horiz-adv-x="420" 
d="M181 0v306l-74 -58l-60 81l145 107h106v-436h-117z" />
    <glyph glyph-name="two.dnom" horiz-adv-x="420" 
d="M55 0v92l170 156q29 26 29 56q0 40 -45 40q-49 0 -54 -61l-110 14q7 69 56 109q46 39 113 39t110 -32q50 -36 50 -102t-76 -134l-87 -77h163v-100h-319z" />
    <glyph glyph-name="three.dnom" horiz-adv-x="420" 
d="M327 24q-46 -33 -112 -33q-141 0 -176 122l105 28q16 -53 64 -53q56 0 56 46q0 47 -78 47h-33v84h36q65 0 65 47q0 38 -46 38q-41 0 -51 -48l-105 25q16 56 63 88q44 30 101 30q64 0 106 -29q47 -33 47 -92q0 -67 -57 -96q67 -23 67 -100q0 -67 -52 -104z" />
    <glyph glyph-name="four.dnom" horiz-adv-x="420" 
d="M229 0v83h-200v93l175 260h131v-259h58v-94h-58v-83h-106zM229 311h-1l-88 -134h89v134z" />
    <glyph glyph-name="five.dnom" horiz-adv-x="420" 
d="M326 29q-47 -38 -117 -38q-134 0 -168 117l103 31q16 -51 63 -51q56 0 56 55q0 58 -77 58q-54 0 -112 -24l10 259h273v-100h-170l-3 -51q20 3 36 3q69 0 112 -36q46 -38 46 -104q0 -76 -52 -119z" />
    <glyph glyph-name="six.dnom" horiz-adv-x="420" 
d="M332 33q-48 -42 -122 -42t-122 43q-51 44 -51 114q0 65 47 135l104 153h139l-105 -142l1 -1q4 1 18 1q58 0 99 -40q43 -41 43 -104q0 -73 -51 -117zM253 190q-17 18 -43 18t-43 -17q-16 -18 -16 -44q0 -25 16 -41q16 -18 42 -18q27 0 44 17q16 17 16 43q0 25 -16 42z" />
    <glyph glyph-name="seven.dnom" horiz-adv-x="420" 
d="M77 0l171 336h-194v100h320v-87l-164 -349h-133z" />
    <glyph glyph-name="eight.dnom" horiz-adv-x="420" 
d="M325 25q-45 -34 -115 -34t-115 34q-50 36 -50 102q0 71 68 101v2q-58 26 -58 89q0 59 47 94q43 32 108 32t108 -31q47 -34 47 -93q0 -65 -57 -91v-2q67 -27 67 -101q0 -66 -50 -102zM179 343q-13 -13 -13 -31q0 -43 44 -43q19 0 31 13q13 12 13 30t-13 31q-12 12 -31 12
t-31 -12zM172 168q-15 -14 -15 -36t15 -35q15 -14 38 -14t38 14q15 13 15 35q0 21 -15 36q-16 15 -38 15q-23 0 -38 -15z" />
    <glyph glyph-name="nine.dnom" horiz-adv-x="420" 
d="M335 153l-103 -153h-140l105 142l-1 2q-5 -2 -18 -2q-59 0 -100 41t-41 103q0 72 50 117q49 42 122 42q74 0 123 -42q51 -44 51 -115q0 -63 -48 -135zM252 331q-16 18 -42 18q-60 0 -60 -61q0 -25 16 -42q17 -17 43 -17t43 17q16 17 16 43q0 25 -16 42z" />
    <glyph glyph-name="zero.frac" horiz-adv-x="420" 
d="M346 331q-45 -68 -135 -68q-91 0 -136 68q-40 60 -40 160t40 158q45 68 136 68q90 0 135 -68q39 -58 39 -158q0 -101 -39 -160zM211 618q-58 0 -58 -127q0 -129 58 -129q56 0 56 129q0 127 -56 127z" />
    <glyph glyph-name="one.frac" horiz-adv-x="420" 
d="M181 272v306l-74 -58l-60 81l145 107h106v-436h-117z" />
    <glyph glyph-name="two.frac" horiz-adv-x="420" 
d="M55 272v92l170 156q29 26 29 56q0 40 -45 40q-49 0 -54 -61l-110 14q7 69 56 109q46 39 113 39t110 -32q50 -36 50 -102t-76 -134l-87 -77h163v-100h-319z" />
    <glyph glyph-name="three.frac" horiz-adv-x="420" 
d="M327 296q-46 -33 -112 -33q-141 0 -176 122l105 28q16 -53 64 -53q56 0 56 46q0 47 -78 47h-33v84h36q65 0 65 47q0 38 -46 38q-41 0 -51 -48l-105 25q16 56 63 88q44 30 101 30q64 0 106 -29q47 -33 47 -92q0 -67 -57 -96q67 -23 67 -100q0 -67 -52 -104z" />
    <glyph glyph-name="four.frac" horiz-adv-x="420" 
d="M229 272v83h-200v93l175 260h131v-259h58v-94h-58v-83h-106zM229 583h-1l-88 -134h89v134z" />
    <glyph glyph-name="five.frac" horiz-adv-x="420" 
d="M326 301q-47 -38 -117 -38q-134 0 -168 117l103 31q16 -51 63 -51q56 0 56 55q0 58 -77 58q-54 0 -112 -24l10 259h273v-100h-170l-3 -51q20 3 36 3q69 0 112 -36q46 -38 46 -104q0 -76 -52 -119z" />
    <glyph glyph-name="six.frac" horiz-adv-x="420" 
d="M332 305q-48 -42 -122 -42t-122 43q-51 44 -51 114q0 65 47 135l104 153h139l-105 -142l1 -1q4 1 18 1q58 0 99 -40q43 -41 43 -104q0 -73 -51 -117zM253 462q-17 18 -43 18t-43 -17q-16 -18 -16 -44q0 -25 16 -41q16 -18 42 -18q27 0 44 17q16 17 16 43q0 25 -16 42z
" />
    <glyph glyph-name="seven.frac" horiz-adv-x="420" 
d="M77 272l171 336h-194v100h320v-87l-164 -349h-133z" />
    <glyph glyph-name="eight.frac" horiz-adv-x="420" 
d="M325 297q-45 -34 -115 -34t-115 34q-50 36 -50 102q0 71 68 101v2q-58 26 -58 89q0 59 47 94q43 32 108 32t108 -31q47 -34 47 -93q0 -65 -57 -91v-2q67 -27 67 -101q0 -66 -50 -102zM179 615q-13 -13 -13 -31q0 -43 44 -43q19 0 31 13q13 12 13 30t-13 31q-12 12 -31 12
t-31 -12zM172 440q-15 -14 -15 -36t15 -35q15 -14 38 -14t38 14q15 13 15 35q0 21 -15 36q-16 15 -38 15q-23 0 -38 -15z" />
    <glyph glyph-name="nine.frac" horiz-adv-x="420" 
d="M335 425l-103 -153h-140l105 142l-1 2q-5 -2 -18 -2q-59 0 -100 41t-41 103q0 72 50 117q49 42 122 42q74 0 123 -42q51 -44 51 -115q0 -63 -48 -135zM252 603q-16 18 -42 18q-60 0 -60 -61q0 -25 16 -42q17 -17 43 -17t43 17q16 17 16 43q0 25 -16 42z" />
    <glyph glyph-name="glyph546" 
d="M-15 703l80 16q9 -59 85 -59q77 0 84 59l80 -16q-20 -131 -164 -131q-143 0 -165 131z" />
    <glyph glyph-name="glyph547" 
d="M-25 904l85 17q10 -67 90 -67q79 0 89 67l86 -17q-23 -140 -175 -140q-153 0 -175 140z" />
    <glyph glyph-name="exclam.aalt" horiz-adv-x="339" 
d="M252 220h-166v343h166v-343zM238 17q-28 -27 -69 -27q-40 0 -67 26q-29 27 -29 66t28 67q28 27 68 27q41 0 69 -27t28 -66q0 -40 -28 -66z" />
    <glyph glyph-name="dollar.aalt" horiz-adv-x="576" 
d="M331 564q99 -6 174 -60l-84 -107q-39 36 -88 44v-94q182 -44 182 -171q0 -82 -53 -129q-51 -44 -138 -48v-57h-70v56q-128 2 -194 65l95 109q39 -42 99 -48v103q-92 24 -130 56q-46 39 -46 112q0 71 58 120q53 44 125 49v52h70v-52zM263 442q-40 -6 -40 -36q0 -31 40 -44
v80zM324 124q43 6 43 42q0 32 -43 47v-89z" />
    <glyph glyph-name="percent.aalt" horiz-adv-x="813" 
d="M291 316q-47 -45 -110 -45q-64 0 -110 45q-47 45 -47 108t47 108q46 44 110 44t110 -44q47 -45 47 -108t-47 -108zM181 469q-47 0 -47 -45t47 -45t47 45t-47 45zM725 30q-47 -45 -110 -45q-64 0 -110 45q-47 45 -47 108t47 108q46 44 110 44t110 -44q47 -45 47 -108
t-47 -108zM615 183q-47 0 -47 -45t47 -45t47 45t-47 45zM273 -33l-88 42l332 587l91 -45z" />
    <glyph glyph-name="ampersand.aalt" horiz-adv-x="693" 
d="M521 140l141 -140h-198l-38 40q-72 -56 -170 -56q-96 0 -153 46q-58 47 -58 129q0 97 112 158q-49 49 -49 110q0 66 52 108q52 44 138 44q83 0 132 -40q50 -41 50 -108q0 -91 -106 -145l51 -52l48 63h194zM246 225q-41 -16 -41 -61q0 -25 19 -41q17 -14 41 -14
q40 0 66 26zM260 424q0 -25 28 -53q49 21 49 53q0 37 -39 37q-38 0 -38 -37z" />
    <glyph glyph-name="parenleft.aalt" horiz-adv-x="297" 
d="M252 -30l-105 -53q-122 168 -122 364q0 195 122 363l105 -54q-102 -141 -102 -309q0 -169 102 -311z" />
    <glyph glyph-name="parenright.aalt" horiz-adv-x="297" 
d="M150 -83l-105 53q102 142 102 310q0 169 -102 310l105 54q122 -168 122 -364q0 -195 -122 -363z" />
    <glyph glyph-name="bracketleft.aalt" horiz-adv-x="297" 
d="M41 -70v701h197v-98h-73v-505h73v-98h-197z" />
    <glyph glyph-name="backslash.aalt" horiz-adv-x="352" 
d="M242 -44l-244 614l112 39l244 -615z" />
    <glyph glyph-name="bracketright.aalt" horiz-adv-x="297" 
d="M59 -70v98h73v505h-73v98h197v-701h-197z" />
    <glyph glyph-name="braceleft.aalt" horiz-adv-x="297" 
d="M179 -70q-57 0 -89 35q-31 33 -31 94v115q0 54 -54 54v105q54 0 54 54v115q0 60 31 94q32 35 89 35h76v-99h-40q-34 0 -34 -39v-103q0 -96 -86 -109v-1q86 -13 86 -109v-103q0 -39 34 -39h40v-99h-76z" />
    <glyph glyph-name="slash.sc" horiz-adv-x="352" 
d="M-2 -6l244 615l112 -39l-244 -614z" />
    <glyph glyph-name="braceright.aalt" horiz-adv-x="297" 
d="M42 -70v99h40q34 0 34 39v103q0 96 86 109v1q-86 13 -86 109v103q0 39 -34 39h-40v99h76q57 0 89 -35q31 -34 31 -94v-115q0 -54 54 -54v-105q-54 0 -54 -54v-115q0 -61 -31 -94q-32 -35 -89 -35h-76z" />
    <glyph glyph-name="zero.sc" horiz-adv-x="576" 
d="M105 73q-60 82 -60 210t60 208q66 88 183 88t183 -88q60 -80 60 -208t-60 -210q-66 -89 -183 -89t-183 89zM233 391q-19 -41 -19 -108q0 -150 74 -150t74 150t-74 150q-35 0 -55 -42z" />
    <glyph glyph-name="one.sc" horiz-adv-x="576" 
d="M238 375l-100 -75l-88 116l201 147h153v-563h-166v375z" />
    <glyph glyph-name="two.sc" horiz-adv-x="576" 
d="M290 310q46 41 46 81q0 20 -13 33q-15 15 -37 15q-54 0 -62 -69l-158 22q9 86 77 138q64 49 152 49t148 -42q67 -47 67 -131q0 -98 -102 -183l-105 -88h209v-135h-437v121z" />
    <glyph glyph-name="three.sc" horiz-adv-x="576" 
d="M419 293q92 -30 92 -129q0 -88 -72 -137q-63 -43 -157 -43q-192 0 -238 153l153 42q20 -63 80 -63q65 0 65 56q0 63 -85 63h-37v109h36q74 0 74 57q0 48 -53 48q-51 0 -64 -56l-154 36q21 74 85 114q59 36 139 36q91 0 150 -38q65 -43 65 -121q0 -91 -79 -124v-3z" />
    <glyph glyph-name="four.sc" horiz-adv-x="576" 
d="M457 0h-153v104h-268v129l218 330h203v-339h73v-120h-73v-104zM186 224h118v185h-2z" />
    <glyph glyph-name="five.sc" horiz-adv-x="576" 
d="M446 35q-62 -51 -162 -51q-179 0 -230 151l151 46q21 -61 75 -61q66 0 66 62q0 75 -91 75q-75 0 -153 -29l14 335h367v-127h-219l-5 -71q24 6 57 6q88 0 141 -47q55 -49 55 -137q0 -98 -66 -152z" />
    <glyph glyph-name="six.sc" horiz-adv-x="576" 
d="M296 368q14 5 35 5q86 0 138 -45q55 -48 55 -135q0 -94 -67 -152q-67 -57 -170 -57q-104 0 -169 57q-68 59 -68 155q0 83 75 195l114 172h200l-145 -193zM236 243q-20 -20 -21 -53t21 -52q20 -19 51 -19q30 0 51 19t21 52t-21 53t-51 20q-31 0 -51 -20z" />
    <glyph glyph-name="seven.sc" horiz-adv-x="576" 
d="M115 0l222 424h-256v139h424v-128l-209 -435h-181z" />
    <glyph glyph-name="eight.sc" horiz-adv-x="576" 
d="M249 444q-15 -15 -15 -39q0 -54 54 -54q23 0 39 15q15 15 15 39t-16 39q-15 15 -38 15t-39 -15zM242 216q-18 -18 -18 -46q0 -63 64 -63q28 0 46 17t18 46q0 28 -18 46q-19 17 -46 17q-28 0 -46 -17zM422 294q96 -37 96 -132q0 -86 -68 -134q-62 -44 -162 -44t-162 44
q-68 47 -68 134q0 95 96 132v3q-80 34 -80 117q0 78 62 123q59 42 152 42t152 -41q62 -44 62 -121q0 -87 -80 -120v-3z" />
    <glyph glyph-name="nine.sc" horiz-adv-x="576" 
d="M279 193q-15 -4 -37 -4q-77 0 -127 47q-53 51 -53 136q0 94 68 151q65 56 169 56t169 -55q67 -57 67 -149q0 -81 -62 -175l-131 -200h-201l140 191zM350 324q20 20 20 52t-20 52q-20 21 -51 21q-32 0 -53 -21q-20 -20 -20 -52t20 -52q21 -20 53 -20t51 20z" />
    <glyph glyph-name="question.aalt" horiz-adv-x="500" 
d="M167 220v19q0 61 57 102l23 17q32 23 32 49q0 34 -36 34q-34 0 -40 -43l-156 18q6 64 56 110q57 53 147 53q92 0 145 -48q48 -45 48 -115q0 -82 -75 -136q-38 -27 -38 -51v-9h-163zM318 17q-27 -27 -68 -27q-40 0 -68 27q-29 27 -29 66t28 67q29 27 69 27t68 -27t28 -66
q0 -40 -28 -67z" />
    <glyph glyph-name="a.sc" horiz-adv-x="641" 
d="M235 563h174l234 -563h-181l-38 102h-210l-39 -102h-177zM319 394l-64 -172h127z" />
    <glyph glyph-name="b.aalt" horiz-adv-x="571" 
d="M312 563q202 0 202 -149q0 -86 -78 -116v-3q101 -21 101 -130q0 -87 -70 -129q-58 -36 -158 -36h-239v563h242zM233 121h65q70 0 70 60q0 54 -68 54h-67v-114zM233 340h58q60 0 60 53q0 47 -62 47h-56v-100z" />
    <glyph glyph-name="c.aalt" horiz-adv-x="578" 
d="M460 383q-37 49 -108 49q-59 0 -98 -45q-38 -43 -38 -105q0 -63 38 -105q39 -44 101 -44q72 0 109 47l98 -121q-77 -75 -210 -75q-136 0 -222 79q-91 83 -91 219q0 133 91 216q88 81 221 81t211 -78z" />
    <glyph glyph-name="d.aalt" horiz-adv-x="655" 
d="M70 0v563h218q144 0 228 -60q100 -72 100 -220q0 -139 -99 -215q-88 -68 -224 -68h-223zM236 133h42q162 0 162 152q0 147 -159 147h-45v-299z" />
    <glyph glyph-name="e.aalt" horiz-adv-x="535" 
d="M70 563h399v-127h-236v-90h223v-122h-223v-96h250v-128h-413v563z" />
    <glyph glyph-name="f.aalt" horiz-adv-x="503" 
d="M236 332h207v-122h-206v-210h-167v563h392v-127h-226v-104z" />
    <glyph glyph-name="g.aalt" horiz-adv-x="645" 
d="M129 63q-90 82 -90 220q0 133 92 216q90 80 227 80q141 0 228 -74l-108 -123q-47 53 -117 53q-64 0 -104 -42q-41 -42 -41 -111q0 -71 40 -113q40 -41 107 -41q44 0 71 11v76h-100v118h256v-295q-105 -54 -232 -54q-141 0 -229 79z" />
    <glyph glyph-name="h.aalt" horiz-adv-x="656" 
d="M419 226h-182v-226h-167v563h167v-209h182v209h167v-563h-167v226z" />
    <glyph glyph-name="dotlessi.aalt" horiz-adv-x="307" 
d="M70 563h167v-563h-167v563z" />
    <glyph glyph-name="j.aalt" horiz-adv-x="476" 
d="M70 27q-53 41 -69 109l149 49q8 -55 49 -55q44 0 44 58v375h167v-369q0 -210 -208 -210q-77 0 -132 43z" />
    <glyph glyph-name="k.aalt" horiz-adv-x="623" 
d="M238 250h-2v-250h-166v563h166v-225h2l177 225h201l-228 -260l241 -303h-212z" />
    <glyph glyph-name="l.aalt" horiz-adv-x="471" 
d="M70 563h167v-423h208v-140h-375v563z" />
    <glyph glyph-name="m.aalt" horiz-adv-x="809" 
d="M230 346h-3l3 -346h-160v563h225l111 -328h4l106 328h223v-563h-165l3 346h-3l-115 -346h-117z" />
    <glyph glyph-name="n.aalt" horiz-adv-x="672" 
d="M70 563h184l190 -323h2l-5 323h161v-563h-182l-191 319h-3l4 -319h-160v563z" />
    <glyph glyph-name="o.sc" horiz-adv-x="704" 
d="M572 65q-89 -81 -221 -81q-131 0 -219 81q-93 85 -93 218q0 132 93 216q89 80 219 80q132 0 221 -80q93 -84 93 -216q0 -133 -93 -218zM454 383q-39 45 -103 45q-63 0 -101 -45q-34 -42 -34 -100q0 -60 35 -101q38 -46 102 -46q63 0 102 46q35 42 35 101q0 58 -36 100z
" />
    <glyph glyph-name="p.aalt" horiz-adv-x="555" 
d="M237 0h-167v563h231q232 0 232 -182q0 -97 -65 -148q-62 -48 -169 -48h-62v-185zM237 310h49q80 0 80 68q0 58 -77 58h-52v-126z" />
    <glyph glyph-name="q.aalt" horiz-adv-x="709" 
d="M588 128l107 5v-133h-349q-140 0 -222 74q-85 76 -85 214q0 129 89 210q88 81 223 81q139 0 225 -74q86 -76 86 -203q0 -105 -74 -170v-4zM252 178q37 -42 99 -42q64 0 101 42q36 41 36 108q0 61 -36 102q-38 43 -101 43q-60 0 -99 -42q-37 -42 -37 -103q0 -67 37 -108z
" />
    <glyph glyph-name="r.aalt" horiz-adv-x="568" 
d="M70 563h235q225 0 225 -174q0 -118 -102 -159l137 -230h-184l-108 200h-38v-200h-165v563zM235 320h55q74 0 74 63q0 53 -73 53h-56v-116z" />
    <glyph glyph-name="s.aalt" horiz-adv-x="507" 
d="M378 395q-54 50 -111 50q-64 0 -64 -45q0 -22 22 -34q18 -10 73 -23q168 -39 168 -168q0 -98 -72 -149q-61 -42 -153 -42q-146 0 -228 87l96 108q53 -62 130 -62q61 0 61 48q0 24 -25 38q-21 11 -79 26q-153 38 -153 161q0 92 72 144q61 45 147 45q132 0 211 -81z" />
    <glyph glyph-name="t.aalt" horiz-adv-x="483" 
d="M325 0h-167v425h-153v138h473v-138h-153v-425z" />
    <glyph glyph-name="u.aalt" horiz-adv-x="646" 
d="M134 48q-68 63 -68 170v345h167v-334q0 -99 89 -99q91 0 91 99v334h167v-345q0 -107 -69 -170q-70 -64 -190 -64q-118 0 -187 64z" />
    <glyph glyph-name="v.aalt" horiz-adv-x="589" 
d="M-4 563h181l118 -361h4l117 361h177l-218 -563h-165z" />
    <glyph glyph-name="w.aalt" horiz-adv-x="878" 
d="M701 0h-165l-98 350h-2l-96 -350h-164l-172 563h177l85 -356h3l89 356h166l91 -356h2l87 356h170z" />
    <glyph glyph-name="x.aalt" horiz-adv-x="610" 
d="M301 173l-105 -173h-196l198 297l-180 266h197l90 -152l90 152h189l-178 -266l204 -297h-202z" />
    <glyph glyph-name="y.aalt" horiz-adv-x="566" 
d="M365 0h-167v222l-208 341h196l101 -201l100 201h189l-211 -341v-222z" />
    <glyph glyph-name="z.aalt" horiz-adv-x="569" 
d="M53 126l245 301h-239v136h451v-122l-247 -302h253v-139h-463v126z" />
    <glyph glyph-name="agrave.aalt" horiz-adv-x="641" 
d="M235 563h174l234 -563h-181l-38 102h-210l-39 -102h-177zM319 394l-64 -172h127zM270 622l-146 144h166l104 -144h-124z" />
    <glyph glyph-name="aacute.aalt" horiz-adv-x="641" 
d="M235 563h174l234 -563h-181l-38 102h-210l-39 -102h-177zM319 394l-64 -172h127zM376 622h-124l104 144h166z" />
    <glyph glyph-name="acircumflex.aalt" horiz-adv-x="641" 
d="M235 563h174l234 -563h-181l-38 102h-210l-39 -102h-177zM319 394l-64 -172h127zM387 622l-68 81l-68 -81h-128l124 144h148l122 -144h-130z" />
    <glyph glyph-name="atilde.aalt" horiz-adv-x="641" 
d="M235 563h174l234 -563h-181l-38 102h-210l-39 -102h-177zM319 394l-64 -172h127zM506 758q-15 -132 -113 -132q-39 0 -81 21q-42 20 -63 20q-31 0 -42 -40h-72q17 130 113 130q37 0 80 -20t65 -20q32 0 42 41h71z" />
    <glyph glyph-name="adieresis.aalt" horiz-adv-x="641" 
d="M235 563h174l234 -563h-181l-38 102h-210l-39 -102h-177zM319 394l-64 -172h127zM487 650q-24 -24 -58 -24q-35 0 -59 24t-24 58q0 33 24 57t59 24q34 0 58 -24q25 -23 25 -57t-25 -58zM270 650q-24 -24 -59 -24q-34 0 -59 24q-24 24 -24 58q0 33 24 57q25 24 59 24
q35 0 59 -24q25 -23 25 -57t-25 -58z" />
    <glyph glyph-name="amacron.aalt" horiz-adv-x="641" 
d="M235 563h174l234 -563h-181l-38 102h-210l-39 -102h-177zM319 394l-64 -172h127zM152 651v86h336v-86h-336z" />
    <glyph glyph-name="abreve.aalt" horiz-adv-x="641" 
d="M235 563h174l234 -563h-181l-38 102h-210l-39 -102h-177zM319 394l-64 -172h127zM494 766q-12 -144 -175 -144t-173 144h84q9 -55 90 -55q79 0 90 55h84z" />
    <glyph glyph-name="aring.aalt" horiz-adv-x="641" 
d="M235 563h174l234 -563h-181l-38 102h-210l-39 -102h-177zM319 394l-64 -172h127zM397 637q-31 -30 -77 -30q-45 0 -77 30q-32 31 -32 76q0 46 32 77q31 31 77 31q45 0 77 -31t32 -76q0 -46 -32 -77zM362 755q-17 17 -42 17t-42 -17t-17 -42q0 -24 17 -40q17 -17 42 -17
t42 17q17 16 17 41t-17 41z" />
    <glyph glyph-name="aogonek.aalt" horiz-adv-x="641" 
d="M582 -200q-54 -40 -115 -40q-46 0 -77 21q-36 25 -36 70q0 73 108 149l-38 102h-210l-39 -102h-177l237 563h174l234 -563h-90q-95 -75 -95 -122q0 -36 37 -36q27 0 55 20zM319 394l-64 -172h127z" />
    <glyph glyph-name="ae.aalt" horiz-adv-x="892" 
d="M427 112h-177l-64 -112h-191l329 563h502v-127h-236v-90h223v-122h-223v-96h250v-128h-413v112zM309 232h118v198h-7z" />
    <glyph glyph-name="cacute.aalt" horiz-adv-x="578" 
d="M460 383q-37 49 -108 49q-59 0 -98 -45q-38 -43 -38 -105q0 -63 38 -105q39 -44 101 -44q72 0 109 47l98 -121q-77 -75 -210 -75q-136 0 -222 79q-91 83 -91 219q0 133 91 216q88 81 221 81t211 -78zM369 622h-124l104 144h166z" />
    <glyph glyph-name="ccircumflex.aalt" horiz-adv-x="578" 
d="M460 383q-37 49 -108 49q-59 0 -98 -45q-38 -43 -38 -105q0 -63 38 -105q39 -44 101 -44q72 0 109 47l98 -121q-77 -75 -210 -75q-136 0 -222 79q-91 83 -91 219q0 133 91 216q88 81 221 81t211 -78zM417 622l-68 81l-68 -81h-128l124 144h148l122 -144h-130z" />
    <glyph glyph-name="ccaron.aalt" horiz-adv-x="578" 
d="M460 383q-37 49 -108 49q-59 0 -98 -45q-38 -43 -38 -105q0 -63 38 -105q39 -44 101 -44q72 0 109 47l98 -121q-77 -75 -210 -75q-136 0 -222 79q-91 83 -91 219q0 133 91 216q88 81 221 81t211 -78zM425 622h-147l-124 144h130l68 -81l68 81h128z" />
    <glyph glyph-name="cdotaccent.aalt" horiz-adv-x="578" 
d="M460 383q-37 49 -108 49q-59 0 -98 -45q-38 -43 -38 -105q0 -63 38 -105q39 -44 101 -44q72 0 109 47l98 -121q-77 -75 -210 -75q-136 0 -222 79q-91 83 -91 219q0 133 91 216q88 81 221 81t211 -78zM415 647q-26 -25 -64 -25q-37 0 -63 25t-26 60t26 60q26 26 63 26
q38 0 64 -25t26 -61t-26 -60z" />
    <glyph glyph-name="ccedilla.aalt" horiz-adv-x="578" 
d="M413 -220q-39 -20 -97 -20q-67 0 -119 25l27 60q40 -19 84 -19q50 0 50 33q0 29 -47 29q-22 0 -40 -6l-31 29l58 77q-115 15 -185 92q-74 80 -74 202q0 133 91 216q88 81 221 81t211 -78l-102 -118q-37 49 -108 49q-59 0 -98 -45q-38 -43 -38 -105q0 -63 38 -105
q39 -44 101 -44q72 0 109 47l98 -121q-68 -66 -185 -74l-35 -45q7 1 18 1q103 0 103 -83q0 -52 -50 -78z" />
    <glyph glyph-name="dcaron.aalt" horiz-adv-x="655" 
d="M70 0v563h218q144 0 228 -60q100 -72 100 -220q0 -139 -99 -215q-88 -68 -224 -68h-223zM236 133h42q162 0 162 152q0 147 -159 147h-45v-299zM381 622h-147l-124 144h130l68 -81l68 81h128z" />
    <glyph glyph-name="dcroat.aalt" horiz-adv-x="655" 
d="M70 0v235h-62v105h62v223h218q144 0 228 -60q100 -72 100 -220q0 -139 -99 -215q-88 -68 -224 -68h-223zM236 340h99v-105h-99v-103h42q162 0 162 152q0 148 -159 148h-45v-92z" />
    <glyph glyph-name="eth.aalt" horiz-adv-x="655" 
d="M70 0v235h-62v105h62v223h218q144 0 228 -60q100 -72 100 -220q0 -139 -99 -215q-88 -68 -224 -68h-223zM236 340h99v-105h-99v-103h42q162 0 162 152q0 148 -159 148h-45v-92z" />
    <glyph glyph-name="egrave.aalt" horiz-adv-x="535" 
d="M70 563h399v-127h-236v-90h223v-122h-223v-96h250v-128h-413v563zM228 622l-146 144h166l104 -144h-124z" />
    <glyph glyph-name="eacute.aalt" horiz-adv-x="535" 
d="M70 563h399v-127h-236v-90h223v-122h-223v-96h250v-128h-413v563zM322 622h-124l104 144h166z" />
    <glyph glyph-name="ecircumflex.aalt" horiz-adv-x="535" 
d="M70 563h399v-127h-236v-90h223v-122h-223v-96h250v-128h-413v563zM334 622l-68 81l-68 -81h-128l124 144h148l122 -144h-130z" />
    <glyph glyph-name="ecaron.aalt" horiz-adv-x="535" 
d="M70 563h399v-127h-236v-90h223v-122h-223v-96h250v-128h-413v563zM345 622h-147l-124 144h130l68 -81l68 81h128z" />
    <glyph glyph-name="edieresis.aalt" horiz-adv-x="535" 
d="M70 563h399v-127h-236v-90h223v-122h-223v-96h250v-128h-413v563zM434 650q-24 -24 -58 -24q-35 0 -59 24t-24 58q0 33 24 57t59 24q34 0 58 -24q25 -23 25 -57t-25 -58zM217 650q-24 -24 -59 -24q-34 0 -59 24q-24 24 -24 58q0 33 24 57q25 24 59 24q35 0 59 -24
q25 -23 25 -57t-25 -58z" />
    <glyph glyph-name="emacron.aalt" horiz-adv-x="535" 
d="M70 563h399v-127h-236v-90h223v-122h-223v-96h250v-128h-413v563zM101 651v86h336v-86h-336z" />
    <glyph glyph-name="ebreve.aalt" horiz-adv-x="535" 
d="M70 563h399v-127h-236v-90h223v-122h-223v-96h250v-128h-413v563zM445 766q-12 -144 -175 -144t-173 144h84q9 -55 90 -55q79 0 90 55h84z" />
    <glyph glyph-name="edotaccent.aalt" horiz-adv-x="535" 
d="M70 563h399v-127h-236v-90h223v-122h-223v-96h250v-128h-413v563zM335 647q-26 -25 -64 -25q-37 0 -63 25t-26 60t26 60q26 26 63 26q38 0 64 -25t26 -61t-26 -60z" />
    <glyph glyph-name="eogonek.aalt" horiz-adv-x="535" 
d="M70 563h399v-127h-236v-90h223v-122h-223v-96h250v-128h-23q-95 -75 -95 -122q0 -36 37 -36q27 0 55 20l32 -62q-54 -40 -115 -40q-46 0 -77 21q-36 25 -36 70q0 73 108 149h-299v563z" />
    <glyph glyph-name="gcircumflex.aalt" horiz-adv-x="645" 
d="M129 63q-90 82 -90 220q0 133 92 216q90 80 227 80q141 0 228 -74l-108 -123q-47 53 -117 53q-64 0 -104 -42q-41 -42 -41 -111q0 -71 40 -113q40 -41 107 -41q44 0 71 11v76h-100v118h256v-295q-105 -54 -232 -54q-141 0 -229 79zM427 622l-68 81l-68 -81h-128l124 144
h148l122 -144h-130z" />
    <glyph glyph-name="gbreve.aalt" horiz-adv-x="645" 
d="M129 63q-90 82 -90 220q0 133 92 216q90 80 227 80q141 0 228 -74l-108 -123q-47 53 -117 53q-64 0 -104 -42q-41 -42 -41 -111q0 -71 40 -113q40 -41 107 -41q44 0 71 11v76h-100v118h256v-295q-105 -54 -232 -54q-141 0 -229 79zM536 766q-12 -144 -175 -144t-173 144
h84q9 -55 90 -55q79 0 90 55h84z" />
    <glyph glyph-name="gdotaccent.aalt" horiz-adv-x="645" 
d="M129 63q-90 82 -90 220q0 133 92 216q90 80 227 80q141 0 228 -74l-108 -123q-47 53 -117 53q-64 0 -104 -42q-41 -42 -41 -111q0 -71 40 -113q40 -41 107 -41q44 0 71 11v76h-100v118h256v-295q-105 -54 -232 -54q-141 0 -229 79zM425 647q-26 -25 -64 -25q-37 0 -63 25
t-26 60t26 60q26 26 63 26q38 0 64 -25t26 -61t-26 -60z" />
    <glyph glyph-name="gcommaaccent.aalt" horiz-adv-x="645" 
d="M129 63q-90 82 -90 220q0 133 92 216q90 80 227 80q141 0 228 -74l-108 -123q-47 53 -117 53q-64 0 -104 -42q-41 -42 -41 -111q0 -71 40 -113q40 -41 107 -41q44 0 71 11v76h-100v118h256v-295q-105 -54 -232 -54q-141 0 -229 79zM332 -240h-126l67 195h145z" />
    <glyph glyph-name="kgreenlandic.aalt" horiz-adv-x="623" 
d="M238 250h-2v-250h-166v563h166v-225h2l177 225h201l-228 -260l241 -303h-212z" />
    <glyph glyph-name="hcircumflex.aalt" horiz-adv-x="656" 
d="M419 226h-182v-226h-167v563h167v-209h182v209h167v-563h-167v226zM397 622l-68 81l-68 -81h-128l124 144h148l122 -144h-130z" />
    <glyph glyph-name="hbar.aalt" horiz-adv-x="656" 
d="M419 216h-182v-216h-167v563h167v-75h182v75h167v-563h-167v216zM419 344v66h-182v-66h182z" />
    <glyph glyph-name="igrave.aalt" horiz-adv-x="307" 
d="M70 563h167v-563h-167v563zM97 622l-146 144h166l104 -144h-124z" />
    <glyph glyph-name="iacute.aalt" horiz-adv-x="307" 
d="M70 563h167v-563h-167v563zM208 622h-124l104 144h166z" />
    <glyph glyph-name="ibreve.aalt" horiz-adv-x="307" 
d="M70 563h167v-563h-167v563zM327 766q-12 -144 -175 -144t-173 144h84q9 -55 90 -55q79 0 90 55h84z" />
    <glyph glyph-name="icircumflex.aalt" horiz-adv-x="307" 
d="M70 563h167v-563h-167v563zM221 622l-68 81l-68 -81h-128l124 144h148l122 -144h-130z" />
    <glyph glyph-name="itilde.aalt" horiz-adv-x="307" 
d="M70 563h167v-563h-167v563zM340 758q-15 -132 -113 -132q-39 0 -81 21q-42 20 -63 20q-31 0 -42 -40h-72q17 130 113 130q37 0 80 -20t65 -20q32 0 42 41h71z" />
    <glyph glyph-name="idieresis.aalt" horiz-adv-x="307" 
d="M70 563h167v-563h-167v563zM321 650q-24 -24 -58 -24q-35 0 -59 24t-24 58q0 33 24 57t59 24q34 0 58 -24q25 -23 25 -57t-25 -58zM104 650q-24 -24 -59 -24q-34 0 -59 24q-24 24 -24 58q0 33 24 57q25 24 59 24q35 0 59 -24q25 -23 25 -57t-25 -58z" />
    <glyph glyph-name="imacron.aalt" horiz-adv-x="307" 
d="M70 563h167v-563h-167v563zM-14 651v86h336v-86h-336z" />
    <glyph glyph-name="i.sc" horiz-adv-x="307" 
d="M70 563h167v-563h-167v563zM214 647q-26 -25 -64 -25q-37 0 -63 25t-26 60t26 60q26 26 63 26q38 0 64 -25t26 -61t-26 -60z" />
    <glyph glyph-name="iogonek.aalt" horiz-adv-x="307" 
d="M70 563h167v-563q-95 -75 -95 -122q0 -36 37 -36q27 0 55 20l32 -62q-54 -40 -115 -40q-46 0 -77 21q-36 25 -36 70q0 73 108 149h-76v563z" />
    <glyph glyph-name="jcircumflex.aalt" horiz-adv-x="476" 
d="M70 27q-53 41 -69 109l149 49q8 -55 49 -55q44 0 44 58v375h167v-369q0 -210 -208 -210q-77 0 -132 43zM393 622l-68 81l-68 -81h-128l124 144h148l122 -144h-130z" />
    <glyph glyph-name="kcommaaccent.aalt" horiz-adv-x="623" 
d="M238 250h-2v-250h-166v563h166v-225h2l177 225h201l-228 -260l241 -303h-212zM301 -240h-126l67 195h145z" />
    <glyph glyph-name="lacute.aalt" horiz-adv-x="471" 
d="M70 563h167v-423h208v-140h-375v563zM214 622h-124l104 144h166z" />
    <glyph glyph-name="lcaron.aalt" horiz-adv-x="471" 
d="M70 563h167v-423h208v-140h-375v563zM398 368h-126l67 195h145z" />
    <glyph glyph-name="lcommaaccent.aalt" horiz-adv-x="471" 
d="M70 563h167v-423h208v-140h-375v563zM243 -240h-126l67 195h145z" />
    <glyph glyph-name="lslash.aalt" horiz-adv-x="471" 
d="M70 171l-64 -50v142l64 49v251h167v-121l107 83v-141l-107 -83v-161h208v-140h-375v171z" />
    <glyph glyph-name="ldot.aalt" horiz-adv-x="471" 
d="M70 563h167v-423h208v-140h-375v563zM444 287q-26 -25 -64 -25q-37 0 -63 25t-26 60t26 60q26 26 63 26q38 0 64 -25t26 -61t-26 -60z" />
    <glyph glyph-name="nacute.aalt" horiz-adv-x="672" 
d="M70 563h184l190 -323h2l-5 323h161v-563h-182l-191 319h-3l4 -319h-160v563zM372 622h-124l104 144h166z" />
    <glyph glyph-name="ncaron.aalt" horiz-adv-x="672" 
d="M70 563h184l190 -323h2l-5 323h161v-563h-182l-191 319h-3l4 -319h-160v563zM410 622h-147l-124 144h130l68 -81l68 81h128z" />
    <glyph glyph-name="ntilde.aalt" horiz-adv-x="672" 
d="M70 563h184l190 -323h2l-5 323h161v-563h-182l-191 319h-3l4 -319h-160v563zM518 758q-15 -132 -113 -132q-39 0 -81 21q-42 20 -63 20q-31 0 -42 -40h-72q17 130 113 130q37 0 80 -20t65 -20q32 0 42 41h71z" />
    <glyph glyph-name="ncommaaccent.aalt" horiz-adv-x="672" 
d="M70 563h184l190 -323h2l-5 323h161v-563h-182l-191 319h-3l4 -319h-160v563zM323 -240h-126l67 195h145z" />
    <glyph glyph-name="ograve.aalt" horiz-adv-x="704" 
d="M572 65q-89 -81 -221 -81q-131 0 -219 81q-93 85 -93 218q0 132 93 216q89 80 219 80q132 0 221 -80q93 -84 93 -216q0 -133 -93 -218zM454 383q-39 45 -103 45q-63 0 -101 -45q-34 -42 -34 -100q0 -60 35 -101q38 -46 102 -46q63 0 102 46q35 42 35 101q0 58 -36 100z
M300 622l-146 144h166l104 -144h-124z" />
    <glyph glyph-name="oacute.aalt" horiz-adv-x="704" 
d="M572 65q-89 -81 -221 -81q-131 0 -219 81q-93 85 -93 218q0 132 93 216q89 80 219 80q132 0 221 -80q93 -84 93 -216q0 -133 -93 -218zM454 383q-39 45 -103 45q-63 0 -101 -45q-34 -42 -34 -100q0 -60 35 -101q38 -46 102 -46q63 0 102 46q35 42 35 101q0 58 -36 100z
M400 622h-124l104 144h166z" />
    <glyph glyph-name="ocircumflex.aalt" horiz-adv-x="704" 
d="M572 65q-89 -81 -221 -81q-131 0 -219 81q-93 85 -93 218q0 132 93 216q89 80 219 80q132 0 221 -80q93 -84 93 -216q0 -133 -93 -218zM454 383q-39 45 -103 45q-63 0 -101 -45q-34 -42 -34 -100q0 -60 35 -101q38 -46 102 -46q63 0 102 46q35 42 35 101q0 58 -36 100z
M418 622l-68 81l-68 -81h-128l124 144h148l122 -144h-130z" />
    <glyph glyph-name="otilde.aalt" horiz-adv-x="704" 
d="M572 65q-89 -81 -221 -81q-131 0 -219 81q-93 85 -93 218q0 132 93 216q89 80 219 80q132 0 221 -80q93 -84 93 -216q0 -133 -93 -218zM454 383q-39 45 -103 45q-63 0 -101 -45q-34 -42 -34 -100q0 -60 35 -101q38 -46 102 -46q63 0 102 46q35 42 35 101q0 58 -36 100z
M538 758q-15 -132 -113 -132q-39 0 -81 21q-42 20 -63 20q-31 0 -42 -40h-72q17 130 113 130q37 0 80 -20t65 -20q32 0 42 41h71z" />
    <glyph glyph-name="odieresis.aalt" horiz-adv-x="704" 
d="M572 65q-89 -81 -221 -81q-131 0 -219 81q-93 85 -93 218q0 132 93 216q89 80 219 80q132 0 221 -80q93 -84 93 -216q0 -133 -93 -218zM454 383q-39 45 -103 45q-63 0 -101 -45q-34 -42 -34 -100q0 -60 35 -101q38 -46 102 -46q63 0 102 46q35 42 35 101q0 58 -36 100z
M519 650q-24 -24 -58 -24q-35 0 -59 24t-24 58q0 33 24 57t59 24q34 0 58 -24q25 -23 25 -57t-25 -58zM302 650q-24 -24 -59 -24q-34 0 -59 24q-24 24 -24 58q0 33 24 57q25 24 59 24q35 0 59 -24q25 -23 25 -57t-25 -58z" />
    <glyph glyph-name="omacron.aalt" horiz-adv-x="704" 
d="M572 65q-89 -81 -221 -81q-131 0 -219 81q-93 85 -93 218q0 132 93 216q89 80 219 80q132 0 221 -80q93 -84 93 -216q0 -133 -93 -218zM454 383q-39 45 -103 45q-63 0 -101 -45q-34 -42 -34 -100q0 -60 35 -101q38 -46 102 -46q63 0 102 46q35 42 35 101q0 58 -36 100z
M184 651v86h336v-86h-336z" />
    <glyph glyph-name="obreve.aalt" horiz-adv-x="704" 
d="M572 65q-89 -81 -221 -81q-131 0 -219 81q-93 85 -93 218q0 132 93 216q89 80 219 80q132 0 221 -80q93 -84 93 -216q0 -133 -93 -218zM454 383q-39 45 -103 45q-63 0 -101 -45q-34 -42 -34 -100q0 -60 35 -101q38 -46 102 -46q63 0 102 46q35 42 35 101q0 58 -36 100z
M526 766q-12 -144 -175 -144t-173 144h84q9 -55 90 -55q79 0 90 55h84z" />
    <glyph glyph-name="ohungarumlaut.aalt" horiz-adv-x="704" 
d="M572 65q-89 -81 -221 -81q-131 0 -219 81q-93 85 -93 218q0 132 93 216q89 80 219 80q132 0 221 -80q93 -84 93 -216q0 -133 -93 -218zM454 383q-39 45 -103 45q-63 0 -101 -45q-34 -42 -34 -100q0 -60 35 -101q38 -46 102 -46q63 0 102 46q35 42 35 101q0 58 -36 100z
M529 622h-124l104 144h166zM309 622h-124l104 144h166z" />
    <glyph glyph-name="oslash.aalt" horiz-adv-x="704" 
d="M132 499q89 80 219 80q104 0 177 -50l69 72l59 -59l-63 -66q72 -74 72 -193q0 -133 -93 -218q-89 -81 -221 -81q-103 0 -177 51l-75 -78l-58 59l69 72q-71 76 -71 195q0 132 93 216zM226 211l198 205q-30 19 -71 19q-61 0 -100 -42q-40 -43 -40 -109q0 -47 13 -73z
M480 353l-197 -205q28 -17 70 -17q61 0 100 42q40 42 40 111q0 40 -13 69z" />
    <glyph glyph-name="oe.aalt" horiz-adv-x="852" 
d="M360 0q-139 0 -226 74q-90 78 -90 209q0 132 90 208q86 72 226 72h426v-127h-236v-90h223v-122h-223v-96h250v-128h-440zM260 178q37 -35 100 -35h27v279h-27q-62 0 -100 -36q-40 -38 -40 -103q0 -68 40 -105z" />
    <glyph glyph-name="racute.aalt" horiz-adv-x="568" 
d="M70 563h235q225 0 225 -174q0 -118 -102 -159l137 -230h-184l-108 200h-38v-200h-165v563zM235 320h55q74 0 74 63q0 53 -73 53h-56v-116zM314 622h-124l104 144h166z" />
    <glyph glyph-name="rcaron.aalt" horiz-adv-x="568" 
d="M70 563h235q225 0 225 -174q0 -118 -102 -159l137 -230h-184l-108 200h-38v-200h-165v563zM235 320h55q74 0 74 63q0 53 -73 53h-56v-116zM364 622h-147l-124 144h130l68 -81l68 81h128z" />
    <glyph glyph-name="rcommaaccent.aalt" horiz-adv-x="568" 
d="M70 563h235q225 0 225 -174q0 -118 -102 -159l137 -230h-184l-108 200h-38v-200h-165v563zM235 320h55q74 0 74 63q0 53 -73 53h-56v-116zM286 -240h-126l67 195h145z" />
    <glyph glyph-name="sacute.aalt" horiz-adv-x="507" 
d="M378 395q-54 50 -111 50q-64 0 -64 -45q0 -22 22 -34q18 -10 73 -23q168 -39 168 -168q0 -98 -72 -149q-61 -42 -153 -42q-146 0 -228 87l96 108q53 -62 130 -62q61 0 61 48q0 24 -25 38q-21 11 -79 26q-153 38 -153 161q0 92 72 144q61 45 147 45q132 0 211 -81z
M295 622h-124l104 144h166z" />
    <glyph glyph-name="scircumflex.aalt" horiz-adv-x="507" 
d="M378 395q-54 50 -111 50q-64 0 -64 -45q0 -22 22 -34q18 -10 73 -23q168 -39 168 -168q0 -98 -72 -149q-61 -42 -153 -42q-146 0 -228 87l96 108q53 -62 130 -62q61 0 61 48q0 24 -25 38q-21 11 -79 26q-153 38 -153 161q0 92 72 144q61 45 147 45q132 0 211 -81z
M327 622l-68 81l-68 -81h-128l124 144h148l122 -144h-130z" />
    <glyph glyph-name="scaron.aalt" horiz-adv-x="507" 
d="M378 395q-54 50 -111 50q-64 0 -64 -45q0 -22 22 -34q18 -10 73 -23q168 -39 168 -168q0 -98 -72 -149q-61 -42 -153 -42q-146 0 -228 87l96 108q53 -62 130 -62q61 0 61 48q0 24 -25 38q-21 11 -79 26q-153 38 -153 161q0 92 72 144q61 45 147 45q132 0 211 -81z
M335 622h-147l-124 144h130l68 -81l68 81h128z" />
    <glyph glyph-name="scedilla.sc" horiz-adv-x="507" 
d="M317 -220q-39 -20 -97 -20q-67 0 -119 25l27 60q40 -19 84 -19q50 0 50 33q0 29 -47 29q-22 0 -40 -6l-31 29l56 75q-120 13 -187 85l96 108q53 -62 130 -62q61 0 61 48q0 24 -25 38q-21 11 -79 26q-153 38 -153 161q0 92 72 144q61 45 147 45q132 0 211 -81l-95 -103
q-54 50 -111 50q-64 0 -64 -45q0 -22 22 -34q18 -10 73 -23q168 -39 168 -168q0 -86 -57 -136q-48 -43 -127 -52l-36 -47q7 1 18 1q103 0 103 -83q0 -52 -50 -78z" />
    <glyph glyph-name="scommaaccent.aalt" horiz-adv-x="507" 
d="M378 395q-54 50 -111 50q-64 0 -64 -45q0 -22 22 -34q18 -10 73 -23q168 -39 168 -168q0 -98 -72 -149q-61 -42 -153 -42q-146 0 -228 87l96 108q53 -62 130 -62q61 0 61 48q0 24 -25 38q-21 11 -79 26q-153 38 -153 161q0 92 72 144q61 45 147 45q132 0 211 -81z
M251 -240h-126l67 195h145z" />
    <glyph glyph-name="tcaron.aalt" horiz-adv-x="483" 
d="M325 0h-167v425h-153v138h473v-138h-153v-425zM316 622h-147l-124 144h130l68 -81l68 81h128z" />
    <glyph glyph-name="tcommaaccent.aalt" horiz-adv-x="483" 
d="M325 0h-167v425h-153v138h473v-138h-153v-425zM229 -240h-126l67 195h145z" />
    <glyph glyph-name="tbar.aalt" horiz-adv-x="483" 
d="M55 350h103v75h-153v138h473v-138h-153v-75h103v-86h-103v-264h-167v264h-103v86z" />
    <glyph glyph-name="thorn.aalt" horiz-adv-x="556" 
d="M70 563h167v-72h75q222 0 222 -183q0 -89 -61 -139q-60 -49 -165 -49h-71v-120h-167v563zM288 248q78 0 78 59q0 57 -76 57h-53v-116h51z" />
    <glyph glyph-name="ugrave.aalt" horiz-adv-x="646" 
d="M134 48q-68 63 -68 170v345h167v-334q0 -99 89 -99q91 0 91 99v334h167v-345q0 -107 -69 -170q-70 -64 -190 -64q-118 0 -187 64zM274 622l-146 144h166l104 -144h-124z" />
    <glyph glyph-name="uacute.aalt" horiz-adv-x="646" 
d="M134 48q-68 63 -68 170v345h167v-334q0 -99 89 -99q91 0 91 99v334h167v-345q0 -107 -69 -170q-70 -64 -190 -64q-118 0 -187 64zM368 622h-124l104 144h166z" />
    <glyph glyph-name="ucircumflex.aalt" horiz-adv-x="646" 
d="M134 48q-68 63 -68 170v345h167v-334q0 -99 89 -99q91 0 91 99v334h167v-345q0 -107 -69 -170q-70 -64 -190 -64q-118 0 -187 64zM390 622l-68 81l-68 -81h-128l124 144h148l122 -144h-130z" />
    <glyph glyph-name="utilde.aalt" horiz-adv-x="646" 
d="M134 48q-68 63 -68 170v345h167v-334q0 -99 89 -99q91 0 91 99v334h167v-345q0 -107 -69 -170q-70 -64 -190 -64q-118 0 -187 64zM509 758q-15 -132 -113 -132q-39 0 -81 21q-42 20 -63 20q-31 0 -42 -40h-72q17 130 113 130q37 0 80 -20t65 -20q32 0 42 41h71z" />
    <glyph glyph-name="udieresis.aalt" horiz-adv-x="646" 
d="M134 48q-68 63 -68 170v345h167v-334q0 -99 89 -99q91 0 91 99v334h167v-345q0 -107 -69 -170q-70 -64 -190 -64q-118 0 -187 64zM489 650q-24 -24 -58 -24q-35 0 -59 24t-24 58q0 33 24 57t59 24q34 0 58 -24q25 -23 25 -57t-25 -58zM272 650q-24 -24 -59 -24
q-34 0 -59 24q-24 24 -24 58q0 33 24 57q25 24 59 24q35 0 59 -24q25 -23 25 -57t-25 -58z" />
    <glyph glyph-name="umacron.aalt" horiz-adv-x="646" 
d="M134 48q-68 63 -68 170v345h167v-334q0 -99 89 -99q91 0 91 99v334h167v-345q0 -107 -69 -170q-70 -64 -190 -64q-118 0 -187 64zM155 651v86h336v-86h-336z" />
    <glyph glyph-name="ubreve.aalt" horiz-adv-x="646" 
d="M134 48q-68 63 -68 170v345h167v-334q0 -99 89 -99q91 0 91 99v334h167v-345q0 -107 -69 -170q-70 -64 -190 -64q-118 0 -187 64zM496 766q-12 -144 -175 -144t-173 144h84q9 -55 90 -55q79 0 90 55h84z" />
    <glyph glyph-name="uring.aalt" horiz-adv-x="646" 
d="M134 48q-68 63 -68 170v345h167v-334q0 -99 89 -99q91 0 91 99v334h167v-345q0 -107 -69 -170q-70 -64 -190 -64q-118 0 -187 64zM401 637q-31 -30 -77 -30q-45 0 -77 30q-32 31 -32 76q0 46 32 77q31 31 77 31q45 0 77 -31t32 -76q0 -46 -32 -77zM366 755q-17 17 -42 17
t-42 -17t-17 -42q0 -24 17 -40q17 -17 42 -17t42 17q17 16 17 41t-17 41z" />
    <glyph glyph-name="uhungarumlaut.aalt" horiz-adv-x="646" 
d="M134 48q-68 63 -68 170v345h167v-334q0 -99 89 -99q91 0 91 99v334h167v-345q0 -107 -69 -170q-70 -64 -190 -64q-118 0 -187 64zM494 622h-124l104 144h166zM274 622h-124l104 144h166z" />
    <glyph glyph-name="uogonek.aalt" horiz-adv-x="646" 
d="M441 -200q-54 -40 -115 -40q-46 0 -77 21q-36 25 -36 70q0 65 87 134q-110 6 -172 69q-62 62 -62 164v345h167v-334q0 -99 89 -99q91 0 91 99v334h167v-345q0 -86 -46 -145q-47 -60 -130 -79q-87 -69 -87 -116q0 -36 37 -36q27 0 55 20z" />
    <glyph glyph-name="wacute.aalt" horiz-adv-x="878" 
d="M701 0h-165l-98 350h-2l-96 -350h-164l-172 563h177l85 -356h3l89 356h166l91 -356h2l87 356h170zM494 622h-124l104 144h166z" />
    <glyph glyph-name="wdieresis.aalt" horiz-adv-x="878" 
d="M701 0h-165l-98 350h-2l-96 -350h-164l-172 563h177l85 -356h3l89 356h166l91 -356h2l87 356h170zM506 622l-68 81l-68 -81h-128l124 144h148l122 -144h-130z" />
    <glyph glyph-name="wcircumflex.aalt" horiz-adv-x="878" 
d="M701 0h-165l-98 350h-2l-96 -350h-164l-172 563h177l85 -356h3l89 356h166l91 -356h2l87 356h170zM604 650q-24 -24 -58 -24q-35 0 -59 24t-24 58q0 33 24 57t59 24q34 0 58 -24q25 -23 25 -57t-25 -58zM387 650q-24 -24 -59 -24q-34 0 -59 24q-24 24 -24 58q0 33 24 57
q25 24 59 24q35 0 59 -24q25 -23 25 -57t-25 -58z" />
    <glyph glyph-name="wgrave.aalt" horiz-adv-x="878" 
d="M701 0h-165l-98 350h-2l-96 -350h-164l-172 563h177l85 -356h3l89 356h166l91 -356h2l87 356h170zM389 622l-146 144h166l104 -144h-124z" />
    <glyph glyph-name="yacute.aalt" horiz-adv-x="566" 
d="M365 0h-167v222l-208 341h196l101 -201l100 201h189l-211 -341v-222zM331 622h-124l104 144h166z" />
    <glyph glyph-name="ycircumflex.aalt" horiz-adv-x="566" 
d="M365 0h-167v222l-208 341h196l101 -201l100 201h189l-211 -341v-222zM354 622l-68 81l-68 -81h-128l124 144h148l122 -144h-130z" />
    <glyph glyph-name="ydieresis.aalt" horiz-adv-x="566" 
d="M365 0h-167v222l-208 341h196l101 -201l100 201h189l-211 -341v-222zM453 650q-24 -24 -58 -24q-35 0 -59 24t-24 58q0 33 24 57t59 24q34 0 58 -24q25 -23 25 -57t-25 -58zM236 650q-24 -24 -59 -24q-34 0 -59 24q-24 24 -24 58q0 33 24 57q25 24 59 24q35 0 59 -24
q25 -23 25 -57t-25 -58z" />
    <glyph glyph-name="ygrave.aalt" horiz-adv-x="566" 
d="M365 0h-167v222l-208 341h196l101 -201l100 201h189l-211 -341v-222zM238 622l-146 144h166l104 -144h-124z" />
    <glyph glyph-name="zacute.aalt" horiz-adv-x="569" 
d="M53 126l245 301h-239v136h451v-122l-247 -302h253v-139h-463v126zM317 622h-124l104 144h166z" />
    <glyph glyph-name="zcaron.aalt" horiz-adv-x="569" 
d="M53 126l245 301h-239v136h451v-122l-247 -302h253v-139h-463v126zM360 622h-147l-124 144h130l68 -81l68 81h128z" />
    <glyph glyph-name="zdotaccent.aalt" horiz-adv-x="569" 
d="M53 126l245 301h-239v136h451v-122l-247 -302h253v-139h-463v126zM350 647q-26 -25 -64 -25q-37 0 -63 25t-26 60t26 60q26 26 63 26q38 0 64 -25t26 -61t-26 -60z" />
    <glyph glyph-name="ij.aalt" horiz-adv-x="787" 
d="M70 563h167v-563h-167v563zM413 27q-53 41 -69 109l149 49q8 -55 49 -55q44 0 44 58v375h167v-369q0 -210 -208 -210q-77 0 -132 43z" />
    <glyph glyph-name="germandbls.aalt" horiz-adv-x="1013" 
d="M378 395q-54 50 -111 50q-64 0 -64 -45q0 -22 22 -34q18 -10 73 -23q168 -39 168 -168q0 -98 -72 -149q-61 -42 -153 -42q-146 0 -228 87l96 108q53 -62 130 -62q61 0 61 48q0 24 -25 38q-21 11 -79 26q-153 38 -153 161q0 92 72 144q61 45 147 45q132 0 211 -81z
M884 395q-54 50 -111 50q-64 0 -64 -45q0 -22 22 -34q18 -10 73 -23q168 -39 168 -168q0 -98 -72 -149q-61 -42 -153 -42q-146 0 -228 87l96 108q53 -62 130 -62q61 0 61 48q0 24 -25 38q-21 11 -79 26q-153 38 -153 161q0 92 72 144q61 45 147 45q132 0 211 -81z" />
    <glyph glyph-name="eng.aalt" horiz-adv-x="672" 
d="M602 -13q0 -227 -199 -227q-42 0 -71 8l11 137q15 -5 35 -5q60 0 60 87v5l-209 327h-3l4 -319h-160v563h184l190 -308h2l-5 308h161v-576z" />
    <glyph glyph-name="glyph697" 
d="M107 622l-146 144h166l104 -144h-124z" />
    <glyph glyph-name="glyph698" 
d="M193 622h-124l104 144h166z" />
    <glyph glyph-name="glyph699" 
d="M217 622l-68 81l-68 -81h-128l124 144h148l122 -144h-130z" />
    <glyph glyph-name="glyph700" 
d="M224 622h-147l-124 144h130l68 -81l68 81h128z" />
    <glyph glyph-name="glyph701" 
d="M335 758q-15 -132 -113 -132q-39 0 -81 21q-42 20 -63 20q-31 0 -42 -40h-72q17 130 113 130q37 0 80 -20t65 -20q32 0 42 41h71z" />
    <glyph glyph-name="glyph702" 
d="M317 650q-24 -24 -58 -24q-35 0 -59 24t-24 58q0 33 24 57t59 24q34 0 58 -24q25 -23 25 -57t-25 -58zM100 650q-24 -24 -59 -24q-34 0 -59 24q-24 24 -24 58q0 33 24 57q25 24 59 24q35 0 59 -24q25 -23 25 -57t-25 -58z" />
    <glyph glyph-name="glyph703" 
d="M-18 651v86h336v-86h-336z" />
    <glyph glyph-name="glyph704" 
d="M324 766q-12 -144 -175 -144t-173 144h84q9 -55 90 -55q79 0 90 55h84z" />
    <glyph glyph-name="glyph705" 
d="M227 637q-31 -30 -77 -30q-45 0 -77 30q-32 31 -32 76q0 46 32 77q31 31 77 31q45 0 77 -31t32 -76q0 -46 -32 -77zM192 755q-17 17 -42 17t-42 -17t-17 -42q0 -24 17 -40q17 -17 42 -17t42 17q17 16 17 41t-17 41z" />
    <glyph glyph-name="glyph706" 
d="M310 622h-124l104 144h166zM90 622h-124l104 144h166z" />
    <glyph glyph-name="glyph707" 
d="M214 647q-26 -25 -64 -25q-37 0 -63 25t-26 60t26 60q26 26 63 26q38 0 64 -25t26 -61t-26 -60z" />
    <glyph glyph-name="exclamdown.aalt" horiz-adv-x="339" 
d="M86 0v343h166v-343h-166zM238 414q-28 -27 -69 -27q-40 0 -68 28q-28 27 -28 66t29 66q27 26 67 26q41 0 69 -27q28 -26 28 -66q0 -39 -28 -66z" />
    <glyph glyph-name="questiondown.aalt" horiz-adv-x="500" 
d="M333 343v-19q0 -61 -57 -102l-23 -17q-32 -23 -32 -49q0 -34 36 -34q34 0 40 43l156 -18q-6 -64 -56 -110q-57 -53 -147 -53q-92 0 -144 48q-49 45 -49 115q0 82 75 136q38 27 38 51v9h163zM182 546q27 27 68 27q40 0 68 -27q29 -27 29 -66t-28 -66q-29 -28 -69 -28
t-68 27t-28 66q0 40 28 67z" />
    <glyph glyph-name="Euro.aalt" horiz-adv-x="576" 
d="M525 15q-65 -31 -150 -31q-211 0 -253 185h-80l29 90h40l1 42h-70l32 90h50q27 91 101 140q72 48 176 48q78 0 136 -23l-50 -127q-42 20 -96 20q-77 0 -106 -58h189l-29 -90h-180q-2 -10 -2 -20q0 -11 1 -22h170l-30 -90h-122q22 -54 102 -54q52 0 103 24z" />
    <glyph glyph-name="cent.aalt" horiz-adv-x="576" 
d="M556 51q-56 -56 -160 -65v-65h-76v65q-105 12 -169 85q-64 72 -64 179q0 106 64 177q63 70 169 85v64h76v-64q106 -7 159 -63l-83 -104q-31 33 -76 39v-270q46 4 79 39zM320 382q-92 -21 -92 -133q0 -108 92 -133v266z" />
    <glyph glyph-name="sterling.aalt" horiz-adv-x="576" 
d="M71 128h69v106h-69v113h69v38q0 82 51 136q56 58 151 58q107 0 164 -62l-95 -109q-20 30 -60 30q-23 0 -38 -16q-14 -15 -14 -37v-38h120v-113h-120v-106h203v-128h-431v128z" />
    <glyph glyph-name="florin.aalt" horiz-adv-x="576" 
d="M477 238h-111l-29 -141q-38 -183 -197 -183q-65 0 -117 29l48 120q29 -19 57 -19q46 0 61 76l23 118h-72v111h92l16 78q31 152 182 152q72 0 124 -32l-59 -120q-25 18 -54 18q-37 0 -45 -43l-11 -53h92v-111z" />
    <glyph glyph-name="yen.aalt" horiz-adv-x="576" 
d="M203 86h-137v100h137v44h-137v100h96l-146 233h182l93 -184l91 184h178l-143 -233h80v-100h-139v-44h139v-100h-139v-86h-155v86z" />
    <glyph glyph-name="perthousand.aalt" horiz-adv-x="1156" 
d="M291 316q-47 -45 -110 -45q-64 0 -110 45q-47 45 -47 108t47 108q46 44 110 44t110 -44q47 -45 47 -108t-47 -108zM181 469q-47 0 -47 -45t47 -45t47 45t-47 45zM725 30q-47 -45 -110 -45q-64 0 -110 45q-47 45 -47 108t47 108q46 44 110 44t110 -44q47 -45 47 -108
t-47 -108zM615 183q-47 0 -47 -45t47 -45t47 45t-47 45zM1089 30q-47 -45 -110 -45q-64 0 -110 45q-47 45 -47 108t47 108q46 44 110 44t110 -44q47 -45 47 -108t-47 -108zM979 183q-47 0 -47 -45t47 -45t47 45t-47 45zM273 -33l-88 42l332 587l91 -45z" />
    <glyph glyph-name="zero.oldstyle" horiz-adv-x="722" 
d="M581 65q-88 -82 -221 -82q-131 0 -219 82q-91 85 -91 220t91 218q87 80 219 80q134 0 221 -80q92 -83 92 -218q0 -136 -92 -220zM466 393q-41 45 -106 45q-64 0 -105 -45q-39 -43 -39 -108q0 -66 39 -110q41 -45 105 -45q66 0 106 45q40 43 40 110q0 65 -40 108z" />
    <glyph glyph-name="one.oldstyle" horiz-adv-x="477" 
d="M199 0v391l-98 -72l-81 114l188 133h160v-566h-169z" />
    <glyph glyph-name="two.oldstyle" horiz-adv-x="602" 
d="M60 0v128l53 31q148 84 192 118q62 49 62 97q0 72 -83 72q-70 0 -104 -71l-135 54q69 154 249 154q104 0 169 -44q76 -50 76 -149q0 -78 -64 -142q-40 -39 -134 -95l-29 -18v-2h236v-133h-488z" />
    <glyph glyph-name="three.oldstyle" horiz-adv-x="576" 
d="M426 -112q-86 -58 -220 -58q-74 0 -138 13l24 143q52 -11 102 -11q72 0 114 26q47 28 47 82q0 43 -40 68q-39 24 -103 24q-49 0 -110 -14l-29 116q120 73 231 149v4h-240v136h433v-142q-109 -82 -205 -140v-3q16 2 27 2q88 0 146 -53q61 -57 61 -147q0 -127 -100 -195z
" />
    <glyph glyph-name="four.oldstyle" horiz-adv-x="645" 
d="M522 3v-173h-159v173h-328v142l251 438h173l-262 -444h167v207h158v-207h99v-136h-99z" />
    <glyph glyph-name="five.oldstyle" horiz-adv-x="573" 
d="M506 422h-256l-16 -118q20 4 46 4q103 0 165 -55q66 -59 66 -164q0 -133 -98 -201q-83 -58 -214 -58q-71 0 -139 12l23 143q53 -10 98 -10q159 0 159 113q0 51 -41 77q-37 23 -96 23q-56 0 -133 -17l35 395h401v-144z" />
    <glyph glyph-name="six.oldstyle" horiz-adv-x="656" 
d="M524 47q-77 -67 -196 -67q-121 0 -196 64q-82 70 -82 199q0 232 317 493l154 -70q-149 -112 -220 -218l2 -2q25 17 72 17q96 0 162 -62q69 -65 69 -167q0 -117 -82 -187zM408 309q-30 31 -79 31t-80 -31q-30 -30 -30 -77t30 -79q31 -32 79 -32q49 0 80 32q30 31 30 79
q0 47 -30 77z" />
    <glyph glyph-name="seven.oldstyle" horiz-adv-x="576" 
d="M535 436q-173 -349 -281 -616l-173 37q133 295 273 565h-312v144h493v-130z" />
    <glyph glyph-name="eight.oldstyle" horiz-adv-x="649" 
d="M509 35q-73 -54 -184 -54q-112 0 -185 53q-82 60 -82 164q0 128 126 172v2q-108 39 -108 154q0 95 76 150q69 51 173 51q103 0 172 -50q76 -55 76 -150q0 -119 -108 -154v-3q55 -17 90 -62q36 -47 36 -109q0 -105 -82 -164zM263 573q-24 -24 -24 -59t24 -59
q25 -25 62 -25q36 0 61 25t25 59q0 35 -25 59q-24 24 -61 24q-38 0 -62 -24zM397 276q-28 28 -72 28q-45 0 -73 -28q-27 -27 -27 -68t27 -68q28 -27 73 -27q44 0 72 27q27 27 27 68t-27 68z" />
    <glyph glyph-name="nine.oldstyle" horiz-adv-x="656" 
d="M500 45q-87 -124 -215 -229l-153 71q154 123 223 228l-2 2q-25 -17 -72 -17q-96 0 -162 62q-69 65 -69 167q0 117 82 187q77 67 196 67q121 0 196 -66q82 -71 82 -199q0 -123 -106 -273zM407 410q-31 32 -79 32q-49 0 -80 -31q-30 -32 -30 -80q0 -47 30 -77
q30 -31 79 -31t80 31q30 30 30 78q0 47 -30 78z" />
    <glyph glyph-name="glyph726" horiz-adv-x="813" 
d="M211 563h184l190 -323h2l-5 323h161v-563h-182l-191 319h-3l4 -319h-160v563zM104 368h-126l67 195h145z" />
    <glyph glyph-name="glyph727" horiz-adv-x="384" 
d="M146 724h94l127 -293h-104l-19 51h-104l-20 -51h-104zM191 628l-32 -86h63z" />
    <glyph glyph-name="glyph728" horiz-adv-x="810" 
d="M236 332h207v-122h-206v-210h-167v563h392v-127h-226v-104zM573 563h167v-563h-167v563z" />
    <glyph glyph-name="glyph729" horiz-adv-x="974" 
d="M236 332h207v-122h-206v-210h-167v563h392v-127h-226v-104zM573 563h167v-423h208v-140h-375v563z" />
    </font>
</defs>
</svg>
