<?xml version="1.0" standalone="no"?>
<!DOCTYPE svg PUBLIC "-//W3C//DTD SVG 1.1//EN" "http://www.w3.org/Graphics/SVG/1.1/DTD/svg11.dtd" >
<svg xmlns="http://www.w3.org/2000/svg" xmlns:xlink="http://www.w3.org/1999/xlink" version="1.1">
<metadata>
Created by FontForge 20170731 at Tue Feb 14 21:04:48 2017
 By Aleksey,,,
(c) 2015 Connary Fagen
</metadata>
<defs>
<font id="VisbyRoundCF-ExtraLight" horiz-adv-x="594" >
  <font-face 
    font-family="Visby Round CF Extra Light"
    font-weight="250"
    font-stretch="normal"
    units-per-em="1000"
    panose-1="0 0 3 0 0 0 0 0 0 0"
    ascent="800"
    descent="-200"
    x-height="520"
    cap-height="700"
    bbox="-190 -250 1128 980"
    underline-thickness="50"
    underline-position="-200"
    unicode-range="U+0020-FB02"
  />
<missing-glyph horiz-adv-x="495" 
d="M406 800v-990h-314v990h314zM330 734h-164v-33h65v-37h-66v-32h165v32h-66v37h66v33zM264 606h-99v-103h165v34h-66v69zM231 572v-35h-33v35h33zM330 476h-165v-32h66v-37h-66v-33h99v70h66v32zM330 417h-33v-65h-132v-34h165v99zM330 296h-99v-55h33v22h33v-46h-99v79
h-33v-112h165v112zM330 125h-165v-112h165v112zM297 92v-46h-99v46h99zM330 -10h-165v-32h70l-70 -47v-33h165v33h-101l69 47h32v32z" />
    <glyph glyph-name="fl" unicode="fl" horiz-adv-x="499" 
d="M224 727q64 0 111 -38q7 -7 7 -14t-5.5 -13t-11.5 -6q-10 0 -25 11q-33 22 -78 22q-102 0 -102 -126v-43h145q20 0 20 -19q0 -9 -6 -14.5t-14 -5.5h-145v-465q0 -9 -6 -15.5t-15 -6.5q-8 0 -14 7t-6 15v465h-40q-19 0 -19 20q0 19 19 19h40v43q0 86 42 125t103 39z
M419 714q8 0 14 -6t6 -14v-677q0 -8 -6 -15t-14 -7q-9 0 -15 6.5t-6 15.5v677q0 8 6 14t15 6z" />
    <glyph glyph-name="f_t" unicode="ft" horiz-adv-x="598" 
d="M540 40q10 4 19 -0.5t9 -13.5q0 -31 -78 -31q-75 0 -75 72v414h-295v-465q0 -9 -6 -15.5t-15 -6.5q-8 0 -14 7t-6 15v465h-40q-19 0 -19 20q0 19 19 19h40v43q0 86 42 125t103 39q64 0 111 -38q7 -7 7 -14t-5.5 -13t-11.5 -6q-10 0 -25 11q-33 22 -78 22
q-102 0 -102 -126v-43h295v101q0 8 6 14.5t15 6.5t14.5 -6t5.5 -15v-101h92q20 0 20 -19q0 -9 -6 -14.5t-14 -5.5h-92v-406q0 -44 44 -44q20 0 40 9z" />
    <glyph glyph-name=".notdef" horiz-adv-x="495" 
d="M406 800v-990h-314v990h314zM330 734h-164v-33h65v-37h-66v-32h165v32h-66v37h66v33zM264 606h-99v-103h165v34h-66v69zM231 572v-35h-33v35h33zM330 476h-165v-32h66v-37h-66v-33h99v70h66v32zM330 417h-33v-65h-132v-34h165v99zM330 296h-99v-55h33v22h33v-46h-99v79
h-33v-112h165v112zM330 125h-165v-112h165v112zM297 92v-46h-99v46h99zM330 -10h-165v-32h70l-70 -47v-33h165v33h-101l69 47h32v32z" />
    <glyph glyph-name=".null" horiz-adv-x="0" 
 />
    <glyph glyph-name="nonmarkingreturn" horiz-adv-x="333" 
 />
    <glyph glyph-name="space" unicode=" " horiz-adv-x="257" 
 />
    <glyph glyph-name="exclam" unicode="!" horiz-adv-x="177" 
d="M88 703q10 0 16 -6.5t6 -15.5v-485q0 -9 -6 -15.5t-16 -6.5q-9 0 -15.5 6.5t-6.5 15.5v485q0 9 6.5 15.5t15.5 6.5zM88 0q-11 0 -19.5 8.5t-8.5 20.5q0 11 8.5 19.5t19.5 8.5q12 0 20.5 -8.5t8.5 -19.5q0 -12 -8.5 -20.5t-20.5 -8.5z" />
    <glyph glyph-name="quotedbl" unicode="&#x22;" horiz-adv-x="223" 
d="M61 703q8 0 14 -6.5t6 -14.5v-136q0 -8 -6 -14.5t-14 -6.5q-9 0 -15 6.5t-6 14.5v136q0 8 6 14.5t15 6.5zM163 703q8 0 14 -6.5t6 -14.5v-136q0 -8 -6 -14.5t-14 -6.5q-9 0 -15 6.5t-6 14.5v136q0 8 6 14.5t15 6.5z" />
    <glyph glyph-name="numbersign" unicode="#" horiz-adv-x="545" 
d="M481 218q7 0 13 -6t6 -13q0 -8 -5.5 -13.5t-13.5 -5.5h-99l-12 -163q0 -8 -5.5 -13t-13.5 -5q-9 0 -15 6t-6 15l12 160h-170l-12 -163q-2 -18 -20 -18q-9 0 -15 6t-5 15l11 160h-68q-8 0 -13 5.5t-5 13.5t5.5 13.5t12.5 5.5h71l19 265h-90q-8 0 -13 5.5t-5 13.5t5.5 13
t12.5 5h92l12 163q2 18 20 18q9 0 15 -6t5 -15l-11 -160h170l12 163q2 18 19 18q9 0 15.5 -6t5.5 -15l-12 -160h75q8 0 13.5 -5.5t5.5 -12.5q0 -8 -5.5 -13.5t-13.5 -5.5h-77l-19 -265h96zM174 218h170l20 265h-171z" />
    <glyph glyph-name="dollar" unicode="$" horiz-adv-x="545" 
d="M505 178q0 -78 -58.5 -126.5t-141.5 -56.5v-68q0 -7 -5.5 -13t-12.5 -6q-8 0 -13.5 6t-5.5 13v66q-75 2 -138 39t-88 100q-2 6 -2 12q0 22 19 22q16 0 22 -16q24 -55 74.5 -86t120.5 -31q77 0 132.5 37.5t55.5 107.5q0 27 -10 48.5t-20.5 34t-38 27.5t-39.5 20t-49 19
l-81 33q-163 65 -163 178q0 74 59 121.5t145 47.5h1v66q0 7 5.5 13t13.5 6q7 0 12.5 -6t5.5 -13v-66v-3q57 -8 99.5 -39.5t65.5 -73.5q7 -14 7 -24q0 -18 -18 -18q-14 0 -23 16q-52 103 -170 103q-73 0 -117 -34t-44 -94q0 -51 33 -83.5t96 -58.5l73 -29q32 -13 44.5 -18.5
t39.5 -18.5t38.5 -21.5t29.5 -23.5t25.5 -30t14 -35.5t6.5 -43.5z" />
    <glyph glyph-name="percent" unicode="%" horiz-adv-x="698" 
d="M168 705q51 0 87.5 -36t36.5 -87t-36.5 -87t-87.5 -36t-87 36t-36 87t36 87t87 36zM556 687q5 8 14 8q19 0 19 -19q0 -3 -4 -9l-437 -653q-5 -8 -16 -8q-8 0 -13.5 5.5t-5.5 13.5q0 1 3 10zM168 671q-36 0 -62 -25.5t-26 -63.5q0 -37 26 -62.5t62 -25.5q37 0 63.5 25.5
t26.5 62.5q0 38 -26.5 63.5t-63.5 25.5zM529 241q51 0 87.5 -36t36.5 -87t-36.5 -87t-87.5 -36t-87 36t-36 87t36 87t87 36zM529 207q-36 0 -62 -25.5t-26 -63.5q0 -37 26 -62.5t62 -25.5q37 0 63.5 25.5t26.5 62.5q0 38 -26.5 63.5t-63.5 25.5z" />
    <glyph glyph-name="ampersand" unicode="&#x26;" horiz-adv-x="685" 
d="M295 -9q-99 0 -167 58.5t-68 154.5q0 87 56.5 143.5t152.5 66.5l-149 242q-10 16 -2.5 30t26.5 14h342q8 0 13.5 -5.5t5.5 -12.5q0 -8 -5.5 -13.5t-13.5 -5.5h-327l143 -230q14 -22 10.5 -37.5t-23.5 -15.5q-76 0 -132 -48t-56 -128q0 -81 57 -128t137 -47q94 0 151 60.5
t57 136.5v144q0 22 21 22h71q7 0 13.5 -5.5t6.5 -12.5q0 -8 -6 -14t-14 -6h-51v-266q0 -42 26 -53.5t60 8.5q8 4 16.5 -2t8.5 -15q0 -13 -22.5 -22t-44.5 -9q-81 0 -81 87v38q-28 -61 -83.5 -95t-128.5 -34z" />
    <glyph glyph-name="quotesingle" unicode="'" horiz-adv-x="121" 
d="M61 703q8 0 14 -6.5t6 -14.5v-136q0 -8 -6 -14.5t-14 -6.5q-9 0 -15 6.5t-6 14.5v136q0 8 6 14.5t15 6.5z" />
    <glyph glyph-name="parenleft" unicode="(" horiz-adv-x="219" 
d="M162 748q9 0 15 -6.5t6 -14.5q0 -1 -3 -10q-92 -189 -92 -397q0 -224 93 -422l3 -9q0 -9 -6.5 -15.5t-15.5 -6.5q-10 0 -17 11q-100 191 -100 442q0 241 100 417q5 11 17 11z" />
    <glyph glyph-name="parenright" unicode=")" horiz-adv-x="219" 
d="M74 737q100 -176 100 -417q0 -251 -100 -442q-7 -11 -17 -11q-9 0 -15.5 6.5t-6.5 15.5l3 9q93 198 93 422q0 208 -92 397q-3 9 -3 10q0 8 6 14.5t15 6.5q11 0 17 -11z" />
    <glyph glyph-name="asterisk" unicode="*" horiz-adv-x="433" 
d="M195 679q1 9 6.5 15.5t14.5 6.5t15 -6.5t6 -15.5l-2 -99l95 30q10 2 19 -3.5t9 -16.5q0 -14 -15 -19l-100 -27l63 -82q5 -7 5 -12q0 -10 -6.5 -16t-14.5 -6q-11 0 -18 10l-56 81l-56 -81q-5 -10 -17 -10q-9 0 -15 6t-6 16q0 4 4 12l63 82l-100 27q-14 5 -14 19
q0 11 8.5 16.5t18.5 3.5l95 -30z" />
    <glyph glyph-name="plus" unicode="+" horiz-adv-x="427" 
d="M364 299q17 0 17 -16t-17 -16h-135v-139q0 -17 -16 -17t-16 17v139h-135q-17 0 -17 16t17 16h135v131q0 17 16 17t16 -17v-131h135z" />
    <glyph glyph-name="comma" unicode="," horiz-adv-x="179" 
d="M43 -136q-8 0 -11.5 4t-0.5 11l61 163q5 15 19 15h25q14 0 8 -13l-78 -169q-5 -11 -17 -11h-6z" />
    <glyph glyph-name="hyphen" unicode="-" horiz-adv-x="401" 
d="M340 299q16 0 16 -16t-16 -16h-279q-16 0 -16 16t16 16h279z" />
    <glyph glyph-name="period" unicode="." horiz-adv-x="137" 
d="M68 0q-11 0 -19.5 8.5t-8.5 20.5q0 11 8.5 19.5t19.5 8.5q12 0 20.5 -8.5t8.5 -19.5q0 -12 -8.5 -20.5t-20.5 -8.5z" />
    <glyph glyph-name="slash" unicode="/" horiz-adv-x="435" 
d="M382 748q9 0 14.5 -9t1.5 -18l-327 -841q-4 -13 -17 -13q-9 0 -15 8.5t-2 18.5l327 841q4 13 18 13z" />
    <glyph glyph-name="zero" unicode="0" horiz-adv-x="610" 
d="M305 707q113 0 186.5 -93.5t73.5 -250.5v-24q0 -157 -73.5 -250.5t-186.5 -93.5t-186.5 93.5t-73.5 250.5v24q0 157 73.5 250.5t186.5 93.5zM305 670q-94 0 -156.5 -82.5t-62.5 -224.5v-24q0 -143 62.5 -224.5t156.5 -81.5t156.5 81.5t62.5 224.5v24q0 142 -62.5 224.5
t-156.5 82.5z" />
    <glyph glyph-name="one" unicode="1" horiz-adv-x="250" 
d="M153 700q22 0 22 -22v-659q0 -8 -6 -15t-15 -7q-8 0 -14 7t-6 15v644h-71q-8 0 -13 5.5t-5 13.5t5.5 13t12.5 5h90z" />
    <glyph glyph-name="two" unicode="2" horiz-adv-x="522" 
d="M255 707q87 0 148 -56.5t61 -136.5q0 -21 -4.5 -41.5t-16.5 -43t-21.5 -39t-32 -43t-35.5 -41t-43.5 -47.5t-44.5 -49l-157 -172h349q8 0 13.5 -5.5t5.5 -13.5t-5.5 -13.5t-13.5 -5.5h-369q-20 0 -28 15.5t5 31.5l166 185q19 21 62 66.5t57 62t36.5 47.5t29.5 54.5
t7 50.5q0 67 -50 112t-119 45q-66 0 -113.5 -42.5t-54.5 -113.5q-1 -9 -7.5 -15.5t-15.5 -6.5q-8 0 -14 7t-6 17q10 85 68.5 138t142.5 53z" />
    <glyph glyph-name="three" unicode="3" horiz-adv-x="548" 
d="M432 700q18 0 25.5 -14t-3.5 -30l-172 -240q88 -11 154.5 -66t66.5 -148q0 -92 -68 -152t-164 -60q-92 0 -155 54t-71 134q-1 10 5 17t15 7q8 0 15 -6t8 -15q8 -65 59 -109t124 -44q82 0 136.5 48t54.5 126q0 79 -54.5 123.5t-137.5 54.5q-30 4 -30 25q0 11 8 25l166 233
h-323q-8 0 -13 5.5t-5 13.5t5.5 13t12.5 5h341z" />
    <glyph glyph-name="four" unicode="4" horiz-adv-x="527" 
d="M415 243h58q8 0 13.5 -5.5t5.5 -12.5q0 -8 -5.5 -14t-13.5 -6h-58v-186q0 -8 -6 -15t-15 -7q-8 0 -14 7t-6 15v186h-299q-20 0 -27 17t4 33l293 427q18 26 44 17t26 -39v-417zM374 659l-283 -416h283v416z" />
    <glyph glyph-name="five" unicode="5" horiz-adv-x="554" 
d="M423 700q7 0 13 -5.5t6 -12.5q0 -8 -6 -13.5t-13 -5.5h-285l-34 -259q66 67 171 67q93 0 163.5 -68t70.5 -172t-71.5 -172.5t-174.5 -68.5q-73 0 -129.5 36t-87.5 93q-1 3 -1 8q0 8 6 14t14 6q15 0 19 -12q24 -46 73.5 -76.5t109.5 -30.5q83 0 142 58t59 145t-56.5 145.5
t-138.5 58.5q-96 0 -167 -76q-6 -9 -19 -9q-11 0 -19 9t-6 20l39 302q3 19 21 19h301z" />
    <glyph glyph-name="six" unicode="6" horiz-adv-x="539" 
d="M358 703q8 0 14 -6t6 -14q0 -7 -4 -11l-204 -270q49 24 100 24q89 0 156.5 -64t67.5 -153q0 -90 -67 -154.5t-157 -64.5t-157.5 64t-67.5 153q0 34 8 66t28.5 67.5t34.5 55.5t48.5 64t46.5 61l132 173q7 9 15 9zM270 388q-82 0 -133 -48t-51 -131q0 -78 57 -130t127 -52
q71 0 127 51t56 131t-55.5 129.5t-127.5 49.5z" />
    <glyph glyph-name="seven" unicode="7" horiz-adv-x="487" 
d="M425 700q15 0 22.5 -11.5t0.5 -24.5l-309 -655q-5 -12 -19 -12q-8 0 -14 6t-6 14q0 4 2 8l305 638h-354q-8 0 -13 5.5t-5 13.5t5.5 13t12.5 5h372z" />
    <glyph glyph-name="eight" unicode="8" horiz-adv-x="509" 
d="M337 388q59 -22 95.5 -72t36.5 -118q0 -91 -63.5 -149t-150.5 -58t-151 58t-64 149q0 68 36.5 118t96.5 72q-43 21 -67.5 61t-24.5 88q0 69 49 119.5t125 50.5t125 -50.5t49 -119.5q0 -48 -25 -88t-67 -61zM118 537q0 -56 40.5 -95.5t96.5 -39.5t96 39.5t40 95.5
q0 53 -37.5 93.5t-98.5 40.5q-62 0 -99.5 -40.5t-37.5 -93.5zM255 26q72 0 124 47.5t52 124.5q0 75 -50.5 123t-125.5 48t-126 -48t-51 -123q0 -76 52.5 -124t124.5 -48z" />
    <glyph glyph-name="nine" unicode="9" horiz-adv-x="532" 
d="M174 -4q-8 0 -14 6t-6 14q0 7 4 11l204 270q-49 -24 -100 -24q-89 0 -156.5 64t-67.5 153q0 90 67 154.5t157 64.5t157.5 -64t67.5 -153q0 -34 -8 -66t-28.5 -67.5t-34.5 -55.5t-48.5 -64t-46.5 -61l-132 -173q-7 -9 -15 -9zM262 311q82 0 133 48t51 131q0 78 -57 130
t-127 52q-71 0 -127 -51t-56 -131t55.5 -129.5t127.5 -49.5z" />
    <glyph glyph-name="colon" unicode=":" horiz-adv-x="157" 
d="M78 440q-11 0 -19.5 8.5t-8.5 20.5q0 11 8.5 19.5t19.5 8.5q12 0 20.5 -8.5t8.5 -19.5q0 -12 -8.5 -20.5t-20.5 -8.5zM78 0q-11 0 -19.5 8.5t-8.5 20.5q0 11 8.5 19.5t19.5 8.5q12 0 20.5 -8.5t8.5 -19.5q0 -12 -8.5 -20.5t-20.5 -8.5z" />
    <glyph glyph-name="semicolon" unicode=";" horiz-adv-x="198" 
d="M119 440q-11 0 -19.5 8.5t-8.5 20.5q0 11 8.5 19.5t19.5 8.5q12 0 20.5 -8.5t8.5 -19.5q0 -12 -8.5 -20.5t-20.5 -8.5zM43 -136q-8 0 -11.5 4t-0.5 11l61 163q5 15 19 15h25q14 0 8 -13l-78 -169q-5 -11 -17 -11h-6z" />
    <glyph glyph-name="less" unicode="&#x3c;" horiz-adv-x="503" 
d="M430 467q2 2 10 2q7 0 12.5 -5.5t5.5 -12.5q0 -10 -10 -16l-355 -195l354 -193q11 -5 11 -17q0 -7 -6 -12.5t-14 -5.5q-6 0 -9 3l-368 202q-16 8 -16 23.5t15 23.5z" />
    <glyph glyph-name="equal" unicode="=" horiz-adv-x="427" 
d="M364 378q17 0 17 -16t-17 -16h-302q-17 0 -17 16t17 16h302zM364 220q17 0 17 -16t-17 -16h-302q-17 0 -17 16t17 16h302z" />
    <glyph glyph-name="greater" unicode="&#x3e;" horiz-adv-x="503" 
d="M73 467l370 -203q15 -8 15 -23.5t-16 -23.5l-368 -202q-3 -3 -9 -3q-8 0 -14 5.5t-6 12.5q0 12 11 17l354 193l-355 195q-10 6 -10 16q0 7 5.5 12.5t12.5 5.5q8 0 10 -2z" />
    <glyph glyph-name="question" unicode="?" horiz-adv-x="482" 
d="M241 707q89 0 147.5 -53.5t58.5 -131.5q0 -43 -19 -80t-46 -64t-54 -53.5t-46 -59t-19 -68.5q0 -9 -6 -15.5t-14 -6.5t-14.5 6.5t-6.5 15.5q0 40 19 75.5t46 62.5l54 54t46 61t19 72q0 65 -48.5 105.5t-116.5 40.5q-70 0 -115.5 -43.5t-45.5 -132.5q0 -9 -7 -14.5
t-16 -5.5t-15.5 5.5t-6.5 14.5q0 99 58.5 157t147.5 58zM241 0q-11 0 -19.5 8.5t-8.5 20.5q0 11 8.5 19.5t19.5 8.5q12 0 20.5 -8.5t8.5 -19.5q0 -12 -8.5 -20.5t-20.5 -8.5z" />
    <glyph glyph-name="at" unicode="@" horiz-adv-x="792" 
d="M527 523q7 0 12.5 -6t5.5 -13v-203q0 -108 70 -108q40 0 64 38.5t24 115.5q0 143 -92 232.5t-215 89.5q-117 0 -212 -91.5t-95 -230.5q0 -135 96 -225.5t213 -90.5q95 0 168 54q8 6 15 6q18 0 18 -18q0 -9 -8 -17q-88 -63 -194 -63q-87 0 -166 44t-130 127t-51 183
q0 103 51 187t129.5 128.5t165.5 44.5q137 0 241.5 -102.5t104.5 -258.5q0 -91 -37 -139.5t-91 -48.5q-47 0 -73 28t-25 82q-19 -58 -57 -85.5t-81 -27.5q-64 0 -114 50.5t-50 141.5q0 86 50.5 134.5t113.5 48.5q42 0 77.5 -22t51.5 -63v58q0 8 6 14t14 6zM377 494
q-46 0 -85 -38t-39 -109q0 -76 38.5 -115.5t85.5 -39.5q48 0 87.5 41.5t39.5 113.5q0 70 -39 108.5t-88 38.5z" />
    <glyph glyph-name="A" unicode="A" horiz-adv-x="687" 
d="M651 25q1 -2 1 -8q0 -8 -6 -14.5t-14 -6.5q-11 0 -20 13l-88 204h-360l-89 -204q-7 -13 -19 -13q-9 0 -15 6.5t-6 14.5q0 2 0.5 4.5t0.5 3.5l287 662q7 16 21 16q13 0 20 -16zM179 249h329l-164 379z" />
    <glyph glyph-name="B" unicode="B" horiz-adv-x="558" 
d="M364 381q154 -42 154 -187q0 -94 -66.5 -144t-191.5 -50h-178q-22 0 -22 22v656q0 22 22 22h177q107 0 163.5 -47.5t56.5 -125.5q0 -111 -115 -146zM102 663v-264h157q90 0 134.5 30.5t44.5 96.5q0 63 -46 100t-133 37h-157zM260 37q217 0 217 157q0 80 -56 124.5
t-161 44.5h-158v-326h158z" />
    <glyph glyph-name="C" unicode="C" horiz-adv-x="644" 
d="M590 103q8 0 13.5 -5.5t5.5 -13.5q0 -10 -13 -22q-85 -69 -200 -69q-87 0 -165.5 44.5t-129.5 127.5t-51 185q0 154 105.5 255.5t245.5 101.5q107 0 194 -67q14 -12 14 -24q0 -8 -5.5 -13.5t-13.5 -5.5t-31 18q-62 53 -161 53q-119 0 -212.5 -91t-93.5 -227
q0 -90 45.5 -164.5t114.5 -114t144 -39.5q100 0 164 53q21 18 30 18z" />
    <glyph glyph-name="D" unicode="D" horiz-adv-x="619" 
d="M234 700q162 0 253.5 -93.5t91.5 -259.5q0 -162 -91.5 -254.5t-253.5 -92.5h-152q-22 0 -22 22v656q0 22 22 22h152zM234 37q145 0 224.5 80.5t79.5 229.5q0 153 -79.5 234.5t-224.5 81.5h-132v-626h132z" />
    <glyph glyph-name="E" unicode="E" horiz-adv-x="526" 
d="M102 38h370q7 0 13 -5.5t6 -13.5t-6 -13.5t-13 -5.5h-390q-22 0 -22 22v656q0 22 22 22h380q7 0 13 -5.5t6 -13.5t-6 -13.5t-13 -5.5h-360v-292h265q7 0 12.5 -5t5.5 -13t-5.5 -13t-12.5 -5h-265v-296z" />
    <glyph glyph-name="F" unicode="F" horiz-adv-x="516" 
d="M481 681q0 -8 -6 -13.5t-13 -5.5h-360v-290h294q8 0 13.5 -5.5t5.5 -12.5t-5.5 -12.5t-13.5 -5.5h-294v-316q0 -9 -6.5 -16t-15.5 -7q-8 0 -14 7t-6 16v658q0 22 22 22h380q7 0 13 -5.5t6 -13.5z" />
    <glyph glyph-name="G" unicode="G" horiz-adv-x="763" 
d="M700 341q20 0 18 -22q-6 -149 -94 -237.5t-223 -88.5q-138 0 -244.5 102t-106.5 255q0 154 105.5 255.5t245.5 101.5q107 0 194 -67q14 -12 14 -24q0 -8 -5.5 -13.5t-13.5 -5.5t-31 18q-62 53 -161 53q-119 0 -212.5 -91t-93.5 -227t94.5 -227t214.5 -91
q115 0 191.5 73.5t85.5 196.5h-214q-9 0 -14.5 6t-5.5 13q0 8 5.5 14t14.5 6h236z" />
    <glyph glyph-name="H" unicode="H" horiz-adv-x="621" 
d="M519 682q0 8 6.5 14.5t15.5 6.5q8 0 14 -6.5t6 -14.5v-664q0 -8 -6 -14.5t-14 -6.5q-9 0 -15.5 6.5t-6.5 14.5v303h-417v-303q0 -8 -6 -14.5t-15 -6.5t-15 6.5t-6 14.5v664q0 8 6 14.5t15 6.5t15 -6.5t6 -14.5v-323h417v323z" />
    <glyph glyph-name="I" unicode="I" horiz-adv-x="161" 
d="M81 703q9 0 14.5 -6t5.5 -15v-663q0 -9 -5.5 -15.5t-14.5 -6.5t-15 6.5t-6 15.5v663q0 8 6 14.5t15 6.5z" />
    <glyph glyph-name="J" unicode="J" horiz-adv-x="495" 
d="M415 703q8 0 14 -6t6 -14v-416q0 -142 -60.5 -208t-161.5 -66q-106 0 -163 59q-15 16 -15 27q0 20 18 20q13 0 19 -8q56 -58 144 -58q177 0 177 235v415q0 8 6.5 14t15.5 6z" />
    <glyph glyph-name="K" unicode="K" horiz-adv-x="619" 
d="M583 32q6 -8 6 -14q0 -8 -6 -14.5t-14 -6.5q-10 0 -15 7l-316 333l-136 -139v-179q0 -9 -6.5 -15.5t-15.5 -6.5q-8 0 -14 7t-6 16v661q0 9 6 15.5t14 6.5q9 0 15.5 -6.5t6.5 -15.5v-428l432 443q9 7 15 7q8 0 13.5 -6t5.5 -14q0 -9 -5 -15l-299 -305z" />
    <glyph glyph-name="L" unicode="L" horiz-adv-x="495" 
d="M102 37h339q8 0 13.5 -5.5t5.5 -12.5q0 -8 -5.5 -13.5t-13.5 -5.5h-359q-22 0 -22 22v660q0 8 6 14.5t15 6.5t15 -6.5t6 -14.5v-645z" />
    <glyph glyph-name="M" unicode="M" horiz-adv-x="859" 
d="M782 703q17 0 17 -16v-668q0 -8 -6 -15t-14 -7q-9 0 -15.5 7t-6.5 15v584l-308 -569q-8 -13 -20 -13q-9 0 -19 13l-309 569v-584q0 -9 -6 -15.5t-15 -6.5q-8 0 -14 7t-6 15v668q0 16 17 16t24 -15l328 -609l329 609q8 15 24 15z" />
    <glyph glyph-name="N" unicode="N" horiz-adv-x="660" 
d="M580 703q8 0 14 -7t6 -15v-666q0 -8 -5.5 -13t-11.5 -5q-11 0 -22 13l-460 616v-606q0 -9 -6.5 -16t-14.5 -7t-14 7t-6 16v666q0 8 5.5 12.5t11.5 4.5q11 0 22 -12l460 -617v607q0 8 6.5 15t14.5 7z" />
    <glyph glyph-name="O" unicode="O" horiz-adv-x="794" 
d="M397 707q136 0 241.5 -102t105.5 -255t-105.5 -255t-241.5 -102t-241.5 102t-105.5 255t105.5 255t241.5 102zM397 669q-119 0 -212 -91t-93 -228t93 -228t212 -91t212 91t93 228t-93 228t-212 91z" />
    <glyph glyph-name="P" unicode="P" horiz-adv-x="551" 
d="M265 700q116 0 183.5 -57.5t67.5 -152.5q0 -102 -66.5 -158.5t-184.5 -56.5h-163v-256q0 -9 -6 -15.5t-15 -6.5t-15 6.5t-6 15.5v659q0 22 22 22h183zM266 312q100 0 154.5 46t54.5 132q0 79 -55.5 126t-153.5 47h-164v-351h164z" />
    <glyph glyph-name="Q" unicode="Q" horiz-adv-x="794" 
d="M620 78l52 -54q5 -8 5 -12q0 -8 -5.5 -13.5t-13.5 -5.5q-4 0 -12 6l-55 57q-89 -63 -194 -63q-136 0 -241.5 102t-105.5 255t105.5 255t241.5 102t241.5 -102t105.5 -255q0 -165 -124 -272zM397 31q88 0 166 53l-139 143q-5 7 -5 12q0 17 18 17q8 0 13 -5l142 -145
q110 96 110 244q0 137 -93 228t-212 91t-212 -91t-93 -228t93 -228t212 -91z" />
    <glyph glyph-name="R" unicode="R" horiz-adv-x="566" 
d="M521 31q5 -6 5 -16q0 -18 -18 -18q-11 0 -17 8l-215 270h-11h-163v-256q0 -9 -6 -15.5t-15 -6.5t-15 6.5t-6 15.5v659q0 22 22 22h183q116 0 183.5 -57.5t67.5 -152.5q0 -89 -51.5 -144t-144.5 -67zM102 312h164q100 0 154.5 46t54.5 132q0 79 -55.5 126t-153.5 47h-164
v-351z" />
    <glyph glyph-name="S" unicode="S" horiz-adv-x="545" 
d="M267 707q70 0 123 -33.5t80 -82.5q7 -14 7 -24q0 -18 -18 -18q-14 0 -23 16q-52 103 -170 103q-73 0 -117 -34t-44 -94q0 -51 33 -83.5t96 -58.5l73 -29q32 -13 44.5 -18.5t39.5 -18.5t38.5 -21.5t29.5 -23.5t25.5 -30t14 -35.5t6.5 -43.5q0 -85 -69 -135t-161 -50
q-77 0 -142.5 37t-90.5 102q-2 6 -2 12q0 22 19 22q16 0 22 -16q24 -55 74.5 -86t120.5 -31q77 0 132.5 37.5t55.5 107.5q0 27 -10 48.5t-20.5 34t-38 27.5t-39.5 20t-49 19l-81 33q-163 65 -163 178q0 74 59 121.5t145 47.5z" />
    <glyph glyph-name="T" unicode="T" horiz-adv-x="537" 
d="M488 700q8 0 13.5 -5.5t5.5 -12.5q0 -8 -5.5 -13.5t-13.5 -5.5h-199v-644q0 -9 -5.5 -15.5t-14.5 -6.5q-21 0 -21 22v644h-200q-8 0 -13 5.5t-5 13.5t5 13t13 5h440z" />
    <glyph glyph-name="U" unicode="U" horiz-adv-x="654" 
d="M568 703q9 0 15 -6t6 -14v-416q0 -127 -72 -200.5t-191 -73.5q-118 0 -189.5 73t-71.5 201v416q0 8 6 14t15 6t15 -6t6 -14v-415q0 -112 59 -174.5t160 -62.5q102 0 161.5 62.5t59.5 174.5v415q0 8 6 14t15 6z" />
    <glyph glyph-name="V" unicode="V" horiz-adv-x="687" 
d="M632 703q8 0 14 -6.5t6 -14.5q0 -6 -1 -8l-287 -662q-7 -16 -20 -16q-14 0 -21 16l-287 662q0 1 -0.5 3.5t-0.5 4.5q0 8 6 14.5t15 6.5q12 0 19 -13l269 -619l268 619q9 13 20 13z" />
    <glyph glyph-name="W" unicode="W" horiz-adv-x="1031" 
d="M975 703q9 0 15 -6.5t6 -14.5q0 -2 -0.5 -4.5t-0.5 -3.5l-209 -662q-5 -16 -22 -16q-16 0 -21 16l-228 609l-227 -609q-5 -16 -21 -16q-17 0 -22 16l-209 662q0 1 -0.5 3.5t-0.5 4.5q0 8 6 14.5t15 6.5q12 0 19 -13l193 -619l229 618q5 14 18 14q14 0 19 -14l229 -618
l193 619q4 13 19 13z" />
    <glyph glyph-name="X" unicode="X" horiz-adv-x="618" 
d="M568 29q5 -8 5 -15t-5.5 -12t-13.5 -5q-10 0 -18 12l-226 321l-228 -321q-8 -12 -18 -12q-8 0 -13.5 5t-5.5 12t5 15l237 333l-220 309q-5 10 -5 15q0 7 6 12t13 5q10 0 18 -11l211 -297l209 297q8 11 18 11q7 0 13 -5t6 -12q0 -5 -5 -15l-220 -309z" />
    <glyph glyph-name="Y" unicode="Y" horiz-adv-x="579" 
d="M530 702q8 0 13.5 -5t5.5 -13t-5 -15l-233 -336v-314q0 -8 -6.5 -15t-15.5 -7t-15 7t-6 15v314l-233 336q-6 9 -6 15q0 18 20 18q12 0 18 -11l222 -321l223 321q6 11 18 11z" />
    <glyph glyph-name="Z" unicode="Z" horiz-adv-x="557" 
d="M487 700q18 0 25 -13.5t-3 -29.5l-420 -620h409q8 0 13.5 -5.5t5.5 -12.5q0 -8 -5.5 -13.5t-13.5 -5.5h-430q-18 0 -25 13.5t3 29.5l420 620h-394q-8 0 -13 5.5t-5 13.5t5 13t13 5h415z" />
    <glyph glyph-name="bracketleft" unicode="[" horiz-adv-x="223" 
d="M157 745q21 0 21 -18q0 -19 -21 -19h-71v-801h71q21 0 21 -19q0 -18 -21 -18h-87q-25 0 -25 25v825q0 25 25 25h87z" />
    <glyph glyph-name="backslash" unicode="\" horiz-adv-x="435" 
d="M53 748q14 0 18 -13l327 -841q4 -10 -2 -18.5t-15 -8.5q-13 0 -17 13l-327 841q-4 9 1.5 18t14.5 9z" />
    <glyph glyph-name="bracketright" unicode="]" horiz-adv-x="223" 
d="M66 745h87q25 0 25 -25v-825q0 -25 -25 -25h-87q-21 0 -21 18q0 19 21 19h71v801h-71q-21 0 -21 19q0 18 21 18z" />
    <glyph glyph-name="asciicircum" unicode="^" horiz-adv-x="432" 
d="M384 499q3 -6 3 -11q0 -7 -5 -12.5t-11 -5.5q-11 0 -15 8l-139 175l-140 -175q-5 -7 -14 -7q-18 0 -18 17q0 7 4 11l148 200q8 11 19.5 11t19.5 -11z" />
    <glyph glyph-name="underscore" unicode="_" 
d="M530 0q8 0 13.5 -5.5t5.5 -13.5q0 -7 -5.5 -13t-13.5 -6h-467q-7 0 -12.5 5.5t-5.5 13.5t5 13.5t13 5.5h467z" />
    <glyph glyph-name="grave" unicode="`" horiz-adv-x="140" 
d="M22 770q12 0 21 -13l90 -176q3 -5 0.5 -10.5t-8.5 -5.5q-8 0 -11 6l-112 161q-5 10 -5 13q0 11 7.5 18t17.5 7z" />
    <glyph glyph-name="a" unicode="a" 
d="M290 526q64 0 119 -31t84 -92v98q0 9 6 15.5t15 6.5q20 0 20 -22v-485q0 -8 -6 -15t-14 -7q-9 0 -15 6.5t-6 15.5v106q-32 -65 -86.5 -97t-116.5 -32q-43 0 -86.5 17t-80.5 49t-60 84.5t-23 116.5q0 124 77.5 195t172.5 71zM291 31q80 0 142.5 61t62.5 168
q0 110 -62 169.5t-143 59.5q-79 0 -144.5 -60.5t-65.5 -168.5q0 -109 65.5 -169t144.5 -60z" />
    <glyph glyph-name="b" unicode="b" 
d="M304 526q95 0 172.5 -71t77.5 -195q0 -64 -23 -116.5t-60 -84.5t-80.5 -49t-86.5 -17q-62 0 -116.5 32t-86.5 97v-106q0 -9 -6 -15.5t-15 -6.5q-8 0 -14 7t-6 15v676q0 9 6 15.5t14 6.5q9 0 15 -6.5t6 -15.5v-289q29 61 84 92t119 31zM303 31q79 0 144.5 60t65.5 169
q0 108 -65.5 168.5t-144.5 60.5q-81 0 -143 -59.5t-62 -169.5q0 -107 62.5 -168t142.5 -61z" />
    <glyph glyph-name="c" unicode="c" horiz-adv-x="537" 
d="M477 130q20 0 20 -19q0 -6 -5 -15q-33 -49 -85.5 -75t-111.5 -26q-45 0 -89.5 17t-82 48.5t-60.5 83.5t-23 116q0 124 78.5 195t176.5 71q60 0 112 -25.5t85 -74.5q5 -10 5 -16q0 -19 -20 -19q-12 0 -22 17q-25 39 -68 60t-90 21q-82 0 -149 -60t-67 -169q0 -108 67 -168
t149 -60q47 0 90 21t68 60q10 17 22 17z" />
    <glyph glyph-name="d" unicode="d" 
d="M514 714q8 0 14 -6.5t6 -15.5v-676q0 -8 -6 -15t-14 -7q-9 0 -15 6.5t-6 15.5v106q-32 -65 -86.5 -97t-116.5 -32q-43 0 -86.5 17t-80.5 49t-60 84.5t-23 116.5q0 124 77.5 195t172.5 71q64 0 119 -31t84 -92v289q0 9 6 15.5t15 6.5zM291 31q80 0 142.5 61t62.5 168
q0 110 -62 169.5t-143 59.5q-79 0 -144.5 -60.5t-65.5 -168.5q0 -109 65.5 -169t144.5 -60z" />
    <glyph glyph-name="e" unicode="e" horiz-adv-x="580" 
d="M291 526q44 0 87.5 -17t80 -48t59 -81.5t22.5 -110.5q0 -12 -7.5 -19.5t-20.5 -7.5h-430q2 -52 22 -93.5t51 -66t67.5 -37.5t74.5 -13q90 0 145 52q14 15 22 15q19 0 19 -18q0 -9 -13 -23q-64 -63 -173 -63q-102 0 -179.5 69.5t-77.5 195.5q0 64 23 116t60 84t80.5 49
t87.5 17zM291 489q-76 0 -139.5 -55t-69.5 -153h419q-6 98 -70 153t-140 55z" />
    <glyph glyph-name="f" unicode="f" horiz-adv-x="352" 
d="M335 689q7 -7 7 -14t-5.5 -13t-11.5 -6q-10 0 -25 11q-33 22 -78 22q-102 0 -102 -126v-43h145q20 0 20 -19q0 -9 -6 -14.5t-14 -5.5h-145v-465q0 -9 -6 -15.5t-15 -6.5q-8 0 -14 7t-6 15v465h-40q-19 0 -19 20q0 19 19 19h40v43q0 86 42 125t103 39q64 0 111 -38z" />
    <glyph glyph-name="g" unicode="g" horiz-adv-x="595" 
d="M534 122h1v-112q0 -59 -22.5 -103t-59.5 -67t-77 -34t-83 -11q-89 0 -144 37q-10 6 -10 17q0 7 5.5 12.5t12.5 5.5q4 0 19 -6q43 -29 119 -29q85 0 142 44t57 134q-1 2 -1 6v106q-32 -65 -86.5 -97t-116.5 -32q-43 0 -86.5 17t-80.5 49t-60 84.5t-23 116.5
q0 124 77.5 195t172.5 71q64 0 119 -31t84 -92v98q0 9 6 15.5t15 6.5q20 0 20 -22v-379zM291 31q80 0 142.5 61t62.5 168q0 110 -62 169.5t-143 59.5q-79 0 -144.5 -60.5t-65.5 -168.5q0 -109 65.5 -169t144.5 -60z" />
    <glyph glyph-name="h" unicode="h" horiz-adv-x="561" 
d="M301 525q36 0 69.5 -10.5t64 -33.5t48.5 -65.5t18 -100.5v-298q0 -9 -6 -15.5t-15 -6.5q-8 0 -14 7t-6 15v298q0 88 -47 129.5t-115 41.5q-79 0 -132 -51t-65 -119v-299q0 -8 -6 -15t-14 -7q-9 0 -15 6.5t-6 15.5v677q0 8 6 14t15 6q8 0 14 -6t6 -14v-299q3 14 17 34
t37 42.5t62 38t84 15.5z" />
    <glyph glyph-name="i" unicode="i" horiz-adv-x="163" 
d="M82 680q-9 0 -15.5 6.5t-6.5 15.5t6.5 15.5t15.5 6.5q8 0 14.5 -6.5t6.5 -15.5t-6.5 -15.5t-14.5 -6.5zM82 523q8 0 14 -6.5t6 -14.5v-486q0 -9 -6 -15.5t-14 -6.5q-9 0 -15 6.5t-6 15.5v486q0 8 6 14.5t15 6.5z" />
    <glyph glyph-name="j" unicode="j" horiz-adv-x="196" 
d="M115 680q-9 0 -15.5 6.5t-6.5 15.5t6.5 15.5t15.5 6.5q8 0 14.5 -6.5t6.5 -15.5t-6.5 -15.5t-14.5 -6.5zM115 523q8 0 14 -6t6 -14v-572q0 -136 -109 -136q-42 0 -72 19q-14 10 -14 21q0 9 9 14t18 0q36 -18 59 -18q68 0 68 96v576q0 8 6 14t15 6z" />
    <glyph glyph-name="k" unicode="k" horiz-adv-x="503" 
d="M471 29q7 -7 7 -16q0 -18 -18 -18q-10 0 -15 6l-248 251l-96 -99v-136q0 -8 -6 -15t-14 -7q-9 0 -15 6.5t-6 15.5v677q0 8 6 14t15 6q8 0 14 -6t6 -14v-488l297 311q4 6 14 6q8 0 14 -5.5t6 -13.5q0 -7 -6 -13l-203 -211z" />
    <glyph glyph-name="l" unicode="l" horiz-adv-x="161" 
d="M101 17q0 -8 -6 -15t-14 -7q-9 0 -15 6.5t-6 15.5v677q0 8 6 14t15 6q8 0 14 -6t6 -14v-677z" />
    <glyph glyph-name="m" unicode="m" horiz-adv-x="961" 
d="M701 525q36 0 69.5 -10.5t64 -33.5t48.5 -65.5t18 -100.5v-298q0 -9 -6 -15.5t-15 -6.5q-8 0 -14 7t-6 15v298q0 88 -47 129.5t-115 41.5q-79 0 -132 -51t-65 -119v-1v-298q0 -9 -6 -15.5t-15 -6.5q-8 0 -14 7t-6 15v298q0 88 -47 129.5t-115 41.5q-79 0 -132 -51
t-65 -119v-299q0 -8 -6 -15t-14 -7q-9 0 -15 6.5t-6 15.5v485q0 8 6 14.5t15 6.5q8 0 14 -6.5t6 -14.5v-107q3 14 17 34t37 42.5t62 38t84 15.5q64 0 117.5 -32.5t73.5 -103.5q27 56 79.5 96t129.5 40z" />
    <glyph glyph-name="n" unicode="n" horiz-adv-x="561" 
d="M301 525q36 0 69.5 -10.5t64 -33.5t48.5 -65.5t18 -100.5v-298q0 -9 -6 -15.5t-15 -6.5q-8 0 -14 7t-6 15v298q0 88 -47 129.5t-115 41.5q-79 0 -132 -51t-65 -119v-299q0 -8 -6 -15t-14 -7q-9 0 -15 6.5t-6 15.5v485q0 8 6 14.5t15 6.5q8 0 14 -6.5t6 -14.5v-107
q3 14 17 34t37 42.5t62 38t84 15.5z" />
    <glyph glyph-name="o" unicode="o" horiz-adv-x="590" 
d="M295 526q97 0 176 -71t79 -195q0 -64 -23.5 -116.5t-61 -84.5t-81.5 -49t-89 -17t-89 17t-81.5 49t-61 84.5t-23.5 116.5q0 124 79 195t176 71zM295 489q-81 0 -147.5 -60t-66.5 -169q0 -57 20 -102.5t52 -72.5t68.5 -41t73.5 -14q80 0 146.5 60.5t66.5 169.5t-66.5 169
t-146.5 60z" />
    <glyph glyph-name="p" unicode="p" 
d="M304 526q95 0 172.5 -71t77.5 -195q0 -64 -23 -116.5t-60 -84.5t-80.5 -49t-86.5 -17q-62 0 -116.5 32t-86.5 97v-294q0 -8 -6 -14.5t-14 -6.5q-9 0 -15 6.5t-6 14.5v673q0 22 20 22q9 0 15 -6.5t6 -15.5v-98q29 61 84 92t119 31zM303 31q79 0 144.5 60t65.5 169
q0 108 -65.5 168.5t-144.5 60.5q-81 0 -143 -59.5t-62 -169.5q0 -107 62.5 -168t142.5 -61z" />
    <glyph glyph-name="q" unicode="q" 
d="M514 523q20 0 20 -22v-673q0 -8 -6 -14.5t-15 -6.5q-8 0 -14 6.5t-6 14.5v294q-32 -65 -86.5 -97t-116.5 -32q-43 0 -86.5 17t-80.5 49t-60 84.5t-23 116.5q0 124 77.5 195t172.5 71q64 0 119 -31t84 -92v98q0 9 6 15.5t15 6.5zM291 31q80 0 142.5 61t62.5 168
q0 110 -62 169.5t-143 59.5q-79 0 -144.5 -60.5t-65.5 -168.5q0 -109 65.5 -169t144.5 -60z" />
    <glyph glyph-name="r" unicode="r" horiz-adv-x="357" 
d="M296 525q31 0 31 -21t-29 -21q-76 0 -131 -51t-66 -116v-299q0 -9 -6 -15.5t-14 -6.5q-9 0 -15 6.5t-6 15.5v485q0 8 6 14.5t15 6.5q8 0 14 -6.5t6 -14.5v-107q8 36 62 83t133 47z" />
    <glyph glyph-name="s" unicode="s" horiz-adv-x="451" 
d="M221 526q117 0 168 -88q5 -10 5 -21q0 -8 -5.5 -13t-13.5 -5q-11 0 -25 23q-39 66 -132 66q-59 0 -93 -27t-34 -71q0 -72 105 -98l66 -16q78 -19 116 -50.5t38 -85.5q0 -66 -56.5 -105.5t-137.5 -39.5q-63 0 -115 27t-67 71q-5 13 -5 22q0 11 6 17t13 6q14 0 21 -21
q13 -41 52.5 -62t94.5 -21q64 0 109 26.5t45 77.5q0 41 -27.5 62.5t-77.5 33.5l-89 23q-65 16 -98 50.5t-33 81.5q0 58 47.5 97.5t122.5 39.5z" />
    <glyph glyph-name="t" unicode="t" horiz-adv-x="279" 
d="M221 40q10 4 19 -0.5t9 -13.5q0 -31 -78 -31q-75 0 -75 72v414h-57q-19 0 -19 20q0 19 19 19h57v101q0 8 6 14.5t15 6.5t14.5 -6t5.5 -15v-101h92q20 0 20 -19q0 -9 -6 -14.5t-14 -5.5h-92v-406q0 -44 44 -44q20 0 40 9z" />
    <glyph glyph-name="u" unicode="u" horiz-adv-x="561" 
d="M260 -8q-36 0 -69.5 10.5t-64 33.5t-48.5 65.5t-18 100.5v298q0 9 6 15.5t15 6.5q8 0 14 -7t6 -15v-298q0 -88 47 -129.5t115 -41.5q79 0 132 51t65 119v299q0 8 6 15t14 7q9 0 15 -6.5t6 -15.5v-485q0 -8 -6 -14.5t-15 -6.5q-8 0 -14 6.5t-6 14.5v107q-3 -14 -17 -34
t-37 -42.5t-62 -38t-84 -15.5z" />
    <glyph glyph-name="v" unicode="v" horiz-adv-x="514" 
d="M464 523q8 0 14 -6t6 -14q0 -2 -2 -8l-205 -481q-7 -16 -20 -16q-14 0 -21 16l-205 481q0 2 -0.5 4.5t-0.5 3.5q0 8 6 14t14 6q14 0 19 -12l188 -446l188 446q4 12 19 12z" />
    <glyph glyph-name="w" unicode="w" horiz-adv-x="798" 
d="M748 523q8 0 14 -6t6 -14q0 -2 -2 -8l-159 -481q-7 -16 -19 -16q-13 0 -18 16l-171 439l-170 -439q-5 -16 -18 -16q-14 0 -19 16l-161 481q0 2 -0.5 4.5t-0.5 3.5q0 8 6 14t14 6q15 0 19 -13l144 -440l166 439q5 14 20 14t20 -14l168 -439l141 440q4 13 20 13z" />
    <glyph glyph-name="x" unicode="x" horiz-adv-x="471" 
d="M433 25q3 -9 3 -11q0 -8 -5 -13.5t-13 -5.5q-10 0 -14 7l-168 232l-168 -232q-4 -7 -15 -7q-8 0 -13 5.5t-5 13.5q0 2 3 11l175 238l-169 231q-4 6 -4 11q0 8 5.5 13t13.5 5q10 0 15 -7l162 -222l161 222q5 7 15 7q8 0 13.5 -5t5.5 -13q0 -5 -4 -11l-169 -231z" />
    <glyph glyph-name="y" unicode="y" horiz-adv-x="514" 
d="M464 523q8 0 14 -6t6 -14q0 -2 -2 -8l-286 -678q-4 -12 -19 -12q-18 0 -18 20q0 1 0.5 4t0.5 4l76 181l-205 481q0 2 -0.5 4.5t-0.5 3.5q0 8 6 14t14 6q14 0 19 -12l188 -447l188 447q4 12 19 12z" />
    <glyph glyph-name="z" unicode="z" horiz-adv-x="487" 
d="M410 520q21 0 27.5 -15t-7.5 -33l-343 -434h340q8 0 14 -6t6 -13q0 -8 -6 -13.5t-14 -5.5h-357q-21 0 -28 15t7 33l344 435h-323q-8 0 -13 5.5t-5 13.5t5 13t13 5h340z" />
    <glyph glyph-name="braceleft" unicode="{" horiz-adv-x="242" 
d="M178 745q8 0 13.5 -5.5t5.5 -12.5q0 -8 -5.5 -13.5t-13.5 -5.5h-15q-16 0 -25.5 -10t-9.5 -26v-293q0 -5 -2 -9l-37 -64l37 -62q2 -4 2 -8v-293q0 -16 9.5 -26t25.5 -10h15q8 0 13.5 -5.5t5.5 -13.5q0 -7 -5.5 -12.5t-13.5 -5.5h-22q-31 0 -50 20.5t-19 50.5v294l-39 62
q-7 8 0 20l39 62v295q0 30 19 50.5t50 20.5h22z" />
    <glyph glyph-name="bar" unicode="|" horiz-adv-x="188" 
d="M94 803q7 0 13 -6t6 -14v-956q0 -8 -6 -14t-13 -6q-8 0 -13.5 6t-5.5 14v956q0 8 5.5 14t13.5 6z" />
    <glyph glyph-name="braceright" unicode="}" horiz-adv-x="246" 
d="M68 745h22q31 0 50 -20.5t19 -50.5v-295l39 -62q7 -12 0 -20l-39 -62v-294q0 -30 -19 -50.5t-50 -20.5h-22q-8 0 -13.5 5.5t-5.5 12.5q0 8 5.5 13.5t13.5 5.5h15q16 0 25.5 10t9.5 26v293q0 4 2 8l37 62l-37 64q-2 4 -2 9v293q0 16 -9.5 26t-25.5 10h-15q-8 0 -13.5 5.5
t-5.5 13.5q0 7 5.5 12.5t13.5 5.5z" />
    <glyph glyph-name="asciitilde" unicode="~" horiz-adv-x="453" 
d="M141 339q30 0 55.5 -10.5t40 -23t34 -23t40.5 -10.5q57 0 69 36q4 13 16 13q13 0 13 -15q-6 -34 -32 -51.5t-64 -17.5q-45 0 -91.5 35t-81.5 35q-58 0 -68 -42q-3 -13 -15 -13q-15 0 -11 18q6 33 33.5 51t61.5 18z" />
    <glyph glyph-name="exclamdown" unicode="&#xa1;" horiz-adv-x="177" 
d="M88 520q12 0 20.5 -8.5t8.5 -20.5q0 -11 -8.5 -19.5t-20.5 -8.5q-11 0 -19.5 8.5t-8.5 19.5q0 12 8.5 20.5t19.5 8.5zM88 -183q-9 0 -15.5 6.5t-6.5 15.5v485q0 9 6.5 15.5t15.5 6.5q10 0 16 -6.5t6 -15.5v-485q0 -9 -6 -15.5t-16 -6.5z" />
    <glyph glyph-name="cent" unicode="&#xa2;" horiz-adv-x="537" 
d="M477 202q20 0 20 -18q0 -6 -5 -15q-33 -47 -84.5 -72.5t-110.5 -26.5v-93q0 -8 -5.5 -14t-12.5 -6q-8 0 -14 6t-6 14v96q-89 12 -154 79.5t-65 177.5t65 177.5t154 79.5v96q0 8 6 14t14 6q7 0 12.5 -6t5.5 -14v-93q128 -2 195 -98q5 -9 5 -15q0 -19 -20 -19q-12 0 -22 17
q-25 38 -68 58.5t-90 20.5v-448q47 0 90 21t68 59q11 16 22 16zM81 330q0 -93 52.5 -150t125.5 -70v441q-73 -13 -125.5 -70t-52.5 -151z" />
    <glyph glyph-name="sterling" unicode="&#xa3;" horiz-adv-x="536" 
d="M282 670q-69 0 -119 -41t-50 -113q0 -18 3 -35.5t9.5 -37.5t11 -32.5t14.5 -36.5t14 -33h146q8 0 13.5 -5.5t5.5 -12.5t-5.5 -12.5t-13.5 -5.5h-133q14 -45 14 -80q0 -92 -82 -187h355q7 0 13 -6t6 -13q0 -8 -5.5 -13.5t-13.5 -5.5h-402q-11 0 -16 5q-5 9 3 16
q107 114 105 210q0 34 -14 74h-64q-6 0 -11.5 5.5t-5.5 12.5t5.5 12.5t11.5 5.5h49q-2 5 -13.5 29.5t-15.5 34.5t-11 30.5t-9.5 38.5t-2.5 37q0 87 59.5 141.5t148.5 54.5q86 0 144 -54.5t65 -154.5q0 -8 -6.5 -14t-14.5 -6t-14.5 6.5t-6.5 15.5q-4 79 -49.5 124.5
t-117.5 45.5z" />
    <glyph glyph-name="currency" unicode="&#xa4;" horiz-adv-x="565" 
d="M511 476q0 -78 -48 -139l47 -47l-39 -38l-47 47q-60 -47 -137 -47t-138 48l-48 -48l-38 38l48 48q-48 61 -48 138q0 78 48 139l-48 48l38 37l48 -48q61 48 138 48t137 -47l47 47l39 -37l-48 -48q49 -60 49 -139zM104 476q0 -75 55 -128.5t128 -53.5t128 53.5t55 128.5
t-55.5 128.5t-127.5 53.5q-73 0 -128 -53.5t-55 -128.5z" />
    <glyph glyph-name="yen" unicode="&#xa5;" horiz-adv-x="579" 
d="M544 669l-233 -336v-43h94q16 0 16 -17q0 -7 -4.5 -12t-11.5 -5h-94v-60h94q7 0 11.5 -5t4.5 -12q0 -17 -16 -17h-94v-143q0 -8 -6.5 -15t-15.5 -7t-15 7t-6 15v143h-93q-7 0 -12 5t-5 12t5 12t12 5h93v60h-93q-7 0 -12 5t-5 12t5 12t12 5h93v43l-233 336q-6 9 -6 15
q0 18 20 18q12 0 18 -11l222 -321l223 321q6 11 18 11q8 0 13.5 -5t5.5 -13t-5 -15z" />
    <glyph glyph-name="brokenbar" unicode="&#xa6;" horiz-adv-x="188" 
d="M94 803q7 0 13 -6t6 -14v-246q0 -7 -5.5 -12.5t-13.5 -5.5t-13.5 5t-5.5 13v246q0 8 5.5 14t13.5 6zM94 93q7 0 13 -6t6 -14v-246q0 -8 -6 -14t-13 -6q-8 0 -13.5 6t-5.5 14v246q0 8 5.5 14t13.5 6z" />
    <glyph glyph-name="section" unicode="&#xa7;" horiz-adv-x="531" 
d="M264 744q71 0 125.5 -34t84.5 -89q13 -17 -6 -23q-18 -7 -26 11q-24 43 -70 71.5t-108 28.5q-72 0 -119 -36.5t-47 -98.5q0 -55 32 -87t93 -52l81 -26q187 -60 187 -198q0 -61 -46 -109q46 -49 46 -119q0 -79 -70.5 -128.5t-159.5 -49.5q-73 0 -131 37t-88 102
q-8 19 9 24q15 5 24 -12q25 -53 74.5 -84.5t111.5 -31.5q76 0 135 38.5t59 104.5q0 111 -142 158l-98 33q-155 52 -155 173q0 64 48 112q-48 45 -48 115q0 72 60 121t144 49zM136 438q-38 -36 -38 -91t32 -87t93 -53l81 -26q72 -22 115 -56q36 38 36 86q0 109 -142 158
l-98 32q-46 15 -79 37z" />
    <glyph glyph-name="dieresis" unicode="&#xa8;" horiz-adv-x="276" 
d="M27 645q-11 0 -19 8t-8 19t8 19t19 8q10 0 18 -8t8 -19t-7.5 -19t-18.5 -8zM249 645q-11 0 -18.5 8t-7.5 19t8 19t18 8q11 0 19 -8t8 -19t-8 -19t-19 -8z" />
    <glyph glyph-name="copyright" unicode="&#xa9;" horiz-adv-x="793" 
d="M396 707q138 0 242.5 -102t104.5 -255t-104.5 -255t-242.5 -102q-137 0 -241.5 102t-104.5 255t104.5 255t241.5 102zM396 667q-120 0 -213 -90t-93 -227t93 -227t213 -90t213 90t93 227t-93 227t-213 90zM403 576q49 0 95.5 -20.5t48.5 -42.5q1 -8 -4.5 -14t-13.5 -6
q-10 0 -20 11q-35 34 -102 34q-73 0 -128 -54t-55 -134t55 -134.5t128 -54.5q58 0 103 35q12 11 20 11t13.5 -5.5t4.5 -13.5q-2 -19 -49.5 -41.5t-95.5 -22.5q-88 0 -155 65t-67 161t67 161t155 65z" />
    <glyph glyph-name="ordfeminine" unicode="&#xaa;" horiz-adv-x="364" 
d="M176 704q63 0 91.5 -35t29.5 -111v-96q0 -29 4 -42q9 -32 -7 -32q-23 0 -30 22q-4 12 -4 29q-39 -53 -114 -53q-46 0 -76 24t-30 69q0 83 116 94l104 10q-2 85 -87 85q-49 0 -76 -24q-23 -21 -34 -10q-16 16 2 32q41 38 111 38zM260 550q-22 -5 -102 -13t-80 -58
q0 -27 20.5 -42t56.5 -15t65.5 23t39.5 43v62z" />
    <glyph glyph-name="guillemotleft" unicode="&#xab;" horiz-adv-x="393" 
d="M40 294q0 11 11 24l133 126q8 6 16 2t8 -12q0 -9 -9 -18l-121 -124l121 -124q9 -8 9 -18q0 -8 -8 -12t-16 3l-133 126q-11 11 -11 23v4zM185 294q0 11 11 24l133 126q7 6 15.5 2t8.5 -12q0 -9 -9 -18l-121 -124l121 -124q9 -8 9 -18q0 -8 -8.5 -12t-15.5 3l-133 126
q-11 11 -11 23v4z" />
    <glyph glyph-name="logicalnot" unicode="&#xac;" horiz-adv-x="472" 
d="M405 299q22 0 22 -22v-99q0 -8 -6 -14t-15 -6q-8 0 -14 6t-6 14v89h-325q-16 0 -16 16t16 16h344z" />
    <glyph glyph-name="uni00AD" unicode="&#xad;" horiz-adv-x="401" 
d="M340 299q16 0 16 -16t-16 -16h-279q-16 0 -16 16t16 16h279z" />
    <glyph glyph-name="registered" unicode="&#xae;" horiz-adv-x="793" 
d="M396 707q138 0 242.5 -102t104.5 -255t-104.5 -255t-242.5 -102q-137 0 -241.5 102t-104.5 255t104.5 255t241.5 102zM396 667q-120 0 -213 -90t-93 -227t93 -227t213 -90t213 90t93 227t-93 227t-213 90zM399 554q65 0 105.5 -35.5t40.5 -90.5q0 -49 -30.5 -81.5
t-83.5 -40.5l118 -151h-45l-115 149h-88v-149h-37v399h135zM400 517h-99v-176h99q52 0 80 22.5t28 64.5t-28.5 65.5t-79.5 23.5z" />
    <glyph glyph-name="macron" unicode="&#xaf;" horiz-adv-x="366" 
d="M346 700q8 0 14 -5.5t6 -12.5q0 -8 -6 -13.5t-14 -5.5h-327q-8 0 -13.5 5.5t-5.5 13.5q0 7 5.5 12.5t13.5 5.5h327z" />
    <glyph glyph-name="degree" unicode="&#xb0;" horiz-adv-x="381" 
d="M191 719q61 0 103 -42.5t42 -102.5q0 -62 -42 -104.5t-103 -42.5t-103.5 43t-42.5 104q0 60 42.5 102.5t103.5 42.5zM191 684q-46 0 -78 -31t-32 -79t32 -79t78 -31q45 0 77 31t32 79t-32 79t-77 31z" />
    <glyph glyph-name="plusminus" unicode="&#xb1;" horiz-adv-x="427" 
d="M62 323q-17 0 -17 16t17 16h135v131q0 17 16 17t16 -17v-131h135q17 0 17 -16t-17 -16h-135v-139q0 -17 -16 -17t-16 17v139h-135zM364 33q17 0 17 -16t-17 -16h-302q-17 0 -17 16t17 16h302z" />
    <glyph glyph-name="uni00B2" unicode="&#xb2;" horiz-adv-x="261" 
d="M129 704q34 0 59 -22.5t25 -52.5q0 -26 -14.5 -47t-53.5 -61l-47 -49h118v-32h-168v32l68 69q28 29 36.5 38.5t15.5 22.5t7 27q0 18 -14 31t-32 13q-19 0 -33 -13t-14 -37v-14h-37v14q0 35 24.5 58t59.5 23z" />
    <glyph glyph-name="uni00B3" unicode="&#xb3;" horiz-adv-x="273" 
d="M136 703q32 0 56 -20.5t24 -47.5q0 -32 -30 -53q42 -18 42 -66q0 -34 -27.5 -57t-64.5 -23q-40 0 -66.5 27t-24.5 64h38q1 -25 15 -42t38 -17q22 0 38 13.5t16 34.5q0 48 -74 48v29q63 0 63 42q0 16 -12.5 26.5t-30.5 10.5q-22 0 -34.5 -14.5t-12.5 -40.5h-37
q-1 38 23 62t61 24z" />
    <glyph glyph-name="acute" unicode="&#xb4;" horiz-adv-x="148" 
d="M118 770q10 0 17.5 -7t7.5 -18q0 -3 -5 -13l-112 -161q-3 -6 -11 -6q-6 0 -8.5 5.5t0.5 10.5l90 176q9 13 21 13z" />
    <glyph glyph-name="uni00B5" unicode="&#xb5;" horiz-adv-x="566" 
d="M485 522q9 0 15 -6.5t6 -15.5v-485q0 -8 -6 -14.5t-15 -6.5q-8 0 -14 6.5t-6 14.5v107q-3 -14 -17 -34t-37 -42.5t-62 -38t-84 -15.5q-110 0 -164 77v-241q0 -8 -6 -14.5t-14 -6.5q-9 0 -15 6.5t-6 14.5v675q0 8 6 14t15 6q4 0 6 -1q19 -2 19 -22v-298q0 -88 47 -129.5
t115 -41.5q79 0 132 51t65 119v299q0 8 6 15t14 7z" />
    <glyph glyph-name="paragraph" unicode="&#xb6;" horiz-adv-x="692" 
d="M601 703q9 0 15 -6.5t6 -14.5v-663q0 -8 -6 -15t-15 -7q-8 0 -14 7t-6 15v663q0 8 6 14.5t14 6.5zM509 700q22 0 22 -22v-659q0 -9 -6 -15.5t-15 -6.5t-15 6.5t-6 15.5v256h-163q-118 0 -184.5 56.5t-66.5 158.5q0 95 67.5 152.5t183.5 57.5h183zM325 312h164v351h-164
q-98 0 -153.5 -47t-55.5 -126q0 -86 54.5 -132t154.5 -46z" />
    <glyph glyph-name="periodcentered" unicode="&#xb7;" horiz-adv-x="157" 
d="M78 254q-11 0 -19.5 8.5t-8.5 20.5q0 11 8.5 19.5t19.5 8.5q12 0 20.5 -8.5t8.5 -19.5q0 -12 -8.5 -20.5t-20.5 -8.5z" />
    <glyph glyph-name="cedilla" unicode="&#xb8;" horiz-adv-x="141" 
d="M54 -45q33 2 60 -20t27 -57q0 -42 -37.5 -68t-88.5 -21q-7 1 -11.5 6t-2.5 10q5 11 18 9q35 -4 58.5 16t23.5 47q0 25 -21 40.5t-47 6.5q-12 -5 -18 4q-5 9 0 19l37 53h47z" />
    <glyph glyph-name="uni00B9" unicode="&#xb9;" horiz-adv-x="192" 
d="M117 701v-261h-37v221l-17 -11l-18 31l35 20h37z" />
    <glyph glyph-name="ordmasculine" unicode="&#xba;" horiz-adv-x="382" 
d="M190 705q58 0 105 -43.5t47 -116.5t-47 -116.5t-105 -43.5q-57 0 -103.5 43.5t-46.5 116.5t46.5 116.5t103.5 43.5zM190 670q-45 0 -79 -33t-34 -92t34 -92.5t79 -33.5q46 0 80.5 33.5t34.5 92.5t-34 92t-81 33z" />
    <glyph glyph-name="guillemotright" unicode="&#xbb;" horiz-adv-x="393" 
d="M208 294v-4q0 -12 -11 -23l-133 -126q-8 -7 -16 -3t-8 12q0 10 9 18l121 124l-121 124q-9 9 -9 18q0 8 8 12t16 -2l133 -126q11 -13 11 -24zM353 294v-4q0 -12 -11 -23l-133 -126q-7 -7 -15.5 -3t-8.5 12q0 10 9 18l121 124l-121 124q-9 9 -9 18q0 8 8.5 12t15.5 -2
l133 -126q11 -13 11 -24z" />
    <glyph glyph-name="onequarter" unicode="&#xbc;" horiz-adv-x="569" 
d="M100 701v-261h-37v221l-17 -11l-18 31l35 20h37zM503 700l-430 -700h-48l436 700h42zM517 261v-154h27v-31h-27v-76h-37v76h-132l132 185h37zM480 202l-65 -95h65v95z" />
    <glyph glyph-name="onehalf" unicode="&#xbd;" horiz-adv-x="544" 
d="M100 701v-261h-37v221l-17 -11l-18 31l35 20h37zM503 700l-430 -700h-48l436 700h42zM432 264q34 0 59 -22.5t25 -52.5q0 -26 -14.5 -47t-53.5 -61l-47 -49h118v-32h-168v32l68 69q28 29 36.5 38.5t15.5 22.5t7 27q0 18 -14 31t-32 13q-19 0 -33 -13t-14 -37v-14h-37v14
q0 35 24.5 58t59.5 23z" />
    <glyph glyph-name="threequarters" unicode="&#xbe;" horiz-adv-x="587" 
d="M116 703q32 0 56 -20.5t24 -47.5q0 -32 -30 -53q42 -18 42 -66q0 -34 -27.5 -57t-64.5 -23q-40 0 -66.5 27t-24.5 64h38q1 -25 15 -42t38 -17q22 0 38 13.5t16 34.5q0 48 -74 48v29q63 0 63 42q0 16 -12.5 26.5t-30.5 10.5q-22 0 -34.5 -14.5t-12.5 -40.5h-37
q-1 38 23 62t61 24zM531 700l-430 -700h-48l436 700h42zM535 261v-154h27v-31h-27v-76h-37v76h-132l132 185h37zM498 202l-65 -95h65v95z" />
    <glyph glyph-name="questiondown" unicode="&#xbf;" horiz-adv-x="482" 
d="M241 520q11 0 19.5 -8.5t8.5 -20.5q0 -11 -8.5 -19.5t-19.5 -8.5q-12 0 -20.5 8.5t-8.5 19.5q0 12 8.5 20.5t20.5 8.5zM241 -187q-89 0 -147.5 53.5t-58.5 131.5q0 43 19 80t46 64t54 53.5t46 59t19 68.5q0 9 6 15.5t14 6.5t14.5 -6.5t6.5 -15.5q0 -40 -19 -75.5
t-46 -62.5l-54 -54t-46 -61t-19 -72q0 -65 48.5 -105.5t116.5 -40.5q70 0 115.5 43.5t45.5 132.5q0 9 7 14.5t16 5.5t15.5 -5.5t6.5 -14.5q0 -99 -58.5 -157t-147.5 -58z" />
    <glyph glyph-name="Agrave" unicode="&#xc0;" horiz-adv-x="687" 
d="M338 751l-112 161q-5 10 -5 13q0 11 7.5 18t17.5 7q12 0 21 -13l90 -176q3 -5 0.5 -10.5t-8.5 -5.5q-8 0 -11 6zM651 25q1 -2 1 -8q0 -8 -6 -14.5t-14 -6.5q-11 0 -20 13l-88 204h-360l-89 -204q-7 -13 -19 -13q-9 0 -15 6.5t-6 14.5q0 2 0.5 4.5t0.5 3.5l287 662
q7 16 21 16q13 0 20 -16zM179 249h329l-164 379z" />
    <glyph glyph-name="Aacute" unicode="&#xc1;" horiz-adv-x="687" 
d="M324 745q-6 0 -8.5 5.5t0.5 10.5l90 176q9 13 21 13q11 0 18 -7t7 -18q0 -3 -5 -13l-112 -161q-3 -6 -11 -6zM651 25q1 -2 1 -8q0 -8 -6 -14.5t-14 -6.5q-11 0 -20 13l-88 204h-360l-89 -204q-7 -13 -19 -13q-9 0 -15 6.5t-6 14.5q0 2 0.5 4.5t0.5 3.5l287 662
q7 16 21 16q13 0 20 -16zM179 249h329l-164 379z" />
    <glyph glyph-name="Acircumflex" unicode="&#xc2;" horiz-adv-x="687" 
d="M225 807q-9 0 -12.5 7.5t2.5 16.5l104 137q9 12 23 12h4q13 0 23 -12l103 -137q6 -9 3 -16.5t-12 -7.5t-17 9l-102 126l-102 -126q-8 -9 -17 -9zM651 25q1 -2 1 -8q0 -8 -6 -14.5t-14 -6.5q-11 0 -20 13l-88 204h-360l-89 -204q-7 -13 -19 -13q-9 0 -15 6.5t-6 14.5
q0 2 0.5 4.5t0.5 3.5l287 662q7 16 21 16q13 0 20 -16zM179 249h329l-164 379z" />
    <glyph glyph-name="Atilde" unicode="&#xc3;" horiz-adv-x="687" 
d="M198 808q-7 0 -10.5 5t-2.5 9q5 36 30.5 55.5t54.5 19.5q27 0 49.5 -10t35.5 -21.5t30.5 -21.5t34.5 -10q51 0 60 37q2 12 13 12q5 0 9.5 -4.5t3.5 -11.5q-4 -36 -28.5 -54t-58.5 -18q-37 0 -78.5 33.5t-71.5 33.5q-51 0 -59 -43q0 -4 -4 -7.5t-8 -3.5zM651 25q1 -2 1 -8
q0 -8 -6 -14.5t-14 -6.5q-11 0 -20 13l-88 204h-360l-89 -204q-7 -13 -19 -13q-9 0 -15 6.5t-6 14.5q0 2 0.5 4.5t0.5 3.5l287 662q7 16 21 16q13 0 20 -16zM179 249h329l-164 379z" />
    <glyph glyph-name="Adieresis" unicode="&#xc4;" horiz-adv-x="687" 
d="M233 825q-11 0 -19 8t-8 19t8 19t19 8q10 0 18 -8t8 -19t-7.5 -19t-18.5 -8zM455 825q-11 0 -18.5 8t-7.5 19t8 19t18 8q11 0 19 -8t8 -19t-8 -19t-19 -8zM651 25q1 -2 1 -8q0 -8 -6 -14.5t-14 -6.5q-11 0 -20 13l-88 204h-360l-89 -204q-7 -13 -19 -13q-9 0 -15 6.5
t-6 14.5q0 2 0.5 4.5t0.5 3.5l287 662q7 16 21 16q13 0 20 -16zM179 249h329l-164 379z" />
    <glyph glyph-name="Aring" unicode="&#xc5;" horiz-adv-x="687" 
d="M345 804q-33 0 -55.5 22.5t-22.5 53.5t22.5 53.5t55.5 22.5q31 0 53.5 -22.5t22.5 -53.5t-22.5 -53.5t-53.5 -22.5zM344 924q-18 0 -31 -13t-13 -31t13 -31t31 -13t30.5 13t12.5 31t-12.5 31t-30.5 13zM651 25q1 -2 1 -8q0 -8 -6 -14.5t-14 -6.5q-11 0 -20 13l-88 204
h-360l-89 -204q-7 -13 -19 -13q-9 0 -15 6.5t-6 14.5q0 2 0.5 4.5t0.5 3.5l287 662q7 16 21 16q13 0 20 -16zM179 249h329l-164 379z" />
    <glyph glyph-name="AE" unicode="&#xc6;" horiz-adv-x="959" 
d="M906 38q7 0 13 -5.5t6 -13.5t-6 -13.5t-13 -5.5h-390q-22 0 -22 22v217h-261l-154 -226q-9 -13 -25 -13h-2q-12 0 -16 7t3 18l451 662q9 13 25 13h381q7 0 13 -5.5t6 -13.5t-6 -13.5t-13 -5.5h-360v-292h265q7 0 12.5 -5t5.5 -13t-5.5 -13t-12.5 -5h-265v-296h370z
M258 276h236v348z" />
    <glyph glyph-name="Ccedilla" unicode="&#xc7;" horiz-adv-x="644" 
d="M590 103q8 0 13.5 -5.5t5.5 -13.5q0 -10 -13 -22q-76 -62 -179 -68l-39 -39q33 2 60 -20t27 -57q0 -42 -37.5 -68t-88.5 -21q-7 1 -11.5 6t-2.5 10q5 11 18 9q35 -4 58.5 16t23.5 47q0 25 -21 40.5t-47 6.5q-12 -5 -18 4q-5 9 0 19l33 47q-129 10 -225.5 110.5
t-96.5 245.5q0 154 105.5 255.5t245.5 101.5q107 0 194 -67q14 -12 14 -24q0 -8 -5.5 -13.5t-13.5 -5.5t-31 18q-62 53 -161 53q-119 0 -212.5 -91t-93.5 -227q0 -90 45.5 -164.5t114.5 -114t144 -39.5q100 0 164 53q21 18 30 18z" />
    <glyph glyph-name="Egrave" unicode="&#xc8;" horiz-adv-x="526" 
d="M182 950q12 0 21 -13l90 -176q3 -5 0.5 -10.5t-8.5 -5.5q-8 0 -11 6l-112 161q-5 10 -5 13q0 11 7.5 18t17.5 7zM102 38h370q7 0 13 -5.5t6 -13.5t-6 -13.5t-13 -5.5h-390q-22 0 -22 22v656q0 22 22 22h380q7 0 13 -5.5t6 -13.5t-6 -13.5t-13 -5.5h-360v-292h265
q7 0 12.5 -5t5.5 -13t-5.5 -13t-12.5 -5h-265v-296z" />
    <glyph glyph-name="Eacute" unicode="&#xc9;" horiz-adv-x="526" 
d="M363 950q11 0 18 -7t7 -18q0 -3 -5 -13l-112 -161q-3 -6 -11 -6q-6 0 -8.5 5.5t0.5 10.5l90 176q9 13 21 13zM102 38h370q7 0 13 -5.5t6 -13.5t-6 -13.5t-13 -5.5h-390q-22 0 -22 22v656q0 22 22 22h380q7 0 13 -5.5t6 -13.5t-6 -13.5t-13 -5.5h-360v-292h265
q7 0 12.5 -5t5.5 -13t-5.5 -13t-12.5 -5h-265v-296z" />
    <glyph glyph-name="Ecircumflex" unicode="&#xca;" horiz-adv-x="526" 
d="M282 980q13 0 23 -12l103 -137q6 -9 3 -16.5t-12 -7.5t-17 9l-102 126l-102 -126q-8 -9 -17 -9t-12.5 7.5t2.5 16.5l104 137q9 12 23 12h4zM102 38h370q7 0 13 -5.5t6 -13.5t-6 -13.5t-13 -5.5h-390q-22 0 -22 22v656q0 22 22 22h380q7 0 13 -5.5t6 -13.5t-6 -13.5
t-13 -5.5h-360v-292h265q7 0 12.5 -5t5.5 -13t-5.5 -13t-12.5 -5h-265v-296z" />
    <glyph glyph-name="Edieresis" unicode="&#xcb;" horiz-adv-x="526" 
d="M169 825q-11 0 -19 8t-8 19t8 19t19 8q10 0 18 -8t8 -19t-7.5 -19t-18.5 -8zM391 825q-11 0 -18.5 8t-7.5 19t8 19t18 8q11 0 19 -8t8 -19t-8 -19t-19 -8zM102 38h370q7 0 13 -5.5t6 -13.5t-6 -13.5t-13 -5.5h-390q-22 0 -22 22v656q0 22 22 22h380q7 0 13 -5.5t6 -13.5
t-6 -13.5t-13 -5.5h-360v-292h265q7 0 12.5 -5t5.5 -13t-5.5 -13t-12.5 -5h-265v-296z" />
    <glyph glyph-name="Igrave" unicode="&#xcc;" horiz-adv-x="161" 
d="M-17 950q12 0 21 -13l90 -176q3 -5 0.5 -10.5t-8.5 -5.5q-8 0 -11 6l-112 161q-5 10 -5 13q0 11 7 18t18 7zM81 703q9 0 14.5 -6t5.5 -15v-663q0 -9 -5.5 -15.5t-14.5 -6.5t-15 6.5t-6 15.5v663q0 8 6 14.5t15 6.5z" />
    <glyph glyph-name="Iacute" unicode="&#xcd;" horiz-adv-x="161" 
d="M164 950q10 0 17.5 -7t7.5 -18q0 -3 -5 -13l-112 -161q-3 -6 -11 -6q-6 0 -8.5 5.5t0.5 10.5l90 176q9 13 21 13zM81 703q9 0 14.5 -6t5.5 -15v-663q0 -9 -5.5 -15.5t-14.5 -6.5t-15 6.5t-6 15.5v663q0 8 6 14.5t15 6.5z" />
    <glyph glyph-name="Icircumflex" unicode="&#xce;" horiz-adv-x="161" 
d="M83 980q13 0 23 -12l103 -137q6 -9 3 -16.5t-12 -7.5t-17 9l-102 126l-102 -126q-8 -9 -17 -9t-12.5 7.5t2.5 16.5l104 137q9 12 23 12h4zM81 703q9 0 14.5 -6t5.5 -15v-663q0 -9 -5.5 -15.5t-14.5 -6.5t-15 6.5t-6 15.5v663q0 8 6 14.5t15 6.5z" />
    <glyph glyph-name="Idieresis" unicode="&#xcf;" horiz-adv-x="161" 
d="M-30 825q-11 0 -19 8t-8 19t8 19t19 8q10 0 18 -8t8 -19t-7.5 -19t-18.5 -8zM192 825q-11 0 -18.5 8t-7.5 19t8 19t18 8q11 0 19 -8t8 -19t-8 -19t-19 -8zM81 703q9 0 14.5 -6t5.5 -15v-663q0 -9 -5.5 -15.5t-14.5 -6.5t-15 6.5t-6 15.5v663q0 8 6 14.5t15 6.5z" />
    <glyph glyph-name="Eth" unicode="&#xd0;" horiz-adv-x="677" 
d="M292 700q162 0 253.5 -93.5t91.5 -259.5q0 -162 -91.5 -254.5t-253.5 -92.5h-152q-22 0 -22 22v313h-42q-16 0 -16 16t16 16h42v311q0 22 22 22h152zM292 37q145 0 224.5 80.5t79.5 229.5q0 153 -79.5 234.5t-224.5 81.5h-132v-296h195q16 0 16 -16t-16 -16h-195v-298
h132z" />
    <glyph glyph-name="Ntilde" unicode="&#xd1;" horiz-adv-x="660" 
d="M257 897q27 0 49.5 -10t35.5 -21.5t30.5 -21.5t34.5 -10q51 0 60 37q2 12 13 12q5 0 9.5 -4.5t3.5 -11.5q-4 -36 -28.5 -54t-58.5 -18q-37 0 -78.5 33.5t-71.5 33.5q-51 0 -59 -43q0 -4 -4 -7.5t-8 -3.5q-7 0 -10.5 5t-2.5 9q5 36 30.5 55.5t54.5 19.5zM580 703
q8 0 14 -7t6 -15v-666q0 -8 -5.5 -13t-11.5 -5q-11 0 -22 13l-460 616v-606q0 -9 -6.5 -16t-14.5 -7t-14 7t-6 16v666q0 8 5.5 12.5t11.5 4.5q11 0 22 -12l460 -617v607q0 8 6.5 15t14.5 7z" />
    <glyph glyph-name="Ograve" unicode="&#xd2;" horiz-adv-x="794" 
d="M299 950q12 0 21 -13l90 -176q3 -5 0.5 -10.5t-8.5 -5.5q-8 0 -11 6l-112 161q-5 10 -5 13q0 11 7 18t18 7zM397 707q136 0 241.5 -102t105.5 -255t-105.5 -255t-241.5 -102t-241.5 102t-105.5 255t105.5 255t241.5 102zM397 669q-119 0 -212 -91t-93 -228t93 -228
t212 -91t212 91t93 228t-93 228t-212 91z" />
    <glyph glyph-name="Oacute" unicode="&#xd3;" horiz-adv-x="794" 
d="M480 950q10 0 17.5 -7t7.5 -18q0 -3 -5 -13l-112 -161q-3 -6 -11 -6q-6 0 -8.5 5.5t0.5 10.5l90 176q9 13 21 13zM397 707q136 0 241.5 -102t105.5 -255t-105.5 -255t-241.5 -102t-241.5 102t-105.5 255t105.5 255t241.5 102zM397 669q-119 0 -212 -91t-93 -228t93 -228
t212 -91t212 91t93 228t-93 228t-212 91z" />
    <glyph glyph-name="Ocircumflex" unicode="&#xd4;" horiz-adv-x="794" 
d="M399 980q13 0 23 -12l103 -137q6 -9 3 -16.5t-12 -7.5t-17 9l-102 126l-102 -126q-8 -9 -17 -9t-12.5 7.5t2.5 16.5l104 137q9 12 23 12h4zM397 707q136 0 241.5 -102t105.5 -255t-105.5 -255t-241.5 -102t-241.5 102t-105.5 255t105.5 255t241.5 102zM397 669
q-119 0 -212 -91t-93 -228t93 -228t212 -91t212 91t93 228t-93 228t-212 91z" />
    <glyph glyph-name="Otilde" unicode="&#xd5;" horiz-adv-x="794" 
d="M323 897q27 0 49.5 -10t35.5 -21.5t30.5 -21.5t34.5 -10q51 0 60 37q2 12 13 12q5 0 9.5 -4.5t3.5 -11.5q-4 -36 -28.5 -54t-58.5 -18q-37 0 -78.5 33.5t-71.5 33.5q-51 0 -59 -43q0 -4 -4 -7.5t-8 -3.5q-7 0 -10.5 5t-2.5 9q5 36 30.5 55.5t54.5 19.5zM397 707
q136 0 241.5 -102t105.5 -255t-105.5 -255t-241.5 -102t-241.5 102t-105.5 255t105.5 255t241.5 102zM397 669q-119 0 -212 -91t-93 -228t93 -228t212 -91t212 91t93 228t-93 228t-212 91z" />
    <glyph glyph-name="Odieresis" unicode="&#xd6;" horiz-adv-x="794" 
d="M286 825q-11 0 -19 8t-8 19t8 19t19 8q10 0 18 -8t8 -19t-7.5 -19t-18.5 -8zM508 825q-11 0 -18.5 8t-7.5 19t8 19t18 8q11 0 19 -8t8 -19t-8 -19t-19 -8zM397 707q136 0 241.5 -102t105.5 -255t-105.5 -255t-241.5 -102t-241.5 102t-105.5 255t105.5 255t241.5 102z
M397 669q-119 0 -212 -91t-93 -228t93 -228t212 -91t212 91t93 228t-93 228t-212 91z" />
    <glyph glyph-name="multiply" unicode="&#xd7;" horiz-adv-x="339" 
d="M290 187q12 -12 1 -23q-11 -12 -24 1l-95 95l-99 -98q-12 -14 -23 -1q-11 11 1 23l98 99l-95 95q-13 13 -1 23q10 11 23 0l96 -96l92 93q12 12 24 1q11 -12 -1 -24l-93 -92z" />
    <glyph glyph-name="Oslash" unicode="&#xd8;" horiz-adv-x="794" 
d="M567 660q80 -47 128.5 -128t48.5 -182q0 -153 -105.5 -255t-241.5 -102q-69 0 -135 29l-30 -63q-6 -10 -17 -10q-18 0 -18 18q0 5 1 8l31 64q-80 46 -129.5 128t-49.5 183q0 153 105.5 255t241.5 102q68 0 137 -30l28 59q4 10 17 10q18 0 18 -18q0 -2 -0.5 -4t-0.5 -4z
M92 350q0 -90 42.5 -161.5t111.5 -113.5l271 567q-57 27 -120 27q-119 0 -212 -91t-93 -228zM397 31q119 0 212 91t93 228q0 89 -42 160.5t-110 113.5l-271 -567q57 -26 118 -26z" />
    <glyph glyph-name="Ugrave" unicode="&#xd9;" horiz-adv-x="654" 
d="M229 950q12 0 21 -13l90 -176q3 -5 0.5 -10.5t-8.5 -5.5q-8 0 -11 6l-112 161q-5 10 -5 13q0 11 7 18t18 7zM568 703q9 0 15 -6t6 -14v-416q0 -127 -72 -200.5t-191 -73.5q-118 0 -189.5 73t-71.5 201v416q0 8 6 14t15 6t15 -6t6 -14v-415q0 -112 59 -174.5t160 -62.5
q102 0 161.5 62.5t59.5 174.5v415q0 8 6 14t15 6z" />
    <glyph glyph-name="Uacute" unicode="&#xda;" horiz-adv-x="654" 
d="M410 950q10 0 17.5 -7t7.5 -18q0 -3 -5 -13l-112 -161q-3 -6 -11 -6q-6 0 -8.5 5.5t0.5 10.5l90 176q9 13 21 13zM568 703q9 0 15 -6t6 -14v-416q0 -127 -72 -200.5t-191 -73.5q-118 0 -189.5 73t-71.5 201v416q0 8 6 14t15 6t15 -6t6 -14v-415q0 -112 59 -174.5
t160 -62.5q102 0 161.5 62.5t59.5 174.5v415q0 8 6 14t15 6z" />
    <glyph glyph-name="Ucircumflex" unicode="&#xdb;" horiz-adv-x="654" 
d="M329 980q13 0 23 -12l103 -137q6 -9 3 -16.5t-12 -7.5t-17 9l-102 126l-102 -126q-8 -9 -17 -9t-12.5 7.5t2.5 16.5l104 137q9 12 23 12h4zM568 703q9 0 15 -6t6 -14v-416q0 -127 -72 -200.5t-191 -73.5q-118 0 -189.5 73t-71.5 201v416q0 8 6 14t15 6t15 -6t6 -14v-415
q0 -112 59 -174.5t160 -62.5q102 0 161.5 62.5t59.5 174.5v415q0 8 6 14t15 6z" />
    <glyph glyph-name="Udieresis" unicode="&#xdc;" horiz-adv-x="654" 
d="M216 825q-11 0 -19 8t-8 19t8 19t19 8q10 0 18 -8t8 -19t-7.5 -19t-18.5 -8zM438 825q-11 0 -18.5 8t-7.5 19t8 19t18 8q11 0 19 -8t8 -19t-8 -19t-19 -8zM568 703q9 0 15 -6t6 -14v-416q0 -127 -72 -200.5t-191 -73.5q-118 0 -189.5 73t-71.5 201v416q0 8 6 14t15 6
t15 -6t6 -14v-415q0 -112 59 -174.5t160 -62.5q102 0 161.5 62.5t59.5 174.5v415q0 8 6 14t15 6z" />
    <glyph glyph-name="Yacute" unicode="&#xdd;" horiz-adv-x="579" 
d="M372 950q10 0 17.5 -7t7.5 -18q0 -3 -5 -13l-112 -161q-3 -6 -11 -6q-6 0 -8.5 5.5t0.5 10.5l90 176q9 13 21 13zM530 702q8 0 13.5 -5t5.5 -13t-5 -15l-233 -336v-314q0 -8 -6.5 -15t-15.5 -7t-15 7t-6 15v314l-233 336q-6 9 -6 15q0 18 20 18q12 0 18 -11l222 -321
l223 321q6 11 18 11z" />
    <glyph glyph-name="Thorn" unicode="&#xde;" horiz-adv-x="570" 
d="M286 565q114 0 181.5 -58.5t67.5 -154.5q0 -101 -66.5 -157t-182.5 -56h-185v-139h-41v700h41v-135h185zM288 177q101 0 153.5 45t52.5 130q0 80 -53.5 128t-152.5 48h-187v-351h187z" />
    <glyph glyph-name="germandbls" unicode="&#xdf;" horiz-adv-x="575" 
d="M276 700q101 0 160 -44t59 -125q0 -116 -109 -147q149 -37 149 -186q0 -98 -69 -148t-201 -50h-61q-21 0 -21 19q0 18 21 18h64q226 0 226 160q0 167 -226 167h-64q-21 0 -21 19t21 19h64q88 0 137 34.5t49 96.5t-46.5 96t-133.5 34q-84 0 -128.5 -36.5t-44.5 -101.5
v-503q0 -22 -20 -22q-21 0 -21 22v503q0 80 54.5 127.5t161.5 47.5z" />
    <glyph glyph-name="agrave" unicode="&#xe0;" 
d="M203 770q12 0 21 -13l90 -176q3 -5 0.5 -10.5t-8.5 -5.5q-8 0 -11 6l-112 161q-5 10 -5 13q0 11 7 18t18 7zM290 526q64 0 119 -31t84 -92v98q0 9 6 15.5t15 6.5q20 0 20 -22v-485q0 -8 -6 -15t-14 -7q-9 0 -15 6.5t-6 15.5v106q-32 -65 -86.5 -97t-116.5 -32
q-43 0 -86.5 17t-80.5 49t-60 84.5t-23 116.5q0 124 77.5 195t172.5 71zM291 31q80 0 142.5 61t62.5 168q0 110 -62 169.5t-143 59.5q-79 0 -144.5 -60.5t-65.5 -168.5q0 -109 65.5 -169t144.5 -60z" />
    <glyph glyph-name="aacute" unicode="&#xe1;" 
d="M384 770q10 0 17.5 -7t7.5 -18q0 -3 -5 -13l-112 -161q-3 -6 -11 -6q-6 0 -8.5 5.5t0.5 10.5l90 176q9 13 21 13zM290 526q64 0 119 -31t84 -92v98q0 9 6 15.5t15 6.5q20 0 20 -22v-485q0 -8 -6 -15t-14 -7q-9 0 -15 6.5t-6 15.5v106q-32 -65 -86.5 -97t-116.5 -32
q-43 0 -86.5 17t-80.5 49t-60 84.5t-23 116.5q0 124 77.5 195t172.5 71zM291 31q80 0 142.5 61t62.5 168q0 110 -62 169.5t-143 59.5q-79 0 -144.5 -60.5t-65.5 -168.5q0 -109 65.5 -169t144.5 -60z" />
    <glyph glyph-name="acircumflex" unicode="&#xe2;" 
d="M303 800q13 0 23 -12l103 -137q6 -9 3 -16.5t-12 -7.5t-17 9l-102 126l-102 -126q-8 -9 -17 -9t-12.5 7.5t2.5 16.5l104 137q9 12 23 12h4zM290 526q64 0 119 -31t84 -92v98q0 9 6 15.5t15 6.5q20 0 20 -22v-485q0 -8 -6 -15t-14 -7q-9 0 -15 6.5t-6 15.5v106
q-32 -65 -86.5 -97t-116.5 -32q-43 0 -86.5 17t-80.5 49t-60 84.5t-23 116.5q0 124 77.5 195t172.5 71zM291 31q80 0 142.5 61t62.5 168q0 110 -62 169.5t-143 59.5q-79 0 -144.5 -60.5t-65.5 -168.5q0 -109 65.5 -169t144.5 -60z" />
    <glyph glyph-name="atilde" unicode="&#xe3;" 
d="M227 717q27 0 49.5 -10t35.5 -21.5t30.5 -21.5t34.5 -10q51 0 60 37q2 12 13 12q5 0 9.5 -4.5t3.5 -11.5q-4 -36 -28.5 -54t-58.5 -18q-37 0 -78.5 33.5t-71.5 33.5q-51 0 -59 -43q0 -4 -4 -7.5t-8 -3.5q-7 0 -10.5 5t-2.5 9q5 36 30.5 55.5t54.5 19.5zM290 526
q64 0 119 -31t84 -92v98q0 9 6 15.5t15 6.5q20 0 20 -22v-485q0 -8 -6 -15t-14 -7q-9 0 -15 6.5t-6 15.5v106q-32 -65 -86.5 -97t-116.5 -32q-43 0 -86.5 17t-80.5 49t-60 84.5t-23 116.5q0 124 77.5 195t172.5 71zM291 31q80 0 142.5 61t62.5 168q0 110 -62 169.5
t-143 59.5q-79 0 -144.5 -60.5t-65.5 -168.5q0 -109 65.5 -169t144.5 -60z" />
    <glyph glyph-name="adieresis" unicode="&#xe4;" 
d="M190 645q-11 0 -19 8t-8 19t8 19t19 8q10 0 18 -8t8 -19t-7.5 -19t-18.5 -8zM412 645q-11 0 -18.5 8t-7.5 19t8 19t18 8q11 0 19 -8t8 -19t-8 -19t-19 -8zM290 526q64 0 119 -31t84 -92v98q0 9 6 15.5t15 6.5q20 0 20 -22v-485q0 -8 -6 -15t-14 -7q-9 0 -15 6.5t-6 15.5
v106q-32 -65 -86.5 -97t-116.5 -32q-43 0 -86.5 17t-80.5 49t-60 84.5t-23 116.5q0 124 77.5 195t172.5 71zM291 31q80 0 142.5 61t62.5 168q0 110 -62 169.5t-143 59.5q-79 0 -144.5 -60.5t-65.5 -168.5q0 -109 65.5 -169t144.5 -60z" />
    <glyph glyph-name="aring" unicode="&#xe5;" 
d="M302 776q31 0 53.5 -22.5t22.5 -53.5t-22.5 -53.5t-53.5 -22.5q-33 0 -55.5 22.5t-22.5 53.5t22.5 53.5t55.5 22.5zM301 744q-18 0 -31 -13t-13 -31t13 -31t31 -13t30.5 13t12.5 31t-12.5 31t-30.5 13zM290 526q64 0 119 -31t84 -92v98q0 9 6 15.5t15 6.5q20 0 20 -22
v-485q0 -8 -6 -15t-14 -7q-9 0 -15 6.5t-6 15.5v106q-32 -65 -86.5 -97t-116.5 -32q-43 0 -86.5 17t-80.5 49t-60 84.5t-23 116.5q0 124 77.5 195t172.5 71zM291 31q80 0 142.5 61t62.5 168q0 110 -62 169.5t-143 59.5q-79 0 -144.5 -60.5t-65.5 -168.5q0 -109 65.5 -169
t144.5 -60z" />
    <glyph glyph-name="ae" unicode="&#xe6;" horiz-adv-x="1037" 
d="M748 526q44 0 87.5 -17t80 -48t59 -81.5t22.5 -110.5q0 -12 -7.5 -19.5t-20.5 -7.5h-430q2 -52 22 -93.5t51 -66t67.5 -37.5t74.5 -13q90 0 145 52q14 15 22 15q19 0 19 -18q0 -9 -13 -23q-64 -63 -173 -63q-66 0 -125.5 31t-94.5 89v-99q0 -8 -6 -15t-14 -7
q-9 0 -15 6.5t-6 15.5v106q-32 -65 -86.5 -97t-116.5 -32q-43 0 -86.5 17t-80.5 49t-60 84.5t-23 116.5q0 124 77.5 195t172.5 71q64 0 119 -31t84 -92v98q0 9 6 15.5t15 6.5q20 0 20 -22v-97q35 58 94 90t120 32zM291 31q80 0 142.5 61t62.5 168q0 110 -62 169.5t-143 59.5
q-79 0 -144.5 -60.5t-65.5 -168.5q0 -109 65.5 -169t144.5 -60zM539 281h419q-6 98 -70 153t-140 55t-139.5 -55t-69.5 -153z" />
    <glyph glyph-name="ccedilla" unicode="&#xe7;" horiz-adv-x="537" 
d="M477 130q20 0 20 -19q0 -6 -5 -15q-56 -84 -163 -99l-42 -42q33 2 60 -20t27 -57q0 -42 -37.5 -68t-88.5 -21q-8 1 -12 6t-2 10q4 11 18 9q35 -4 58.5 16t23.5 47q0 25 -21 40.5t-47 6.5q-12 -5 -18 4q-5 9 0 19l34 48q-95 6 -168.5 76t-73.5 189q0 124 78.5 195
t176.5 71q60 0 112 -25.5t85 -74.5q5 -10 5 -16q0 -19 -20 -19q-12 0 -22 17q-25 39 -68 60t-90 21q-82 0 -149 -60t-67 -169q0 -108 67 -168t149 -60q47 0 90 21t68 60q10 17 22 17z" />
    <glyph glyph-name="egrave" unicode="&#xe8;" horiz-adv-x="580" 
d="M185 770q12 0 21 -13l90 -176q3 -5 0.5 -10.5t-8.5 -5.5q-8 0 -11 6l-112 161q-5 10 -5 13q0 11 7 18t18 7zM291 526q44 0 87.5 -17t80 -48t59 -81.5t22.5 -110.5q0 -12 -7.5 -19.5t-20.5 -7.5h-430q2 -52 22 -93.5t51 -66t67.5 -37.5t74.5 -13q90 0 145 52q14 15 22 15
q19 0 19 -18q0 -9 -13 -23q-64 -63 -173 -63q-102 0 -179.5 69.5t-77.5 195.5q0 64 23 116t60 84t80.5 49t87.5 17zM291 489q-76 0 -139.5 -55t-69.5 -153h419q-6 98 -70 153t-140 55z" />
    <glyph glyph-name="eacute" unicode="&#xe9;" horiz-adv-x="580" 
d="M366 770q10 0 17.5 -7t7.5 -18q0 -3 -5 -13l-112 -161q-3 -6 -11 -6q-6 0 -8.5 5.5t0.5 10.5l90 176q9 13 21 13zM291 526q44 0 87.5 -17t80 -48t59 -81.5t22.5 -110.5q0 -12 -7.5 -19.5t-20.5 -7.5h-430q2 -52 22 -93.5t51 -66t67.5 -37.5t74.5 -13q90 0 145 52
q14 15 22 15q19 0 19 -18q0 -9 -13 -23q-64 -63 -173 -63q-102 0 -179.5 69.5t-77.5 195.5q0 64 23 116t60 84t80.5 49t87.5 17zM291 489q-76 0 -139.5 -55t-69.5 -153h419q-6 98 -70 153t-140 55z" />
    <glyph glyph-name="ecircumflex" unicode="&#xea;" horiz-adv-x="580" 
d="M285 800q13 0 23 -12l103 -137q6 -9 3 -16.5t-12 -7.5t-17 9l-102 126l-102 -126q-8 -9 -17 -9t-12.5 7.5t2.5 16.5l104 137q9 12 23 12h4zM291 526q44 0 87.5 -17t80 -48t59 -81.5t22.5 -110.5q0 -12 -7.5 -19.5t-20.5 -7.5h-430q2 -52 22 -93.5t51 -66t67.5 -37.5
t74.5 -13q90 0 145 52q14 15 22 15q19 0 19 -18q0 -9 -13 -23q-64 -63 -173 -63q-102 0 -179.5 69.5t-77.5 195.5q0 64 23 116t60 84t80.5 49t87.5 17zM291 489q-76 0 -139.5 -55t-69.5 -153h419q-6 98 -70 153t-140 55z" />
    <glyph glyph-name="edieresis" unicode="&#xeb;" horiz-adv-x="580" 
d="M172 645q-11 0 -19 8t-8 19t8 19t19 8q10 0 18 -8t8 -19t-7.5 -19t-18.5 -8zM394 645q-11 0 -18.5 8t-7.5 19t8 19t18 8q11 0 19 -8t8 -19t-8 -19t-19 -8zM291 526q44 0 87.5 -17t80 -48t59 -81.5t22.5 -110.5q0 -12 -7.5 -19.5t-20.5 -7.5h-430q2 -52 22 -93.5t51 -66
t67.5 -37.5t74.5 -13q90 0 145 52q14 15 22 15q19 0 19 -18q0 -9 -13 -23q-64 -63 -173 -63q-102 0 -179.5 69.5t-77.5 195.5q0 64 23 116t60 84t80.5 49t87.5 17zM291 489q-76 0 -139.5 -55t-69.5 -153h419q-6 98 -70 153t-140 55z" />
    <glyph glyph-name="igrave" unicode="&#xec;" horiz-adv-x="191" 
d="M-2 770q12 0 21 -13l90 -176q3 -5 0.5 -10.5t-8.5 -5.5q-8 0 -11 6l-112 161q-5 10 -5 13q0 11 7.5 18t17.5 7zM96 523q8 0 14 -6t6 -14v-484q0 -8 -6 -15t-14 -7q-9 0 -15 7t-6 15v484q0 8 6 14t15 6z" />
    <glyph glyph-name="iacute" unicode="&#xed;" horiz-adv-x="191" 
d="M179 770q11 0 18 -7t7 -18q0 -3 -5 -13l-112 -161q-3 -6 -11 -6q-6 0 -8.5 5.5t0.5 10.5l90 176q9 13 21 13zM96 523q8 0 14 -6t6 -14v-484q0 -8 -6 -15t-14 -7q-9 0 -15 7t-6 15v484q0 8 6 14t15 6z" />
    <glyph glyph-name="icircumflex" unicode="&#xee;" horiz-adv-x="191" 
d="M98 800q13 0 23 -12l103 -137q6 -9 3 -16.5t-12 -7.5t-17 9l-102 126l-102 -126q-8 -9 -17 -9t-12.5 7.5t2.5 16.5l104 137q9 12 23 12h4zM96 523q8 0 14 -6t6 -14v-484q0 -8 -6 -15t-14 -7q-9 0 -15 7t-6 15v484q0 8 6 14t15 6z" />
    <glyph glyph-name="idieresis" unicode="&#xef;" horiz-adv-x="191" 
d="M-15 645q-11 0 -19 8t-8 19t8 19t19 8q10 0 18 -8t8 -19t-7.5 -19t-18.5 -8zM207 645q-11 0 -18.5 8t-7.5 19t8 19t18 8q11 0 19 -8t8 -19t-8 -19t-19 -8zM96 523q8 0 14 -6t6 -14v-484q0 -8 -6 -15t-14 -7q-9 0 -15 7t-6 15v484q0 8 6 14t15 6z" />
    <glyph glyph-name="eth" unicode="&#xf0;" horiz-adv-x="565" 
d="M377 582q128 -173 128 -324q0 -130 -64.5 -199t-168.5 -69q-103 0 -167.5 69t-64.5 199q0 120 60.5 191t172.5 71q93 0 142 -53l-82 108l-92 -13q-8 -2 -14.5 3.5t-6.5 14.5q0 14 16 16l73 11l-50 66q-3 2 -3 10q0 7 5 12.5t13 5.5q10 0 15 -6l64 -82l68 10q8 2 14 -3.5
t6 -14.5q0 -14 -15 -16zM272 28q85 0 138.5 57t53.5 173q0 110 -49.5 167t-144.5 57q-93 0 -141 -57t-48 -167q0 -116 53.5 -173t137.5 -57z" />
    <glyph glyph-name="ntilde" unicode="&#xf1;" horiz-adv-x="561" 
d="M206 717q27 0 49.5 -10t35.5 -21.5t30.5 -21.5t34.5 -10q51 0 60 37q2 12 13 12q5 0 9.5 -4.5t3.5 -11.5q-4 -36 -28.5 -54t-58.5 -18q-37 0 -78.5 33.5t-71.5 33.5q-51 0 -59 -43q0 -4 -4 -7.5t-8 -3.5q-7 0 -10.5 5t-2.5 9q5 36 30.5 55.5t54.5 19.5zM301 525
q36 0 69.5 -10.5t64 -33.5t48.5 -65.5t18 -100.5v-298q0 -9 -6 -15.5t-15 -6.5q-8 0 -14 7t-6 15v298q0 88 -47 129.5t-115 41.5q-79 0 -132 -51t-65 -119v-299q0 -8 -6 -15t-14 -7q-9 0 -15 6.5t-6 15.5v485q0 8 6 14.5t15 6.5q8 0 14 -6.5t6 -14.5v-107q3 14 17 34
t37 42.5t62 38t84 15.5z" />
    <glyph glyph-name="ograve" unicode="&#xf2;" horiz-adv-x="590" 
d="M197 770q12 0 21 -13l90 -176q3 -5 0.5 -10.5t-8.5 -5.5q-8 0 -11 6l-112 161q-5 10 -5 13q0 11 7 18t18 7zM295 526q97 0 176 -71t79 -195q0 -64 -23.5 -116.5t-61 -84.5t-81.5 -49t-89 -17t-89 17t-81.5 49t-61 84.5t-23.5 116.5q0 124 79 195t176 71zM295 489
q-81 0 -147.5 -60t-66.5 -169q0 -57 20 -102.5t52 -72.5t68.5 -41t73.5 -14q80 0 146.5 60.5t66.5 169.5t-66.5 169t-146.5 60z" />
    <glyph glyph-name="oacute" unicode="&#xf3;" horiz-adv-x="590" 
d="M378 770q10 0 17.5 -7t7.5 -18q0 -3 -5 -13l-112 -161q-3 -6 -11 -6q-6 0 -8.5 5.5t0.5 10.5l90 176q9 13 21 13zM295 526q97 0 176 -71t79 -195q0 -64 -23.5 -116.5t-61 -84.5t-81.5 -49t-89 -17t-89 17t-81.5 49t-61 84.5t-23.5 116.5q0 124 79 195t176 71zM295 489
q-81 0 -147.5 -60t-66.5 -169q0 -57 20 -102.5t52 -72.5t68.5 -41t73.5 -14q80 0 146.5 60.5t66.5 169.5t-66.5 169t-146.5 60z" />
    <glyph glyph-name="ocircumflex" unicode="&#xf4;" horiz-adv-x="590" 
d="M297 800q13 0 23 -12l103 -137q6 -9 3 -16.5t-12 -7.5t-17 9l-102 126l-102 -126q-8 -9 -17 -9t-12.5 7.5t2.5 16.5l104 137q9 12 23 12h4zM295 526q97 0 176 -71t79 -195q0 -64 -23.5 -116.5t-61 -84.5t-81.5 -49t-89 -17t-89 17t-81.5 49t-61 84.5t-23.5 116.5
q0 124 79 195t176 71zM295 489q-81 0 -147.5 -60t-66.5 -169q0 -57 20 -102.5t52 -72.5t68.5 -41t73.5 -14q80 0 146.5 60.5t66.5 169.5t-66.5 169t-146.5 60z" />
    <glyph glyph-name="otilde" unicode="&#xf5;" horiz-adv-x="590" 
d="M221 717q27 0 49.5 -10t35.5 -21.5t30.5 -21.5t34.5 -10q51 0 60 37q2 12 13 12q5 0 9.5 -4.5t3.5 -11.5q-4 -36 -28.5 -54t-58.5 -18q-37 0 -78.5 33.5t-71.5 33.5q-51 0 -59 -43q0 -4 -4 -7.5t-8 -3.5q-7 0 -10.5 5t-2.5 9q5 36 30.5 55.5t54.5 19.5zM295 526
q97 0 176 -71t79 -195q0 -64 -23.5 -116.5t-61 -84.5t-81.5 -49t-89 -17t-89 17t-81.5 49t-61 84.5t-23.5 116.5q0 124 79 195t176 71zM295 489q-81 0 -147.5 -60t-66.5 -169q0 -57 20 -102.5t52 -72.5t68.5 -41t73.5 -14q80 0 146.5 60.5t66.5 169.5t-66.5 169t-146.5 60z
" />
    <glyph glyph-name="odieresis" unicode="&#xf6;" horiz-adv-x="590" 
d="M184 645q-11 0 -19 8t-8 19t8 19t19 8q10 0 18 -8t8 -19t-7.5 -19t-18.5 -8zM406 645q-11 0 -18.5 8t-7.5 19t8 19t18 8q11 0 19 -8t8 -19t-8 -19t-19 -8zM295 526q97 0 176 -71t79 -195q0 -64 -23.5 -116.5t-61 -84.5t-81.5 -49t-89 -17t-89 17t-81.5 49t-61 84.5
t-23.5 116.5q0 124 79 195t176 71zM295 489q-81 0 -147.5 -60t-66.5 -169q0 -57 20 -102.5t52 -72.5t68.5 -41t73.5 -14q80 0 146.5 60.5t66.5 169.5t-66.5 169t-146.5 60z" />
    <glyph glyph-name="divide" unicode="&#xf7;" horiz-adv-x="427" 
d="M213 394q-11 0 -19.5 8.5t-8.5 20.5q0 11 8.5 19.5t19.5 8.5q12 0 20.5 -8.5t8.5 -19.5q0 -12 -8.5 -20.5t-20.5 -8.5zM364 299q17 0 17 -16t-17 -16h-302q-17 0 -17 16t17 16h302zM213 115q-11 0 -19.5 8.5t-8.5 20.5q0 11 8.5 19.5t19.5 8.5q12 0 20.5 -8.5t8.5 -19.5
q0 -12 -8.5 -20.5t-20.5 -8.5z" />
    <glyph glyph-name="oslash" unicode="&#xf8;" horiz-adv-x="590" 
d="M412 497q61 -32 99.5 -92t38.5 -145q0 -64 -23.5 -116.5t-61 -84.5t-81.5 -49t-89 -17q-58 0 -112 27l-29 -61q-5 -10 -17 -10q-8 0 -13.5 5t-5.5 13q0 2 0.5 5t0.5 4l30 63q-109 76 -109 221q0 124 79 195t176 71q40 0 82 -14l27 57q5 10 17 10q8 0 13.5 -5t5.5 -13
q0 -3 -2 -9zM81 260q0 -120 85 -186l194 404q-35 11 -65 11q-81 0 -147.5 -60t-66.5 -169zM295 30q80 0 146.5 60.5t66.5 169.5q0 141 -113 203l-196 -409q46 -24 96 -24z" />
    <glyph glyph-name="ugrave" unicode="&#xf9;" horiz-adv-x="561" 
d="M182 770q12 0 21 -13l90 -176q3 -5 0.5 -10.5t-8.5 -5.5q-8 0 -11 6l-112 161q-5 10 -5 13q0 11 7.5 18t17.5 7zM260 -8q-36 0 -69.5 10.5t-64 33.5t-48.5 65.5t-18 100.5v298q0 9 6 15.5t15 6.5q8 0 14 -7t6 -15v-298q0 -88 47 -129.5t115 -41.5q79 0 132 51t65 119v299
q0 8 6 15t14 7q9 0 15 -6.5t6 -15.5v-485q0 -8 -6 -14.5t-15 -6.5q-8 0 -14 6.5t-6 14.5v107q-3 -14 -17 -34t-37 -42.5t-62 -38t-84 -15.5z" />
    <glyph glyph-name="uacute" unicode="&#xfa;" horiz-adv-x="561" 
d="M363 770q11 0 18 -7t7 -18q0 -3 -5 -13l-112 -161q-3 -6 -11 -6q-6 0 -8.5 5.5t0.5 10.5l90 176q9 13 21 13zM260 -8q-36 0 -69.5 10.5t-64 33.5t-48.5 65.5t-18 100.5v298q0 9 6 15.5t15 6.5q8 0 14 -7t6 -15v-298q0 -88 47 -129.5t115 -41.5q79 0 132 51t65 119v299
q0 8 6 15t14 7q9 0 15 -6.5t6 -15.5v-485q0 -8 -6 -14.5t-15 -6.5q-8 0 -14 6.5t-6 14.5v107q-3 -14 -17 -34t-37 -42.5t-62 -38t-84 -15.5z" />
    <glyph glyph-name="ucircumflex" unicode="&#xfb;" horiz-adv-x="561" 
d="M282 800q13 0 23 -12l103 -137q6 -9 3 -16.5t-12 -7.5t-17 9l-102 126l-102 -126q-8 -9 -17 -9t-12.5 7.5t2.5 16.5l104 137q9 12 23 12h4zM260 -8q-36 0 -69.5 10.5t-64 33.5t-48.5 65.5t-18 100.5v298q0 9 6 15.5t15 6.5q8 0 14 -7t6 -15v-298q0 -88 47 -129.5
t115 -41.5q79 0 132 51t65 119v299q0 8 6 15t14 7q9 0 15 -6.5t6 -15.5v-485q0 -8 -6 -14.5t-15 -6.5q-8 0 -14 6.5t-6 14.5v107q-3 -14 -17 -34t-37 -42.5t-62 -38t-84 -15.5z" />
    <glyph glyph-name="udieresis" unicode="&#xfc;" horiz-adv-x="561" 
d="M169 645q-11 0 -19 8t-8 19t8 19t19 8q10 0 18 -8t8 -19t-7.5 -19t-18.5 -8zM391 645q-11 0 -18.5 8t-7.5 19t8 19t18 8q11 0 19 -8t8 -19t-8 -19t-19 -8zM260 -8q-36 0 -69.5 10.5t-64 33.5t-48.5 65.5t-18 100.5v298q0 9 6 15.5t15 6.5q8 0 14 -7t6 -15v-298
q0 -88 47 -129.5t115 -41.5q79 0 132 51t65 119v299q0 8 6 15t14 7q9 0 15 -6.5t6 -15.5v-485q0 -8 -6 -14.5t-15 -6.5q-8 0 -14 6.5t-6 14.5v107q-3 -14 -17 -34t-37 -42.5t-62 -38t-84 -15.5z" />
    <glyph glyph-name="yacute" unicode="&#xfd;" horiz-adv-x="514" 
d="M240 565q-6 0 -8.5 5.5t0.5 10.5l90 176q9 13 21 13q11 0 18 -7t7 -18q0 -3 -5 -13l-112 -161q-3 -6 -11 -6zM464 523q8 0 14 -6t6 -14q0 -2 -2 -8l-286 -678q-4 -12 -19 -12q-18 0 -18 20q0 1 0.5 4t0.5 4l76 181l-205 481q0 2 -0.5 4.5t-0.5 3.5q0 8 6 14t14 6
q14 0 19 -12l188 -447l188 447q4 12 19 12z" />
    <glyph glyph-name="thorn" unicode="&#xfe;" 
d="M304 526q95 0 172.5 -71t77.5 -195q0 -64 -23 -116.5t-60 -84.5t-80.5 -49t-86.5 -17q-62 0 -116.5 32t-86.5 97v-294q0 -8 -6 -14.5t-14 -6.5q-9 0 -15 6.5t-6 14.5v864q0 9 6 15.5t14 6.5q9 0 15 -6.5t6 -15.5v-289q29 61 84 92t119 31zM303 31q79 0 144.5 60t65.5 169
q0 108 -65.5 168.5t-144.5 60.5q-81 0 -143 -59.5t-62 -169.5q0 -107 62.5 -168t142.5 -61z" />
    <glyph glyph-name="ydieresis" unicode="&#xff;" horiz-adv-x="514" 
d="M149 645q-11 0 -19 8t-8 19t8 19t19 8q10 0 18 -8t8 -19t-7.5 -19t-18.5 -8zM371 645q-11 0 -18.5 8t-7.5 19t8 19t18 8q11 0 19 -8t8 -19t-8 -19t-19 -8zM464 523q8 0 14 -6t6 -14q0 -2 -2 -8l-286 -678q-4 -12 -19 -12q-18 0 -18 20q0 1 0.5 4t0.5 4l76 181l-205 481
q0 2 -0.5 4.5t-0.5 3.5q0 8 6 14t14 6q14 0 19 -12l188 -447l188 447q4 12 19 12z" />
    <glyph glyph-name="Amacron" unicode="&#x100;" horiz-adv-x="687" 
d="M180 843q-8 0 -13.5 5.5t-5.5 13.5q0 7 5.5 12.5t13.5 5.5h327q8 0 14 -5.5t6 -12.5q0 -8 -6 -13.5t-14 -5.5h-327zM651 25q1 -2 1 -8q0 -8 -6 -14.5t-14 -6.5q-11 0 -20 13l-88 204h-360l-89 -204q-7 -13 -19 -13q-9 0 -15 6.5t-6 14.5q0 2 0.5 4.5t0.5 3.5l287 662
q7 16 21 16q13 0 20 -16zM179 249h329l-164 379z" />
    <glyph glyph-name="amacron" unicode="&#x101;" 
d="M464 700q8 0 14 -5.5t6 -12.5q0 -8 -6 -13.5t-14 -5.5h-327q-8 0 -13.5 5.5t-5.5 13.5q0 7 5.5 12.5t13.5 5.5h327zM290 526q64 0 119 -31t84 -92v98q0 9 6 15.5t15 6.5q20 0 20 -22v-485q0 -8 -6 -15t-14 -7q-9 0 -15 6.5t-6 15.5v106q-32 -65 -86.5 -97t-116.5 -32
q-43 0 -86.5 17t-80.5 49t-60 84.5t-23 116.5q0 124 77.5 195t172.5 71zM291 31q80 0 142.5 61t62.5 168q0 110 -62 169.5t-143 59.5q-79 0 -144.5 -60.5t-65.5 -168.5q0 -109 65.5 -169t144.5 -60z" />
    <glyph glyph-name="Abreve" unicode="&#x102;" horiz-adv-x="687" 
d="M344 811q-57 0 -94 35t-45 85q-1 6 4 12.5t12 6.5q15 0 19 -14q8 -38 35 -62t69 -24q43 0 69.5 24t35.5 62q2 14 19 14q7 0 12 -6.5t4 -12.5q-8 -50 -45 -85t-95 -35zM651 25q1 -2 1 -8q0 -8 -6 -14.5t-14 -6.5q-11 0 -20 13l-88 204h-360l-89 -204q-7 -13 -19 -13
q-9 0 -15 6.5t-6 14.5q0 2 0.5 4.5t0.5 3.5l287 662q7 16 21 16q13 0 20 -16zM179 249h329l-164 379z" />
    <glyph glyph-name="abreve" unicode="&#x103;" 
d="M425 770q7 0 12 -6.5t4 -12.5q-8 -50 -45 -85t-95 -35q-57 0 -94 35t-45 85q-1 6 4 12.5t12 6.5q15 0 19 -14q8 -38 35 -62t69 -24q43 0 69.5 24t35.5 62q2 14 19 14zM290 526q64 0 119 -31t84 -92v98q0 9 6 15.5t15 6.5q20 0 20 -22v-485q0 -8 -6 -15t-14 -7
q-9 0 -15 6.5t-6 15.5v106q-32 -65 -86.5 -97t-116.5 -32q-43 0 -86.5 17t-80.5 49t-60 84.5t-23 116.5q0 124 77.5 195t172.5 71zM291 31q80 0 142.5 61t62.5 168q0 110 -62 169.5t-143 59.5q-79 0 -144.5 -60.5t-65.5 -168.5q0 -109 65.5 -169t144.5 -60z" />
    <glyph glyph-name="Aogonek" unicode="&#x104;" horiz-adv-x="687" 
d="M652 19q3 -21 -19 -40.5t-51 -32.5t-53 -34t-24 -44q0 -40 64 -40q27 0 27 -17t-43 -17q-36 0 -62.5 18.5t-26.5 56.5q0 28 23 53t50.5 39.5t49.5 30t21 26.5l-84 195h-360l-89 -204q-7 -13 -19 -13q-9 0 -15 6.5t-6 14.5q0 2 0.5 4.5t0.5 3.5l287 662q7 16 21 16
q13 0 20 -16l287 -662q1 -2 1 -6zM179 249h329l-164 379z" />
    <glyph glyph-name="aogonek" unicode="&#x105;" 
d="M514 523q20 0 20 -22v-485v-4q-3 -25 -26 -45t-49.5 -31.5t-48 -30t-21.5 -41.5q0 -40 64 -40q28 0 28 -15q0 -16 -42 -16q-35 0 -62 17.5t-27 53.5q0 30 22.5 52.5t49 34t49 29t22.5 39.5v103q-32 -65 -86.5 -97t-116.5 -32q-43 0 -86.5 17t-80.5 49t-60 84.5t-23 116.5
q0 124 77.5 195t172.5 71q64 0 119 -31t84 -92v98q0 9 6 15.5t15 6.5zM291 31q80 0 142.5 61t62.5 168q0 110 -62 169.5t-143 59.5q-79 0 -144.5 -60.5t-65.5 -168.5q0 -109 65.5 -169t144.5 -60z" />
    <glyph glyph-name="Cacute" unicode="&#x106;" horiz-adv-x="644" 
d="M478 950q10 0 17.5 -7t7.5 -18q0 -3 -5 -13l-112 -161q-3 -6 -11 -6q-6 0 -8.5 5.5t0.5 10.5l90 176q9 13 21 13zM590 103q8 0 13.5 -5.5t5.5 -13.5q0 -10 -13 -22q-85 -69 -200 -69q-87 0 -165.5 44.5t-129.5 127.5t-51 185q0 154 105.5 255.5t245.5 101.5
q107 0 194 -67q14 -12 14 -24q0 -8 -5.5 -13.5t-13.5 -5.5t-31 18q-62 53 -161 53q-119 0 -212.5 -91t-93.5 -227q0 -90 45.5 -164.5t114.5 -114t144 -39.5q100 0 164 53q21 18 30 18z" />
    <glyph glyph-name="cacute" unicode="&#x107;" horiz-adv-x="537" 
d="M378 770q10 0 17.5 -7t7.5 -18q0 -3 -5 -13l-112 -161q-3 -6 -11 -6q-6 0 -8.5 5.5t0.5 10.5l90 176q9 13 21 13zM477 130q20 0 20 -19q0 -6 -5 -15q-33 -49 -85.5 -75t-111.5 -26q-45 0 -89.5 17t-82 48.5t-60.5 83.5t-23 116q0 124 78.5 195t176.5 71q60 0 112 -25.5
t85 -74.5q5 -10 5 -16q0 -19 -20 -19q-12 0 -22 17q-25 39 -68 60t-90 21q-82 0 -149 -60t-67 -169q0 -108 67 -168t149 -60q47 0 90 21t68 60q10 17 22 17z" />
    <glyph glyph-name="Cdotaccent" unicode="&#x10a;" horiz-adv-x="644" 
d="M395 887q-11 0 -17.5 6.5t-6.5 17.5q0 10 6.5 16t17.5 6q9 0 15.5 -6t6.5 -16t-6.5 -17t-15.5 -7zM590 103q8 0 13.5 -5.5t5.5 -13.5q0 -10 -13 -22q-85 -69 -200 -69q-87 0 -165.5 44.5t-129.5 127.5t-51 185q0 154 105.5 255.5t245.5 101.5q107 0 194 -67
q14 -12 14 -24q0 -8 -5.5 -13.5t-13.5 -5.5t-31 18q-62 53 -161 53q-119 0 -212.5 -91t-93.5 -227q0 -90 45.5 -164.5t114.5 -114t144 -39.5q100 0 164 53q21 18 30 18z" />
    <glyph glyph-name="cdotaccent" unicode="&#x10b;" horiz-adv-x="537" 
d="M295 707q-11 0 -17.5 6.5t-6.5 17.5q0 10 6.5 16t17.5 6q9 0 15.5 -6t6.5 -16t-6.5 -17t-15.5 -7zM477 130q20 0 20 -19q0 -6 -5 -15q-33 -49 -85.5 -75t-111.5 -26q-45 0 -89.5 17t-82 48.5t-60.5 83.5t-23 116q0 124 78.5 195t176.5 71q60 0 112 -25.5t85 -74.5
q5 -10 5 -16q0 -19 -20 -19q-12 0 -22 17q-25 39 -68 60t-90 21q-82 0 -149 -60t-67 -169q0 -108 67 -168t149 -60q47 0 90 21t68 60q10 17 22 17z" />
    <glyph glyph-name="Ccaron" unicode="&#x10c;" horiz-adv-x="644" 
d="M397 807h-4q-14 0 -23 12l-104 137q-6 9 -2.5 16.5t12.5 7.5t17 -9l102 -126l102 126q8 9 17 9t12 -7.5t-3 -16.5l-103 -137q-10 -12 -23 -12zM590 103q8 0 13.5 -5.5t5.5 -13.5q0 -10 -13 -22q-85 -69 -200 -69q-87 0 -165.5 44.5t-129.5 127.5t-51 185
q0 154 105.5 255.5t245.5 101.5q107 0 194 -67q14 -12 14 -24q0 -8 -5.5 -13.5t-13.5 -5.5t-31 18q-62 53 -161 53q-119 0 -212.5 -91t-93.5 -227q0 -90 45.5 -164.5t114.5 -114t144 -39.5q100 0 164 53q21 18 30 18z" />
    <glyph glyph-name="ccaron" unicode="&#x10d;" horiz-adv-x="537" 
d="M297 627h-4q-14 0 -23 12l-104 137q-6 9 -2.5 16.5t12.5 7.5t17 -9l102 -126l102 126q8 9 17 9t12 -7.5t-3 -16.5l-103 -137q-10 -12 -23 -12zM477 130q20 0 20 -19q0 -6 -5 -15q-33 -49 -85.5 -75t-111.5 -26q-45 0 -89.5 17t-82 48.5t-60.5 83.5t-23 116
q0 124 78.5 195t176.5 71q60 0 112 -25.5t85 -74.5q5 -10 5 -16q0 -19 -20 -19q-12 0 -22 17q-25 39 -68 60t-90 21q-82 0 -149 -60t-67 -169q0 -108 67 -168t149 -60q47 0 90 21t68 60q10 17 22 17z" />
    <glyph glyph-name="Dcaron" unicode="&#x10e;" horiz-adv-x="619" 
d="M319 807h-4q-14 0 -23 12l-104 137q-6 9 -2.5 16.5t12.5 7.5t17 -9l102 -126l102 126q8 9 17 9t12 -7.5t-3 -16.5l-103 -137q-10 -12 -23 -12zM234 700q162 0 253.5 -93.5t91.5 -259.5q0 -162 -91.5 -254.5t-253.5 -92.5h-152q-22 0 -22 22v656q0 22 22 22h152zM234 37
q145 0 224.5 80.5t79.5 229.5q0 153 -79.5 234.5t-224.5 81.5h-132v-626h132z" />
    <glyph glyph-name="dcaron" unicode="&#x10f;" horiz-adv-x="710" 
d="M514 714q8 0 14 -6.5t6 -15.5v-676q0 -8 -6 -15t-14 -7q-9 0 -15 6.5t-6 15.5v106q-32 -65 -86.5 -97t-116.5 -32q-43 0 -86.5 17t-80.5 49t-60 84.5t-23 116.5q0 124 77.5 195t172.5 71q64 0 119 -31t84 -92v289q0 9 6 15.5t15 6.5zM680 703q10 0 17.5 -7.5t7.5 -17.5
q0 -3 -5 -13l-112 -161q-3 -6 -11 -6q-6 0 -8.5 5.5t0.5 10.5l90 176q9 13 21 13zM291 31q80 0 142.5 61t62.5 168q0 110 -62 169.5t-143 59.5q-79 0 -144.5 -60.5t-65.5 -168.5q0 -109 65.5 -169t144.5 -60z" />
    <glyph glyph-name="Dcroat" unicode="&#x110;" horiz-adv-x="677" 
d="M292 700q162 0 253.5 -93.5t91.5 -259.5q0 -162 -91.5 -254.5t-253.5 -92.5h-152q-22 0 -22 22v313h-42q-16 0 -16 16t16 16h42v311q0 22 22 22h152zM292 37q145 0 224.5 80.5t79.5 229.5q0 153 -79.5 234.5t-224.5 81.5h-132v-296h195q16 0 16 -16t-16 -16h-195v-298
h132z" />
    <glyph glyph-name="dcroat" unicode="&#x111;" horiz-adv-x="602" 
d="M577 636q8 0 14 -5t6 -12q0 -8 -6 -13.5t-14 -5.5h-43v-584q0 -8 -6 -15t-14 -7q-9 0 -15 6.5t-6 15.5v106q-32 -65 -86.5 -97t-116.5 -32q-43 0 -86.5 17t-80.5 49t-60 84.5t-23 116.5q0 124 77.5 195t172.5 71q64 0 119 -31t84 -92v197h-245q-8 0 -13.5 5.5t-5.5 13.5
q0 7 5.5 12t13.5 5h245v56q0 9 6 15.5t15 6.5q8 0 14 -6.5t6 -15.5v-56h43zM291 31q80 0 142.5 61t62.5 168q0 110 -62 169.5t-143 59.5q-79 0 -144.5 -60.5t-65.5 -168.5q0 -109 65.5 -169t144.5 -60z" />
    <glyph glyph-name="Emacron" unicode="&#x112;" horiz-adv-x="526" 
d="M443 880q8 0 14 -5.5t6 -12.5q0 -8 -6 -13.5t-14 -5.5h-327q-8 0 -13.5 5.5t-5.5 13.5q0 7 5.5 12.5t13.5 5.5h327zM102 38h370q7 0 13 -5.5t6 -13.5t-6 -13.5t-13 -5.5h-390q-22 0 -22 22v656q0 22 22 22h380q7 0 13 -5.5t6 -13.5t-6 -13.5t-13 -5.5h-360v-292h265
q7 0 12.5 -5t5.5 -13t-5.5 -13t-12.5 -5h-265v-296z" />
    <glyph glyph-name="emacron" unicode="&#x113;" horiz-adv-x="580" 
d="M446 700q8 0 14 -5.5t6 -12.5q0 -8 -6 -13.5t-14 -5.5h-327q-8 0 -13.5 5.5t-5.5 13.5q0 7 5.5 12.5t13.5 5.5h327zM291 526q44 0 87.5 -17t80 -48t59 -81.5t22.5 -110.5q0 -12 -7.5 -19.5t-20.5 -7.5h-430q2 -52 22 -93.5t51 -66t67.5 -37.5t74.5 -13q90 0 145 52
q14 15 22 15q19 0 19 -18q0 -9 -13 -23q-64 -63 -173 -63q-102 0 -179.5 69.5t-77.5 195.5q0 64 23 116t60 84t80.5 49t87.5 17zM291 489q-76 0 -139.5 -55t-69.5 -153h419q-6 98 -70 153t-140 55z" />
    <glyph glyph-name="Edotaccent" unicode="&#x116;" horiz-adv-x="526" 
d="M280 887q-10 0 -17 6.5t-7 17.5q0 10 6.5 16t17.5 6q9 0 15.5 -6t6.5 -16t-6.5 -17t-15.5 -7zM102 38h370q7 0 13 -5.5t6 -13.5t-6 -13.5t-13 -5.5h-390q-22 0 -22 22v656q0 22 22 22h380q7 0 13 -5.5t6 -13.5t-6 -13.5t-13 -5.5h-360v-292h265q7 0 12.5 -5t5.5 -13
t-5.5 -13t-12.5 -5h-265v-296z" />
    <glyph glyph-name="edotaccent" unicode="&#x117;" horiz-adv-x="580" 
d="M283 707q-11 0 -17.5 6.5t-6.5 17.5q0 10 6.5 16t17.5 6q9 0 15.5 -6t6.5 -16t-6.5 -17t-15.5 -7zM291 526q44 0 87.5 -17t80 -48t59 -81.5t22.5 -110.5q0 -12 -7.5 -19.5t-20.5 -7.5h-430q2 -52 22 -93.5t51 -66t67.5 -37.5t74.5 -13q90 0 145 52q14 15 22 15
q19 0 19 -18q0 -9 -13 -23q-64 -63 -173 -63q-102 0 -179.5 69.5t-77.5 195.5q0 64 23 116t60 84t80.5 49t87.5 17zM291 489q-76 0 -139.5 -55t-69.5 -153h419q-6 98 -70 153t-140 55z" />
    <glyph glyph-name="Eogonek" unicode="&#x118;" horiz-adv-x="536" 
d="M472 38q7 0 13 -5.5t6 -13.5t-6 -13.5t-13 -5.5q-58 -13 -102 -43.5t-44 -77.5q0 -55 64 -55q29 0 29 -15q0 -16 -42 -16q-35 0 -62 21.5t-27 66.5q0 26 15.5 50t35.5 38t36.5 22.5t21.5 8.5h-315q-22 0 -22 22v656q0 22 22 22h380q7 0 13 -5.5t6 -13.5t-6 -13.5
t-13 -5.5h-360v-292h265q7 0 12.5 -5t5.5 -13t-5.5 -13t-12.5 -5h-265v-296h370z" />
    <glyph glyph-name="eogonek" unicode="&#x119;" horiz-adv-x="575" 
d="M291 526q44 0 87.5 -17t80 -48t59 -81.5t22.5 -110.5q0 -12 -7.5 -19.5t-20.5 -7.5h-430q2 -52 22 -93.5t51 -66t67.5 -37.5t74.5 -13q90 0 145 52q14 15 22 15q19 0 19 -18q0 -9 -13 -23q-46 -45 -120 -58q-58 -14 -101.5 -44t-43.5 -77q0 -55 64 -55q29 0 29 -15
q0 -16 -42 -16q-35 0 -62 21.5t-27 66.5q0 41 33 72t65 44q-93 11 -159 79t-66 184q0 64 23 116t60 84t80.5 49t87.5 17zM82 281h419q-6 98 -70 153t-140 55t-139.5 -55t-69.5 -153z" />
    <glyph glyph-name="Ecaron" unicode="&#x11a;" horiz-adv-x="526" 
d="M282 807h-4q-14 0 -23 12l-104 137q-6 9 -2.5 16.5t12.5 7.5t17 -9l102 -126l102 126q8 9 17 9t12 -7.5t-3 -16.5l-103 -137q-10 -12 -23 -12zM102 38h370q7 0 13 -5.5t6 -13.5t-6 -13.5t-13 -5.5h-390q-22 0 -22 22v656q0 22 22 22h380q7 0 13 -5.5t6 -13.5t-6 -13.5
t-13 -5.5h-360v-292h265q7 0 12.5 -5t5.5 -13t-5.5 -13t-12.5 -5h-265v-296z" />
    <glyph glyph-name="ecaron" unicode="&#x11b;" horiz-adv-x="580" 
d="M285 627h-4q-14 0 -23 12l-104 137q-6 9 -2.5 16.5t12.5 7.5t17 -9l102 -126l102 126q8 9 17 9t12 -7.5t-3 -16.5l-103 -137q-10 -12 -23 -12zM291 526q44 0 87.5 -17t80 -48t59 -81.5t22.5 -110.5q0 -12 -7.5 -19.5t-20.5 -7.5h-430q2 -52 22 -93.5t51 -66t67.5 -37.5
t74.5 -13q90 0 145 52q14 15 22 15q19 0 19 -18q0 -9 -13 -23q-64 -63 -173 -63q-102 0 -179.5 69.5t-77.5 195.5q0 64 23 116t60 84t80.5 49t87.5 17zM291 489q-76 0 -139.5 -55t-69.5 -153h419q-6 98 -70 153t-140 55z" />
    <glyph glyph-name="Gbreve" unicode="&#x11e;" horiz-adv-x="763" 
d="M521 950q7 0 12 -6.5t4 -12.5q-8 -50 -45 -85t-95 -35q-57 0 -94 35t-45 85q-1 6 4 12.5t12 6.5q15 0 19 -14q8 -38 35 -62t69 -24q43 0 69.5 24t35.5 62q2 14 19 14zM700 341q20 0 18 -22q-6 -149 -94 -237.5t-223 -88.5q-138 0 -244.5 102t-106.5 255
q0 154 105.5 255.5t245.5 101.5q107 0 194 -67q14 -12 14 -24q0 -8 -5.5 -13.5t-13.5 -5.5t-31 18q-62 53 -161 53q-119 0 -212.5 -91t-93.5 -227t94.5 -227t214.5 -91q115 0 191.5 73.5t85.5 196.5h-214q-9 0 -14.5 6t-5.5 13q0 8 5.5 14t14.5 6h236z" />
    <glyph glyph-name="gbreve" unicode="&#x11f;" horiz-adv-x="595" 
d="M314 631q-57 0 -94 35t-45 85q-1 6 4 12.5t12 6.5q15 0 19 -14q8 -38 35 -62t69 -24q43 0 69.5 24t35.5 62q2 14 19 14q7 0 12 -6.5t4 -12.5q-8 -50 -45 -85t-95 -35zM534 122h1v-112q0 -59 -22.5 -103t-59.5 -67t-77 -34t-83 -11q-89 0 -144 37q-10 6 -10 17
q0 7 5.5 12.5t12.5 5.5q4 0 19 -6q43 -29 119 -29q85 0 142 44t57 134q-1 2 -1 6v106q-32 -65 -86.5 -97t-116.5 -32q-43 0 -86.5 17t-80.5 49t-60 84.5t-23 116.5q0 124 77.5 195t172.5 71q64 0 119 -31t84 -92v98q0 9 6 15.5t15 6.5q20 0 20 -22v-379zM291 31
q80 0 142.5 61t62.5 168q0 110 -62 169.5t-143 59.5q-79 0 -144.5 -60.5t-65.5 -168.5q0 -109 65.5 -169t144.5 -60z" />
    <glyph glyph-name="Gdotaccent" unicode="&#x120;" horiz-adv-x="763" 
d="M397 887q-11 0 -17.5 6.5t-6.5 17.5q0 10 6.5 16t17.5 6q9 0 15.5 -6t6.5 -16t-6.5 -17t-15.5 -7zM700 341q20 0 18 -22q-6 -149 -94 -237.5t-223 -88.5q-138 0 -244.5 102t-106.5 255q0 154 105.5 255.5t245.5 101.5q107 0 194 -67q14 -12 14 -24q0 -8 -5.5 -13.5
t-13.5 -5.5t-31 18q-62 53 -161 53q-119 0 -212.5 -91t-93.5 -227t94.5 -227t214.5 -91q115 0 191.5 73.5t85.5 196.5h-214q-9 0 -14.5 6t-5.5 13q0 8 5.5 14t14.5 6h236z" />
    <glyph glyph-name="gdotaccent" unicode="&#x121;" horiz-adv-x="595" 
d="M314 707q-10 0 -17 6.5t-7 17.5q0 10 6.5 16t17.5 6q9 0 15.5 -6t6.5 -16t-6.5 -17t-15.5 -7zM534 122h1v-112q0 -59 -22.5 -103t-59.5 -67t-77 -34t-83 -11q-89 0 -144 37q-10 6 -10 17q0 7 5.5 12.5t12.5 5.5q4 0 19 -6q43 -29 119 -29q85 0 142 44t57 134q-1 2 -1 6
v106q-32 -65 -86.5 -97t-116.5 -32q-43 0 -86.5 17t-80.5 49t-60 84.5t-23 116.5q0 124 77.5 195t172.5 71q64 0 119 -31t84 -92v98q0 9 6 15.5t15 6.5q20 0 20 -22v-379zM291 31q80 0 142.5 61t62.5 168q0 110 -62 169.5t-143 59.5q-79 0 -144.5 -60.5t-65.5 -168.5
q0 -109 65.5 -169t144.5 -60z" />
    <glyph glyph-name="Gcommaaccent" unicode="&#x122;" horiz-adv-x="763" 
d="M700 341q20 0 18 -22q-6 -149 -94 -237.5t-223 -88.5q-138 0 -244.5 102t-106.5 255q0 154 105.5 255.5t245.5 101.5q107 0 194 -67q14 -12 14 -24q0 -8 -5.5 -13.5t-13.5 -5.5t-31 18q-62 53 -161 53q-119 0 -212.5 -91t-93.5 -227t94.5 -227t214.5 -91
q115 0 191.5 73.5t85.5 196.5h-214q-9 0 -14.5 6t-5.5 13q0 8 5.5 14t14.5 6h236zM298 -216q-8 0 -11.5 4t-0.5 11l61 163q5 15 19 15h25q14 0 8 -13l-78 -169q-5 -11 -17 -11h-6z" />
    <glyph glyph-name="gcommaaccent" unicode="&#x123;" horiz-adv-x="595" 
d="M278 541q-14 0 -8 13l78 169q5 11 17 11h6q8 0 11.5 -4t0.5 -11l-61 -163q-5 -15 -19 -15h-25zM534 122h1v-112q0 -59 -22.5 -103t-59.5 -67t-77 -34t-83 -11q-89 0 -144 37q-10 6 -10 17q0 7 5.5 12.5t12.5 5.5q4 0 19 -6q43 -29 119 -29q85 0 142 44t57 134q-1 2 -1 6
v106q-32 -65 -86.5 -97t-116.5 -32q-43 0 -86.5 17t-80.5 49t-60 84.5t-23 116.5q0 124 77.5 195t172.5 71q64 0 119 -31t84 -92v98q0 9 6 15.5t15 6.5q20 0 20 -22v-379zM291 31q80 0 142.5 61t62.5 168q0 110 -62 169.5t-143 59.5q-79 0 -144.5 -60.5t-65.5 -168.5
q0 -109 65.5 -169t144.5 -60z" />
    <glyph glyph-name="Hbar" unicode="&#x126;" horiz-adv-x="621" 
d="M541 703q8 0 14 -6.5t6 -14.5v-664q0 -8 -6 -14.5t-14 -6.5q-9 0 -15.5 6.5t-6.5 14.5v303h-417v-303q0 -8 -6 -14.5t-15 -6.5t-15 6.5t-6 14.5v664q0 8 6 14.5t15 6.5t15 -6.5t6 -14.5v-168h417v168q0 8 6.5 14.5t15.5 6.5zM102 359h417v123h-417v-123z" />
    <glyph glyph-name="hbar" unicode="&#x127;" horiz-adv-x="593" 
d="M333 525q36 0 69.5 -10.5t64 -33.5t48.5 -65.5t18 -100.5v-298q0 -9 -6 -15.5t-15 -6.5q-8 0 -14 7t-6 15v298q0 88 -47 129.5t-115 41.5q-79 0 -132 -51t-65 -119v-299q0 -8 -6 -15t-14 -7q-9 0 -15 6.5t-6 15.5v570h-46q-16 0 -16 16t16 16h46v75q0 8 6 14t15 6
q8 0 14 -6t6 -14v-75h99q16 0 16 -16t-16 -16h-99v-192q3 14 17 34t37 42.5t62 38t84 15.5z" />
    <glyph glyph-name="Imacron" unicode="&#x12a;" horiz-adv-x="161" 
d="M244 880q8 0 14 -5.5t6 -12.5q0 -8 -6 -13.5t-14 -5.5h-327q-8 0 -13.5 5.5t-5.5 13.5q0 7 5.5 12.5t13.5 5.5h327zM81 703q9 0 14.5 -6t5.5 -15v-663q0 -9 -5.5 -15.5t-14.5 -6.5t-15 6.5t-6 15.5v663q0 8 6 14.5t15 6.5z" />
    <glyph glyph-name="imacron" unicode="&#x12b;" horiz-adv-x="191" 
d="M259 700q8 0 14 -5.5t6 -12.5q0 -8 -6 -13.5t-14 -5.5h-327q-8 0 -13.5 5.5t-5.5 13.5q0 7 5.5 12.5t13.5 5.5h327zM96 523q8 0 14 -6t6 -14v-484q0 -8 -6 -15t-14 -7q-9 0 -15 7t-6 15v484q0 8 6 14t15 6z" />
    <glyph glyph-name="Iogonek" unicode="&#x12e;" horiz-adv-x="162" 
d="M82 703q9 0 14.5 -6t5.5 -15v-663q0 -27 -23 -48.5t-50.5 -33t-50.5 -31t-23 -42.5q0 -40 65 -40q28 0 28 -15q0 -16 -42 -16q-35 0 -62 17.5t-27 53.5q0 30 22.5 52.5t49.5 34t49.5 29t22.5 39.5v663q0 8 6 14.5t15 6.5z" />
    <glyph glyph-name="iogonek" unicode="&#x12f;" horiz-adv-x="169" 
d="M87 707q-11 0 -17.5 6.5t-6.5 17.5q0 10 6.5 16t17.5 6q9 0 15.5 -6t6.5 -16t-6.5 -17t-15.5 -7zM87 523q8 0 14 -6t6 -14v-484q0 -27 -23 -48t-50 -33t-50 -31.5t-23 -42.5q0 -40 64 -40q29 0 29 -14q0 -17 -42 -17q-35 0 -62 17.5t-27 53.5q0 30 22.5 52.5t49 34t49 29
t22.5 39.5v484q0 8 6 14t15 6z" />
    <glyph glyph-name="Idotaccent" unicode="&#x130;" horiz-adv-x="161" 
d="M81 887q-11 0 -17.5 6.5t-6.5 17.5q0 10 6.5 16t17.5 6q9 0 15.5 -6t6.5 -16t-6.5 -17t-15.5 -7zM81 703q9 0 14.5 -6t5.5 -15v-663q0 -9 -5.5 -15.5t-14.5 -6.5t-15 6.5t-6 15.5v663q0 8 6 14.5t15 6.5z" />
    <glyph glyph-name="dotlessi" unicode="&#x131;" horiz-adv-x="191" 
d="M96 523q8 0 14 -6t6 -14v-484q0 -8 -6 -15t-14 -7q-9 0 -15 7t-6 15v484q0 8 6 14t15 6z" />
    <glyph glyph-name="IJ" unicode="&#x132;" horiz-adv-x="656" 
d="M81 703q9 0 14.5 -6t5.5 -15v-663q0 -9 -5.5 -15.5t-14.5 -6.5t-15 6.5t-6 15.5v663q0 8 6 14.5t15 6.5zM576 703q8 0 14 -6t6 -14v-416q0 -142 -60.5 -208t-161.5 -66q-106 0 -163 59q-15 16 -15 27q0 20 18 20q13 0 19 -8q56 -58 144 -58q177 0 177 235v415q0 8 6.5 14
t15.5 6z" />
    <glyph glyph-name="ij" unicode="&#x133;" horiz-adv-x="359" 
d="M82 680q-9 0 -15.5 6.5t-6.5 15.5t6.5 15.5t15.5 6.5q8 0 14.5 -6.5t6.5 -15.5t-6.5 -15.5t-14.5 -6.5zM278 680q-9 0 -15.5 6.5t-6.5 15.5t6.5 15.5t15.5 6.5q8 0 14.5 -6.5t6.5 -15.5t-6.5 -15.5t-14.5 -6.5zM82 523q8 0 14 -6.5t6 -14.5v-486q0 -9 -6 -15.5t-14 -6.5
q-9 0 -15 6.5t-6 15.5v486q0 8 6 14.5t15 6.5zM278 523q8 0 14 -6t6 -14v-572q0 -136 -109 -136q-42 0 -72 19q-14 10 -14 21q0 9 9 14t18 0q36 -18 59 -18q68 0 68 96v576q0 8 6 14t15 6z" />
    <glyph glyph-name="Kcommaaccent" unicode="&#x136;" horiz-adv-x="619" 
d="M583 32q6 -8 6 -14q0 -8 -6 -14.5t-14 -6.5q-10 0 -15 7l-316 333l-136 -139v-179q0 -9 -6.5 -15.5t-15.5 -6.5q-8 0 -14 7t-6 16v661q0 9 6 15.5t14 6.5q9 0 15.5 -6.5t6.5 -15.5v-428l432 443q9 7 15 7q8 0 13.5 -6t5.5 -14q0 -9 -5 -15l-299 -305zM314 -23q14 0 8 -13
l-78 -169q-5 -11 -17 -11h-6q-8 0 -11.5 4t-0.5 11l61 163q5 15 19 15h25z" />
    <glyph glyph-name="kcommaaccent" unicode="&#x137;" horiz-adv-x="503" 
d="M471 29q7 -7 7 -16q0 -18 -18 -18q-10 0 -15 6l-248 251l-96 -99v-136q0 -8 -6 -15t-14 -7q-9 0 -15 6.5t-6 15.5v677q0 8 6 14t15 6q8 0 14 -6t6 -14v-488l297 311q4 6 14 6q8 0 14 -5.5t6 -13.5q0 -7 -6 -13l-203 -211zM253 -23q14 0 8 -13l-78 -169q-5 -11 -17 -11h-6
q-8 0 -11.5 4t-0.5 11l61 163q5 15 19 15h25z" />
    <glyph glyph-name="Lacute" unicode="&#x139;" horiz-adv-x="495" 
d="M201 948q11 0 18 -7t7 -18q0 -3 -5 -13l-112 -161q-3 -6 -11 -6q-6 0 -8.5 5.5t0.5 10.5l90 176q9 13 21 13zM102 37h339q8 0 13.5 -5.5t5.5 -12.5q0 -8 -5.5 -13.5t-13.5 -5.5h-359q-22 0 -22 22v660q0 8 6 14.5t15 6.5t15 -6.5t6 -14.5v-645z" />
    <glyph glyph-name="lacute" unicode="&#x13a;" horiz-adv-x="161" 
d="M163 950q11 0 18 -7t7 -18q0 -3 -5 -13l-112 -161q-3 -6 -11 -6q-6 0 -8.5 5.5t0.5 10.5l90 176q9 13 21 13zM101 17q0 -8 -6 -15t-14 -7q-9 0 -15 6.5t-6 15.5v677q0 8 6 14t15 6q8 0 14 -6t6 -14v-677z" />
    <glyph glyph-name="Lcommaaccent" unicode="&#x13b;" horiz-adv-x="495" 
d="M102 37h339q8 0 13.5 -5.5t5.5 -12.5q0 -8 -5.5 -13.5t-13.5 -5.5h-359q-22 0 -22 22v660q0 8 6 14.5t15 6.5t15 -6.5t6 -14.5v-645zM181 -216q-8 0 -11.5 4t-0.5 11l61 163q5 15 19 15h25q14 0 8 -13l-78 -169q-5 -11 -17 -11h-6z" />
    <glyph glyph-name="lcommaaccent" unicode="&#x13c;" horiz-adv-x="161" 
d="M101 17q0 -8 -6 -15t-14 -7q-9 0 -15 6.5t-6 15.5v677q0 8 6 14t15 6q8 0 14 -6t6 -14v-677zM-18 -216q-8 0 -11.5 4t-0.5 11l61 163q5 15 19 15h25q14 0 8 -13l-78 -169q-5 -11 -17 -11h-6z" />
    <glyph glyph-name="Lcaron" unicode="&#x13d;" horiz-adv-x="495" 
d="M209 539q-8 0 -11.5 4t-0.5 11l61 163q5 15 19 15h25q14 0 8 -13l-78 -169q-5 -11 -17 -11h-6zM102 37h339q8 0 13.5 -5.5t5.5 -12.5q0 -8 -5.5 -13.5t-13.5 -5.5h-359q-22 0 -22 22v660q0 8 6 14.5t15 6.5t15 -6.5t6 -14.5v-645z" />
    <glyph glyph-name="lcaron" unicode="&#x13e;" horiz-adv-x="332" 
d="M101 17q0 -8 -6 -15t-14 -7q-9 0 -15 6.5t-6 15.5v677q0 8 6 14t15 6q8 0 14 -6t6 -14v-677zM198 507q-8 0 -11.5 4t-0.5 11l61 163q5 15 19 15h25q14 0 8 -13l-78 -169q-5 -11 -17 -11h-6z" />
    <glyph glyph-name="Ldot" unicode="&#x13f;" horiz-adv-x="495" 
d="M102 37h339q8 0 13.5 -5.5t5.5 -12.5q0 -8 -5.5 -13.5t-13.5 -5.5h-359q-22 0 -22 22v660q0 8 6 14.5t15 6.5t15 -6.5t6 -14.5v-645zM297 341q-11 0 -19.5 8.5t-8.5 20.5q0 11 8.5 19.5t19.5 8.5q12 0 20.5 -8.5t8.5 -19.5q0 -12 -8.5 -20.5t-20.5 -8.5z" />
    <glyph glyph-name="ldot" unicode="&#x140;" horiz-adv-x="302" 
d="M101 17q0 -8 -6 -15t-14 -7q-9 0 -15 6.5t-6 15.5v677q0 8 6 14t15 6q8 0 14 -6t6 -14v-677zM214 339q-11 0 -19.5 8.5t-8.5 20.5q0 11 8.5 19.5t19.5 8.5q12 0 20.5 -8.5t8.5 -19.5q0 -12 -8.5 -20.5t-20.5 -8.5z" />
    <glyph glyph-name="Lslash" unicode="&#x141;" horiz-adv-x="557" 
d="M503 37q8 0 13.5 -5.5t5.5 -12.5q0 -8 -5.5 -13.5t-13.5 -5.5h-359q-22 0 -22 22v226l-27 -29q-6 -6 -16 -6q-8 0 -13.5 6t-5.5 14q0 7 5 14l57 60v375q0 8 6 14.5t15 6.5t15 -6.5t6 -14.5v-331l124 130q4 6 14 6q8 0 13.5 -6t5.5 -14q0 -9 -5 -14l-152 -161v-255h339z
" />
    <glyph glyph-name="lslash" unicode="&#x142;" horiz-adv-x="304" 
d="M284 469q0 -8 -5 -15l-118 -124v-313q0 -8 -6 -15t-14 -7q-9 0 -15 6.5t-6 15.5v269l-65 -68q-5 -6 -16 -6q-7 0 -13 6t-6 13q0 9 5 14l95 100v349q0 8 6 14t15 6q8 0 14 -6t6 -14v-306l89 94q6 6 15 6q7 0 13 -6t6 -13z" />
    <glyph glyph-name="Nacute" unicode="&#x143;" horiz-adv-x="660" 
d="M414 950q10 0 17.5 -7t7.5 -18q0 -3 -5 -13l-112 -161q-3 -6 -11 -6q-6 0 -8.5 5.5t0.5 10.5l90 176q9 13 21 13zM580 703q8 0 14 -7t6 -15v-666q0 -8 -5.5 -13t-11.5 -5q-11 0 -22 13l-460 616v-606q0 -9 -6.5 -16t-14.5 -7t-14 7t-6 16v666q0 8 5.5 12.5t11.5 4.5
q11 0 22 -12l460 -617v607q0 8 6.5 15t14.5 7z" />
    <glyph glyph-name="nacute" unicode="&#x144;" horiz-adv-x="561" 
d="M363 770q11 0 18 -7t7 -18q0 -3 -5 -13l-112 -161q-3 -6 -11 -6q-6 0 -8.5 5.5t0.5 10.5l90 176q9 13 21 13zM301 525q36 0 69.5 -10.5t64 -33.5t48.5 -65.5t18 -100.5v-298q0 -9 -6 -15.5t-15 -6.5q-8 0 -14 7t-6 15v298q0 88 -47 129.5t-115 41.5q-79 0 -132 -51
t-65 -119v-299q0 -8 -6 -15t-14 -7q-9 0 -15 6.5t-6 15.5v485q0 8 6 14.5t15 6.5q8 0 14 -6.5t6 -14.5v-107q3 14 17 34t37 42.5t62 38t84 15.5z" />
    <glyph glyph-name="Ncommaaccent" unicode="&#x145;" horiz-adv-x="660" 
d="M580 703q8 0 14 -7t6 -15v-666q0 -8 -5.5 -13t-11.5 -5q-11 0 -22 13l-460 616v-606q0 -9 -6.5 -16t-14.5 -7t-14 7t-6 16v666q0 8 5.5 12.5t11.5 4.5q11 0 22 -12l460 -617v607q0 8 6.5 15t14.5 7zM232 -216q-8 0 -11.5 4t-0.5 11l61 163q5 15 19 15h25q14 0 8 -13
l-78 -169q-5 -11 -17 -11h-6z" />
    <glyph glyph-name="ncommaaccent" unicode="&#x146;" horiz-adv-x="561" 
d="M301 525q36 0 69.5 -10.5t64 -33.5t48.5 -65.5t18 -100.5v-298q0 -9 -6 -15.5t-15 -6.5q-8 0 -14 7t-6 15v298q0 88 -47 129.5t-115 41.5q-79 0 -132 -51t-65 -119v-299q0 -8 -6 -15t-14 -7q-9 0 -15 6.5t-6 15.5v485q0 8 6 14.5t15 6.5q8 0 14 -6.5t6 -14.5v-107
q3 14 17 34t37 42.5t62 38t84 15.5zM181 -216q-8 0 -11.5 4t-0.5 11l61 163q5 15 19 15h25q14 0 8 -13l-78 -169q-5 -11 -17 -11h-6z" />
    <glyph glyph-name="Ncaron" unicode="&#x147;" horiz-adv-x="660" 
d="M333 807h-4q-14 0 -23 12l-104 137q-6 9 -2.5 16.5t12.5 7.5t17 -9l102 -126l102 126q8 9 17 9t12 -7.5t-3 -16.5l-103 -137q-10 -12 -23 -12zM580 703q8 0 14 -7t6 -15v-666q0 -8 -5.5 -13t-11.5 -5q-11 0 -22 13l-460 616v-606q0 -9 -6.5 -16t-14.5 -7t-14 7t-6 16v666
q0 8 5.5 12.5t11.5 4.5q11 0 22 -12l460 -617v607q0 8 6.5 15t14.5 7z" />
    <glyph glyph-name="ncaron" unicode="&#x148;" horiz-adv-x="561" 
d="M282 627h-4q-14 0 -23 12l-104 137q-6 9 -2.5 16.5t12.5 7.5t17 -9l102 -126l102 126q8 9 17 9t12 -7.5t-3 -16.5l-103 -137q-10 -12 -23 -12zM301 525q36 0 69.5 -10.5t64 -33.5t48.5 -65.5t18 -100.5v-298q0 -9 -6 -15.5t-15 -6.5q-8 0 -14 7t-6 15v298q0 88 -47 129.5
t-115 41.5q-79 0 -132 -51t-65 -119v-299q0 -8 -6 -15t-14 -7q-9 0 -15 6.5t-6 15.5v485q0 8 6 14.5t15 6.5q8 0 14 -6.5t6 -14.5v-107q3 14 17 34t37 42.5t62 38t84 15.5z" />
    <glyph glyph-name="Eng" unicode="&#x14a;" horiz-adv-x="660" 
d="M580 703q8 0 14 -7t6 -15v-666v-2q-3 -137 -63 -200t-159 -63q-106 0 -163 59q-15 16 -15 27q0 20 18 20q13 0 19 -8q56 -58 144 -58q173 0 177 224l-457 612v-606q0 -9 -6.5 -16t-14.5 -7t-14 7t-6 16v666q0 8 5.5 12.5t11.5 4.5q11 0 22 -12l459 -616v365q0 4 1 6v235
q0 8 6.5 15t14.5 7z" />
    <glyph glyph-name="eng" unicode="&#x14b;" horiz-adv-x="562" 
d="M501 168q1 -2 1 -6v-229q0 -75 -27.5 -106.5t-78.5 -31.5q-37 0 -81 21q-8 6 -8 15q0 8 8.5 12.5t16.5 1.5q38 -15 65 -15q64 0 64 99v82q-1 2 -1 6v298q0 88 -47 129.5t-115 41.5q-79 0 -132 -51t-65 -119v-299q0 -8 -6 -15t-14 -7q-9 0 -15 6.5t-6 15.5v485q0 8 6 14.5
t15 6.5q8 0 14 -6.5t6 -14.5v-107q3 14 17 34t37 42.5t62 38t84 15.5q36 0 69.5 -10.5t64 -33.5t48.5 -65.5t18 -100.5v-147z" />
    <glyph glyph-name="Omacron" unicode="&#x14c;" horiz-adv-x="794" 
d="M560 880q8 0 14 -5.5t6 -12.5q0 -8 -6 -13.5t-14 -5.5h-327q-8 0 -13.5 5.5t-5.5 13.5q0 7 5.5 12.5t13.5 5.5h327zM397 707q136 0 241.5 -102t105.5 -255t-105.5 -255t-241.5 -102t-241.5 102t-105.5 255t105.5 255t241.5 102zM397 669q-119 0 -212 -91t-93 -228
t93 -228t212 -91t212 91t93 228t-93 228t-212 91z" />
    <glyph glyph-name="omacron" unicode="&#x14d;" horiz-adv-x="590" 
d="M458 700q8 0 14 -5.5t6 -12.5q0 -8 -6 -13.5t-14 -5.5h-327q-8 0 -13.5 5.5t-5.5 13.5q0 7 5.5 12.5t13.5 5.5h327zM295 526q97 0 176 -71t79 -195q0 -64 -23.5 -116.5t-61 -84.5t-81.5 -49t-89 -17t-89 17t-81.5 49t-61 84.5t-23.5 116.5q0 124 79 195t176 71zM295 489
q-81 0 -147.5 -60t-66.5 -169q0 -57 20 -102.5t52 -72.5t68.5 -41t73.5 -14q80 0 146.5 60.5t66.5 169.5t-66.5 169t-146.5 60z" />
    <glyph glyph-name="Ohungarumlaut" unicode="&#x150;" horiz-adv-x="794" 
d="M388 950q10 0 17.5 -7t7.5 -18q0 -3 -5 -13l-112 -161q-3 -6 -11 -6q-6 0 -8.5 5.5t0.5 10.5l90 176q9 13 21 13zM527 950q11 0 18 -7t7 -18q0 -3 -5 -13l-112 -161q-3 -6 -11 -6q-6 0 -8.5 5.5t0.5 10.5l90 176q9 13 21 13zM397 707q136 0 241.5 -102t105.5 -255
t-105.5 -255t-241.5 -102t-241.5 102t-105.5 255t105.5 255t241.5 102zM397 669q-119 0 -212 -91t-93 -228t93 -228t212 -91t212 91t93 228t-93 228t-212 91z" />
    <glyph glyph-name="ohungarumlaut" unicode="&#x151;" horiz-adv-x="590" 
d="M286 770q10 0 17.5 -7t7.5 -18q0 -3 -5 -13l-112 -161q-3 -6 -11 -6q-6 0 -8.5 5.5t0.5 10.5l90 176q9 13 21 13zM425 770q11 0 18 -7t7 -18q0 -3 -5 -13l-112 -161q-3 -6 -11 -6q-6 0 -8.5 5.5t0.5 10.5l90 176q9 13 21 13zM295 526q97 0 176 -71t79 -195
q0 -64 -23.5 -116.5t-61 -84.5t-81.5 -49t-89 -17t-89 17t-81.5 49t-61 84.5t-23.5 116.5q0 124 79 195t176 71zM295 489q-81 0 -147.5 -60t-66.5 -169q0 -57 20 -102.5t52 -72.5t68.5 -41t73.5 -14q80 0 146.5 60.5t66.5 169.5t-66.5 169t-146.5 60z" />
    <glyph glyph-name="OE" unicode="&#x152;" horiz-adv-x="1163" 
d="M1109 38q7 0 13 -5.5t6 -13.5t-6 -13.5t-13 -5.5h-390q-22 0 -22 22v149q-47 -82 -128.5 -130t-171.5 -48q-136 0 -241.5 102t-105.5 255t105.5 255t241.5 102q90 0 171.5 -48t128.5 -130v149q0 22 22 22h380q7 0 13 -5.5t6 -13.5t-6 -13.5t-13 -5.5h-360v-251
q4 -26 4 -41h261q8 0 13 -5t5 -13t-5 -13t-13 -5h-260q-1 -15 -5 -45v-251h370zM397 31q105 0 192.5 73t107.5 188v116q-20 115 -107.5 188t-192.5 73q-119 0 -212 -91t-93 -228t93 -228t212 -91z" />
    <glyph glyph-name="oe" unicode="&#x153;" horiz-adv-x="1048" 
d="M759 526q44 0 87.5 -17t80 -48t59 -81.5t22.5 -110.5q0 -12 -7.5 -19.5t-20.5 -7.5h-430q2 -52 22 -93.5t51 -66t67.5 -37.5t74.5 -13q90 0 145 52q14 15 22 15q19 0 19 -18q0 -9 -13 -23q-64 -63 -173 -63q-75 0 -140.5 39.5t-95.5 113.5q-31 -74 -97 -114.5t-137 -40.5
q-45 0 -89 17t-81.5 49t-61 84.5t-23.5 116.5q0 124 79 195t176 71q71 0 137 -40.5t97 -114.5q30 74 95 114.5t135 40.5zM295 30q80 0 146.5 60.5t66.5 169.5t-66.5 169t-146.5 60q-81 0 -147.5 -60t-66.5 -169q0 -57 20 -102.5t52 -72.5t68.5 -41t73.5 -14zM550 281h419
q-6 98 -70 153t-140 55t-139.5 -55t-69.5 -153z" />
    <glyph glyph-name="Racute" unicode="&#x154;" horiz-adv-x="566" 
d="M270 745q-6 0 -8.5 5.5t0.5 10.5l90 176q9 13 21 13q11 0 18 -7t7 -18q0 -3 -5 -13l-112 -161q-3 -6 -11 -6zM521 31q5 -6 5 -16q0 -18 -18 -18q-11 0 -17 8l-215 270h-11h-163v-256q0 -9 -6 -15.5t-15 -6.5t-15 6.5t-6 15.5v659q0 22 22 22h183q116 0 183.5 -57.5
t67.5 -152.5q0 -89 -51.5 -144t-144.5 -67zM102 312h164q100 0 154.5 46t54.5 132q0 79 -55.5 126t-153.5 47h-164v-351z" />
    <glyph glyph-name="racute" unicode="&#x155;" horiz-adv-x="357" 
d="M180 565q-6 0 -8.5 5.5t0.5 10.5l90 176q9 13 21 13q11 0 18 -7t7 -18q0 -3 -5 -13l-112 -161q-3 -6 -11 -6zM296 525q31 0 31 -21t-29 -21q-76 0 -131 -51t-66 -116v-299q0 -9 -6 -15.5t-14 -6.5q-9 0 -15 6.5t-6 15.5v485q0 8 6 14.5t15 6.5q8 0 14 -6.5t6 -14.5v-107
q8 36 62 83t133 47z" />
    <glyph glyph-name="Rcommaaccent" unicode="&#x156;" horiz-adv-x="566" 
d="M521 31q5 -6 5 -16q0 -18 -18 -18q-11 0 -17 8l-215 270h-11h-163v-256q0 -9 -6 -15.5t-15 -6.5t-15 6.5t-6 15.5v659q0 22 22 22h183q116 0 183.5 -57.5t67.5 -152.5q0 -89 -51.5 -144t-144.5 -67zM102 312h164q100 0 154.5 46t54.5 132q0 79 -55.5 126t-153.5 47h-164
v-351zM283 -23q14 0 8 -13l-78 -169q-5 -11 -17 -11h-6q-8 0 -11.5 4t-0.5 11l61 163q5 15 19 15h25z" />
    <glyph glyph-name="rcommaaccent" unicode="&#x157;" horiz-adv-x="357" 
d="M296 525q31 0 31 -21t-29 -21q-76 0 -131 -51t-66 -116v-299q0 -9 -6 -15.5t-14 -6.5q-9 0 -15 6.5t-6 15.5v485q0 8 6 14.5t15 6.5q8 0 14 -6.5t6 -14.5v-107q8 36 62 83t133 47zM75 -23q14 0 8 -13l-78 -169q-5 -11 -17 -11h-6q-8 0 -11.5 4t-0.5 11l61 163q5 15 19 15
h25z" />
    <glyph glyph-name="Rcaron" unicode="&#x158;" horiz-adv-x="566" 
d="M265 819l-104 137q-6 9 -2.5 16.5t12.5 7.5t17 -9l102 -126l102 126q8 9 17 9t12 -7.5t-3 -16.5l-103 -137q-10 -12 -23 -12h-4q-14 0 -23 12zM521 31q5 -6 5 -16q0 -18 -18 -18q-11 0 -17 8l-215 270h-11h-163v-256q0 -9 -6 -15.5t-15 -6.5t-15 6.5t-6 15.5v659
q0 22 22 22h183q116 0 183.5 -57.5t67.5 -152.5q0 -89 -51.5 -144t-144.5 -67zM102 312h164q100 0 154.5 46t54.5 132q0 79 -55.5 126t-153.5 47h-164v-351z" />
    <glyph glyph-name="rcaron" unicode="&#x159;" horiz-adv-x="357" 
d="M319 800q9 0 12 -7.5t-3 -16.5l-103 -137q-10 -12 -23 -12h-4q-14 0 -23 12l-104 137q-6 9 -2.5 16.5t12.5 7.5t17 -9l102 -126l102 126q8 9 17 9zM296 525q31 0 31 -21t-29 -21q-76 0 -131 -51t-66 -116v-299q0 -9 -6 -15.5t-14 -6.5q-9 0 -15 6.5t-6 15.5v485
q0 8 6 14.5t15 6.5q8 0 14 -6.5t6 -14.5v-107q8 36 62 83t133 47z" />
    <glyph glyph-name="Sacute" unicode="&#x15a;" horiz-adv-x="545" 
d="M348 950q10 0 17.5 -7t7.5 -18q0 -3 -5 -13l-112 -161q-3 -6 -11 -6q-6 0 -8.5 5.5t0.5 10.5l90 176q9 13 21 13zM267 707q70 0 123 -33.5t80 -82.5q7 -14 7 -24q0 -18 -18 -18q-14 0 -23 16q-52 103 -170 103q-73 0 -117 -34t-44 -94q0 -51 33 -83.5t96 -58.5l73 -29
q32 -13 44.5 -18.5t39.5 -18.5t38.5 -21.5t29.5 -23.5t25.5 -30t14 -35.5t6.5 -43.5q0 -85 -69 -135t-161 -50q-77 0 -142.5 37t-90.5 102q-2 6 -2 12q0 22 19 22q16 0 22 -16q24 -55 74.5 -86t120.5 -31q77 0 132.5 37.5t55.5 107.5q0 27 -10 48.5t-20.5 34t-38 27.5
t-39.5 20t-49 19l-81 33q-163 65 -163 178q0 74 59 121.5t145 47.5z" />
    <glyph glyph-name="sacute" unicode="&#x15b;" horiz-adv-x="451" 
d="M306 770q10 0 17.5 -7t7.5 -18q0 -3 -5 -13l-112 -161q-3 -6 -11 -6q-6 0 -8.5 5.5t0.5 10.5l90 176q9 13 21 13zM221 526q117 0 168 -88q5 -10 5 -21q0 -8 -5.5 -13t-13.5 -5q-11 0 -25 23q-39 66 -132 66q-59 0 -93 -27t-34 -71q0 -72 105 -98l66 -16q78 -19 116 -50.5
t38 -85.5q0 -66 -56.5 -105.5t-137.5 -39.5q-63 0 -115 27t-67 71q-5 13 -5 22q0 11 6 17t13 6q14 0 21 -21q13 -41 52.5 -62t94.5 -21q64 0 109 26.5t45 77.5q0 41 -27.5 62.5t-77.5 33.5l-89 23q-65 16 -98 50.5t-33 81.5q0 58 47.5 97.5t122.5 39.5z" />
    <glyph glyph-name="Scedilla" unicode="&#x15e;" horiz-adv-x="545" 
d="M505 178q0 -80 -61.5 -129t-147.5 -55l-39 -39q33 2 60 -20t27 -57q0 -42 -37.5 -68t-88.5 -21q-8 1 -12 6t-2 10q4 11 18 9q35 -4 58.5 16t23.5 47q0 25 -21 40.5t-47 6.5q-12 -5 -18 4q-5 9 0 19l33 47q-71 5 -128.5 41.5t-80.5 96.5q-2 6 -2 12q0 22 19 22
q16 0 22 -16q24 -55 74.5 -86t120.5 -31q77 0 132.5 37.5t55.5 107.5q0 27 -10 48.5t-20.5 34t-38 27.5t-39.5 20t-49 19l-81 33q-163 65 -163 178q0 74 59 121.5t145 47.5q70 0 123 -33.5t80 -82.5q7 -14 7 -24q0 -18 -18 -18q-14 0 -23 16q-52 103 -170 103
q-73 0 -117 -34t-44 -94q0 -51 33 -83.5t96 -58.5l73 -29q32 -13 44.5 -18.5t39.5 -18.5t38.5 -21.5t29.5 -23.5t25.5 -30t14 -35.5t6.5 -43.5z" />
    <glyph glyph-name="scedilla" unicode="&#x15f;" horiz-adv-x="451" 
d="M416 140q0 -61 -48.5 -99.5t-121.5 -44.5l-41 -41q33 2 60 -20t27 -57q0 -42 -37.5 -68t-88.5 -21q-7 1 -11.5 6t-2.5 10q4 11 18 9q35 -4 58.5 16t23.5 47q0 25 -21 40.5t-47 6.5q-12 -5 -18 4q-5 9 0 19l34 49q-57 5 -101.5 31t-58.5 66q-5 13 -5 22q0 11 6 17t13 6
q14 0 21 -21q13 -41 52.5 -62t94.5 -21q64 0 109 26.5t45 77.5q0 41 -27.5 62.5t-77.5 33.5l-89 23q-65 16 -98 50.5t-33 81.5q0 58 47.5 97.5t122.5 39.5q117 0 168 -88q5 -10 5 -21q0 -8 -5.5 -13t-13.5 -5q-11 0 -25 23q-39 66 -132 66q-59 0 -93 -27t-34 -71
q0 -72 105 -98l66 -16q78 -19 116 -50.5t38 -85.5z" />
    <glyph glyph-name="Scaron" unicode="&#x160;" horiz-adv-x="545" 
d="M267 807h-4q-14 0 -23 12l-104 137q-6 9 -2.5 16.5t12.5 7.5t17 -9l102 -126l102 126q8 9 17 9t12 -7.5t-3 -16.5l-103 -137q-10 -12 -23 -12zM267 707q70 0 123 -33.5t80 -82.5q7 -14 7 -24q0 -18 -18 -18q-14 0 -23 16q-52 103 -170 103q-73 0 -117 -34t-44 -94
q0 -51 33 -83.5t96 -58.5l73 -29q32 -13 44.5 -18.5t39.5 -18.5t38.5 -21.5t29.5 -23.5t25.5 -30t14 -35.5t6.5 -43.5q0 -85 -69 -135t-161 -50q-77 0 -142.5 37t-90.5 102q-2 6 -2 12q0 22 19 22q16 0 22 -16q24 -55 74.5 -86t120.5 -31q77 0 132.5 37.5t55.5 107.5
q0 27 -10 48.5t-20.5 34t-38 27.5t-39.5 20t-49 19l-81 33q-163 65 -163 178q0 74 59 121.5t145 47.5z" />
    <glyph glyph-name="scaron" unicode="&#x161;" horiz-adv-x="451" 
d="M225 627h-4q-14 0 -23 12l-104 137q-6 9 -2.5 16.5t12.5 7.5t17 -9l102 -126l102 126q8 9 17 9t12 -7.5t-3 -16.5l-103 -137q-10 -12 -23 -12zM221 526q117 0 168 -88q5 -10 5 -21q0 -8 -5.5 -13t-13.5 -5q-11 0 -25 23q-39 66 -132 66q-59 0 -93 -27t-34 -71
q0 -72 105 -98l66 -16q78 -19 116 -50.5t38 -85.5q0 -66 -56.5 -105.5t-137.5 -39.5q-63 0 -115 27t-67 71q-5 13 -5 22q0 11 6 17t13 6q14 0 21 -21q13 -41 52.5 -62t94.5 -21q64 0 109 26.5t45 77.5q0 41 -27.5 62.5t-77.5 33.5l-89 23q-65 16 -98 50.5t-33 81.5
q0 58 47.5 97.5t122.5 39.5z" />
    <glyph glyph-name="uni0162" unicode="&#x162;" horiz-adv-x="537" 
d="M488 700q8 0 13.5 -5.5t5.5 -12.5q0 -8 -5.5 -13.5t-13.5 -5.5h-199v-638h9q0 -55 -43 -71q33 1 57 -21.5t24 -57.5q0 -42 -36.5 -66.5t-87.5 -17.5q-16 2 -10 14q4 10 18 9q35 -4 55.5 15t20.5 46t-18 42t-45 6q-11 -3 -17 4q-7 10 0 19q30 38 37 58q-5 7 -5 15v644
h-200q-8 0 -13 5.5t-5 13.5t5 13t13 5h440z" />
    <glyph glyph-name="uni0163" unicode="&#x163;" horiz-adv-x="279" 
d="M221 40q10 4 19 -0.5t9 -13.5q0 -24 -52 -30l-41 -41q33 2 60 -20t27 -57q0 -42 -37.5 -68t-88.5 -21q-7 1 -11.5 6t-2.5 10q5 11 18 9q35 -4 58.5 16t23.5 47q0 25 -21 40.5t-47 6.5q-12 -5 -18 4q-5 9 0 19l35 50q-56 9 -56 70v414h-57q-19 0 -19 20q0 19 19 19h57v101
q0 8 6 14.5t15 6.5t14.5 -6t5.5 -15v-101h92q20 0 20 -19q0 -9 -6 -14.5t-14 -5.5h-92v-406q0 -44 44 -44q20 0 40 9z" />
    <glyph glyph-name="Tcaron" unicode="&#x164;" horiz-adv-x="537" 
d="M270 807h-4q-14 0 -23 12l-104 137q-6 9 -2.5 16.5t12.5 7.5t17 -9l102 -126l102 126q8 9 17 9t12 -7.5t-3 -16.5l-103 -137q-10 -12 -23 -12zM488 700q8 0 13.5 -5.5t5.5 -12.5q0 -8 -5.5 -13.5t-13.5 -5.5h-199v-644q0 -9 -5.5 -15.5t-14.5 -6.5q-21 0 -21 22v644h-200
q-8 0 -13 5.5t-5 13.5t5 13t13 5h440z" />
    <glyph glyph-name="tcaron" unicode="&#x165;" horiz-adv-x="327" 
d="M287 748q11 0 18 -7t7 -18q0 -3 -5 -13l-112 -161q-3 -6 -11 -6q-6 0 -8.5 5.5t0.5 10.5l90 176q9 13 21 13zM229 481h-92v-406q0 -44 44 -44q20 0 40 9q10 4 19 -0.5t9 -13.5q0 -31 -78 -31q-75 0 -75 72v414h-57q-19 0 -19 20q0 19 19 19h57v101q0 8 6 14.5t15 6.5
t14.5 -6t5.5 -15v-101h92q20 0 20 -19q0 -9 -6 -14.5t-14 -5.5z" />
    <glyph glyph-name="Tbar" unicode="&#x166;" horiz-adv-x="537" 
d="M488 700q8 0 13.5 -5.5t5.5 -12.5q0 -8 -5.5 -13.5t-13.5 -5.5h-199v-143h143q8 0 14 -5.5t6 -12.5q0 -8 -6 -13.5t-14 -5.5h-143v-464q0 -9 -5.5 -15.5t-14.5 -6.5q-21 0 -21 22v464h-143q-8 0 -13.5 5.5t-5.5 13.5q0 7 5.5 12.5t13.5 5.5h143v143h-200q-8 0 -13 5.5
t-5 13.5t5 13t13 5h440z" />
    <glyph glyph-name="tbar" unicode="&#x167;" horiz-adv-x="279" 
d="M230 346h-93v-271q0 -44 44 -44q20 0 40 9q10 4 19 -0.5t9 -13.5q0 -31 -78 -31q-75 0 -75 72v279h-53q-8 0 -13 5.5t-5 13.5q0 7 5.5 12.5t12.5 5.5h53v98h-57q-19 0 -19 20q0 19 19 19h57v101q0 8 6 14.5t15 6.5t14.5 -6t5.5 -15v-101h92q20 0 20 -19q0 -9 -6 -14.5
t-14 -5.5h-92v-98h93q8 0 13.5 -5.5t5.5 -12.5q0 -8 -5.5 -13.5t-13.5 -5.5z" />
    <glyph glyph-name="Umacron" unicode="&#x16a;" horiz-adv-x="654" 
d="M490 880q8 0 14 -5.5t6 -12.5q0 -8 -6 -13.5t-14 -5.5h-327q-8 0 -13.5 5.5t-5.5 13.5q0 7 5.5 12.5t13.5 5.5h327zM568 703q9 0 15 -6t6 -14v-416q0 -127 -72 -200.5t-191 -73.5q-118 0 -189.5 73t-71.5 201v416q0 8 6 14t15 6t15 -6t6 -14v-415q0 -112 59 -174.5
t160 -62.5q102 0 161.5 62.5t59.5 174.5v415q0 8 6 14t15 6z" />
    <glyph glyph-name="umacron" unicode="&#x16b;" horiz-adv-x="561" 
d="M443 700q8 0 14 -5.5t6 -12.5q0 -8 -6 -13.5t-14 -5.5h-327q-8 0 -13.5 5.5t-5.5 13.5q0 7 5.5 12.5t13.5 5.5h327zM260 -8q-36 0 -69.5 10.5t-64 33.5t-48.5 65.5t-18 100.5v298q0 9 6 15.5t15 6.5q8 0 14 -7t6 -15v-298q0 -88 47 -129.5t115 -41.5q79 0 132 51t65 119
v299q0 8 6 15t14 7q9 0 15 -6.5t6 -15.5v-485q0 -8 -6 -14.5t-15 -6.5q-8 0 -14 6.5t-6 14.5v107q-3 -14 -17 -34t-37 -42.5t-62 -38t-84 -15.5z" />
    <glyph glyph-name="Ubreve" unicode="&#x16c;" horiz-adv-x="654" 
d="M451 950q7 0 12 -6.5t4 -12.5q-8 -50 -45 -85t-95 -35q-57 0 -94 35t-45 85q-1 6 4 12.5t12 6.5q15 0 19 -14q8 -38 35 -62t69 -24q43 0 69.5 24t35.5 62q2 14 19 14zM568 703q9 0 15 -6t6 -14v-416q0 -127 -72 -200.5t-191 -73.5q-118 0 -189.5 73t-71.5 201v416
q0 8 6 14t15 6t15 -6t6 -14v-415q0 -112 59 -174.5t160 -62.5q102 0 161.5 62.5t59.5 174.5v415q0 8 6 14t15 6z" />
    <glyph glyph-name="ubreve" unicode="&#x16d;" horiz-adv-x="561" 
d="M404 770q7 0 12 -6.5t4 -12.5q-8 -50 -45 -85t-95 -35q-57 0 -94 35t-45 85q-1 6 4 12.5t12 6.5q15 0 19 -14q8 -38 35 -62t69 -24q43 0 69.5 24t35.5 62q2 14 19 14zM260 -8q-36 0 -69.5 10.5t-64 33.5t-48.5 65.5t-18 100.5v298q0 9 6 15.5t15 6.5q8 0 14 -7t6 -15
v-298q0 -88 47 -129.5t115 -41.5q79 0 132 51t65 119v299q0 8 6 15t14 7q9 0 15 -6.5t6 -15.5v-485q0 -8 -6 -14.5t-15 -6.5q-8 0 -14 6.5t-6 14.5v107q-3 -14 -17 -34t-37 -42.5t-62 -38t-84 -15.5z" />
    <glyph glyph-name="Uring" unicode="&#x16e;" horiz-adv-x="654" 
d="M328 956q31 0 53.5 -22.5t22.5 -53.5t-22.5 -53.5t-53.5 -22.5q-33 0 -55.5 22.5t-22.5 53.5t22.5 53.5t55.5 22.5zM327 924q-18 0 -31 -13t-13 -31t13 -31t31 -13t30.5 13t12.5 31t-12.5 31t-30.5 13zM568 703q9 0 15 -6t6 -14v-416q0 -127 -72 -200.5t-191 -73.5
q-118 0 -189.5 73t-71.5 201v416q0 8 6 14t15 6t15 -6t6 -14v-415q0 -112 59 -174.5t160 -62.5q102 0 161.5 62.5t59.5 174.5v415q0 8 6 14t15 6z" />
    <glyph glyph-name="uring" unicode="&#x16f;" horiz-adv-x="561" 
d="M281 776q31 0 53.5 -22.5t22.5 -53.5t-22.5 -53.5t-53.5 -22.5q-33 0 -55.5 22.5t-22.5 53.5t22.5 53.5t55.5 22.5zM280 744q-18 0 -31 -13t-13 -31t13 -31t31 -13t30.5 13t12.5 31t-12.5 31t-30.5 13zM260 -8q-36 0 -69.5 10.5t-64 33.5t-48.5 65.5t-18 100.5v298
q0 9 6 15.5t15 6.5q8 0 14 -7t6 -15v-298q0 -88 47 -129.5t115 -41.5q79 0 132 51t65 119v299q0 8 6 15t14 7q9 0 15 -6.5t6 -15.5v-485q0 -8 -6 -14.5t-15 -6.5q-8 0 -14 6.5t-6 14.5v107q-3 -14 -17 -34t-37 -42.5t-62 -38t-84 -15.5z" />
    <glyph glyph-name="Uhungarumlaut" unicode="&#x170;" horiz-adv-x="654" 
d="M318 950q10 0 17.5 -7t7.5 -18q0 -3 -5 -13l-112 -161q-3 -6 -11 -6q-6 0 -8.5 5.5t0.5 10.5l90 176q9 13 21 13zM457 950q11 0 18 -7t7 -18q0 -3 -5 -13l-112 -161q-3 -6 -11 -6q-6 0 -8.5 5.5t0.5 10.5l90 176q9 13 21 13zM568 703q9 0 15 -6t6 -14v-416
q0 -127 -72 -200.5t-191 -73.5q-118 0 -189.5 73t-71.5 201v416q0 8 6 14t15 6t15 -6t6 -14v-415q0 -112 59 -174.5t160 -62.5q102 0 161.5 62.5t59.5 174.5v415q0 8 6 14t15 6z" />
    <glyph glyph-name="uhungarumlaut" unicode="&#x171;" horiz-adv-x="561" 
d="M271 770q11 0 18 -7t7 -18q0 -3 -5 -13l-112 -161q-3 -6 -11 -6q-6 0 -8.5 5.5t0.5 10.5l90 176q9 13 21 13zM410 770q10 0 17.5 -7t7.5 -18q0 -3 -5 -13l-112 -161q-3 -6 -11 -6q-6 0 -8.5 5.5t0.5 10.5l90 176q9 13 21 13zM260 -8q-36 0 -69.5 10.5t-64 33.5
t-48.5 65.5t-18 100.5v298q0 9 6 15.5t15 6.5q8 0 14 -7t6 -15v-298q0 -88 47 -129.5t115 -41.5q79 0 132 51t65 119v299q0 8 6 15t14 7q9 0 15 -6.5t6 -15.5v-485q0 -8 -6 -14.5t-15 -6.5q-8 0 -14 6.5t-6 14.5v107q-3 -14 -17 -34t-37 -42.5t-62 -38t-84 -15.5z" />
    <glyph glyph-name="Uogonek" unicode="&#x172;" horiz-adv-x="654" 
d="M568 703q9 0 15 -6t6 -14v-416q0 -108 -52.5 -177.5t-142.5 -89.5q-58 -13 -102 -43.5t-44 -77.5q0 -55 64 -55q29 0 29 -15q0 -16 -42 -16q-35 0 -62 21.5t-27 66.5q0 39 29 68t62 45q-108 8 -172 80t-64 193v416q0 8 6 14t15 6t15 -6t6 -14v-415q0 -112 59 -174.5
t160 -62.5q102 0 161.5 62.5t59.5 174.5v415q0 8 6 14t15 6z" />
    <glyph glyph-name="uogonek" unicode="&#x173;" horiz-adv-x="561" 
d="M480 522q9 0 15 -6.5t6 -15.5v-485q0 -3 -1 -5q-3 -24 -26.5 -43.5t-49.5 -31t-47.5 -30.5t-21.5 -41q0 -40 64 -40q29 0 29 -15q0 -16 -42 -16q-35 0 -62 17.5t-27 53.5q0 30 22.5 52.5t49 34t49 29t22.5 39.5v103q-3 -14 -17 -34t-37 -42.5t-62 -38t-84 -15.5
q-36 0 -69.5 10.5t-64 33.5t-48.5 65.5t-18 100.5v298q0 9 6 15.5t15 6.5q8 0 14 -7t6 -15v-298q0 -88 47 -129.5t115 -41.5q79 0 132 51t65 119v299q0 8 6 15t14 7z" />
    <glyph glyph-name="Wcircumflex" unicode="&#x174;" horiz-adv-x="1031" 
d="M517 980q13 0 23 -12l103 -137q6 -9 3 -16.5t-12 -7.5t-17 9l-102 126l-102 -126q-8 -9 -17 -9t-12.5 7.5t2.5 16.5l104 137q9 12 23 12h4zM975 703q9 0 15 -6.5t6 -14.5q0 -2 -0.5 -4.5t-0.5 -3.5l-209 -662q-5 -16 -22 -16q-16 0 -21 16l-228 609l-227 -609
q-5 -16 -21 -16q-17 0 -22 16l-209 662q0 1 -0.5 3.5t-0.5 4.5q0 8 6 14.5t15 6.5q12 0 19 -13l193 -619l229 618q5 14 18 14q14 0 19 -14l229 -618l193 619q4 13 19 13z" />
    <glyph glyph-name="wcircumflex" unicode="&#x175;" horiz-adv-x="798" 
d="M401 800q13 0 23 -12l103 -137q6 -9 3 -16.5t-12 -7.5t-17 9l-102 126l-102 -126q-8 -9 -17 -9t-12.5 7.5t2.5 16.5l104 137q9 12 23 12h4zM748 523q8 0 14 -6t6 -14q0 -2 -2 -8l-159 -481q-7 -16 -19 -16q-13 0 -18 16l-171 439l-170 -439q-5 -16 -18 -16q-14 0 -19 16
l-161 481q0 2 -0.5 4.5t-0.5 3.5q0 8 6 14t14 6q15 0 19 -13l144 -440l166 439q5 14 20 14t20 -14l168 -439l141 440q4 13 20 13z" />
    <glyph glyph-name="Ycircumflex" unicode="&#x176;" horiz-adv-x="579" 
d="M291 980q13 0 23 -12l103 -137q6 -9 3 -16.5t-12 -7.5t-17 9l-102 126l-102 -126q-8 -9 -17 -9t-12.5 7.5t2.5 16.5l104 137q9 12 23 12h4zM530 702q8 0 13.5 -5t5.5 -13t-5 -15l-233 -336v-314q0 -8 -6.5 -15t-15.5 -7t-15 7t-6 15v314l-233 336q-6 9 -6 15q0 18 20 18
q12 0 18 -11l222 -321l223 321q6 11 18 11z" />
    <glyph glyph-name="ycircumflex" unicode="&#x177;" horiz-adv-x="514" 
d="M141 627q-9 0 -12.5 7.5t2.5 16.5l104 137q9 12 23 12h4q13 0 23 -12l103 -137q6 -9 3 -16.5t-12 -7.5t-17 9l-102 126l-102 -126q-8 -9 -17 -9zM464 523q8 0 14 -6t6 -14q0 -2 -2 -8l-286 -678q-4 -12 -19 -12q-18 0 -18 20q0 1 0.5 4t0.5 4l76 181l-205 481
q0 2 -0.5 4.5t-0.5 3.5q0 8 6 14t14 6q14 0 19 -12l188 -447l188 447q4 12 19 12z" />
    <glyph glyph-name="Ydieresis" unicode="&#x178;" horiz-adv-x="579" 
d="M178 825q-11 0 -19 8t-8 19t8 19t19 8q10 0 18 -8t8 -19t-7.5 -19t-18.5 -8zM400 825q-11 0 -18.5 8t-7.5 19t8 19t18 8q11 0 19 -8t8 -19t-8 -19t-19 -8zM530 702q8 0 13.5 -5t5.5 -13t-5 -15l-233 -336v-314q0 -8 -6.5 -15t-15.5 -7t-15 7t-6 15v314l-233 336
q-6 9 -6 15q0 18 20 18q12 0 18 -11l222 -321l223 321q6 11 18 11z" />
    <glyph glyph-name="Zacute" unicode="&#x179;" horiz-adv-x="557" 
d="M364 950q10 0 17.5 -7t7.5 -18q0 -3 -5 -13l-112 -161q-3 -6 -11 -6q-6 0 -8.5 5.5t0.5 10.5l90 176q9 13 21 13zM487 700q18 0 25 -13.5t-3 -29.5l-420 -620h409q8 0 13.5 -5.5t5.5 -12.5q0 -8 -5.5 -13.5t-13.5 -5.5h-430q-18 0 -25 13.5t3 29.5l420 620h-394
q-8 0 -13 5.5t-5 13.5t5 13t13 5h415z" />
    <glyph glyph-name="zacute" unicode="&#x17a;" horiz-adv-x="487" 
d="M332 770q10 0 17.5 -7t7.5 -18q0 -3 -5 -13l-112 -161q-3 -6 -11 -6q-6 0 -8.5 5.5t0.5 10.5l90 176q9 13 21 13zM410 520q21 0 27.5 -15t-7.5 -33l-343 -434h340q8 0 14 -6t6 -13q0 -8 -6 -13.5t-14 -5.5h-357q-21 0 -28 15t7 33l344 435h-323q-8 0 -13 5.5t-5 13.5
t5 13t13 5h340z" />
    <glyph glyph-name="Zdotaccent" unicode="&#x17b;" horiz-adv-x="557" 
d="M281 887q-11 0 -17.5 6.5t-6.5 17.5q0 10 6.5 16t17.5 6q9 0 15.5 -6t6.5 -16t-6.5 -17t-15.5 -7zM487 700q18 0 25 -13.5t-3 -29.5l-420 -620h409q8 0 13.5 -5.5t5.5 -12.5q0 -8 -5.5 -13.5t-13.5 -5.5h-430q-18 0 -25 13.5t3 29.5l420 620h-394q-8 0 -13 5.5t-5 13.5
t5 13t13 5h415z" />
    <glyph glyph-name="zdotaccent" unicode="&#x17c;" horiz-adv-x="487" 
d="M249 707q-11 0 -17.5 6.5t-6.5 17.5q0 10 6.5 16t17.5 6q9 0 15.5 -6t6.5 -16t-6.5 -17t-15.5 -7zM410 520q21 0 27.5 -15t-7.5 -33l-343 -434h340q8 0 14 -6t6 -13q0 -8 -6 -13.5t-14 -5.5h-357q-21 0 -28 15t7 33l344 435h-323q-8 0 -13 5.5t-5 13.5t5 13t13 5h340z
" />
    <glyph glyph-name="Zcaron" unicode="&#x17d;" horiz-adv-x="557" 
d="M283 807h-4q-14 0 -23 12l-104 137q-6 9 -2.5 16.5t12.5 7.5t17 -9l102 -126l102 126q8 9 17 9t12 -7.5t-3 -16.5l-103 -137q-10 -12 -23 -12zM487 700q18 0 25 -13.5t-3 -29.5l-420 -620h409q8 0 13.5 -5.5t5.5 -12.5q0 -8 -5.5 -13.5t-13.5 -5.5h-430q-18 0 -25 13.5
t3 29.5l420 620h-394q-8 0 -13 5.5t-5 13.5t5 13t13 5h415z" />
    <glyph glyph-name="zcaron" unicode="&#x17e;" horiz-adv-x="487" 
d="M251 627h-4q-14 0 -23 12l-104 137q-6 9 -2.5 16.5t12.5 7.5t17 -9l102 -126l102 126q8 9 17 9t12 -7.5t-3 -16.5l-103 -137q-10 -12 -23 -12zM410 520q21 0 27.5 -15t-7.5 -33l-343 -434h340q8 0 14 -6t6 -13q0 -8 -6 -13.5t-14 -5.5h-357q-21 0 -28 15t7 33l344 435
h-323q-8 0 -13 5.5t-5 13.5t5 13t13 5h340z" />
    <glyph glyph-name="florin" unicode="&#x192;" horiz-adv-x="267" 
d="M241 669q-39 -4 -60.5 -29t-21.5 -82v-38h69q20 0 20 -19q0 -9 -6 -14.5t-14 -5.5h-69v-518q0 -141 -123 -151q-6 0 -12 5.5t-6 13.5q0 17 19 19q39 3 60 28t21 82v521h-66q-18 0 -18 20q0 19 18 19h66v35q0 141 123 151q7 0 13 -5.5t6 -13.5q0 -7 -5.5 -12.5t-13.5 -5.5
z" />
    <glyph glyph-name="uni01CD" unicode="&#x1cd;" horiz-adv-x="687" 
d="M319 819l-104 137q-6 9 -2.5 16.5t12.5 7.5t17 -9l102 -126l102 126q8 9 17 9t12 -7.5t-3 -16.5l-103 -137q-10 -12 -23 -12h-4q-14 0 -23 12zM651 25q1 -2 1 -8q0 -8 -6 -14.5t-14 -6.5q-11 0 -20 13l-88 204h-360l-89 -204q-7 -13 -19 -13q-9 0 -15 6.5t-6 14.5
q0 2 0.5 4.5t0.5 3.5l287 662q7 16 21 16q13 0 20 -16zM179 249h329l-164 379z" />
    <glyph glyph-name="uni01CE" unicode="&#x1ce;" 
d="M303 627h-4q-14 0 -23 12l-104 137q-6 9 -2.5 16.5t12.5 7.5t17 -9l102 -126l102 126q8 9 17 9t12 -7.5t-3 -16.5l-103 -137q-10 -12 -23 -12zM290 526q64 0 119 -31t84 -92v98q0 9 6 15.5t15 6.5q20 0 20 -22v-485q0 -8 -6 -15t-14 -7q-9 0 -15 6.5t-6 15.5v106
q-32 -65 -86.5 -97t-116.5 -32q-43 0 -86.5 17t-80.5 49t-60 84.5t-23 116.5q0 124 77.5 195t172.5 71zM291 31q80 0 142.5 61t62.5 168q0 110 -62 169.5t-143 59.5q-79 0 -144.5 -60.5t-65.5 -168.5q0 -109 65.5 -169t144.5 -60z" />
    <glyph glyph-name="uni01CF" unicode="&#x1cf;" horiz-adv-x="161" 
d="M83 807h-4q-14 0 -23 12l-104 137q-6 9 -2.5 16.5t12.5 7.5t17 -9l102 -126l102 126q8 9 17 9t12 -7.5t-3 -16.5l-103 -137q-10 -12 -23 -12zM81 703q9 0 14.5 -6t5.5 -15v-663q0 -9 -5.5 -15.5t-14.5 -6.5t-15 6.5t-6 15.5v663q0 8 6 14.5t15 6.5z" />
    <glyph glyph-name="uni01D0" unicode="&#x1d0;" horiz-adv-x="191" 
d="M98 627h-4q-14 0 -23 12l-104 137q-6 9 -2.5 16.5t12.5 7.5t17 -9l102 -126l102 126q8 9 17 9t12 -7.5t-3 -16.5l-103 -137q-10 -12 -23 -12zM96 523q8 0 14 -6t6 -14v-484q0 -8 -6 -15t-14 -7q-9 0 -15 7t-6 15v484q0 8 6 14t15 6z" />
    <glyph glyph-name="uni01D1" unicode="&#x1d1;" horiz-adv-x="794" 
d="M399 807h-4q-14 0 -23 12l-104 137q-6 9 -2.5 16.5t12.5 7.5t17 -9l102 -126l102 126q8 9 17 9t12 -7.5t-3 -16.5l-103 -137q-10 -12 -23 -12zM397 707q136 0 241.5 -102t105.5 -255t-105.5 -255t-241.5 -102t-241.5 102t-105.5 255t105.5 255t241.5 102zM397 669
q-119 0 -212 -91t-93 -228t93 -228t212 -91t212 91t93 228t-93 228t-212 91z" />
    <glyph glyph-name="uni01D2" unicode="&#x1d2;" horiz-adv-x="590" 
d="M297 627h-4q-14 0 -23 12l-104 137q-6 9 -2.5 16.5t12.5 7.5t17 -9l102 -126l102 126q8 9 17 9t12 -7.5t-3 -16.5l-103 -137q-10 -12 -23 -12zM295 526q97 0 176 -71t79 -195q0 -64 -23.5 -116.5t-61 -84.5t-81.5 -49t-89 -17t-89 17t-81.5 49t-61 84.5t-23.5 116.5
q0 124 79 195t176 71zM295 489q-81 0 -147.5 -60t-66.5 -169q0 -57 20 -102.5t52 -72.5t68.5 -41t73.5 -14q80 0 146.5 60.5t66.5 169.5t-66.5 169t-146.5 60z" />
    <glyph glyph-name="uni01D3" unicode="&#x1d3;" horiz-adv-x="654" 
d="M329 807h-4q-14 0 -23 12l-104 137q-6 9 -2.5 16.5t12.5 7.5t17 -9l102 -126l102 126q8 9 17 9t12 -7.5t-3 -16.5l-103 -137q-10 -12 -23 -12zM568 703q9 0 15 -6t6 -14v-416q0 -127 -72 -200.5t-191 -73.5q-118 0 -189.5 73t-71.5 201v416q0 8 6 14t15 6t15 -6t6 -14
v-415q0 -112 59 -174.5t160 -62.5q102 0 161.5 62.5t59.5 174.5v415q0 8 6 14t15 6z" />
    <glyph glyph-name="uni01D4" unicode="&#x1d4;" horiz-adv-x="561" 
d="M282 627h-4q-14 0 -23 12l-104 137q-6 9 -2.5 16.5t12.5 7.5t17 -9l102 -126l102 126q8 9 17 9t12 -7.5t-3 -16.5l-103 -137q-10 -12 -23 -12zM260 -8q-36 0 -69.5 10.5t-64 33.5t-48.5 65.5t-18 100.5v298q0 9 6 15.5t15 6.5q8 0 14 -7t6 -15v-298q0 -88 47 -129.5
t115 -41.5q79 0 132 51t65 119v299q0 8 6 15t14 7q9 0 15 -6.5t6 -15.5v-485q0 -8 -6 -14.5t-15 -6.5q-8 0 -14 6.5t-6 14.5v107q-3 -14 -17 -34t-37 -42.5t-62 -38t-84 -15.5z" />
    <glyph glyph-name="uni01EA" unicode="&#x1ea;" horiz-adv-x="794" 
d="M455 -2q-56 -14 -97.5 -44t-41.5 -75q0 -55 64 -55q29 0 29 -15q0 -16 -42 -16q-35 0 -62 21.5t-27 66.5q0 39 29.5 68.5t62.5 44.5q-129 11 -224.5 111t-95.5 245q0 153 105.5 255t241.5 102t241.5 -102t105.5 -255q0 -135 -84.5 -232.5t-204.5 -119.5zM92 350
q0 -137 93 -228t212 -91t212 91t93 228t-93 228t-212 91t-212 -91t-93 -228z" />
    <glyph glyph-name="uni01EB" unicode="&#x1eb;" horiz-adv-x="590" 
d="M550 260q0 -105 -57 -172.5t-140 -87.5q-58 -13 -102 -43.5t-44 -77.5q0 -55 64 -55q29 0 29 -15q0 -16 -42 -16q-35 0 -62 21.5t-27 66.5q0 40 31 70t63 44q-90 13 -156.5 82t-66.5 183q0 124 79 195t176 71t176 -71t79 -195zM295 30q80 0 146.5 60.5t66.5 169.5
t-66.5 169t-146.5 60q-81 0 -147.5 -60t-66.5 -169q0 -57 20 -102.5t52 -72.5t68.5 -41t73.5 -14z" />
    <glyph glyph-name="Scommaaccent" unicode="&#x218;" horiz-adv-x="545" 
d="M267 707q70 0 123 -33.5t80 -82.5q7 -14 7 -24q0 -18 -18 -18q-14 0 -23 16q-52 103 -170 103q-73 0 -117 -34t-44 -94q0 -51 33 -83.5t96 -58.5l73 -29q32 -13 44.5 -18.5t39.5 -18.5t38.5 -21.5t29.5 -23.5t25.5 -30t14 -35.5t6.5 -43.5q0 -85 -69 -135t-161 -50
q-77 0 -142.5 37t-90.5 102q-2 6 -2 12q0 22 19 22q16 0 22 -16q24 -55 74.5 -86t120.5 -31q77 0 132.5 37.5t55.5 107.5q0 27 -10 48.5t-20.5 34t-38 27.5t-39.5 20t-49 19l-81 33q-163 65 -163 178q0 74 59 121.5t145 47.5zM175 -216q-8 0 -11.5 4t-0.5 11l61 163
q5 15 19 15h25q14 0 8 -13l-78 -169q-5 -11 -17 -11h-6z" />
    <glyph glyph-name="scommaaccent" unicode="&#x219;" horiz-adv-x="451" 
d="M221 526q117 0 168 -88q5 -10 5 -21q0 -8 -5.5 -13t-13.5 -5q-11 0 -25 23q-39 66 -132 66q-59 0 -93 -27t-34 -71q0 -72 105 -98l66 -16q78 -19 116 -50.5t38 -85.5q0 -66 -56.5 -105.5t-137.5 -39.5q-63 0 -115 27t-67 71q-5 13 -5 22q0 11 6 17t13 6q14 0 21 -21
q13 -41 52.5 -62t94.5 -21q64 0 109 26.5t45 77.5q0 41 -27.5 62.5t-77.5 33.5l-89 23q-65 16 -98 50.5t-33 81.5q0 58 47.5 97.5t122.5 39.5zM123 -216q-8 0 -11.5 4t-0.5 11l61 163q5 15 19 15h25q14 0 8 -13l-78 -169q-5 -11 -17 -11h-6z" />
    <glyph glyph-name="uni021A" unicode="&#x21a;" horiz-adv-x="537" 
d="M488 700q8 0 13.5 -5.5t5.5 -12.5q0 -8 -5.5 -13.5t-13.5 -5.5h-199v-644q0 -9 -5.5 -15.5t-14.5 -6.5q-21 0 -21 22v644h-200q-8 0 -13 5.5t-5 13.5t5 13t13 5h440zM170 -217q-8 0 -11.5 4t-0.5 11l61 163q5 15 19 15h25q14 0 8 -13l-78 -169q-5 -11 -17 -11h-6z" />
    <glyph glyph-name="uni021B" unicode="&#x21b;" horiz-adv-x="279" 
d="M221 40q10 4 19 -0.5t9 -13.5q0 -31 -78 -31q-75 0 -75 72v414h-57q-19 0 -19 20q0 19 19 19h57v101q0 8 6 14.5t15 6.5t14.5 -6t5.5 -15v-101h92q20 0 20 -19q0 -9 -6 -14.5t-14 -5.5h-92v-406q0 -44 44 -44q20 0 40 9zM167 -23q14 0 8 -13l-78 -169q-5 -11 -17 -11h-6
q-8 0 -11.5 4t-0.5 11l61 163q5 15 19 15h25z" />
    <glyph glyph-name="uni0237" unicode="&#x237;" horiz-adv-x="195" 
d="M115 523q8 0 14 -6t6 -14v-572q0 -136 -109 -136q-42 0 -72 19q-14 10 -14 21q0 9 9 14t18 0q36 -18 59 -18q68 0 68 96v576q0 8 6 14t15 6z" />
    <glyph glyph-name="circumflex" unicode="&#x2c6;" horiz-adv-x="264" 
d="M134 800q13 0 23 -12l103 -137q6 -9 3 -16.5t-12 -7.5t-17 9l-102 126l-102 -126q-8 -9 -17 -9t-12.5 7.5t2.5 16.5l104 137q9 12 23 12h4z" />
    <glyph glyph-name="caron" unicode="&#x2c7;" horiz-adv-x="264" 
d="M134 627h-4q-14 0 -23 12l-104 137q-6 9 -2.5 16.5t12.5 7.5t17 -9l102 -126l102 126q8 9 17 9t12 -7.5t-3 -16.5l-103 -137q-10 -12 -23 -12z" />
    <glyph glyph-name="breve" unicode="&#x2d8;" horiz-adv-x="279" 
d="M263 770q7 0 12 -6.5t4 -12.5q-8 -50 -45 -85t-95 -35q-57 0 -94 35t-45 85q-1 6 4 12.5t12 6.5q15 0 19 -14q8 -38 35 -62t69 -24q43 0 69.5 24t35.5 62q2 14 19 14z" />
    <glyph glyph-name="dotaccent" unicode="&#x2d9;" horiz-adv-x="56" 
d="M29 707q-11 0 -17.5 6.5t-6.5 17.5q0 10 6.5 16t17.5 6q9 0 15.5 -6t6.5 -16t-6.5 -17t-15.5 -7z" />
    <glyph glyph-name="ring" unicode="&#x2da;" horiz-adv-x="154" 
d="M78 776q31 0 53.5 -22.5t22.5 -53.5t-22.5 -53.5t-53.5 -22.5q-33 0 -55.5 22.5t-22.5 53.5t22.5 53.5t55.5 22.5zM77 744q-18 0 -31 -13t-13 -31t13 -31t31 -13t30.5 13t12.5 31t-12.5 31t-30.5 13z" />
    <glyph glyph-name="ogonek" unicode="&#x2db;" horiz-adv-x="184" 
d="M184 0q-58 -13 -102 -43.5t-44 -77.5q0 -55 64 -55q29 0 29 -15q0 -16 -42 -16q-35 0 -62 21.5t-27 66.5q0 26 15.5 50t35.5 38t36.5 22.5t21.5 8.5h75z" />
    <glyph glyph-name="tilde" unicode="&#x2dc;" horiz-adv-x="331" 
d="M90 717q27 0 49.5 -10t35.5 -21.5t30.5 -21.5t34.5 -10q51 0 60 37q2 12 13 12q5 0 9.5 -4.5t3.5 -11.5q-4 -36 -28.5 -54t-58.5 -18q-37 0 -78.5 33.5t-71.5 33.5q-51 0 -59 -43q0 -4 -4 -7.5t-8 -3.5q-7 0 -10.5 5t-2.5 9q5 36 30.5 55.5t54.5 19.5z" />
    <glyph glyph-name="hungarumlaut" unicode="&#x2dd;" horiz-adv-x="279" 
d="M118 770q10 0 17.5 -7t7.5 -18q0 -3 -5 -13l-112 -161q-3 -6 -11 -6q-6 0 -8.5 5.5t0.5 10.5l90 176q9 13 21 13zM257 770q11 0 18 -7t7 -18q0 -3 -5 -13l-112 -161q-3 -6 -11 -6q-6 0 -8.5 5.5t0.5 10.5l90 176q9 13 21 13z" />
    <glyph glyph-name="uni0326" unicode="&#x326;" horiz-adv-x="0" 
d="M-131 -216q-8 0 -11.5 4t-0.5 11l61 163q5 15 19 15h25q14 0 8 -13l-78 -169q-5 -11 -17 -11h-6z" />
    <glyph glyph-name="uni0394" unicode="&#x394;" horiz-adv-x="733" 
d="M375 700l308 -700h-633l308 700h17zM367 624l-257 -586h513z" />
    <glyph glyph-name="uni03A9" unicode="&#x3a9;" horiz-adv-x="794" 
d="M397 707q136 0 241.5 -101t105.5 -249q0 -175 -176 -292v-26h130q21 0 21 -19q0 -20 -21 -20h-168v83l46 35q127 95 127 239q0 133 -94 223t-212 90t-212 -90t-94 -223q0 -144 127 -239l46 -35v-83h-168q-21 0 -21 20q0 19 21 19h130v26q-176 117 -176 292
q0 148 105.5 249t241.5 101z" />
    <glyph glyph-name="uni03BC" unicode="&#x3bc;" horiz-adv-x="566" 
d="M485 522q9 0 15 -6.5t6 -15.5v-485q0 -8 -6 -14.5t-15 -6.5q-8 0 -14 6.5t-6 14.5v107q-3 -14 -17 -34t-37 -42.5t-62 -38t-84 -15.5q-110 0 -164 77v-241q0 -8 -6 -14.5t-14 -6.5q-9 0 -15 6.5t-6 14.5v675q0 8 6 14t15 6q4 0 6 -1q19 -2 19 -22v-298q0 -88 47 -129.5
t115 -41.5q79 0 132 51t65 119v299q0 8 6 15t14 7z" />
    <glyph glyph-name="pi" unicode="&#x3c0;" horiz-adv-x="633" 
d="M517 32q21 0 47 7q8 3 16 -2t8 -14q0 -12 -11 -16q-28 -13 -55 -13q-43 0 -65.5 23t-22.5 77v389h-247v-464q0 -8 -5.5 -15t-14.5 -7t-15 7t-6 15v464h-83q-8 0 -13 5.5t-5 13.5t5.5 13t12.5 5h495q8 0 13.5 -5.5t5.5 -12.5q0 -8 -5.5 -13.5t-13.5 -5.5h-83v-396
q0 -33 9.5 -44t32.5 -11z" />
    <glyph glyph-name="uni0401" unicode="&#x401;" horiz-adv-x="526" 
d="M152 825q-11 0 -19 8t-8 19t8 19t19 8q10 0 18 -8t8 -19t-7.5 -19t-18.5 -8zM374 825q-11 0 -18.5 8t-7.5 19t8 19t18 8q11 0 19 -8t8 -19t-8 -19t-19 -8zM102 38h370q7 0 13 -5.5t6 -13.5t-6 -13.5t-13 -5.5h-390q-22 0 -22 22v656q0 22 22 22h380q7 0 13 -5.5t6 -13.5
t-6 -13.5t-13 -5.5h-360v-292h265q7 0 12.5 -5t5.5 -13t-5.5 -13t-12.5 -5h-265v-296z" />
    <glyph glyph-name="uni0404" unicode="&#x404;" horiz-adv-x="629" 
d="M565 103q8 0 13.5 -5.5t5.5 -13.5q0 -10 -13 -22q-85 -69 -200 -69q-87 0 -165.5 44.5t-129.5 127.5t-51 185q0 154 105.5 255.5t245.5 101.5q107 0 194 -67q14 -12 14 -24q0 -8 -5.5 -13.5t-13.5 -5.5q-9 0 -31 18q-62 53 -161 53q-115 0 -206.5 -85t-98.5 -214h232
q8 0 13 -5.5t5 -12.5q0 -8 -5 -13.5t-13 -5.5h-233q7 -129 99.5 -214.5t204.5 -85.5q100 0 164 53q21 18 30 18z" />
    <glyph glyph-name="uni0407" unicode="&#x407;" horiz-adv-x="161" 
d="M-30 825q-11 0 -19 8t-8 19t8 19t19 8q10 0 18 -8t8 -19t-7.5 -19t-18.5 -8zM192 825q-11 0 -18.5 8t-7.5 19t8 19t18 8q11 0 19 -8t8 -19t-8 -19t-19 -8zM81 703q9 0 14.5 -6t5.5 -15v-663q0 -9 -5.5 -15.5t-14.5 -6.5t-15 6.5t-6 15.5v663q0 8 6 14.5t15 6.5z" />
    <glyph glyph-name="uni0410" unicode="&#x410;" horiz-adv-x="687" 
d="M651 25q1 -2 1 -8q0 -8 -6 -14.5t-14 -6.5q-11 0 -20 13l-88 204h-360l-89 -204q-7 -13 -19 -13q-9 0 -15 6.5t-6 14.5q0 2 0.5 4.5t0.5 3.5l287 662q7 16 21 16q13 0 20 -16zM179 249h329l-164 379z" />
    <glyph glyph-name="uni0411" unicode="&#x411;" horiz-adv-x="556" 
d="M265 426q117 0 184 -55.5t67 -154.5t-67.5 -157.5t-183.5 -58.5h-183q-22 0 -22 22v660q0 10 6 14q8 4 12 4h386q7 0 13 -5.5t6 -12.5q0 -8 -6 -13.5t-13 -5.5h-362v-237h163zM268 37q100 0 153.5 47.5t53.5 131.5t-53 128.5t-154 44.5h-166v-352h166z" />
    <glyph glyph-name="uni0412" unicode="&#x412;" horiz-adv-x="558" 
d="M364 381q154 -42 154 -187q0 -94 -66.5 -144t-191.5 -50h-178q-22 0 -22 22v656q0 22 22 22h177q107 0 163.5 -47.5t56.5 -125.5q0 -111 -115 -146zM102 663v-264h157q90 0 134.5 30.5t44.5 96.5q0 63 -46 100t-133 37h-157zM260 37q217 0 217 157q0 80 -56 124.5
t-161 44.5h-158v-326h158z" />
    <glyph glyph-name="uni0413" unicode="&#x413;" horiz-adv-x="494" 
d="M439 700q8 0 14 -5.5t6 -12.5q0 -8 -6 -13.5t-14 -5.5h-338v-644q0 -8 -6 -15t-14 -7q-9 0 -15 7t-6 15v659q0 22 22 22h357z" />
    <glyph glyph-name="uni0414" unicode="&#x414;" horiz-adv-x="712" 
d="M613 38h47q22 0 22 -22v-65q0 -7 -5.5 -13t-13.5 -6q-9 0 -14.5 6t-5.5 13v49h-574v-49q0 -7 -5.5 -13t-13.5 -6q-9 0 -14.5 6t-5.5 13v65q0 22 22 22h18q19 34 30 76t15.5 123.5t5 132t0.5 190.5v118q0 22 21 22h449q22 0 22 -22v-640zM112 38h460v625h-410v-103
q0 -238 -8.5 -347.5t-41.5 -174.5z" />
    <glyph glyph-name="uni0415" unicode="&#x415;" horiz-adv-x="526" 
d="M102 38h370q7 0 13 -5.5t6 -13.5t-6 -13.5t-13 -5.5h-390q-22 0 -22 22v656q0 22 22 22h380q7 0 13 -5.5t6 -13.5t-6 -13.5t-13 -5.5h-360v-292h265q7 0 12.5 -5t5.5 -13t-5.5 -13t-12.5 -5h-265v-296z" />
    <glyph glyph-name="uni0416" unicode="&#x416;" horiz-adv-x="1076" 
d="M1040 32q6 -8 6 -14q0 -8 -6 -14.5t-14 -6.5q-10 0 -15 7l-316 333l-136 -139v-179q0 -11 -8 -17q-5 -5 -12 -5h-1h-1q-7 0 -12 5q-8 6 -8 17v179l-136 139l-316 -333q-5 -7 -15 -7q-8 0 -14 6.5t-6 14.5q0 6 6 14l319 331l-299 305q-5 6 -5 15q0 8 5.5 14t13.5 6
q6 0 15 -7l432 -443v428q0 9 6 15.5t14 6.5h1h1q8 0 14 -6.5t6 -15.5v-428l432 443q9 7 15 7q8 0 13.5 -6t5.5 -14q0 -9 -5 -15l-299 -305z" />
    <glyph glyph-name="uni0417" unicode="&#x417;" horiz-adv-x="565" 
d="M280 707q87 0 149 -51t62 -121q0 -52 -35 -94t-108 -61q80 -16 128.5 -63.5t48.5 -120.5q0 -90 -71 -148t-174 -58q-98 0 -164.5 54t-76.5 136q0 9 7 16t17 7q9 0 15 -6t7 -15q8 -66 62.5 -110.5t132.5 -44.5q87 0 144.5 46.5t57.5 122.5q0 72 -58.5 114.5t-153.5 47.5
q-7 0 -12.5 5.5t-5.5 12.5q0 16 17 18q85 9 131.5 48.5t46.5 93.5q0 57 -48 95.5t-119 38.5q-70 0 -118.5 -40.5t-55.5 -110.5q0 -8 -6 -14t-15 -6q-10 0 -17 7t-6 16q8 84 69 134.5t149 50.5z" />
    <glyph glyph-name="uni0418" unicode="&#x418;" horiz-adv-x="660" 
d="M80 703q8 0 14.5 -7t6.5 -15v-607l460 617q11 12 22 12q6 0 11.5 -4.5t5.5 -12.5v-666q0 -9 -6 -16t-14 -7t-14.5 7t-6.5 16v606l-460 -616q-11 -13 -22 -13q-6 0 -11.5 5t-5.5 13v666q0 8 6 15t14 7z" />
    <glyph glyph-name="uni0419" unicode="&#x419;" horiz-adv-x="660" 
d="M454 950q7 0 12 -6.5t4 -12.5q-8 -50 -45 -85t-95 -35q-57 0 -94 35t-45 85q-1 6 4 12.5t12 6.5q15 0 19 -14q8 -38 35 -62t69 -24q43 0 69.5 24t35.5 62q2 14 19 14zM80 703q8 0 14.5 -7t6.5 -15v-607l460 617q11 12 22 12q6 0 11.5 -4.5t5.5 -12.5v-666q0 -9 -6 -16
t-14 -7t-14.5 7t-6.5 16v606l-460 -616q-11 -13 -22 -13q-6 0 -11.5 5t-5.5 13v666q0 8 6 15t14 7z" />
    <glyph glyph-name="uni041A" unicode="&#x41a;" horiz-adv-x="619" 
d="M583 32q6 -8 6 -14q0 -8 -6 -14.5t-14 -6.5q-10 0 -15 7l-316 333l-136 -139v-179q0 -9 -6.5 -15.5t-15.5 -6.5q-8 0 -14 7t-6 16v661q0 9 6 15.5t14 6.5q9 0 15.5 -6.5t6.5 -15.5v-428l432 443q9 7 15 7q8 0 13.5 -6t5.5 -14q0 -9 -5 -15l-299 -305z" />
    <glyph glyph-name="uni041B" unicode="&#x41b;" horiz-adv-x="689" 
d="M608 700q21 0 21 -22v-659q0 -8 -6 -15t-14 -7q-9 0 -15 7t-6 15v644h-420v-598q0 -36 -25 -53.5t-54 -17.5q-74 0 -74 28q0 9 7.5 15.5t16.5 2.5q23 -10 46 -10t32.5 9.5t9.5 36.5v602q0 22 22 22h459z" />
    <glyph glyph-name="uni041C" unicode="&#x41c;" horiz-adv-x="859" 
d="M782 703q17 0 17 -16v-668q0 -8 -6 -15t-14 -7q-9 0 -15.5 7t-6.5 15v584l-308 -569q-8 -13 -20 -13q-9 0 -19 13l-309 569v-584q0 -9 -6 -15.5t-15 -6.5q-8 0 -14 7t-6 15v668q0 16 17 16t24 -15l328 -609l329 609q8 15 24 15z" />
    <glyph glyph-name="uni041D" unicode="&#x41d;" horiz-adv-x="621" 
d="M519 682q0 8 6.5 14.5t15.5 6.5q8 0 14 -6.5t6 -14.5v-664q0 -8 -6 -14.5t-14 -6.5q-9 0 -15.5 6.5t-6.5 14.5v303h-417v-303q0 -8 -6 -14.5t-15 -6.5t-15 6.5t-6 14.5v664q0 8 6 14.5t15 6.5t15 -6.5t6 -14.5v-323h417v323z" />
    <glyph glyph-name="uni041E" unicode="&#x41e;" horiz-adv-x="794" 
d="M397 707q136 0 241.5 -102t105.5 -255t-105.5 -255t-241.5 -102t-241.5 102t-105.5 255t105.5 255t241.5 102zM397 669q-119 0 -212 -91t-93 -228t93 -228t212 -91t212 91t93 228t-93 228t-212 91z" />
    <glyph glyph-name="uni041F" unicode="&#x41f;" horiz-adv-x="619" 
d="M537 700q22 0 22 -22v-659q0 -8 -6 -15t-14 -7q-9 0 -15 7t-6 15v644h-417v-644q0 -8 -6 -15t-14 -7q-9 0 -15 7t-6 15v659q0 22 22 22h455z" />
    <glyph glyph-name="uni0420" unicode="&#x420;" horiz-adv-x="551" 
d="M265 700q116 0 183.5 -57.5t67.5 -152.5q0 -102 -66.5 -158.5t-184.5 -56.5h-163v-256q0 -9 -6 -15.5t-15 -6.5t-15 6.5t-6 15.5v659q0 22 22 22h183zM266 312q100 0 154.5 46t54.5 132q0 79 -55.5 126t-153.5 47h-164v-351h164z" />
    <glyph glyph-name="uni0421" unicode="&#x421;" horiz-adv-x="644" 
d="M590 103q8 0 13.5 -5.5t5.5 -13.5q0 -10 -13 -22q-85 -69 -200 -69q-87 0 -165.5 44.5t-129.5 127.5t-51 185q0 154 105.5 255.5t245.5 101.5q107 0 194 -67q14 -12 14 -24q0 -8 -5.5 -13.5t-13.5 -5.5t-31 18q-62 53 -161 53q-119 0 -212.5 -91t-93.5 -227
q0 -90 45.5 -164.5t114.5 -114t144 -39.5q100 0 164 53q21 18 30 18z" />
    <glyph glyph-name="uni0422" unicode="&#x422;" horiz-adv-x="537" 
d="M488 700q8 0 13.5 -5.5t5.5 -12.5q0 -8 -5.5 -13.5t-13.5 -5.5h-199v-644q0 -9 -5.5 -15.5t-14.5 -6.5q-21 0 -21 22v644h-200q-8 0 -13 5.5t-5 13.5t5 13t13 5h440z" />
    <glyph glyph-name="uni0423" unicode="&#x423;" horiz-adv-x="595" 
d="M530 693q7 10 17 10q7 0 12.5 -6t5.5 -13q0 -6 -2 -9l-369 -668q-4 -9 -16 -9q-18 0 -18 18q0 4 3 9l114 207l-245 443q-3 5 -3 9q0 7 6 13t13 6q11 0 16 -10l234 -423z" />
    <glyph glyph-name="uni0424" unicode="&#x424;" horiz-adv-x="796" 
d="M438 635q140 0 229 -80t89 -205t-89 -205t-229 -80h-21v-46q0 -8 -6 -15t-14 -7q-9 0 -15 7t-6 15v46h-18q-140 0 -229 80t-89 205t89 205t229 80h18v47q0 8 6 14.5t15 6.5q8 0 14 -6.5t6 -14.5v-47h21zM358 103h18v495h-18q-121 0 -199 -69t-78 -179q0 -109 78 -178
t199 -69zM438 103q120 0 198.5 69t78.5 178t-78.5 178.5t-198.5 69.5h-21v-495h21z" />
    <glyph glyph-name="uni0425" unicode="&#x425;" horiz-adv-x="618" 
d="M568 29q5 -8 5 -15t-5.5 -12t-13.5 -5q-10 0 -18 12l-226 321l-228 -321q-8 -12 -18 -12q-8 0 -13.5 5t-5.5 12t5 15l237 333l-220 309q-5 10 -5 15q0 7 6 12t13 5q10 0 18 -11l211 -297l209 297q8 11 18 11q7 0 13 -5t6 -12q0 -5 -5 -15l-220 -309z" />
    <glyph glyph-name="uni0426" unicode="&#x426;" horiz-adv-x="656" 
d="M604 38q22 0 22 -22v-66q0 -8 -6 -14t-14 -6t-14 6t-6 14v50h-504q-22 0 -22 22v659q0 8 6 15t15 7q8 0 14 -7t6 -15v-644h401v1h16v643q0 8 6 15t15 7q8 0 14 -7t6 -15v-643h45z" />
    <glyph glyph-name="uni0427" unicode="&#x427;" horiz-adv-x="564" 
d="M463 683q0 8 6 14t15 6q8 0 14 -6t6 -14v-664q0 -8 -6 -15t-14 -7q-9 0 -15 7t-6 15v325q-14 -37 -69 -76t-138 -39q-39 0 -74.5 10t-67 31t-50.5 59.5t-19 89.5v264q0 8 6 14t15 6q8 0 14 -6t6 -14v-264q0 -71 48 -111t120 -40q78 0 135.5 42.5t73.5 94.5v278z" />
    <glyph glyph-name="uni0428" unicode="&#x428;" horiz-adv-x="1017" 
d="M937 703q8 0 14 -7t6 -15v-659q0 -22 -22 -22h-853q-22 0 -22 22v659q0 9 6 15.5t15 6.5q8 0 14 -7t6 -15v-643h387v643q0 9 6 15.5t15 6.5q8 0 14 -7t6 -15v-643h387v643q0 9 6 15.5t15 6.5z" />
    <glyph glyph-name="uni0429" unicode="&#x429;" horiz-adv-x="1054" 
d="M1002 38q22 0 22 -22v-66q0 -8 -6 -14t-14 -6t-14 6t-6 14v50h-902q-22 0 -22 22v659q0 9 6 15.5t15 6.5q8 0 14 -7t6 -15v-643h387v643q0 9 6 15.5t15 6.5q8 0 14 -7t6 -15v-643h387v643q0 9 6 15.5t15 6.5q8 0 14 -7t6 -15v-643h45z" />
    <glyph glyph-name="uni042A" unicode="&#x42a;" horiz-adv-x="625" 
d="M333 425q118 0 184.5 -56.5t66.5 -158.5q0 -95 -67.5 -152.5t-183.5 -57.5h-183q-22 0 -22 22v643h-90q-8 0 -13 5.5t-5 13.5t5.5 13.5t12.5 5.5h112q20 -2 20 -22v-256h163zM334 37q98 0 153.5 47t55.5 126q0 86 -54.5 132t-154.5 46h-164v-351h164z" />
    <glyph glyph-name="uni042B" unicode="&#x42b;" horiz-adv-x="732" 
d="M265 425q118 0 184.5 -56.5t66.5 -158.5q0 -95 -67.5 -152.5t-183.5 -57.5h-183q-22 0 -22 22v659q0 9 6 15.5t15 6.5t15 -6.5t6 -15.5v-256h163zM651 703q9 0 14.5 -6t5.5 -15v-663q0 -9 -5.5 -15.5t-14.5 -6.5t-15 6.5t-6 15.5v663q0 8 6 14.5t15 6.5zM266 37
q98 0 153.5 47t55.5 126q0 86 -54.5 132t-154.5 46h-164v-351h164z" />
    <glyph glyph-name="uni042C" unicode="&#x42c;" horiz-adv-x="551" 
d="M265 425q118 0 184.5 -56.5t66.5 -158.5q0 -95 -67.5 -152.5t-183.5 -57.5h-183q-22 0 -22 22v659q0 9 6 15.5t15 6.5t15 -6.5t6 -15.5v-256h163zM266 37q98 0 153.5 47t55.5 126q0 86 -54.5 132t-154.5 46h-164v-351h164z" />
    <glyph glyph-name="uni042D" unicode="&#x42d;" horiz-adv-x="629" 
d="M233 707q140 0 245.5 -101.5t105.5 -255.5q0 -102 -51 -185t-129.5 -127.5t-165.5 -44.5q-115 0 -200 69q-13 12 -13 22q0 8 5.5 13.5t13.5 5.5q9 0 30 -18q64 -53 164 -53q112 0 204.5 85.5t99.5 214.5h-233q-8 0 -13 5.5t-5 13.5q0 7 5.5 12.5t12.5 5.5h232
q-7 129 -98.5 214t-206.5 85q-99 0 -161 -53q-23 -18 -31 -18t-13.5 5.5t-5.5 13.5q0 12 14 24q87 67 194 67z" />
    <glyph glyph-name="uni042E" unicode="&#x42e;" horiz-adv-x="952" 
d="M556 707q136 0 241.5 -102t105.5 -255t-105.5 -255t-241.5 -102q-85 0 -162 42t-128.5 121t-56.5 176h-108v-313q0 -9 -5.5 -15.5t-14.5 -6.5t-15 6.5t-6 15.5v663q0 8 6 14.5t15 6.5t14.5 -6t5.5 -15v-313h108q5 97 56.5 175.5t128.5 120.5t162 42zM556 31q119 0 212 91
t93 228t-93 228t-212 91t-212 -91t-93 -228t93 -228t212 -91z" />
    <glyph glyph-name="uni042F" unicode="&#x42f;" horiz-adv-x="566" 
d="M484 700q22 0 22 -22v-659q0 -9 -6 -15.5t-15 -6.5t-15 6.5t-6 15.5v256h-163h-11l-215 -270q-6 -8 -17 -8q-18 0 -18 18q0 10 5 16l201 248q-93 12 -144.5 67t-51.5 144q0 95 67.5 152.5t183.5 57.5h183zM300 312h164v351h-164q-98 0 -153.5 -47t-55.5 -126
q0 -86 54.5 -132t154.5 -46z" />
    <glyph glyph-name="uni0430" unicode="&#x430;" 
d="M290 526q64 0 119 -31t84 -92v98q0 9 6 15.5t15 6.5q20 0 20 -22v-485q0 -8 -6 -15t-14 -7q-9 0 -15 6.5t-6 15.5v106q-32 -65 -86.5 -97t-116.5 -32q-43 0 -86.5 17t-80.5 49t-60 84.5t-23 116.5q0 124 77.5 195t172.5 71zM291 31q80 0 142.5 61t62.5 168
q0 110 -62 169.5t-143 59.5q-79 0 -144.5 -60.5t-65.5 -168.5q0 -109 65.5 -169t144.5 -60z" />
    <glyph glyph-name="uni0431" unicode="&#x431;" horiz-adv-x="595" 
d="M305 526q95 0 172.5 -71t77.5 -195q0 -64 -23 -116.5t-60 -84.5t-80.5 -49t-86.5 -17q-62 0 -116.5 32t-86.5 97v-106q0 -9 -6 -15.5t-15 -6.5q-8 0 -14 7t-6 15v383h-1v121q0 93 45 136.5t146 43.5h116q43 0 64 19q7 5 15 5q7 0 12 -5t5 -10q0 -8 -4 -14
q-31 -34 -107 -34h-101q-76 0 -112.5 -31.5t-36.5 -109.5v-117q29 61 84 92t119 31zM304 31q79 0 144.5 60t65.5 169q0 108 -65.5 168.5t-144.5 60.5q-81 0 -143 -59.5t-62 -169.5q0 -107 62.5 -168t142.5 -61z" />
    <glyph glyph-name="uni0432" unicode="&#x432;" horiz-adv-x="519" 
d="M374 287q56 -15 83 -52.5t27 -86.5q0 -148 -208 -148h-194q-22 0 -22 22v476q0 22 22 22h194q83 0 126 -34t43 -92q0 -37 -18 -66.5t-53 -40.5zM101 482v-180h175q129 0 129 88q0 92 -129 92h-175zM276 38q168 0 168 109q0 119 -168 119h-175v-228h175z" />
    <glyph glyph-name="uni0433" unicode="&#x433;" horiz-adv-x="456" 
d="M407 520q8 0 13.5 -5.5t5.5 -12.5q0 -8 -5.5 -13.5t-13.5 -5.5h-306v-464q0 -8 -6 -15t-14 -7q-9 0 -15 7t-6 15v479q0 22 22 22h325z" />
    <glyph glyph-name="uni0434" unicode="&#x434;" horiz-adv-x="575" 
d="M528 38q22 0 22 -22v-66q0 -8 -6 -14.5t-15 -6.5q-8 0 -14 6.5t-6 14.5v50h-443v-50q0 -8 -6 -14.5t-14 -6.5q-9 0 -15 6.5t-6 14.5v66q0 22 22 22h13q18 31 26.5 92t9.5 114.5t1 183.5v70q0 22 22 22h368q21 0 21 -22v-460h20zM138 428v-32q0 -115 -1 -166.5
t-8.5 -106.5t-22.5 -85h361v445h-329v-55z" />
    <glyph glyph-name="uni0435" unicode="&#x435;" horiz-adv-x="580" 
d="M291 526q44 0 87.5 -17t80 -48t59 -81.5t22.5 -110.5q0 -12 -7.5 -19.5t-20.5 -7.5h-430q2 -52 22 -93.5t51 -66t67.5 -37.5t74.5 -13q90 0 145 52q14 15 22 15q19 0 19 -18q0 -9 -13 -23q-64 -63 -173 -63q-102 0 -179.5 69.5t-77.5 195.5q0 64 23 116t60 84t80.5 49
t87.5 17zM291 489q-76 0 -139.5 -55t-69.5 -153h419q-6 98 -70 153t-140 55z" />
    <glyph glyph-name="uni0436" unicode="&#x436;" horiz-adv-x="774" 
d="M744 30q6 -6 6 -13t-6 -13.5t-14 -6.5q-7 0 -13 6l-242 243l-67 -67v-161q0 -8 -6 -14.5t-14 -6.5h-1q-8 0 -14 6.5t-6 14.5v161l-67 67l-242 -243q-6 -6 -13 -6t-13.5 6.5t-6.5 13.5t6 13l243 243l-219 218q-6 5 -6 13t5 13.5t13 5.5q5 0 13 -6l287 -286v272q0 8 6 14
t14 6h1q8 0 14 -6t6 -14v-272l287 286q8 6 13 6q8 0 13 -5.5t5 -13.5t-6 -13l-218 -218z" />
    <glyph glyph-name="uni0437" unicode="&#x437;" horiz-adv-x="484" 
d="M239 525q73 0 123 -41t50 -97q0 -37 -25.5 -66.5t-75.5 -42.5q57 -8 95 -42.5t38 -88.5q0 -69 -59.5 -111.5t-141.5 -42.5q-80 0 -137.5 41.5t-66.5 105.5q-1 11 6.5 17.5t16.5 6.5q8 0 14 -6.5t8 -15.5q6 -48 51 -79.5t108 -31.5t111.5 30.5t48.5 82.5q0 50 -47.5 81
t-120.5 33q-6 -1 -11.5 5t-5.5 12q0 17 18 19q65 4 100 29.5t35 64.5q0 43 -37.5 71t-92.5 28q-51 0 -89 -25t-46 -63q-1 -8 -7.5 -14t-14.5 -6q-9 0 -15.5 8.5t-4.5 19.5q11 50 60 84t115 34z" />
    <glyph glyph-name="uni0438" unicode="&#x438;" horiz-adv-x="553" 
d="M433 511q16 21 38 12.5t22 -34.5v-470q0 -8 -6 -15t-14 -7q-9 0 -15 7t-6 15v453l-332 -463q-16 -21 -38 -12.5t-22 34.5v471q0 8 6 14.5t15 6.5q8 0 14 -6.5t6 -14.5v-454z" />
    <glyph glyph-name="uni0439" unicode="&#x439;" horiz-adv-x="553" 
d="M401 770q7 0 12 -6.5t4 -12.5q-8 -50 -45 -85t-95 -35q-57 0 -94 35t-45 85q-1 6 4 12.5t12 6.5q15 0 19 -14q8 -38 35 -62t69 -24q43 0 69.5 24t35.5 62q2 14 19 14zM433 511q16 21 38 12.5t22 -34.5v-470q0 -8 -6 -15t-14 -7q-9 0 -15 7t-6 15v453l-332 -463
q-16 -21 -38 -12.5t-22 34.5v471q0 8 6 14.5t15 6.5q8 0 14 -6.5t6 -14.5v-454z" />
    <glyph glyph-name="uni043A" unicode="&#x43a;" horiz-adv-x="468" 
d="M437 30q6 -6 6 -13t-6.5 -13.5t-13.5 -6.5t-13 6l-242 243l-67 -67v-161q0 -8 -6 -14.5t-14 -6.5q-9 0 -15 7t-6 15v484q0 8 6 14t15 6q8 0 14 -6t6 -14v-272l287 286q8 6 13 6q8 0 13 -5.5t5 -13.5t-6 -13l-218 -218z" />
    <glyph glyph-name="uni043B" unicode="&#x43b;" horiz-adv-x="593" 
d="M511 520q22 0 22 -22v-482q0 -8 -6 -15t-14 -7q-9 0 -15 6.5t-6 15.5v467h-327v-418q0 -37 -23 -54t-58 -17q-25 0 -47 8.5t-22 24.5q0 8 8 14t15 3q32 -10 48 -10q20 0 29 7.5t9 34.5v422q0 22 22 22h365z" />
    <glyph glyph-name="uni043C" unicode="&#x43c;" horiz-adv-x="732" 
d="M604 505q14 24 41 16.5t27 -35.5v-467q0 -8 -6 -15t-15 -7t-14.5 7t-5.5 15v452l-243 -462q-8 -13 -22.5 -13t-21.5 13l-243 462v-452q0 -8 -6 -15t-14 -7q-9 0 -15 7t-6 15v467q0 28 27 35.5t40 -16.5l239 -457z" />
    <glyph glyph-name="uni043D" unicode="&#x43d;" horiz-adv-x="554" 
d="M453 503q0 8 5.5 14t14.5 6t15 -6t6 -14v-484q0 -8 -6 -15t-15 -7t-14.5 7t-5.5 15v223h-352v-223q0 -8 -6 -15t-14 -7q-9 0 -15 7t-6 15v484q0 8 6 14t15 6q8 0 14 -6t6 -14v-224h352v224z" />
    <glyph glyph-name="uni043E" unicode="&#x43e;" horiz-adv-x="590" 
d="M295 526q97 0 176 -71t79 -195q0 -64 -23.5 -116.5t-61 -84.5t-81.5 -49t-89 -17t-89 17t-81.5 49t-61 84.5t-23.5 116.5q0 124 79 195t176 71zM295 489q-81 0 -147.5 -60t-66.5 -169q0 -57 20 -102.5t52 -72.5t68.5 -41t73.5 -14q80 0 146.5 60.5t66.5 169.5t-66.5 169
t-146.5 60z" />
    <glyph glyph-name="uni043F" unicode="&#x43f;" horiz-adv-x="529" 
d="M447 520q22 0 22 -22v-479q0 -8 -6 -15t-14 -7q-9 0 -15 7t-6 15v464h-327v-464q0 -8 -6 -15t-14 -7q-9 0 -15 7t-6 15v479q0 22 22 22h365z" />
    <glyph glyph-name="uni0440" unicode="&#x440;" 
d="M304 526q95 0 172.5 -71t77.5 -195q0 -64 -23 -116.5t-60 -84.5t-80.5 -49t-86.5 -17q-62 0 -116.5 32t-86.5 97v-294q0 -8 -6 -14.5t-14 -6.5q-9 0 -15 6.5t-6 14.5v673q0 22 20 22q9 0 15 -6.5t6 -15.5v-98q29 61 84 92t119 31zM303 31q79 0 144.5 60t65.5 169
q0 108 -65.5 168.5t-144.5 60.5q-81 0 -143 -59.5t-62 -169.5q0 -107 62.5 -168t142.5 -61z" />
    <glyph glyph-name="uni0441" unicode="&#x441;" horiz-adv-x="537" 
d="M477 130q20 0 20 -19q0 -6 -5 -15q-33 -49 -85.5 -75t-111.5 -26q-45 0 -89.5 17t-82 48.5t-60.5 83.5t-23 116q0 124 78.5 195t176.5 71q60 0 112 -25.5t85 -74.5q5 -10 5 -16q0 -19 -20 -19q-12 0 -22 17q-25 39 -68 60t-90 21q-82 0 -149 -60t-67 -169q0 -108 67 -168
t149 -60q47 0 90 21t68 60q10 17 22 17z" />
    <glyph glyph-name="uni0442" unicode="&#x442;" horiz-adv-x="449" 
d="M400 520q8 0 13.5 -5.5t5.5 -12.5q0 -8 -5.5 -13.5t-13.5 -5.5h-156v-464q0 -8 -5.5 -15t-14.5 -7t-15 7t-6 15v464h-155q-8 0 -13 5.5t-5 13.5t5 13t13 5h352z" />
    <glyph glyph-name="uni0443" unicode="&#x443;" horiz-adv-x="514" 
d="M464 523q8 0 14 -6t6 -14q0 -2 -2 -8l-286 -678q-4 -12 -19 -12q-18 0 -18 20q0 1 0.5 4t0.5 4l76 181l-205 481q0 2 -0.5 4.5t-0.5 3.5q0 8 6 14t14 6q14 0 19 -12l188 -447l188 447q4 12 19 12z" />
    <glyph glyph-name="uni0444" unicode="&#x444;" horiz-adv-x="1027" 
d="M737 526q95 0 172.5 -71t77.5 -195q0 -64 -23 -116.5t-60 -84.5t-80.5 -49t-86.5 -17q-62 0 -116.5 32t-86.5 97v-294q0 -8 -6 -14.5t-14 -6.5q-9 0 -15 6.5t-6 14.5v289q-29 -61 -84 -92t-119 -31q-95 0 -172.5 71t-77.5 195q0 64 23 116.5t60 84.5t80.5 49t86.5 17
q62 0 116.5 -32t86.5 -97v294q0 8 6 14.5t14 6.5q9 0 15 -6.5t6 -14.5v-289q29 61 84 92t119 31zM291 31q72 0 130.5 48t71.5 137v87q-13 88 -72 137t-130 49q-79 0 -144.5 -60t-65.5 -169q0 -108 65.5 -168.5t144.5 -60.5zM736 31q79 0 144.5 60t65.5 169
q0 108 -65.5 168.5t-144.5 60.5q-72 0 -130.5 -48t-71.5 -137v-87q13 -88 72 -137t130 -49z" />
    <glyph glyph-name="uni0445" unicode="&#x445;" horiz-adv-x="471" 
d="M433 25q3 -9 3 -11q0 -8 -5 -13.5t-13 -5.5q-10 0 -14 7l-168 232l-168 -232q-4 -7 -15 -7q-8 0 -13 5.5t-5 13.5q0 2 3 11l175 238l-169 231q-4 6 -4 11q0 8 5.5 13t13.5 5q10 0 15 -7l162 -222l161 222q5 7 15 7q8 0 13.5 -5t5.5 -13q0 -5 -4 -11l-169 -231z" />
    <glyph glyph-name="uni0446" unicode="&#x446;" horiz-adv-x="542" 
d="M491 38q21 0 21 -22v-66q0 -8 -6 -14t-13 -6q-9 0 -15 6t-6 14v50h-390q-22 0 -22 22v479q0 8 6 15t15 7q8 0 14 -7t6 -15v-464h319v1h8v463q0 8 6 15t15 7q8 0 14 -7t6 -15v-463h22z" />
    <glyph glyph-name="uni0447" unicode="&#x447;" horiz-adv-x="512" 
d="M411 503q0 8 6 14t15 6q8 0 14 -6t6 -14v-484q0 -8 -6 -15t-14 -7q-9 0 -15 7t-6 15v274q-9 -33 -65.5 -73t-132.5 -40q-33 0 -61 8t-53 27t-39.5 55t-14.5 87v146q0 8 6 14t15 6q8 0 14 -6t6 -14v-147q0 -69 36.5 -102.5t95.5 -33.5q71 0 125 43t68 89v151z" />
    <glyph glyph-name="uni0448" unicode="&#x448;" horiz-adv-x="749" 
d="M648 502q0 8 6 14.5t15 6.5q8 0 14 -6.5t6 -14.5v-480q0 -22 -22 -22h-585q-22 0 -22 22v480q0 8 6 14.5t15 6.5q8 0 14 -6.5t6 -14.5v-464h253v464q0 8 6 14.5t15 6.5q8 0 14 -6.5t6 -14.5v-464h253v464z" />
    <glyph glyph-name="uni0449" unicode="&#x449;" horiz-adv-x="762" 
d="M711 38q21 0 21 -22v-66q0 -8 -6 -14t-13 -6q-9 0 -15 6t-6 14v50h-610q-22 0 -22 22v480q0 8 6 14.5t15 6.5q8 0 14 -6.5t6 -14.5v-464h253v464q0 8 6 14.5t15 6.5q8 0 14 -6.5t6 -14.5v-464h253v464q0 8 6 14.5t15 6.5q8 0 14 -6.5t6 -14.5v-464h22z" />
    <glyph glyph-name="uni044A" unicode="&#x44a;" horiz-adv-x="585" 
d="M349 303q202 0 202 -156q0 -147 -202 -147h-204q-22 0 -22 22v464h-70q-8 0 -13 5.5t-5 13.5q0 7 5.5 12.5t12.5 5.5h92q19 -2 19 -20v-200h185zM351 38q90 0 124.5 27.5t34.5 81.5q0 56 -35 87.5t-124 31.5h-187v-228h187z" />
    <glyph glyph-name="uni044B" unicode="&#x44b;" horiz-adv-x="687" 
d="M286 303q202 0 202 -156q0 -147 -202 -147h-204q-22 0 -22 22v481q0 8 6 14t15 6q8 0 14 -6t6 -14v-200h185zM606 523q9 0 15 -6t6 -14v-484q0 -8 -6 -15t-15 -7t-14.5 7t-5.5 15v484q0 8 5.5 14t14.5 6zM288 38q90 0 124.5 27.5t34.5 81.5q0 56 -35 87.5t-124 31.5h-187
v-228h187z" />
    <glyph glyph-name="uni044C" unicode="&#x44c;" horiz-adv-x="523" 
d="M286 303q202 0 202 -156q0 -147 -202 -147h-204q-22 0 -22 22v481q0 8 6 14t15 6q8 0 14 -6t6 -14v-200h185zM288 38q90 0 124.5 27.5t34.5 81.5q0 56 -35 87.5t-124 31.5h-187v-228h187z" />
    <glyph glyph-name="uni044D" unicode="&#x44d;" horiz-adv-x="537" 
d="M242 526q98 0 176.5 -71t78.5 -195q0 -64 -23 -116t-60.5 -83.5t-82 -48.5t-89.5 -17q-59 0 -111.5 26t-85.5 75q-5 9 -5 15q0 19 20 19q12 0 22 -17q25 -39 68 -60t90 -21q49 0 95 21.5t81 70.5t39 117h-154q-8 0 -13.5 5.5t-5.5 13.5t5.5 13.5t13.5 5.5h154
q-6 100 -71.5 155t-143.5 55q-47 0 -90 -21t-68 -60q-10 -17 -22 -17q-20 0 -20 19q0 6 5 16q33 49 85 74.5t112 25.5z" />
    <glyph glyph-name="uni044E" unicode="&#x44e;" horiz-adv-x="728" 
d="M435 526q97 0 176 -71t79 -195q0 -64 -23.5 -116.5t-61 -84.5t-81.5 -49t-89 -17q-59 0 -114 26.5t-96 85t-45 137.5h-79v-223q0 -8 -6 -15t-14 -7q-9 0 -15 7t-6 15v484q0 8 6 14t15 6q8 0 14 -6t6 -14v-225h79q7 116 84.5 182t170.5 66zM435 30q80 0 146.5 60.5
t66.5 169.5t-66.5 169t-146.5 60q-81 0 -147.5 -60t-66.5 -169q0 -57 20 -102.5t52 -72.5t68.5 -41t73.5 -14z" />
    <glyph glyph-name="uni044F" unicode="&#x44f;" horiz-adv-x="511" 
d="M429 520q22 0 22 -22v-481q0 -8 -6 -14t-15 -6q-8 0 -14 6t-6 14v200h-160l-188 -213q-7 -7 -14 -7t-13 6.5t-6 14.5q0 5 5 12l171 187q-182 9 -182 156t202 147h204zM410 254v228h-187q-90 0 -124.5 -27.5t-34.5 -81.5q0 -56 35 -87.5t124 -31.5h187z" />
    <glyph glyph-name="uni0451" unicode="&#x451;" horiz-adv-x="580" 
d="M165 645q-11 0 -19 8t-8 19t8 19t19 8q10 0 18 -8t8 -19t-7.5 -19t-18.5 -8zM387 645q-11 0 -18.5 8t-7.5 19t8 19t18 8q11 0 19 -8t8 -19t-8 -19t-19 -8zM291 526q44 0 87.5 -17t80 -48t59 -81.5t22.5 -110.5q0 -12 -7.5 -19.5t-20.5 -7.5h-430q2 -52 22 -93.5t51 -66
t67.5 -37.5t74.5 -13q90 0 145 52q14 15 22 15q19 0 19 -18q0 -9 -13 -23q-64 -63 -173 -63q-102 0 -179.5 69.5t-77.5 195.5q0 64 23 116t60 84t80.5 49t87.5 17zM291 489q-76 0 -139.5 -55t-69.5 -153h419q-6 98 -70 153t-140 55z" />
    <glyph glyph-name="uni0454" unicode="&#x454;" horiz-adv-x="537" 
d="M477 130q20 0 20 -19q0 -6 -5 -15q-33 -49 -85.5 -75t-111.5 -26q-45 0 -89.5 17t-82 48.5t-60.5 83.5t-23 116q0 124 78.5 195t176.5 71q60 0 112 -25.5t85 -74.5q5 -10 5 -16q0 -19 -20 -19q-12 0 -22 17q-25 39 -68 60t-90 21q-78 0 -143.5 -55t-71.5 -155h154
q8 0 13.5 -5.5t5.5 -13.5t-5.5 -13.5t-13.5 -5.5h-154q4 -68 39 -117t81 -70.5t95 -21.5q47 0 90 21t68 60q10 17 22 17z" />
    <glyph glyph-name="uni0457" unicode="&#x457;" horiz-adv-x="191" 
d="M-15 645q-11 0 -19 8t-8 19t8 19t19 8q10 0 18 -8t8 -19t-7.5 -19t-18.5 -8zM207 645q-11 0 -18.5 8t-7.5 19t8 19t18 8q11 0 19 -8t8 -19t-8 -19t-19 -8zM96 523q8 0 14 -6t6 -14v-484q0 -8 -6 -15t-14 -7q-9 0 -15 7t-6 15v484q0 8 6 14t15 6z" />
    <glyph glyph-name="uni0490" unicode="&#x490;" horiz-adv-x="494" 
d="M442 751q7 0 12 -5.5t5 -12.5v-53q-2 -17 -20 -17h-338v-644q0 -8 -6 -15t-14 -7q-9 0 -15 7t-6 15v659q0 22 22 22h342v33q0 7 5 12.5t13 5.5z" />
    <glyph glyph-name="uni0491" unicode="&#x491;" horiz-adv-x="456" 
d="M409 570q7 0 12 -5.5t5 -13.5v-50q-2 -18 -19 -18h-306v-464q0 -8 -6 -15t-14 -7q-9 0 -15 7t-6 15v479q0 22 22 22h309v31q0 8 5.5 13.5t12.5 5.5z" />
    <glyph glyph-name="Wgrave" unicode="&#x1e80;" horiz-adv-x="1031" 
d="M417 950q12 0 21 -13l90 -176q3 -5 0.5 -10.5t-8.5 -5.5q-8 0 -11 6l-112 161q-5 10 -5 13q0 11 7 18t18 7zM975 703q9 0 15 -6.5t6 -14.5q0 -2 -0.5 -4.5t-0.5 -3.5l-209 -662q-5 -16 -22 -16q-16 0 -21 16l-228 609l-227 -609q-5 -16 -21 -16q-17 0 -22 16l-209 662
q0 1 -0.5 3.5t-0.5 4.5q0 8 6 14.5t15 6.5q12 0 19 -13l193 -619l229 618q5 14 18 14q14 0 19 -14l229 -618l193 619q4 13 19 13z" />
    <glyph glyph-name="wgrave" unicode="&#x1e81;" horiz-adv-x="798" 
d="M301 770q12 0 21 -13l90 -176q3 -5 0.5 -10.5t-8.5 -5.5q-8 0 -11 6l-112 161q-5 10 -5 13q0 11 7 18t18 7zM748 523q8 0 14 -6t6 -14q0 -2 -2 -8l-159 -481q-7 -16 -19 -16q-13 0 -18 16l-171 439l-170 -439q-5 -16 -18 -16q-14 0 -19 16l-161 481q0 2 -0.5 4.5
t-0.5 3.5q0 8 6 14t14 6q15 0 19 -13l144 -440l166 439q5 14 20 14t20 -14l168 -439l141 440q4 13 20 13z" />
    <glyph glyph-name="Wacute" unicode="&#x1e82;" horiz-adv-x="1031" 
d="M598 950q10 0 17.5 -7t7.5 -18q0 -3 -5 -13l-112 -161q-3 -6 -11 -6q-6 0 -8.5 5.5t0.5 10.5l90 176q9 13 21 13zM975 703q9 0 15 -6.5t6 -14.5q0 -2 -0.5 -4.5t-0.5 -3.5l-209 -662q-5 -16 -22 -16q-16 0 -21 16l-228 609l-227 -609q-5 -16 -21 -16q-17 0 -22 16
l-209 662q0 1 -0.5 3.5t-0.5 4.5q0 8 6 14.5t15 6.5q12 0 19 -13l193 -619l229 618q5 14 18 14q14 0 19 -14l229 -618l193 619q4 13 19 13z" />
    <glyph glyph-name="wacute" unicode="&#x1e83;" horiz-adv-x="798" 
d="M482 770q10 0 17.5 -7t7.5 -18q0 -3 -5 -13l-112 -161q-3 -6 -11 -6q-6 0 -8.5 5.5t0.5 10.5l90 176q9 13 21 13zM748 523q8 0 14 -6t6 -14q0 -2 -2 -8l-159 -481q-7 -16 -19 -16q-13 0 -18 16l-171 439l-170 -439q-5 -16 -18 -16q-14 0 -19 16l-161 481q0 2 -0.5 4.5
t-0.5 3.5q0 8 6 14t14 6q15 0 19 -13l144 -440l166 439q5 14 20 14t20 -14l168 -439l141 440q4 13 20 13z" />
    <glyph glyph-name="Wdieresis" unicode="&#x1e84;" horiz-adv-x="1031" 
d="M404 825q-11 0 -19 8t-8 19t8 19t19 8q10 0 18 -8t8 -19t-7.5 -19t-18.5 -8zM626 825q-11 0 -18.5 8t-7.5 19t8 19t18 8q11 0 19 -8t8 -19t-8 -19t-19 -8zM975 703q9 0 15 -6.5t6 -14.5q0 -2 -0.5 -4.5t-0.5 -3.5l-209 -662q-5 -16 -22 -16q-16 0 -21 16l-228 609
l-227 -609q-5 -16 -21 -16q-17 0 -22 16l-209 662q0 1 -0.5 3.5t-0.5 4.5q0 8 6 14.5t15 6.5q12 0 19 -13l193 -619l229 618q5 14 18 14q14 0 19 -14l229 -618l193 619q4 13 19 13z" />
    <glyph glyph-name="wdieresis" unicode="&#x1e85;" horiz-adv-x="798" 
d="M288 645q-11 0 -19 8t-8 19t8 19t19 8q10 0 18 -8t8 -19t-7.5 -19t-18.5 -8zM510 645q-11 0 -18.5 8t-7.5 19t8 19t18 8q11 0 19 -8t8 -19t-8 -19t-19 -8zM748 523q8 0 14 -6t6 -14q0 -2 -2 -8l-159 -481q-7 -16 -19 -16q-13 0 -18 16l-171 439l-170 -439q-5 -16 -18 -16
q-14 0 -19 16l-161 481q0 2 -0.5 4.5t-0.5 3.5q0 8 6 14t14 6q15 0 19 -13l144 -440l166 439q5 14 20 14t20 -14l168 -439l141 440q4 13 20 13z" />
    <glyph glyph-name="Ygrave" unicode="&#x1ef2;" horiz-adv-x="579" 
d="M191 950q12 0 21 -13l90 -176q3 -5 0.5 -10.5t-8.5 -5.5q-8 0 -11 6l-112 161q-5 10 -5 13q0 11 7 18t18 7zM530 702q8 0 13.5 -5t5.5 -13t-5 -15l-233 -336v-314q0 -8 -6.5 -15t-15.5 -7t-15 7t-6 15v314l-233 336q-6 9 -6 15q0 18 20 18q12 0 18 -11l222 -321l223 321
q6 11 18 11z" />
    <glyph glyph-name="ygrave" unicode="&#x1ef3;" horiz-adv-x="514" 
d="M254 571l-112 161q-5 10 -5 13q0 11 7.5 18t17.5 7q12 0 21 -13l90 -176q3 -5 0.5 -10.5t-8.5 -5.5q-8 0 -11 6zM464 523q8 0 14 -6t6 -14q0 -2 -2 -8l-286 -678q-4 -12 -19 -12q-18 0 -18 20q0 1 0.5 4t0.5 4l76 181l-205 481q0 2 -0.5 4.5t-0.5 3.5q0 8 6 14t14 6
q14 0 19 -12l188 -447l188 447q4 12 19 12z" />
    <glyph glyph-name="endash" unicode="&#x2013;" horiz-adv-x="604" 
d="M543 299q16 0 16 -16t-16 -16h-482q-16 0 -16 16t16 16h482z" />
    <glyph glyph-name="emdash" unicode="&#x2014;" horiz-adv-x="664" 
d="M603 299q16 0 16 -16t-16 -16h-542q-16 0 -16 16t16 16h542z" />
    <glyph glyph-name="quoteleft" unicode="&#x2018;" horiz-adv-x="174" 
d="M131 700q8 0 11.5 -4t0.5 -11l-61 -163q-5 -15 -19 -15h-25q-14 0 -8 13l78 169q5 11 17 11h6z" />
    <glyph glyph-name="quoteright" unicode="&#x2019;" horiz-adv-x="174" 
d="M43 507q-8 0 -11.5 4t-0.5 11l61 163q5 15 19 15h25q14 0 8 -13l-78 -169q-5 -11 -17 -11h-6z" />
    <glyph glyph-name="quotesinglbase" unicode="&#x201a;" horiz-adv-x="179" 
d="M43 -136q-8 0 -11.5 4t-0.5 11l61 163q5 15 19 15h25q14 0 8 -13l-78 -169q-5 -11 -17 -11h-6z" />
    <glyph glyph-name="quotedblleft" unicode="&#x201c;" horiz-adv-x="278" 
d="M132 700q8 0 11.5 -4t0.5 -11l-61 -163q-5 -15 -19 -15h-25q-14 0 -8 13l78 169q5 11 17 11h6zM235 700q8 0 11.5 -4t0.5 -11l-61 -163q-5 -15 -19 -15h-25q-14 0 -8 13l78 169q5 11 17 11h6z" />
    <glyph glyph-name="quotedblright" unicode="&#x201d;" horiz-adv-x="278" 
d="M43 507q-8 0 -11.5 4t-0.5 11l61 163q5 15 19 15h25q14 0 8 -13l-78 -169q-5 -11 -17 -11h-6zM146 507q-8 0 -11.5 4t-0.5 11l61 163q5 15 19 15h25q14 0 8 -13l-78 -169q-5 -11 -17 -11h-6z" />
    <glyph glyph-name="quotedblbase" unicode="&#x201e;" horiz-adv-x="283" 
d="M43 -136q-8 0 -11.5 4t-0.5 11l61 163q5 15 19 15h25q14 0 8 -13l-78 -169q-5 -11 -17 -11h-6zM146 -136q-8 0 -11.5 4t-0.5 11l61 163q5 15 19 15h25q14 0 8 -13l-78 -169q-5 -11 -17 -11h-6z" />
    <glyph glyph-name="dagger" unicode="&#x2020;" horiz-adv-x="280" 
d="M235 559v-34h-76l-7 -210h-23l-7 210h-77v34h76l-5 141h49l-5 -141h75z" />
    <glyph glyph-name="daggerdbl" unicode="&#x2021;" horiz-adv-x="270" 
d="M151 559h79v-31h-81l-10 -154h-7l-10 154h-82v31h80l-9 141h49zM139 326l10 -154h81v-31h-79l9 -141h-49l9 141h-80v31h82l10 154h7z" />
    <glyph glyph-name="bullet" unicode="&#x2022;" horiz-adv-x="203" 
d="M102 231q-22 0 -37 15t-15 35q0 21 15 36t37 15q21 0 36 -15t15 -36q0 -20 -15 -35t-36 -15z" />
    <glyph glyph-name="ellipsis" unicode="&#x2026;" horiz-adv-x="631" 
d="M68 0q-11 0 -19.5 8.5t-8.5 20.5q0 11 8.5 19.5t19.5 8.5q12 0 20.5 -8.5t8.5 -19.5q0 -12 -8.5 -20.5t-20.5 -8.5zM315 0q-11 0 -19.5 8.5t-8.5 20.5q0 11 8.5 19.5t19.5 8.5q12 0 20.5 -8.5t8.5 -19.5q0 -12 -8.5 -20.5t-20.5 -8.5zM562 0q-11 0 -19.5 8.5t-8.5 20.5
q0 11 8.5 19.5t19.5 8.5q12 0 20.5 -8.5t8.5 -19.5q0 -12 -8.5 -20.5t-20.5 -8.5z" />
    <glyph glyph-name="perthousand" unicode="&#x2030;" horiz-adv-x="1009" 
d="M168 705q51 0 87.5 -36t36.5 -87t-36.5 -87t-87.5 -36t-87 36t-36 87t36 87t87 36zM556 687q5 8 14 8q19 0 19 -19q0 -3 -4 -9l-437 -653q-5 -8 -16 -8q-8 0 -13.5 5.5t-5.5 13.5q0 1 3 10zM168 671q-36 0 -62 -25.5t-26 -63.5q0 -37 26 -62.5t62 -25.5q37 0 63.5 25.5
t26.5 62.5q0 38 -26.5 63.5t-63.5 25.5zM529 241q51 0 87.5 -36t36.5 -87t-36.5 -87t-87.5 -36t-87 36t-36 87t36 87t87 36zM840 241q51 0 87.5 -36t36.5 -87t-36.5 -87t-87.5 -36t-87 36t-36 87t36 87t87 36zM529 207q-36 0 -62 -25.5t-26 -63.5q0 -37 26 -62.5t62 -25.5
q37 0 63.5 25.5t26.5 62.5q0 38 -26.5 63.5t-63.5 25.5zM840 207q-37 0 -63 -25.5t-26 -63.5q0 -37 26.5 -62.5t62.5 -25.5q37 0 63 25.5t26 62.5q0 38 -26 63.5t-63 25.5z" />
    <glyph glyph-name="guilsinglleft" unicode="&#x2039;" horiz-adv-x="248" 
d="M40 294q0 11 11 24l133 126q8 6 16 2t8 -12q0 -9 -9 -18l-121 -124l121 -124q9 -8 9 -18q0 -8 -8 -12t-16 3l-133 126q-11 11 -11 23v4z" />
    <glyph glyph-name="guilsinglright" unicode="&#x203a;" horiz-adv-x="248" 
d="M208 294v-4q0 -12 -11 -23l-133 -126q-8 -7 -16 -3t-8 12q0 10 9 18l121 124l-121 124q-9 9 -9 18q0 8 8 12t16 -2l133 -126q11 -13 11 -24z" />
    <glyph glyph-name="fraction" unicode="&#x2044;" horiz-adv-x="108" 
d="M288 700l-430 -700h-48l436 700h42z" />
    <glyph glyph-name="Euro" unicode="&#x20ac;" horiz-adv-x="690" 
d="M636 103q8 0 13.5 -5.5t5.5 -13.5q0 -10 -13 -22q-85 -69 -200 -69q-118 0 -217 80.5t-123 207.5h-50q-7 0 -12 5t-5 12t5 11.5t12 4.5h46q-2 24 -2 36q0 15 1 23h-45q-7 0 -12 4.5t-5 11.5t5 12t12 5h48q20 132 120 216.5t227 84.5q107 0 194 -67q14 -12 14 -24
q0 -8 -5.5 -13.5t-13.5 -5.5t-31 18q-62 53 -161 53q-105 0 -193 -73.5t-108 -188.5h147q16 0 16 -17q0 -16 -16 -16h-151q-1 -8 -1 -23q0 -12 2 -36h150q16 0 16 -16q0 -17 -16 -17h-145q24 -110 110.5 -179.5t186.5 -69.5t164 53q21 18 30 18z" />
    <glyph glyph-name="uni20B4" unicode="&#x20b4;" horiz-adv-x="579" 
d="M163 276q-49 -37 -49 -98q0 -70 55.5 -107.5t132.5 -37.5q70 0 120.5 31t74.5 86q6 16 22 16q19 0 19 -22q0 -6 -2 -12q-25 -65 -90.5 -102t-142.5 -37q-92 0 -161 50t-69 135q0 58 35 98h-51q-7 0 -12 5t-5 12t5 12.5t12 5.5h92q37 24 122 58l30 12h-244q-7 0 -12 5
t-5 12t5 12t12 5h324q92 46 92 125q0 60 -44 94t-117 34q-118 0 -170 -103q-9 -16 -23 -16q-18 0 -18 18q0 10 7 24q27 49 80 82.5t123 33.5q86 0 145 -47.5t59 -121.5q0 -71 -63 -123h70q7 0 12 -5t5 -12t-5 -12t-12 -5h-123q-5 -2 -47 -21l-81 -33q-8 -3 -23 -9t-18 -7
h292q7 0 12 -5.5t5 -12.5t-5 -12t-12 -5h-359z" />
    <glyph glyph-name="trademark" unicode="&#x2122;" horiz-adv-x="546" 
d="M235 700v-28h-69v-152h-31v152h-70v28h170zM481 700v-180h-31v101l-71 -101h-7l-70 101v-101h-32v180h12l93 -132l93 132h13z" />
    <glyph glyph-name="oneeighth" unicode="&#x215b;" horiz-adv-x="556" 
d="M100 701v-261h-37v221l-17 -11l-18 31l35 20h37zM503 700l-430 -700h-48l436 700h42zM439 263q36 0 57.5 -20t21.5 -47q0 -34 -30 -53q43 -21 43 -66q0 -34 -27 -56.5t-65 -22.5q-37 0 -64 22.5t-27 56.5q0 45 43 66q-30 19 -30 53q0 26 21.5 46.5t56.5 20.5zM439 232
q-20 0 -30.5 -10.5t-10.5 -25.5t12.5 -27t28.5 -12q17 0 29 11.5t12 27.5q0 36 -41 36zM439 126q-22 0 -38 -14t-16 -35q0 -20 16 -34t38 -14q24 0 39 13t15 35t-15 35.5t-39 13.5z" />
    <glyph glyph-name="threeeighths" unicode="&#x215c;" horiz-adv-x="574" 
d="M116 703q32 0 56 -20.5t24 -47.5q0 -32 -30 -53q42 -18 42 -66q0 -34 -27.5 -57t-64.5 -23q-40 0 -66.5 27t-24.5 64h38q1 -25 15 -42t38 -17q22 0 38 13.5t16 34.5q0 48 -74 48v29q63 0 63 42q0 16 -12.5 26.5t-30.5 10.5q-22 0 -34.5 -14.5t-12.5 -40.5h-37
q-1 38 23 62t61 24zM523 700l-430 -700h-48l436 700h42zM457 263q36 0 57.5 -20t21.5 -47q0 -34 -30 -53q43 -21 43 -66q0 -34 -27 -56.5t-65 -22.5q-37 0 -64 22.5t-27 56.5q0 45 43 66q-30 19 -30 53q0 26 21.5 46.5t56.5 20.5zM457 232q-20 0 -30.5 -10.5t-10.5 -25.5
t12.5 -27t28.5 -12q17 0 29 11.5t12 27.5q0 36 -41 36zM457 126q-22 0 -38 -14t-16 -35q0 -20 16 -34t38 -14q24 0 39 13t15 35t-15 35.5t-39 13.5z" />
    <glyph glyph-name="fiveeighths" unicode="&#x215d;" horiz-adv-x="576" 
d="M186 701v-32h-104l-8 -58q22 10 45 10q35 0 63 -26.5t28 -65.5t-28 -66t-67 -27q-33 0 -58.5 18.5t-31.5 43.5l33 19q2 -20 17.5 -34.5t39.5 -14.5q23 0 40 17.5t17 43.5q0 25 -16.5 42.5t-36.5 17.5q-35 0 -57 -29l-32 8l18 133h138zM523 700l-430 -700h-48l436 700h42z
M459 263q36 0 57.5 -20t21.5 -47q0 -34 -30 -53q43 -21 43 -66q0 -34 -27 -56.5t-65 -22.5q-37 0 -64 22.5t-27 56.5q0 45 43 66q-30 19 -30 53q0 26 21.5 46.5t56.5 20.5zM459 232q-20 0 -30.5 -10.5t-10.5 -25.5t12.5 -27t28.5 -12q17 0 29 11.5t12 27.5q0 36 -41 36z
M459 126q-22 0 -38 -14t-16 -35q0 -20 16 -34t38 -14q24 0 39 13t15 35t-15 35.5t-39 13.5z" />
    <glyph glyph-name="seveneighths" unicode="&#x215e;" horiz-adv-x="556" 
d="M200 701l-102 -261h-39l89 229h-121v32h173zM503 700l-430 -700h-48l436 700h42zM439 263q36 0 57.5 -20t21.5 -47q0 -34 -30 -53q43 -21 43 -66q0 -34 -27 -56.5t-65 -22.5q-37 0 -64 22.5t-27 56.5q0 45 43 66q-30 19 -30 53q0 26 21.5 46.5t56.5 20.5zM439 232
q-20 0 -30.5 -10.5t-10.5 -25.5t12.5 -27t28.5 -12q17 0 29 11.5t12 27.5q0 36 -41 36zM439 126q-22 0 -38 -14t-16 -35q0 -20 16 -34t38 -14q24 0 39 13t15 35t-15 35.5t-39 13.5z" />
    <glyph glyph-name="partialdiff" unicode="&#x2202;" horiz-adv-x="539" 
d="M196 694l132 -173q12 -17 46.5 -61t48.5 -64t34.5 -55.5t28.5 -67.5t8 -66q0 -89 -67.5 -153t-157.5 -64t-157 64.5t-67 154.5q0 89 67.5 153t156.5 64q51 0 100 -24l-204 270q-4 4 -4 11q0 8 6 14t14 6t15 -9zM269 388q-72 0 -127.5 -49.5t-55.5 -129.5t56 -131t127 -51
q70 0 127 52t57 130q0 83 -51 131t-133 48z" />
    <glyph glyph-name="product" unicode="&#x220f;" horiz-adv-x="639" 
d="M45 778q0 22 22 22h505q22 0 22 -22v-952q0 -8 -5 -13.5t-12 -5.5q-8 0 -13.5 5.5t-5.5 13.5v932h-477v-932q0 -8 -5 -13.5t-12 -5.5q-8 0 -13.5 5.5t-5.5 13.5v952z" />
    <glyph glyph-name="summation" unicode="&#x2211;" horiz-adv-x="628" 
d="M561 800q9 0 15.5 -6t6.5 -15q0 -10 -6.5 -16.5t-15.5 -6.5h-460l249 -442q4 -9 0 -18l-249 -442h460q9 0 15.5 -6.5t6.5 -16.5q0 -9 -6.5 -15t-15.5 -6h-490q-16 0 -23 12.5t1 26.5l255 456l-255 456q-8 14 -1 26.5t23 12.5h490z" />
    <glyph glyph-name="minus" unicode="&#x2212;" horiz-adv-x="425" 
d="M364 299q17 0 17 -16t-17 -16h-302q-17 0 -17 16t17 16h302z" />
    <glyph glyph-name="radical" unicode="&#x221a;" horiz-adv-x="636" 
d="M571 801q10 0 15.5 -7t3.5 -15l-235 -951q-2 -8 -9 -14.5t-17 -6.5q-19 0 -25 19l-155 461h-84q-8 0 -14 5.5t-6 13.5t6 14t14 6h97q15 0 20 -14l145 -439l225 915q3 13 19 13z" />
    <glyph glyph-name="infinity" unicode="&#x221e;" horiz-adv-x="801" 
d="M590 424q66 0 113.5 -48t47.5 -114q0 -68 -47 -116.5t-114 -48.5q-97 0 -189 129q-94 -129 -190 -129q-67 0 -114 48.5t-47 116.5q0 66 47.5 114t113.5 48q95 0 190 -127q93 127 189 127zM213 137q81 0 162 125q-80 121 -162 121q-51 0 -87 -35t-36 -86q0 -52 36 -88.5
t87 -36.5zM587 137q52 0 88 36.5t36 88.5q0 51 -36 86t-88 35q-81 0 -161 -121q81 -125 161 -125z" />
    <glyph glyph-name="integral" unicode="&#x222b;" horiz-adv-x="267" 
d="M257 800v-37q-46 0 -72 -24.5t-26 -87.5v-689q0 -152 -139 -152v37q46 0 72 24.5t26 87.5v689q0 152 139 152z" />
    <glyph glyph-name="approxequal" unicode="&#x2248;" horiz-adv-x="453" 
d="M141 407q30 0 55.5 -10.5t40 -23t34 -23t40.5 -10.5q57 0 69 36q4 13 16 13q13 0 13 -15q-6 -34 -32 -51.5t-64 -17.5q-45 0 -91.5 35t-81.5 35q-58 0 -68 -42q-3 -13 -15 -13q-15 0 -11 18q6 33 33.5 51t61.5 18zM141 248q38 0 67.5 -17t53.5 -33.5t49 -16.5q57 0 69 36
q4 13 16 13q13 0 13 -15q-6 -34 -32 -51.5t-64 -17.5q-45 0 -91.5 35t-81.5 35q-58 0 -68 -42q-3 -13 -15 -13q-15 0 -11 18q6 33 33.5 51t61.5 18z" />
    <glyph glyph-name="notequal" unicode="&#x2260;" horiz-adv-x="427" 
d="M364 220q17 0 17 -16t-17 -16h-170l-70 -180q-3 -9 -15 -9q-8 0 -13 6.5t-2 15.5l65 167h-97q-17 0 -17 16t17 16h109l49 126h-158q-17 0 -17 16t17 16h170l68 175q6 11 16 11q8 0 13 -7.5t3 -16.5l-63 -162h95q17 0 17 -16t-17 -16h-108l-49 -126h157z" />
    <glyph glyph-name="lessequal" unicode="&#x2264;" horiz-adv-x="427" 
d="M348 581q2 1 8 1t10.5 -5t4.5 -11q0 -10 -8 -14l-281 -177l280 -175q9 -5 9 -16q0 -7 -5 -11.5t-11 -4.5q-5 0 -7 3l-291 183q-12 7 -12 21t11 21zM364 32q17 0 17 -16t-17 -16h-302q-17 0 -17 16t17 16h302z" />
    <glyph glyph-name="greaterequal" unicode="&#x2265;" horiz-adv-x="427" 
d="M79 581l292 -185q11 -7 11 -21t-12 -21l-291 -183q-1 -3 -7 -3t-11 4.5t-5 11.5q0 11 9 16l280 175l-281 177q-8 4 -8 14q0 6 4.5 11t10.5 5t8 -1zM63 32h302q17 0 17 -16t-17 -16h-302q-17 0 -17 16t17 16z" />
    <glyph glyph-name="lozenge" unicode="&#x25ca;" horiz-adv-x="445" 
d="M223 703q23 0 32 -23l144 -323q3 -7 0 -14l-144 -323q-9 -23 -32 -23q-24 0 -33 23l-143 323q-4 7 0 14l143 323q9 23 33 23zM223 42l136 308l-136 308l-137 -308z" />
    <glyph glyph-name="Q.ss01" horiz-adv-x="791" 
d="M736 -29q18 0 18 -19q0 -24 -40 -47.5t-89 -23.5q-39 0 -77.5 17.5t-64 39t-60.5 39t-68 17.5q-56 0 -109 -63q-8 -8 -16 -8t-14 6t-6 14q0 6 4 12q33 39 73 57q-102 37 -169.5 127.5t-67.5 210.5q0 153 105.5 255t241.5 102t241.5 -102t105.5 -255q0 -134 -83 -230.5
t-201 -120.5q10 -6 47 -32t63 -36.5t58 -10.5q58 0 91 42q7 9 17 9zM92 350q0 -137 93 -228t212 -91t212 91t93 228t-93 228t-212 91t-212 -91t-93 -228z" />
    <glyph glyph-name="R.ss01" horiz-adv-x="593" 
d="M549 103q8 0 13.5 -5.5t5.5 -12.5q0 -8 -3 -13q-15 -33 -48.5 -55t-84.5 -22q-45 0 -78.5 19.5t-51 49t-36.5 64.5t-35.5 66t-47 54t-71.5 27h-10v-256q0 -9 -6 -15.5t-15 -6.5t-15 6.5t-6 15.5v659q0 22 22 22h183q116 0 183.5 -57.5t67.5 -152.5q0 -102 -66.5 -158.5
t-184.5 -56.5h-59q28 -20 50 -53.5t36 -65t31.5 -60.5t44.5 -46.5t66 -17.5q64 0 95 55q7 16 20 16zM266 663h-164v-351h164q100 0 154.5 46t54.5 132q0 79 -55.5 126t-153.5 47z" />
    <glyph glyph-name="R.ss02" horiz-adv-x="563" 
d="M389 296q75 -24 104.5 -90t29.5 -187q0 -9 -6 -15t-15 -6t-15 6t-6 15q0 143 -40.5 199.5t-161.5 56.5h-14h-163v-256q0 -9 -6 -15.5t-15 -6.5t-15 6.5t-6 15.5v659q0 22 22 22h183q116 0 183.5 -57.5t67.5 -152.5q0 -144 -127 -194zM102 312h164q100 0 154.5 46
t54.5 132q0 79 -55.5 126t-153.5 47h-164v-351z" />
    <glyph glyph-name="i.loclTRK" horiz-adv-x="191" 
d="M96 707q-10 0 -17 6.5t-7 17.5q0 10 6.5 16t17.5 6q9 0 15.5 -6t6.5 -16t-6.5 -17t-15.5 -7zM96 523q8 0 14 -6t6 -14v-484q0 -8 -6 -15t-14 -7q-9 0 -15 7t-6 15v484q0 8 6 14t15 6z" />
    <glyph glyph-name="t_t" horiz-adv-x="539" 
d="M481 40q10 4 19 -0.5t9 -13.5q0 -31 -78 -31q-75 0 -75 72v414h-219v-406q0 -44 44 -44q20 0 40 9q10 4 19 -0.5t9 -13.5q0 -31 -78 -31q-75 0 -75 72v414h-57q-19 0 -19 20q0 19 19 19h57v101q0 8 6 14.5t15 6.5t14.5 -6t5.5 -15v-101h219v101q0 8 6 14.5t15 6.5
t14.5 -6t5.5 -15v-101h92q20 0 20 -19q0 -9 -6 -14.5t-14 -5.5h-92v-406q0 -44 44 -44q20 0 40 9z" />
    <glyph glyph-name="zero.tf" horiz-adv-x="700" 
d="M340 707q113 0 186.5 -93.5t73.5 -250.5v-24q0 -157 -73.5 -250.5t-186.5 -93.5t-186.5 93.5t-73.5 250.5v24q0 157 73.5 250.5t186.5 93.5zM340 670q-94 0 -156.5 -82.5t-62.5 -224.5v-24q0 -143 62.5 -224.5t156.5 -81.5t156.5 81.5t62.5 224.5v24q0 142 -62.5 224.5
t-156.5 82.5z" />
    <glyph glyph-name="one.tf" horiz-adv-x="700" 
d="M341 700q22 0 22 -22v-659q0 -8 -6 -15t-15 -7q-8 0 -14 7t-6 15v644h-71q-8 0 -13 5.5t-5 13.5t5.5 13t12.5 5h90z" />
    <glyph glyph-name="two.tf" horiz-adv-x="700" 
d="M344 707q87 0 148 -56.5t61 -136.5q0 -21 -4.5 -41.5t-16.5 -43t-21.5 -39t-32 -43t-35.5 -41t-43.5 -47.5t-44.5 -49l-157 -172h349q8 0 13.5 -5.5t5.5 -13.5t-5.5 -13.5t-13.5 -5.5h-369q-20 0 -28 15.5t5 31.5l166 185q19 21 62 66.5t57 62t36.5 47.5t29.5 54.5
t7 50.5q0 67 -50 112t-119 45q-66 0 -113.5 -42.5t-54.5 -113.5q-1 -9 -7.5 -15.5t-15.5 -6.5q-8 0 -14 7t-6 17q10 85 68.5 138t142.5 53z" />
    <glyph glyph-name="three.tf" horiz-adv-x="700" 
d="M507 700q18 0 25.5 -14t-3.5 -30l-172 -240q88 -11 154.5 -66t66.5 -148q0 -92 -68 -152t-164 -60q-92 0 -155 54t-71 134q-1 10 5 17t15 7q8 0 15 -6t8 -15q8 -65 59 -109t124 -44q82 0 136.5 48t54.5 126q0 79 -54.5 123.5t-137.5 54.5q-30 4 -30 25q0 11 8 25l166 233
h-323q-8 0 -13 5.5t-5 13.5t5 13t13 5h341z" />
    <glyph glyph-name="four.tf" horiz-adv-x="700" 
d="M465 243h58q8 0 13.5 -5.5t5.5 -12.5q0 -8 -5.5 -14t-13.5 -6h-58v-186q0 -8 -6 -15t-15 -7q-8 0 -14 7t-6 15v186h-299q-20 0 -27 17t4 33l293 427q18 26 44 17t26 -39v-417zM424 659l-283 -416h283v416z" />
    <glyph glyph-name="five.tf" horiz-adv-x="700" 
d="M484 700q7 0 13 -5.5t6 -12.5q0 -8 -6 -13.5t-13 -5.5h-285l-34 -259q66 67 171 67q92 0 163 -68t71 -172t-71.5 -172.5t-174.5 -68.5q-73 0 -129.5 36t-87.5 93q-1 3 -1 8q0 8 6 14t14 6q14 0 19 -12q24 -46 73.5 -76.5t109.5 -30.5q83 0 142 58t59 145t-56.5 145.5
t-138.5 58.5q-96 0 -167 -76q-6 -9 -19 -9q-11 0 -19 9t-6 20l39 302q3 19 21 19h301z" />
    <glyph glyph-name="six.tf" horiz-adv-x="700" 
d="M441 703q8 0 14 -6t6 -14q0 -7 -4 -11l-204 -270q49 24 100 24q89 0 156.5 -64t67.5 -153q0 -90 -67 -154.5t-157 -64.5t-157.5 64t-67.5 153q0 34 8 66t28.5 67.5t34.5 55.5t48.5 64t46.5 61l132 173q7 9 15 9zM353 388q-82 0 -133 -48t-51 -131q0 -78 57 -130t127 -52
q71 0 127 51t56 131t-55.5 129.5t-127.5 49.5z" />
    <glyph glyph-name="seven.tf" horiz-adv-x="700" 
d="M528 700q15 0 22.5 -11.5t0.5 -24.5l-309 -655q-5 -12 -19 -12q-8 0 -14 6t-6 14q0 4 2 8l305 638h-354q-8 0 -13 5.5t-5 13.5t5 13t13 5h372z" />
    <glyph glyph-name="eight.tf" horiz-adv-x="700" 
d="M426 388q59 -22 95.5 -72t36.5 -118q0 -91 -63.5 -149t-150.5 -58t-151 58t-64 149q0 68 36.5 118t96.5 72q-43 21 -67.5 61t-24.5 88q0 69 49 119.5t125 50.5t125 -50.5t49 -119.5q0 -48 -25 -88t-67 -61zM207 537q0 -56 40.5 -95.5t96.5 -39.5t96 39.5t40 95.5
q0 53 -37.5 93.5t-98.5 40.5q-62 0 -99.5 -40.5t-37.5 -93.5zM344 26q72 0 124 47.5t52 124.5q0 75 -50.5 123t-125.5 48t-126 -48t-51 -123q0 -76 52.5 -124t124.5 -48z" />
    <glyph glyph-name="nine.tf" horiz-adv-x="700" 
d="M261 -4q-8 0 -14 6t-6 14q0 7 4 11l204 270q-49 -24 -100 -24q-89 0 -156.5 64t-67.5 153q0 90 67 154.5t157 64.5t157.5 -64t67.5 -153q0 -34 -8 -66t-28.5 -67.5t-34.5 -55.5t-48.5 -64t-46.5 -61l-132 -173q-7 -9 -15 -9zM349 311q82 0 133 48t51 131q0 78 -57 130
t-127 52q-71 0 -127 -51t-56 -131t55.5 -129.5t127.5 -49.5z" />
    <glyph glyph-name="zero.dnom" horiz-adv-x="260" 
d="M130 263q47 0 76 -35t29 -91v-13q0 -56 -29 -91t-76 -35q-45 0 -75 35t-30 91v13q0 56 30 91t75 35zM130 232q-29 0 -48.5 -25.5t-19.5 -69.5v-13q0 -44 19.5 -69.5t48.5 -25.5q31 0 49.5 25t18.5 70v13q0 45 -18.5 70t-49.5 25z" />
    <glyph glyph-name="one.dnom" horiz-adv-x="122" 
d="M97 261v-261h-37v221l-17 -11l-18 31l35 20h37z" />
    <glyph glyph-name="two.dnom" horiz-adv-x="221" 
d="M109 264q34 0 59 -22.5t25 -52.5q0 -26 -14.5 -47t-53.5 -61l-47 -49h118v-32h-168v32l68 69q28 29 36.5 38.5t15.5 22.5t7 27q0 18 -14 31t-32 13q-19 0 -33 -13t-14 -37v-14h-37v14q0 35 24.5 58t59.5 23z" />
    <glyph glyph-name="three.dnom" horiz-adv-x="233" 
d="M116 263q32 0 56 -20.5t24 -47.5q0 -32 -30 -53q42 -18 42 -66q0 -34 -27.5 -57t-64.5 -23q-40 0 -66.5 27t-24.5 64h38q1 -25 15 -42t38 -17q22 0 38 13.5t16 34.5q0 48 -74 48v29q63 0 63 42q0 16 -12.5 26.5t-30.5 10.5q-22 0 -34.5 -14.5t-12.5 -40.5h-37
q-1 38 23 62t61 24z" />
    <glyph glyph-name="four.dnom" horiz-adv-x="246" 
d="M194 261v-154h27v-31h-27v-76h-37v76h-132l132 185h37zM157 202l-65 -95h65v95z" />
    <glyph glyph-name="five.dnom" horiz-adv-x="235" 
d="M186 261v-32h-104l-8 -58q22 10 45 10q35 0 63 -26.5t28 -65.5t-28 -66t-67 -27q-33 0 -58.5 18.5t-31.5 43.5l33 19q2 -20 17.5 -34.5t39.5 -14.5q23 0 40 17.5t17 43.5q0 25 -16.5 42.5t-36.5 17.5q-35 0 -57 -29l-32 8l18 133h138z" />
    <glyph glyph-name="six.dnom" horiz-adv-x="223" 
d="M174 261l-68 -96h6q34 0 60 -25t26 -59q0 -35 -26 -60t-60 -25t-60.5 25t-26.5 60q0 16 5.5 31.5t10 23t18 25t16.5 21.5l57 79h42zM112 133q-22 0 -36 -14t-14 -38q0 -23 15.5 -38t34.5 -15q18 0 33.5 15t15.5 38t-15 37.5t-34 14.5z" />
    <glyph glyph-name="seven.dnom" horiz-adv-x="223" 
d="M198 261l-102 -261h-39l89 229h-121v32h173z" />
    <glyph glyph-name="eight.dnom" horiz-adv-x="233" 
d="M116 263q36 0 57.5 -20t21.5 -47q0 -34 -30 -53q43 -21 43 -66q0 -34 -27 -56.5t-65 -22.5q-37 0 -64 22.5t-27 56.5q0 45 43 66q-30 19 -30 53q0 26 21.5 46.5t56.5 20.5zM116 232q-20 0 -30.5 -10.5t-10.5 -25.5t12.5 -27t28.5 -12q18 0 29.5 11.5t11.5 27.5
q0 36 -41 36zM116 126q-22 0 -38 -14t-16 -35q0 -20 16 -34t38 -14q24 0 39 13t15 35t-15 35.5t-39 13.5z" />
    <glyph glyph-name="nine.dnom" horiz-adv-x="224" 
d="M112 264q34 0 60.5 -24.5t26.5 -59.5q0 -13 -2.5 -24t-9 -22.5t-10.5 -18t-14.5 -19.5t-14.5 -18l-56 -78h-43l68 95h-5q-35 0 -61 25.5t-26 59.5q0 35 26.5 59.5t60.5 24.5zM112 232q-19 0 -34.5 -15t-15.5 -37q0 -23 15.5 -38t34.5 -15q22 0 35.5 14.5t13.5 38.5
q0 22 -15.5 37t-33.5 15z" />
    <glyph glyph-name="zero.numr" horiz-adv-x="260" 
d="M130 703q47 0 76 -35t29 -91v-13q0 -56 -29 -91t-76 -35q-45 0 -75 35t-30 91v13q0 56 30 91t75 35zM130 672q-29 0 -48.5 -25.5t-19.5 -69.5v-13q0 -44 19.5 -69.5t48.5 -25.5q31 0 49.5 25t18.5 70v13q0 45 -18.5 70t-49.5 25z" />
    <glyph glyph-name="one.numr" horiz-adv-x="122" 
d="M97 701v-261h-37v221l-17 -11l-18 31l35 20h37z" />
    <glyph glyph-name="two.numr" horiz-adv-x="221" 
d="M109 704q34 0 59 -22.5t25 -52.5q0 -26 -14.5 -47t-53.5 -61l-47 -49h118v-32h-168v32l68 69q28 29 36.5 38.5t15.5 22.5t7 27q0 18 -14 31t-32 13q-19 0 -33 -13t-14 -37v-14h-37v14q0 35 24.5 58t59.5 23z" />
    <glyph glyph-name="three.numr" horiz-adv-x="233" 
d="M116 703q32 0 56 -20.5t24 -47.5q0 -32 -30 -53q42 -18 42 -66q0 -34 -27.5 -57t-64.5 -23q-40 0 -66.5 27t-24.5 64h38q1 -25 15 -42t38 -17q22 0 38 13.5t16 34.5q0 48 -74 48v29q63 0 63 42q0 16 -12.5 26.5t-30.5 10.5q-22 0 -34.5 -14.5t-12.5 -40.5h-37
q-1 38 23 62t61 24z" />
    <glyph glyph-name="four.numr" horiz-adv-x="246" 
d="M194 701v-154h27v-31h-27v-76h-37v76h-132l132 185h37zM157 642l-65 -95h65v95z" />
    <glyph glyph-name="five.numr" horiz-adv-x="235" 
d="M186 701v-32h-104l-8 -58q22 10 45 10q35 0 63 -26.5t28 -65.5t-28 -66t-67 -27q-33 0 -58.5 18.5t-31.5 43.5l33 19q2 -20 17.5 -34.5t39.5 -14.5q23 0 40 17.5t17 43.5q0 25 -16.5 42.5t-36.5 17.5q-35 0 -57 -29l-32 8l18 133h138z" />
    <glyph glyph-name="six.numr" horiz-adv-x="223" 
d="M174 701l-68 -96h6q34 0 60 -25t26 -59q0 -35 -26 -60t-60 -25t-60.5 25t-26.5 60q0 16 5.5 31.5t10 23t18 25t16.5 21.5l57 79h42zM112 573q-22 0 -36 -14t-14 -38q0 -23 15.5 -38t34.5 -15q18 0 33.5 15t15.5 38t-15 37.5t-34 14.5z" />
    <glyph glyph-name="seven.numr" horiz-adv-x="223" 
d="M198 701l-102 -261h-39l89 229h-121v32h173z" />
    <glyph glyph-name="eight.numr" horiz-adv-x="233" 
d="M116 703q36 0 57.5 -20t21.5 -47q0 -34 -30 -53q43 -21 43 -66q0 -34 -27 -56.5t-65 -22.5q-37 0 -64 22.5t-27 56.5q0 45 43 66q-30 19 -30 53q0 26 21.5 46.5t56.5 20.5zM116 672q-20 0 -30.5 -10.5t-10.5 -25.5t12.5 -27t28.5 -12q18 0 29.5 11.5t11.5 27.5
q0 36 -41 36zM116 566q-22 0 -38 -14t-16 -35q0 -20 16 -34t38 -14q24 0 39 13t15 35t-15 35.5t-39 13.5z" />
    <glyph glyph-name="nine.numr" horiz-adv-x="224" 
d="M112 704q34 0 60.5 -24.5t26.5 -59.5q0 -13 -2.5 -24t-9 -22.5t-10.5 -18t-14.5 -19.5t-14.5 -18l-56 -78h-43l68 95h-5q-35 0 -61 25.5t-26 59.5q0 35 26.5 59.5t60.5 24.5zM112 672q-19 0 -34.5 -15t-15.5 -37q0 -23 15.5 -38t34.5 -15q22 0 35.5 14.5t13.5 38.5
q0 22 -15.5 37t-33.5 15z" />
    </font>
</defs>
</svg>
