<?xml version="1.0" standalone="no"?>
<!DOCTYPE svg PUBLIC "-//W3C//DTD SVG 1.1//EN" "http://www.w3.org/Graphics/SVG/1.1/DTD/svg11.dtd" >
<svg xmlns="http://www.w3.org/2000/svg" xmlns:xlink="http://www.w3.org/1999/xlink" version="1.1">
<metadata>
Created by FontForge 20170731 at Tue Feb 14 21:04:49 2017
 By Aleksey,,,
(c) 2015 Connary Fagen
</metadata>
<defs>
<font id="VisbyRoundCF-Heavy" horiz-adv-x="632" >
  <font-face 
    font-family="Visby Round CF Heavy"
    font-weight="900"
    font-stretch="normal"
    units-per-em="1000"
    panose-1="0 0 10 0 0 0 0 0 0 0"
    ascent="800"
    descent="-200"
    x-height="520"
    cap-height="700"
    bbox="-271.05 -260.125 1211 997"
    underline-thickness="50"
    underline-position="-200"
    unicode-range="U+0020-FB02"
  />
<missing-glyph horiz-adv-x="495" 
d="M406 800v-990h-314v990h314zM330 734h-164v-33h65v-37h-66v-32h165v32h-66v37h66v33zM264 606h-99v-103h165v34h-66v69zM231 572v-35h-33v35h33zM330 476h-165v-32h66v-37h-66v-33h99v70h66v32zM330 417h-33v-65h-132v-34h165v99zM330 296h-99v-55h33v22h33v-46h-99v79
h-33v-112h165v112zM330 125h-165v-112h165v112zM297 92v-46h-99v46h99zM330 -10h-165v-32h70l-70 -47v-33h165v33h-101l69 47h32v32z" />
    <glyph glyph-name="fl" unicode="fl" horiz-adv-x="716" 
d="M404 703q43 -28 43 -66q0 -25 -16.5 -40.5t-42.5 -15.5q-14 0 -47 9q-13 3 -21 3q-44 -7 -50 -47v-26h62q29 0 46 -17.5t17 -44.5t-17 -44t-46 -17h-62v-324q0 -33 -23.5 -56t-56.5 -23t-56.5 23t-23.5 56v324h-26q-29 0 -46.5 17t-17.5 44t17.5 44.5t46.5 17.5h26v35
q0 41 13.5 73t33.5 50t46.5 30t48.5 15.5t43 3.5q64 0 109 -24zM576 714q32 0 56 -23.5t24 -56.5v-560q0 -33 -23.5 -56t-56.5 -23t-56.5 23t-23.5 56v560q0 33 24 56.5t56 23.5z" />
    <glyph glyph-name="f_t" unicode="ft" horiz-adv-x="825" 
d="M739 135q26 0 41 -15t15 -43q0 -39 -32.5 -60.5t-92.5 -21.5q-33 0 -57.5 7t-48.5 25.5t-37 58t-13 98.5v213h-244v-324q0 -33 -23.5 -56t-56.5 -23t-56.5 23t-23.5 56v324h-26q-29 0 -46.5 17t-17.5 44t17.5 44.5t46.5 17.5h26v35q0 41 13.5 73t33.5 50t46.5 30
t48.5 15.5t43 3.5q64 0 109 -24q43 -28 43 -66q0 -25 -16.5 -40.5t-42.5 -15.5q-14 0 -47 9q-13 3 -21 3q-44 -7 -50 -47v-26h244v58q0 33 24 56.5t56 23.5t56 -23.5t24 -56.5v-58h58q29 0 46 -17.5t17 -44.5t-17 -44t-46 -17h-58v-221q0 -44 27 -44q4 0 18 2t20 1z" />
    <glyph glyph-name=".notdef" horiz-adv-x="495" 
d="M406 800v-990h-314v990h314zM330 734h-164v-33h65v-37h-66v-32h165v32h-66v37h66v33zM264 606h-99v-103h165v34h-66v69zM231 572v-35h-33v35h33zM330 476h-165v-32h66v-37h-66v-33h99v70h66v32zM330 417h-33v-65h-132v-34h165v99zM330 296h-99v-55h33v22h33v-46h-99v79
h-33v-112h165v112zM330 125h-165v-112h165v112zM297 92v-46h-99v46h99zM330 -10h-165v-32h70l-70 -47v-33h165v33h-101l69 47h32v32z" />
    <glyph glyph-name=".null" horiz-adv-x="0" 
 />
    <glyph glyph-name="nonmarkingreturn" horiz-adv-x="333" 
 />
    <glyph glyph-name="space" unicode=" " horiz-adv-x="297" 
 />
    <glyph glyph-name="exclam" unicode="!" horiz-adv-x="301" 
d="M151 703q36 0 62.5 -27t26.5 -64v-296q0 -37 -26.5 -64t-62.5 -27q-37 0 -63.5 27t-26.5 64v296q0 37 26.5 64t63.5 27zM151 -5q-38 0 -64.5 26.5t-26.5 64.5q0 37 27 63.5t64 26.5t63.5 -26.5t26.5 -63.5q0 -38 -26.5 -64.5t-63.5 -26.5z" />
    <glyph glyph-name="quotedbl" unicode="&#x22;" horiz-adv-x="450" 
d="M120 708q33 0 56.5 -23t23.5 -56v-52q0 -33 -24 -56.5t-56 -23.5t-56 23.5t-24 56.5v52q0 33 23.5 56t56.5 23zM330 708q33 0 56.5 -23t23.5 -56v-52q0 -33 -24 -56.5t-56 -23.5t-56 23.5t-24 56.5v52q0 33 23.5 56t56.5 23z" />
    <glyph glyph-name="numbersign" unicode="#" horiz-adv-x="677" 
d="M564 316q28 0 48 -19.5t20 -47.5q0 -29 -20 -49t-48 -20h-45l-8 -115q-2 -31 -25.5 -52.5t-53.5 -21.5q-35 0 -58.5 26t-21.5 60l7 103h-71l-8 -115q-1 -31 -24.5 -52.5t-53.5 -21.5q-35 0 -58.5 26t-21.5 60l7 103h-15q-28 0 -48.5 20t-20.5 49q0 28 20.5 47.5
t48.5 19.5h25l5 68h-30q-28 0 -48.5 20t-20.5 48t20.5 48t48.5 20h40l8 115q1 31 24.5 52.5t53.5 21.5q35 0 58.5 -26t21.5 -60l-7 -103h71l8 115q2 31 25 52.5t54 21.5q34 0 57.5 -26.5t21.5 -59.5l-7 -103h21q28 0 48 -20t20 -48t-20 -48t-48 -20h-31l-4 -68h35zM298 316
h71l5 68h-71z" />
    <glyph glyph-name="dollar" unicode="$" horiz-adv-x="581" 
d="M541 207q0 -81 -54.5 -134t-134.5 -71q1 -3 1 -9v-32q0 -29 -20 -49t-48 -20t-48 20t-20 49v32v6q-84 18 -141 73q-36 45 -36 82q0 27 17.5 48t49.5 21q38 0 77 -45q40 -40 96 -40q21 0 40 4.5t36 21t17 43.5q0 30 -21 50.5t-76 41.5l-31 11q-90 34 -137 78.5t-47 118.5
q0 72 43 122t113 69v41q0 29 20 49t48 20t48 -20t20 -49v-37q65 -13 115 -60q37 -39 37 -71q0 -28 -19.5 -46.5t-48.5 -18.5q-36 0 -64 30q-36 27 -73 27q-36 0 -55.5 -16.5t-19.5 -42.5q0 -44 62 -68l28 -10q125 -47 175.5 -97.5t50.5 -121.5z" />
    <glyph glyph-name="percent" unicode="%" horiz-adv-x="698" 
d="M168 705q52 0 88 -35.5t36 -87.5q0 -51 -36 -87t-88 -36q-51 0 -87 36t-36 87q0 52 35.5 87.5t87.5 35.5zM457 649q23 34 63 34q31 0 52.5 -22t21.5 -52q0 -25 -13 -43l-344 -513q-24 -33 -62 -33q-31 0 -52.5 21.5t-21.5 52.5q0 25 11 42zM168 597q-19 0 -19 -15
q0 -7 5.5 -12t13.5 -5q4 0 8.5 5t4.5 12t-4.5 11t-8.5 4zM529 241q52 0 88 -35.5t36 -87.5q0 -51 -36 -87t-88 -36q-51 0 -87 36t-36 87q0 52 35.5 87.5t87.5 35.5zM529 133q-19 0 -19 -15q0 -7 5.5 -12t13.5 -5q4 0 8.5 5t4.5 12t-4.5 11t-8.5 4z" />
    <glyph glyph-name="ampersand" unicode="&#x26;" horiz-adv-x="774" 
d="M317 -9q-99 0 -178 64t-79 166q0 79 44 129.5t103 71.5l-75 124q-33 57 -1.5 105.5t97.5 48.5h258q29 0 49 -20t20 -48t-20 -48t-49 -20h-214l95 -165q18 -26 8 -53.5t-52 -27.5q-32 0 -54.5 -10.5t-32 -27.5t-13 -31t-3.5 -28q0 -34 27 -64t77 -30q15 0 28 1t36.5 7
t39.5 16.5t28.5 32.5t12.5 52v106q0 40 25.5 65.5t65.5 25.5h83q28 0 48 -19t20 -48t-20 -49t-48 -20h-18v-113q0 -34 10 -43.5t45 -13.5q27 3 45.5 -14t18.5 -47q0 -71 -97 -71q-63 0 -93 31.5t-30 86.5v-3q-32 -55 -86 -87t-121 -32z" />
    <glyph glyph-name="quotesingle" unicode="'" horiz-adv-x="240" 
d="M120 708q33 0 56.5 -23t23.5 -56v-52q0 -33 -24 -56.5t-56 -23.5t-56 23.5t-24 56.5v52q0 33 23.5 56t56.5 23z" />
    <glyph glyph-name="parenleft" unicode="(" horiz-adv-x="300" 
d="M196 753q28 0 49 -20.5t21 -48.5q0 -9 -5 -24q-56 -149 -56 -340q0 -204 57 -365q3 -7 3 -25q0 -28 -19.5 -48t-47.5 -20q-45 0 -63 38q-90 191 -90 420q0 217 90 397q18 36 61 36z" />
    <glyph glyph-name="parenright" unicode=")" horiz-adv-x="296" 
d="M161 717q90 -180 90 -397q0 -229 -90 -420q-18 -38 -63 -38q-28 0 -47.5 20t-19.5 48q0 18 3 25q57 161 57 365q0 191 -56 340q-5 15 -5 24q0 28 21 48.5t49 20.5q43 0 61 -36z" />
    <glyph glyph-name="asterisk" unicode="*" horiz-adv-x="531" 
d="M203 695q-1 24 18 43.5t43 19.5q26 0 44 -18.5t18 -43.5v-57l66 12q26 7 45 -14t19 -49q0 -22 -14 -39.5t-34 -22.5l-38 -11l27 -37q12 -15 12 -38q0 -26 -18 -44.5t-44 -18.5q-33 0 -51 25l-30 42l-31 -42q-18 -25 -51 -25q-26 0 -44 18.5t-18 44.5q0 23 12 38l27 37
l-38 11q-20 5 -34 23t-14 39q0 28 19.5 49t45.5 14l65 -12z" />
    <glyph glyph-name="plus" unicode="+" horiz-adv-x="484" 
d="M368 339q28 0 49.5 -19.5t21.5 -46.5t-21.5 -46.5t-49.5 -19.5h-59v-57q0 -28 -19.5 -49.5t-46.5 -21.5t-46.5 21.5t-19.5 49.5v57h-61q-29 0 -50 19.5t-21 46.5t21 46.5t50 19.5h61v63q0 29 19.5 50t46.5 21t46.5 -21t19.5 -50v-63h59z" />
    <glyph glyph-name="comma" unicode="," horiz-adv-x="292" 
d="M71 -100q-28 0 -37 18.5t2 46.5l46 147q23 65 84 65h41q77 0 33 -84l-79 -146q-26 -47 -84 -47h-6z" />
    <glyph glyph-name="hyphen" unicode="-" horiz-adv-x="454" 
d="M344 339q26 0 45.5 -19.5t19.5 -46.5t-19.5 -46.5t-45.5 -19.5h-233q-27 0 -46.5 19.5t-19.5 46.5t20 46.5t46 19.5h233z" />
    <glyph glyph-name="period" unicode="." horiz-adv-x="261" 
d="M131 -5q-38 0 -64.5 26.5t-26.5 64.5q0 37 27 63.5t64 26.5t63.5 -26.5t26.5 -63.5q0 -38 -26.5 -64.5t-63.5 -26.5z" />
    <glyph glyph-name="slash" unicode="/" horiz-adv-x="512" 
d="M399 753q42 0 64 -34.5t9 -68.5l-288 -739q-8 -21 -27.5 -35t-43.5 -14q-42 0 -63.5 34.5t-8.5 68.5l287 739q8 21 28 35t43 14z" />
    <glyph glyph-name="zero" unicode="0" horiz-adv-x="669" 
d="M334 707q115 0 202.5 -90.5t87.5 -253.5v-24q0 -84 -25.5 -151.5t-67.5 -108.5t-92.5 -62.5t-104.5 -21.5q-53 0 -103.5 21.5t-92.5 62.5t-67.5 108.5t-25.5 151.5v24q0 67 17 124.5t45.5 97t66 68t78 41.5t82.5 13zM334 571q-39 0 -66 -20.5t-40 -55t-18 -66.5t-5 -66
v-24q0 -34 5 -66t18 -66.5t40 -55t66 -20.5t66.5 20.5t40.5 55t18 66.5t5 66v24q0 34 -5 66t-18 66.5t-40.5 55t-66.5 20.5z" />
    <glyph glyph-name="one" unicode="1" horiz-adv-x="412" 
d="M246 700q39 0 65 -25.5t26 -65.5v-537q0 -33 -23.5 -56t-56.5 -23t-56.5 23t-23.5 56v492h-63q-28 0 -48.5 20t-20.5 48t20.5 48t48.5 20h132z" />
    <glyph glyph-name="two" unicode="2" horiz-adv-x="560" 
d="M274 707q107 0 175 -64t68 -151q0 -53 -28 -91t-118 -121q-22 -21 -34 -32l-118 -107h227q29 0 49 -20.5t20 -50.5t-20 -50t-49 -20h-283q-42 0 -74 20.5t-45.5 50t-6.5 65.5t37 65l101 90q16 15 38 35t33.5 31t27.5 26t24 23t18.5 19t15 17.5t10 15t8 15t4 13.5t1.5 15
q0 38 -23 52t-49 14q-59 0 -81 -51q-7 -25 -29.5 -42.5t-51.5 -17.5q-44 0 -62.5 34t-4.5 81q26 58 82 97t138 39z" />
    <glyph glyph-name="three" unicode="3" horiz-adv-x="591" 
d="M394 700q72 0 105.5 -55t-9.5 -111l-101 -118q60 -14 108.5 -68.5t48.5 -131.5q0 -100 -74 -163t-184 -63q-174 0 -238 131q-14 37 5 70t60 33q50 0 69 -41q30 -57 104 -57q10 0 22.5 2.5t32 10t32 28t12.5 49.5q0 26 -16 46t-31 28t-41 17.5t-27 9.5q-22 4 -37 22.5
t-15 39.5q0 9 4 18t7.5 14.5t13 18t13.5 17.5l93 117h-217q-28 0 -48.5 20t-20.5 48t20.5 48t48.5 20h260z" />
    <glyph glyph-name="four" unicode="4" horiz-adv-x="589" 
d="M470 277h15q29 0 49 -18.5t20 -45.5q0 -28 -20 -46.5t-49 -18.5h-15v-78q0 -33 -23.5 -55.5t-56.5 -22.5t-56 22.5t-23 55.5v78h-161q-75 0 -98.5 46t17.5 102l254 358q24 34 59.5 41.5t61.5 -14t26 -61.5v-343zM311 418l-98 -141h98v141z" />
    <glyph glyph-name="five" unicode="5" horiz-adv-x="564" 
d="M389 700q29 0 49 -20t20 -48t-20 -48t-49 -20h-177l-10 -109q-1 -4 2 -4q2 0 12 3q42 15 81 15q95 0 158.5 -66t63.5 -172q0 -105 -72.5 -173t-185.5 -68q-123 0 -193 69q-25 27 -25 60q0 29 20 49t52 20q35 0 58 -27q37 -35 84 -35q39 0 71 23t32 82q0 52 -29 76.5
t-66 24.5q-25 0 -56 -11q-24 -12 -65 -12q-47 0 -73 33t-21 82l23 200q4 34 28.5 55t58.5 21h229z" />
    <glyph glyph-name="six" unicode="6" horiz-adv-x="567" 
d="M353 708q30 0 49 -20t19 -50q0 -22 -16 -43l-105 -134l-14 -13q92 0 164 -67t72 -167q0 -97 -71.5 -160.5t-164.5 -63.5q-96 0 -168.5 67t-72.5 178q0 30 5.5 56.5t23.5 59t27 47.5t41 59t40 56l113 165q19 30 58 30zM284 301q-42 0 -66 -26.5t-24 -60.5q0 -35 25 -60.5
t65 -25.5q39 0 62.5 26t23.5 60q0 33 -23.5 60t-62.5 27z" />
    <glyph glyph-name="seven" unicode="7" horiz-adv-x="532" 
d="M389 700q63 0 93.5 -47t3.5 -104l-246 -512q-18 -45 -67 -45q-31 0 -53 22t-22 54q0 19 8 32l230 464h-232q-28 0 -48.5 20t-20.5 48t20.5 48t48.5 20h285z" />
    <glyph glyph-name="eight" unicode="8" horiz-adv-x="598" 
d="M469 399q89 -65 89 -173q0 -106 -78.5 -170.5t-179.5 -64.5q-102 0 -181 64.5t-79 170.5q0 108 90 174q-44 52 -44 115q0 82 57.5 137t156.5 55t156 -54.5t57 -137.5q0 -62 -44 -116zM240 513q0 -23 15.5 -40.5t44.5 -17.5t44.5 17.5t15.5 40.5q0 24 -17 40.5t-43 16.5
t-43 -16.5t-17 -40.5zM300 129q38 0 65 28.5t27 68.5q0 45 -28.5 70t-63.5 25t-64 -25t-29 -70q0 -40 27.5 -68.5t65.5 -28.5z" />
    <glyph glyph-name="nine" unicode="9" horiz-adv-x="572" 
d="M219 -9q-30 0 -49 20t-19 50q0 22 16 43l105 134l14 13q-92 0 -164 67t-72 167q0 97 71.5 160.5t164.5 63.5q96 0 168.5 -67t72.5 -178q0 -30 -5.5 -56.5t-23.5 -59t-27 -47.5t-41 -59t-40 -56l-113 -165q-19 -30 -58 -30zM288 398q42 0 66 26.5t24 60.5q0 35 -25 60.5
t-65 25.5q-39 0 -62.5 -26t-23.5 -60q0 -33 23.5 -60t62.5 -27z" />
    <glyph glyph-name="colon" unicode=":" horiz-adv-x="281" 
d="M141 356q-38 0 -64.5 26.5t-26.5 64.5q0 37 27 63.5t64 26.5t63.5 -26.5t26.5 -63.5q0 -38 -26.5 -64.5t-63.5 -26.5zM141 -5q-38 0 -64.5 26.5t-26.5 64.5q0 37 27 63.5t64 26.5t63.5 -26.5t26.5 -63.5q0 -38 -26.5 -64.5t-63.5 -26.5z" />
    <glyph glyph-name="semicolon" unicode=";" horiz-adv-x="318" 
d="M178 356q-38 0 -64.5 26.5t-26.5 64.5q0 37 27 63.5t64 26.5t63.5 -26.5t26.5 -63.5q0 -38 -26.5 -64.5t-63.5 -26.5zM71 -100q-28 0 -37 18.5t2 46.5l46 147q23 65 84 65h41q77 0 33 -84l-79 -146q-26 -47 -84 -47h-6z" />
    <glyph glyph-name="less" unicode="&#x3c;" horiz-adv-x="438" 
d="M298 436q14 7 29 7q27 0 46.5 -19t19.5 -47q0 -38 -36 -57l-166 -80l167 -78q15 -8 25 -24t10 -34q0 -27 -19 -46.5t-46 -19.5q-15 0 -31 8l-185 92q-67 35 -66.5 101.5t67.5 101.5z" />
    <glyph glyph-name="equal" unicode="=" horiz-adv-x="484" 
d="M368 428q28 0 49.5 -19.5t21.5 -46.5t-21.5 -46.5t-49.5 -19.5h-252q-29 0 -50 19.5t-21 46.5t21 46.5t50 19.5h252zM368 250q28 0 49.5 -19.5t21.5 -46.5t-21.5 -46.5t-49.5 -19.5h-252q-29 0 -50 19.5t-21 46.5t21 46.5t50 19.5h252z" />
    <glyph glyph-name="greater" unicode="&#x3e;" horiz-adv-x="438" 
d="M140 436l185 -95q67 -35 67.5 -101.5t-66.5 -101.5l-185 -92q-16 -8 -31 -8q-27 0 -46 19.5t-19 46.5q0 18 10 34t25 24l167 78l-166 80q-36 19 -36 57q0 28 19.5 47t46.5 19q15 0 29 -7z" />
    <glyph glyph-name="question" unicode="?" horiz-adv-x="553" 
d="M281 707q94 0 165.5 -56.5t71.5 -154.5q0 -40 -14.5 -68t-35.5 -43t-42 -28t-35.5 -31.5t-14.5 -44.5q0 -33 -21.5 -57.5t-61.5 -24.5t-61.5 24.5t-21.5 57.5q0 37 15 66.5t37 47.5t44 33t37 33.5t15 40.5q0 14 -5 28t-23.5 28t-48.5 14q-49 0 -68.5 -31t-17.5 -59
q0 -36 -19.5 -61.5t-59.5 -25.5q-41 0 -61 25.5t-20 61.5q0 102 76 163.5t170 61.5zM292 -5q-38 0 -64.5 26.5t-26.5 64.5q0 37 27 63.5t64 26.5t63.5 -26.5t26.5 -63.5q0 -38 -26.5 -64.5t-63.5 -26.5z" />
    <glyph glyph-name="at" unicode="@" horiz-adv-x="818" 
d="M517 521q25 0 40.5 -15t15.5 -40v-137q0 -26 11 -26q30 0 30 63q0 104 -54.5 152t-146.5 48q-93 0 -151 -60.5t-58 -160.5q0 -94 56.5 -152.5t141.5 -58.5q49 0 77 14q17 12 45 12q33 0 52 -20t19 -51q0 -40 -35 -62q-56 -34 -146 -34q-152 0 -258 100t-106 252
q0 104 53.5 188.5t136 129t173.5 44.5q143 0 249 -100.5t106 -250.5q0 -91 -48.5 -142t-121.5 -51q-21 0 -39.5 7t-28.5 15t-30 26q-33 -48 -103 -48q-65 0 -115.5 49t-50.5 137q0 84 51.5 132.5t109.5 48.5q25 0 44.5 -11t27.5 -21.5t4 -11.5v-7q0 16 13 29t36 13zM405 393
q-42 0 -42 -46q0 -5 0.5 -12.5t11 -20t30.5 -12.5q39 0 39 45q0 46 -39 46z" />
    <glyph glyph-name="A" unicode="A" horiz-adv-x="723" 
d="M677 118q11 -26 11 -48q0 -30 -23.5 -52t-56.5 -22q-57 0 -79 53l-38 90h-259l-38 -90q-23 -53 -79 -53q-33 0 -56.5 22t-23.5 52q0 22 11 48l236 526q25 61 79 61t80 -61zM286 268h150l-75 178z" />
    <glyph glyph-name="B" unicode="B" 
d="M455 391q137 -56 137 -183q0 -94 -67 -151t-191 -57h-183q-40 0 -65.5 25.5t-25.5 65.5v518q0 40 25.5 65.5t65.5 25.5h170q94 0 157 -45t63 -132q0 -96 -86 -132zM224 562v-127h97q26 0 43 19.5t17 47.5q0 30 -16.5 45t-43.5 15h-97zM334 138q52 0 75 25.5t23 59.5
q0 36 -22 61.5t-76 25.5h-110v-172h110z" />
    <glyph glyph-name="C" unicode="C" horiz-adv-x="670" 
d="M559 199q31 0 53.5 -20t22.5 -54q0 -30 -18.5 -52t-56.5 -45q-67 -35 -154 -35q-90 0 -171 44.5t-133 127.5t-52 185q0 152 108.5 254.5t244.5 102.5q90 0 158 -36q74 -45 74 -96q0 -34 -22.5 -54t-53.5 -20q-27 0 -62 21q-1 0 -9.5 5.5t-18 10t-27 9t-36.5 4.5
q-76 0 -130 -59t-54 -142q0 -84 54 -142.5t132 -58.5q18 0 35 4.5t26.5 9t18 10t9.5 5.5q35 21 62 21z" />
    <glyph glyph-name="D" unicode="D" horiz-adv-x="698" 
d="M296 700q152 0 257 -92t105 -253q0 -113 -51 -195t-132 -121t-179 -39h-145q-40 0 -65.5 25.5t-25.5 65.5v518q0 40 25.5 65.5t65.5 25.5h145zM296 138q97 0 147 51.5t50 165.5q0 207 -197 207h-72v-424h72z" />
    <glyph glyph-name="E" unicode="E" horiz-adv-x="585" 
d="M224 143h253q30 0 51.5 -21t21.5 -50q0 -30 -21.5 -51t-51.5 -21h-326q-40 0 -65.5 25.5t-25.5 65.5v518q0 40 25.5 65.5t65.5 25.5h316q30 0 51.5 -20.5t21.5 -49.5q0 -31 -21.5 -52t-51.5 -21h-243v-137h151q30 0 51 -20.5t21 -47.5q0 -29 -21 -49t-51 -20h-151v-140z
" />
    <glyph glyph-name="F" unicode="F" horiz-adv-x="575" 
d="M540 630q0 -31 -21.5 -52t-51.5 -21h-243v-159h200q30 0 51 -20t21 -50q0 -29 -21 -49t-51 -20h-200v-184q0 -34 -23.5 -58.5t-57.5 -24.5t-58.5 24.5t-24.5 58.5v534q0 40 25.5 65.5t65.5 25.5h316q30 0 51.5 -20.5t21.5 -49.5z" />
    <glyph glyph-name="G" unicode="G" horiz-adv-x="758" 
d="M625 384q45 0 68 -28.5t21 -74.5q-6 -137 -96.5 -212.5t-211.5 -75.5q-90 0 -171 44.5t-133 127.5t-52 185q0 152 108.5 254.5t244.5 102.5q90 0 158 -36q74 -45 74 -96q0 -34 -22.5 -54t-53.5 -20q-27 0 -62 21q-1 0 -9.5 5.5t-18 10t-27 9t-36.5 4.5q-76 0 -130 -59
t-54 -142q0 -84 53.5 -142.5t130.5 -58.5q48 0 94 27t54 75h-82q-29 0 -50 19t-21 47q0 29 21 48t50 19h153z" />
    <glyph glyph-name="H" unicode="H" horiz-adv-x="714" 
d="M490 620q0 34 24 58.5t58 24.5t58 -24.5t24 -58.5v-540q0 -34 -24 -58.5t-58 -24.5t-58 24.5t-24 58.5v196h-266v-196q0 -34 -23.5 -58.5t-57.5 -24.5t-58.5 24.5t-24.5 58.5v540q0 34 24.5 58.5t58.5 24.5t57.5 -24.5t23.5 -58.5v-204h266v204z" />
    <glyph glyph-name="I" unicode="I" horiz-adv-x="288" 
d="M144 703q34 0 59 -25t25 -59v-543q0 -34 -25 -59t-59 -25t-59 25t-25 59v543q0 34 25 59t59 25z" />
    <glyph glyph-name="J" unicode="J" horiz-adv-x="540" 
d="M395 703q35 0 60 -23.5t25 -56.5v-376q0 -72 -21.5 -123.5t-58.5 -79t-77.5 -39.5t-87.5 -12q-84 0 -151 39q-49 29 -49 78q0 28 18 48t50 20q30 0 60 -18q44 -20 67 -20q15 0 27 3.5t26 13t21.5 32.5t7.5 57v377q0 33 25 56.5t58 23.5z" />
    <glyph glyph-name="K" unicode="K" horiz-adv-x="698" 
d="M650 111q18 -20 18 -48q0 -29 -21.5 -50t-51.5 -21q-31 0 -53 24l-221 257l-97 -101v-98q0 -34 -24 -58t-58 -24t-58 23.5t-24 57.5v553q0 34 24 58t58 24t58 -24t24 -58v-235l282 289q24 28 59 28q30 0 52 -21.5t22 -51.5q0 -25 -17 -46l-199 -209z" />
    <glyph glyph-name="L" unicode="L" horiz-adv-x="560" 
d="M224 145h229q29 0 50.5 -21.5t21.5 -51.5t-21.5 -51t-50.5 -21h-302q-40 0 -65.5 25.5t-25.5 65.5v528q0 35 24.5 59.5t58.5 24.5t57.5 -24.5t23.5 -59.5v-474z" />
    <glyph glyph-name="M" unicode="M" horiz-adv-x="875" 
d="M739 703q30 0 53 -20.5t23 -57.5v-544q0 -34 -25.5 -59t-60.5 -25q-34 0 -58 25t-24 59v257l-139 -263q-24 -46 -71 -46t-70 46l-139 263v-257q0 -34 -24.5 -59t-58.5 -25q-35 0 -60 25t-25 59v544q0 37 23 57.5t53 20.5q24 0 46.5 -16t35.5 -38l219 -388l220 388
q13 22 35.5 38t46.5 16z" />
    <glyph glyph-name="N" unicode="N" horiz-adv-x="713" 
d="M568 703q36 0 60.5 -25t24.5 -59v-545q0 -38 -22 -59.5t-56 -21.5q-51 0 -85 48l-262 362v-326q0 -34 -24.5 -59t-58.5 -25q-35 0 -60 25t-25 59v546q0 38 22 59t57 21q51 0 84 -48l262 -361v325q0 34 24.5 59t58.5 25z" />
    <glyph glyph-name="O" unicode="O" horiz-adv-x="798" 
d="M399 707q137 0 243 -102t106 -255t-106 -255t-243 -102t-243 102t-106 255t106 255t243 102zM399 551q-74 0 -125.5 -56.5t-51.5 -144.5t51.5 -144t125.5 -56t125 56t51 144q0 89 -50.5 145t-125.5 56z" />
    <glyph glyph-name="P" unicode="P" horiz-adv-x="626" 
d="M334 700q114 0 185.5 -67.5t71.5 -164.5q0 -96 -71.5 -162.5t-185.5 -66.5h-110v-165q0 -34 -23.5 -58t-57.5 -24t-58.5 24t-24.5 58v535q0 40 25.5 65.5t65.5 25.5h183zM325 379q50 0 78.5 19t28.5 70q0 92 -107 92h-101v-181h101z" />
    <glyph glyph-name="Q" unicode="Q" horiz-adv-x="798" 
d="M662 116l14 -15q18 -19 18 -46q0 -28 -19.5 -47.5t-47.5 -19.5q-32 0 -48 19l-24 25q-75 -39 -156 -39q-137 0 -243 102t-106 255t106 255t243 102t243 -102t106 -255q0 -135 -86 -234zM399 150q21 0 37 4l-24 25q-21 23 -21 46q0 28 20 48.5t48 20.5q30 0 48 -21l38 -39
q30 51 30 116q0 89 -50.5 145t-125.5 56q-74 0 -125.5 -56.5t-51.5 -144.5t51.5 -144t125.5 -56z" />
    <glyph glyph-name="R" unicode="R" horiz-adv-x="640" 
d="M580 124q20 -28 20 -50q0 -32 -21.5 -54.5t-53.5 -22.5q-38 0 -60 30l-166 212h-75v-165q0 -34 -23.5 -58t-57.5 -24t-58.5 24t-24.5 58v535q0 40 25.5 65.5t65.5 25.5h183q114 0 185.5 -67.5t71.5 -164.5q0 -65 -34.5 -119t-95.5 -83zM224 560v-181h101q50 0 78.5 19
t28.5 70q0 92 -107 92h-101z" />
    <glyph glyph-name="S" unicode="S" horiz-adv-x="581" 
d="M293 707q105 0 175 -65q37 -39 37 -71q0 -28 -19.5 -46.5t-48.5 -18.5q-36 0 -64 30q-36 27 -73 27q-36 0 -55.5 -16.5t-19.5 -42.5q0 -44 62 -68l28 -10q125 -47 175.5 -97.5t50.5 -121.5q0 -68 -41.5 -118.5t-99.5 -73t-120 -22.5q-124 0 -204 79q-36 45 -36 82
q0 27 17.5 48t49.5 21q38 0 77 -45q40 -40 96 -40q21 0 40 4.5t36 21t17 43.5q0 30 -21 50.5t-76 41.5l-31 11q-90 34 -137 78.5t-47 118.5q0 91 66.5 145.5t165.5 54.5z" />
    <glyph glyph-name="T" unicode="T" horiz-adv-x="616" 
d="M514 700q30 0 51 -21t21 -52q0 -30 -21.5 -51t-50.5 -21h-124v-477q0 -35 -24.5 -60.5t-56.5 -25.5q-34 0 -58.5 25.5t-24.5 60.5v477h-123q-30 0 -51.5 21t-21.5 51t21.5 51.5t51.5 21.5h411z" />
    <glyph glyph-name="U" unicode="U" horiz-adv-x="699" 
d="M554 703q34 0 57 -23.5t23 -56.5v-376q0 -116 -82 -185t-202 -69q-121 0 -203 69t-82 185v376q0 33 23 56.5t57 23.5q35 0 59.5 -23.5t24.5 -56.5v-375q0 -62 35 -90.5t86 -28.5t85.5 28.5t34.5 90.5v375q0 33 24.5 56.5t59.5 23.5z" />
    <glyph glyph-name="V" unicode="V" horiz-adv-x="723" 
d="M608 703q33 0 56.5 -22t23.5 -52q0 -22 -11 -48l-236 -526q-26 -61 -80 -61t-79 61l-236 526q-11 26 -11 48q0 30 23.5 52t56.5 22q56 0 79 -53l167 -397l168 397q22 53 79 53z" />
    <glyph glyph-name="W" unicode="W" horiz-adv-x="1021" 
d="M906 703q33 0 56.5 -22t23.5 -52q0 -9 -11 -48l-160 -526q-19 -61 -87 -61q-64 0 -86 61l-131 360l-132 -360q-22 -61 -86 -61q-68 0 -87 61l-160 526q-11 31 -11 48q0 30 23.5 52t56.5 22q27 0 49.5 -14.5t29.5 -38.5l105 -397l138 397q20 53 73 53q54 0 74 -53
l138 -397l105 397q7 24 29.5 38.5t49.5 14.5z" />
    <glyph glyph-name="X" unicode="X" horiz-adv-x="659" 
d="M596 120q18 -25 18 -56q0 -32 -21.5 -52t-55.5 -20q-43 0 -68 34l-140 201l-139 -201q-25 -34 -67 -34q-35 0 -56.5 20t-21.5 52t19 56l173 238l-158 217q-19 26 -19 56q0 31 21.5 51.5t56.5 20.5q43 0 68 -35l123 -178l125 178q23 35 67 35q35 0 56.5 -20.5t21.5 -51.5
q0 -32 -19 -56l-158 -217z" />
    <glyph glyph-name="Y" unicode="Y" horiz-adv-x="650" 
d="M535 704q31 0 53.5 -22t22.5 -53q0 -23 -12 -41l-193 -283v-235q0 -32 -24.5 -55t-56.5 -23q-33 0 -57 22.5t-24 55.5v235l-193 283q-12 18 -12 41q0 31 22 53t53 22q36 0 60 -30l151 -230l151 230q22 30 59 30z" />
    <glyph glyph-name="Z" unicode="Z" horiz-adv-x="600" 
d="M436 700q47 0 81 -28t38 -67t-24 -80l-320 -380h277q30 0 51 -21.5t21 -51.5t-21.5 -51t-50.5 -21h-327q-74 0 -107.5 58t11.5 117l320 380h-250q-30 0 -51.5 21t-21.5 51t21.5 51.5t51.5 21.5h301z" />
    <glyph glyph-name="bracketleft" unicode="[" horiz-adv-x="321" 
d="M205 745q34 0 52.5 -17.5t18.5 -50.5q0 -68 -71 -68v-603q71 0 71 -68t-71 -68h-66q-45 0 -69.5 24.5t-24.5 69.5v687q0 46 24.5 70t69.5 24h66z" />
    <glyph glyph-name="backslash" unicode="\" horiz-adv-x="512" 
d="M113 753q23 0 43 -14t28 -35l287 -739q13 -34 -8.5 -68.5t-63.5 -34.5q-24 0 -43.5 14t-27.5 35l-288 739q-13 34 9 68.5t64 34.5z" />
    <glyph glyph-name="bracketright" unicode="]" horiz-adv-x="321" 
d="M116 745h66q45 0 69.5 -24t24.5 -70v-687q0 -45 -24.5 -69.5t-69.5 -24.5h-66q-71 0 -71 68t71 68v603q-71 0 -71 68q0 33 18.5 50.5t52.5 17.5z" />
    <glyph glyph-name="asciicircum" unicode="^" horiz-adv-x="440" 
d="M388 537q7 -13 7 -25q0 -18 -13 -31t-31 -13q-17 0 -29 12l-101 89l-103 -89q-13 -13 -29 -13q-18 0 -31 13.5t-13 31.5q0 13 8 25l87 121q32 43 81.5 42.5t79.5 -42.5z" />
    <glyph glyph-name="underscore" unicode="_" horiz-adv-x="608" 
d="M494 0q29 0 49 -20t20 -49q0 -28 -20 -47.5t-49 -19.5h-380q-28 0 -48.5 19.5t-20.5 47.5q0 29 20.5 49t48.5 20h380z" />
    <glyph glyph-name="grave" unicode="`" horiz-adv-x="259" 
d="M153 775q27 0 48 -15.5t30 -40.5l19 -81q13 -32 -5 -54.5t-49 -22.5q-27 0 -44 22l-62 58q-19 22 -19 53q0 34 24 57.5t58 23.5z" />
    <glyph glyph-name="a" unicode="a" 
d="M490 523q32 0 57 -23.5t25 -55.5v-371q0 -33 -24.5 -56t-57.5 -23q-28 0 -50 17.5t-28 44.5q-14 -24 -48.5 -43.5t-83.5 -19.5q-93 0 -166.5 70t-73.5 197q0 124 74.5 195t165.5 71q48 0 83.5 -22t46.5 -51v-9q0 32 24 55.5t56 23.5zM310 129q41 0 74 31.5t33 99.5
q0 66 -33.5 98t-73.5 32q-46 0 -78 -34.5t-32 -95.5t32 -96t78 -35z" />
    <glyph glyph-name="b" unicode="b" 
d="M352 526q91 0 165.5 -71t74.5 -195q0 -127 -73.5 -197t-166.5 -70q-49 0 -83.5 19.5t-48.5 43.5q-6 -27 -28 -44.5t-50 -17.5q-33 0 -57.5 23t-24.5 56v562q0 32 24.5 55.5t57.5 23.5q32 0 55.5 -23.5t23.5 -55.5v-179q1 -4 1 -12v9q11 29 46.5 51t83.5 22zM322 129
q46 0 78 35t32 96t-32 95.5t-78 34.5q-40 0 -73.5 -32t-33.5 -98q0 -68 33 -99.5t74 -31.5z" />
    <glyph glyph-name="c" unicode="c" horiz-adv-x="541" 
d="M438 171q25 0 44 -16.5t19 -43.5q0 -10 -2.5 -19t-5.5 -15t-9.5 -13.5t-10 -10.5t-11 -9.5t-8.5 -7.5q-62 -41 -143 -41q-48 0 -94.5 16.5t-86.5 48t-65 84t-25 116.5q0 65 25 117t65 84t86.5 48.5t94.5 16.5q81 0 143 -41q1 -1 8.5 -7.5t11 -9.5t10 -10.5t9.5 -13.5
t5.5 -15t2.5 -19q0 -27 -19 -43.5t-44 -16.5t-60 22q-25 16 -62 16q-55 0 -86.5 -34.5t-31.5 -93.5q0 -58 32 -92.5t86 -34.5q37 0 62 16q35 22 60 22z" />
    <glyph glyph-name="d" unicode="d" 
d="M490 714q33 0 57.5 -23.5t24.5 -55.5v-562q0 -33 -24.5 -56t-57.5 -23q-28 0 -50 17.5t-28 44.5q-14 -24 -48.5 -43.5t-83.5 -19.5q-93 0 -166.5 70t-73.5 197q0 124 74.5 195t165.5 71q48 0 83.5 -22t46.5 -51v-9q0 8 1 12v179q0 32 23.5 55.5t55.5 23.5zM310 129
q41 0 74 31.5t33 99.5q0 66 -33.5 98t-73.5 32q-46 0 -78 -34.5t-32 -95.5t32 -96t78 -35z" />
    <glyph glyph-name="e" unicode="e" horiz-adv-x="599" 
d="M307 526q93 0 172.5 -67.5t79.5 -173.5q0 -46 -24 -65t-74 -19l-255 3q22 -81 120 -81q19 0 63 11q48 16 58 16q24 0 38.5 -15t14.5 -38q0 -36 -38 -65q-60 -37 -143 -37q-53 0 -101.5 16t-89 47t-64.5 82.5t-24 117.5q0 65 25.5 118t65.5 84.5t86 48.5t90 17zM307 388
q-39 0 -67 -19t-34 -59h196q-14 78 -95 78z" />
    <glyph glyph-name="f" unicode="f" horiz-adv-x="457" 
d="M320 593q-44 -7 -50 -47v-26h62q29 0 46 -17.5t17 -44.5t-17 -44t-46 -17h-62v-324q0 -33 -23.5 -56t-56.5 -23t-56.5 23t-23.5 56v324h-26q-29 0 -46.5 17t-17.5 44t17.5 44.5t46.5 17.5h26v35q0 41 13.5 73t33.5 50t46.5 30t48.5 15.5t43 3.5q64 0 109 -24
q43 -28 43 -66q0 -25 -16.5 -40.5t-42.5 -15.5q-14 0 -47 9q-13 3 -21 3z" />
    <glyph glyph-name="g" unicode="g" horiz-adv-x="631" 
d="M572 444v-371q0 -11 -3 -21v-42q0 -58 -25.5 -101.5t-66.5 -67t-84 -35t-86 -11.5q-60 0 -132 23q-53 23 -53 69q0 27 18.5 45t44.5 18q14 0 29 -5q4 0 35.5 -7t57.5 -7q51 0 77 24t26 55v43q-14 -23 -48 -41.5t-82 -18.5q-93 0 -166.5 70t-73.5 197q0 124 74.5 195
t165.5 71q48 0 83.5 -22t46.5 -51v-9q0 32 24 55.5t56 23.5t57 -23.5t25 -55.5zM310 129q41 0 74 31.5t33 99.5q0 66 -33.5 98t-73.5 32q-46 0 -78 -34.5t-32 -95.5t32 -96t78 -35z" />
    <glyph glyph-name="h" unicode="h" horiz-adv-x="628" 
d="M382 525q83 0 134.5 -61t51.5 -187v-203q0 -33 -23.5 -56t-56.5 -23q-32 0 -55.5 23t-23.5 56v203q0 57 -24 85t-65 28q-28 0 -49.5 -13t-31.5 -30.5t-14.5 -31t-4.5 -19.5v-222q0 -33 -23.5 -56t-56.5 -23t-56.5 23t-23.5 56v560q0 33 24 56.5t56 23.5t56 -23.5
t24 -56.5v-223q3 35 48 74.5t114 39.5z" />
    <glyph glyph-name="i" unicode="i" horiz-adv-x="282" 
d="M141 567q-32 0 -56.5 23.5t-24.5 54.5q0 32 24.5 55.5t56.5 23.5t56.5 -23.5t24.5 -55.5q0 -31 -24.5 -54.5t-56.5 -23.5zM141 523q33 0 56.5 -23.5t23.5 -57.5v-367q0 -33 -23.5 -57t-56.5 -24t-56.5 24t-23.5 57v367q0 34 23.5 57.5t56.5 23.5z" />
    <glyph glyph-name="j" unicode="j" horiz-adv-x="313" 
d="M172 567q-32 0 -56.5 23.5t-24.5 54.5q0 32 24.5 55.5t56.5 23.5t56.5 -23.5t24.5 -55.5q0 -31 -24.5 -54.5t-56.5 -23.5zM172 523q33 0 56.5 -24t23.5 -58v-486q0 -73 -45 -116.5t-122 -43.5q-47 0 -83 15q-62 32 -62 82q0 36 27 58t62 12q2 0 12.5 -5.5t20.5 -5.5
q6 0 11 2t8 4.5t5.5 7t3.5 7.5t1.5 8.5t0.5 8v7.5v6v439q0 34 23.5 58t56.5 24z" />
    <glyph glyph-name="k" unicode="k" horiz-adv-x="568" 
d="M524 112q19 -19 19 -48q0 -28 -20 -48.5t-49 -20.5q-32 0 -49 22l-157 182l-48 -43v-82q0 -33 -23.5 -56t-56.5 -23t-56.5 23t-23.5 56v560q0 33 24 56.5t56 23.5t56 -23.5t24 -56.5v-292l166 158q23 23 54 23q30 0 50.5 -21.5t20.5 -50.5q0 -31 -20 -51l-123 -111z" />
    <glyph glyph-name="l" unicode="l" horiz-adv-x="280" 
d="M220 74q0 -33 -23.5 -56t-56.5 -23t-56.5 23t-23.5 56v560q0 33 24 56.5t56 23.5t56 -23.5t24 -56.5v-560z" />
    <glyph glyph-name="m" unicode="m" horiz-adv-x="977" 
d="M730 525q84 0 135.5 -61.5t51.5 -186.5v-203q0 -33 -23.5 -56t-56.5 -23t-56.5 23t-23.5 56v203q0 57 -23.5 85t-64.5 28q-37 0 -62 -22.5t-32 -42t-7 -29.5v-19v-203q0 -33 -23.5 -56t-56.5 -23q-32 0 -55.5 23t-23.5 56v203q0 57 -24 85t-65 28q-28 0 -49.5 -13
t-31.5 -30.5t-14.5 -31t-4.5 -19.5v-222q0 -33 -23.5 -56t-56.5 -23t-56.5 23t-23.5 56v368q0 34 24 57.5t56 23.5t56 -23.5t24 -57.5v-31q3 35 48 74.5t114 39.5q124 0 167 -121q23 51 70 86t111 35z" />
    <glyph glyph-name="n" unicode="n" horiz-adv-x="628" 
d="M382 525q83 0 134.5 -61t51.5 -187v-203q0 -33 -23.5 -56t-56.5 -23q-32 0 -55.5 23t-23.5 56v203q0 57 -24 85t-65 28q-28 0 -49.5 -13t-31.5 -30.5t-14.5 -31t-4.5 -19.5v-222q0 -33 -23.5 -56t-56.5 -23t-56.5 23t-23.5 56v368q0 34 24 57.5t56 23.5t56 -23.5
t24 -57.5v-31q3 35 48 74.5t114 39.5z" />
    <glyph glyph-name="o" unicode="o" horiz-adv-x="621" 
d="M311 526q44 0 90.5 -17.5t87 -49.5t66.5 -84.5t26 -116.5t-26 -116.5t-66.5 -83.5t-87 -48t-90.5 -17q-45 0 -91 17t-87 48t-67 83.5t-26 116.5t26 116.5t66.5 84.5t87 49.5t91.5 17.5zM311 388q-48 0 -80.5 -36t-32.5 -94q0 -56 32.5 -91.5t80.5 -35.5q47 0 80 36t33 91
q0 57 -32.5 93.5t-80.5 36.5z" />
    <glyph glyph-name="p" unicode="p" 
d="M352 526q91 0 165.5 -71t74.5 -195q0 -127 -73.5 -197t-166.5 -70q-48 0 -82.5 19t-48.5 43v-174q0 -33 -24 -56t-57 -23t-56.5 23t-23.5 56v563q0 32 25 55.5t57 23.5t56 -23.5t24 -55.5v9q11 29 46.5 51t83.5 22zM322 129q46 0 78 35t32 96t-32 95.5t-78 34.5
q-40 0 -73.5 -32t-33.5 -98q0 -68 33 -99.5t74 -31.5z" />
    <glyph glyph-name="q" unicode="q" 
d="M490 523q32 0 57 -23.5t25 -55.5v-563q0 -33 -23.5 -56t-56.5 -23t-57 23t-24 56v174q-14 -24 -48.5 -43t-82.5 -19q-93 0 -166.5 70t-73.5 197q0 124 74.5 195t165.5 71q48 0 83.5 -22t46.5 -51v-9q0 32 24 55.5t56 23.5zM310 129q41 0 74 31.5t33 99.5q0 66 -33.5 98
t-73.5 32q-46 0 -78 -34.5t-32 -95.5t32 -96t78 -35z" />
    <glyph glyph-name="r" unicode="r" horiz-adv-x="465" 
d="M363 525q34 0 53 -21t19 -51q0 -35 -25.5 -55t-75.5 -20q-48 0 -80 -28t-34 -54v-222q0 -32 -24 -55.5t-56 -23.5t-56 23.5t-24 55.5v368q0 34 24 57.5t56 23.5t56 -23.5t24 -57.5v-31q3 33 45.5 73.5t97.5 40.5z" />
    <glyph glyph-name="s" unicode="s" horiz-adv-x="482" 
d="M243 526q50 0 95.5 -18t69.5 -51q20 -23 20 -50q0 -28 -17 -43.5t-44 -15.5q-39 0 -65 29q-25 24 -53 24q-19 0 -30 -8.5t-11 -22.5v-1q0 -5 1 -9t9.5 -12t25.5 -13l59 -18q66 -20 105 -54.5t39 -98.5q0 -82 -61.5 -125.5t-147.5 -43.5q-43 0 -79.5 12.5t-52 23
t-37.5 28.5q-34 34 -34 75q0 23 14.5 41t45.5 18t64 -35q37 -35 79 -35q51 0 51 32q0 5 -1 9.5t-12 14.5t-31 16l-47 14q-147 44 -147 160q0 76 57.5 116.5t134.5 40.5z" />
    <glyph glyph-name="t" unicode="t" horiz-adv-x="415" 
d="M329 135q26 0 41 -15t15 -43q0 -39 -32.5 -60.5t-92.5 -21.5q-33 0 -57.5 7t-48.5 25.5t-37 58t-13 98.5v213h-20q-29 0 -46.5 17t-17.5 44t17.5 44.5t46.5 17.5h20v58q0 33 24 56.5t56 23.5t56 -23.5t24 -56.5v-58h58q29 0 46 -17.5t17 -44.5t-17 -44t-46 -17h-58v-221
q0 -44 27 -44q4 0 18 2t20 1z" />
    <glyph glyph-name="u" unicode="u" horiz-adv-x="628" 
d="M246 -6q-83 0 -134.5 61t-51.5 187v203q0 33 23.5 56t56.5 23q32 0 55.5 -23t23.5 -56v-203q0 -57 24 -85t65 -28q28 0 49.5 13t31.5 30.5t14.5 31t4.5 19.5v222q0 33 23.5 56t56.5 23t56.5 -23t23.5 -56v-368q0 -33 -24 -57t-56 -24t-56 24t-24 57v31q-3 -35 -48 -74.5
t-114 -39.5z" />
    <glyph glyph-name="v" unicode="v" horiz-adv-x="573" 
d="M469 523q32 0 53 -21t21 -50q0 -18 -10 -38l-167 -355q-29 -61 -80 -61q-52 0 -79 61l-168 355q-9 23 -9 38q0 29 21 50t52 21q51 0 76 -57l107 -248l108 248q23 57 75 57z" />
    <glyph glyph-name="w" unicode="w" horiz-adv-x="857" 
d="M752 523q32 0 53.5 -21.5t21.5 -53.5q0 -1 -11 -37l-126 -352q-20 -61 -76 -61q-54 0 -80 61l-106 238l-106 -238q-26 -61 -80 -61q-56 0 -76 61l-125 352q-11 29 -11 37q0 32 22 53.5t53 21.5q22 0 41 -11.5t26 -30.5l81 -257l104 251q20 48 71 48q52 0 72 -48l103 -251
l82 257q6 18 25.5 30t41.5 12z" />
    <glyph glyph-name="x" unicode="x" horiz-adv-x="548" 
d="M496 108q17 -17 17 -43q0 -28 -22 -49t-51 -21q-30 0 -56 29l-110 129l-110 -129q-26 -29 -56 -29q-28 0 -50.5 21t-22.5 49q0 24 17 43l133 151l-133 151q-16 19 -16 42q0 29 22.5 50t50.5 21q35 0 56 -29l109 -129l109 129q24 29 57 29q28 0 50 -21t22 -50
q0 -23 -16 -42l-133 -151z" />
    <glyph glyph-name="y" unicode="y" horiz-adv-x="597" 
d="M493 523q32 0 53 -21t21 -50q0 -18 -10 -38l-251 -552q-25 -57 -76 -57q-31 0 -51 21t-20 50q0 16 9 38l51 113l-180 387q-9 23 -9 38q0 29 21 50t52 21q51 0 76 -57l117 -268l121 268q25 57 76 57z" />
    <glyph glyph-name="z" unicode="z" horiz-adv-x="504" 
d="M341 520q75 0 106.5 -60.5t-21.5 -119.5l-219 -204h189q28 0 48 -19.5t20 -47.5q0 -29 -20 -49t-48 -20h-242q-48 0 -80 29t-33 69.5t34 83.5l217 202h-172q-29 0 -49.5 20t-20.5 48t20.5 48t49.5 20h221z" />
    <glyph glyph-name="braceleft" unicode="{" horiz-adv-x="395" 
d="M281 745q28 0 48.5 -20t20.5 -48t-20.5 -48t-48.5 -20h-11q-35 0 -35 -30v-181q0 -22 -14 -44l-45 -48l43 -46q16 -20 16 -44v-180q0 -30 35 -30h11q28 0 48.5 -20t20.5 -48t-20.5 -48t-48.5 -20h-87q-21 0 -39 4.5t-37.5 16t-31 36.5t-11.5 62v246l-19 28q-26 43 0 85
l19 31v247q0 37 12 62t31.5 36.5t37.5 16t38 4.5h87z" />
    <glyph glyph-name="bar" unicode="|" horiz-adv-x="286" 
d="M144 808q28 0 47.5 -20t19.5 -48v-870q0 -28 -19.5 -48t-47.5 -20q-29 0 -49 20t-20 48v870q0 28 20 48t49 20z" />
    <glyph glyph-name="braceright" unicode="}" horiz-adv-x="365" 
d="M84 745h87q20 0 38 -4.5t37.5 -16t31.5 -36.5t12 -62v-247l19 -31q26 -42 0 -85l-19 -28v-246q0 -37 -11.5 -62t-31 -36.5t-37.5 -16t-39 -4.5h-87q-28 0 -48.5 20t-20.5 48t20.5 48t48.5 20h11q35 0 35 30v180q0 24 16 44l43 46l-45 48q-14 22 -14 44v181q0 30 -35 30
h-11q-28 0 -48.5 20t-20.5 48t20.5 48t48.5 20z" />
    <glyph glyph-name="asciitilde" unicode="~" horiz-adv-x="540" 
d="M181 382q42 0 110.5 -35t96.5 -35q2 0 16.5 -1.5t20.5 -0.5q5 3 12.5 9t12 8t11.5 2q39 0 32 -33q-9 -47 -41.5 -77t-88.5 -30q-43 0 -114.5 41t-100.5 41q-26 0 -38 -4q-1 -1 -4 -5t-4 -5t-3.5 -4t-3.5 -3.5t-3.5 -2t-5 -2t-5.5 -1t-7 -0.5q-15 0 -22.5 6.5t-5.5 19.5
q17 112 135 112z" />
    <glyph glyph-name="exclamdown" unicode="&#xa1;" horiz-adv-x="301" 
d="M151 525q37 0 63.5 -26.5t26.5 -64.5q0 -37 -26.5 -63.5t-63.5 -26.5t-64 26.5t-27 63.5q0 38 26.5 64.5t64.5 26.5zM151 -183q-37 0 -63.5 27t-26.5 64v296q0 37 26.5 64t63.5 27q36 0 62.5 -27t26.5 -64v-296q0 -37 -26.5 -64t-62.5 -27z" />
    <glyph glyph-name="cent" unicode="&#xa2;" horiz-adv-x="541" 
d="M438 243q25 0 44 -16.5t19 -42.5q0 -10 -2.5 -19t-5.5 -15t-9.5 -13t-10 -10t-11 -9.5t-8.5 -7.5q-37 -23 -76 -33v-57q0 -28 -20 -48t-48 -20t-48 20t-20 48v58q-85 22 -143.5 86.5t-58.5 165.5t58.5 165.5t143.5 86.5v58q0 28 20 48t48 20t48 -20t20 -48v-57
q39 -8 76 -33l7 -6q7 -5 9.5 -7t8.5 -8t8.5 -10.5t6.5 -11.5t5.5 -14.5t1.5 -15.5q0 -26 -19 -42.5t-44 -16.5t-60 22v-219q35 22 60 22zM198 330q0 -69 44 -102v204q-44 -33 -44 -102z" />
    <glyph glyph-name="sterling" unicode="&#xa3;" horiz-adv-x="605" 
d="M496 136q29 0 49 -19.5t20 -47.5q0 -29 -20 -49t-49 -20h-392q-35 0 -49 15q-10 9 -10.5 24.5t10.5 32.5q59 82 79 119.5t21 70.5v4h-47q-25 0 -42.5 17.5t-17.5 41.5q0 23 16 40.5t40 18.5q-35 54 -35 110q0 98 78 155.5t180 57.5q75 0 138 -34.5t91 -95.5
q14 -45 -7.5 -76t-68.5 -31q-52 0 -71 44q-20 32 -38.5 44.5t-47.5 12.5q-45 0 -67.5 -24.5t-22.5 -66.5q0 -41 37 -96h98q24 0 41 -17.5t17 -41.5t-17 -41.5t-41 -17.5h-49v-5q0 -59 -51 -125h228z" />
    <glyph glyph-name="currency" unicode="&#xa4;" horiz-adv-x="524" 
d="M437 476q0 -42 -16 -85l48 -48l-94 -93l-39 39q-56 -37 -123 -37q-66 0 -119 34l-36 -36l-94 93l43 43q-18 46 -18 90q0 49 20 94l-45 45l94 93l40 -40q53 32 115 32q63 0 120 -34l42 42l94 -93l-50 -50q18 -41 18 -89zM213 378q30 0 51.5 11.5t30.5 29.5t13 32t4 25
t-4 25t-13 32t-30.5 29.5t-51.5 11.5q-24 0 -42.5 -8t-28.5 -20t-16 -26.5t-8 -25t-2 -18.5q0 -17 5.5 -36.5t29 -40.5t62.5 -21z" />
    <glyph glyph-name="yen" unicode="&#xa5;" horiz-adv-x="650" 
d="M611 629q0 -23 -12 -41l-185 -272h48q24 0 42 -17.5t18 -39.5t-18 -39t-42 -17h-56v-15h56q24 0 42 -17.5t18 -39.5t-18 -39t-42 -17h-56v-5q0 -32 -24.5 -55t-56.5 -23q-33 0 -57 22.5t-24 55.5v5h-57q-24 0 -42 17t-18 39t18 39.5t42 17.5h57v15h-57q-24 0 -42 17
t-18 39t18 39.5t42 17.5h49l-185 272q-12 18 -12 41q0 31 22 53t53 22q36 0 60 -30l151 -230l151 230q22 30 59 30q31 0 53.5 -22t22.5 -53z" />
    <glyph glyph-name="brokenbar" unicode="&#xa6;" horiz-adv-x="286" 
d="M144 808q28 0 47.5 -20t19.5 -48v-160q0 -28 -19.5 -48.5t-47.5 -20.5q-29 0 -49 20.5t-20 48.5v160q0 28 20 48t49 20zM144 98q28 0 47.5 -20t19.5 -48v-160q0 -28 -19.5 -48t-47.5 -20q-29 0 -49 20t-20 48v160q0 28 20 48t49 20z" />
    <glyph glyph-name="section" unicode="&#xa7;" horiz-adv-x="612" 
d="M572 216q0 -44 -22 -90q22 -47 22 -100q0 -99 -84.5 -160t-185.5 -61q-82 0 -148 41t-102 110q-20 46 -5 77t57 45q40 11 65 -5t50 -60q30 -43 83 -43q42 0 67.5 15t25.5 41q0 27 -17 42.5t-53 27.5l-84 28q-183 57 -183 209q0 31 22 97q-22 64 -22 101q0 92 73 152.5
t174 60.5q85 0 149 -39t95 -101q22 -45 6 -76.5t-61 -44.5q-41 -11 -60.5 3t-48.5 60q-28 33 -80 33q-33 0 -52 -14t-19 -34q0 -21 12.5 -34t45.5 -22l67 -25q213 -64 213 -234zM218 323h-1h1zM359 256l29 -9q-14 29 -63 45l-84 25l-5 2q8 -27 56 -38z" />
    <glyph glyph-name="dieresis" unicode="&#xa8;" horiz-adv-x="434" 
d="M84 552q-34 0 -59 25t-25 59t24.5 58t59.5 24t59.5 -24t24.5 -58t-25 -59t-59 -25zM350 552q-34 0 -59 25t-25 59t24.5 58t59.5 24t59.5 -24t24.5 -58t-25 -59t-59 -25z" />
    <glyph glyph-name="copyright" unicode="&#xa9;" horiz-adv-x="834" 
d="M418 707q94 0 177 -43.5t136 -126.5t53 -187t-53 -187t-136 -126.5t-177 -43.5q-95 0 -178.5 43.5t-136.5 126.5t-53 187t53 187t136.5 126.5t178.5 43.5zM418 143q86 0 143 58t57 149t-57 149t-143 58t-142.5 -58t-56.5 -149t56.5 -149t142.5 -58zM422 521
q45 0 77 -18.5t31 -54.5q-1 -25 -22 -44t-50 -19q-6 0 -13.5 3t-9.5 3v-1q-2 2 -9 2q-17 0 -29.5 -12.5t-12.5 -29.5t11.5 -29t30.5 -12q6 0 7 1v-1q20 8 28 8q28 0 47 -19t20 -47q0 -23 -10.5 -38t-29.5 -22t-35.5 -9.5t-35.5 -2.5q-69 0 -115.5 48t-46.5 123
q0 76 47 123.5t120 47.5z" />
    <glyph glyph-name="ordfeminine" unicode="&#xaa;" horiz-adv-x="429" 
d="M204 718q72 0 113.5 -42t41.5 -118v-96q0 -31 5 -46q8 -25 0.5 -33.5t-32.5 -8.5q-50 0 -56 19q0 2 -1.5 4t-3 5.5t-3.5 7.5q-32 -38 -96 -38q-60 0 -96 28t-36 77q0 55 41.5 84t103.5 34l65 5q1 17 -14 24.5t-34 7.5q-26 0 -64 -24q-30 -19 -58 9q-30 27 -11 51
q53 50 135 50zM250 514q-25 -3 -68 -6q-39 -3 -39 -27q0 -25 34 -25q52 0 73 49v9z" />
    <glyph glyph-name="guillemotleft" unicode="&#xab;" horiz-adv-x="498" 
d="M40 290q0 13 1.5 21.5t9.5 18.5t11.5 13.5l19.5 19.5l87 83q24 21 49.5 11t25.5 -40q0 -20 -35 -56l-64 -73l64 -72q35 -36 35 -56q0 -30 -25.5 -40t-49.5 11l-87 83q-32 31 -38 44q-4 12 -4 28v4zM254 290q0 13 1.5 21.5t9.5 18.5t11.5 13.5l19.5 19.5l87 83
q24 21 49.5 11t25.5 -40q0 -20 -35 -56l-64 -73l64 -72q35 -36 35 -56q0 -30 -25.5 -40t-49.5 11l-87 83q-32 31 -38 44q-4 12 -4 28v4z" />
    <glyph glyph-name="logicalnot" unicode="&#xac;" horiz-adv-x="539" 
d="M403 339q40 0 65.5 -26t25.5 -65v-98q0 -33 -23.5 -56t-56.5 -23q-32 0 -55.5 23t-23.5 56v57h-224q-27 0 -46.5 19.5t-19.5 46.5t20 46.5t46 19.5h292z" />
    <glyph glyph-name="uni00AD" unicode="&#xad;" horiz-adv-x="454" 
d="M344 339q26 0 45.5 -19.5t19.5 -46.5t-19.5 -46.5t-45.5 -19.5h-233q-27 0 -46.5 19.5t-19.5 46.5t20 46.5t46 19.5h233z" />
    <glyph glyph-name="registered" unicode="&#xae;" horiz-adv-x="834" 
d="M418 707q94 0 177 -43.5t136 -126.5t53 -187t-53 -187t-136 -126.5t-177 -43.5q-95 0 -178.5 43.5t-136.5 126.5t-53 187t53 187t136.5 126.5t178.5 43.5zM548 189q70 60 70 161q0 91 -57 149t-143 58q-70 0 -121 -39h100q64 0 99 -28.5t35 -73.5q0 -68 -62 -98zM219 350
q0 -105 74 -165v330q-74 -60 -74 -165zM375 386h30q17 0 27.5 8.5t10.5 21.5t-10 21.5t-28 8.5h-30v-60zM295 184q52 -41 123 -41q70 0 124 41h-72l-77 130h-17v-130h-81z" />
    <glyph glyph-name="macron" unicode="&#xaf;" horiz-adv-x="397" 
d="M329 700q28 0 48 -20t20 -48t-20 -48t-48 -20h-260q-29 0 -49 20t-20 48t20 48t49 20h260z" />
    <glyph glyph-name="degree" unicode="&#xb0;" horiz-adv-x="389" 
d="M195 719q61 0 105 -43.5t44 -103.5q0 -61 -44 -105t-105 -44t-105.5 44t-44.5 105q0 60 44.5 103.5t105.5 43.5zM195 535q34 0 34 37q0 4 -0.5 10t-9 15.5t-24.5 9.5t-24.5 -8.5t-9.5 -17.5l-1 -9q0 -37 35 -37z" />
    <glyph glyph-name="plusminus" unicode="&#xb1;" horiz-adv-x="484" 
d="M116 322q-29 0 -50 19.5t-21 46.5t21 46.5t50 19.5h61v63q0 29 19.5 50t46.5 21t46.5 -21t19.5 -50v-63h59q28 0 49.5 -19.5t21.5 -46.5t-21.5 -46.5t-49.5 -19.5h-59v-57q0 -28 -19.5 -49.5t-46.5 -21.5t-46.5 21.5t-19.5 49.5v57h-61zM368 133q28 0 49.5 -19.5
t21.5 -46.5t-21.5 -46.5t-49.5 -19.5h-252q-29 0 -50 19.5t-21 46.5t21 46.5t50 19.5h252z" />
    <glyph glyph-name="uni00B2" unicode="&#xb2;" horiz-adv-x="261" 
d="M129 704q34 0 59 -22.5t25 -52.5q0 -26 -14.5 -47t-53.5 -61l-47 -49h118v-32h-168v32l68 69q28 29 36.5 38.5t15.5 22.5t7 27q0 18 -14 31t-32 13q-19 0 -33 -13t-14 -37v-14h-37v14q0 35 24.5 58t59.5 23z" />
    <glyph glyph-name="uni00B3" unicode="&#xb3;" horiz-adv-x="273" 
d="M136 703q32 0 56 -21t24 -47q0 -32 -30 -53q42 -18 42 -66q0 -34 -27.5 -57t-64.5 -23q-42 0 -69 27.5t-22 63.5h38q-8 -22 9.5 -40.5t43.5 -18.5q22 0 38 13.5t16 34.5q0 28 -20 39.5t-54 3.5v32q63 6 63 44q0 15 -12.5 26t-30.5 11q-22 0 -35.5 -16.5t-9.5 -42.5h-39
q-4 38 21 64t63 26z" />
    <glyph glyph-name="acute" unicode="&#xb4;" horiz-adv-x="193" 
d="M106 775q34 0 58 -23.5t24 -57.5q0 -31 -19 -53l-62 -58q-17 -22 -44 -22q-31 0 -49 22.5t-5 54.5l19 81q9 25 30 40.5t48 15.5z" />
    <glyph glyph-name="uni00B5" unicode="&#xb5;" horiz-adv-x="633" 
d="M493 524q33 0 56.5 -23t23.5 -56v-368q0 -33 -23.5 -57t-56.5 -24t-56.5 24t-23.5 57v31q-3 -35 -48 -74.5t-114 -39.5q-11 0 -31 2v-115q0 -33 -23.5 -56t-56.5 -23t-56.5 23t-23.5 56v562q0 29 18.5 51t46.5 28q12 2 20 2q32 0 55.5 -23t23.5 -56v-203q0 -57 24 -85
t65 -28q28 0 49.5 13t31.5 30.5t14.5 31t4.5 19.5v222q0 33 23.5 56t56.5 23z" />
    <glyph glyph-name="paragraph" unicode="&#xb6;" horiz-adv-x="946" 
d="M797 708q32 0 55.5 -23t23.5 -56v-559q0 -33 -23 -55.5t-56 -22.5t-56.5 22.5t-23.5 55.5v559q0 33 23.5 56t56.5 23zM519 700q40 0 65.5 -25.5t25.5 -65.5v-535q0 -34 -24.5 -58t-58.5 -24t-57.5 24t-23.5 58v165h-110q-114 0 -185.5 66.5t-71.5 162.5q0 97 71.5 164.5
t185.5 67.5h183zM345 379h101v181h-101q-107 0 -107 -92q0 -51 28.5 -70t78.5 -19z" />
    <glyph glyph-name="periodcentered" unicode="&#xb7;" horiz-adv-x="281" 
d="M141 189q-38 0 -64.5 26.5t-26.5 64.5q0 37 27 63.5t64 26.5t63.5 -26.5t26.5 -63.5q0 -38 -26.5 -64.5t-63.5 -26.5z" />
    <glyph glyph-name="cedilla" unicode="&#xb8;" horiz-adv-x="218" 
d="M128 -55q90 -28 90 -101q0 -100 -189 -91q-14 1 -22 9t-6 19q3 16 32 19q37 5 51.5 14.5t14.5 26.5q0 16 -10.5 23.5t-24.5 4.5q-34 -9 -51 21q-13 23 -2 47l36 63h133z" />
    <glyph glyph-name="uni00B9" unicode="&#xb9;" horiz-adv-x="192" 
d="M117 701v-261h-37v221l-17 -11l-18 31l35 20h37z" />
    <glyph glyph-name="ordmasculine" unicode="&#xba;" horiz-adv-x="396" 
d="M198 705q61 0 109.5 -45.5t48.5 -118.5q0 -74 -48.5 -119t-109.5 -45t-109.5 45t-48.5 119q0 73 48.5 118.5t109.5 45.5zM198 603q-26 0 -42 -16.5t-16 -43.5q0 -28 16 -45t42 -17q25 0 40.5 16.5t15.5 45.5q0 27 -16 43.5t-40 16.5z" />
    <glyph glyph-name="guillemotright" unicode="&#xbb;" horiz-adv-x="498" 
d="M244 290v-4q0 -16 -5.5 -28.5t-11 -18.5t-25.5 -25l-87 -83q-24 -21 -49.5 -11t-25.5 40q0 20 35 56l64 72l-64 73q-35 36 -35 56q0 30 25.5 40t49.5 -11l87 -83q32 -31 37 -44t5 -29zM458 290v-4q0 -16 -5.5 -28.5t-11 -18.5t-25.5 -25l-87 -83q-24 -21 -49.5 -11
t-25.5 40q0 20 35 56l64 72l-64 73q-35 36 -35 56q0 30 25.5 40t49.5 -11l87 -83q32 -31 37 -44t5 -29z" />
    <glyph glyph-name="onequarter" unicode="&#xbc;" horiz-adv-x="569" 
d="M100 701v-261h-37v221l-17 -11l-18 31l35 20h37zM503 700l-430 -700h-48l436 700h42zM517 261v-154h27v-31h-27v-76h-37v76h-132l132 185h37zM480 202l-65 -95h65v95z" />
    <glyph glyph-name="onehalf" unicode="&#xbd;" horiz-adv-x="544" 
d="M100 701v-261h-37v221l-17 -11l-18 31l35 20h37zM503 700l-430 -700h-48l436 700h42zM432 264q34 0 59 -22.5t25 -52.5q0 -26 -14.5 -47t-53.5 -61l-47 -49h118v-32h-168v32l68 69q28 29 36.5 38.5t15.5 22.5t7 27q0 18 -14 31t-32 13q-19 0 -33 -13t-14 -37v-14h-37v14
q0 35 24.5 58t59.5 23z" />
    <glyph glyph-name="threequarters" unicode="&#xbe;" horiz-adv-x="587" 
d="M116 703q32 0 56 -21t24 -47q0 -32 -30 -53q42 -18 42 -66q0 -34 -27.5 -57t-64.5 -23q-42 0 -69 27.5t-22 63.5h38q-8 -22 9.5 -40.5t43.5 -18.5q22 0 38 13.5t16 34.5q0 28 -20 39.5t-54 3.5v32q63 6 63 44q0 15 -12.5 26t-30.5 11q-22 0 -35.5 -16.5t-9.5 -42.5h-39
q-4 38 21 64t63 26zM531 700l-430 -700h-48l436 700h42zM535 261v-154h27v-31h-27v-76h-37v76h-132l132 185h37zM498 202l-65 -95h65v95z" />
    <glyph glyph-name="questiondown" unicode="&#xbf;" horiz-adv-x="553" 
d="M261 525q38 0 64.5 -26.5t26.5 -64.5q0 -37 -27 -63.5t-64 -26.5t-63.5 26.5t-26.5 63.5q0 38 26.5 64.5t63.5 26.5zM272 -187q-94 0 -165.5 56.5t-71.5 154.5q0 40 14.5 68t35.5 43t42 28t35.5 31.5t14.5 44.5q0 33 21.5 57.5t61.5 24.5t61.5 -24.5t21.5 -57.5
q0 -37 -15 -66.5t-37 -47.5t-44 -33t-37 -33.5t-15 -40.5q0 -14 5 -28t23.5 -28t48.5 -14q49 0 68.5 31t17.5 59q0 36 19.5 61.5t59.5 25.5q41 0 61 -25.5t20 -61.5q0 -102 -76 -163.5t-170 -61.5z" />
    <glyph glyph-name="Agrave" unicode="&#xc0;" horiz-adv-x="723" 
d="M331 763l-62 58q-19 22 -19 53q0 34 24 57.5t58 23.5q27 0 48 -15.5t30 -40.5l19 -81q13 -32 -5 -54.5t-49 -22.5q-27 0 -44 22zM677 118q11 -26 11 -48q0 -30 -23.5 -52t-56.5 -22q-57 0 -79 53l-38 90h-259l-38 -90q-23 -53 -79 -53q-33 0 -56.5 22t-23.5 52
q0 22 11 48l236 526q25 61 79 61t80 -61zM286 268h150l-75 178z" />
    <glyph glyph-name="Aacute" unicode="&#xc1;" horiz-adv-x="723" 
d="M341 741q-31 0 -49 22.5t-5 54.5l19 81q9 25 30 40.5t48 15.5q34 0 58 -23.5t24 -57.5q0 -31 -19 -53l-62 -58q-17 -22 -44 -22zM677 118q11 -26 11 -48q0 -30 -23.5 -52t-56.5 -22q-57 0 -79 53l-38 90h-259l-38 -90q-23 -53 -79 -53q-33 0 -56.5 22t-23.5 52
q0 22 11 48l236 526q25 61 79 61t80 -61zM286 268h150l-75 178z" />
    <glyph glyph-name="Acircumflex" unicode="&#xc2;" horiz-adv-x="723" 
d="M255 787q-29 0 -38.5 25t9.5 50l60 77q18 24 32.5 32.5t40.5 8.5h4q25 0 39.5 -8.5t32.5 -32.5l60 -77q20 -25 10 -50t-39 -25q-28 0 -57 34l-48 54l-49 -54q-29 -34 -57 -34zM677 118q11 -26 11 -48q0 -30 -23.5 -52t-56.5 -22q-57 0 -79 53l-38 90h-259l-38 -90
q-23 -53 -79 -53q-33 0 -56.5 22t-23.5 52q0 22 11 48l236 526q25 61 79 61t80 -61zM286 268h150l-75 178z" />
    <glyph glyph-name="Atilde" unicode="&#xc3;" horiz-adv-x="723" 
d="M179 786q-18 0 -30 14t-7 34q13 44 49 71.5t89 27.5q37 0 101 -35t87 -35t36 12q13 13 33 13q21 0 33 -15.5t6 -34.5q-16 -43 -49 -70.5t-76 -27.5t-111.5 40.5t-91.5 40.5q-22 0 -33 -16q-12 -19 -36 -19zM677 118q11 -26 11 -48q0 -30 -23.5 -52t-56.5 -22
q-57 0 -79 53l-38 90h-259l-38 -90q-23 -53 -79 -53q-33 0 -56.5 22t-23.5 52q0 22 11 48l236 526q25 61 79 61t80 -61zM286 268h150l-75 178z" />
    <glyph glyph-name="Adieresis" unicode="&#xc4;" horiz-adv-x="723" 
d="M228 732q-34 0 -59 25t-25 59t24.5 58t59.5 24t59.5 -24t24.5 -58t-25 -59t-59 -25zM494 732q-34 0 -59 25t-25 59t24.5 58t59.5 24t59.5 -24t24.5 -58t-25 -59t-59 -25zM677 118q11 -26 11 -48q0 -30 -23.5 -52t-56.5 -22q-57 0 -79 53l-38 90h-259l-38 -90
q-23 -53 -79 -53q-33 0 -56.5 22t-23.5 52q0 22 11 48l236 526q25 61 79 61t80 -61zM286 268h150l-75 178z" />
    <glyph glyph-name="Aring" unicode="&#xc5;" horiz-adv-x="723" 
d="M362 761q-51 0 -86 34.5t-35 82.5q0 49 35 84t86 35q47 0 82 -35t35 -84q0 -47 -35 -82t-82 -35zM359 904q-9 0 -15.5 -7t-6.5 -17q0 -9 6.5 -15.5t15.5 -6.5t16.5 6.5t7.5 15.5q0 10 -7.5 17t-16.5 7zM677 118q11 -26 11 -48q0 -30 -23.5 -52t-56.5 -22q-57 0 -79 53
l-38 90h-259l-38 -90q-23 -53 -79 -53q-33 0 -56.5 22t-23.5 52q0 22 11 48l236 526q25 61 79 61t80 -61zM286 268h150l-75 178z" />
    <glyph glyph-name="AE" unicode="&#xc6;" horiz-adv-x="969" 
d="M861 143q30 0 51.5 -21t21.5 -50q0 -30 -21.5 -51t-51.5 -21h-326q-40 0 -65.5 25.5t-25.5 65.5v43h-188l-57 -85q-32 -49 -95 -49h-2q-48 0 -62.5 27.5t13.5 66.5l380 557q34 49 96 49h322q30 0 51.5 -20.5t21.5 -49.5q0 -31 -21.5 -52t-51.5 -21h-243v-137h151
q30 0 51 -20.5t21 -47.5q0 -29 -21 -49t-51 -20h-151v-140h253zM349 271h95v140z" />
    <glyph glyph-name="Ccedilla" unicode="&#xc7;" horiz-adv-x="670" 
d="M559 199q31 0 53.5 -20t22.5 -54q0 -30 -18.5 -52t-56.5 -45q-51 -26 -111 -33l-48 -50q90 -28 90 -101q0 -100 -189 -91q-14 1 -22 9t-6 19q3 16 32 19q37 5 51.5 14.5t14.5 26.5q0 16 -10.5 23.5t-24.5 4.5q-34 -9 -51 21q-13 23 -2 47l36 63h18q-120 24 -204 120.5
t-84 229.5q0 152 108.5 254.5t244.5 102.5q90 0 158 -36q74 -45 74 -96q0 -34 -22.5 -54t-53.5 -20q-27 0 -62 21q-1 0 -9.5 5.5t-18 10t-27 9t-36.5 4.5q-76 0 -130 -59t-54 -142q0 -84 54 -142.5t132 -58.5q18 0 35 4.5t26.5 9t18 10t9.5 5.5q35 21 62 21z" />
    <glyph glyph-name="Egrave" unicode="&#xc8;" horiz-adv-x="585" 
d="M280 955q27 0 48 -15.5t30 -40.5l19 -81q13 -32 -5 -54.5t-49 -22.5q-27 0 -44 22l-62 58q-19 22 -19 53q0 34 24 57.5t58 23.5zM224 143h253q30 0 51.5 -21t21.5 -50q0 -30 -21.5 -51t-51.5 -21h-326q-40 0 -65.5 25.5t-25.5 65.5v518q0 40 25.5 65.5t65.5 25.5h316
q30 0 51.5 -20.5t21.5 -49.5q0 -31 -21.5 -52t-51.5 -21h-243v-137h151q30 0 51 -20.5t21 -47.5q0 -29 -21 -49t-51 -20h-151v-140z" />
    <glyph glyph-name="Eacute" unicode="&#xc9;" horiz-adv-x="585" 
d="M332 955q34 0 58 -23.5t24 -57.5q0 -31 -19 -53l-62 -58q-17 -22 -44 -22q-31 0 -49 22.5t-5 54.5l19 81q9 25 30 40.5t48 15.5zM224 143h253q30 0 51.5 -21t21.5 -50q0 -30 -21.5 -51t-51.5 -21h-326q-40 0 -65.5 25.5t-25.5 65.5v518q0 40 25.5 65.5t65.5 25.5h316
q30 0 51.5 -20.5t21.5 -49.5q0 -31 -21.5 -52t-51.5 -21h-243v-137h151q30 0 51 -20.5t21 -47.5q0 -29 -21 -49t-51 -20h-151v-140z" />
    <glyph glyph-name="Ecircumflex" unicode="&#xca;" horiz-adv-x="585" 
d="M311 980q25 0 39.5 -8.5t32.5 -32.5l60 -77q20 -25 10 -50t-39 -25q-28 0 -57 34l-48 54l-49 -54q-29 -34 -57 -34q-29 0 -38.5 25t9.5 50l60 77q18 24 32.5 32.5t40.5 8.5h4zM224 143h253q30 0 51.5 -21t21.5 -50q0 -30 -21.5 -51t-51.5 -21h-326q-40 0 -65.5 25.5
t-25.5 65.5v518q0 40 25.5 65.5t65.5 25.5h316q30 0 51.5 -20.5t21.5 -49.5q0 -31 -21.5 -52t-51.5 -21h-243v-137h151q30 0 51 -20.5t21 -47.5q0 -29 -21 -49t-51 -20h-151v-140z" />
    <glyph glyph-name="Edieresis" unicode="&#xcb;" horiz-adv-x="585" 
d="M176 732q-34 0 -59 25t-25 59t24.5 58t59.5 24t59.5 -24t24.5 -58t-25 -59t-59 -25zM442 732q-34 0 -59 25t-25 59t24.5 58t59.5 24t59.5 -24t24.5 -58t-25 -59t-59 -25zM224 143h253q30 0 51.5 -21t21.5 -50q0 -30 -21.5 -51t-51.5 -21h-326q-40 0 -65.5 25.5
t-25.5 65.5v518q0 40 25.5 65.5t65.5 25.5h316q30 0 51.5 -20.5t21.5 -49.5q0 -31 -21.5 -52t-51.5 -21h-243v-137h151q30 0 51 -20.5t21 -47.5q0 -29 -21 -49t-51 -20h-151v-140z" />
    <glyph glyph-name="Igrave" unicode="&#xcc;" horiz-adv-x="288" 
d="M115 955q27 0 48 -15.5t30 -40.5l19 -81q13 -32 -5 -54.5t-49 -22.5q-27 0 -44 22l-62 58q-19 22 -19 53q0 34 24 57.5t58 23.5zM144 703q34 0 59 -25t25 -59v-543q0 -34 -25 -59t-59 -25t-59 25t-25 59v543q0 34 25 59t59 25z" />
    <glyph glyph-name="Iacute" unicode="&#xcd;" horiz-adv-x="288" 
d="M167 955q34 0 58 -23.5t24 -57.5q0 -31 -19 -53l-62 -58q-17 -22 -44 -22q-31 0 -49 22.5t-5 54.5l19 81q9 25 30 40.5t48 15.5zM144 703q34 0 59 -25t25 -59v-543q0 -34 -25 -59t-59 -25t-59 25t-25 59v543q0 34 25 59t59 25z" />
    <glyph glyph-name="Icircumflex" unicode="&#xce;" horiz-adv-x="288" 
d="M146 980q25 0 39.5 -8.5t32.5 -32.5l60 -77q20 -25 10 -50t-39 -25q-28 0 -57 34l-48 54l-49 -54q-29 -34 -57 -34q-29 0 -38.5 25t9.5 50l60 77q18 24 32.5 32.5t40.5 8.5h4zM144 703q34 0 59 -25t25 -59v-543q0 -34 -25 -59t-59 -25t-59 25t-25 59v543q0 34 25 59
t59 25z" />
    <glyph glyph-name="Idieresis" unicode="&#xcf;" horiz-adv-x="288" 
d="M11 732q-35 0 -59.5 25t-24.5 59t24.5 58t59.5 24t59.5 -24t24.5 -58t-24.5 -59t-59.5 -25zM277 732q-35 0 -59.5 25t-24.5 59t24.5 58t59.5 24t59.5 -24t24.5 -58t-24.5 -59t-59.5 -25zM144 703q34 0 59 -25t25 -59v-543q0 -34 -25 -59t-59 -25t-59 25t-25 59v543
q0 34 25 59t59 25z" />
    <glyph glyph-name="Eth" unicode="&#xd0;" horiz-adv-x="756" 
d="M354 700q152 0 257 -92t105 -253q0 -113 -51 -195t-132 -121t-179 -39h-145q-40 0 -65.5 25.5t-25.5 65.5v185q-24 3 -41 21.5t-17 43.5t17 43.5t41 21.5v203q0 40 25.5 65.5t65.5 25.5h145zM354 138q97 0 147 51.5t50 165.5q0 207 -197 207h-72v-155h77q26 0 45.5 -19.5
t19.5 -46.5t-19.5 -46.5t-45.5 -19.5h-77v-137h72z" />
    <glyph glyph-name="Ntilde" unicode="&#xd1;" horiz-adv-x="713" 
d="M276 933q37 0 101 -35t87 -35t36 12q13 13 33 13q21 0 33 -15.5t6 -34.5q-16 -43 -49 -70.5t-76 -27.5t-111.5 40.5t-91.5 40.5q-22 0 -33 -16q-12 -19 -36 -19q-18 0 -30 14t-7 34q13 44 49 71.5t89 27.5zM568 703q36 0 60.5 -25t24.5 -59v-545q0 -38 -22 -59.5
t-56 -21.5q-51 0 -85 48l-262 362v-326q0 -34 -24.5 -59t-58.5 -25q-35 0 -60 25t-25 59v546q0 38 22 59t57 21q51 0 84 -48l262 -361v325q0 34 24.5 59t58.5 25z" />
    <glyph glyph-name="Ograve" unicode="&#xd2;" horiz-adv-x="798" 
d="M370 955q27 0 48 -15.5t30 -40.5l19 -81q13 -32 -5 -54.5t-49 -22.5q-27 0 -44 22l-62 58q-19 22 -19 53q0 34 24 57.5t58 23.5zM399 707q137 0 243 -102t106 -255t-106 -255t-243 -102t-243 102t-106 255t106 255t243 102zM399 551q-74 0 -125.5 -56.5t-51.5 -144.5
t51.5 -144t125.5 -56t125 56t51 144q0 89 -50.5 145t-125.5 56z" />
    <glyph glyph-name="Oacute" unicode="&#xd3;" horiz-adv-x="798" 
d="M422 955q34 0 58 -23.5t24 -57.5q0 -31 -19 -53l-62 -58q-17 -22 -44 -22q-31 0 -49 22.5t-5 54.5l19 81q9 25 30 40.5t48 15.5zM399 707q137 0 243 -102t106 -255t-106 -255t-243 -102t-243 102t-106 255t106 255t243 102zM399 551q-74 0 -125.5 -56.5t-51.5 -144.5
t51.5 -144t125.5 -56t125 56t51 144q0 89 -50.5 145t-125.5 56z" />
    <glyph glyph-name="Ocircumflex" unicode="&#xd4;" horiz-adv-x="798" 
d="M401 980q25 0 39.5 -8.5t32.5 -32.5l60 -77q20 -25 10 -50t-39 -25q-28 0 -57 34l-48 54l-49 -54q-29 -34 -57 -34q-29 0 -38.5 25t9.5 50l60 77q18 24 32.5 32.5t40.5 8.5h4zM399 707q137 0 243 -102t106 -255t-106 -255t-243 -102t-243 102t-106 255t106 255t243 102z
M399 551q-74 0 -125.5 -56.5t-51.5 -144.5t51.5 -144t125.5 -56t125 56t51 144q0 89 -50.5 145t-125.5 56z" />
    <glyph glyph-name="Otilde" unicode="&#xd5;" horiz-adv-x="798" 
d="M318 933q37 0 101 -35t87 -35t36 12q13 13 33 13q21 0 33 -15.5t6 -34.5q-16 -43 -49 -70.5t-76 -27.5t-111.5 40.5t-91.5 40.5q-22 0 -33 -16q-12 -19 -36 -19q-18 0 -30 14t-7 34q13 44 49 71.5t89 27.5zM399 707q137 0 243 -102t106 -255t-106 -255t-243 -102
t-243 102t-106 255t106 255t243 102zM399 551q-74 0 -125.5 -56.5t-51.5 -144.5t51.5 -144t125.5 -56t125 56t51 144q0 89 -50.5 145t-125.5 56z" />
    <glyph glyph-name="Odieresis" unicode="&#xd6;" horiz-adv-x="798" 
d="M266 732q-34 0 -59 25t-25 59t24.5 58t59.5 24t59.5 -24t24.5 -58t-25 -59t-59 -25zM532 732q-34 0 -59 25t-25 59t24.5 58t59.5 24t59.5 -24t24.5 -58t-25 -59t-59 -25zM399 707q137 0 243 -102t106 -255t-106 -255t-243 -102t-243 102t-106 255t106 255t243 102z
M399 551q-74 0 -125.5 -56.5t-51.5 -144.5t51.5 -144t125.5 -56t125 56t51 144q0 89 -50.5 145t-125.5 56z" />
    <glyph glyph-name="multiply" unicode="&#xd7;" horiz-adv-x="404" 
d="M295 254l42 -42q20 -20 21 -48.5t-18 -47.5q-20 -19 -48 -18t-48 21l-42 42l-41 -41q-20 -20 -48.5 -21t-47.5 18q-19 21 -18 49t21 48l40 40l-43 43q-20 21 -21.5 49t18.5 48q19 19 47.5 18t49.5 -21l43 -43l44 44q20 20 48.5 21.5t48.5 -17.5q19 -20 18 -48.5
t-21 -48.5z" />
    <glyph glyph-name="Oslash" unicode="&#xd8;" horiz-adv-x="798" 
d="M621 624q59 -49 93 -120t34 -154q0 -153 -106 -255t-243 -102q-39 0 -76 9l-7 -14q-10 -20 -29.5 -33.5t-42.5 -13.5q-34 0 -57.5 24t-23.5 57q0 17 7 36l8 17q-59 49 -93.5 120t-34.5 155q0 153 106 255t243 102q39 0 78 -9l4 9q10 20 29.5 33.5t42.5 13.5q34 0 58 -24
t24 -57q0 -18 -8 -36zM222 350q0 -66 31 -118l153 319h-7q-74 0 -125.5 -56.5t-51.5 -144.5zM399 150q74 0 125 56t51 144q0 66 -30 117l-151 -317h5z" />
    <glyph glyph-name="Ugrave" unicode="&#xd9;" horiz-adv-x="699" 
d="M320 955q27 0 48 -15.5t30 -40.5l19 -81q13 -32 -5 -54.5t-49 -22.5q-27 0 -44 22l-62 58q-19 22 -19 53q0 34 24 57.5t58 23.5zM554 703q34 0 57 -23.5t23 -56.5v-376q0 -116 -82 -185t-202 -69q-121 0 -203 69t-82 185v376q0 33 23 56.5t57 23.5q35 0 59.5 -23.5
t24.5 -56.5v-375q0 -62 35 -90.5t86 -28.5t85.5 28.5t34.5 90.5v375q0 33 24.5 56.5t59.5 23.5z" />
    <glyph glyph-name="Uacute" unicode="&#xda;" horiz-adv-x="699" 
d="M372 955q34 0 58 -23.5t24 -57.5q0 -31 -19 -53l-62 -58q-17 -22 -44 -22q-31 0 -49 22.5t-5 54.5l19 81q9 25 30 40.5t48 15.5zM554 703q34 0 57 -23.5t23 -56.5v-376q0 -116 -82 -185t-202 -69q-121 0 -203 69t-82 185v376q0 33 23 56.5t57 23.5q35 0 59.5 -23.5
t24.5 -56.5v-375q0 -62 35 -90.5t86 -28.5t85.5 28.5t34.5 90.5v375q0 33 24.5 56.5t59.5 23.5z" />
    <glyph glyph-name="Ucircumflex" unicode="&#xdb;" horiz-adv-x="699" 
d="M351 980q25 0 39.5 -8.5t32.5 -32.5l60 -77q20 -25 10 -50t-39 -25q-28 0 -57 34l-48 54l-49 -54q-29 -34 -57 -34q-29 0 -38.5 25t9.5 50l60 77q18 24 32.5 32.5t40.5 8.5h4zM554 703q34 0 57 -23.5t23 -56.5v-376q0 -116 -82 -185t-202 -69q-121 0 -203 69t-82 185v376
q0 33 23 56.5t57 23.5q35 0 59.5 -23.5t24.5 -56.5v-375q0 -62 35 -90.5t86 -28.5t85.5 28.5t34.5 90.5v375q0 33 24.5 56.5t59.5 23.5z" />
    <glyph glyph-name="Udieresis" unicode="&#xdc;" horiz-adv-x="699" 
d="M216 732q-34 0 -59 25t-25 59t24.5 58t59.5 24t59.5 -24t24.5 -58t-25 -59t-59 -25zM482 732q-34 0 -59 25t-25 59t24.5 58t59.5 24t59.5 -24t24.5 -58t-25 -59t-59 -25zM554 703q34 0 57 -23.5t23 -56.5v-376q0 -116 -82 -185t-202 -69q-121 0 -203 69t-82 185v376
q0 33 23 56.5t57 23.5q35 0 59.5 -23.5t24.5 -56.5v-375q0 -62 35 -90.5t86 -28.5t85.5 28.5t34.5 90.5v375q0 33 24.5 56.5t59.5 23.5z" />
    <glyph glyph-name="Yacute" unicode="&#xdd;" horiz-adv-x="650" 
d="M348 955q34 0 58 -23.5t24 -57.5q0 -31 -19 -53l-62 -58q-17 -22 -44 -22q-31 0 -49 22.5t-5 54.5l19 81q9 25 30 40.5t48 15.5zM535 704q31 0 53.5 -22t22.5 -53q0 -23 -12 -41l-193 -283v-235q0 -32 -24.5 -55t-56.5 -23q-33 0 -57 22.5t-24 55.5v235l-193 283
q-12 18 -12 41q0 31 22 53t53 22q36 0 60 -30l151 -230l151 230q22 30 59 30z" />
    <glyph glyph-name="Thorn" unicode="&#xde;" horiz-adv-x="668" 
d="M345 565q130 0 209 -59t79 -154q0 -101 -78 -157t-210 -56h-125v-139h-160v700h160v-135h125zM347 275q9 0 28 -1.5t30 -1.5t26 3t23 11t14 24.5t6 41.5q0 22 -6.5 37.5t-13 23.5t-23.5 12t-25 4.5t-31 0t-28 -0.5h-127v-154h127z" />
    <glyph glyph-name="germandbls" unicode="&#xdf;" horiz-adv-x="673" 
d="M496 383q53 -5 95 -52t42 -123q0 -93 -63.5 -150.5t-166.5 -57.5h-43q-79 0 -79 70q0 72 79 72h32q82 0 82 79q0 28 -11 46.5t-28.5 25t-26.5 8t-18 1.5h-30q-79 0 -79 69t79 69h32q42 0 42 62q0 16 -4.5 27.5t-15 17.5t-18 10t-24 5.5t-21 1.5h-20.5q-60 0 -85.5 -23
t-25.5 -83v-377q0 -81 -80 -81t-80 81v377q0 113 75.5 177.5t197.5 64.5q111 0 185.5 -52t74.5 -137q0 -60 -31.5 -92.5t-65.5 -35.5z" />
    <glyph glyph-name="agrave" unicode="&#xe0;" 
d="M290 583l-62 58q-19 22 -19 53q0 34 24 57.5t58 23.5q27 0 48 -15.5t30 -40.5l19 -81q13 -32 -5 -54.5t-49 -22.5q-27 0 -44 22zM490 523q32 0 57 -23.5t25 -55.5v-371q0 -33 -24.5 -56t-57.5 -23q-28 0 -50 17.5t-28 44.5q-14 -24 -48.5 -43.5t-83.5 -19.5
q-93 0 -166.5 70t-73.5 197q0 124 74.5 195t165.5 71q48 0 83.5 -22t46.5 -51v-9q0 32 24 55.5t56 23.5zM310 129q41 0 74 31.5t33 99.5q0 66 -33.5 98t-73.5 32q-46 0 -78 -34.5t-32 -95.5t32 -96t78 -35z" />
    <glyph glyph-name="aacute" unicode="&#xe1;" 
d="M300 561q-31 0 -49 22.5t-5 54.5l19 81q9 25 30 40.5t48 15.5q34 0 58 -23.5t24 -57.5q0 -31 -19 -53l-62 -58q-17 -22 -44 -22zM490 523q32 0 57 -23.5t25 -55.5v-371q0 -33 -24.5 -56t-57.5 -23q-28 0 -50 17.5t-28 44.5q-14 -24 -48.5 -43.5t-83.5 -19.5
q-93 0 -166.5 70t-73.5 197q0 124 74.5 195t165.5 71q48 0 83.5 -22t46.5 -51v-9q0 32 24 55.5t56 23.5zM310 129q41 0 74 31.5t33 99.5q0 66 -33.5 98t-73.5 32q-46 0 -78 -34.5t-32 -95.5t32 -96t78 -35z" />
    <glyph glyph-name="acircumflex" unicode="&#xe2;" 
d="M214 607q-29 0 -38.5 25t9.5 50l60 77q18 24 32.5 32.5t40.5 8.5h4q25 0 39.5 -8.5t32.5 -32.5l60 -77q20 -25 10 -50t-39 -25q-28 0 -57 34l-48 54l-49 -54q-29 -34 -57 -34zM490 523q32 0 57 -23.5t25 -55.5v-371q0 -33 -24.5 -56t-57.5 -23q-28 0 -50 17.5t-28 44.5
q-14 -24 -48.5 -43.5t-83.5 -19.5q-93 0 -166.5 70t-73.5 197q0 124 74.5 195t165.5 71q48 0 83.5 -22t46.5 -51v-9q0 32 24 55.5t56 23.5zM310 129q41 0 74 31.5t33 99.5q0 66 -33.5 98t-73.5 32q-46 0 -78 -34.5t-32 -95.5t32 -96t78 -35z" />
    <glyph glyph-name="atilde" unicode="&#xe3;" 
d="M138 606q-18 0 -30 14t-7 34q13 44 49 71.5t89 27.5q37 0 101 -35t87 -35t36 12q13 13 33 13q21 0 33 -15.5t6 -34.5q-16 -43 -49 -70.5t-76 -27.5t-111.5 40.5t-91.5 40.5q-22 0 -33 -16q-12 -19 -36 -19zM490 523q32 0 57 -23.5t25 -55.5v-371q0 -33 -24.5 -56
t-57.5 -23q-28 0 -50 17.5t-28 44.5q-14 -24 -48.5 -43.5t-83.5 -19.5q-93 0 -166.5 70t-73.5 197q0 124 74.5 195t165.5 71q48 0 83.5 -22t46.5 -51v-9q0 32 24 55.5t56 23.5zM310 129q41 0 74 31.5t33 99.5q0 66 -33.5 98t-73.5 32q-46 0 -78 -34.5t-32 -95.5t32 -96
t78 -35z" />
    <glyph glyph-name="adieresis" unicode="&#xe4;" 
d="M187 552q-35 0 -59.5 25t-24.5 59t24.5 58t59.5 24t59.5 -24t24.5 -58t-24.5 -59t-59.5 -25zM453 552q-35 0 -59.5 25t-24.5 59t24.5 58t59.5 24t59.5 -24t24.5 -58t-24.5 -59t-59.5 -25zM490 523q32 0 57 -23.5t25 -55.5v-371q0 -33 -24.5 -56t-57.5 -23q-28 0 -50 17.5
t-28 44.5q-14 -24 -48.5 -43.5t-83.5 -19.5q-93 0 -166.5 70t-73.5 197q0 124 74.5 195t165.5 71q48 0 83.5 -22t46.5 -51v-9q0 32 24 55.5t56 23.5zM310 129q41 0 74 31.5t33 99.5q0 66 -33.5 98t-73.5 32q-46 0 -78 -34.5t-32 -95.5t32 -96t78 -35z" />
    <glyph glyph-name="aring" unicode="&#xe5;" 
d="M321 581q-51 0 -86 34.5t-35 82.5q0 49 35 84t86 35q47 0 82 -35t35 -84q0 -47 -35 -82t-82 -35zM318 724q-9 0 -15.5 -7t-6.5 -17q0 -9 6.5 -15.5t15.5 -6.5t16.5 6.5t7.5 15.5q0 10 -7.5 17t-16.5 7zM490 523q32 0 57 -23.5t25 -55.5v-371q0 -33 -24.5 -56t-57.5 -23
q-28 0 -50 17.5t-28 44.5q-14 -24 -48.5 -43.5t-83.5 -19.5q-93 0 -166.5 70t-73.5 197q0 124 74.5 195t165.5 71q48 0 83.5 -22t46.5 -51v-9q0 32 24 55.5t56 23.5zM310 129q41 0 74 31.5t33 99.5q0 66 -33.5 98t-73.5 32q-46 0 -78 -34.5t-32 -95.5t32 -96t78 -35z" />
    <glyph glyph-name="ae" unicode="&#xe6;" horiz-adv-x="977" 
d="M937 285q0 -46 -24 -65t-74 -19l-255 3q22 -81 120 -81q19 0 63 11q48 16 58 16q24 0 38.5 -15t14.5 -38q0 -36 -38 -65q-60 -37 -143 -37q-78 0 -141 32q-25 -33 -66 -33q-28 0 -50 17.5t-28 44.5q-14 -24 -48.5 -43.5t-83.5 -19.5q-93 0 -166.5 70t-73.5 197
q0 124 74.5 195t165.5 71q48 0 83.5 -22t46.5 -51v-9q0 32 24 55.5t56 23.5q39 0 64 -32q63 35 131 35q93 0 172.5 -67.5t79.5 -173.5zM310 129q41 0 74 31.5t33 99.5q0 66 -33.5 98t-73.5 32q-46 0 -78 -34.5t-32 -95.5t32 -96t78 -35zM584 310h196q-14 78 -95 78
q-39 0 -67 -19t-34 -59z" />
    <glyph glyph-name="ccedilla" unicode="&#xe7;" horiz-adv-x="541" 
d="M438 171q25 0 44 -16.5t19 -43.5q0 -10 -2.5 -19t-5.5 -15t-9.5 -13.5t-10 -10.5t-11 -9.5t-8.5 -7.5q-42 -29 -91 -37l-51 -54q90 -28 90 -101q0 -100 -189 -91q-14 1 -22 9t-6 19q3 16 32 19q37 5 51.5 14.5t14.5 26.5q0 16 -10.5 23.5t-24.5 4.5q-34 -9 -51 21
q-13 23 -2 47l36 63h28q-91 17 -155 84.5t-64 175.5q0 65 25 117t65 84t86.5 48.5t94.5 16.5q81 0 143 -41q1 -1 8.5 -7.5t11 -9.5t10 -10.5t9.5 -13.5t5.5 -15t2.5 -19q0 -27 -19 -43.5t-44 -16.5t-60 22q-25 16 -62 16q-55 0 -86.5 -34.5t-31.5 -93.5q0 -58 32 -92.5
t86 -34.5q37 0 62 16q35 22 60 22z" />
    <glyph glyph-name="egrave" unicode="&#xe8;" horiz-adv-x="599" 
d="M280 775q27 0 48 -15.5t30 -40.5l19 -81q13 -32 -5 -54.5t-49 -22.5q-27 0 -44 22l-62 58q-19 22 -19 53q0 34 24 57.5t58 23.5zM307 526q93 0 172.5 -67.5t79.5 -173.5q0 -46 -24 -65t-74 -19l-255 3q22 -81 120 -81q19 0 63 11q48 16 58 16q24 0 38.5 -15t14.5 -38
q0 -36 -38 -65q-60 -37 -143 -37q-53 0 -101.5 16t-89 47t-64.5 82.5t-24 117.5q0 65 25.5 118t65.5 84.5t86 48.5t90 17zM307 388q-39 0 -67 -19t-34 -59h196q-14 78 -95 78z" />
    <glyph glyph-name="eacute" unicode="&#xe9;" horiz-adv-x="599" 
d="M332 775q34 0 58 -23.5t24 -57.5q0 -31 -19 -53l-62 -58q-17 -22 -44 -22q-31 0 -49 22.5t-5 54.5l19 81q9 25 30 40.5t48 15.5zM307 526q93 0 172.5 -67.5t79.5 -173.5q0 -46 -24 -65t-74 -19l-255 3q22 -81 120 -81q19 0 63 11q48 16 58 16q24 0 38.5 -15t14.5 -38
q0 -36 -38 -65q-60 -37 -143 -37q-53 0 -101.5 16t-89 47t-64.5 82.5t-24 117.5q0 65 25.5 118t65.5 84.5t86 48.5t90 17zM307 388q-39 0 -67 -19t-34 -59h196q-14 78 -95 78z" />
    <glyph glyph-name="ecircumflex" unicode="&#xea;" horiz-adv-x="599" 
d="M311 800q25 0 39.5 -8.5t32.5 -32.5l60 -77q20 -25 10 -50t-39 -25q-28 0 -57 34l-48 54l-49 -54q-29 -34 -57 -34q-29 0 -38.5 25t9.5 50l60 77q18 24 32.5 32.5t40.5 8.5h4zM307 526q93 0 172.5 -67.5t79.5 -173.5q0 -46 -24 -65t-74 -19l-255 3q22 -81 120 -81
q19 0 63 11q48 16 58 16q24 0 38.5 -15t14.5 -38q0 -36 -38 -65q-60 -37 -143 -37q-53 0 -101.5 16t-89 47t-64.5 82.5t-24 117.5q0 65 25.5 118t65.5 84.5t86 48.5t90 17zM307 388q-39 0 -67 -19t-34 -59h196q-14 78 -95 78z" />
    <glyph glyph-name="edieresis" unicode="&#xeb;" horiz-adv-x="599" 
d="M176 552q-34 0 -59 25t-25 59t24.5 58t59.5 24t59.5 -24t24.5 -58t-25 -59t-59 -25zM442 552q-34 0 -59 25t-25 59t24.5 58t59.5 24t59.5 -24t24.5 -58t-25 -59t-59 -25zM307 526q93 0 172.5 -67.5t79.5 -173.5q0 -46 -24 -65t-74 -19l-255 3q22 -81 120 -81q19 0 63 11
q48 16 58 16q24 0 38.5 -15t14.5 -38q0 -36 -38 -65q-60 -37 -143 -37q-53 0 -101.5 16t-89 47t-64.5 82.5t-24 117.5q0 65 25.5 118t65.5 84.5t86 48.5t90 17zM307 388q-39 0 -67 -19t-34 -59h196q-14 78 -95 78z" />
    <glyph glyph-name="igrave" unicode="&#xec;" horiz-adv-x="310" 
d="M126 775q27 0 48 -15.5t30 -40.5l19 -81q13 -32 -5 -54.5t-49 -22.5q-27 0 -44 22l-62 58q-19 22 -19 53q0 34 24 57.5t58 23.5zM155 523q32 0 56 -23.5t24 -56.5v-371q0 -33 -23.5 -56t-56.5 -23t-56.5 23t-23.5 56v371q0 33 24 56.5t56 23.5z" />
    <glyph glyph-name="iacute" unicode="&#xed;" horiz-adv-x="310" 
d="M178 775q34 0 58 -23.5t24 -57.5q0 -31 -19 -53l-62 -58q-17 -22 -44 -22q-31 0 -49 22.5t-5 54.5l19 81q9 25 30 40.5t48 15.5zM155 523q32 0 56 -23.5t24 -56.5v-371q0 -33 -23.5 -56t-56.5 -23t-56.5 23t-23.5 56v371q0 33 24 56.5t56 23.5z" />
    <glyph glyph-name="icircumflex" unicode="&#xee;" horiz-adv-x="310" 
d="M157 800q25 0 39.5 -8.5t32.5 -32.5l60 -77q20 -25 10 -50t-39 -25q-28 0 -57 34l-48 54l-49 -54q-29 -34 -57 -34q-29 0 -38.5 25t9.5 50l60 77q18 24 32.5 32.5t40.5 8.5h4zM155 523q32 0 56 -23.5t24 -56.5v-371q0 -33 -23.5 -56t-56.5 -23t-56.5 23t-23.5 56v371
q0 33 24 56.5t56 23.5z" />
    <glyph glyph-name="idieresis" unicode="&#xef;" horiz-adv-x="310" 
d="M22 552q-34 0 -59 25t-25 59t24.5 58t59.5 24t59.5 -24t24.5 -58t-25 -59t-59 -25zM288 552q-34 0 -59 25t-25 59t24.5 58t59.5 24t59.5 -24t24.5 -58t-25 -59t-59 -25zM155 523q32 0 56 -23.5t24 -56.5v-371q0 -33 -23.5 -56t-56.5 -23t-56.5 23t-23.5 56v371
q0 33 24 56.5t56 23.5z" />
    <glyph glyph-name="eth" unicode="&#xf0;" horiz-adv-x="624" 
d="M481 565q83 -134 83 -302q0 -135 -77 -204t-186 -69q-108 0 -184.5 67.5t-76.5 198.5q0 126 68.5 195t172.5 69q50 0 71 -15l-24 33l-30 -4q-30 -4 -53 14.5t-23 47.5q0 23 15.5 40t37.5 21q6 23 25 37.5t43 14.5q33 0 56 -30l4 -5l30 4q30 5 53.5 -13.5t23.5 -47.5
q0 -33 -29 -52zM300 126q17 0 32.5 4.5t33 17t28 40.5t10.5 68q0 64 -31.5 95.5t-71.5 31.5q-41 0 -71 -31t-30 -96q0 -75 31.5 -102.5t68.5 -27.5z" />
    <glyph glyph-name="ntilde" unicode="&#xf1;" horiz-adv-x="628" 
d="M233 753q37 0 101 -35t87 -35t36 12q13 13 33 13q21 0 33 -15.5t6 -34.5q-16 -43 -49 -70.5t-76 -27.5t-111.5 40.5t-91.5 40.5q-22 0 -33 -16q-12 -19 -36 -19q-18 0 -30 14t-7 34q13 44 49 71.5t89 27.5zM382 525q83 0 134.5 -61t51.5 -187v-203q0 -33 -23.5 -56
t-56.5 -23q-32 0 -55.5 23t-23.5 56v203q0 57 -24 85t-65 28q-28 0 -49.5 -13t-31.5 -30.5t-14.5 -31t-4.5 -19.5v-222q0 -33 -23.5 -56t-56.5 -23t-56.5 23t-23.5 56v368q0 34 24 57.5t56 23.5t56 -23.5t24 -57.5v-31q3 35 48 74.5t114 39.5z" />
    <glyph glyph-name="ograve" unicode="&#xf2;" horiz-adv-x="621" 
d="M282 775q27 0 48 -15.5t30 -40.5l19 -81q13 -32 -5 -54.5t-49 -22.5q-27 0 -44 22l-62 58q-19 22 -19 53q0 34 24 57.5t58 23.5zM311 526q44 0 90.5 -17.5t87 -49.5t66.5 -84.5t26 -116.5t-26 -116.5t-66.5 -83.5t-87 -48t-90.5 -17q-45 0 -91 17t-87 48t-67 83.5
t-26 116.5t26 116.5t66.5 84.5t87 49.5t91.5 17.5zM311 388q-48 0 -80.5 -36t-32.5 -94q0 -56 32.5 -91.5t80.5 -35.5q47 0 80 36t33 91q0 57 -32.5 93.5t-80.5 36.5z" />
    <glyph glyph-name="oacute" unicode="&#xf3;" horiz-adv-x="621" 
d="M334 775q34 0 58 -23.5t24 -57.5q0 -31 -19 -53l-62 -58q-17 -22 -44 -22q-31 0 -49 22.5t-5 54.5l19 81q9 25 30 40.5t48 15.5zM311 526q44 0 90.5 -17.5t87 -49.5t66.5 -84.5t26 -116.5t-26 -116.5t-66.5 -83.5t-87 -48t-90.5 -17q-45 0 -91 17t-87 48t-67 83.5
t-26 116.5t26 116.5t66.5 84.5t87 49.5t91.5 17.5zM311 388q-48 0 -80.5 -36t-32.5 -94q0 -56 32.5 -91.5t80.5 -35.5q47 0 80 36t33 91q0 57 -32.5 93.5t-80.5 36.5z" />
    <glyph glyph-name="ocircumflex" unicode="&#xf4;" horiz-adv-x="621" 
d="M313 800q25 0 39.5 -8.5t32.5 -32.5l60 -77q20 -25 10 -50t-39 -25q-28 0 -57 34l-48 54l-49 -54q-29 -34 -57 -34q-29 0 -38.5 25t9.5 50l60 77q18 24 32.5 32.5t40.5 8.5h4zM311 526q44 0 90.5 -17.5t87 -49.5t66.5 -84.5t26 -116.5t-26 -116.5t-66.5 -83.5t-87 -48
t-90.5 -17q-45 0 -91 17t-87 48t-67 83.5t-26 116.5t26 116.5t66.5 84.5t87 49.5t91.5 17.5zM311 388q-48 0 -80.5 -36t-32.5 -94q0 -56 32.5 -91.5t80.5 -35.5q47 0 80 36t33 91q0 57 -32.5 93.5t-80.5 36.5z" />
    <glyph glyph-name="otilde" unicode="&#xf5;" horiz-adv-x="621" 
d="M230 753q37 0 101 -35t87 -35t36 12q13 13 33 13q21 0 33 -15.5t6 -34.5q-16 -43 -49 -70.5t-76 -27.5t-111.5 40.5t-91.5 40.5q-22 0 -33 -16q-12 -19 -36 -19q-18 0 -30 14t-7 34q13 44 49 71.5t89 27.5zM311 526q44 0 90.5 -17.5t87 -49.5t66.5 -84.5t26 -116.5
t-26 -116.5t-66.5 -83.5t-87 -48t-90.5 -17q-45 0 -91 17t-87 48t-67 83.5t-26 116.5t26 116.5t66.5 84.5t87 49.5t91.5 17.5zM311 388q-48 0 -80.5 -36t-32.5 -94q0 -56 32.5 -91.5t80.5 -35.5q47 0 80 36t33 91q0 57 -32.5 93.5t-80.5 36.5z" />
    <glyph glyph-name="odieresis" unicode="&#xf6;" horiz-adv-x="621" 
d="M178 552q-34 0 -59 25t-25 59t24.5 58t59.5 24t59.5 -24t24.5 -58t-25 -59t-59 -25zM444 552q-34 0 -59 25t-25 59t24.5 58t59.5 24t59.5 -24t24.5 -58t-25 -59t-59 -25zM311 526q44 0 90.5 -17.5t87 -49.5t66.5 -84.5t26 -116.5t-26 -116.5t-66.5 -83.5t-87 -48
t-90.5 -17q-45 0 -91 17t-87 48t-67 83.5t-26 116.5t26 116.5t66.5 84.5t87 49.5t91.5 17.5zM311 388q-48 0 -80.5 -36t-32.5 -94q0 -56 32.5 -91.5t80.5 -35.5q47 0 80 36t33 91q0 57 -32.5 93.5t-80.5 36.5z" />
    <glyph glyph-name="divide" unicode="&#xf7;" horiz-adv-x="484" 
d="M242 369q-38 0 -64.5 26.5t-26.5 64.5q0 37 27 63.5t64 26.5t63.5 -26.5t26.5 -63.5q0 -38 -26.5 -64.5t-63.5 -26.5zM368 339q28 0 49.5 -19.5t21.5 -46.5t-21.5 -46.5t-49.5 -19.5h-252q-29 0 -50 19.5t-21 46.5t21 46.5t50 19.5h252zM242 -3q-38 0 -64.5 26.5
t-26.5 64.5q0 37 27 63.5t64 26.5t63.5 -26.5t26.5 -63.5q0 -38 -26.5 -64.5t-63.5 -26.5z" />
    <glyph glyph-name="oslash" unicode="&#xf8;" horiz-adv-x="621" 
d="M489 458q92 -76 92 -200q0 -64 -26 -116.5t-66.5 -83.5t-87 -48t-90.5 -17q-24 0 -43 4l-7 -14q-20 -42 -67 -42q-29 0 -50.5 21.5t-21.5 52.5q0 19 7 32l5 10q-94 77 -94 201q0 64 26 116.5t66.5 84.5t87 49.5t91.5 17.5q25 0 46 -4l11 23q18 42 67 42q29 0 50.5 -22
t21.5 -52q0 -16 -7 -32zM198 258q0 -26 8 -50l86 178q-41 -7 -67.5 -41.5t-26.5 -86.5zM333 133q40 8 65.5 42t25.5 83q0 23 -7 49z" />
    <glyph glyph-name="ugrave" unicode="&#xf9;" horiz-adv-x="628" 
d="M285 775q27 0 48 -15.5t30 -40.5l19 -81q13 -32 -5 -54.5t-49 -22.5q-27 0 -44 22l-62 58q-19 22 -19 53q0 34 24 57.5t58 23.5zM246 -6q-83 0 -134.5 61t-51.5 187v203q0 33 23.5 56t56.5 23q32 0 55.5 -23t23.5 -56v-203q0 -57 24 -85t65 -28q28 0 49.5 13t31.5 30.5
t14.5 31t4.5 19.5v222q0 33 23.5 56t56.5 23t56.5 -23t23.5 -56v-368q0 -33 -24 -57t-56 -24t-56 24t-24 57v31q-3 -35 -48 -74.5t-114 -39.5z" />
    <glyph glyph-name="uacute" unicode="&#xfa;" horiz-adv-x="628" 
d="M337 775q34 0 58 -23.5t24 -57.5q0 -31 -19 -53l-62 -58q-17 -22 -44 -22q-31 0 -49 22.5t-5 54.5l19 81q9 25 30 40.5t48 15.5zM246 -6q-83 0 -134.5 61t-51.5 187v203q0 33 23.5 56t56.5 23q32 0 55.5 -23t23.5 -56v-203q0 -57 24 -85t65 -28q28 0 49.5 13t31.5 30.5
t14.5 31t4.5 19.5v222q0 33 23.5 56t56.5 23t56.5 -23t23.5 -56v-368q0 -33 -24 -57t-56 -24t-56 24t-24 57v31q-3 -35 -48 -74.5t-114 -39.5z" />
    <glyph glyph-name="ucircumflex" unicode="&#xfb;" horiz-adv-x="628" 
d="M316 800q25 0 39.5 -8.5t32.5 -32.5l60 -77q20 -25 10 -50t-39 -25q-28 0 -57 34l-48 54l-49 -54q-29 -34 -57 -34q-29 0 -38.5 25t9.5 50l60 77q18 24 32.5 32.5t40.5 8.5h4zM246 -6q-83 0 -134.5 61t-51.5 187v203q0 33 23.5 56t56.5 23q32 0 55.5 -23t23.5 -56v-203
q0 -57 24 -85t65 -28q28 0 49.5 13t31.5 30.5t14.5 31t4.5 19.5v222q0 33 23.5 56t56.5 23t56.5 -23t23.5 -56v-368q0 -33 -24 -57t-56 -24t-56 24t-24 57v31q-3 -35 -48 -74.5t-114 -39.5z" />
    <glyph glyph-name="udieresis" unicode="&#xfc;" horiz-adv-x="628" 
d="M181 552q-35 0 -59.5 25t-24.5 59t24.5 58t59.5 24t59.5 -24t24.5 -58t-24.5 -59t-59.5 -25zM447 552q-35 0 -59.5 25t-24.5 59t24.5 58t59.5 24t59.5 -24t24.5 -58t-24.5 -59t-59.5 -25zM246 -6q-83 0 -134.5 61t-51.5 187v203q0 33 23.5 56t56.5 23q32 0 55.5 -23
t23.5 -56v-203q0 -57 24 -85t65 -28q28 0 49.5 13t31.5 30.5t14.5 31t4.5 19.5v222q0 33 23.5 56t56.5 23t56.5 -23t23.5 -56v-368q0 -33 -24 -57t-56 -24t-56 24t-24 57v31q-3 -35 -48 -74.5t-114 -39.5z" />
    <glyph glyph-name="yacute" unicode="&#xfd;" horiz-adv-x="597" 
d="M271 561q-31 0 -49 22.5t-5 54.5l19 81q9 25 30 40.5t48 15.5q34 0 58 -23.5t24 -57.5q0 -31 -19 -53l-62 -58q-17 -22 -44 -22zM493 523q32 0 53 -21t21 -50q0 -18 -10 -38l-251 -552q-25 -57 -76 -57q-31 0 -51 21t-20 50q0 16 9 38l51 113l-180 387q-9 23 -9 38
q0 29 21 50t52 21q51 0 76 -57l117 -268l121 268q25 57 76 57z" />
    <glyph glyph-name="thorn" unicode="&#xfe;" 
d="M352 526q91 0 165.5 -71t74.5 -195q0 -127 -73.5 -197t-166.5 -70q-48 0 -82.5 19t-48.5 43v-174q0 -33 -24 -56t-57 -23t-56.5 23t-23.5 56v754q0 32 24.5 55.5t57.5 23.5q32 0 55.5 -23.5t23.5 -55.5v-179q1 -4 1 -12v9q11 29 46.5 51t83.5 22zM322 129q46 0 78 35
t32 96t-32 95.5t-78 34.5q-40 0 -73.5 -32t-33.5 -98q0 -68 33 -99.5t74 -31.5z" />
    <glyph glyph-name="ydieresis" unicode="&#xff;" horiz-adv-x="597" 
d="M158 552q-34 0 -59 25t-25 59t24.5 58t59.5 24t59.5 -24t24.5 -58t-25 -59t-59 -25zM424 552q-34 0 -59 25t-25 59t24.5 58t59.5 24t59.5 -24t24.5 -58t-25 -59t-59 -25zM493 523q32 0 53 -21t21 -50q0 -18 -10 -38l-251 -552q-25 -57 -76 -57q-31 0 -51 21t-20 50
q0 16 9 38l51 113l-180 387q-9 23 -9 38q0 29 21 50t52 21q51 0 76 -57l117 -268l121 268q25 57 76 57z" />
    <glyph glyph-name="Amacron" unicode="&#x100;" horiz-adv-x="723" 
d="M231 744q-29 0 -49 20t-20 48t20 48t49 20h260q28 0 48 -20t20 -48t-20 -48t-48 -20h-260zM677 118q11 -26 11 -48q0 -30 -23.5 -52t-56.5 -22q-57 0 -79 53l-38 90h-259l-38 -90q-23 -53 -79 -53q-33 0 -56.5 22t-23.5 52q0 22 11 48l236 526q25 61 79 61t80 -61z
M286 268h150l-75 178z" />
    <glyph glyph-name="amacron" unicode="&#x101;" 
d="M190 564q-29 0 -49 20t-20 48t20 48t49 20h260q28 0 48 -20t20 -48t-20 -48t-48 -20h-260zM490 523q32 0 57 -23.5t25 -55.5v-371q0 -33 -24.5 -56t-57.5 -23q-28 0 -50 17.5t-28 44.5q-14 -24 -48.5 -43.5t-83.5 -19.5q-93 0 -166.5 70t-73.5 197q0 124 74.5 195
t165.5 71q48 0 83.5 -22t46.5 -51v-9q0 32 24 55.5t56 23.5zM310 129q41 0 74 31.5t33 99.5q0 66 -33.5 98t-73.5 32q-46 0 -78 -34.5t-32 -95.5t32 -96t78 -35z" />
    <glyph glyph-name="Abreve" unicode="&#x102;" horiz-adv-x="723" 
d="M361 737q-72 0 -119.5 37t-65.5 97q-10 34 8.5 59t51.5 25q40 0 55 -36q23 -38 70 -38q46 0 69 38q15 36 55 36q33 0 52 -25t9 -59q-19 -60 -66.5 -97t-118.5 -37zM677 118q11 -26 11 -48q0 -30 -23.5 -52t-56.5 -22q-57 0 -79 53l-38 90h-259l-38 -90q-23 -53 -79 -53
q-33 0 -56.5 22t-23.5 52q0 22 11 48l236 526q25 61 79 61t80 -61zM286 268h150l-75 178z" />
    <glyph glyph-name="abreve" unicode="&#x103;" 
d="M320 557q-72 0 -119.5 37t-65.5 97q-10 34 8.5 59t51.5 25q40 0 55 -36q23 -38 70 -38q46 0 69 38q15 36 55 36q33 0 52 -25t9 -59q-19 -60 -66.5 -97t-118.5 -37zM490 523q32 0 57 -23.5t25 -55.5v-371q0 -33 -24.5 -56t-57.5 -23q-28 0 -50 17.5t-28 44.5
q-14 -24 -48.5 -43.5t-83.5 -19.5q-93 0 -166.5 70t-73.5 197q0 124 74.5 195t165.5 71q48 0 83.5 -22t46.5 -51v-9q0 32 24 55.5t56 23.5zM310 129q41 0 74 31.5t33 99.5q0 66 -33.5 98t-73.5 32q-46 0 -78 -34.5t-32 -95.5t32 -96t78 -35z" />
    <glyph glyph-name="Aogonek" unicode="&#x104;" horiz-adv-x="723" 
d="M600 -141q55 0 55 -38q0 -39 -88 -39q-65 0 -112.5 22.5t-47.5 74.5q0 33 21 60t45 41t40.5 35.5t10.5 45.5l-33 78h-259l-38 -90q-23 -53 -79 -53q-33 0 -56.5 22t-23.5 52q0 22 11 48l236 526q25 61 79 61t80 -61l236 -526q6 -11 9 -28q8 -45 -10.5 -78.5t-45.5 -49
t-50.5 -33t-23.5 -33.5t12 -26.5t32 -10.5zM286 268h150l-75 178z" />
    <glyph glyph-name="aogonek" unicode="&#x105;" 
d="M490 523q32 0 57 -23.5t25 -55.5v-371v-3q-1 -33 -21 -58.5t-42.5 -39t-41.5 -32t-19 -38.5q0 -40 48 -40q47 0 47 -33q0 -46 -108 -46q-61 0 -99.5 23t-38.5 75q0 31 14.5 55t33 37t37.5 33t25 42q-42 -55 -127 -55q-93 0 -166.5 70t-73.5 197q0 124 74.5 195t165.5 71
q48 0 83.5 -22t46.5 -51v-9q0 32 24 55.5t56 23.5zM310 129q41 0 74 31.5t33 99.5q0 66 -33.5 98t-73.5 32q-46 0 -78 -34.5t-32 -95.5t32 -96t78 -35z" />
    <glyph glyph-name="Cacute" unicode="&#x106;" horiz-adv-x="670" 
d="M406 955q34 0 58 -23.5t24 -57.5q0 -31 -19 -53l-62 -58q-17 -22 -44 -22q-31 0 -49 22.5t-5 54.5l19 81q9 25 30 40.5t48 15.5zM559 199q31 0 53.5 -20t22.5 -54q0 -30 -18.5 -52t-56.5 -45q-67 -35 -154 -35q-90 0 -171 44.5t-133 127.5t-52 185q0 152 108.5 254.5
t244.5 102.5q90 0 158 -36q74 -45 74 -96q0 -34 -22.5 -54t-53.5 -20q-27 0 -62 21q-1 0 -9.5 5.5t-18 10t-27 9t-36.5 4.5q-76 0 -130 -59t-54 -142q0 -84 54 -142.5t132 -58.5q18 0 35 4.5t26.5 9t18 10t9.5 5.5q35 21 62 21z" />
    <glyph glyph-name="cacute" unicode="&#x107;" horiz-adv-x="541" 
d="M334 775q34 0 58 -23.5t24 -57.5q0 -31 -19 -53l-62 -58q-17 -22 -44 -22q-31 0 -49 22.5t-5 54.5l19 81q9 25 30 40.5t48 15.5zM438 171q25 0 44 -16.5t19 -43.5q0 -10 -2.5 -19t-5.5 -15t-9.5 -13.5t-10 -10.5t-11 -9.5t-8.5 -7.5q-62 -41 -143 -41q-48 0 -94.5 16.5
t-86.5 48t-65 84t-25 116.5q0 65 25 117t65 84t86.5 48.5t94.5 16.5q81 0 143 -41q1 -1 8.5 -7.5t11 -9.5t10 -10.5t9.5 -13.5t5.5 -15t2.5 -19q0 -27 -19 -43.5t-44 -16.5t-60 22q-25 16 -62 16q-55 0 -86.5 -34.5t-31.5 -93.5q0 -58 32 -92.5t86 -34.5q37 0 62 16
q35 22 60 22z" />
    <glyph glyph-name="Cdotaccent" unicode="&#x10a;" horiz-adv-x="670" 
d="M383 779q-32 0 -56.5 24t-24.5 57t24.5 57t56.5 24q33 0 57.5 -24t24.5 -57t-24.5 -57t-57.5 -24zM559 199q31 0 53.5 -20t22.5 -54q0 -30 -18.5 -52t-56.5 -45q-67 -35 -154 -35q-90 0 -171 44.5t-133 127.5t-52 185q0 152 108.5 254.5t244.5 102.5q90 0 158 -36
q74 -45 74 -96q0 -34 -22.5 -54t-53.5 -20q-27 0 -62 21q-1 0 -9.5 5.5t-18 10t-27 9t-36.5 4.5q-76 0 -130 -59t-54 -142q0 -84 54 -142.5t132 -58.5q18 0 35 4.5t26.5 9t18 10t9.5 5.5q35 21 62 21z" />
    <glyph glyph-name="cdotaccent" unicode="&#x10b;" horiz-adv-x="541" 
d="M311 599q-32 0 -56.5 24t-24.5 57t24.5 57t56.5 24q33 0 57.5 -24t24.5 -57t-24.5 -57t-57.5 -24zM438 171q25 0 44 -16.5t19 -43.5q0 -10 -2.5 -19t-5.5 -15t-9.5 -13.5t-10 -10.5t-11 -9.5t-8.5 -7.5q-62 -41 -143 -41q-48 0 -94.5 16.5t-86.5 48t-65 84t-25 116.5
q0 65 25 117t65 84t86.5 48.5t94.5 16.5q81 0 143 -41q1 -1 8.5 -7.5t11 -9.5t10 -10.5t9.5 -13.5t5.5 -15t2.5 -19q0 -27 -19 -43.5t-44 -16.5t-60 22q-25 16 -62 16q-55 0 -86.5 -34.5t-31.5 -93.5q0 -58 32 -92.5t86 -34.5q37 0 62 16q35 22 60 22z" />
    <glyph glyph-name="Ccaron" unicode="&#x10c;" horiz-adv-x="670" 
d="M385 787h-4q-26 0 -40.5 8.5t-32.5 32.5l-60 77q-19 25 -9.5 50t38.5 25q28 0 57 -34l49 -54l48 54q29 34 57 34q29 0 39 -25t-10 -50l-60 -77q-18 -24 -32.5 -32.5t-39.5 -8.5zM559 199q31 0 53.5 -20t22.5 -54q0 -30 -18.5 -52t-56.5 -45q-67 -35 -154 -35
q-90 0 -171 44.5t-133 127.5t-52 185q0 152 108.5 254.5t244.5 102.5q90 0 158 -36q74 -45 74 -96q0 -34 -22.5 -54t-53.5 -20q-27 0 -62 21q-1 0 -9.5 5.5t-18 10t-27 9t-36.5 4.5q-76 0 -130 -59t-54 -142q0 -84 54 -142.5t132 -58.5q18 0 35 4.5t26.5 9t18 10t9.5 5.5
q35 21 62 21z" />
    <glyph glyph-name="ccaron" unicode="&#x10d;" horiz-adv-x="541" 
d="M313 607h-4q-26 0 -40.5 8.5t-32.5 32.5l-60 77q-19 25 -9.5 50t38.5 25q28 0 57 -34l49 -54l48 54q29 34 57 34q29 0 39 -25t-10 -50l-60 -77q-18 -24 -32.5 -32.5t-39.5 -8.5zM438 171q25 0 44 -16.5t19 -43.5q0 -10 -2.5 -19t-5.5 -15t-9.5 -13.5t-10 -10.5t-11 -9.5
t-8.5 -7.5q-62 -41 -143 -41q-48 0 -94.5 16.5t-86.5 48t-65 84t-25 116.5q0 65 25 117t65 84t86.5 48.5t94.5 16.5q81 0 143 -41q1 -1 8.5 -7.5t11 -9.5t10 -10.5t9.5 -13.5t5.5 -15t2.5 -19q0 -27 -19 -43.5t-44 -16.5t-60 22q-25 16 -62 16q-55 0 -86.5 -34.5
t-31.5 -93.5q0 -58 32 -92.5t86 -34.5q37 0 62 16q35 22 60 22z" />
    <glyph glyph-name="Dcaron" unicode="&#x10e;" horiz-adv-x="698" 
d="M359 787h-4q-26 0 -40.5 8.5t-32.5 32.5l-60 77q-19 25 -9.5 50t38.5 25q28 0 57 -34l49 -54l48 54q29 34 57 34q29 0 39 -25t-10 -50l-60 -77q-18 -24 -32.5 -32.5t-39.5 -8.5zM296 700q152 0 257 -92t105 -253q0 -113 -51 -195t-132 -121t-179 -39h-145
q-40 0 -65.5 25.5t-25.5 65.5v518q0 40 25.5 65.5t65.5 25.5h145zM296 138q97 0 147 51.5t50 165.5q0 207 -197 207h-72v-424h72z" />
    <glyph glyph-name="dcaron" unicode="&#x10f;" horiz-adv-x="794" 
d="M490 714q33 0 57.5 -23.5t24.5 -55.5v-562q0 -33 -24.5 -56t-57.5 -23q-28 0 -50 17.5t-28 44.5q-14 -24 -48.5 -43.5t-83.5 -19.5q-93 0 -166.5 70t-73.5 197q0 124 74.5 195t165.5 71q48 0 83.5 -22t46.5 -51v-9q0 8 1 12v179q0 32 23.5 55.5t55.5 23.5zM708 708
q34 0 58 -23.5t24 -57.5q0 -31 -19 -53l-62 -58q-17 -22 -44 -22q-31 0 -49 22.5t-5 54.5l19 81q9 25 30 40.5t48 15.5zM310 129q41 0 74 31.5t33 99.5q0 66 -33.5 98t-73.5 32q-46 0 -78 -34.5t-32 -95.5t32 -96t78 -35z" />
    <glyph glyph-name="Dcroat" unicode="&#x110;" horiz-adv-x="756" 
d="M354 700q152 0 257 -92t105 -253q0 -113 -51 -195t-132 -121t-179 -39h-145q-40 0 -65.5 25.5t-25.5 65.5v185q-24 3 -41 21.5t-17 43.5t17 43.5t41 21.5v203q0 40 25.5 65.5t65.5 25.5h145zM354 138q97 0 147 51.5t50 165.5q0 207 -197 207h-72v-155h77q26 0 45.5 -19.5
t19.5 -46.5t-19.5 -46.5t-45.5 -19.5h-77v-137h72z" />
    <glyph glyph-name="dcroat" unicode="&#x111;" horiz-adv-x="653" 
d="M585 651q26 0 44.5 -17t18.5 -41t-18.5 -41t-44.5 -17h-13v-462q0 -33 -24.5 -56t-57.5 -23q-28 0 -50 17.5t-28 44.5q-14 -24 -48.5 -43.5t-83.5 -19.5q-93 0 -166.5 70t-73.5 197q0 124 74.5 195t165.5 71q48 0 83.5 -22t46.5 -51v-9q0 8 1 12v79h-68q-26 0 -45 17
t-19 41t19 41t45 17h70q5 27 27 45t50 18t51 -18t29 -45h15zM310 129q41 0 74 31.5t33 99.5q0 66 -33.5 98t-73.5 32q-46 0 -78 -34.5t-32 -95.5t32 -96t78 -35z" />
    <glyph glyph-name="Emacron" unicode="&#x112;" horiz-adv-x="585" 
d="M439 880q28 0 48 -20t20 -48t-20 -48t-48 -20h-260q-29 0 -49 20t-20 48t20 48t49 20h260zM224 143h253q30 0 51.5 -21t21.5 -50q0 -30 -21.5 -51t-51.5 -21h-326q-40 0 -65.5 25.5t-25.5 65.5v518q0 40 25.5 65.5t65.5 25.5h316q30 0 51.5 -20.5t21.5 -49.5
q0 -31 -21.5 -52t-51.5 -21h-243v-137h151q30 0 51 -20.5t21 -47.5q0 -29 -21 -49t-51 -20h-151v-140z" />
    <glyph glyph-name="emacron" unicode="&#x113;" horiz-adv-x="599" 
d="M439 700q28 0 48 -20t20 -48t-20 -48t-48 -20h-260q-29 0 -49 20t-20 48t20 48t49 20h260zM307 526q93 0 172.5 -67.5t79.5 -173.5q0 -46 -24 -65t-74 -19l-255 3q22 -81 120 -81q19 0 63 11q48 16 58 16q24 0 38.5 -15t14.5 -38q0 -36 -38 -65q-60 -37 -143 -37
q-53 0 -101.5 16t-89 47t-64.5 82.5t-24 117.5q0 65 25.5 118t65.5 84.5t86 48.5t90 17zM307 388q-39 0 -67 -19t-34 -59h196q-14 78 -95 78z" />
    <glyph glyph-name="Edotaccent" unicode="&#x116;" horiz-adv-x="585" 
d="M309 779q-32 0 -56.5 24t-24.5 57t24.5 57t56.5 24q33 0 57.5 -24t24.5 -57t-24.5 -57t-57.5 -24zM224 143h253q30 0 51.5 -21t21.5 -50q0 -30 -21.5 -51t-51.5 -21h-326q-40 0 -65.5 25.5t-25.5 65.5v518q0 40 25.5 65.5t65.5 25.5h316q30 0 51.5 -20.5t21.5 -49.5
q0 -31 -21.5 -52t-51.5 -21h-243v-137h151q30 0 51 -20.5t21 -47.5q0 -29 -21 -49t-51 -20h-151v-140z" />
    <glyph glyph-name="edotaccent" unicode="&#x117;" horiz-adv-x="599" 
d="M309 599q-32 0 -56.5 24t-24.5 57t24.5 57t56.5 24q33 0 57.5 -24t24.5 -57t-24.5 -57t-57.5 -24zM307 526q93 0 172.5 -67.5t79.5 -173.5q0 -46 -24 -65t-74 -19l-255 3q22 -81 120 -81q19 0 63 11q48 16 58 16q24 0 38.5 -15t14.5 -38q0 -36 -38 -65q-60 -37 -143 -37
q-53 0 -101.5 16t-89 47t-64.5 82.5t-24 117.5q0 65 25.5 118t65.5 84.5t86 48.5t90 17zM307 388q-39 0 -67 -19t-34 -59h196q-14 78 -95 78z" />
    <glyph glyph-name="Eogonek" unicode="&#x118;" horiz-adv-x="603" 
d="M550 72q0 -30 -21.5 -51t-51.5 -21h5q-40 -10 -81 -35.5t-41 -56.5q0 -20 17 -33t39 -13q39 0 39 -33q0 -46 -107 -46q-139 0 -139 94q0 36 15 61.5t38 38t44.5 18t40.5 5.5h-196q-40 0 -65.5 25.5t-25.5 65.5v518q0 40 25.5 65.5t65.5 25.5h316q30 0 51.5 -20.5
t21.5 -49.5q0 -31 -21.5 -52t-51.5 -21h-243v-137h151q30 0 51 -20.5t21 -47.5q0 -29 -21 -49t-51 -20h-151v-140h253q30 0 51.5 -21t21.5 -50z" />
    <glyph glyph-name="eogonek" unicode="&#x119;" horiz-adv-x="603" 
d="M559 285q0 -46 -24 -65t-74 -19l-255 3q22 -81 120 -81q19 0 63 11q48 16 58 16q24 0 38.5 -15t14.5 -38q0 -36 -38 -65q-39 -25 -91 -33q-41 -11 -79.5 -36t-38.5 -55q0 -20 17 -33t39 -13q39 0 39 -33q0 -46 -107 -46q-139 0 -139 94q0 36 15 61.5t38 38t44.5 18
t40.5 5.5h21q-95 16 -158 82t-63 176q0 65 25.5 118t65.5 84.5t86 48.5t90 17q93 0 172.5 -67.5t79.5 -173.5zM206 310h196q-14 78 -95 78q-39 0 -67 -19t-34 -59z" />
    <glyph glyph-name="Ecaron" unicode="&#x11a;" horiz-adv-x="585" 
d="M311 787h-4q-26 0 -40.5 8.5t-32.5 32.5l-60 77q-19 25 -9.5 50t38.5 25q28 0 57 -34l49 -54l48 54q29 34 57 34q29 0 39 -25t-10 -50l-60 -77q-18 -24 -32.5 -32.5t-39.5 -8.5zM224 143h253q30 0 51.5 -21t21.5 -50q0 -30 -21.5 -51t-51.5 -21h-326q-40 0 -65.5 25.5
t-25.5 65.5v518q0 40 25.5 65.5t65.5 25.5h316q30 0 51.5 -20.5t21.5 -49.5q0 -31 -21.5 -52t-51.5 -21h-243v-137h151q30 0 51 -20.5t21 -47.5q0 -29 -21 -49t-51 -20h-151v-140z" />
    <glyph glyph-name="ecaron" unicode="&#x11b;" horiz-adv-x="599" 
d="M311 607h-4q-26 0 -40.5 8.5t-32.5 32.5l-60 77q-19 25 -9.5 50t38.5 25q28 0 57 -34l49 -54l48 54q29 34 57 34q29 0 39 -25t-10 -50l-60 -77q-18 -24 -32.5 -32.5t-39.5 -8.5zM307 526q93 0 172.5 -67.5t79.5 -173.5q0 -46 -24 -65t-74 -19l-255 3q22 -81 120 -81
q19 0 63 11q48 16 58 16q24 0 38.5 -15t14.5 -38q0 -36 -38 -65q-60 -37 -143 -37q-53 0 -101.5 16t-89 47t-64.5 82.5t-24 117.5q0 65 25.5 118t65.5 84.5t86 48.5t90 17zM307 388q-39 0 -67 -19t-34 -59h196q-14 78 -95 78z" />
    <glyph glyph-name="Gbreve" unicode="&#x11e;" horiz-adv-x="758" 
d="M521 955q33 0 52 -25t9 -59q-19 -60 -66.5 -97t-118.5 -37q-72 0 -119.5 37t-65.5 97q-10 34 8.5 59t51.5 25q40 0 55 -36q23 -38 70 -38q46 0 69 38q15 36 55 36zM625 384q45 0 68 -28.5t21 -74.5q-6 -137 -96.5 -212.5t-211.5 -75.5q-90 0 -171 44.5t-133 127.5
t-52 185q0 152 108.5 254.5t244.5 102.5q90 0 158 -36q74 -45 74 -96q0 -34 -22.5 -54t-53.5 -20q-27 0 -62 21q-1 0 -9.5 5.5t-18 10t-27 9t-36.5 4.5q-76 0 -130 -59t-54 -142q0 -84 53.5 -142.5t130.5 -58.5q48 0 94 27t54 75h-82q-29 0 -50 19t-21 47q0 29 21 48t50 19
h153z" />
    <glyph glyph-name="gbreve" unicode="&#x11f;" horiz-adv-x="631" 
d="M312 557q-72 0 -119.5 37t-65.5 97q-10 34 8.5 59t51.5 25q40 0 55 -36q23 -38 70 -38q46 0 69 38q15 36 55 36q33 0 52 -25t9 -59q-19 -60 -66.5 -97t-118.5 -37zM572 444v-371q0 -11 -3 -21v-42q0 -58 -25.5 -101.5t-66.5 -67t-84 -35t-86 -11.5q-60 0 -132 23
q-53 23 -53 69q0 27 18.5 45t44.5 18q14 0 29 -5q4 0 35.5 -7t57.5 -7q51 0 77 24t26 55v43q-14 -23 -48 -41.5t-82 -18.5q-93 0 -166.5 70t-73.5 197q0 124 74.5 195t165.5 71q48 0 83.5 -22t46.5 -51v-9q0 32 24 55.5t56 23.5t57 -23.5t25 -55.5zM310 129q41 0 74 31.5
t33 99.5q0 66 -33.5 98t-73.5 32q-46 0 -78 -34.5t-32 -95.5t32 -96t78 -35z" />
    <glyph glyph-name="Gdotaccent" unicode="&#x120;" horiz-adv-x="758" 
d="M397 779q-32 0 -56.5 24t-24.5 57t24.5 57t56.5 24q33 0 57.5 -24t24.5 -57t-24.5 -57t-57.5 -24zM625 384q45 0 68 -28.5t21 -74.5q-6 -137 -96.5 -212.5t-211.5 -75.5q-90 0 -171 44.5t-133 127.5t-52 185q0 152 108.5 254.5t244.5 102.5q90 0 158 -36q74 -45 74 -96
q0 -34 -22.5 -54t-53.5 -20q-27 0 -62 21q-1 0 -9.5 5.5t-18 10t-27 9t-36.5 4.5q-76 0 -130 -59t-54 -142q0 -84 53.5 -142.5t130.5 -58.5q48 0 94 27t54 75h-82q-29 0 -50 19t-21 47q0 29 21 48t50 19h153z" />
    <glyph glyph-name="gdotaccent" unicode="&#x121;" horiz-adv-x="631" 
d="M312 599q-32 0 -56.5 24t-24.5 57t24.5 57t56.5 24q33 0 57.5 -24t24.5 -57t-24.5 -57t-57.5 -24zM572 444v-371q0 -11 -3 -21v-42q0 -58 -25.5 -101.5t-66.5 -67t-84 -35t-86 -11.5q-60 0 -132 23q-53 23 -53 69q0 27 18.5 45t44.5 18q14 0 29 -5q4 0 35.5 -7t57.5 -7
q51 0 77 24t26 55v43q-14 -23 -48 -41.5t-82 -18.5q-93 0 -166.5 70t-73.5 197q0 124 74.5 195t165.5 71q48 0 83.5 -22t46.5 -51v-9q0 32 24 55.5t56 23.5t57 -23.5t25 -55.5zM310 129q41 0 74 31.5t33 99.5q0 66 -33.5 98t-73.5 32q-46 0 -78 -34.5t-32 -95.5t32 -96
t78 -35z" />
    <glyph glyph-name="Gcommaaccent" unicode="&#x122;" horiz-adv-x="758" 
d="M625 384q45 0 68 -28.5t21 -74.5q-5 -123 -79 -196.5t-180 -88.5l-70 -129q-26 -47 -84 -47h-6q-28 0 -37 18.5t2 46.5l39 125q-107 35 -178 127t-71 213q0 152 108.5 254.5t244.5 102.5q90 0 158 -36q74 -45 74 -96q0 -34 -22.5 -54t-53.5 -20q-27 0 -62 21
q-1 0 -9.5 5.5t-18 10t-27 9t-36.5 4.5q-76 0 -130 -59t-54 -142q0 -84 53.5 -142.5t130.5 -58.5q48 0 94 27t54 75h-82q-29 0 -50 19t-21 47q0 29 21 48t50 19h153z" />
    <glyph glyph-name="gcommaaccent" unicode="&#x123;" horiz-adv-x="631" 
d="M572 444v-371q0 -11 -3 -21v-42q0 -58 -25.5 -101.5t-66.5 -67t-84 -35t-86 -11.5q-60 0 -132 23q-53 23 -53 69q0 27 18.5 45t44.5 18q14 0 29 -5q4 0 35.5 -7t57.5 -7q51 0 77 24t26 55v43q-14 -23 -48 -41.5t-82 -18.5q-93 0 -166.5 70t-73.5 197q0 103 52.5 170
t128.5 88l72 133q26 47 84 47h6q28 0 37 -18.5t-2 -46.5l-43 -137q26 -20 35 -43v-9q0 32 24 55.5t56 23.5t57 -23.5t25 -55.5zM310 129q41 0 74 31.5t33 99.5q0 66 -33.5 98t-73.5 32q-46 0 -78 -34.5t-32 -95.5t32 -96t78 -35z" />
    <glyph glyph-name="Hbar" unicode="&#x126;" horiz-adv-x="714" 
d="M572 703q34 0 58 -24.5t24 -58.5v-540q0 -34 -24 -58.5t-58 -24.5t-58 24.5t-24 58.5v196h-266v-196q0 -34 -23.5 -58.5t-57.5 -24.5t-58.5 24.5t-24.5 58.5v540q0 34 24.5 58.5t58.5 24.5t57.5 -24.5t23.5 -58.5v-27h266v27q0 34 24 58.5t58 24.5zM224 416h266v46h-266
v-46z" />
    <glyph glyph-name="hbar" unicode="&#x127;" horiz-adv-x="668" 
d="M422 525q83 0 134.5 -61t51.5 -187v-203q0 -33 -23.5 -56t-56.5 -23q-32 0 -55.5 23t-23.5 56v203q0 57 -24 85t-65 28q-28 0 -49.5 -13t-31.5 -30.5t-14.5 -31t-4.5 -19.5v-222q0 -33 -23.5 -56t-56.5 -23t-56.5 23t-23.5 56v426h-4q-27 0 -46.5 19t-19.5 46t19.5 46.5
t46.5 19.5h4v3q0 33 24 56.5t56 23.5t56 -23.5t24 -56.5v-3h15q27 0 46.5 -19.5t19.5 -46.5t-19.5 -46t-46.5 -19h-15v-89q3 35 48 74.5t114 39.5z" />
    <glyph glyph-name="Imacron" unicode="&#x12a;" horiz-adv-x="288" 
d="M274 880q28 0 48 -20t20 -48t-20 -48t-48 -20h-260q-29 0 -49 20t-20 48t20 48t49 20h260zM144 703q34 0 59 -25t25 -59v-543q0 -34 -25 -59t-59 -25t-59 25t-25 59v543q0 34 25 59t59 25z" />
    <glyph glyph-name="imacron" unicode="&#x12b;" horiz-adv-x="310" 
d="M285 700q28 0 48 -20t20 -48t-20 -48t-48 -20h-260q-29 0 -49 20t-20 48t20 48t49 20h260zM155 523q32 0 56 -23.5t24 -56.5v-371q0 -33 -23.5 -56t-56.5 -23t-56.5 23t-23.5 56v371q0 33 24 56.5t56 23.5z" />
    <glyph glyph-name="Iogonek" unicode="&#x12e;" horiz-adv-x="294" 
d="M234 619v-543v-2q0 -34 -19.5 -60.5t-43.5 -40t-43.5 -32t-19.5 -39.5q0 -40 48 -40q46 0 46 -33q0 -46 -107 -46q-61 0 -100 23t-39 75q0 28 11.5 49.5t27.5 36t32 28.5t27.5 34t11.5 45v2v543q0 34 25 59t59 25t59 -25t25 -59z" />
    <glyph glyph-name="iogonek" unicode="&#x12f;" horiz-adv-x="288" 
d="M146 599q-32 0 -56.5 24t-24.5 57t24.5 57t56.5 24q33 0 57.5 -24t24.5 -57t-24.5 -57t-57.5 -24zM146 523q32 0 56 -23.5t24 -56.5v-371q0 -34 -19 -60.5t-42.5 -40t-42.5 -32t-19 -39.5q0 -40 49 -40q46 0 46 -33q0 -46 -107 -46q-61 0 -100 23.5t-39 75.5q0 33 18 59
t39 40t39 38.5t18 54.5v371q0 33 24 56.5t56 23.5z" />
    <glyph glyph-name="Idotaccent" unicode="&#x130;" horiz-adv-x="288" 
d="M144 779q-32 0 -56.5 24t-24.5 57t24.5 57t56.5 24q33 0 57.5 -24t24.5 -57t-24.5 -57t-57.5 -24zM144 703q34 0 59 -25t25 -59v-543q0 -34 -25 -59t-59 -25t-59 25t-25 59v543q0 34 25 59t59 25z" />
    <glyph glyph-name="dotlessi" unicode="&#x131;" horiz-adv-x="310" 
d="M155 523q32 0 56 -23.5t24 -56.5v-371q0 -33 -23.5 -56t-56.5 -23t-56.5 23t-23.5 56v371q0 33 24 56.5t56 23.5z" />
    <glyph glyph-name="IJ" unicode="&#x132;" horiz-adv-x="828" 
d="M144 703q34 0 59 -25t25 -59v-543q0 -34 -25 -59t-59 -25t-59 25t-25 59v543q0 34 25 59t59 25zM683 703q35 0 60 -23.5t25 -56.5v-376q0 -72 -21.5 -123.5t-58.5 -79t-77.5 -39.5t-87.5 -12q-84 0 -151 39q-49 29 -49 78q0 28 18 48t50 20q30 0 60 -18q44 -20 67 -20
q15 0 27 3.5t26 13t21.5 32.5t7.5 57v377q0 33 25 56.5t58 23.5z" />
    <glyph glyph-name="ij" unicode="&#x133;" horiz-adv-x="595" 
d="M141 567q-32 0 -56.5 23.5t-24.5 54.5q0 32 24.5 55.5t56.5 23.5t56.5 -23.5t24.5 -55.5q0 -31 -24.5 -54.5t-56.5 -23.5zM454 567q-32 0 -56.5 23.5t-24.5 54.5q0 32 24.5 55.5t56.5 23.5t56.5 -23.5t24.5 -55.5q0 -31 -24.5 -54.5t-56.5 -23.5zM141 523
q33 0 56.5 -23.5t23.5 -57.5v-367q0 -33 -23.5 -57t-56.5 -24t-56.5 24t-23.5 57v367q0 34 23.5 57.5t56.5 23.5zM454 523q33 0 56.5 -24t23.5 -58v-486q0 -73 -45 -116.5t-122 -43.5q-47 0 -83 15q-62 32 -62 82q0 36 27 58t62 12q2 0 12.5 -5.5t20.5 -5.5q6 0 11 2t8 4.5
t5.5 7t3.5 7.5t1.5 8.5t0.5 8v7.5v6v439q0 34 23.5 58t56.5 24z" />
    <glyph glyph-name="Kcommaaccent" unicode="&#x136;" horiz-adv-x="698" 
d="M650 111q18 -20 18 -48q0 -29 -21.5 -50t-51.5 -21q-31 0 -53 24l-221 257l-97 -101v-98q0 -34 -24 -58t-58 -24t-58 23.5t-24 57.5v553q0 34 24 58t58 24t58 -24t24 -58v-235l282 289q24 28 59 28q30 0 52 -21.5t22 -51.5q0 -25 -17 -46l-199 -209zM419 97q77 0 33 -84
l-79 -146q-26 -47 -84 -47h-6q-28 0 -37 18.5t2 46.5l46 147q23 65 84 65h41z" />
    <glyph glyph-name="kcommaaccent" unicode="&#x137;" horiz-adv-x="568" 
d="M524 112q19 -19 19 -48q0 -28 -20 -48.5t-49 -20.5q-32 0 -49 22l-27 31q-3 -14 -14 -35l-79 -146q-26 -47 -84 -47h-6q-28 0 -37 18.5t2 46.5l46 147q23 65 84 65h41h5l-88 102l-48 -43v-82q0 -33 -23.5 -56t-56.5 -23t-56.5 23t-23.5 56v560q0 33 24 56.5t56 23.5
t56 -23.5t24 -56.5v-292l166 158q23 23 54 23q30 0 50.5 -21.5t20.5 -50.5q0 -31 -20 -51l-123 -111z" />
    <glyph glyph-name="Lacute" unicode="&#x139;" horiz-adv-x="560" 
d="M187 953q34 0 58 -23.5t24 -57.5q0 -31 -19 -53l-62 -58q-17 -22 -44 -22q-31 0 -49 22.5t-5 54.5l19 81q9 25 30 40.5t48 15.5zM224 145h229q29 0 50.5 -21.5t21.5 -51.5t-21.5 -51t-50.5 -21h-302q-40 0 -65.5 25.5t-25.5 65.5v528q0 35 24.5 59.5t58.5 24.5
t57.5 -24.5t23.5 -59.5v-474z" />
    <glyph glyph-name="lacute" unicode="&#x13a;" horiz-adv-x="280" 
d="M165 955q34 0 58 -23.5t24 -57.5q0 -31 -19 -53l-62 -58q-17 -22 -44 -22q-31 0 -49 22.5t-5 54.5l19 81q9 25 30 40.5t48 15.5zM220 74q0 -33 -23.5 -56t-56.5 -23t-56.5 23t-23.5 56v560q0 33 24 56.5t56 23.5t56 -23.5t24 -56.5v-560z" />
    <glyph glyph-name="Lcommaaccent" unicode="&#x13b;" horiz-adv-x="560" 
d="M453 145q29 0 50.5 -21.5t21.5 -51.5t-21.5 -51t-50.5 -21h-88l-72 -133q-26 -47 -84 -47h-6q-28 0 -37 18.5t2 46.5l36 115h-53q-40 0 -65.5 25.5t-25.5 65.5v528q0 35 24.5 59.5t58.5 24.5t57.5 -24.5t23.5 -59.5v-474h229z" />
    <glyph glyph-name="lcommaaccent" unicode="&#x13c;" horiz-adv-x="280" 
d="M220 634v-560v-9q0 -18 -17 -52l-79 -146q-26 -47 -84 -47h-6q-28 0 -37 18.5t2 46.5l46 147q6 17 16 31q-1 4 -1 11v560q0 33 24 56.5t56 23.5t56 -23.5t24 -56.5z" />
    <glyph glyph-name="Lcaron" unicode="&#x13d;" horiz-adv-x="560" 
d="M356 541q-28 0 -37 18.5t2 46.5l46 147q23 65 84 65h41q40 0 47.5 -21t-14.5 -63l-79 -146q-26 -47 -84 -47h-6zM224 145h229q29 0 50.5 -21.5t21.5 -51.5t-21.5 -51t-50.5 -21h-302q-40 0 -65.5 25.5t-25.5 65.5v528q0 35 24.5 59.5t58.5 24.5t57.5 -24.5t23.5 -59.5
v-474z" />
    <glyph glyph-name="lcaron" unicode="&#x13e;" horiz-adv-x="492" 
d="M220 74q0 -33 -23.5 -56t-56.5 -23t-56.5 23t-23.5 56v560q0 33 24 56.5t56 23.5t56 -23.5t24 -56.5v-560zM305 423q-28 0 -37 18.5t2 46.5l46 147q23 65 84 65h41q77 0 33 -84l-79 -146q-26 -47 -84 -47h-6z" />
    <glyph glyph-name="Ldot" unicode="&#x13f;" horiz-adv-x="560" 
d="M224 145h229q29 0 50.5 -21.5t21.5 -51.5t-21.5 -51t-50.5 -21h-302q-40 0 -65.5 25.5t-25.5 65.5v528q0 35 24.5 59.5t58.5 24.5t57.5 -24.5t23.5 -59.5v-474zM449 276q-38 0 -64.5 26.5t-26.5 64.5q0 37 27 63.5t64 26.5t63.5 -26.5t26.5 -63.5q0 -38 -26.5 -64.5
t-63.5 -26.5z" />
    <glyph glyph-name="ldot" unicode="&#x140;" horiz-adv-x="535" 
d="M220 74q0 -33 -23.5 -56t-56.5 -23t-56.5 23t-23.5 56v560q0 33 24 56.5t56 23.5t56 -23.5t24 -56.5v-560zM385 274q-38 0 -64.5 26.5t-26.5 64.5q0 37 27 63.5t64 26.5t63.5 -26.5t26.5 -63.5q0 -38 -26.5 -64.5t-63.5 -26.5z" />
    <glyph glyph-name="Lslash" unicode="&#x141;" horiz-adv-x="631" 
d="M523 145q29 0 50.5 -21.5t21.5 -51.5t-21.5 -51t-50.5 -21h-302q-40 0 -65.5 25.5t-25.5 65.5v108q-10 -2 -15 -2q-23 0 -39 16.5t-16 38.5q0 23 15 38l55 57v272q0 35 24.5 59.5t58.5 24.5t57.5 -24.5t23.5 -59.5v-107q10 6 22 6q23 0 39 -16t16 -39q0 -16 -16 -36
l-61 -64v-218h229z" />
    <glyph glyph-name="lslash" unicode="&#x142;" horiz-adv-x="320" 
d="M300 449q0 -18 -16 -36l-45 -47v-292q0 -33 -23.5 -56t-56.5 -23t-56.5 23t-23.5 56v142h-4q-23 0 -39 16t-16 39q0 22 15 37l44 46v280q0 33 24 56.5t56 23.5t56 -23.5t24 -56.5v-130h6q23 0 39 -16t16 -39z" />
    <glyph glyph-name="Nacute" unicode="&#x143;" horiz-adv-x="713" 
d="M380 955q34 0 58 -23.5t24 -57.5q0 -31 -19 -53l-62 -58q-17 -22 -44 -22q-31 0 -49 22.5t-5 54.5l19 81q9 25 30 40.5t48 15.5zM568 703q36 0 60.5 -25t24.5 -59v-545q0 -38 -22 -59.5t-56 -21.5q-51 0 -85 48l-262 362v-326q0 -34 -24.5 -59t-58.5 -25q-35 0 -60 25
t-25 59v546q0 38 22 59t57 21q51 0 84 -48l262 -361v325q0 34 24.5 59t58.5 25z" />
    <glyph glyph-name="nacute" unicode="&#x144;" horiz-adv-x="628" 
d="M337 775q34 0 58 -23.5t24 -57.5q0 -31 -19 -53l-62 -58q-17 -22 -44 -22q-31 0 -49 22.5t-5 54.5l19 81q9 25 30 40.5t48 15.5zM382 525q83 0 134.5 -61t51.5 -187v-203q0 -33 -23.5 -56t-56.5 -23q-32 0 -55.5 23t-23.5 56v203q0 57 -24 85t-65 28q-28 0 -49.5 -13
t-31.5 -30.5t-14.5 -31t-4.5 -19.5v-222q0 -33 -23.5 -56t-56.5 -23t-56.5 23t-23.5 56v368q0 34 24 57.5t56 23.5t56 -23.5t24 -57.5v-31q3 35 48 74.5t114 39.5z" />
    <glyph glyph-name="Ncommaaccent" unicode="&#x145;" horiz-adv-x="713" 
d="M568 703q36 0 60.5 -25t24.5 -59v-545q0 -38 -22 -59.5t-56 -21.5q-51 0 -85 48l-262 362v-326q0 -34 -24.5 -59t-58.5 -25q-35 0 -60 25t-25 59v546q0 38 22 59t57 21q51 0 84 -48l262 -361v325q0 34 24.5 59t58.5 25zM251 -180q-28 0 -37 18.5t2 46.5l46 147
q23 65 84 65h41q77 0 33 -84l-79 -146q-26 -47 -84 -47h-6z" />
    <glyph glyph-name="ncommaaccent" unicode="&#x146;" horiz-adv-x="628" 
d="M382 525q83 0 134.5 -61t51.5 -187v-203q0 -33 -23.5 -56t-56.5 -23q-32 0 -55.5 23t-23.5 56v203q0 57 -24 85t-65 28q-28 0 -49.5 -13t-31.5 -30.5t-14.5 -31t-4.5 -19.5v-222q0 -33 -23.5 -56t-56.5 -23t-56.5 23t-23.5 56v368q0 34 24 57.5t56 23.5t56 -23.5
t24 -57.5v-31q3 35 48 74.5t114 39.5zM208 -180q-28 0 -37 18.5t2 46.5l46 147q23 65 84 65h41q40 0 47.5 -21t-14.5 -63l-79 -146q-26 -47 -84 -47h-6z" />
    <glyph glyph-name="Ncaron" unicode="&#x147;" horiz-adv-x="713" 
d="M359 787h-4q-26 0 -40.5 8.5t-32.5 32.5l-60 77q-19 25 -9.5 50t38.5 25q28 0 57 -34l49 -54l48 54q29 34 57 34q29 0 39 -25t-10 -50l-60 -77q-18 -24 -32.5 -32.5t-39.5 -8.5zM568 703q36 0 60.5 -25t24.5 -59v-545q0 -38 -22 -59.5t-56 -21.5q-51 0 -85 48l-262 362
v-326q0 -34 -24.5 -59t-58.5 -25q-35 0 -60 25t-25 59v546q0 38 22 59t57 21q51 0 84 -48l262 -361v325q0 34 24.5 59t58.5 25z" />
    <glyph glyph-name="ncaron" unicode="&#x148;" horiz-adv-x="628" 
d="M316 607h-4q-26 0 -40.5 8.5t-32.5 32.5l-60 77q-19 25 -9.5 50t38.5 25q28 0 57 -34l49 -54l48 54q29 34 57 34q29 0 39 -25t-10 -50l-60 -77q-18 -24 -32.5 -32.5t-39.5 -8.5zM382 525q83 0 134.5 -61t51.5 -187v-203q0 -33 -23.5 -56t-56.5 -23q-32 0 -55.5 23
t-23.5 56v203q0 57 -24 85t-65 28q-28 0 -49.5 -13t-31.5 -30.5t-14.5 -31t-4.5 -19.5v-222q0 -33 -23.5 -56t-56.5 -23t-56.5 23t-23.5 56v368q0 34 24 57.5t56 23.5t56 -23.5t24 -57.5v-31q3 35 48 74.5t114 39.5z" />
    <glyph glyph-name="Eng" unicode="&#x14a;" horiz-adv-x="713" 
d="M568 703q36 0 60.5 -25t24.5 -59v-598q0 -72 -21.5 -123.5t-58.5 -79t-77.5 -39.5t-87.5 -12q-84 0 -151 39q-49 29 -49 78q0 28 18 48t50 20q30 0 60 -18q44 -20 67 -20q15 0 27 3.5t26 13t21.5 32.5t7.5 57v28l-257 355v-326q0 -34 -24.5 -59t-58.5 -25q-35 0 -60 25
t-25 59v546q0 38 22 59t57 21q51 0 84 -48l262 -361v325q0 34 24.5 59t58.5 25z" />
    <glyph glyph-name="eng" unicode="&#x14b;" horiz-adv-x="641" 
d="M568 138q13 -20 13 -43v-142q0 -78 -44 -118t-122 -40q-22 0 -64 5q-25 8 -41.5 29t-16.5 47q0 38 29 62.5t65 16.5q2 1 3 2.5t2 1.5q30 0 30 49v23q-13 20 -13 43v203q0 57 -24 85t-65 28q-28 0 -49.5 -13t-31.5 -30.5t-14.5 -31t-4.5 -19.5v-222q0 -33 -23.5 -56
t-56.5 -23t-56.5 23t-23.5 56v368q0 34 24 57.5t56 23.5t56 -23.5t24 -57.5v-31q3 35 48 74.5t114 39.5q83 0 134.5 -61t51.5 -187v-139z" />
    <glyph glyph-name="Omacron" unicode="&#x14c;" horiz-adv-x="798" 
d="M529 880q28 0 48 -20t20 -48t-20 -48t-48 -20h-260q-29 0 -49 20t-20 48t20 48t49 20h260zM399 707q137 0 243 -102t106 -255t-106 -255t-243 -102t-243 102t-106 255t106 255t243 102zM399 551q-74 0 -125.5 -56.5t-51.5 -144.5t51.5 -144t125.5 -56t125 56t51 144
q0 89 -50.5 145t-125.5 56z" />
    <glyph glyph-name="omacron" unicode="&#x14d;" horiz-adv-x="621" 
d="M441 700q28 0 48 -20t20 -48t-20 -48t-48 -20h-260q-29 0 -49 20t-20 48t20 48t49 20h260zM311 526q44 0 90.5 -17.5t87 -49.5t66.5 -84.5t26 -116.5t-26 -116.5t-66.5 -83.5t-87 -48t-90.5 -17q-45 0 -91 17t-87 48t-67 83.5t-26 116.5t26 116.5t66.5 84.5t87 49.5
t91.5 17.5zM311 388q-48 0 -80.5 -36t-32.5 -94q0 -56 32.5 -91.5t80.5 -35.5q47 0 80 36t33 91q0 57 -32.5 93.5t-80.5 36.5z" />
    <glyph glyph-name="Ohungarumlaut" unicode="&#x150;" horiz-adv-x="798" 
d="M378 955q34 0 58 -23.5t24 -57.5q0 -31 -19 -53l-62 -58q-17 -22 -44 -22q-31 0 -49 22.5t-5 54.5l19 81q9 25 30 40.5t48 15.5zM596 955q34 0 58 -23.5t24 -57.5q0 -31 -19 -53l-62 -58q-17 -22 -44 -22q-31 0 -49 22.5t-5 54.5l19 81q9 25 30 40.5t48 15.5zM399 707
q137 0 243 -102t106 -255t-106 -255t-243 -102t-243 102t-106 255t106 255t243 102zM399 551q-74 0 -125.5 -56.5t-51.5 -144.5t51.5 -144t125.5 -56t125 56t51 144q0 89 -50.5 145t-125.5 56z" />
    <glyph glyph-name="ohungarumlaut" unicode="&#x151;" horiz-adv-x="621" 
d="M290 775q34 0 58 -23.5t24 -57.5q0 -31 -19 -53l-62 -58q-17 -22 -44 -22q-31 0 -49 22.5t-5 54.5l19 81q9 25 30 40.5t48 15.5zM508 775q34 0 58 -23.5t24 -57.5q0 -31 -19 -53l-62 -58q-17 -22 -44 -22q-31 0 -49 22.5t-5 54.5l19 81q9 25 30 40.5t48 15.5zM311 526
q44 0 90.5 -17.5t87 -49.5t66.5 -84.5t26 -116.5t-26 -116.5t-66.5 -83.5t-87 -48t-90.5 -17q-45 0 -91 17t-87 48t-67 83.5t-26 116.5t26 116.5t66.5 84.5t87 49.5t91.5 17.5zM311 388q-48 0 -80.5 -36t-32.5 -94q0 -56 32.5 -91.5t80.5 -35.5q47 0 80 36t33 91
q0 57 -32.5 93.5t-80.5 36.5z" />
    <glyph glyph-name="OE" unicode="&#x152;" horiz-adv-x="1086" 
d="M978 143q30 0 51.5 -21t21.5 -50q0 -30 -21.5 -51t-51.5 -21h-326q-54 0 -78 42q-84 -49 -175 -49q-137 0 -243 102t-106 255t106 255t243 102q91 0 175 -49q24 42 78 42h316q30 0 51.5 -20.5t21.5 -49.5q0 -31 -21.5 -52t-51.5 -21h-243v-79q12 -31 16 -58h135
q30 0 51 -20.5t21 -47.5q0 -29 -21 -49t-51 -20h-134q-6 -31 -17 -61v-79h253zM399 150q55 0 98.5 31.5t63.5 86.5v165q-20 55 -63.5 86.5t-98.5 31.5q-74 0 -125.5 -56.5t-51.5 -144.5t51.5 -144t125.5 -56z" />
    <glyph glyph-name="oe" unicode="&#x153;" horiz-adv-x="985" 
d="M944 285q0 -46 -24 -65t-74 -19l-255 3q22 -81 120 -81q19 0 63 11q48 16 58 16q24 0 38.5 -15t14.5 -38q0 -36 -38 -65q-60 -37 -143 -37q-123 0 -203 74q-40 -37 -91 -56.5t-99 -19.5q-45 0 -91 17t-87 48t-67 83.5t-26 116.5t26 116.5t66.5 84.5t87 49.5t91.5 17.5
q49 0 100 -20.5t91 -58.5q39 38 90 58.5t100 20.5q93 0 172.5 -67.5t79.5 -173.5zM311 131q47 0 80 36t33 91q0 57 -32.5 93.5t-80.5 36.5t-80.5 -36t-32.5 -94q0 -56 32.5 -91.5t80.5 -35.5zM591 310h196q-14 78 -95 78q-39 0 -67 -19t-34 -59z" />
    <glyph glyph-name="Racute" unicode="&#x154;" horiz-adv-x="640" 
d="M310 741q-31 0 -49 22.5t-5 54.5l19 81q9 25 30 40.5t48 15.5q34 0 58 -23.5t24 -57.5q0 -31 -19 -53l-62 -58q-17 -22 -44 -22zM580 124q20 -28 20 -50q0 -32 -21.5 -54.5t-53.5 -22.5q-38 0 -60 30l-166 212h-75v-165q0 -34 -23.5 -58t-57.5 -24t-58.5 24t-24.5 58v535
q0 40 25.5 65.5t65.5 25.5h183q114 0 185.5 -67.5t71.5 -164.5q0 -65 -34.5 -119t-95.5 -83zM224 560v-181h101q50 0 78.5 19t28.5 70q0 92 -107 92h-101z" />
    <glyph glyph-name="racute" unicode="&#x155;" horiz-adv-x="465" 
d="M254 561q-31 0 -49 22.5t-5 54.5l19 81q9 25 30 40.5t48 15.5q34 0 58 -23.5t24 -57.5q0 -31 -19 -53l-62 -58q-17 -22 -44 -22zM363 525q34 0 53 -21t19 -51q0 -35 -25.5 -55t-75.5 -20q-48 0 -80 -28t-34 -54v-222q0 -32 -24 -55.5t-56 -23.5t-56 23.5t-24 55.5v368
q0 34 24 57.5t56 23.5t56 -23.5t24 -57.5v-31q3 33 45.5 73.5t97.5 40.5z" />
    <glyph glyph-name="Rcommaaccent" unicode="&#x156;" horiz-adv-x="640" 
d="M580 124q20 -28 20 -50q0 -32 -21.5 -54.5t-53.5 -22.5q-38 0 -60 30l-166 212h-75v-165q0 -34 -23.5 -58t-57.5 -24t-58.5 24t-24.5 58v535q0 40 25.5 65.5t65.5 25.5h183q114 0 185.5 -67.5t71.5 -164.5q0 -65 -34.5 -119t-95.5 -83zM224 560v-181h101q50 0 78.5 19
t28.5 70q0 92 -107 92h-101zM369 97q77 0 33 -84l-79 -146q-26 -47 -84 -47h-6q-28 0 -37 18.5t2 46.5l46 147q23 65 84 65h41z" />
    <glyph glyph-name="rcommaaccent" unicode="&#x157;" horiz-adv-x="465" 
d="M363 525q34 0 53 -21t19 -51q0 -35 -25.5 -55t-75.5 -20q-48 0 -80 -28t-34 -54v-222q0 -14 -5 -27q-5 -18 -14 -34l-79 -146q-26 -47 -84 -47h-6q-28 0 -37 18.5t2 46.5l46 147q8 20 17 34v8v368q0 34 24 57.5t56 23.5t56 -23.5t24 -57.5v-31q3 33 45.5 73.5t97.5 40.5z
" />
    <glyph glyph-name="Rcaron" unicode="&#x158;" horiz-adv-x="640" 
d="M255 828l-60 77q-19 25 -9.5 50t38.5 25q28 0 57 -34l49 -54l48 54q29 34 57 34q29 0 39 -25t-10 -50l-60 -77q-18 -24 -32.5 -32.5t-39.5 -8.5h-4q-26 0 -40.5 8.5t-32.5 32.5zM580 124q20 -28 20 -50q0 -32 -21.5 -54.5t-53.5 -22.5q-38 0 -60 30l-166 212h-75v-165
q0 -34 -23.5 -58t-57.5 -24t-58.5 24t-24.5 58v535q0 40 25.5 65.5t65.5 25.5h183q114 0 185.5 -67.5t71.5 -164.5q0 -65 -34.5 -119t-95.5 -83zM224 560v-181h101q50 0 78.5 19t28.5 70q0 92 -107 92h-101z" />
    <glyph glyph-name="rcaron" unicode="&#x159;" horiz-adv-x="465" 
d="M199 648l-60 77q-19 25 -9.5 50t38.5 25q28 0 57 -34l49 -54l48 54q29 34 57 34q29 0 39 -25t-10 -50l-60 -77q-18 -24 -32.5 -32.5t-39.5 -8.5h-4q-26 0 -40.5 8.5t-32.5 32.5zM363 525q34 0 53 -21t19 -51q0 -35 -25.5 -55t-75.5 -20q-48 0 -80 -28t-34 -54v-222
q0 -32 -24 -55.5t-56 -23.5t-56 23.5t-24 55.5v368q0 34 24 57.5t56 23.5t56 -23.5t24 -57.5v-31q3 33 45.5 73.5t97.5 40.5z" />
    <glyph glyph-name="Sacute" unicode="&#x15a;" horiz-adv-x="581" 
d="M310 955q34 0 58 -23.5t24 -57.5q0 -31 -19 -53l-62 -58q-17 -22 -44 -22q-31 0 -49 22.5t-5 54.5l19 81q9 25 30 40.5t48 15.5zM293 707q105 0 175 -65q37 -39 37 -71q0 -28 -19.5 -46.5t-48.5 -18.5q-36 0 -64 30q-36 27 -73 27q-36 0 -55.5 -16.5t-19.5 -42.5
q0 -44 62 -68l28 -10q125 -47 175.5 -97.5t50.5 -121.5q0 -68 -41.5 -118.5t-99.5 -73t-120 -22.5q-124 0 -204 79q-36 45 -36 82q0 27 17.5 48t49.5 21q38 0 77 -45q40 -40 96 -40q21 0 40 4.5t36 21t17 43.5q0 30 -21 50.5t-76 41.5l-31 11q-90 34 -137 78.5t-47 118.5
q0 91 66.5 145.5t165.5 54.5z" />
    <glyph glyph-name="sacute" unicode="&#x15b;" horiz-adv-x="482" 
d="M268 775q34 0 58 -23.5t24 -57.5q0 -31 -19 -53l-62 -58q-17 -22 -44 -22q-31 0 -49 22.5t-5 54.5l19 81q9 25 30 40.5t48 15.5zM243 526q50 0 95.5 -18t69.5 -51q20 -23 20 -50q0 -28 -17 -43.5t-44 -15.5q-39 0 -65 29q-25 24 -53 24q-19 0 -30 -8.5t-11 -22.5v-1
q0 -5 1 -9t9.5 -12t25.5 -13l59 -18q66 -20 105 -54.5t39 -98.5q0 -82 -61.5 -125.5t-147.5 -43.5q-43 0 -79.5 12.5t-52 23t-37.5 28.5q-34 34 -34 75q0 23 14.5 41t45.5 18t64 -35q37 -35 79 -35q51 0 51 32q0 5 -1 9.5t-12 14.5t-31 16l-47 14q-147 44 -147 160
q0 76 57.5 116.5t134.5 40.5z" />
    <glyph glyph-name="Scedilla" unicode="&#x15e;" horiz-adv-x="581" 
d="M541 207q0 -83 -56.5 -136.5t-138.5 -70.5h3l-52 -55q90 -28 90 -101q0 -100 -189 -91q-14 1 -22 9t-6 19q3 16 32 19q37 5 51.5 14.5t14.5 26.5q0 16 -10.5 23.5t-24.5 4.5q-34 -9 -51 21q-13 23 -2 47l36 63q-84 16 -140 72q-36 45 -36 82q0 27 17.5 48t49.5 21
q38 0 77 -45q40 -40 96 -40q21 0 40 4.5t36 21t17 43.5q0 30 -21 50.5t-76 41.5l-31 11q-90 34 -137 78.5t-47 118.5q0 91 66.5 145.5t165.5 54.5q105 0 175 -65q37 -39 37 -71q0 -28 -19.5 -46.5t-48.5 -18.5q-36 0 -64 30q-36 27 -73 27q-36 0 -55.5 -16.5t-19.5 -42.5
q0 -44 62 -68l28 -10q125 -47 175.5 -97.5t50.5 -121.5z" />
    <glyph glyph-name="scedilla" unicode="&#x15f;" horiz-adv-x="482" 
d="M447 164q0 -68 -43 -109.5t-111 -54.5h27l-52 -55q90 -28 90 -101q0 -100 -189 -91q-14 1 -22 9t-6 19q3 16 32 19q37 5 51.5 14.5t14.5 26.5q0 16 -10.5 23.5t-24.5 4.5q-34 -9 -51 21q-13 23 -2 47l36 62q-59 11 -118 60q-34 34 -34 75q0 23 14.5 41t45.5 18t64 -35
q37 -35 79 -35q51 0 51 32q0 5 -1 9.5t-12 14.5t-31 16l-47 14q-147 44 -147 160q0 76 57.5 116.5t134.5 40.5q50 0 95.5 -18t69.5 -51q20 -23 20 -50q0 -28 -17 -43.5t-44 -15.5q-39 0 -65 29q-25 24 -53 24q-19 0 -30 -8.5t-11 -22.5v-1q0 -5 1 -9t9.5 -12t25.5 -13
l59 -18q66 -20 105 -54.5t39 -98.5z" />
    <glyph glyph-name="Scaron" unicode="&#x160;" horiz-adv-x="581" 
d="M289 787h-4q-26 0 -40.5 8.5t-32.5 32.5l-60 77q-19 25 -9.5 50t38.5 25q28 0 57 -34l49 -54l48 54q29 34 57 34q29 0 39 -25t-10 -50l-60 -77q-18 -24 -32.5 -32.5t-39.5 -8.5zM293 707q105 0 175 -65q37 -39 37 -71q0 -28 -19.5 -46.5t-48.5 -18.5q-36 0 -64 30
q-36 27 -73 27q-36 0 -55.5 -16.5t-19.5 -42.5q0 -44 62 -68l28 -10q125 -47 175.5 -97.5t50.5 -121.5q0 -68 -41.5 -118.5t-99.5 -73t-120 -22.5q-124 0 -204 79q-36 45 -36 82q0 27 17.5 48t49.5 21q38 0 77 -45q40 -40 96 -40q21 0 40 4.5t36 21t17 43.5q0 30 -21 50.5
t-76 41.5l-31 11q-90 34 -137 78.5t-47 118.5q0 91 66.5 145.5t165.5 54.5z" />
    <glyph glyph-name="scaron" unicode="&#x161;" horiz-adv-x="482" 
d="M247 607h-4q-26 0 -40.5 8.5t-32.5 32.5l-60 77q-19 25 -9.5 50t38.5 25q28 0 57 -34l49 -54l48 54q29 34 57 34q29 0 39 -25t-10 -50l-60 -77q-18 -24 -32.5 -32.5t-39.5 -8.5zM243 526q50 0 95.5 -18t69.5 -51q20 -23 20 -50q0 -28 -17 -43.5t-44 -15.5q-39 0 -65 29
q-25 24 -53 24q-19 0 -30 -8.5t-11 -22.5v-1q0 -5 1 -9t9.5 -12t25.5 -13l59 -18q66 -20 105 -54.5t39 -98.5q0 -82 -61.5 -125.5t-147.5 -43.5q-43 0 -79.5 12.5t-52 23t-37.5 28.5q-34 34 -34 75q0 23 14.5 41t45.5 18t64 -35q37 -35 79 -35q51 0 51 32q0 5 -1 9.5
t-12 14.5t-31 16l-47 14q-147 44 -147 160q0 76 57.5 116.5t134.5 40.5z" />
    <glyph glyph-name="uni0162" unicode="&#x162;" horiz-adv-x="616" 
d="M514 700q30 0 51 -21t21 -52q0 -30 -21.5 -51t-50.5 -21h-124v-477v-3h23q0 -44 -67 -131q41 -12 68 -39t27 -64q0 -101 -193 -101q-18 -1 -26 6t-4 18q9 22 33 26q39 11 54 21t15 30q0 15 -13 24.5t-26 2.5q-14 -8 -25.5 -5t-22.5 23q-4 6 -6 12t-1.5 12t0.5 8.5t2 9.5
l2 8q7 61 8 99q-12 18 -12 43v477h-123q-30 0 -51.5 21t-21.5 51t21.5 51.5t51.5 21.5h411z" />
    <glyph glyph-name="uni0163" unicode="&#x163;" horiz-adv-x="415" 
d="M385 77q0 -60 -74 -77h23l-52 -55q90 -28 90 -101q0 -100 -189 -91q-14 1 -22 9t-6 19q3 16 32 19q37 5 51.5 14.5t14.5 26.5q0 16 -10.5 23.5t-24.5 4.5q-34 -9 -51 21q-13 23 -2 47l36 63h8q-105 24 -105 184v213h-20q-29 0 -46.5 17t-17.5 44t17.5 44.5t46.5 17.5h20
v58q0 33 24 56.5t56 23.5t56 -23.5t24 -56.5v-58h58q29 0 46 -17.5t17 -44.5t-17 -44t-46 -17h-58v-221q0 -44 27 -44q4 0 18 2t20 1q26 0 41 -15t15 -43z" />
    <glyph glyph-name="Tcaron" unicode="&#x164;" horiz-adv-x="616" 
d="M309 787h-4q-26 0 -40.5 8.5t-32.5 32.5l-60 77q-19 25 -9.5 50t38.5 25q28 0 57 -34l49 -54l48 54q29 34 57 34q29 0 39 -25t-10 -50l-60 -77q-18 -24 -32.5 -32.5t-39.5 -8.5zM514 700q30 0 51 -21t21 -52q0 -30 -21.5 -51t-50.5 -21h-124v-477q0 -35 -24.5 -60.5
t-56.5 -25.5q-34 0 -58.5 25.5t-24.5 60.5v477h-123q-30 0 -51.5 21t-21.5 51t21.5 51.5t51.5 21.5h411z" />
    <glyph glyph-name="tcaron" unicode="&#x165;" horiz-adv-x="487" 
d="M390 769q34 0 58 -23.5t24 -57.5q0 -31 -19 -53l-62 -58q-17 -22 -44 -22q-31 0 -49 22.5t-5 54.5l19 81q9 25 30 40.5t48 15.5zM322 397h-58v-221q0 -44 27 -44q4 0 18 2t20 1q26 0 41 -15t15 -43q0 -39 -32.5 -60.5t-92.5 -21.5q-33 0 -57.5 7t-48.5 25.5t-37 58
t-13 98.5v213h-20q-29 0 -46.5 17t-17.5 44t17.5 44.5t46.5 17.5h20v58q0 33 24 56.5t56 23.5t56 -23.5t24 -56.5v-58h58q29 0 46 -17.5t17 -44.5t-17 -44t-46 -17z" />
    <glyph glyph-name="Tbar" unicode="&#x166;" horiz-adv-x="616" 
d="M514 700q30 0 51 -21t21 -52q0 -30 -21.5 -51t-50.5 -21h-124v-35h49q28 0 48 -20t20 -48t-20 -48t-48 -20h-49v-306q0 -35 -24.5 -60.5t-56.5 -25.5q-34 0 -58.5 25.5t-24.5 60.5v306h-47q-29 0 -49 20t-20 48t20 48t49 20h47v35h-123q-30 0 -51.5 21t-21.5 51
t21.5 51.5t51.5 21.5h411z" />
    <glyph glyph-name="tbar" unicode="&#x167;" horiz-adv-x="415" 
d="M329 135q26 0 41 -15t15 -43q0 -39 -32.5 -60.5t-92.5 -21.5q-33 0 -57.5 7t-48.5 25.5t-37 58t-13 98.5v47h-10q-28 0 -48.5 20t-20.5 49q0 28 20.5 47.5t48.5 19.5h10v30h-20q-29 0 -46.5 17t-17.5 44t17.5 44.5t46.5 17.5h20v58q0 33 24 56.5t56 23.5t56 -23.5
t24 -56.5v-58h58q29 0 46 -17.5t17 -44.5t-17 -44t-46 -17h-58v-30h49q28 0 48 -19.5t20 -47.5q0 -29 -20 -49t-48 -20h-49v-55q0 -44 27 -44q4 0 18 2t20 1z" />
    <glyph glyph-name="Umacron" unicode="&#x16a;" horiz-adv-x="699" 
d="M479 880q28 0 48 -20t20 -48t-20 -48t-48 -20h-260q-29 0 -49 20t-20 48t20 48t49 20h260zM554 703q34 0 57 -23.5t23 -56.5v-376q0 -116 -82 -185t-202 -69q-121 0 -203 69t-82 185v376q0 33 23 56.5t57 23.5q35 0 59.5 -23.5t24.5 -56.5v-375q0 -62 35 -90.5t86 -28.5
t85.5 28.5t34.5 90.5v375q0 33 24.5 56.5t59.5 23.5z" />
    <glyph glyph-name="umacron" unicode="&#x16b;" horiz-adv-x="628" 
d="M444 700q28 0 48 -20t20 -48t-20 -48t-48 -20h-260q-29 0 -49 20t-20 48t20 48t49 20h260zM246 -6q-83 0 -134.5 61t-51.5 187v203q0 33 23.5 56t56.5 23q32 0 55.5 -23t23.5 -56v-203q0 -57 24 -85t65 -28q28 0 49.5 13t31.5 30.5t14.5 31t4.5 19.5v222q0 33 23.5 56
t56.5 23t56.5 -23t23.5 -56v-368q0 -33 -24 -57t-56 -24t-56 24t-24 57v31q-3 -35 -48 -74.5t-114 -39.5z" />
    <glyph glyph-name="Ubreve" unicode="&#x16c;" horiz-adv-x="699" 
d="M473 955q33 0 52 -25t9 -59q-19 -60 -66.5 -97t-118.5 -37q-72 0 -119.5 37t-65.5 97q-10 34 8.5 59t51.5 25q40 0 55 -36q23 -38 70 -38q46 0 69 38q15 36 55 36zM554 703q34 0 57 -23.5t23 -56.5v-376q0 -116 -82 -185t-202 -69q-121 0 -203 69t-82 185v376
q0 33 23 56.5t57 23.5q35 0 59.5 -23.5t24.5 -56.5v-375q0 -62 35 -90.5t86 -28.5t85.5 28.5t34.5 90.5v375q0 33 24.5 56.5t59.5 23.5z" />
    <glyph glyph-name="ubreve" unicode="&#x16d;" horiz-adv-x="628" 
d="M438 775q33 0 52 -25t9 -59q-19 -60 -66.5 -97t-118.5 -37q-72 0 -119.5 37t-65.5 97q-10 34 8.5 59t51.5 25q40 0 55 -36q23 -38 70 -38q46 0 69 38q15 36 55 36zM246 -6q-83 0 -134.5 61t-51.5 187v203q0 33 23.5 56t56.5 23q32 0 55.5 -23t23.5 -56v-203q0 -57 24 -85
t65 -28q28 0 49.5 13t31.5 30.5t14.5 31t4.5 19.5v222q0 33 23.5 56t56.5 23t56.5 -23t23.5 -56v-368q0 -33 -24 -57t-56 -24t-56 24t-24 57v31q-3 -35 -48 -74.5t-114 -39.5z" />
    <glyph glyph-name="Uring" unicode="&#x16e;" horiz-adv-x="699" 
d="M350 997q47 0 82 -35t35 -84q0 -47 -35 -82t-82 -35q-51 0 -86 34.5t-35 82.5q0 49 35 84t86 35zM347 904q-9 0 -15.5 -7t-6.5 -17q0 -9 6.5 -15.5t15.5 -6.5t16.5 6.5t7.5 15.5q0 10 -7.5 17t-16.5 7zM554 703q34 0 57 -23.5t23 -56.5v-376q0 -116 -82 -185t-202 -69
q-121 0 -203 69t-82 185v376q0 33 23 56.5t57 23.5q35 0 59.5 -23.5t24.5 -56.5v-375q0 -62 35 -90.5t86 -28.5t85.5 28.5t34.5 90.5v375q0 33 24.5 56.5t59.5 23.5z" />
    <glyph glyph-name="uring" unicode="&#x16f;" horiz-adv-x="628" 
d="M315 817q47 0 82 -35t35 -84q0 -47 -35 -82t-82 -35q-51 0 -86 34.5t-35 82.5q0 49 35 84t86 35zM312 724q-9 0 -15.5 -7t-6.5 -17q0 -9 6.5 -15.5t15.5 -6.5t16.5 6.5t7.5 15.5q0 10 -7.5 17t-16.5 7zM246 -6q-83 0 -134.5 61t-51.5 187v203q0 33 23.5 56t56.5 23
q32 0 55.5 -23t23.5 -56v-203q0 -57 24 -85t65 -28q28 0 49.5 13t31.5 30.5t14.5 31t4.5 19.5v222q0 33 23.5 56t56.5 23t56.5 -23t23.5 -56v-368q0 -33 -24 -57t-56 -24t-56 24t-24 57v31q-3 -35 -48 -74.5t-114 -39.5z" />
    <glyph glyph-name="Uhungarumlaut" unicode="&#x170;" horiz-adv-x="699" 
d="M328 955q34 0 58 -23.5t24 -57.5q0 -31 -19 -53l-62 -58q-17 -22 -44 -22q-31 0 -49 22.5t-5 54.5l19 81q9 25 30 40.5t48 15.5zM546 955q34 0 58 -23.5t24 -57.5q0 -31 -19 -53l-62 -58q-17 -22 -44 -22q-31 0 -49 22.5t-5 54.5l19 81q9 25 30 40.5t48 15.5zM554 703
q34 0 57 -23.5t23 -56.5v-376q0 -116 -82 -185t-202 -69q-121 0 -203 69t-82 185v376q0 33 23 56.5t57 23.5q35 0 59.5 -23.5t24.5 -56.5v-375q0 -62 35 -90.5t86 -28.5t85.5 28.5t34.5 90.5v375q0 33 24.5 56.5t59.5 23.5z" />
    <glyph glyph-name="uhungarumlaut" unicode="&#x171;" horiz-adv-x="628" 
d="M293 775q34 0 58 -23.5t24 -57.5q0 -31 -19 -53l-62 -58q-17 -22 -44 -22q-31 0 -49 22.5t-5 54.5l19 81q9 25 30 40.5t48 15.5zM511 775q34 0 58 -23.5t24 -57.5q0 -31 -19 -53l-62 -58q-17 -22 -44 -22q-31 0 -49 22.5t-5 54.5l19 81q9 25 30 40.5t48 15.5zM246 -6
q-83 0 -134.5 61t-51.5 187v203q0 33 23.5 56t56.5 23q32 0 55.5 -23t23.5 -56v-203q0 -57 24 -85t65 -28q28 0 49.5 13t31.5 30.5t14.5 31t4.5 19.5v222q0 33 23.5 56t56.5 23t56.5 -23t23.5 -56v-368q0 -33 -24 -57t-56 -24t-56 24t-24 57v31q-3 -35 -48 -74.5t-114 -39.5
z" />
    <glyph glyph-name="Uogonek" unicode="&#x172;" horiz-adv-x="699" 
d="M554 703q34 0 57 -23.5t23 -56.5v-376q0 -99 -60.5 -164.5t-157.5 -83.5q-41 -11 -79.5 -36t-38.5 -55q0 -20 17 -33t39 -13q39 0 39 -33q0 -46 -107 -46q-139 0 -139 94q0 44 24.5 73.5t52 39t55.5 10.5q-95 19 -154.5 84t-59.5 163v376q0 33 23 56.5t57 23.5
q35 0 59.5 -23.5t24.5 -56.5v-375q0 -62 35 -90.5t86 -28.5t85.5 28.5t34.5 90.5v375q0 33 24.5 56.5t59.5 23.5z" />
    <glyph glyph-name="uogonek" unicode="&#x173;" horiz-adv-x="628" 
d="M568 445v-368v-3q0 -34 -19 -60.5t-42 -40t-42 -32t-19 -39.5q0 -40 48 -40q47 0 47 -33q0 -46 -107 -46q-61 0 -100 23t-39 75q0 27 11 48t27 35.5t32.5 28t29 32t14.5 41.5q-1 4 -1 11v31q-3 -35 -48 -74.5t-114 -39.5q-83 0 -134.5 61t-51.5 187v203q0 33 23.5 56
t56.5 23q32 0 55.5 -23t23.5 -56v-203q0 -57 24 -85t65 -28q28 0 49.5 13t31.5 30.5t14.5 31t4.5 19.5v222q0 33 23.5 56t56.5 23t56.5 -23t23.5 -56z" />
    <glyph glyph-name="Wcircumflex" unicode="&#x174;" horiz-adv-x="1021" 
d="M513 980q25 0 39.5 -8.5t32.5 -32.5l60 -77q20 -25 10 -50t-39 -25q-28 0 -57 34l-48 54l-49 -54q-29 -34 -57 -34q-29 0 -38.5 25t9.5 50l60 77q18 24 32.5 32.5t40.5 8.5h4zM906 703q33 0 56.5 -22t23.5 -52q0 -9 -11 -48l-160 -526q-19 -61 -87 -61q-64 0 -86 61
l-131 360l-132 -360q-22 -61 -86 -61q-68 0 -87 61l-160 526q-11 31 -11 48q0 30 23.5 52t56.5 22q27 0 49.5 -14.5t29.5 -38.5l105 -397l138 397q20 53 73 53q54 0 74 -53l138 -397l105 397q7 24 29.5 38.5t49.5 14.5z" />
    <glyph glyph-name="wcircumflex" unicode="&#x175;" horiz-adv-x="857" 
d="M430 800q25 0 39.5 -8.5t32.5 -32.5l60 -77q20 -25 10 -50t-39 -25q-28 0 -57 34l-48 54l-49 -54q-29 -34 -57 -34q-29 0 -38.5 25t9.5 50l60 77q18 24 32.5 32.5t40.5 8.5h4zM752 523q32 0 53.5 -21.5t21.5 -53.5q0 -1 -11 -37l-126 -352q-20 -61 -76 -61q-54 0 -80 61
l-106 238l-106 -238q-26 -61 -80 -61q-56 0 -76 61l-125 352q-11 29 -11 37q0 32 22 53.5t53 21.5q22 0 41 -11.5t26 -30.5l81 -257l104 251q20 48 71 48q52 0 72 -48l103 -251l82 257q6 18 25.5 30t41.5 12z" />
    <glyph glyph-name="Ycircumflex" unicode="&#x176;" horiz-adv-x="650" 
d="M327 980q25 0 39.5 -8.5t32.5 -32.5l60 -77q20 -25 10 -50t-39 -25q-28 0 -57 34l-48 54l-49 -54q-29 -34 -57 -34q-29 0 -38.5 25t9.5 50l60 77q18 24 32.5 32.5t40.5 8.5h4zM535 704q31 0 53.5 -22t22.5 -53q0 -23 -12 -41l-193 -283v-235q0 -32 -24.5 -55t-56.5 -23
q-33 0 -57 22.5t-24 55.5v235l-193 283q-12 18 -12 41q0 31 22 53t53 22q36 0 60 -30l151 -230l151 230q22 30 59 30z" />
    <glyph glyph-name="ycircumflex" unicode="&#x177;" horiz-adv-x="597" 
d="M185 607q-29 0 -38.5 25t9.5 50l60 77q18 24 32.5 32.5t40.5 8.5h4q25 0 39.5 -8.5t32.5 -32.5l60 -77q20 -25 10 -50t-39 -25q-28 0 -57 34l-48 54l-49 -54q-29 -34 -57 -34zM493 523q32 0 53 -21t21 -50q0 -18 -10 -38l-251 -552q-25 -57 -76 -57q-31 0 -51 21t-20 50
q0 16 9 38l51 113l-180 387q-9 23 -9 38q0 29 21 50t52 21q51 0 76 -57l117 -268l121 268q25 57 76 57z" />
    <glyph glyph-name="Ydieresis" unicode="&#x178;" horiz-adv-x="650" 
d="M192 732q-34 0 -59 25t-25 59t24.5 58t59.5 24t59.5 -24t24.5 -58t-25 -59t-59 -25zM458 732q-34 0 -59 25t-25 59t24.5 58t59.5 24t59.5 -24t24.5 -58t-25 -59t-59 -25zM535 704q31 0 53.5 -22t22.5 -53q0 -23 -12 -41l-193 -283v-235q0 -32 -24.5 -55t-56.5 -23
q-33 0 -57 22.5t-24 55.5v235l-193 283q-12 18 -12 41q0 31 22 53t53 22q36 0 60 -30l151 -230l151 230q22 30 59 30z" />
    <glyph glyph-name="Zacute" unicode="&#x179;" horiz-adv-x="600" 
d="M333 955q34 0 58 -23.5t24 -57.5q0 -31 -19 -53l-62 -58q-17 -22 -44 -22q-31 0 -49 22.5t-5 54.5l19 81q9 25 30 40.5t48 15.5zM436 700q47 0 81 -28t38 -67t-24 -80l-320 -380h277q30 0 51 -21.5t21 -51.5t-21.5 -51t-50.5 -21h-327q-74 0 -107.5 58t11.5 117l320 380
h-250q-30 0 -51.5 21t-21.5 51t21.5 51.5t51.5 21.5h301z" />
    <glyph glyph-name="zacute" unicode="&#x17a;" horiz-adv-x="504" 
d="M260 775q34 0 58 -23.5t24 -57.5q0 -31 -19 -53l-62 -58q-17 -22 -44 -22q-31 0 -49 22.5t-5 54.5l19 81q9 25 30 40.5t48 15.5zM341 520q75 0 106.5 -60.5t-21.5 -119.5l-219 -204h189q28 0 48 -19.5t20 -47.5q0 -29 -20 -49t-48 -20h-242q-48 0 -80 29t-33 69.5
t34 83.5l217 202h-172q-29 0 -49.5 20t-20.5 48t20.5 48t49.5 20h221z" />
    <glyph glyph-name="Zdotaccent" unicode="&#x17b;" horiz-adv-x="600" 
d="M310 779q-32 0 -56.5 24t-24.5 57t24.5 57t56.5 24q33 0 57.5 -24t24.5 -57t-24.5 -57t-57.5 -24zM436 700q47 0 81 -28t38 -67t-24 -80l-320 -380h277q30 0 51 -21.5t21 -51.5t-21.5 -51t-50.5 -21h-327q-74 0 -107.5 58t11.5 117l320 380h-250q-30 0 -51.5 21t-21.5 51
t21.5 51.5t51.5 21.5h301z" />
    <glyph glyph-name="zdotaccent" unicode="&#x17c;" horiz-adv-x="504" 
d="M237 599q-32 0 -56.5 24t-24.5 57t24.5 57t56.5 24q33 0 57.5 -24t24.5 -57t-24.5 -57t-57.5 -24zM341 520q75 0 106.5 -60.5t-21.5 -119.5l-219 -204h189q28 0 48 -19.5t20 -47.5q0 -29 -20 -49t-48 -20h-242q-48 0 -80 29t-33 69.5t34 83.5l217 202h-172
q-29 0 -49.5 20t-20.5 48t20.5 48t49.5 20h221z" />
    <glyph glyph-name="Zcaron" unicode="&#x17d;" horiz-adv-x="600" 
d="M312 787h-4q-26 0 -40.5 8.5t-32.5 32.5l-60 77q-19 25 -9.5 50t38.5 25q28 0 57 -34l49 -54l48 54q29 34 57 34q29 0 39 -25t-10 -50l-60 -77q-18 -24 -32.5 -32.5t-39.5 -8.5zM436 700q47 0 81 -28t38 -67t-24 -80l-320 -380h277q30 0 51 -21.5t21 -51.5t-21.5 -51
t-50.5 -21h-327q-74 0 -107.5 58t11.5 117l320 380h-250q-30 0 -51.5 21t-21.5 51t21.5 51.5t51.5 21.5h301z" />
    <glyph glyph-name="zcaron" unicode="&#x17e;" horiz-adv-x="504" 
d="M239 607h-4q-26 0 -40.5 8.5t-32.5 32.5l-60 77q-19 25 -9.5 50t38.5 25q28 0 57 -34l49 -54l48 54q29 34 57 34q29 0 39 -25t-10 -50l-60 -77q-18 -24 -32.5 -32.5t-39.5 -8.5zM341 520q75 0 106.5 -60.5t-21.5 -119.5l-219 -204h189q28 0 48 -19.5t20 -47.5
q0 -29 -20 -49t-48 -20h-242q-48 0 -80 29t-33 69.5t34 83.5l217 202h-172q-29 0 -49.5 20t-20.5 48t20.5 48t49.5 20h221z" />
    <glyph glyph-name="florin" unicode="&#x192;" horiz-adv-x="384" 
d="M317 520q29 0 46 -17t17 -45q0 -27 -17 -44t-46 -17h-45v-414q0 -74 -31.5 -120.5t-91.5 -60.5q-46 -9 -74.5 11t-28.5 54q0 50 48 67q9 4 14 10.5t6.5 16t1 17.5t-1.5 21t-1 21v377h-39q-29 0 -46.5 17t-17.5 44t17.5 44.5t46.5 17.5h39v1q0 154 124 181q46 9 74 -10.5
t28 -54.5q0 -50 -48 -67q-25 -10 -21 -50h47z" />
    <glyph glyph-name="uni01CD" unicode="&#x1cd;" horiz-adv-x="723" 
d="M286 828l-60 77q-19 25 -9.5 50t38.5 25q28 0 57 -34l49 -54l48 54q29 34 57 34q29 0 39 -25t-10 -50l-60 -77q-18 -24 -32.5 -32.5t-39.5 -8.5h-4q-26 0 -40.5 8.5t-32.5 32.5zM677 118q11 -26 11 -48q0 -30 -23.5 -52t-56.5 -22q-57 0 -79 53l-38 90h-259l-38 -90
q-23 -53 -79 -53q-33 0 -56.5 22t-23.5 52q0 22 11 48l236 526q25 61 79 61t80 -61zM286 268h150l-75 178z" />
    <glyph glyph-name="uni01CE" unicode="&#x1ce;" 
d="M245 648l-60 77q-19 25 -9.5 50t38.5 25q28 0 57 -34l49 -54l48 54q29 34 57 34q29 0 39 -25t-10 -50l-60 -77q-18 -24 -32.5 -32.5t-39.5 -8.5h-4q-26 0 -40.5 8.5t-32.5 32.5zM490 523q32 0 57 -23.5t25 -55.5v-371q0 -33 -24.5 -56t-57.5 -23q-28 0 -50 17.5t-28 44.5
q-14 -24 -48.5 -43.5t-83.5 -19.5q-93 0 -166.5 70t-73.5 197q0 124 74.5 195t165.5 71q48 0 83.5 -22t46.5 -51v-9q0 32 24 55.5t56 23.5zM310 129q41 0 74 31.5t33 99.5q0 66 -33.5 98t-73.5 32q-46 0 -78 -34.5t-32 -95.5t32 -96t78 -35z" />
    <glyph glyph-name="uni01CF" unicode="&#x1cf;" horiz-adv-x="288" 
d="M146 787h-4q-26 0 -40.5 8.5t-32.5 32.5l-60 77q-19 25 -9.5 50t38.5 25q28 0 57 -34l49 -54l48 54q29 34 57 34q29 0 39 -25t-10 -50l-60 -77q-18 -24 -32.5 -32.5t-39.5 -8.5zM144 703q34 0 59 -25t25 -59v-543q0 -34 -25 -59t-59 -25t-59 25t-25 59v543q0 34 25 59
t59 25z" />
    <glyph glyph-name="uni01D0" unicode="&#x1d0;" horiz-adv-x="310" 
d="M157 607h-4q-26 0 -40.5 8.5t-32.5 32.5l-60 77q-19 25 -9.5 50t38.5 25q28 0 57 -34l49 -54l48 54q29 34 57 34q29 0 39 -25t-10 -50l-60 -77q-18 -24 -32.5 -32.5t-39.5 -8.5zM155 523q32 0 56 -23.5t24 -56.5v-371q0 -33 -23.5 -56t-56.5 -23t-56.5 23t-23.5 56v371
q0 33 24 56.5t56 23.5z" />
    <glyph glyph-name="uni01D1" unicode="&#x1d1;" horiz-adv-x="798" 
d="M401 787h-4q-26 0 -40.5 8.5t-32.5 32.5l-60 77q-19 25 -9.5 50t38.5 25q28 0 57 -34l49 -54l48 54q29 34 57 34q29 0 39 -25t-10 -50l-60 -77q-18 -24 -32.5 -32.5t-39.5 -8.5zM399 707q137 0 243 -102t106 -255t-106 -255t-243 -102t-243 102t-106 255t106 255t243 102
zM399 551q-74 0 -125.5 -56.5t-51.5 -144.5t51.5 -144t125.5 -56t125 56t51 144q0 89 -50.5 145t-125.5 56z" />
    <glyph glyph-name="uni01D2" unicode="&#x1d2;" horiz-adv-x="621" 
d="M313 607h-4q-26 0 -40.5 8.5t-32.5 32.5l-60 77q-19 25 -9.5 50t38.5 25q28 0 57 -34l49 -54l48 54q29 34 57 34q29 0 39 -25t-10 -50l-60 -77q-18 -24 -32.5 -32.5t-39.5 -8.5zM311 526q44 0 90.5 -17.5t87 -49.5t66.5 -84.5t26 -116.5t-26 -116.5t-66.5 -83.5t-87 -48
t-90.5 -17q-45 0 -91 17t-87 48t-67 83.5t-26 116.5t26 116.5t66.5 84.5t87 49.5t91.5 17.5zM311 388q-48 0 -80.5 -36t-32.5 -94q0 -56 32.5 -91.5t80.5 -35.5q47 0 80 36t33 91q0 57 -32.5 93.5t-80.5 36.5z" />
    <glyph glyph-name="uni01D3" unicode="&#x1d3;" horiz-adv-x="699" 
d="M351 787h-4q-26 0 -40.5 8.5t-32.5 32.5l-60 77q-19 25 -9.5 50t38.5 25q28 0 57 -34l49 -54l48 54q29 34 57 34q29 0 39 -25t-10 -50l-60 -77q-18 -24 -32.5 -32.5t-39.5 -8.5zM554 703q34 0 57 -23.5t23 -56.5v-376q0 -116 -82 -185t-202 -69q-121 0 -203 69t-82 185
v376q0 33 23 56.5t57 23.5q35 0 59.5 -23.5t24.5 -56.5v-375q0 -62 35 -90.5t86 -28.5t85.5 28.5t34.5 90.5v375q0 33 24.5 56.5t59.5 23.5z" />
    <glyph glyph-name="uni01D4" unicode="&#x1d4;" horiz-adv-x="628" 
d="M316 607h-4q-26 0 -40.5 8.5t-32.5 32.5l-60 77q-19 25 -9.5 50t38.5 25q28 0 57 -34l49 -54l48 54q29 34 57 34q29 0 39 -25t-10 -50l-60 -77q-18 -24 -32.5 -32.5t-39.5 -8.5zM246 -6q-83 0 -134.5 61t-51.5 187v203q0 33 23.5 56t56.5 23q32 0 55.5 -23t23.5 -56v-203
q0 -57 24 -85t65 -28q28 0 49.5 13t31.5 30.5t14.5 31t4.5 19.5v222q0 33 23.5 56t56.5 23t56.5 -23t23.5 -56v-368q0 -33 -24 -57t-56 -24t-56 24t-24 57v31q-3 -35 -48 -74.5t-114 -39.5z" />
    <glyph glyph-name="uni01EA" unicode="&#x1ea;" horiz-adv-x="798" 
d="M748 350q0 -133 -82 -229.5t-200 -120.5h1q-40 -10 -81 -35.5t-41 -56.5q0 -20 17 -33t39 -13q39 0 39 -33q0 -46 -107 -46q-139 0 -139 94q0 36 15 61.5t38 38t44.5 18t40.5 5.5q-118 24 -200 120.5t-82 229.5q0 153 106 255t243 102t243 -102t106 -255zM399 150
q74 0 125 56t51 144q0 89 -50.5 145t-125.5 56q-74 0 -125.5 -56.5t-51.5 -144.5t51.5 -144t125.5 -56z" />
    <glyph glyph-name="uni01EB" unicode="&#x1eb;" horiz-adv-x="621" 
d="M361 -2q-41 -11 -78 -36t-37 -54q0 -20 17 -33t39 -13q39 0 39 -33q0 -46 -107 -46q-139 0 -139 94q0 36 15 61.5t38 38t44.5 18t40.5 5.5h19q-87 20 -149.5 87t-62.5 171q0 64 26 116.5t66.5 84.5t87 49.5t91.5 17.5q44 0 90.5 -17.5t87 -49.5t66.5 -84.5t26 -116.5
q0 -107 -66 -174.5t-154 -85.5zM198 258q0 -56 32.5 -91.5t80.5 -35.5q47 0 80 36t33 91q0 57 -32.5 93.5t-80.5 36.5t-80.5 -36t-32.5 -94z" />
    <glyph glyph-name="Scommaaccent" unicode="&#x218;" horiz-adv-x="581" 
d="M541 207q0 -86 -60.5 -140t-146.5 -69l-71 -131q-26 -47 -84 -47h-6q-28 0 -37 18.5t2 46.5l39 125q-58 20 -101 62q-36 45 -36 82q0 27 17.5 48t49.5 21q38 0 77 -45q40 -40 96 -40q21 0 40 4.5t36 21t17 43.5q0 30 -21 50.5t-76 41.5l-31 11q-90 34 -137 78.5
t-47 118.5q0 91 66.5 145.5t165.5 54.5q105 0 175 -65q37 -39 37 -71q0 -28 -19.5 -46.5t-48.5 -18.5q-36 0 -64 30q-36 27 -73 27q-36 0 -55.5 -16.5t-19.5 -42.5q0 -44 62 -68l28 -10q125 -47 175.5 -97.5t50.5 -121.5z" />
    <glyph glyph-name="scommaaccent" unicode="&#x219;" horiz-adv-x="482" 
d="M447 164q0 -64 -39 -105t-100 -56l-74 -136q-26 -47 -84 -47h-6q-28 0 -37 18.5t2 46.5l39 125q-37 14 -79 49q-34 34 -34 75q0 23 14.5 41t45.5 18t64 -35q37 -35 79 -35q51 0 51 32q0 5 -1 9.5t-12 14.5t-31 16l-47 14q-147 44 -147 160q0 76 57.5 116.5t134.5 40.5
q50 0 95.5 -18t69.5 -51q20 -23 20 -50q0 -28 -17 -43.5t-44 -15.5q-39 0 -65 29q-25 24 -53 24q-19 0 -30 -8.5t-11 -22.5v-1q0 -5 1 -9t9.5 -12t25.5 -13l59 -18q66 -20 105 -54.5t39 -98.5z" />
    <glyph glyph-name="uni021A" unicode="&#x21a;" horiz-adv-x="616" 
d="M514 700q30 0 51 -21t21 -52q0 -30 -21.5 -51t-50.5 -21h-124v-477q0 -17 -6 -31q-3 -14 -14 -35l-79 -146q-26 -47 -84 -47h-6q-28 0 -37 18.5t2 46.5l46 147q7 20 15 31q0 2 -0.5 8t-0.5 8v477h-123q-30 0 -51.5 21t-21.5 51t21.5 51.5t51.5 21.5h411z" />
    <glyph glyph-name="uni021B" unicode="&#x21b;" horiz-adv-x="415" 
d="M329 135q26 0 41 -15t15 -43q0 -57 -64 -75l-73 -135q-26 -47 -84 -47h-6q-28 0 -37 18.5t2 46.5l42 133q-61 42 -61 166v213h-20q-29 0 -46.5 17t-17.5 44t17.5 44.5t46.5 17.5h20v58q0 33 24 56.5t56 23.5t56 -23.5t24 -56.5v-58h58q29 0 46 -17.5t17 -44.5t-17 -44
t-46 -17h-58v-221q0 -44 27 -44q4 0 18 2t20 1z" />
    <glyph glyph-name="uni0237" unicode="&#x237;" horiz-adv-x="312" 
d="M172 523q33 0 56.5 -24t23.5 -58v-486q0 -73 -45 -116.5t-122 -43.5q-47 0 -83 15q-62 32 -62 82q0 36 27 58t62 12q2 0 12.5 -5.5t20.5 -5.5q6 0 11 2t8 4.5t5.5 7t3.5 7.5t1.5 8.5t0.5 8v7.5v6v439q0 34 23.5 58t56.5 24z" />
    <glyph glyph-name="circumflex" unicode="&#x2c6;" horiz-adv-x="295" 
d="M150 800q25 0 39.5 -8.5t32.5 -32.5l60 -77q20 -25 10 -50t-39 -25q-28 0 -57 34l-48 54l-49 -54q-29 -34 -57 -34q-29 0 -38.5 25t9.5 50l60 77q18 24 32.5 32.5t40.5 8.5h4z" />
    <glyph glyph-name="caron" unicode="&#x2c7;" horiz-adv-x="295" 
d="M150 607h-4q-26 0 -40.5 8.5t-32.5 32.5l-60 77q-19 25 -9.5 50t38.5 25q28 0 57 -34l49 -54l48 54q29 34 57 34q29 0 39 -25t-10 -50l-60 -77q-18 -24 -32.5 -32.5t-39.5 -8.5z" />
    <glyph glyph-name="breve" unicode="&#x2d8;" horiz-adv-x="377" 
d="M313 775q33 0 52 -25t9 -59q-19 -60 -66.5 -97t-118.5 -37q-72 0 -119.5 37t-65.5 97q-10 34 8.5 59t51.5 25q40 0 55 -36q23 -38 70 -38q46 0 69 38q15 36 55 36z" />
    <glyph glyph-name="dotaccent" unicode="&#x2d9;" horiz-adv-x="173" 
d="M86 599q-32 0 -56.5 24t-24.5 57t24.5 57t56.5 24q33 0 57.5 -24t24.5 -57t-24.5 -57t-57.5 -24z" />
    <glyph glyph-name="ring" unicode="&#x2da;" horiz-adv-x="238" 
d="M121 817q47 0 82 -35t35 -84q0 -47 -35 -82t-82 -35q-51 0 -86 34.5t-35 82.5q0 49 35 84t86 35zM118 724q-9 0 -15.5 -7t-6.5 -17q0 -9 6.5 -15.5t15.5 -6.5t16.5 6.5t7.5 15.5q0 10 -7.5 17t-16.5 7z" />
    <glyph glyph-name="ogonek" unicode="&#x2db;" horiz-adv-x="273" 
d="M273 0q-40 -10 -81 -35.5t-41 -56.5q0 -20 17 -33t39 -13q39 0 39 -33q0 -46 -107 -46q-139 0 -139 94q0 36 15 61.5t38 38t44.5 18t40.5 5.5h135z" />
    <glyph glyph-name="tilde" unicode="&#x2dc;" horiz-adv-x="448" 
d="M145 753q37 0 101 -35t87 -35t36 12q13 13 33 13q21 0 33 -15.5t6 -34.5q-16 -43 -49 -70.5t-76 -27.5t-111.5 40.5t-91.5 40.5q-22 0 -33 -16q-12 -19 -36 -19q-18 0 -30 14t-7 34q13 44 49 71.5t89 27.5z" />
    <glyph glyph-name="hungarumlaut" unicode="&#x2dd;" horiz-adv-x="477" 
d="M106 775q34 0 58 -23.5t24 -57.5q0 -31 -19 -53l-62 -58q-17 -22 -44 -22q-31 0 -49 22.5t-5 54.5l19 81q9 25 30 40.5t48 15.5zM324 775q34 0 58 -23.5t24 -57.5q0 -31 -19 -53l-62 -58q-17 -22 -44 -22q-31 0 -49 22.5t-5 54.5l19 81q9 25 30 40.5t48 15.5z" />
    <glyph glyph-name="uni0326" unicode="&#x326;" horiz-adv-x="0" 
d="M-230 -180q-28 0 -37 18.5t2 46.5l46 147q23 65 84 65h41q40 0 47.5 -21t-14.5 -63l-79 -146q-26 -47 -84 -47h-6z" />
    <glyph glyph-name="uni0394" unicode="&#x394;" horiz-adv-x="733" 
d="M383 700l300 -700h-633l300 700h33zM367 446l-120 -310h239z" />
    <glyph glyph-name="uni03A9" unicode="&#x3a9;" horiz-adv-x="794" 
d="M672 148q47 -14 47 -71q0 -77 -78 -77h-164v174l28 23q34 29 55 71t21 87q0 92 -52.5 142.5t-131.5 50.5t-130.5 -50.5t-51.5 -142.5q0 -46 20 -88t54 -70l28 -23v-174h-164q-78 0 -78 77q0 57 47 71q-72 91 -72 207q0 100 51.5 182.5t130.5 126t165 43.5t165 -43.5
t130.5 -126t51.5 -182.5q0 -116 -72 -207z" />
    <glyph glyph-name="uni03BC" unicode="&#x3bc;" horiz-adv-x="633" 
d="M493 524q33 0 56.5 -23t23.5 -56v-368q0 -33 -23.5 -57t-56.5 -24t-56.5 24t-23.5 57v31q-3 -35 -48 -74.5t-114 -39.5q-11 0 -31 2v-115q0 -33 -23.5 -56t-56.5 -23t-56.5 23t-23.5 56v562q0 29 18.5 51t46.5 28q12 2 20 2q32 0 55.5 -23t23.5 -56v-203q0 -57 24 -85
t65 -28q28 0 49.5 13t31.5 30.5t14.5 31t4.5 19.5v222q0 33 23.5 56t56.5 23z" />
    <glyph glyph-name="pi" unicode="&#x3c0;" horiz-adv-x="765" 
d="M644 130q3 0 4 -2q29 3 50.5 -17t21.5 -48q0 -25 -14.5 -43t-39.5 -23q-34 -3 -77 -3q-52 0 -99.5 24.5t-47.5 75.5v290h-128v-314q0 -33 -23.5 -55.5t-56.5 -22.5t-56.5 22.5t-23.5 55.5v314h-40q-28 0 -48.5 20t-20.5 48t20.5 48t48.5 20h527q28 0 48 -20t20 -48
t-20 -48t-48 -20h-39v-199q0 -33 9.5 -44t32.5 -11z" />
    <glyph glyph-name="uni0401" unicode="&#x401;" horiz-adv-x="585" 
d="M159 732q-35 0 -59.5 25t-24.5 59t24.5 58t59.5 24t59.5 -24t24.5 -58t-24.5 -59t-59.5 -25zM425 732q-35 0 -59.5 25t-24.5 59t24.5 58t59.5 24t59.5 -24t24.5 -58t-24.5 -59t-59.5 -25zM224 143h253q30 0 51.5 -21t21.5 -50q0 -30 -21.5 -51t-51.5 -21h-326
q-40 0 -65.5 25.5t-25.5 65.5v518q0 40 25.5 65.5t65.5 25.5h316q30 0 51.5 -20.5t21.5 -49.5q0 -31 -21.5 -52t-51.5 -21h-243v-137h151q30 0 51 -20.5t21 -47.5q0 -29 -21 -49t-51 -20h-151v-140z" />
    <glyph glyph-name="uni0404" unicode="&#x404;" horiz-adv-x="655" 
d="M534 199q31 0 53.5 -20t22.5 -54q0 -30 -18.5 -52t-56.5 -45q-67 -35 -154 -35q-90 0 -171 44.5t-133 127.5t-52 185q0 152 108.5 254.5t244.5 102.5q90 0 158 -36q74 -45 74 -96q0 -34 -22.5 -54t-53.5 -20q-27 0 -62 21q-1 0 -9.5 5.5t-18 10t-27 9t-36.5 4.5
q-59 0 -106 -36.5t-67 -95.5h128q29 0 49.5 -20t20.5 -48q0 -29 -20.5 -49t-49.5 -20h-128q19 -59 66.5 -96t108.5 -37q18 0 35 4.5t26.5 9t18 10t9.5 5.5q35 21 62 21z" />
    <glyph glyph-name="uni0407" unicode="&#x407;" horiz-adv-x="288" 
d="M11 732q-35 0 -59.5 25t-24.5 59t24.5 58t59.5 24t59.5 -24t24.5 -58t-24.5 -59t-59.5 -25zM277 732q-35 0 -59.5 25t-24.5 59t24.5 58t59.5 24t59.5 -24t24.5 -58t-24.5 -59t-59.5 -25zM144 703q34 0 59 -25t25 -59v-543q0 -34 -25 -59t-59 -25t-59 25t-25 59v543
q0 34 25 59t59 25z" />
    <glyph glyph-name="uni0410" unicode="&#x410;" horiz-adv-x="723" 
d="M677 118q11 -26 11 -48q0 -30 -23.5 -52t-56.5 -22q-57 0 -79 53l-38 90h-259l-38 -90q-23 -53 -79 -53q-33 0 -56.5 22t-23.5 52q0 22 11 48l236 526q25 61 79 61t80 -61zM286 268h150l-75 178z" />
    <glyph glyph-name="uni0411" unicode="&#x411;" horiz-adv-x="631" 
d="M334 430q116 0 186.5 -60.5t70.5 -155.5t-70.5 -154.5t-186.5 -59.5h-183q-40 0 -65.5 25.5t-25.5 65.5v524v9v8q0 28 20.5 48t48.5 20h301q29 0 49 -20t20 -48t-20 -48t-49 -20h-206v-134h110zM323 140q51 0 80 15t29 59t-29.5 60t-79.5 16h-99v-150h99z" />
    <glyph glyph-name="uni0412" unicode="&#x412;" 
d="M455 391q137 -56 137 -183q0 -94 -67 -151t-191 -57h-183q-40 0 -65.5 25.5t-25.5 65.5v518q0 40 25.5 65.5t65.5 25.5h170q94 0 157 -45t63 -132q0 -96 -86 -132zM224 562v-127h97q26 0 43 19.5t17 47.5q0 30 -16.5 45t-43.5 15h-97zM334 138q52 0 75 25.5t23 59.5
q0 36 -22 61.5t-76 25.5h-110v-172h110z" />
    <glyph glyph-name="uni0413" unicode="&#x413;" horiz-adv-x="577" 
d="M473 700q29 0 49 -20t20 -48t-20 -48t-49 -20h-253v-492q0 -33 -23.5 -56t-56.5 -23t-56.5 23t-23.5 56v537q0 40 25.5 65.5t65.5 25.5h322z" />
    <glyph glyph-name="uni0414" unicode="&#x414;" horiz-adv-x="933" 
d="M763 136h50q39 0 64.5 -25.5t25.5 -65.5v-84q0 -39 -27 -65.5t-63 -26.5t-63.5 26.5t-27.5 65.5v39h-511v-39q0 -39 -27 -65.5t-63 -26.5t-63.5 26.5t-27.5 65.5v84q0 40 25.5 65.5t65.5 25.5h40q11 8 18 44t9.5 104.5t3 114.5t0.5 133v28v49q0 40 25.5 65.5t65.5 25.5
h389q39 0 65 -25.5t26 -65.5v-473zM318 136h285v428h-252v-4v-58v-62.5v-59.5t-1 -60t-2.5 -52.5t-4 -49t-6 -38t-8.5 -30t-11 -14.5z" />
    <glyph glyph-name="uni0415" unicode="&#x415;" horiz-adv-x="585" 
d="M224 143h253q30 0 51.5 -21t21.5 -50q0 -30 -21.5 -51t-51.5 -21h-326q-40 0 -65.5 25.5t-25.5 65.5v518q0 40 25.5 65.5t65.5 25.5h316q30 0 51.5 -20.5t21.5 -49.5q0 -31 -21.5 -52t-51.5 -21h-243v-137h151q30 0 51 -20.5t21 -47.5q0 -29 -21 -49t-51 -20h-151v-140z
" />
    <glyph glyph-name="uni0416" unicode="&#x416;" horiz-adv-x="1112" 
d="M1064 111q18 -20 18 -48q0 -29 -21.5 -50t-51.5 -21q-31 0 -53 24l-221 257l-97 -101v-99q0 -34 -24 -57.5t-58 -23.5t-58 23.5t-24 57.5v99l-97 101l-221 -257q-22 -24 -53 -24q-30 0 -51.5 21t-21.5 50q0 28 18 48l227 269l-199 209q-17 21 -17 46q0 30 22 51.5
t52 21.5q35 0 59 -28l282 -289v235q0 34 24 58t58 24t58 -24t24 -58v-235l282 289q24 28 59 28q30 0 52 -21.5t22 -51.5q0 -25 -17 -46l-199 -209z" />
    <glyph glyph-name="uni0417" unicode="&#x417;" horiz-adv-x="579" 
d="M276 707q95 0 164.5 -57.5t69.5 -138.5q0 -62 -43 -103t-95 -48q55 4 111 -39.5t56 -122.5q0 -88 -76 -148t-187 -60q-155 0 -227 113q-18 35 -1.5 73.5t60.5 38.5q26 0 47.5 -13.5t30.5 -31.5q35 -42 96 -42q7 0 13 0.5t22 4t27 10t20.5 21t9.5 34.5q0 67 -88 85
q-30 3 -47.5 23.5t-17.5 47.5q0 26 17.5 46t46.5 23q63 10 63 77q0 32 -22.5 50.5t-47.5 18.5q-43 0 -71 -38q-23 -52 -79 -52q-43 0 -60.5 33t-3.5 72q28 59 84.5 91t127.5 32z" />
    <glyph glyph-name="uni0418" unicode="&#x418;" horiz-adv-x="713" 
d="M145 703q34 0 58.5 -25t24.5 -59v-325l262 361q33 48 84 48q35 0 57 -21t22 -59v-546q0 -34 -25 -59t-60 -25q-34 0 -58.5 25t-24.5 59v326l-262 -362q-34 -48 -85 -48q-34 0 -56 21.5t-22 59.5v545q0 34 24.5 59t60.5 25z" />
    <glyph glyph-name="uni0419" unicode="&#x419;" horiz-adv-x="713" 
d="M482 955q33 0 52 -25t9 -59q-19 -60 -66.5 -97t-118.5 -37q-72 0 -119.5 37t-65.5 97q-10 34 8.5 59t51.5 25q40 0 55 -36q23 -38 70 -38q46 0 69 38q15 36 55 36zM145 703q34 0 58.5 -25t24.5 -59v-325l262 361q33 48 84 48q35 0 57 -21t22 -59v-546q0 -34 -25 -59
t-60 -25q-34 0 -58.5 25t-24.5 59v326l-262 -362q-34 -48 -85 -48q-34 0 -56 21.5t-22 59.5v545q0 34 24.5 59t60.5 25z" />
    <glyph glyph-name="uni041A" unicode="&#x41a;" horiz-adv-x="698" 
d="M650 111q18 -20 18 -48q0 -29 -21.5 -50t-51.5 -21q-31 0 -53 24l-221 257l-97 -101v-98q0 -34 -24 -58t-58 -24t-58 23.5t-24 57.5v553q0 34 24 58t58 24t58 -24t24 -58v-235l282 289q24 28 59 28q30 0 52 -21.5t22 -51.5q0 -25 -17 -46l-199 -209z" />
    <glyph glyph-name="uni041B" unicode="&#x41b;" horiz-adv-x="778" 
d="M627 700q40 0 65.5 -25.5t25.5 -65.5v-537q0 -33 -23.5 -56t-56.5 -23q-32 0 -55.5 23t-23.5 56v492h-261v-384q0 -109 -41.5 -147.5t-122.5 -38.5q-56 0 -87.5 19.5t-31.5 58.5q0 32 21.5 50t47.5 16q4 1 14 0t13 -1q28 0 28 46v426q0 40 25.5 65.5t65.5 25.5h397z" />
    <glyph glyph-name="uni041C" unicode="&#x41c;" horiz-adv-x="875" 
d="M739 703q30 0 53 -20.5t23 -57.5v-544q0 -34 -25.5 -59t-60.5 -25q-34 0 -58 25t-24 59v257l-139 -263q-24 -46 -71 -46t-70 46l-139 263v-257q0 -34 -24.5 -59t-58.5 -25q-35 0 -60 25t-25 59v544q0 37 23 57.5t53 20.5q24 0 46.5 -16t35.5 -38l219 -388l220 388
q13 22 35.5 38t46.5 16z" />
    <glyph glyph-name="uni041D" unicode="&#x41d;" horiz-adv-x="714" 
d="M490 620q0 34 24 58.5t58 24.5t58 -24.5t24 -58.5v-540q0 -34 -24 -58.5t-58 -24.5t-58 24.5t-24 58.5v196h-266v-196q0 -34 -23.5 -58.5t-57.5 -24.5t-58.5 24.5t-24.5 58.5v540q0 34 24.5 58.5t58.5 24.5t57.5 -24.5t23.5 -58.5v-204h266v204z" />
    <glyph glyph-name="uni041E" unicode="&#x41e;" horiz-adv-x="798" 
d="M399 707q137 0 243 -102t106 -255t-106 -255t-243 -102t-243 102t-106 255t106 255t243 102zM399 551q-74 0 -125.5 -56.5t-51.5 -144.5t51.5 -144t125.5 -56t125 56t51 144q0 89 -50.5 145t-125.5 56z" />
    <glyph glyph-name="uni041F" unicode="&#x41f;" horiz-adv-x="738" 
d="M587 700q39 0 65 -25.5t26 -65.5v-537q0 -33 -23.5 -56t-56.5 -23t-56.5 23t-23.5 56v492h-298v-492q0 -33 -23.5 -56t-56.5 -23t-56.5 23t-23.5 56v537q0 40 25.5 65.5t65.5 25.5h436z" />
    <glyph glyph-name="uni0420" unicode="&#x420;" horiz-adv-x="626" 
d="M334 700q114 0 185.5 -67.5t71.5 -164.5q0 -96 -71.5 -162.5t-185.5 -66.5h-110v-165q0 -34 -23.5 -58t-57.5 -24t-58.5 24t-24.5 58v535q0 40 25.5 65.5t65.5 25.5h183zM325 379q50 0 78.5 19t28.5 70q0 92 -107 92h-101v-181h101z" />
    <glyph glyph-name="uni0421" unicode="&#x421;" horiz-adv-x="670" 
d="M559 199q31 0 53.5 -20t22.5 -54q0 -30 -18.5 -52t-56.5 -45q-67 -35 -154 -35q-90 0 -171 44.5t-133 127.5t-52 185q0 152 108.5 254.5t244.5 102.5q90 0 158 -36q74 -45 74 -96q0 -34 -22.5 -54t-53.5 -20q-27 0 -62 21q-1 0 -9.5 5.5t-18 10t-27 9t-36.5 4.5
q-76 0 -130 -59t-54 -142q0 -84 54 -142.5t132 -58.5q18 0 35 4.5t26.5 9t18 10t9.5 5.5q35 21 62 21z" />
    <glyph glyph-name="uni0422" unicode="&#x422;" horiz-adv-x="616" 
d="M514 700q30 0 51 -21t21 -52q0 -30 -21.5 -51t-50.5 -21h-124v-477q0 -35 -24.5 -60.5t-56.5 -25.5q-34 0 -58.5 25.5t-24.5 60.5v477h-123q-30 0 -51.5 21t-21.5 51t21.5 51.5t51.5 21.5h411z" />
    <glyph glyph-name="uni0423" unicode="&#x423;" horiz-adv-x="666" 
d="M489 669q8 17 25.5 28t37.5 11q32 0 53.5 -21.5t21.5 -52.5q0 -20 -9 -36l-309 -565q-8 -17 -26 -28.5t-38 -11.5q-31 0 -53 22t-22 52q0 19 9 35l69 126l-200 370q-9 16 -9 36q0 31 21.5 52.5t52.5 21.5q20 0 38 -11t26 -28l155 -286z" />
    <glyph glyph-name="uni0424" unicode="&#x424;" horiz-adv-x="855" 
d="M815 350q0 -113 -87.5 -192.5t-221.5 -90.5q-1 -32 -24.5 -53.5t-55.5 -21.5t-55 21.5t-24 53.5q-134 11 -220.5 90.5t-86.5 192.5t86.5 192.5t220.5 90.5q1 31 24 53t55 22t55 -21.5t25 -53.5q134 -11 221.5 -90.5t87.5 -192.5zM506 203q50 5 82.5 20.5t45.5 40t17 43
t4 43.5t-4 43.5t-17 43t-45.5 40t-82.5 20.5v-294zM200 350q0 -19 1.5 -33.5t10 -35.5t23 -35.5t43.5 -26.5t69 -16v294q-40 -4 -69 -16t-43.5 -26.5t-23 -35.5t-10 -35.5t-1.5 -33.5z" />
    <glyph glyph-name="uni0425" unicode="&#x425;" horiz-adv-x="659" 
d="M596 120q18 -25 18 -56q0 -32 -21.5 -52t-55.5 -20q-43 0 -68 34l-140 201l-139 -201q-25 -34 -67 -34q-35 0 -56.5 20t-21.5 52t19 56l173 238l-158 217q-19 26 -19 56q0 31 21.5 51.5t56.5 20.5q43 0 68 -35l123 -178l125 178q23 35 67 35q35 0 56.5 -20.5t21.5 -51.5
q0 -32 -19 -56l-158 -217z" />
    <glyph glyph-name="uni0426" unicode="&#x426;" horiz-adv-x="843" 
d="M723 136q39 0 64.5 -25.5t25.5 -65.5v-61q0 -33 -22.5 -56.5t-55.5 -23.5q-34 0 -57 23.5t-23 56.5v16h-504q-40 0 -65.5 25.5t-25.5 65.5v537q0 33 23.5 56t56.5 23t56.5 -23t23.5 -56v-492h298v492q0 33 23.5 56t56.5 23t56.5 -23t23.5 -56v-492h45z" />
    <glyph glyph-name="uni0427" unicode="&#x427;" horiz-adv-x="653" 
d="M434 623q0 33 23.5 56.5t55.5 23.5q33 0 56.5 -23.5t23.5 -56.5v-551q0 -33 -23.5 -56t-56.5 -23q-32 0 -55.5 23t-23.5 56v212q-13 -28 -57.5 -53.5t-112.5 -25.5q-99 0 -159 54.5t-60 171.5v192q0 33 24 56.5t56 23.5t56 -23.5t24 -56.5v-192q0 -92 97 -92q23 0 42 5.5
t34.5 19t22.5 20.5t20 26l13 19v194z" />
    <glyph glyph-name="uni0428" unicode="&#x428;" horiz-adv-x="1136" 
d="M996 707q33 0 56.5 -23t23.5 -56v-537q0 -40 -26 -65.5t-65 -25.5h-834q-40 0 -65.5 25.5t-25.5 65.5v537q0 33 23.5 56t56.5 23t56.5 -23t23.5 -56v-492h268v492q0 33 23.5 56t56.5 23t56.5 -23t23.5 -56v-492h268v492q0 33 23.5 56t56.5 23z" />
    <glyph glyph-name="uni0429" unicode="&#x429;" horiz-adv-x="1241" 
d="M1121 136q39 0 64.5 -25.5t25.5 -65.5v-61q0 -33 -22.5 -56.5t-55.5 -23.5q-34 0 -57 23.5t-23 56.5v16h-902q-40 0 -65.5 25.5t-25.5 65.5v537q0 33 23.5 56t56.5 23t56.5 -23t23.5 -56v-492h268v492q0 33 23.5 56t56.5 23t56.5 -23t23.5 -56v-492h268v492q0 33 23.5 56
t56.5 23t56.5 -23t23.5 -56v-492h45z" />
    <glyph glyph-name="uni042A" unicode="&#x42a;" horiz-adv-x="747" 
d="M450 461q114 0 185.5 -66.5t71.5 -162.5q0 -97 -71.5 -164.5t-185.5 -67.5h-183q-40 0 -65.5 25.5t-25.5 65.5v481h-87q-28 0 -48.5 20t-20.5 49q0 28 20.5 47.5t48.5 19.5h169h1q34 0 57.5 -24t23.5 -58v-165h110zM441 140q107 0 107 92q0 51 -28.5 70t-78.5 19h-101
v-181h101z" />
    <glyph glyph-name="uni042B" unicode="&#x42b;" horiz-adv-x="961" 
d="M334 461q114 0 185.5 -66.5t71.5 -162.5q0 -97 -71.5 -164.5t-185.5 -67.5h-183q-40 0 -65.5 25.5t-25.5 65.5v535q0 34 24.5 58t58.5 24t57.5 -24t23.5 -58v-165h110zM817 703q34 0 59 -25t25 -59v-543q0 -34 -25 -59t-59 -25t-59 25t-25 59v543q0 34 25 59t59 25z
M325 140q107 0 107 92q0 51 -28.5 70t-78.5 19h-101v-181h101z" />
    <glyph glyph-name="uni042C" unicode="&#x42c;" horiz-adv-x="626" 
d="M334 461q114 0 185.5 -66.5t71.5 -162.5q0 -97 -71.5 -164.5t-185.5 -67.5h-183q-40 0 -65.5 25.5t-25.5 65.5v535q0 34 24.5 58t58.5 24t57.5 -24t23.5 -58v-165h110zM325 140q107 0 107 92q0 51 -28.5 70t-78.5 19h-101v-181h101z" />
    <glyph glyph-name="uni042D" unicode="&#x42d;" horiz-adv-x="655" 
d="M257 707q136 0 244.5 -102.5t108.5 -254.5q0 -102 -52 -185t-133 -127.5t-171 -44.5q-88 0 -154 35q-38 23 -56.5 45t-18.5 52q0 34 22.5 54t53.5 20q27 0 62 -21q1 0 9.5 -5.5t18 -10t26.5 -9t35 -4.5q61 0 108.5 37t66.5 96h-128q-29 0 -49.5 20t-20.5 49q0 28 20.5 48
t49.5 20h128q-20 59 -67 95.5t-106 36.5q-19 0 -36.5 -4.5t-27 -9t-18 -10t-9.5 -5.5q-35 -21 -62 -21q-31 0 -53.5 20t-22.5 54q0 51 74 96q68 36 158 36z" />
    <glyph glyph-name="uni042E" unicode="&#x42e;" horiz-adv-x="1055" 
d="M656 707q137 0 243 -102t106 -255t-106 -255t-243 -102q-120 0 -219.5 81t-123.5 208h-85v-206q0 -34 -25 -59t-59 -25t-59 25t-25 59v543q0 34 25 59t59 25t59 -25t25 -59v-200h85q24 127 123.5 207.5t219.5 80.5zM656 150q74 0 125 56t51 144q0 89 -50.5 145t-125.5 56
q-74 0 -125.5 -56.5t-51.5 -144.5t51.5 -144t125.5 -56z" />
    <glyph glyph-name="uni042F" unicode="&#x42f;" horiz-adv-x="640" 
d="M489 700q40 0 65.5 -25.5t25.5 -65.5v-535q0 -34 -24.5 -58t-58.5 -24t-57.5 24t-23.5 58v165h-75l-166 -212q-22 -30 -60 -30q-32 0 -53.5 22.5t-21.5 54.5q0 22 20 50l119 142q-61 29 -95.5 83t-34.5 119q0 97 71.5 164.5t185.5 67.5h183zM315 379h101v181h-101
q-107 0 -107 -92q0 -51 28.5 -70t78.5 -19z" />
    <glyph glyph-name="uni0430" unicode="&#x430;" 
d="M490 523q32 0 57 -23.5t25 -55.5v-371q0 -33 -24.5 -56t-57.5 -23q-28 0 -50 17.5t-28 44.5q-14 -24 -48.5 -43.5t-83.5 -19.5q-93 0 -166.5 70t-73.5 197q0 124 74.5 195t165.5 71q48 0 83.5 -22t46.5 -51v-9q0 32 24 55.5t56 23.5zM310 129q41 0 74 31.5t33 99.5
q0 66 -33.5 98t-73.5 32q-46 0 -78 -34.5t-32 -95.5t32 -96t78 -35z" />
    <glyph glyph-name="uni0431" unicode="&#x431;" horiz-adv-x="631" 
d="M351 526q91 0 165.5 -71t74.5 -195q0 -127 -73.5 -197t-166.5 -70q-49 0 -83.5 19.5t-48.5 43.5q-6 -27 -28 -44.5t-50 -17.5q-33 0 -57.5 23t-24.5 56v371q0 11 3 20v56q0 92 52.5 136t158.5 44h13q85 0 107 11q33 18 49 18q27 0 43 -18.5t16 -44.5q0 -16 -7.5 -35
t-18.5 -29q-39 -37 -139 -37h-63q-28 0 -40 -14.5t-12 -30.5v-67q11 29 46.5 51t83.5 22zM221 450v-6v6zM321 129q46 0 78 35t32 96t-32 95.5t-78 34.5q-40 0 -73.5 -32t-33.5 -98q0 -68 33 -99.5t74 -31.5z" />
    <glyph glyph-name="uni0432" unicode="&#x432;" horiz-adv-x="602" 
d="M461 289q106 -45 106 -133q0 -80 -67 -118t-171 -38h-178q-40 0 -65.5 25.5t-25.5 65.5v338q0 40 25.5 65.5t65.5 25.5h178q86 0 141.5 -36t55.5 -102q0 -69 -65 -93zM220 393v-57h106q12 0 20.5 3t12 6t5.5 9.5t2 7v4.5q0 22 -26 26q-6 1 -14 1h-106zM329 127q27 0 44 5
t23.5 14t8 14.5t1.5 12.5q0 30 -38 39q-17 4 -39 4h-109v-89h109z" />
    <glyph glyph-name="uni0433" unicode="&#x433;" horiz-adv-x="521" 
d="M423 520q28 0 48 -20t20 -48t-20 -48t-48 -20h-203v-312q0 -33 -23.5 -56t-56.5 -23t-56.5 23t-23.5 56v357q0 40 25.5 65.5t65.5 25.5h272z" />
    <glyph glyph-name="uni0434" unicode="&#x434;" horiz-adv-x="747" 
d="M637 136q37 -2 61 -27.5t24 -63.5v-67q0 -33 -24 -56.5t-56 -23.5t-56 23.5t-24 56.5v22h-377v-22q0 -33 -24 -56.5t-56 -23.5t-56 23.5t-24 56.5v67q0 38 24 63.5t62 27.5q26 87 26 193v100q0 40 25.5 65.5t64.5 25.5h319q39 0 65 -25.5t26 -65.5v-293zM296 384v-55
q0 -116 -24 -193h205v248h-181z" />
    <glyph glyph-name="uni0435" unicode="&#x435;" horiz-adv-x="599" 
d="M307 526q93 0 172.5 -67.5t79.5 -173.5q0 -46 -24 -65t-74 -19l-255 3q22 -81 120 -81q19 0 63 11q48 16 58 16q24 0 38.5 -15t14.5 -38q0 -36 -38 -65q-60 -37 -143 -37q-53 0 -101.5 16t-89 47t-64.5 82.5t-24 117.5q0 65 25.5 118t65.5 84.5t86 48.5t90 17zM307 388
q-39 0 -67 -19t-34 -59h196q-14 78 -95 78z" />
    <glyph glyph-name="uni0436" unicode="&#x436;" horiz-adv-x="853" 
d="M808 119q20 -19 20 -52q0 -31 -21.5 -52.5t-51.5 -21.5q-33 0 -54 24l-147 156l-47 -48v-52q0 -33 -24 -56.5t-56 -23.5h-1q-32 0 -56 23.5t-24 56.5v52l-47 48l-147 -156q-21 -24 -54 -24q-30 0 -51.5 21.5t-21.5 52.5q0 33 20 52l152 158l-119 121q-22 22 -22 51
q0 30 22 52t53 22q32 0 52 -23l163 -165v108q0 33 24 56.5t56 23.5h1q32 0 56 -23.5t24 -56.5v-108l163 165q20 23 52 23q31 0 53 -22t22 -52q0 -29 -22 -51l-119 -121z" />
    <glyph glyph-name="uni0437" unicode="&#x437;" horiz-adv-x="549" 
d="M265 525q84 0 148 -40t64 -102q0 -26 -10.5 -47t-27 -33t-26.5 -17t-19 -8q1 0 7.5 -2t12.5 -4.5t16 -6.5t18 -9.5t17.5 -12.5t17 -16t13.5 -20t9.5 -25t3.5 -30q0 -73 -70.5 -116t-167.5 -43q-140 0 -220 104q-21 35 -5.5 72.5t59.5 37.5t63 -29q42 -52 106 -52
q30 0 53.5 9.5t22.5 34.5q-4 36 -67 40q-31 2 -49 17.5t-18 42.5q0 25 17.5 41.5t45.5 18.5q19 2 28 9t10 11t1 12q0 30 -60 30q-50 0 -87 -43q-16 -21 -53 -21q-46 0 -61 39t9 74q31 40 85 62t114 22z" />
    <glyph glyph-name="uni0438" unicode="&#x438;" horiz-adv-x="656" 
d="M402 477q31 43 77.5 49t81.5 -24.5t35 -83.5v-348q0 -33 -23.5 -55.5t-56.5 -22.5t-56.5 22.5t-23.5 55.5v216l-182 -243q-31 -43 -77.5 -49t-81.5 24.5t-35 83.5v347q0 33 23.5 56t56.5 23t56.5 -23t23.5 -56v-215z" />
    <glyph glyph-name="uni0439" unicode="&#x439;" horiz-adv-x="656" 
d="M452 775q33 0 52 -25t9 -59q-19 -60 -66.5 -97t-118.5 -37q-72 0 -119.5 37t-65.5 97q-10 34 8.5 59t51.5 25q40 0 55 -36q23 -38 70 -38q46 0 69 38q15 36 55 36zM402 477q31 43 77.5 49t81.5 -24.5t35 -83.5v-348q0 -33 -23.5 -55.5t-56.5 -22.5t-56.5 22.5t-23.5 55.5
v216l-182 -243q-31 -43 -77.5 -49t-81.5 24.5t-35 83.5v347q0 33 23.5 56t56.5 23t56.5 -23t23.5 -56v-215z" />
    <glyph glyph-name="uni043A" unicode="&#x43a;" horiz-adv-x="566" 
d="M521 119q20 -19 20 -52q0 -31 -21.5 -52.5t-51.5 -21.5q-33 0 -54 24l-147 156l-47 -48v-52q0 -33 -24 -56.5t-56 -23.5q-33 0 -56.5 23t-23.5 56v371q0 33 24 56.5t56 23.5t56 -23.5t24 -56.5v-108l163 165q20 23 52 23q31 0 53 -22t22 -52q0 -29 -22 -51l-119 -121z
" />
    <glyph glyph-name="uni043B" unicode="&#x43b;" horiz-adv-x="712" 
d="M561 520q39 0 64.5 -25.5t25.5 -65.5v-356q0 -33 -23.5 -56t-55.5 -23q-33 0 -56.5 23t-23.5 56v311h-208v-200q0 -58 -13 -97.5t-37 -58.5t-49.5 -26.5t-59.5 -7.5q-110 0 -110 71q0 31 20.5 48t50.5 14q-1 1 3 2l1 1q34 0 34 53v246q0 40 25.5 65.5t65.5 25.5h346z" />
    <glyph glyph-name="uni043C" unicode="&#x43c;" horiz-adv-x="870" 
d="M561 450q32 59 92.5 72.5t108.5 -22.5t48 -103v-325q0 -33 -23.5 -56t-56.5 -23t-56.5 23t-23.5 56v213l-138 -250q-22 -41 -77 -41t-77 41l-138 250v-213q0 -33 -23.5 -56t-56.5 -23t-56.5 23t-23.5 56v325q0 67 48 103t108.5 22.5t92.5 -72.5l126 -225z" />
    <glyph glyph-name="uni043D" unicode="&#x43d;" horiz-adv-x="613" 
d="M393 443q0 33 24 56.5t56 23.5t56 -23.5t24 -56.5v-371q0 -33 -23.5 -56t-56.5 -23t-56.5 23t-23.5 56v120h-173v-120q0 -33 -23.5 -56t-56.5 -23t-56.5 23t-23.5 56v371q0 33 24 56.5t56 23.5t56 -23.5t24 -56.5v-114h173v114z" />
    <glyph glyph-name="uni043E" unicode="&#x43e;" horiz-adv-x="621" 
d="M311 526q44 0 90.5 -17.5t87 -49.5t66.5 -84.5t26 -116.5t-26 -116.5t-66.5 -83.5t-87 -48t-90.5 -17q-45 0 -91 17t-87 48t-67 83.5t-26 116.5t26 116.5t66.5 84.5t87 49.5t91.5 17.5zM311 388q-48 0 -80.5 -36t-32.5 -94q0 -56 32.5 -91.5t80.5 -35.5q47 0 80 36t33 91
q0 57 -32.5 93.5t-80.5 36.5z" />
    <glyph glyph-name="uni043F" unicode="&#x43f;" horiz-adv-x="648" 
d="M497 520q39 0 65 -25.5t26 -65.5v-357q0 -33 -23.5 -56t-56.5 -23t-56.5 23t-23.5 56v312h-208v-312q0 -33 -23.5 -56t-56.5 -23t-56.5 23t-23.5 56v357q0 40 25.5 65.5t65.5 25.5h346z" />
    <glyph glyph-name="uni0440" unicode="&#x440;" 
d="M352 526q91 0 165.5 -71t74.5 -195q0 -127 -73.5 -197t-166.5 -70q-48 0 -82.5 19t-48.5 43v-174q0 -33 -24 -56t-57 -23t-56.5 23t-23.5 56v563q0 32 25 55.5t57 23.5t56 -23.5t24 -55.5v9q11 29 46.5 51t83.5 22zM322 129q46 0 78 35t32 96t-32 95.5t-78 34.5
q-40 0 -73.5 -32t-33.5 -98q0 -68 33 -99.5t74 -31.5z" />
    <glyph glyph-name="uni0441" unicode="&#x441;" horiz-adv-x="541" 
d="M438 171q25 0 44 -16.5t19 -43.5q0 -10 -2.5 -19t-5.5 -15t-9.5 -13.5t-10 -10.5t-11 -9.5t-8.5 -7.5q-62 -41 -143 -41q-48 0 -94.5 16.5t-86.5 48t-65 84t-25 116.5q0 65 25 117t65 84t86.5 48.5t94.5 16.5q81 0 143 -41q1 -1 8.5 -7.5t11 -9.5t10 -10.5t9.5 -13.5
t5.5 -15t2.5 -19q0 -27 -19 -43.5t-44 -16.5t-60 22q-25 16 -62 16q-55 0 -86.5 -34.5t-31.5 -93.5q0 -58 32 -92.5t86 -34.5q37 0 62 16q35 22 60 22z" />
    <glyph glyph-name="uni0442" unicode="&#x442;" horiz-adv-x="502" 
d="M404 520q28 0 48 -20t20 -48t-20 -48t-48 -20h-73v-312q0 -33 -23.5 -56t-55.5 -23q-33 0 -56.5 23t-23.5 56v312h-73q-28 0 -48.5 20t-20.5 48t20.5 48t48.5 20h305z" />
    <glyph glyph-name="uni0443" unicode="&#x443;" horiz-adv-x="597" 
d="M493 523q32 0 53 -21t21 -50q0 -18 -10 -38l-251 -552q-25 -57 -76 -57q-31 0 -51 21t-20 50q0 16 9 38l51 113l-180 387q-9 23 -9 38q0 29 21 50t52 21q51 0 76 -57l117 -268l121 268q25 57 76 57z" />
    <glyph glyph-name="uni0444" unicode="&#x444;" horiz-adv-x="982" 
d="M702 526q91 0 165.5 -71t74.5 -195q0 -127 -73.5 -197t-166.5 -70q-48 0 -82.5 19t-48.5 43v-174q0 -33 -24 -56t-57 -23t-56.5 23t-23.5 56v186q-11 -29 -46.5 -51t-83.5 -22q-91 0 -165.5 71t-74.5 195q0 127 73.5 197t166.5 70q48 0 82.5 -19t48.5 -43v174q0 33 24 56
t57 23t56.5 -23t23.5 -56v-186q11 29 46.5 51t83.5 22zM310 130q31 0 59.5 19t40.5 60v103q-12 41 -40.5 60t-59.5 19q-46 0 -78 -35t-32 -96t32 -95.5t78 -34.5zM672 129q46 0 78 35t32 96t-32 95.5t-78 34.5q-31 0 -59.5 -19t-40.5 -60v-103q12 -41 40.5 -60t59.5 -19z
" />
    <glyph glyph-name="uni0445" unicode="&#x445;" horiz-adv-x="548" 
d="M496 108q17 -17 17 -43q0 -28 -22 -49t-51 -21q-30 0 -56 29l-110 129l-110 -129q-26 -29 -56 -29q-28 0 -50.5 21t-22.5 49q0 24 17 43l133 151l-133 151q-16 19 -16 42q0 29 22.5 50t50.5 21q35 0 56 -29l109 -129l109 129q24 29 57 29q28 0 50 -21t22 -50
q0 -23 -16 -42l-133 -151z" />
    <glyph glyph-name="uni0446" unicode="&#x446;" horiz-adv-x="736" 
d="M615 136q39 0 65 -25.5t26 -65.5v-61q0 -33 -23 -56.5t-56 -23.5q-34 0 -57 23.5t-23 56.5v16h-396q-40 0 -65.5 25.5t-25.5 65.5v357q0 33 23.5 56t56.5 23t56.5 -23t23.5 -56v-312h208v312q0 33 23.5 56t56.5 23t56.5 -23t23.5 -56v-312h27z" />
    <glyph glyph-name="uni0447" unicode="&#x447;" horiz-adv-x="631" 
d="M411 443q0 33 24 56.5t56 23.5t56 -23.5t24 -56.5v-371q0 -33 -23.5 -56t-56.5 -23t-56.5 23t-23.5 56v142q-1 -9 -7 -21.5t-19.5 -29.5t-43 -28.5t-69.5 -11.5q-97 0 -162 65t-65 173v82q0 33 24 56.5t56 23.5t56 -23.5t24 -56.5v-83q0 -38 20 -67.5t72 -29.5
q49 0 82 30.5t32 82.5v67z" />
    <glyph glyph-name="uni0448" unicode="&#x448;" horiz-adv-x="868" 
d="M648 449q0 33 23.5 56t56.5 23q32 0 55.5 -23t23.5 -56v-358q0 -40 -25.5 -65.5t-64.5 -25.5h-566q-40 0 -65.5 25.5t-25.5 65.5v358q0 33 23.5 56t56.5 23t56.5 -23t23.5 -56v-313h134v313q0 33 23.5 56t56.5 23t56.5 -23t23.5 -56v-313h134v313z" />
    <glyph glyph-name="uni0449" unicode="&#x449;" horiz-adv-x="956" 
d="M835 136q39 0 65 -25.5t26 -65.5v-61q0 -33 -23 -56.5t-56 -23.5q-34 0 -57 23.5t-23 56.5v16h-616q-40 0 -65.5 25.5t-25.5 65.5v358q0 33 23.5 56t56.5 23t56.5 -23t23.5 -56v-313h134v313q0 33 23.5 56t56.5 23t56.5 -23t23.5 -56v-313h134v313q0 33 23.5 56t56.5 23
q32 0 55.5 -23t23.5 -56v-313h28z" />
    <glyph glyph-name="uni044A" unicode="&#x44a;" horiz-adv-x="714" 
d="M471 341q91 0 149 -43t58 -123t-59 -127.5t-148 -47.5h-228q-40 0 -65.5 25.5t-25.5 65.5v296h-48q-28 0 -48.5 20t-20.5 48t20.5 48t48.5 20h125h3q32 0 56 -23.5t24 -56.5v-102h159zM469 136q50 0 50 39q0 29 -50 29h-157v-68h157z" />
    <glyph glyph-name="uni044B" unicode="&#x44b;" horiz-adv-x="864" 
d="M379 341q91 0 149 -43t58 -123t-59 -127.5t-148 -47.5h-228q-40 0 -65.5 25.5t-25.5 65.5v352q0 33 24 56.5t56 23.5t56 -23.5t24 -56.5v-102h159zM725 523q32 0 55.5 -23.5t23.5 -56.5v-371q0 -33 -23.5 -56t-55.5 -23q-33 0 -56.5 23t-23.5 56v371q0 33 23.5 56.5
t56.5 23.5zM377 136q50 0 50 39q0 29 -50 29h-157v-68h157z" />
    <glyph glyph-name="uni044C" unicode="&#x44c;" horiz-adv-x="621" 
d="M379 341q91 0 149 -43t58 -123t-59 -127.5t-148 -47.5h-228q-40 0 -65.5 25.5t-25.5 65.5v352q0 33 24 56.5t56 23.5t56 -23.5t24 -56.5v-102h159zM377 136q50 0 50 39q0 29 -50 29h-157v-68h157z" />
    <glyph glyph-name="uni044D" unicode="&#x44d;" horiz-adv-x="541" 
d="M230 526q48 0 94.5 -16.5t86.5 -48.5t65 -84t25 -117q0 -64 -25 -116.5t-65 -84t-86.5 -48t-94.5 -16.5q-81 0 -143 41q-1 1 -8.5 7.5t-11 9.5t-10 10.5t-9.5 13.5t-5.5 15t-2.5 19q0 27 19 43.5t44 16.5t60 -22q25 -16 62 -16q74 0 104 60h-88q-29 0 -48 18t-19 44
t19 44t48 18h92q-27 71 -108 71q-37 0 -62 -16q-35 -22 -60 -22t-44 16.5t-19 43.5q0 10 2.5 19t5.5 15t9.5 13.5t10 10.5t11 9.5t8.5 7.5q62 41 143 41z" />
    <glyph glyph-name="uni044E" unicode="&#x44e;" horiz-adv-x="886" 
d="M558 526q44 0 90.5 -17.5t87 -49.5t66.5 -84.5t26 -116.5t-26 -116.5t-66.5 -83.5t-87 -48t-90.5 -17q-81 0 -158 50t-103 139h-77v-110q0 -33 -23.5 -56t-56.5 -23t-56.5 23t-23.5 56v371q0 33 24 56.5t56 23.5t56 -23.5t24 -56.5v-115h76q24 93 102 145.5t160 52.5z
M558 131q47 0 80 36t33 91q0 57 -32.5 93.5t-80.5 36.5t-80.5 -36t-32.5 -94q0 -56 32.5 -91.5t80.5 -35.5z" />
    <glyph glyph-name="uni044F" unicode="&#x44f;" horiz-adv-x="630" 
d="M479 520q40 0 65.5 -25.5t25.5 -65.5v-352q0 -33 -24 -56.5t-56 -23.5t-56 23.5t-24 56.5v102h-77l-161 -163q-21 -23 -50 -23t-50 20.5t-21 49.5q0 30 21 48l92 80q-56 17 -88 56t-32 98q0 80 59 127.5t148 47.5h228zM410 316v68h-157q-50 0 -50 -39q0 -29 50 -29h157z
" />
    <glyph glyph-name="uni0451" unicode="&#x451;" horiz-adv-x="599" 
d="M184 552q-34 0 -59 25t-25 59t24.5 58t59.5 24t59.5 -24t24.5 -58t-25 -59t-59 -25zM450 552q-34 0 -59 25t-25 59t24.5 58t59.5 24t59.5 -24t24.5 -58t-25 -59t-59 -25zM307 526q93 0 172.5 -67.5t79.5 -173.5q0 -46 -24 -65t-74 -19l-255 3q22 -81 120 -81q19 0 63 11
q48 16 58 16q24 0 38.5 -15t14.5 -38q0 -36 -38 -65q-60 -37 -143 -37q-53 0 -101.5 16t-89 47t-64.5 82.5t-24 117.5q0 65 25.5 118t65.5 84.5t86 48.5t90 17zM307 388q-39 0 -67 -19t-34 -59h196q-14 78 -95 78z" />
    <glyph glyph-name="uni0454" unicode="&#x454;" horiz-adv-x="541" 
d="M438 171q25 0 44 -16.5t19 -43.5q0 -10 -2.5 -19t-5.5 -15t-9.5 -13.5t-10 -10.5t-11 -9.5t-8.5 -7.5q-62 -41 -143 -41q-48 0 -94.5 16.5t-86.5 48t-65 84t-25 116.5q0 65 25 117t65 84t86.5 48.5t94.5 16.5q81 0 143 -41q1 -1 8.5 -7.5t11 -9.5t10 -10.5t9.5 -13.5
t5.5 -15t2.5 -19q0 -27 -19 -43.5t-44 -16.5t-60 22q-25 16 -62 16q-81 0 -108 -71h92q29 0 48 -18t19 -44t-19 -44t-48 -18h-88q30 -60 104 -60q37 0 62 16q35 22 60 22z" />
    <glyph glyph-name="uni0457" unicode="&#x457;" horiz-adv-x="310" 
d="M22 552q-34 0 -59 25t-25 59t24.5 58t59.5 24t59.5 -24t24.5 -58t-25 -59t-59 -25zM288 552q-34 0 -59 25t-25 59t24.5 58t59.5 24t59.5 -24t24.5 -58t-25 -59t-59 -25zM155 523q32 0 56 -23.5t24 -56.5v-371q0 -33 -23.5 -56t-56.5 -23t-56.5 23t-23.5 56v371
q0 33 24 56.5t56 23.5z" />
    <glyph glyph-name="uni0490" unicode="&#x490;" horiz-adv-x="577" 
d="M542 685v-50v-3q0 -28 -20 -48t-49 -20h-253v-492q0 -33 -23.5 -56t-56.5 -23t-56.5 23t-23.5 56v537q0 40 25.5 65.5t65.5 25.5h226q6 29 29 48t52 19q35 0 59.5 -24t24.5 -58z" />
    <glyph glyph-name="uni0491" unicode="&#x491;" horiz-adv-x="521" 
d="M407 601q35 0 59.5 -23.5t24.5 -57.5v-72q-1 -27 -21 -45.5t-47 -18.5h-203v-312q0 -33 -23.5 -56t-56.5 -23t-56.5 23t-23.5 56v357q0 40 25.5 65.5t65.5 25.5h175q0 34 24 57.5t57 23.5z" />
    <glyph glyph-name="Wgrave" unicode="&#x1e80;" horiz-adv-x="1021" 
d="M482 955q27 0 48 -15.5t30 -40.5l19 -81q13 -32 -5 -54.5t-49 -22.5q-27 0 -44 22l-62 58q-19 22 -19 53q0 34 24 57.5t58 23.5zM906 703q33 0 56.5 -22t23.5 -52q0 -9 -11 -48l-160 -526q-19 -61 -87 -61q-64 0 -86 61l-131 360l-132 -360q-22 -61 -86 -61q-68 0 -87 61
l-160 526q-11 31 -11 48q0 30 23.5 52t56.5 22q27 0 49.5 -14.5t29.5 -38.5l105 -397l138 397q20 53 73 53q54 0 74 -53l138 -397l105 397q7 24 29.5 38.5t49.5 14.5z" />
    <glyph glyph-name="wgrave" unicode="&#x1e81;" horiz-adv-x="857" 
d="M399 775q27 0 48 -15.5t30 -40.5l19 -81q13 -32 -5 -54.5t-49 -22.5q-27 0 -44 22l-62 58q-19 22 -19 53q0 34 24 57.5t58 23.5zM752 523q32 0 53.5 -21.5t21.5 -53.5q0 -1 -11 -37l-126 -352q-20 -61 -76 -61q-54 0 -80 61l-106 238l-106 -238q-26 -61 -80 -61
q-56 0 -76 61l-125 352q-11 29 -11 37q0 32 22 53.5t53 21.5q22 0 41 -11.5t26 -30.5l81 -257l104 251q20 48 71 48q52 0 72 -48l103 -251l82 257q6 18 25.5 30t41.5 12z" />
    <glyph glyph-name="Wacute" unicode="&#x1e82;" horiz-adv-x="1021" 
d="M534 955q34 0 58 -23.5t24 -57.5q0 -31 -19 -53l-62 -58q-17 -22 -44 -22q-31 0 -49 22.5t-5 54.5l19 81q9 25 30 40.5t48 15.5zM906 703q33 0 56.5 -22t23.5 -52q0 -9 -11 -48l-160 -526q-19 -61 -87 -61q-64 0 -86 61l-131 360l-132 -360q-22 -61 -86 -61q-68 0 -87 61
l-160 526q-11 31 -11 48q0 30 23.5 52t56.5 22q27 0 49.5 -14.5t29.5 -38.5l105 -397l138 397q20 53 73 53q54 0 74 -53l138 -397l105 397q7 24 29.5 38.5t49.5 14.5z" />
    <glyph glyph-name="wacute" unicode="&#x1e83;" horiz-adv-x="857" 
d="M451 775q34 0 58 -23.5t24 -57.5q0 -31 -19 -53l-62 -58q-17 -22 -44 -22q-31 0 -49 22.5t-5 54.5l19 81q9 25 30 40.5t48 15.5zM752 523q32 0 53.5 -21.5t21.5 -53.5q0 -1 -11 -37l-126 -352q-20 -61 -76 -61q-54 0 -80 61l-106 238l-106 -238q-26 -61 -80 -61
q-56 0 -76 61l-125 352q-11 29 -11 37q0 32 22 53.5t53 21.5q22 0 41 -11.5t26 -30.5l81 -257l104 251q20 48 71 48q52 0 72 -48l103 -251l82 257q6 18 25.5 30t41.5 12z" />
    <glyph glyph-name="Wdieresis" unicode="&#x1e84;" horiz-adv-x="1021" 
d="M378 732q-34 0 -59 25t-25 59t24.5 58t59.5 24t59.5 -24t24.5 -58t-25 -59t-59 -25zM644 732q-34 0 -59 25t-25 59t24.5 58t59.5 24t59.5 -24t24.5 -58t-25 -59t-59 -25zM906 703q33 0 56.5 -22t23.5 -52q0 -9 -11 -48l-160 -526q-19 -61 -87 -61q-64 0 -86 61l-131 360
l-132 -360q-22 -61 -86 -61q-68 0 -87 61l-160 526q-11 31 -11 48q0 30 23.5 52t56.5 22q27 0 49.5 -14.5t29.5 -38.5l105 -397l138 397q20 53 73 53q54 0 74 -53l138 -397l105 397q7 24 29.5 38.5t49.5 14.5z" />
    <glyph glyph-name="wdieresis" unicode="&#x1e85;" horiz-adv-x="857" 
d="M295 552q-35 0 -59.5 25t-24.5 59t24.5 58t59.5 24t59.5 -24t24.5 -58t-24.5 -59t-59.5 -25zM561 552q-35 0 -59.5 25t-24.5 59t24.5 58t59.5 24t59.5 -24t24.5 -58t-24.5 -59t-59.5 -25zM752 523q32 0 53.5 -21.5t21.5 -53.5q0 -1 -11 -37l-126 -352q-20 -61 -76 -61
q-54 0 -80 61l-106 238l-106 -238q-26 -61 -80 -61q-56 0 -76 61l-125 352q-11 29 -11 37q0 32 22 53.5t53 21.5q22 0 41 -11.5t26 -30.5l81 -257l104 251q20 48 71 48q52 0 72 -48l103 -251l82 257q6 18 25.5 30t41.5 12z" />
    <glyph glyph-name="Ygrave" unicode="&#x1ef2;" horiz-adv-x="650" 
d="M296 955q27 0 48 -15.5t30 -40.5l19 -81q13 -32 -5 -54.5t-49 -22.5q-27 0 -44 22l-62 58q-19 22 -19 53q0 34 24 57.5t58 23.5zM535 704q31 0 53.5 -22t22.5 -53q0 -23 -12 -41l-193 -283v-235q0 -32 -24.5 -55t-56.5 -23q-33 0 -57 22.5t-24 55.5v235l-193 283
q-12 18 -12 41q0 31 22 53t53 22q36 0 60 -30l151 -230l151 230q22 30 59 30z" />
    <glyph glyph-name="ygrave" unicode="&#x1ef3;" horiz-adv-x="597" 
d="M261 583l-62 58q-19 22 -19 53q0 34 24 57.5t58 23.5q27 0 48 -15.5t30 -40.5l19 -81q13 -32 -5 -54.5t-49 -22.5q-27 0 -44 22zM493 523q32 0 53 -21t21 -50q0 -18 -10 -38l-251 -552q-25 -57 -76 -57q-31 0 -51 21t-20 50q0 16 9 38l51 113l-180 387q-9 23 -9 38
q0 29 21 50t52 21q51 0 76 -57l117 -268l121 268q25 57 76 57z" />
    <glyph glyph-name="endash" unicode="&#x2013;" horiz-adv-x="618" 
d="M507 339q26 0 46 -19.5t20 -46.5t-19.5 -46.5t-46.5 -19.5h-396q-27 0 -46.5 19.5t-19.5 46.5t20 46.5t46 19.5h396z" />
    <glyph glyph-name="emdash" unicode="&#x2014;" horiz-adv-x="678" 
d="M567 339q26 0 46 -19.5t20 -46.5t-19.5 -46.5t-46.5 -19.5h-456q-27 0 -46.5 19.5t-19.5 46.5t20 46.5t46 19.5h456z" />
    <glyph glyph-name="quoteleft" unicode="&#x2018;" horiz-adv-x="287" 
d="M216 700q28 0 37 -18.5t-2 -46.5l-46 -147q-23 -65 -84 -65h-41q-40 0 -47.5 21t14.5 63l79 146q26 47 84 47h6z" />
    <glyph glyph-name="quoteright" unicode="&#x2019;" horiz-adv-x="287" 
d="M71 423q-28 0 -37 18.5t2 46.5l46 147q23 65 84 65h41q77 0 33 -84l-79 -146q-26 -47 -84 -47h-6z" />
    <glyph glyph-name="quotesinglbase" unicode="&#x201a;" horiz-adv-x="292" 
d="M71 -100q-28 0 -37 18.5t2 46.5l46 147q23 65 84 65h41q77 0 33 -84l-79 -146q-26 -47 -84 -47h-6z" />
    <glyph glyph-name="quotedblleft" unicode="&#x201c;" horiz-adv-x="503" 
d="M216 700q28 0 37 -18.5t-2 -46.5l-46 -147q-23 -65 -84 -65h-41q-40 0 -47.5 21t14.5 63l79 146q26 47 84 47h6zM432 700q28 0 37 -18.5t-2 -46.5l-46 -147q-23 -65 -84 -65h-41q-40 0 -47.5 21t14.5 63l79 146q26 47 84 47h6z" />
    <glyph glyph-name="quotedblright" unicode="&#x201d;" horiz-adv-x="503" 
d="M71 423q-28 0 -37 18.5t2 46.5l46 147q23 65 84 65h41q77 0 33 -84l-79 -146q-26 -47 -84 -47h-6zM287 423q-28 0 -37 18.5t2 46.5l46 147q23 65 84 65h41q77 0 33 -84l-79 -146q-26 -47 -84 -47h-6z" />
    <glyph glyph-name="quotedblbase" unicode="&#x201e;" horiz-adv-x="508" 
d="M71 -100q-28 0 -37 18.5t2 46.5l46 147q23 65 84 65h41q77 0 33 -84l-79 -146q-26 -47 -84 -47h-6zM287 -100q-28 0 -37 18.5t2 46.5l46 147q23 65 84 65h41q77 0 33 -84l-79 -146q-26 -47 -84 -47h-6z" />
    <glyph glyph-name="dagger" unicode="&#x2020;" horiz-adv-x="399" 
d="M354 567v-102h-108l-31 -189h-31l-30 189h-109v102h92l-21 133h168l-22 -133h92z" />
    <glyph glyph-name="daggerdbl" unicode="&#x2021;" horiz-adv-x="389" 
d="M254 569h95v-106h-114l-17 -89h-46l-17 89h-115v106h96l-25 131h168zM218 326l17 -89h114v-106h-95l25 -131h-168l25 131h-96v106h115l17 89h46z" />
    <glyph glyph-name="bullet" unicode="&#x2022;" horiz-adv-x="260" 
d="M130 211q-34 0 -57 23t-23 57t23 57.5t57 23.5t57 -23.5t23 -57.5t-23 -57t-57 -23z" />
    <glyph glyph-name="ellipsis" unicode="&#x2026;" horiz-adv-x="755" 
d="M131 -5q-38 0 -64.5 26.5t-26.5 64.5q0 37 27 63.5t64 26.5t63.5 -26.5t26.5 -63.5q0 -38 -26.5 -64.5t-63.5 -26.5zM378 -5q-38 0 -64.5 26.5t-26.5 64.5q0 37 27 63.5t64 26.5t63.5 -26.5t26.5 -63.5q0 -38 -26.5 -64.5t-63.5 -26.5zM625 -5q-38 0 -64.5 26.5
t-26.5 64.5q0 37 27 63.5t64 26.5t63.5 -26.5t26.5 -63.5q0 -38 -26.5 -64.5t-63.5 -26.5z" />
    <glyph glyph-name="perthousand" unicode="&#x2030;" horiz-adv-x="1028" 
d="M168 705q52 0 88 -35.5t36 -87.5q0 -51 -36 -87t-88 -36q-51 0 -87 36t-36 87q0 52 35.5 87.5t87.5 35.5zM457 649q23 34 63 34q31 0 52.5 -22t21.5 -52q0 -25 -13 -43l-344 -513q-24 -33 -62 -33q-31 0 -52.5 21.5t-21.5 52.5q0 25 11 42zM168 597q-19 0 -19 -15
q0 -7 5.5 -12t13.5 -5q4 0 8.5 5t4.5 12t-4.5 11t-8.5 4zM529 241q52 0 88 -35.5t36 -87.5q0 -51 -36 -87t-88 -36q-51 0 -87 36t-36 87q0 52 35.5 87.5t87.5 35.5zM859 241q52 0 88 -35.5t36 -87.5q0 -51 -36 -87t-88 -36q-51 0 -87 36t-36 87q0 52 35.5 87.5t87.5 35.5z
M529 133q-19 0 -19 -15q0 -7 5.5 -12t13.5 -5q4 0 8.5 5t4.5 12t-4.5 11t-8.5 4zM859 133q-19 0 -19 -15q0 -7 5.5 -12t13.5 -5q4 0 8.5 5t4.5 12t-4.5 11t-8.5 4z" />
    <glyph glyph-name="guilsinglleft" unicode="&#x2039;" horiz-adv-x="284" 
d="M40 290q0 13 1.5 21.5t9.5 18.5t11.5 13.5l19.5 19.5l87 83q24 21 49.5 11t25.5 -40q0 -20 -35 -56l-64 -73l64 -72q35 -36 35 -56q0 -30 -25.5 -40t-49.5 11l-87 83q-32 31 -38 44q-4 12 -4 28v4z" />
    <glyph glyph-name="guilsinglright" unicode="&#x203a;" horiz-adv-x="284" 
d="M244 290v-4q0 -16 -5.5 -28.5t-11 -18.5t-25.5 -25l-87 -83q-24 -21 -49.5 -11t-25.5 40q0 20 35 56l64 72l-64 73q-35 36 -35 56q0 30 25.5 40t49.5 -11l87 -83q32 -31 37 -44t5 -29z" />
    <glyph glyph-name="fraction" unicode="&#x2044;" horiz-adv-x="108" 
d="M288 700l-430 -700h-48l436 700h42z" />
    <glyph glyph-name="Euro" unicode="&#x20ac;" horiz-adv-x="724" 
d="M613 199q31 0 53.5 -20t22.5 -54q0 -30 -18.5 -52t-56.5 -45q-66 -35 -154 -35q-101 0 -191 57.5t-134 153.5h-40q-25 0 -42.5 17.5t-17.5 42.5t17.5 42.5t42.5 17.5h10q-1 9 -1 26v13h-9q-25 0 -42.5 17.5t-17.5 42.5t17.5 42.5t42.5 17.5h35q41 101 133 162.5t194 61.5
q90 0 158 -36q74 -45 74 -96q0 -34 -22.5 -54t-53.5 -20q-27 0 -62 21q-1 0 -9.5 5.5t-18 10t-27 9t-36.5 4.5q-83 0 -138 -68h76q25 0 43 -17.5t18 -42.5t-18 -42.5t-43 -17.5h-122v-13q0 -8 2 -26h120q25 0 43 -17.5t18 -42.5t-18 -42.5t-43 -17.5h-65q53 -55 129 -55
q18 0 35 4.5t26.5 9t18 10t9.5 5.5q35 21 62 21z" />
    <glyph glyph-name="uni20B4" unicode="&#x20b4;" 
d="M532 342q24 0 42 -16.5t18 -37.5t-18 -38t-42 -17h-295q-4 -11 -4 -26q0 -27 17 -43.5t36 -21t40 -4.5q56 0 96 40q39 45 77 45q32 0 49.5 -21t17.5 -48q0 -37 -36 -82q-80 -79 -204 -79q-62 0 -120 22.5t-99.5 73t-41.5 118.5q0 19 3 35q-28 16 -28 46q0 21 18 37.5
t42 16.5h30q31 22 35 25h-65q-24 0 -42 17t-18 38t18 38t42 17h275q6 12 6 27q0 26 -19.5 42.5t-55.5 16.5q-37 0 -73 -27q-28 -30 -64 -30q-29 0 -48.5 18.5t-19.5 46.5q0 32 37 71q70 65 175 65q99 0 165.5 -54.5t66.5 -145.5q0 -11 -2 -31q21 -4 35 -20t14 -34
q0 -21 -18 -38t-42 -17h-59q-12 -9 -40 -25h99z" />
    <glyph glyph-name="trademark" unicode="&#x2122;" horiz-adv-x="562" 
d="M243 700v-48h-60v-132h-58v132h-60v48h178zM497 700v-180h-55v70l-41 -70h-27l-41 70v-70h-55v180h42l67 -113l69 113h41z" />
    <glyph glyph-name="oneeighth" unicode="&#x215b;" horiz-adv-x="556" 
d="M100 701v-261h-37v221l-17 -11l-18 31l35 20h37zM503 700l-430 -700h-48l436 700h42zM439 263q36 0 57.5 -20t21.5 -47q0 -34 -30 -53q43 -21 43 -66q0 -34 -27 -56.5t-65 -22.5q-37 0 -64 22.5t-27 56.5q0 45 43 66q-30 19 -30 53q0 26 21.5 46.5t56.5 20.5zM439 232
q-20 0 -30.5 -10.5t-10.5 -25.5t12.5 -27t28.5 -12q17 0 29 11.5t12 27.5q0 36 -41 36zM439 126q-22 0 -38 -14t-16 -35q0 -20 16 -34t38 -14q24 0 39 13t15 35t-15 35.5t-39 13.5z" />
    <glyph glyph-name="threeeighths" unicode="&#x215c;" horiz-adv-x="574" 
d="M116 703q32 0 56 -21t24 -47q0 -32 -30 -53q42 -18 42 -66q0 -34 -27.5 -57t-64.5 -23q-42 0 -69 27.5t-22 63.5h38q-8 -22 9.5 -40.5t43.5 -18.5q22 0 38 13.5t16 34.5q0 28 -20 39.5t-54 3.5v32q63 6 63 44q0 15 -12.5 26t-30.5 11q-22 0 -35.5 -16.5t-9.5 -42.5h-39
q-4 38 21 64t63 26zM523 700l-430 -700h-48l436 700h42zM457 263q36 0 57.5 -20t21.5 -47q0 -34 -30 -53q43 -21 43 -66q0 -34 -27 -56.5t-65 -22.5q-37 0 -64 22.5t-27 56.5q0 45 43 66q-30 19 -30 53q0 26 21.5 46.5t56.5 20.5zM457 232q-20 0 -30.5 -10.5t-10.5 -25.5
t12.5 -27t28.5 -12q17 0 29 11.5t12 27.5q0 36 -41 36zM457 126q-22 0 -38 -14t-16 -35q0 -20 16 -34t38 -14q24 0 39 13t15 35t-15 35.5t-39 13.5z" />
    <glyph glyph-name="fiveeighths" unicode="&#x215d;" horiz-adv-x="576" 
d="M186 701v-32h-104l-8 -58q22 10 45 10q35 0 63 -26.5t28 -65.5t-28 -66t-67 -27q-33 0 -58.5 18.5t-31.5 43.5l33 19q2 -20 17.5 -34.5t39.5 -14.5q23 0 40 17.5t17 43.5q0 25 -16.5 42.5t-36.5 17.5q-35 0 -57 -29l-32 8l18 133h138zM523 700l-430 -700h-48l436 700h42z
M459 263q36 0 57.5 -20t21.5 -47q0 -34 -30 -53q43 -21 43 -66q0 -34 -27 -56.5t-65 -22.5q-37 0 -64 22.5t-27 56.5q0 45 43 66q-30 19 -30 53q0 26 21.5 46.5t56.5 20.5zM459 232q-20 0 -30.5 -10.5t-10.5 -25.5t12.5 -27t28.5 -12q17 0 29 11.5t12 27.5q0 36 -41 36z
M459 126q-22 0 -38 -14t-16 -35q0 -20 16 -34t38 -14q24 0 39 13t15 35t-15 35.5t-39 13.5z" />
    <glyph glyph-name="seveneighths" unicode="&#x215e;" horiz-adv-x="556" 
d="M200 701l-102 -261h-39l89 229h-121v32h173zM503 700l-430 -700h-48l436 700h42zM439 263q36 0 57.5 -20t21.5 -47q0 -34 -30 -53q43 -21 43 -66q0 -34 -27 -56.5t-65 -22.5q-37 0 -64 22.5t-27 56.5q0 45 43 66q-30 19 -30 53q0 26 21.5 46.5t56.5 20.5zM439 232
q-20 0 -30.5 -10.5t-10.5 -25.5t12.5 -27t28.5 -12q17 0 29 11.5t12 27.5q0 36 -41 36zM439 126q-22 0 -38 -14t-16 -35q0 -20 16 -34t38 -14q24 0 39 13t15 35t-15 35.5t-39 13.5z" />
    <glyph glyph-name="partialdiff" unicode="&#x2202;" horiz-adv-x="567" 
d="M272 678l113 -165q8 -12 40 -56t41 -59t27 -47.5t23.5 -59t5.5 -56.5q0 -111 -72.5 -178t-168.5 -67q-93 0 -164.5 63.5t-71.5 160.5q0 100 72 167t164 67q-6 3 -14 13l-105 134q-16 21 -16 43q0 30 19 50t49 20q39 0 58 -30zM283 301q-39 0 -62.5 -27t-23.5 -60
q0 -34 23.5 -60t62.5 -26q40 0 65 25.5t25 60.5q0 34 -24 60.5t-66 26.5z" />
    <glyph glyph-name="product" unicode="&#x220f;" horiz-adv-x="758" 
d="M45 709q0 40 25.5 65.5t65.5 25.5h486q39 0 65 -25.5t26 -65.5v-830q0 -32 -23 -54.5t-54 -22.5q-32 0 -55 22.5t-23 54.5v780h-358v-780q0 -32 -23 -54.5t-54 -22.5q-32 0 -55 22.5t-23 54.5v830z" />
    <glyph glyph-name="summation" unicode="&#x2211;" horiz-adv-x="636" 
d="M522 800q28 0 48.5 -20.5t20.5 -50.5q0 -28 -20.5 -48.5t-48.5 -20.5h-302l173 -317q20 -38 0 -76l-173 -317h302q28 0 48.5 -20.5t20.5 -48.5q0 -30 -20.5 -50.5t-48.5 -20.5h-364q-69 0 -99.5 51.5t2.5 111.5l183 332l-183 332q-33 60 -2.5 111.5t99.5 51.5h364z" />
    <glyph glyph-name="minus" unicode="&#x2212;" horiz-adv-x="425" 
d="M368 339q28 0 49.5 -19.5t21.5 -46.5t-21.5 -46.5t-49.5 -19.5h-252q-29 0 -50 19.5t-21 46.5t21 46.5t50 19.5h252z" />
    <glyph glyph-name="radical" unicode="&#x221a;" horiz-adv-x="861" 
d="M743 809q36 0 57.5 -28t14.5 -69l-235 -819q-12 -40 -45 -65.5t-76 -25.5q-38 0 -69.5 21t-45.5 56l-145 348h-65q-37 0 -63 26t-26 63t26 63t63 26h115q27 0 47 -14t28 -38l132 -339l213 738q7 26 27 41.5t47 15.5z" />
    <glyph glyph-name="infinity" unicode="&#x221e;" horiz-adv-x="868" 
d="M624 429q81 0 137.5 -45t56.5 -122q0 -79 -56.5 -124.5t-137.5 -45.5q-97 0 -190 76q-93 -76 -189 -76q-82 0 -138.5 45.5t-56.5 124.5q0 77 56.5 122t138.5 45q95 0 189 -75q94 75 190 75zM247 211q20 0 32 1.5t32 13.5t38 36q-26 33 -49.5 42.5t-52.5 9.5
q-50 0 -50 -52q0 -51 50 -51zM621 211q50 0 50 51q0 52 -50 52q-19 0 -31.5 -2t-32.5 -14.5t-38 -35.5q18 -24 38 -36t32 -13.5t32 -1.5z" />
    <glyph glyph-name="integral" unicode="&#x222b;" horiz-adv-x="307" 
d="M297 800v-136q-18 0 -30 -4t-18.5 -8.5t-9 -15t-3 -17.5t0.5 -23t1 -24v-570q0 -99 -49.5 -145.5t-168.5 -46.5v136q21 0 34.5 3.5t18.5 15.5t6.5 17t0.5 28t-1 28v571q0 98 49.5 144.5t168.5 46.5z" />
    <glyph glyph-name="approxequal" unicode="&#x2248;" horiz-adv-x="542" 
d="M183 450q42 0 110.5 -35t96.5 -35q2 0 16.5 -1.5t20.5 -0.5q5 3 12.5 9t12 8t11.5 2q39 0 32 -33q-9 -47 -41.5 -77t-88.5 -30q-43 0 -114.5 41t-100.5 41q-26 0 -38 -4q-1 -1 -4 -5t-4 -5t-3.5 -4t-3.5 -3.5t-3.5 -2t-5 -2t-5.5 -1t-7 -0.5q-15 0 -22.5 6.5t-5.5 19.5
q17 112 135 112zM183 281q42 0 110.5 -35t96.5 -35q2 0 16.5 -1.5t20.5 -0.5q5 3 12.5 9t12 8t11.5 2q39 0 32 -33q-9 -47 -41.5 -77t-88.5 -30q-43 0 -114.5 41t-100.5 41q-26 0 -38 -4q-1 -1 -4 -5t-4 -5t-3.5 -4t-3.5 -3.5t-3.5 -2t-5 -2t-5.5 -1t-7 -0.5
q-15 0 -22.5 6.5t-5.5 19.5q17 112 135 112z" />
    <glyph glyph-name="notequal" unicode="&#x2260;" horiz-adv-x="484" 
d="M368 250q28 0 49.5 -19.5t21.5 -46.5t-21.5 -46.5t-49.5 -19.5h-122l-33 -86q-6 -18 -23 -29.5t-36 -11.5q-35 0 -53 30.5t-5 54.5l16 42q-27 2 -47 20.5t-20 45.5t21 46.5t50 19.5h48l17 46h-65q-29 0 -50 19.5t-21 46.5t21 46.5t50 19.5h117l39 101q5 18 21 29t37 11
q35 0 54 -30t5 -54l-22 -57h1q28 0 49.5 -19.5t21.5 -46.5t-21.5 -46.5t-49.5 -19.5h-52l-18 -46h70z" />
    <glyph glyph-name="lessequal" unicode="&#x2264;" horiz-adv-x="484" 
d="M303 552q14 7 29 7q28 0 48 -17.5t20 -42.5q0 -34 -37 -52l-169 -72l170 -71q15 -7 25.5 -21.5t10.5 -31.5q0 -24 -19.5 -42t-47.5 -18q-15 0 -31 8l-189 83q-44 21 -60.5 56.5t0 71.5t61.5 56zM368 134q28 0 49.5 -19.5t21.5 -46.5t-21.5 -46.5t-49.5 -19.5h-252
q-29 0 -50 19.5t-21 46.5t21 46.5t50 19.5h252z" />
    <glyph glyph-name="greaterequal" unicode="&#x2265;" horiz-adv-x="484" 
d="M181 552l189 -86q45 -20 61.5 -56t0 -71.5t-60.5 -56.5l-189 -83q-16 -8 -31 -8q-28 0 -47.5 18t-19.5 42q0 17 10.5 31.5t25.5 21.5l170 71l-169 72q-37 18 -37 52q0 25 20 42.5t48 17.5q15 0 29 -7zM116 134h252q29 0 50 -19.5t21 -46.5t-21 -46.5t-50 -19.5h-252
q-28 0 -49.5 19.5t-21.5 46.5t21.5 46.5t49.5 19.5z" />
    <glyph glyph-name="lozenge" unicode="&#x25ca;" horiz-adv-x="615" 
d="M307 708q51 0 93 -27.5t61 -71.5l101 -228q13 -31 0 -62l-101 -228q-19 -44 -61 -71.5t-93 -27.5q-50 0 -92 27.5t-61 71.5l-102 228q-12 31 0 62l102 228q19 44 61 71.5t92 27.5zM307 109l107 241l-107 241l-106 -241z" />
    <glyph glyph-name="Q.ss01" horiz-adv-x="799" 
d="M719 21q31 0 52 -21t21 -53q0 -47 -41 -74.5t-98 -27.5q-40 0 -77 15.5t-65.5 37.5t-55.5 44.5t-56.5 38t-57.5 15.5q-43 0 -90 -39q-26 -26 -55 -26q-32 0 -55.5 24t-23.5 57q0 34 26 58q14 12 21 17q-114 107 -114 263q0 153 106 255t243 102t243 -102t106 -255
q0 -107 -54 -191t-141 -128q45 -36 75 -36q13 -3 41 12l7 4q8 4 19.5 7t23.5 3zM399 551q-74 0 -125.5 -56.5t-51.5 -144.5t51.5 -144t125.5 -56t125 56t51 144q0 89 -50.5 145t-125.5 56z" />
    <glyph glyph-name="R.ss01" horiz-adv-x="688" 
d="M600 177q28 0 45.5 -18.5t17.5 -47.5q0 -33 -23 -61q-26 -31 -51.5 -45t-69.5 -14q-51 0 -85 20t-52.5 51t-35.5 63.5t-47.5 62t-74.5 41.5v-155q0 -34 -23.5 -58t-57.5 -24t-58.5 24t-24.5 58v535q0 40 25.5 65.5t65.5 25.5h183q114 0 185.5 -67.5t71.5 -164.5
q0 -79 -50 -140t-134 -81q29 -20 49.5 -50t33.5 -47t31 -17q12 0 27 19q19 25 52 25zM325 560h-101v-181h101q50 0 78.5 19t28.5 70q0 92 -107 92z" />
    <glyph glyph-name="R.ss02" horiz-adv-x="646" 
d="M506 294q55 -28 77.5 -79.5t22.5 -132.5q0 -41 -24 -63.5t-58 -22.5t-58 22.5t-24 63.5q0 86 -28.5 121.5t-112.5 35.5h-77v-165q0 -34 -23.5 -58t-57.5 -24t-58.5 24t-24.5 58v535q0 40 25.5 65.5t65.5 25.5h183q114 0 185.5 -67.5t71.5 -164.5q0 -108 -85 -174z
M224 379h101q50 0 78.5 19t28.5 70q0 92 -107 92h-101v-181z" />
    <glyph glyph-name="i.loclTRK" horiz-adv-x="310" 
d="M155 599q-32 0 -56.5 24t-24.5 57t24.5 57t56.5 24q33 0 57.5 -24t24.5 -57t-24.5 -57t-57.5 -24zM155 523q32 0 56 -23.5t24 -56.5v-371q0 -33 -23.5 -56t-56.5 -23t-56.5 23t-23.5 56v371q0 33 24 56.5t56 23.5z" />
    <glyph glyph-name="t_t" horiz-adv-x="816" 
d="M730 135q26 0 41 -15t15 -43q0 -39 -32.5 -60.5t-92.5 -21.5q-33 0 -57.5 7t-48.5 25.5t-37 58t-13 98.5v213h-241v-221q0 -44 27 -44q4 0 18 2t20 1q26 0 41 -15t15 -43q0 -39 -32.5 -60.5t-92.5 -21.5q-33 0 -57.5 7t-48.5 25.5t-37 58t-13 98.5v213h-20
q-29 0 -46.5 17t-17.5 44t17.5 44.5t46.5 17.5h20v58q0 33 24 56.5t56 23.5t56 -23.5t24 -56.5v-58h241v58q0 33 24 56.5t56 23.5t56 -23.5t24 -56.5v-58h58q29 0 46 -17.5t17 -44.5t-17 -44t-46 -17h-58v-221q0 -44 27 -44q4 0 18 2t20 1z" />
    <glyph glyph-name="zero.tf" horiz-adv-x="700" 
d="M340 707q115 0 202.5 -90.5t87.5 -253.5v-24q0 -84 -25.5 -151.5t-67.5 -108.5t-92.5 -62.5t-104.5 -21.5q-53 0 -103.5 21.5t-92.5 62.5t-67.5 108.5t-25.5 151.5v24q0 67 17 124.5t45.5 97t66 68t78 41.5t82.5 13zM340 571q-39 0 -66 -20.5t-40 -55t-18 -66.5t-5 -66
v-24q0 -34 5 -66t18 -66.5t40 -55t66 -20.5t66.5 20.5t40.5 55t18 66.5t5 66v24q0 34 -5 66t-18 66.5t-40.5 55t-66.5 20.5z" />
    <glyph glyph-name="one.tf" horiz-adv-x="700" 
d="M338 700q39 0 65 -25.5t26 -65.5v-537q0 -33 -23.5 -56t-56.5 -23t-56.5 23t-23.5 56v492h-63q-28 0 -48.5 20t-20.5 48t20.5 48t48.5 20h132z" />
    <glyph glyph-name="two.tf" horiz-adv-x="700" 
d="M332 707q107 0 175 -64t68 -151q0 -53 -28 -91t-118 -121q-22 -21 -34 -32l-118 -107h227q29 0 49 -20.5t20 -50.5t-20 -50t-49 -20h-283q-42 0 -74 20.5t-45.5 50t-6.5 65.5t37 65l101 90q16 15 38 35t33.5 31t27.5 26t24 23t18.5 19t15 17.5t10 15t8 15t4 13.5t1.5 15
q0 38 -23 52t-49 14q-59 0 -81 -51q-7 -25 -29.5 -42.5t-51.5 -17.5q-44 0 -62.5 34t-4.5 81q26 58 82 97t138 39z" />
    <glyph glyph-name="three.tf" horiz-adv-x="700" 
d="M435 700q72 0 105.5 -55t-9.5 -111l-101 -118q60 -14 108.5 -68.5t48.5 -131.5q0 -100 -74 -163t-184 -63q-174 0 -238 131q-14 37 5 70t60 33q50 0 69 -41q30 -57 104 -57q10 0 22.5 2.5t32 10t32 28t12.5 49.5q0 26 -16 46t-31 28t-41 17.5t-27 9.5q-22 4 -37 22.5
t-15 39.5q0 9 4 18t7.5 14.5t13 18t13.5 17.5l93 117h-217q-28 0 -48.5 20t-20.5 48t20.5 48t48.5 20h260z" />
    <glyph glyph-name="four.tf" horiz-adv-x="700" 
d="M520 277h15q29 0 49 -18.5t20 -45.5q0 -28 -20 -46.5t-49 -18.5h-15v-78q0 -33 -23.5 -55.5t-56.5 -22.5t-56 22.5t-23 55.5v78h-161q-75 0 -98.5 46t17.5 102l254 358q24 34 59.5 41.5t61.5 -14t26 -61.5v-343zM361 418l-98 -141h98v141z" />
    <glyph glyph-name="five.tf" horiz-adv-x="700" 
d="M433 700q29 0 49 -20t20 -48t-20 -48t-49 -20h-177l-10 -109q-1 -4 2 -4q2 0 12 3q42 15 81 15q95 0 158.5 -66t63.5 -172q0 -105 -72.5 -173t-185.5 -68q-123 0 -193 69q-25 27 -25 60q0 29 20 49t52 20q35 0 58 -27q37 -35 84 -35q39 0 71 23t32 82q0 52 -29 76.5
t-66 24.5q-25 0 -56 -11q-24 -12 -65 -12q-47 0 -73 33t-21 82l23 200q4 34 28.5 55t58.5 21h229z" />
    <glyph glyph-name="six.tf" horiz-adv-x="700" 
d="M416 708q30 0 49 -20t19 -50q0 -22 -16 -43l-105 -134l-14 -13q92 0 164 -67t72 -167q0 -97 -71.5 -160.5t-164.5 -63.5q-96 0 -168.5 67t-72.5 178q0 30 5.5 56.5t23.5 59t27 47.5t41 59t40 56l113 165q20 30 58 30zM347 301q-42 0 -66 -26.5t-24 -60.5q0 -35 25 -60.5
t65 -25.5q39 0 62.5 26t23.5 60q0 33 -23.5 60t-62.5 27z" />
    <glyph glyph-name="seven.tf" horiz-adv-x="700" 
d="M492 700q63 0 93.5 -47t3.5 -104l-246 -512q-18 -45 -67 -45q-31 0 -53 22t-22 54q0 19 8 32l230 464h-232q-28 0 -48.5 20t-20.5 48t20.5 48t48.5 20h285z" />
    <glyph glyph-name="eight.tf" horiz-adv-x="700" 
d="M530 399q89 -65 89 -173q0 -106 -78.5 -170.5t-179.5 -64.5q-102 0 -181 64.5t-79 170.5q0 108 90 174q-44 52 -44 115q0 82 57.5 137t156.5 55t156 -54.5t57 -137.5q0 -62 -44 -116zM301 513q0 -23 15.5 -40.5t44.5 -17.5t44.5 17.5t15.5 40.5q0 24 -17 40.5t-43 16.5
t-43 -16.5t-17 -40.5zM361 129q38 0 65 28.5t27 68.5q0 45 -28.5 70t-63.5 25t-64 -25t-29 -70q0 -40 27.5 -68.5t65.5 -28.5z" />
    <glyph glyph-name="nine.tf" horiz-adv-x="700" 
d="M284 -9q-30 0 -49 20t-19 50q0 22 16 43l105 134l14 13q-92 0 -164 67t-72 167q0 97 71.5 160.5t164.5 63.5q96 0 168.5 -67t72.5 -178q0 -30 -5.5 -56.5t-23.5 -59t-27 -47.5t-41 -59t-40 -56l-113 -165q-20 -30 -58 -30zM353 398q42 0 66 26.5t24 60.5q0 35 -25 60.5
t-65 25.5q-39 0 -62.5 -26t-23.5 -60q0 -33 23.5 -60t62.5 -27z" />
    <glyph glyph-name="zero.dnom" horiz-adv-x="260" 
d="M130 263q47 0 76 -35t29 -91v-13q0 -56 -29 -91t-76 -35q-45 0 -75 35t-30 91v13q0 56 30 91t75 35zM130 232q-29 0 -48.5 -25.5t-19.5 -69.5v-13q0 -44 19.5 -69.5t48.5 -25.5q31 0 49.5 25t18.5 70v13q0 45 -18.5 70t-49.5 25z" />
    <glyph glyph-name="one.dnom" horiz-adv-x="122" 
d="M97 261v-261h-37v221l-17 -11l-18 31l35 20h37z" />
    <glyph glyph-name="two.dnom" horiz-adv-x="221" 
d="M109 264q34 0 59 -22.5t25 -52.5q0 -26 -14.5 -47t-53.5 -61l-47 -49h118v-32h-168v32l68 69q28 29 36.5 38.5t15.5 22.5t7 27q0 18 -14 31t-32 13q-19 0 -33 -13t-14 -37v-14h-37v14q0 35 24.5 58t59.5 23z" />
    <glyph glyph-name="three.dnom" horiz-adv-x="233" 
d="M116 263q32 0 56 -21t24 -47q0 -32 -30 -53q42 -18 42 -66q0 -34 -27.5 -57t-64.5 -23q-42 0 -69 27.5t-22 63.5h38q-8 -22 9.5 -40.5t43.5 -18.5q22 0 38 13.5t16 34.5q0 28 -20 39.5t-54 3.5v32q63 6 63 44q0 15 -12.5 26t-30.5 11q-22 0 -35.5 -16.5t-9.5 -42.5h-39
q-4 38 21 64t63 26z" />
    <glyph glyph-name="four.dnom" horiz-adv-x="246" 
d="M194 261v-154h27v-31h-27v-76h-37v76h-132l132 185h37zM157 202l-65 -95h65v95z" />
    <glyph glyph-name="five.dnom" horiz-adv-x="235" 
d="M186 261v-32h-104l-8 -58q22 10 45 10q35 0 63 -26.5t28 -65.5t-28 -66t-67 -27q-33 0 -58.5 18.5t-31.5 43.5l33 19q2 -20 17.5 -34.5t39.5 -14.5q23 0 40 17.5t17 43.5q0 25 -16.5 42.5t-36.5 17.5q-35 0 -57 -29l-32 8l18 133h138z" />
    <glyph glyph-name="six.dnom" horiz-adv-x="223" 
d="M174 261l-68 -96h6q34 0 60 -25t26 -59q0 -35 -26 -60t-60 -25t-60.5 25t-26.5 60q0 16 5.5 31.5t10 23t18 25t16.5 21.5l57 79h42zM112 133q-22 0 -36 -14t-14 -38q0 -23 15.5 -38t34.5 -15q18 0 33.5 15t15.5 38t-15 37.5t-34 14.5z" />
    <glyph glyph-name="seven.dnom" horiz-adv-x="223" 
d="M198 261l-102 -261h-39l89 229h-121v32h173z" />
    <glyph glyph-name="eight.dnom" horiz-adv-x="233" 
d="M116 263q36 0 57.5 -20t21.5 -47q0 -34 -30 -53q43 -21 43 -66q0 -34 -27 -56.5t-65 -22.5q-37 0 -64 22.5t-27 56.5q0 45 43 66q-30 19 -30 53q0 26 21.5 46.5t56.5 20.5zM116 232q-20 0 -30.5 -10.5t-10.5 -25.5t12.5 -27t28.5 -12q18 0 29.5 11.5t11.5 27.5
q0 36 -41 36zM116 126q-22 0 -38 -14t-16 -35q0 -20 16 -34t38 -14q24 0 39 13t15 35t-15 35.5t-39 13.5z" />
    <glyph glyph-name="nine.dnom" horiz-adv-x="224" 
d="M112 264q34 0 60.5 -24.5t26.5 -59.5q0 -13 -2.5 -24t-9 -22.5t-10.5 -18t-14.5 -19.5t-14.5 -18l-56 -78h-43l68 95h-5q-35 0 -61 25.5t-26 59.5q0 35 26.5 59.5t60.5 24.5zM112 232q-19 0 -34.5 -15t-15.5 -37q0 -23 15.5 -38t34.5 -15q22 0 35.5 14.5t13.5 38.5
q0 22 -15.5 37t-33.5 15z" />
    <glyph glyph-name="zero.numr" horiz-adv-x="260" 
d="M130 703q47 0 76 -35t29 -91v-13q0 -56 -29 -91t-76 -35q-45 0 -75 35t-30 91v13q0 56 30 91t75 35zM130 672q-29 0 -48.5 -25.5t-19.5 -69.5v-13q0 -44 19.5 -69.5t48.5 -25.5q31 0 49.5 25t18.5 70v13q0 45 -18.5 70t-49.5 25z" />
    <glyph glyph-name="one.numr" horiz-adv-x="122" 
d="M97 701v-261h-37v221l-17 -11l-18 31l35 20h37z" />
    <glyph glyph-name="two.numr" horiz-adv-x="221" 
d="M109 704q34 0 59 -22.5t25 -52.5q0 -26 -14.5 -47t-53.5 -61l-47 -49h118v-32h-168v32l68 69q28 29 36.5 38.5t15.5 22.5t7 27q0 18 -14 31t-32 13q-19 0 -33 -13t-14 -37v-14h-37v14q0 35 24.5 58t59.5 23z" />
    <glyph glyph-name="three.numr" horiz-adv-x="233" 
d="M116 703q32 0 56 -21t24 -47q0 -32 -30 -53q42 -18 42 -66q0 -34 -27.5 -57t-64.5 -23q-42 0 -69 27.5t-22 63.5h38q-8 -22 9.5 -40.5t43.5 -18.5q22 0 38 13.5t16 34.5q0 28 -20 39.5t-54 3.5v32q63 6 63 44q0 15 -12.5 26t-30.5 11q-22 0 -35.5 -16.5t-9.5 -42.5h-39
q-4 38 21 64t63 26z" />
    <glyph glyph-name="four.numr" horiz-adv-x="246" 
d="M194 701v-154h27v-31h-27v-76h-37v76h-132l132 185h37zM157 642l-65 -95h65v95z" />
    <glyph glyph-name="five.numr" horiz-adv-x="235" 
d="M186 701v-32h-104l-8 -58q22 10 45 10q35 0 63 -26.5t28 -65.5t-28 -66t-67 -27q-33 0 -58.5 18.5t-31.5 43.5l33 19q2 -20 17.5 -34.5t39.5 -14.5q23 0 40 17.5t17 43.5q0 25 -16.5 42.5t-36.5 17.5q-35 0 -57 -29l-32 8l18 133h138z" />
    <glyph glyph-name="six.numr" horiz-adv-x="223" 
d="M174 701l-68 -96h6q34 0 60 -25t26 -59q0 -35 -26 -60t-60 -25t-60.5 25t-26.5 60q0 16 5.5 31.5t10 23t18 25t16.5 21.5l57 79h42zM112 573q-22 0 -36 -14t-14 -38q0 -23 15.5 -38t34.5 -15q18 0 33.5 15t15.5 38t-15 37.5t-34 14.5z" />
    <glyph glyph-name="seven.numr" horiz-adv-x="223" 
d="M198 701l-102 -261h-39l89 229h-121v32h173z" />
    <glyph glyph-name="eight.numr" horiz-adv-x="233" 
d="M116 703q36 0 57.5 -20t21.5 -47q0 -34 -30 -53q43 -21 43 -66q0 -34 -27 -56.5t-65 -22.5q-37 0 -64 22.5t-27 56.5q0 45 43 66q-30 19 -30 53q0 26 21.5 46.5t56.5 20.5zM116 672q-20 0 -30.5 -10.5t-10.5 -25.5t12.5 -27t28.5 -12q18 0 29.5 11.5t11.5 27.5
q0 36 -41 36zM116 566q-22 0 -38 -14t-16 -35q0 -20 16 -34t38 -14q24 0 39 13t15 35t-15 35.5t-39 13.5z" />
    <glyph glyph-name="nine.numr" horiz-adv-x="224" 
d="M112 704q34 0 60.5 -24.5t26.5 -59.5q0 -13 -2.5 -24t-9 -22.5t-10.5 -18t-14.5 -19.5t-14.5 -18l-56 -78h-43l68 95h-5q-35 0 -61 25.5t-26 59.5q0 35 26.5 59.5t60.5 24.5zM112 672q-19 0 -34.5 -15t-15.5 -37q0 -23 15.5 -38t34.5 -15q22 0 35.5 14.5t13.5 38.5
q0 22 -15.5 37t-33.5 15z" />
    </font>
</defs>
</svg>
