<svg xmlns="http://www.w3.org/2000/svg" width="28.604" height="28.604" viewBox="0 0 28.604 28.604"><g transform="translate(192.604 -337) rotate(90)"><circle cx="14.302" cy="14.302" r="14.302" transform="translate(337 164)" fill="#727c8e" opacity="0.2"/><g transform="translate(342.971 178.302) rotate(-45)" fill="#fff"><path d="M 8.534700393676758 8.534600257873535 L 0.9999001026153564 8.534600257873535 L 1.00000011920929 7.356600284576416 L 6.35669994354248 7.35669994354248 L 7.35669994354248 7.35669994354248 L 7.35669994354248 6.35669994354248 L 7.35669994354248 0.9999001026153564 L 8.534700393676758 1.00000011920929 L 8.534600257873535 7.356600284576416 L 8.534600257873535 8.534600257873535 L 8.534700393676758 8.534600257873535 Z" stroke="none"/><path d="M 8.534700393676758 9.534600257873535 L 0.9999001026153564 9.534600257873535 C 0.447300136089325 9.534600257873535 1.289367617118842e-07 9.086400032043457 1.289367617118842e-07 8.534700393676758 L 1.289367617118842e-07 7.356600284576416 C 1.289367617118842e-07 6.803999900817871 0.447300136089325 6.35669994354248 0.9999001026153564 6.35669994354248 L 6.35669994354248 6.35669994354248 L 6.35669994354248 0.9999001026153564 C 6.35669994354248 0.447300136089325 6.803999900817871 1.289367617118842e-07 7.356600284576416 1.289367617118842e-07 L 8.534700393676758 1.289367617118842e-07 C 9.086400032043457 1.289367617118842e-07 9.534600257873535 0.447300136089325 9.534600257873535 0.9999001026153564 L 9.534600257873535 7.356600284576416 L 9.534600257873535 8.534700393676758 C 9.534600257873535 9.086400032043457 9.086400032043457 9.534600257873535 8.534700393676758 9.534600257873535 Z" stroke="none" fill="#727c8e"/></g></g></svg>