<svg xmlns="http://www.w3.org/2000/svg" width="23" height="21" viewBox="0 0 23 21"><defs><clipPath id="8q5pa"><path fill="#fff" d="M21.993 9.572a1.568 1.568 0 0 0 .399-1.617 1.568 1.568 0 0 0-1.274-1.074l-5.327-.774a.696.696 0 0 1-.524-.381L12.885.899A1.568 1.568 0 0 0 11.47.02c-.604 0-1.147.337-1.414.88L7.674 5.725a.696.696 0 0 1-.525.381l-5.327.774A1.568 1.568 0 0 0 .548 7.955a1.568 1.568 0 0 0 .4 1.617l3.854 3.757c.164.16.24.391.2.617l-.909 5.305c-.08.467.042.92.344 1.279.47.558 1.29.728 1.945.384l4.764-2.505c.2-.105.45-.104.648 0l4.765 2.505c.231.122.479.183.734.183.465 0 .907-.207 1.21-.567.303-.358.425-.813.344-1.28l-.91-5.304a.697.697 0 0 1 .201-.617z"/></clipPath></defs><g><g><path fill="none" stroke="#00004c" stroke-miterlimit="50" stroke-width="2" d="M21.993 9.572a1.568 1.568 0 0 0 .399-1.617 1.568 1.568 0 0 0-1.274-1.074l-5.327-.774a.696.696 0 0 1-.524-.381L12.885.899A1.568 1.568 0 0 0 11.47.02c-.604 0-1.147.337-1.414.88L7.674 5.725a.696.696 0 0 1-.525.381l-5.327.774A1.568 1.568 0 0 0 .548 7.955a1.568 1.568 0 0 0 .4 1.617l3.854 3.757c.164.16.24.391.2.617l-.909 5.305c-.08.467.042.92.344 1.279.47.558 1.29.728 1.945.384l4.764-2.505c.2-.105.45-.104.648 0l4.765 2.505c.231.122.479.183.734.183.465 0 .907-.207 1.21-.567.303-.358.425-.813.344-1.28l-.91-5.304a.697.697 0 0 1 .201-.617z" clip-path="url(&quot;#8q5pa&quot;)"/></g></g></svg>