<?xml version="1.0" standalone="no"?>
<!DOCTYPE svg PUBLIC "-//W3C//DTD SVG 1.1//EN" "http://www.w3.org/Graphics/SVG/1.1/DTD/svg11.dtd" >
<svg xmlns="http://www.w3.org/2000/svg" xmlns:xlink="http://www.w3.org/1999/xlink" version="1.1">
<metadata>
Created by FontForge 20170731 at Tue Feb 14 21:04:49 2017
 By Aleksey,,,
(c) 2015 Connary Fagen
</metadata>
<defs>
<font id="VisbyRoundCF-Medium" horiz-adv-x="700" >
  <font-face 
    font-family="Visby Round CF Medium"
    font-weight="500"
    font-stretch="normal"
    units-per-em="1000"
    panose-1="0 0 6 0 0 0 0 0 0 0"
    ascent="800"
    descent="-200"
    x-height="520"
    cap-height="700"
    bbox="-190 -244 1101 980"
    underline-thickness="50"
    underline-position="-200"
    unicode-range="U+0020-FB02"
  />
<missing-glyph horiz-adv-x="495" 
d="M406 800v-990h-314v990h314zM330 734h-164v-33h65v-37h-66v-32h165v32h-66v37h66v33zM264 606h-99v-103h165v34h-66v69zM231 572v-35h-33v35h33zM330 476h-165v-32h66v-37h-66v-33h99v70h66v32zM330 417h-33v-65h-132v-34h165v99zM330 296h-99v-55h33v22h33v-46h-99v79
h-33v-112h165v112zM330 125h-165v-112h165v112zM297 92v-46h-99v46h99zM330 -10h-165v-32h70l-70 -47v-33h165v33h-101l69 47h32v32z" />
    <glyph glyph-name="fl" unicode="fl" horiz-adv-x="576" 
d="M359 694q20 -15 20 -32q0 -14 -9 -23.5t-22 -9.5q-11 0 -33 11q-32 15 -58 15q-84 0 -84 -98v-37h116q15 0 25 -9.5t10 -24.5q0 -16 -10 -25.5t-25 -9.5h-116v-415q0 -17 -12.5 -29.5t-29.5 -12.5q-16 0 -28.5 12.5t-12.5 29.5v415h-35q-16 0 -25.5 9.5t-9.5 25.5t9.5 25
t25.5 9h35v40q0 89 48.5 128t110.5 39q65 0 110 -33zM475 714q17 0 29 -12t12 -29v-636q0 -17 -12.5 -29.5t-28.5 -12.5q-17 0 -29.5 12.5t-12.5 29.5v636q0 17 12.5 29t29.5 12z" />
    <glyph glyph-name="f_t" unicode="ft" horiz-adv-x="678" 
d="M610 73q16 4 27 -5t11 -24q0 -25 -27.5 -37t-66.5 -12q-47 0 -75.5 24.5t-28.5 88.5v343h-277v-415q0 -17 -12.5 -29.5t-29.5 -12.5q-16 0 -28.5 12.5t-12.5 29.5v415h-35q-16 0 -25.5 9.5t-9.5 25.5t9.5 25t25.5 9h35v40q0 89 48.5 128t110.5 39q65 0 110 -33
q20 -15 20 -32q0 -14 -9 -23.5t-22 -9.5q-11 0 -33 11q-32 15 -58 15q-84 0 -84 -98v-37h277v86q0 17 12.5 29t29.5 12t29 -12t12 -29v-86h80q15 0 25 -9.5t10 -24.5q0 -16 -10 -25.5t-25 -9.5h-80v-340q0 -44 38 -44q6 0 39 6z" />
    <glyph glyph-name=".notdef" horiz-adv-x="495" 
d="M406 800v-990h-314v990h314zM330 734h-164v-33h65v-37h-66v-32h165v32h-66v37h66v33zM264 606h-99v-103h165v34h-66v69zM231 572v-35h-33v35h33zM330 476h-165v-32h66v-37h-66v-33h99v70h66v32zM330 417h-33v-65h-132v-34h165v99zM330 296h-99v-55h33v22h33v-46h-99v79
h-33v-112h165v112zM330 125h-165v-112h165v112zM297 92v-46h-99v46h99zM330 -10h-165v-32h70l-70 -47v-33h165v33h-101l69 47h32v32z" />
    <glyph glyph-name=".null" horiz-adv-x="0" 
 />
    <glyph glyph-name="nonmarkingreturn" horiz-adv-x="333" 
 />
    <glyph glyph-name="space" unicode=" " horiz-adv-x="271" 
 />
    <glyph glyph-name="exclam" unicode="!" horiz-adv-x="221" 
d="M111 703q19 0 32 -13.5t13 -32.5v-418q0 -20 -13 -33.5t-32 -13.5t-33 14t-14 33v418q0 19 14 32.5t33 13.5zM111 -2q-21 0 -36 15t-15 36q0 20 15 35t36 15q20 0 35 -15t15 -35q0 -21 -15 -36t-35 -15z" />
    <glyph glyph-name="quotedbl" unicode="&#x22;" horiz-adv-x="303" 
d="M82 705q17 0 29 -12.5t12 -29.5v-106q0 -17 -12 -29.5t-29 -12.5t-29.5 12.5t-12.5 29.5v106q0 17 12.5 29.5t29.5 12.5zM222 705q17 0 29 -12.5t12 -29.5v-106q0 -17 -12 -29.5t-29 -12.5t-29.5 12.5t-12.5 29.5v106q0 17 12.5 29.5t29.5 12.5z" />
    <glyph glyph-name="numbersign" unicode="#" horiz-adv-x="592" 
d="M510 253q15 0 26 -11t11 -25q0 -16 -11 -26.5t-26 -10.5h-80l-10 -146q-1 -16 -12.5 -27t-27.5 -11q-18 0 -30.5 13t-11.5 31l10 140h-135l-10 -146q-1 -16 -13 -27t-28 -11q-18 0 -30 13t-11 31l10 140h-50q-15 0 -25.5 11t-10.5 26q0 14 11 25t25 11h55l14 195h-69
q-14 0 -25 10.5t-11 25.5t11 25.5t25 10.5h74l10 146q1 16 13 27t28 11q18 0 30 -13t11 -31l-10 -140h136l10 146q1 16 12.5 27t27.5 11q18 0 30.5 -13t11.5 -31l-10 -140h55q15 0 26 -10.5t11 -25.5t-11 -25.5t-26 -10.5h-60l-14 -195h74zM218 253h135l14 195h-135z" />
    <glyph glyph-name="dollar" unicode="$" horiz-adv-x="558" 
d="M518 188q0 -79 -57 -129.5t-139 -62.5v-57q0 -14 -10.5 -25t-25.5 -11t-25.5 11t-10.5 25v55q-63 6 -115.5 36.5t-80.5 80.5q-14 25 -14 37q0 16 9.5 27t26.5 11q25 0 42 -26q49 -90 159 -90q63 0 109 29.5t46 88.5q0 50 -32.5 76t-103.5 53l-63 25q-82 32 -126.5 75.5
t-44.5 109.5q0 74 53 122.5t135 56.5v55q0 14 10.5 25t25.5 11t25.5 -11t10.5 -25v-58q95 -16 147 -94q18 -25 18 -41q0 -14 -10 -24t-26 -10q-22 0 -38 21q-48 76 -135 76q-59 0 -94.5 -28t-35.5 -76q0 -39 26 -66.5t79 -49.5l57 -22q108 -42 158 -85t50 -116z" />
    <glyph glyph-name="percent" unicode="%" horiz-adv-x="698" 
d="M168 705q52 0 88 -35.5t36 -87.5q0 -51 -36 -87t-88 -36q-51 0 -87 36t-36 87q0 52 36 87.5t87 35.5zM521 674q11 17 31 17q16 0 27.5 -11.5t11.5 -27.5q0 -10 -7 -21l-404 -603q-12 -17 -33 -17q-16 0 -27 11t-11 27q0 13 6 22zM168 645q-27 0 -45.5 -18t-18.5 -45
t18.5 -45t45.5 -18q25 0 44 18.5t19 44.5t-19 44.5t-44 18.5zM529 241q52 0 88 -35.5t36 -87.5q0 -51 -36 -87t-88 -36q-51 0 -87 36t-36 87q0 52 36 87.5t87 35.5zM529 181q-27 0 -45.5 -18t-18.5 -45t18.5 -45t45.5 -18q25 0 44 18.5t19 44.5t-19 44.5t-44 18.5z" />
    <glyph glyph-name="ampersand" unicode="&#x26;" horiz-adv-x="717" 
d="M303 -9q-99 0 -171 60.5t-72 158.5q0 84 52 139t135 68l-123 200q-18 31 -2 57t52 26h312q15 0 26 -10.5t11 -25.5t-11 -25.5t-26 -10.5h-287l126 -207q16 -23 10 -43t-34 -20q-70 0 -114 -42.5t-44 -105.5q0 -64 46.5 -105t115.5 -41q75 0 130.5 47t55.5 119v130
q0 20 13 33.5t33 13.5h75q15 0 26 -10.5t11 -25.5q0 -16 -11 -26.5t-26 -10.5h-39v-212q0 -72 75 -49q15 3 27 -7t12 -26q0 -22 -23.5 -33.5t-54.5 -11.5q-96 0 -96 98v23q-29 -59 -84 -92t-126 -33z" />
    <glyph glyph-name="quotesingle" unicode="'" horiz-adv-x="163" 
d="M82 705q17 0 29 -12.5t12 -29.5v-106q0 -17 -12 -29.5t-29 -12.5t-29.5 12.5t-12.5 29.5v106q0 17 12.5 29.5t29.5 12.5z" />
    <glyph glyph-name="parenleft" unicode="(" horiz-adv-x="248" 
d="M174 750q16 0 27 -11t11 -27l-3 -15q-80 -178 -80 -377q0 -214 81 -402q3 -12 3 -14q0 -16 -11 -27.5t-27 -11.5q-23 0 -34 21q-96 190 -96 434q0 233 96 410q10 20 33 20z" />
    <glyph glyph-name="parenright" unicode=")" horiz-adv-x="246" 
d="M105 730q96 -177 96 -410q0 -244 -96 -434q-11 -21 -34 -21q-16 0 -27 11.5t-11 27.5q0 2 3 14q81 188 81 402q0 199 -80 377l-3 15q0 16 11 27t27 11q23 0 33 -20z" />
    <glyph glyph-name="asterisk" unicode="*" horiz-adv-x="468" 
d="M198 684q0 14 10.5 25.5t24.5 11.5q15 0 25.5 -11t10.5 -25l-2 -84l85 24q16 4 28.5 -7.5t12.5 -28.5q0 -12 -8 -21.5t-19 -12.5l-78 -21l50 -67q8 -8 8 -21q0 -15 -10.5 -25.5t-25.5 -10.5q-19 0 -29 15l-47 67l-47 -67q-10 -15 -29 -15q-15 0 -25.5 10.5t-10.5 25.5
q0 12 7 21l50 67l-78 21q-26 7 -26 34q0 17 12.5 28.5t27.5 7.5l85 -24z" />
    <glyph glyph-name="plus" unicode="+" horiz-adv-x="447" 
d="M365 313q15 0 26 -10t11 -24q0 -13 -11.5 -23t-25.5 -10h-108v-110q0 -15 -10 -26t-24 -11q-13 0 -23 11.5t-10 25.5v110h-109q-14 0 -25 10t-11 23q0 14 11 24t25 10h109v107q0 14 10 25t23 11q14 0 24 -11t10 -25v-107h108z" />
    <glyph glyph-name="comma" unicode="," horiz-adv-x="219" 
d="M53 -123q-15 0 -20.5 9.5t0.5 23.5l55 157q12 33 42 33h31q36 0 17 -38l-79 -161q-11 -24 -40 -24h-6z" />
    <glyph glyph-name="hyphen" unicode="-" horiz-adv-x="420" 
d="M341 313q14 0 24 -10t10 -24q0 -13 -10 -23t-24 -10h-262q-14 0 -24 10t-10 23q0 14 10 24t24 10h262z" />
    <glyph glyph-name="period" unicode="." horiz-adv-x="181" 
d="M91 -2q-21 0 -36 15t-15 36q0 20 15 35t36 15q20 0 35 -15t15 -35q0 -21 -15 -36t-35 -15z" />
    <glyph glyph-name="slash" unicode="/" horiz-adv-x="462" 
d="M388 750q21 0 32.5 -18t3.5 -36l-313 -805q-4 -11 -14 -18.5t-22 -7.5q-21 0 -32.5 18t-4.5 36l313 805q9 26 37 26z" />
    <glyph glyph-name="zero" unicode="0" horiz-adv-x="631" 
d="M315 707q114 0 192.5 -92.5t78.5 -251.5v-24q0 -159 -78.5 -251.5t-192.5 -92.5q-113 0 -191.5 92.5t-78.5 251.5v24q0 159 78.5 251.5t191.5 92.5zM315 635q-85 0 -136 -77t-51 -195v-24q0 -119 51 -195t136 -76q86 0 137 76t51 195v24q0 118 -51 195t-137 77z" />
    <glyph glyph-name="one" unicode="1" horiz-adv-x="307" 
d="M186 700q20 0 33 -13t13 -33v-616q0 -17 -12.5 -29.5t-28.5 -12.5q-17 0 -29.5 12.5t-12.5 29.5v590h-68q-14 0 -25 10.5t-11 25.5t11 25.5t25 10.5h105z" />
    <glyph glyph-name="two" unicode="2" horiz-adv-x="535" 
d="M262 707q94 0 157.5 -59.5t63.5 -141.5q0 -16 -2.5 -30.5t-9 -30t-12 -27.5t-18.5 -29.5t-21.5 -28t-27.5 -31.5t-29.5 -31.5t-35 -36t-36.5 -38.5l-143 -148h306q15 0 25.5 -11t10.5 -27q0 -15 -11 -26t-25 -11h-339q-44 0 -60 35t14 67l143 151q19 20 48 49.5t43 43.5
t33.5 35.5t28.5 34.5t18.5 29.5t13 31.5t3.5 32q0 56 -41 90t-94 34q-50 0 -89 -30.5t-48 -87.5q-3 -15 -15.5 -25.5t-28.5 -10.5q-21 0 -31 16.5t-5 39.5q15 75 72.5 123.5t141.5 48.5z" />
    <glyph glyph-name="three" unicode="3" horiz-adv-x="563" 
d="M419 700q37 0 53.5 -28.5t-5.5 -58.5l-147 -197q78 -12 138 -67t60 -142q0 -95 -69.5 -156t-171.5 -61q-85 0 -148.5 45.5t-81.5 122.5q-5 19 5.5 35.5t30.5 16.5q14 0 25 -8t14 -20q12 -55 56.5 -87t98.5 -32q62 0 110 37.5t48 106.5q0 67 -49 103.5t-115 46.5
q-38 7 -38 39q0 13 19 40l139 192h-285q-15 0 -25.5 10.5t-10.5 25.5t10.5 25.5t25.5 10.5h313z" />
    <glyph glyph-name="four" unicode="4" horiz-adv-x="549" 
d="M434 255h43q15 0 26 -10t11 -24q0 -15 -11 -25.5t-26 -10.5h-43v-148q0 -17 -12 -29.5t-29 -12.5t-29.5 12.5t-12.5 29.5v148h-249q-40 0 -53 27.5t9 57.5l279 402q16 23 39.5 27t40.5 -11t17 -42v-391zM351 574l-217 -319h217v319z" />
    <glyph glyph-name="five" unicode="5" horiz-adv-x="558" 
d="M411 700q14 0 25 -10.5t11 -25.5t-11 -25.5t-25 -10.5h-247l-25 -206q52 48 144 48q93 0 161.5 -67t68.5 -172q0 -104 -72 -172.5t-179 -68.5q-67 0 -121 29.5t-87 78.5q-10 12 -10 26q0 16 11.5 27t27.5 11q22 0 33 -18q21 -35 60 -58t87 -23q67 0 117 45.5t50 122.5
q0 74 -47.5 120.5t-112.5 46.5q-69 0 -127 -52q-13 -11 -36 -11q-24 0 -38 18t-11 42l33 266q2 17 14.5 28t29.5 11h276z" />
    <glyph glyph-name="six" unicode="6" horiz-adv-x="549" 
d="M356 705q16 0 26.5 -11t10.5 -27q0 -12 -8 -22l-169 -222q29 11 59 11q91 0 160 -65t69 -158t-69 -157t-160 -64t-160.5 65t-69.5 162q0 33 7 62.5t27 64t32 53t45.5 62t44.5 59.5l125 171q12 16 30 16zM275 357q-68 0 -109.5 -40.5t-41.5 -105.5q0 -63 45.5 -105.5
t105.5 -42.5t104.5 42.5t44.5 105.5t-44.5 104.5t-104.5 41.5z" />
    <glyph glyph-name="seven" unicode="7" horiz-adv-x="503" 
d="M412 700q32 0 47.5 -24t1.5 -53l-286 -604q-10 -24 -36 -24q-16 0 -28 12t-12 28q0 7 4 17l279 576h-311q-14 0 -25 10.5t-11 25.5t11 25.5t25 10.5h341z" />
    <glyph glyph-name="eight" unicode="8" horiz-adv-x="541" 
d="M389 392q51 -28 81.5 -75t30.5 -109q0 -97 -69 -157t-161 -60t-161.5 60.5t-69.5 156.5q0 62 30.5 109t81.5 75q-69 53 -69 137q0 74 52 126t136 52t136 -52t52 -126q0 -85 -70 -137zM161 528q0 -44 31.5 -75.5t78.5 -31.5q46 0 77.5 32t31.5 75t-30.5 75t-78.5 32
q-49 0 -79.5 -32t-30.5 -75zM271 63q60 0 103 41t43 104q0 64 -42.5 104t-103.5 40t-104 -40t-43 -104t43.5 -104.5t103.5 -40.5z" />
    <glyph glyph-name="nine" unicode="9" horiz-adv-x="546" 
d="M190 -6q-16 0 -26.5 11t-10.5 27q0 12 8 22l169 222q-29 -11 -59 -11q-91 0 -160 65t-69 158t69 157t160 64t160.5 -65t69.5 -162q0 -33 -7 -62.5t-27 -64t-32 -53t-45.5 -62t-44.5 -59.5l-125 -171q-12 -16 -30 -16zM271 342q68 0 109.5 40.5t41.5 105.5
q0 63 -45.5 105.5t-105.5 42.5t-104.5 -42.5t-44.5 -105.5t44.5 -104.5t104.5 -41.5z" />
    <glyph glyph-name="colon" unicode=":" horiz-adv-x="201" 
d="M101 410q-21 0 -36 15t-15 36q0 20 15 35t36 15q20 0 35 -15t15 -35q0 -21 -15 -36t-35 -15zM101 -2q-21 0 -36 15t-15 36q0 20 15 35t36 15q20 0 35 -15t15 -35q0 -21 -15 -36t-35 -15z" />
    <glyph glyph-name="semicolon" unicode=";" horiz-adv-x="241" 
d="M141 410q-21 0 -36 15t-15 36q0 20 15 35t36 15q20 0 35 -15t15 -35q0 -21 -15 -36t-35 -15zM53 -123q-15 0 -20.5 9.5t0.5 23.5l55 157q12 33 42 33h31q36 0 17 -38l-79 -161q-11 -24 -40 -24h-6z" />
    <glyph glyph-name="less" unicode="&#x3c;" horiz-adv-x="480" 
d="M383 456q7 4 17 4q14 0 24.5 -10.5t10.5 -24.5q0 -20 -19 -31l-288 -154l287 -152q20 -10 20 -32q0 -14 -11 -24.5t-25 -10.5q-9 0 -17 5l-303 163q-34 18 -34 51.5t34 50.5z" />
    <glyph glyph-name="equal" unicode="=" horiz-adv-x="447" 
d="M365 396q15 0 26 -10t11 -24q0 -13 -11.5 -23t-25.5 -10h-284q-14 0 -25 10t-11 23q0 14 11 24t25 10h284zM365 230q15 0 26 -10t11 -24q0 -13 -11.5 -23t-25.5 -10h-284q-14 0 -25 10t-11 23q0 14 11 24t25 10h284z" />
    <glyph glyph-name="greater" unicode="&#x3e;" horiz-adv-x="480" 
d="M97 456l304 -165q34 -17 34 -50.5t-34 -51.5l-303 -163q-8 -5 -17 -5q-14 0 -25 10.5t-11 24.5q0 22 20 32l287 152l-288 154q-19 11 -19 31q0 14 10.5 24.5t24.5 10.5q10 0 17 -4z" />
    <glyph glyph-name="question" unicode="?" horiz-adv-x="507" 
d="M255 707q91 0 154 -54.5t63 -139.5q0 -42 -17.5 -75.5t-42 -56.5t-49.5 -44.5t-42.5 -49t-17.5 -60.5q0 -18 -11.5 -30.5t-30.5 -12.5q-20 0 -31.5 12.5t-11.5 30.5q0 39 17.5 72t43 57t50.5 46.5t42.5 51.5t17.5 61q0 49 -37.5 84t-96.5 35q-61 0 -98 -39t-36 -107
q0 -18 -11.5 -30.5t-31.5 -12.5q-21 0 -32 12.5t-11 30.5q0 100 64.5 159.5t155.5 59.5zM260 -2q-21 0 -36 15t-15 36q0 20 15 35t36 15q20 0 35 -15t15 -35q0 -21 -15 -36t-35 -15z" />
    <glyph glyph-name="at" unicode="@" horiz-adv-x="801" 
d="M523 522q13 0 22.5 -9t9.5 -22v-180q0 -79 49 -79q32 0 49.5 33t17.5 89q0 129 -79 203.5t-190 74.5q-108 0 -190 -80t-82 -206q0 -120 82 -199t187 -79q78 0 136 40q10 7 26 7q17 0 27 -10.5t10 -26.5q0 -19 -18 -32q-77 -53 -177 -53q-141 0 -247 101t-106 252
q0 155 107.5 258t244.5 103q90 0 169.5 -44.5t129.5 -127.5t50 -185q0 -92 -40.5 -141t-101.5 -49q-84 0 -98 88q-17 -44 -50.5 -67t-75.5 -23q-64 0 -114.5 50t-50.5 140q0 85 50.5 133.5t112.5 48.5q39 0 70 -20.5t40 -49.5v34q0 11 8.5 19.5t21.5 8.5zM387 458
q-39 0 -67 -31t-28 -80q0 -52 28 -84t67 -32q40 0 68 33t28 83q0 49 -28 80t-68 31z" />
    <glyph glyph-name="A" unicode="A" 
d="M660 58q5 -10 5 -22q0 -16 -12 -28t-30 -12q-27 0 -40 27l-71 164h-324l-71 -164q-13 -27 -40 -27q-18 0 -30 12t-12 28q0 12 5 22l268 614q14 32 42 32t41 -32zM218 256h264l-132 307z" />
    <glyph glyph-name="B" unicode="B" horiz-adv-x="584" 
d="M396 385q148 -47 148 -186q0 -94 -66.5 -146.5t-191.5 -52.5h-180q-20 0 -33 13t-13 33v608q0 20 13 33t33 13h175q102 0 161 -46.5t59 -127.5q0 -106 -105 -141zM145 627v-215h136q137 0 137 105q0 52 -35.5 81t-101.5 29h-136zM286 73q175 0 175 131q0 65 -44 102.5
t-131 37.5h-141v-271h141z" />
    <glyph glyph-name="C" unicode="C" horiz-adv-x="653" 
d="M579 137q16 0 27.5 -10.5t11.5 -27.5q0 -26 -35 -49q-76 -57 -183 -57q-88 0 -168 44.5t-131 127.5t-51 185q0 153 106.5 255t245.5 102q103 0 181 -56q35 -24 35 -50q0 -17 -11.5 -27.5t-27.5 -10.5q-17 0 -42 19q-55 45 -136 45q-104 0 -183.5 -80t-79.5 -197
t79.5 -197t182.5 -80q82 0 137 45q25 19 42 19z" />
    <glyph glyph-name="D" unicode="D" horiz-adv-x="647" 
d="M256 700q158 0 254.5 -93t96.5 -257t-96.5 -257t-254.5 -93h-150q-20 0 -33 13t-13 33v608q0 20 13 33t33 13h150zM256 73q128 0 197 70.5t69 206.5t-69 206.5t-197 70.5h-111v-554h111z" />
    <glyph glyph-name="E" unicode="E" horiz-adv-x="547" 
d="M145 75h329q15 0 26.5 -11t11.5 -26q0 -16 -11.5 -27t-26.5 -11h-368q-20 0 -33 13t-13 33v608q0 20 13 33t33 13h358q15 0 26.5 -11t11.5 -26q0 -16 -11.5 -27t-26.5 -11h-319v-237h225q15 0 26 -11t11 -25q0 -15 -11 -25.5t-26 -10.5h-225v-241z" />
    <glyph glyph-name="F" unicode="F" horiz-adv-x="537" 
d="M502 663q0 -16 -11.5 -27t-26.5 -11h-319v-244h261q15 0 26.5 -10.5t11.5 -25.5t-11.5 -25.5t-26.5 -10.5h-261v-270q0 -17 -12.5 -30.5t-29.5 -13.5q-18 0 -30.5 13t-12.5 31v615q0 20 13 33t33 13h358q15 0 26.5 -11t11.5 -26z" />
    <glyph glyph-name="G" unicode="G" horiz-adv-x="761" 
d="M673 356q22 0 33.5 -13.5t10.5 -36.5q-6 -145 -95.5 -229t-218.5 -84q-139 0 -246 102t-107 255t106.5 255t245.5 102q103 0 181 -56q35 -24 35 -50q0 -17 -11.5 -27.5t-27.5 -10.5q-17 0 -42 19q-55 45 -136 45q-104 0 -183.5 -80t-79.5 -197q0 -118 80 -197.5
t185 -79.5q91 0 156.5 57.5t74.5 153.5h-167q-16 0 -27 10.5t-11 25.5t11 25.5t27 10.5h206z" />
    <glyph glyph-name="H" unicode="H" horiz-adv-x="654" 
d="M509 660q0 18 12.5 30.5t30.5 12.5q17 0 29.5 -13t12.5 -30v-620q0 -17 -12.5 -30t-29.5 -13q-18 0 -30.5 12.5t-12.5 30.5v265h-364v-265q0 -17 -12.5 -30t-29.5 -13q-18 0 -30.5 13t-12.5 30v620q0 17 12.5 30t30.5 13q17 0 29.5 -13t12.5 -30v-281h364v281z" />
    <glyph glyph-name="I" unicode="I" horiz-adv-x="206" 
d="M104 703q17 0 29.5 -13t12.5 -31v-620q0 -17 -12.5 -30.5t-29.5 -13.5q-18 0 -31 13t-13 31v620q0 18 12.5 31t31.5 13z" />
    <glyph glyph-name="J" unicode="J" horiz-adv-x="511" 
d="M408 703q17 0 30 -12.5t13 -28.5v-402q0 -140 -64.5 -203.5t-165.5 -63.5q-98 0 -159 52q-27 22 -27 45q0 15 9.5 26t26.5 11q21 0 33 -12q53 -44 117 -44q143 0 143 189v402q0 17 13 29t31 12z" />
    <glyph glyph-name="K" unicode="K" horiz-adv-x="647" 
d="M607 60q10 -12 10 -26q0 -16 -11.5 -27.5t-27.5 -11.5q-17 0 -28 13l-283 307l-122 -125v-152q0 -17 -13 -30t-30 -13t-29.5 13.5t-12.5 30.5v623q0 17 12.5 30t29.5 13t30 -13t13 -30v-360l379 389q16 14 30 14q16 0 27.5 -11.5t11.5 -27.5t-9 -26l-264 -271z" />
    <glyph glyph-name="L" unicode="L" horiz-adv-x="518" 
d="M145 75h300q16 0 27 -10.5t11 -26.5t-11 -27t-27 -11h-339q-20 0 -33 13t-13 33v613q0 18 12.5 31t30.5 13q17 0 29.5 -13t12.5 -31v-584z" />
    <glyph glyph-name="M" unicode="M" horiz-adv-x="864" 
d="M767 703q15 0 26 -10t11 -28v-624q0 -18 -12.5 -31t-30.5 -13q-17 0 -30 13.5t-13 30.5v468l-248 -460q-13 -25 -38 -25q-23 0 -37 25l-249 460v-468q0 -18 -12.5 -31t-30.5 -13t-30.5 13t-12.5 31v624q0 18 11.5 28t26.5 10q29 0 44 -29l290 -530l290 530q17 29 45 29z
" />
    <glyph glyph-name="N" unicode="N" horiz-adv-x="679" 
d="M576 703q17 0 30 -13.5t13 -30.5v-623q0 -19 -11.5 -29.5t-27.5 -10.5q-25 0 -44 25l-390 526v-507q0 -17 -13 -30.5t-30 -13.5t-30 13.5t-13 30.5v623q0 19 11.5 29.5t27.5 10.5q25 0 44 -25l390 -526v507q0 17 13 30.5t30 13.5z" />
    <glyph glyph-name="O" unicode="O" horiz-adv-x="795" 
d="M398 707q136 0 241.5 -102t105.5 -255t-105.5 -255t-241.5 -102q-88 0 -167.5 44.5t-130 127.5t-50.5 185t50.5 185t130 127.5t167.5 44.5zM398 627q-104 0 -182 -78.5t-78 -198.5t78 -198.5t182 -78.5q103 0 181 78.5t78 198.5t-77.5 198.5t-181.5 78.5z" />
    <glyph glyph-name="P" unicode="P" horiz-adv-x="578" 
d="M289 700q115 0 184.5 -61t69.5 -157q0 -100 -68.5 -160t-185.5 -60h-144v-224q0 -17 -12.5 -30t-29.5 -13q-18 0 -30.5 13t-12.5 30v616q0 20 13 33t33 13h183zM287 336q82 0 127.5 36.5t45.5 109.5q0 69 -46 106.5t-127 37.5h-142v-290h142z" />
    <glyph glyph-name="Q" unicode="Q" horiz-adv-x="795" 
d="M635 90l38 -39q10 -10 10 -24q0 -15 -10.5 -25.5t-25.5 -10.5q-14 0 -25 11l-43 45q-85 -54 -181 -54q-88 0 -167.5 44.5t-130 127.5t-50.5 185t50.5 185t130 127.5t167.5 44.5q136 0 241.5 -102t105.5 -255q0 -155 -110 -260zM398 73q63 0 123 33l-101 104
q-11 13 -11 24q0 15 10.5 25t25.5 10q16 0 25 -10l107 -110q80 82 80 201q0 120 -77.5 198.5t-181.5 78.5t-182 -78.5t-78 -198.5t78 -198.5t182 -78.5z" />
    <glyph glyph-name="R" unicode="R" horiz-adv-x="592" 
d="M542 64q10 -13 10 -28q0 -17 -11 -28t-27 -11q-20 0 -32 16l-198 249h-139v-224q0 -17 -12.5 -30t-29.5 -13q-18 0 -30.5 13t-12.5 30v616q0 20 13 33t33 13h183q115 0 184.5 -61t69.5 -157q0 -81 -45 -136t-126 -75zM145 626v-290h142q82 0 127.5 36.5t45.5 109.5
q0 69 -46 106.5t-127 37.5h-142z" />
    <glyph glyph-name="S" unicode="S" horiz-adv-x="558" 
d="M276 707q127 0 193 -98q18 -25 18 -41q0 -14 -10 -24t-26 -10q-22 0 -38 21q-48 76 -135 76q-59 0 -94.5 -28t-35.5 -76q0 -39 26 -66.5t79 -49.5l57 -22q108 -42 158 -85t50 -116q0 -90 -73.5 -142.5t-167.5 -52.5q-70 0 -131 31t-92 87q-14 25 -14 37q0 16 9.5 27
t26.5 11q25 0 42 -26q49 -90 159 -90q63 0 109 29.5t46 88.5q0 50 -32.5 76t-103.5 53l-63 25q-82 32 -126.5 75.5t-44.5 109.5q0 80 61.5 130t152.5 50z" />
    <glyph glyph-name="T" unicode="T" horiz-adv-x="565" 
d="M497 700q15 0 26.5 -11t11.5 -26q0 -16 -11.5 -27t-26.5 -11h-172v-585q0 -18 -12.5 -31.5t-29.5 -13.5q-18 0 -30.5 13.5t-12.5 31.5v585h-173q-15 0 -26 11t-11 27q0 15 11 26t26 11h430z" />
    <glyph glyph-name="U" unicode="U" horiz-adv-x="670" 
d="M563 703q18 0 30 -12t12 -29v-402q0 -123 -75.5 -195t-194.5 -72q-120 0 -195 71.5t-75 195.5v402q0 17 12 29t30 12t30.5 -12t12.5 -29v-401q0 -94 50.5 -144.5t134.5 -50.5t134.5 50.5t50.5 144.5v401q0 17 12.5 29t30.5 12z" />
    <glyph glyph-name="V" unicode="V" 
d="M623 703q18 0 30 -12t12 -28q0 -12 -5 -22l-269 -614q-13 -32 -41 -32t-42 32l-268 614q-5 10 -5 22q0 16 12 28t30 12q27 0 40 -27l233 -540l233 540q13 27 40 27z" />
    <glyph glyph-name="W" unicode="W" horiz-adv-x="1027" 
d="M951 703q17 0 29 -12t12 -28q0 -10 -4 -22l-192 -614q-10 -32 -45 -32q-33 0 -44 32l-193 521l-194 -521q-11 -32 -44 -32q-34 0 -45 32l-191 614q-5 15 -5 22q0 16 12 28t30 12q13 0 24.5 -8t15.5 -19l162 -540l197 539q10 28 37 28q28 0 39 -28l196 -539l162 540
q4 11 15.5 19t25.5 8z" />
    <glyph glyph-name="X" unicode="X" horiz-adv-x="633" 
d="M578 61q10 -13 10 -29t-11.5 -26.5t-28.5 -10.5q-21 0 -36 20l-195 278l-197 -278q-14 -20 -35 -20q-17 0 -28.5 10.5t-11.5 26.5t10 29l214 300l-198 276q-10 15 -10 30t11.5 25.5t28.5 10.5q22 0 36 -20l180 -255l179 255q14 20 36 20q16 0 27.5 -10.5t11.5 -25.5
t-10 -30l-198 -276z" />
    <glyph glyph-name="Y" unicode="Y" horiz-adv-x="604" 
d="M532 703q16 0 27.5 -11.5t11.5 -26.5q0 -14 -8 -25l-219 -317v-286q0 -17 -12.5 -29.5t-29.5 -12.5t-30 12.5t-13 29.5v286l-219 317q-7 11 -7 25q0 15 11.5 26.5t27.5 11.5q20 0 33 -18l197 -289l197 289q13 18 33 18z" />
    <glyph glyph-name="Z" unicode="Z" horiz-adv-x="572" 
d="M469 700q38 0 54 -29.5t-6 -60.5l-385 -535h362q16 0 27 -10.5t11 -26.5t-11 -27t-27 -11h-393q-38 0 -54.5 29.5t6.5 60.5l384 535h-342q-16 0 -27 11t-11 27q0 15 11 26t27 11h374z" />
    <glyph glyph-name="bracketleft" unicode="[" horiz-adv-x="258" 
d="M174 745q39 0 39 -36t-39 -36h-46v-730h46q39 0 39 -37q0 -36 -39 -36h-80q-49 0 -49 49v777q0 49 49 49h80z" />
    <glyph glyph-name="backslash" unicode="\" horiz-adv-x="462" 
d="M74 750q28 0 37 -26l313 -805q7 -18 -4.5 -36t-32.5 -18q-12 0 -22 7.5t-14 18.5l-313 805q-8 18 3.5 36t32.5 18z" />
    <glyph glyph-name="bracketright" unicode="]" horiz-adv-x="258" 
d="M84 745h80q49 0 49 -49v-777q0 -49 -49 -49h-80q-39 0 -39 36q0 37 39 37h46v730h-46q-39 0 -39 36t39 36z" />
    <glyph glyph-name="asciicircum" unicode="^" horiz-adv-x="435" 
d="M385 512q5 -7 5 -15q0 -11 -8 -19.5t-18 -8.5q-13 0 -20 10l-126 144l-126 -144q-8 -9 -20 -9q-11 0 -19 8t-8 19q0 8 5 15l127 172q17 23 41.5 23t40.5 -23z" />
    <glyph glyph-name="underscore" unicode="_" horiz-adv-x="599" 
d="M517 0q15 0 26 -10.5t11 -26.5q0 -14 -11 -25t-26 -11h-436q-14 0 -25 11t-11 25q0 15 10.5 26t25.5 11h436z" />
    <glyph glyph-name="grave" unicode="`" horiz-adv-x="182" 
d="M68 772q29 0 41 -28l65 -143q7 -15 -1 -26t-23 -11q-14 0 -23 11l-94 125q-10 13 -10 27q0 19 13 32t32 13z" />
    <glyph glyph-name="a" unicode="a" horiz-adv-x="607" 
d="M286 526q58 0 106.5 -28t71.5 -77v60q0 17 12 29.5t29 12.5q18 0 30 -12.5t12 -29.5v-445q0 -17 -12.5 -29.5t-29.5 -12.5q-16 0 -28.5 12.5t-12.5 29.5v72q-16 -48 -65 -81.5t-113 -33.5q-94 0 -170 71t-76 196q0 124 76.5 195t169.5 71zM298 66q66 0 118 50.5t52 143.5
q0 95 -51.5 144.5t-118.5 49.5q-68 0 -121.5 -51t-53.5 -143t53.5 -143t121.5 -51z" />
    <glyph glyph-name="b" unicode="b" horiz-adv-x="607" 
d="M321 526q93 0 169.5 -71t76.5 -195q0 -125 -76 -196t-170 -71q-64 0 -113 33.5t-65 81.5v-72q0 -17 -12.5 -29.5t-28.5 -12.5q-17 0 -29.5 12.5t-12.5 29.5v636q0 17 12.5 29.5t29.5 12.5t29.5 -12.5t12.5 -29.5v-249q24 49 72 76t105 27zM309 66q68 0 121.5 51t53.5 143
t-53.5 143t-121.5 51q-67 0 -118.5 -49.5t-51.5 -144.5q0 -93 52 -143.5t118 -50.5z" />
    <glyph glyph-name="c" unicode="c" horiz-adv-x="538" 
d="M463 145q15 0 25 -9.5t10 -24.5t-19 -36q-66 -80 -179 -80q-99 0 -179.5 70.5t-80.5 194.5q0 64 24 116.5t62 84t83 48.5t91 17q113 0 179 -79q19 -24 19 -37q0 -15 -10 -24.5t-25 -9.5q-20 0 -35 19q-44 58 -124 58q-73 0 -127.5 -51t-54.5 -142q0 -90 54.5 -141
t127.5 -51q80 0 124 58q15 19 35 19z" />
    <glyph glyph-name="d" unicode="d" horiz-adv-x="607" 
d="M505 714q17 0 29.5 -12.5t12.5 -29.5v-636q0 -17 -12.5 -29.5t-29.5 -12.5q-16 0 -28.5 12.5t-12.5 29.5v72q-16 -48 -65 -81.5t-113 -33.5q-94 0 -170 71t-76 196q0 124 76.5 195t169.5 71q57 0 105 -27t72 -76v249q0 17 12.5 29.5t29.5 12.5zM298 66q66 0 118 50.5
t52 143.5q0 95 -51.5 144.5t-118.5 49.5q-68 0 -121.5 -51t-53.5 -143t53.5 -143t121.5 -51z" />
    <glyph glyph-name="e" unicode="e" horiz-adv-x="587" 
d="M296 526q94 0 172.5 -69t78.5 -183q0 -47 -53 -47l-368 2q6 -79 58.5 -122t122.5 -43q66 0 116 38q23 15 35 15q14 0 22.5 -8.5t8.5 -22.5q0 -18 -22 -37q-62 -54 -162 -54q-106 0 -185.5 69t-79.5 195q0 85 41 148t98 91t117 28zM296 453q-62 0 -113 -42t-57 -120h340
q-6 78 -56.5 120t-113.5 42z" />
    <glyph glyph-name="f" unicode="f" horiz-adv-x="389" 
d="M359 694q20 -15 20 -32q0 -14 -9 -23.5t-22 -9.5q-11 0 -33 11q-32 15 -58 15q-84 0 -84 -98v-37h116q15 0 25 -9.5t10 -24.5q0 -16 -10 -25.5t-25 -9.5h-116v-415q0 -17 -12.5 -29.5t-29.5 -12.5q-16 0 -28.5 12.5t-12.5 29.5v415h-35q-16 0 -25.5 9.5t-9.5 25.5t9.5 25
t25.5 9h35v40q0 89 48.5 128t110.5 39q65 0 110 -33z" />
    <glyph glyph-name="g" unicode="g" horiz-adv-x="608" 
d="M505 523q18 0 30 -12.5t12 -29.5v-471q0 -59 -23.5 -103t-62 -67t-79.5 -34t-84 -11q-81 0 -140 32q-25 12 -25 35q0 14 10 24t24 10q9 0 22 -5q48 -24 110 -24q73 0 119 37t46 106v98q-16 -48 -65 -81.5t-113 -33.5q-94 0 -170 71t-76 196q0 124 76.5 195t169.5 71
q58 0 106.5 -28t71.5 -77v60q0 17 12 29.5t29 12.5zM298 66q66 0 118 50.5t52 143.5q0 95 -51.5 144.5t-118.5 49.5q-68 0 -121.5 -51t-53.5 -143t53.5 -143t121.5 -51z" />
    <glyph glyph-name="h" unicode="h" horiz-adv-x="585" 
d="M330 525q81 0 138 -54t57 -169v-265q0 -17 -12.5 -29.5t-29.5 -12.5t-29 12.5t-12 29.5v265q0 76 -39 113t-97 37q-69 0 -112 -45.5t-51 -97.5v-272q0 -17 -12.5 -29.5t-28.5 -12.5q-17 0 -29.5 12.5t-12.5 29.5v636q0 17 12.5 29t29.5 12q16 0 28.5 -12t12.5 -29v-273
q6 36 57 80.5t130 44.5z" />
    <glyph glyph-name="i" unicode="i" horiz-adv-x="205" 
d="M103 640q-17 0 -30 12.5t-13 29.5t13 29.5t30 12.5t29.5 -12.5t12.5 -29.5t-12.5 -29.5t-29.5 -12.5zM103 523q17 0 29 -12.5t12 -29.5v-444q0 -18 -12 -30.5t-29 -12.5t-29.5 12.5t-12.5 30.5v444q0 17 12.5 29.5t29.5 12.5z" />
    <glyph glyph-name="j" unicode="j" horiz-adv-x="237" 
d="M135 640q-17 0 -30 12.5t-13 29.5t13 29.5t30 12.5t29.5 -12.5t12.5 -29.5t-12.5 -29.5t-29.5 -12.5zM135 523q17 0 29 -12.5t12 -29.5v-541q0 -75 -35.5 -110t-93.5 -35q-43 0 -76 18q-31 17 -31 42q0 19 15.5 30t33.5 4q35 -15 50 -15q54 0 54 80v527q0 17 12.5 29.5
t29.5 12.5z" />
    <glyph glyph-name="k" unicode="k" horiz-adv-x="526" 
d="M490 58q11 -11 11 -27q0 -15 -10.5 -25.5t-25.5 -10.5q-18 0 -27 11l-216 228l-79 -79v-118q0 -17 -12.5 -29.5t-28.5 -12.5q-17 0 -29.5 12.5t-12.5 29.5v636q0 17 12.5 29t29.5 12q16 0 28.5 -12t12.5 -29v-418l251 256q10 12 28 12q16 0 27 -11t11 -27q0 -17 -11 -26
l-175 -174z" />
    <glyph glyph-name="l" unicode="l" horiz-adv-x="203" 
d="M143 37q0 -17 -12.5 -29.5t-28.5 -12.5q-17 0 -29.5 12.5t-12.5 29.5v636q0 17 12.5 29t29.5 12q16 0 28.5 -12t12.5 -29v-636z" />
    <glyph glyph-name="m" unicode="m" horiz-adv-x="966" 
d="M711 525q81 0 138 -54t57 -169v-265q0 -17 -12 -29.5t-29 -12.5t-29.5 12.5t-12.5 29.5v265q0 76 -38.5 113t-96.5 37q-69 0 -112 -45.5t-51 -97.5v-7v-265q0 -17 -12.5 -29.5t-29.5 -12.5t-29 12.5t-12 29.5v265q0 76 -39 113t-97 37q-69 0 -112 -45.5t-51 -97.5v-272
q0 -17 -12.5 -29.5t-28.5 -12.5q-17 0 -29.5 12.5t-12.5 29.5v444q0 17 12.5 29.5t29.5 12.5t29 -12.5t12 -29.5v-81q6 36 57 80.5t130 44.5q61 0 111 -31.5t71 -98.5q24 53 75.5 91.5t123.5 38.5z" />
    <glyph glyph-name="n" unicode="n" horiz-adv-x="585" 
d="M330 525q81 0 138 -54t57 -169v-265q0 -17 -12.5 -29.5t-29.5 -12.5t-29 12.5t-12 29.5v265q0 76 -39 113t-97 37q-69 0 -112 -45.5t-51 -97.5v-272q0 -17 -12.5 -29.5t-28.5 -12.5q-17 0 -29.5 12.5t-12.5 29.5v444q0 17 12.5 29.5t29.5 12.5t29 -12.5t12 -29.5v-81
q6 36 57 80.5t130 44.5z" />
    <glyph glyph-name="o" unicode="o" horiz-adv-x="601" 
d="M300 526q45 0 90 -17t84 -49t63 -84.5t24 -116.5q0 -124 -81.5 -195t-179.5 -71q-45 0 -89.5 17t-83.5 48.5t-63 84t-24 116.5t24 116.5t63 84.5t84 49t89 17zM300 453q-69 0 -123.5 -52t-54.5 -142t54.5 -141.5t123.5 -51.5t123.5 51.5t54.5 141.5q0 91 -54.5 142.5
t-123.5 51.5z" />
    <glyph glyph-name="p" unicode="p" horiz-adv-x="607" 
d="M321 526q93 0 169.5 -71t76.5 -195q0 -125 -76 -196t-170 -71q-64 0 -112.5 32.5t-64.5 79.5v-258q0 -17 -12.5 -29.5t-29.5 -12.5t-29.5 12.5t-12.5 29.5v634q0 17 12 29.5t30 12.5q17 0 29 -12.5t12 -29.5v-60q23 49 71.5 77t106.5 28zM309 66q68 0 121.5 51t53.5 143
t-53.5 143t-121.5 51q-67 0 -118.5 -49.5t-51.5 -144.5q0 -93 52 -143.5t118 -50.5z" />
    <glyph glyph-name="q" unicode="q" horiz-adv-x="607" 
d="M505 523q18 0 30 -12.5t12 -29.5v-634q0 -17 -12.5 -29.5t-29.5 -12.5t-29.5 12.5t-12.5 29.5v258q-16 -47 -64.5 -79.5t-112.5 -32.5q-94 0 -170 71t-76 196q0 124 76.5 195t169.5 71q58 0 106.5 -28t71.5 -77v60q0 17 12 29.5t29 12.5zM298 66q66 0 118 50.5t52 143.5
q0 95 -51.5 144.5t-118.5 49.5q-68 0 -121.5 -51t-53.5 -143t53.5 -143t121.5 -51z" />
    <glyph glyph-name="r" unicode="r" horiz-adv-x="395" 
d="M320 525q21 0 33 -11t12 -28q0 -18 -14 -29t-40 -11q-67 0 -113.5 -42.5t-54.5 -94.5v-272q0 -17 -12 -29.5t-29 -12.5t-29.5 12.5t-12.5 29.5v444q0 17 12.5 29.5t29.5 12.5t29 -12.5t12 -29.5v-81q6 35 56 80t121 45z" />
    <glyph glyph-name="s" unicode="s" horiz-adv-x="462" 
d="M229 526q114 0 167 -81q10 -17 10 -32t-9.5 -23.5t-24.5 -8.5q-21 0 -39 25q-35 51 -104 51q-45 0 -71 -20.5t-26 -53.5q0 -55 81 -76l64 -16q73 -20 111.5 -53t38.5 -89q0 -72 -58.5 -113t-141.5 -41q-62 0 -110 24.5t-67 61.5q-15 26 -15 41q0 14 9 24.5t25 10.5
q23 0 36 -25q32 -66 122 -66q51 0 84.5 20.5t33.5 57.5q0 54 -83 76l-75 20q-136 36 -136 142q0 64 51 104t127 40z" />
    <glyph glyph-name="t" unicode="t" horiz-adv-x="327" 
d="M259 73q16 4 27 -5t11 -24q0 -25 -27.5 -37t-66.5 -12q-47 0 -75.5 24.5t-28.5 88.5v343h-44q-16 0 -25.5 9.5t-9.5 25.5t9.5 25t25.5 9h44v86q0 17 12.5 29t29.5 12t29 -12t12 -29v-86h80q15 0 25 -9.5t10 -24.5q0 -16 -10 -25.5t-25 -9.5h-80v-340q0 -44 38 -44
q6 0 39 6z" />
    <glyph glyph-name="u" unicode="u" horiz-adv-x="585" 
d="M255 -7q-81 0 -138 54t-57 169v265q0 17 12.5 29.5t29.5 12.5t29 -12.5t12 -29.5v-265q0 -76 39 -113t97 -37q69 0 112 45.5t51 97.5v272q0 17 12.5 29.5t28.5 12.5q17 0 29.5 -12.5t12.5 -29.5v-444q0 -17 -12.5 -29.5t-29.5 -12.5t-29 12.5t-12 29.5v81
q-6 -36 -57 -80.5t-130 -44.5z" />
    <glyph glyph-name="v" unicode="v" horiz-adv-x="535" 
d="M466 523q16 0 27.5 -11.5t11.5 -26.5q0 -4 -5 -19l-191 -436q-14 -32 -42 -32q-27 0 -41 32l-192 436q-4 12 -4 19q0 15 11.5 26.5t27.5 11.5q27 0 39 -28l159 -376l160 376q12 28 39 28z" />
    <glyph glyph-name="w" unicode="w" horiz-adv-x="819" 
d="M749 523q16 0 28 -11.5t12 -27.5q0 -1 -5 -19l-148 -435q-11 -32 -39 -32q-27 0 -40 32l-148 368l-147 -368q-13 -32 -40 -32q-28 0 -39 32l-148 435q-5 18 -5 19q0 16 11.5 27.5t27.5 11.5q28 0 37 -23l121 -375l144 372q11 26 38 26q28 0 39 -26l144 -372l121 375
q8 23 36 23z" />
    <glyph glyph-name="x" unicode="x" horiz-adv-x="498" 
d="M456 54q7 -10 7 -22q0 -15 -11 -26t-26 -11q-17 0 -29 15l-148 195l-147 -195q-12 -15 -30 -15q-14 0 -25.5 11t-11.5 26q0 12 8 22l160 208l-156 202q-8 10 -8 22q0 15 11.5 26t26.5 11q19 0 29 -15l143 -189l143 189q12 15 30 15q15 0 26.5 -11t11.5 -26q0 -11 -9 -22
l-156 -202z" />
    <glyph glyph-name="y" unicode="y" horiz-adv-x="543" 
d="M474 523q16 0 27.5 -11.5t11.5 -26.5q0 -7 -4 -19l-274 -633q-12 -28 -39 -28q-16 0 -26.5 11.5t-10.5 26.5q0 7 4 19l67 156l-196 448q-4 12 -4 19q0 15 11.5 26.5t27.5 11.5q27 0 39 -28l163 -382l164 382q12 28 39 28z" />
    <glyph glyph-name="z" unicode="z" horiz-adv-x="493" 
d="M386 520q40 0 55.5 -31t-12.5 -64l-299 -352h286q15 0 26 -11t11 -25q0 -16 -11 -26.5t-26 -10.5h-316q-40 0 -55 31t13 64l299 353h-269q-15 0 -26 10.5t-11 25.5t11 25.5t26 10.5h298z" />
    <glyph glyph-name="braceleft" unicode="{" horiz-adv-x="296" 
d="M215 745q14 0 25 -10.5t11 -25.5t-11 -25.5t-25 -10.5h-14q-16 0 -25.5 -9t-9.5 -25v-253q0 -13 -7 -21l-39 -59l39 -57q7 -8 7 -20v-253q0 -33 35 -33h14q14 0 25 -11t11 -26t-11 -25.5t-25 -10.5h-46q-36 0 -61 22t-25 66v277l-32 50q-13 21 0 43l32 51v278
q0 43 25.5 65.5t60.5 22.5h46z" />
    <glyph glyph-name="bar" unicode="|" horiz-adv-x="223" 
d="M112 805q14 0 25 -11t11 -26v-926q0 -15 -11 -26t-25 -11q-16 0 -26.5 11t-10.5 26v926q0 15 10.5 26t26.5 11z" />
    <glyph glyph-name="braceright" unicode="}" horiz-adv-x="288" 
d="M73 745h46q35 0 60.5 -22.5t25.5 -65.5v-278l32 -51q13 -22 0 -43l-32 -50v-277q0 -44 -25 -66t-61 -22h-46q-14 0 -25 10.5t-11 25.5t11 26t25 11h14q35 0 35 33v253q0 12 7 20l39 57l-39 59q-7 8 -7 21v253q0 16 -9.5 25t-25.5 9h-14q-14 0 -25 10.5t-11 25.5t11 25.5
t25 10.5z" />
    <glyph glyph-name="asciitilde" unicode="~" horiz-adv-x="484" 
d="M155 354q46 0 100.5 -34t82.5 -34q43 0 58 23q13 15 23 15q23 0 20 -22q-7 -38 -35.5 -60t-72.5 -22q-36 0 -68.5 18.5t-62 37t-57.5 18.5q-42 0 -58 -28q-8 -17 -22 -17q-21 0 -17 21q7 39 36 61.5t73 22.5z" />
    <glyph glyph-name="exclamdown" unicode="&#xa1;" horiz-adv-x="221" 
d="M111 522q20 0 35 -15t15 -36q0 -20 -15 -35t-35 -15q-21 0 -36 15t-15 35q0 21 15 36t36 15zM111 -183q-19 0 -33 13.5t-14 32.5v418q0 19 14 33t33 14t32 -13.5t13 -33.5v-418q0 -19 -13 -32.5t-32 -13.5z" />
    <glyph glyph-name="cent" unicode="&#xa2;" horiz-adv-x="538" 
d="M463 217q14 0 24.5 -9.5t10.5 -23.5q0 -16 -19 -35q-58 -69 -153 -78v-79q0 -15 -10.5 -26t-25.5 -11q-16 0 -26.5 11t-10.5 26v82q-88 17 -150.5 83t-62.5 173t62.5 173t150.5 83v82q0 15 10.5 26t26.5 11q15 0 25.5 -11t10.5 -26v-79q97 -10 153 -76q19 -24 19 -36
q0 -15 -10 -24.5t-25 -9.5q-20 0 -35 19q-36 47 -102 56v-375q67 9 102 55q15 19 35 19zM122 330q0 -72 37 -119t94 -62v363q-57 -16 -94 -63t-37 -119z" />
    <glyph glyph-name="sterling" unicode="&#xa3;" horiz-adv-x="560" 
d="M476 73q15 0 26 -11t11 -25q0 -16 -11 -26.5t-26 -10.5h-398q-20 0 -28 9q-12 12 2 30q103 121 103 203q0 23 -7 49h-60q-13 0 -22.5 10t-9.5 23t9.5 22.5t22.5 9.5h32q-2 3 -7.5 14t-7.5 15.5t-7 14.5t-7 15.5t-6 15.5t-5.5 17.5l-3.5 17.5t-3 19.5t-1 19.5
q0 91 66.5 146.5t159.5 55.5q82 0 142 -47.5t74 -133.5q5 -21 -6.5 -36t-33.5 -15q-33 0 -39 30q-10 62 -45.5 96t-92.5 34q-61 0 -101 -35t-40 -97q0 -16 2 -30.5t9 -33t9.5 -25.5t14.5 -31.5t13 -26.5h127q14 0 23.5 -9.5t9.5 -22.5q0 -14 -10 -23.5t-23 -9.5h-101
q7 -30 7 -53q0 -79 -71 -165h310z" />
    <glyph glyph-name="currency" unicode="&#xa4;" horiz-adv-x="550" 
d="M485 476q0 -66 -36 -121l46 -46l-58 -58l-44 44q-59 -43 -132 -43q-72 0 -132 42l-43 -43l-59 58l46 45q-36 55 -36 122q0 66 37 124l-47 46l59 57l45 -45q56 42 130 42q71 0 131 -42l45 45l58 -57l-47 -47q37 -56 37 -123zM108 476q0 -59 43 -105.5t110 -46.5
q66 0 109.5 46.5t43.5 105.5q0 58 -43.5 105t-109.5 47q-67 0 -110 -47t-43 -105z" />
    <glyph glyph-name="yen" unicode="&#xa5;" horiz-adv-x="604" 
d="M563 640l-219 -317v-24h81q13 0 22.5 -9t9.5 -22q0 -12 -9.5 -21.5t-22.5 -9.5h-81v-44h81q13 0 22.5 -9.5t9.5 -21.5q0 -13 -9.5 -22t-22.5 -9h-81v-94q0 -17 -12.5 -29.5t-29.5 -12.5t-30 12.5t-13 29.5v94h-80q-13 0 -22.5 9t-9.5 22q0 12 9.5 21.5t22.5 9.5h80v44
h-80q-13 0 -22.5 9.5t-9.5 21.5q0 13 9.5 22t22.5 9h80v24l-219 317q-7 11 -7 25q0 15 11.5 26.5t27.5 11.5q20 0 33 -18l197 -289l197 289q13 18 33 18q16 0 27.5 -11.5t11.5 -26.5q0 -14 -8 -25z" />
    <glyph glyph-name="brokenbar" unicode="&#xa6;" horiz-adv-x="223" 
d="M112 805q14 0 25 -11t11 -26v-216q0 -15 -11 -25.5t-25 -10.5q-16 0 -26.5 10.5t-10.5 25.5v216q0 15 10.5 26t26.5 11zM112 95q14 0 25 -11t11 -26v-216q0 -15 -11 -26t-25 -11q-16 0 -26.5 11t-10.5 26v216q0 15 10.5 26t26.5 11z" />
    <glyph glyph-name="section" unicode="&#xa7;" horiz-adv-x="560" 
d="M279 744q76 0 133.5 -36t88.5 -93q11 -21 4 -36.5t-28 -21.5q-20 -6 -31.5 1t-23.5 28q-20 34 -57.5 55.5t-85.5 21.5q-58 0 -95.5 -28.5t-37.5 -75.5q0 -43 25.5 -68.5t75.5 -41.5l76 -25q197 -62 197 -211q0 -54 -38 -102q38 -50 38 -113q0 -86 -75.5 -139.5
t-168.5 -53.5q-76 0 -137 38.5t-93 104.5q-20 44 24 59q19 6 31.5 -1.5t24.5 -29.5q22 -42 61 -66t89 -24q64 0 111 30.5t47 81.5q0 89 -117 127l-93 31q-165 54 -165 186q0 56 39 107q-39 47 -39 110q0 80 65 132.5t155 52.5zM165 397q-19 -22 -19 -55q0 -42 25.5 -67.5
t75.5 -41.5l76 -25q59 -18 97 -43q14 26 14 48q0 89 -117 129l-93 29q-32 11 -59 26z" />
    <glyph glyph-name="dieresis" unicode="&#xa8;" horiz-adv-x="332" 
d="M47 612q-19 0 -33 14t-14 33t14 33t33 14t33 -14t14 -33t-14 -33t-33 -14zM285 612q-19 0 -33 14t-14 33t14 33t33 14t33 -14t14 -33t-14 -33t-33 -14z" />
    <glyph glyph-name="copyright" unicode="&#xa9;" horiz-adv-x="808" 
d="M404 707q140 0 247 -101.5t107 -255.5t-107 -255.5t-247 -101.5t-247 101.5t-107 255.5t107 255.5t247 101.5zM404 628q-108 0 -188 -79t-80 -199t80 -199t188 -79t188 79t80 199t-80 199t-188 79zM410 557q48 0 89 -20t42 -47q1 -14 -10 -24.5t-27 -10.5q-10 0 -21 9
q-29 22 -69 22q-53 0 -93 -39t-40 -97t39.5 -97.5t93.5 -39.5q34 0 69 23q12 10 23 10q14 0 24.5 -10t10.5 -25q-1 -27 -43.5 -47.5t-89.5 -20.5q-81 0 -141 59t-60 148t60.5 148t142.5 59z" />
    <glyph glyph-name="ordfeminine" unicode="&#xaa;" horiz-adv-x="387" 
d="M186 709q133 0 133 -151v-96q0 -30 5 -43q10 -36 -17 -36q-32 0 -39 21q-4 13 -5 25q-37 -48 -108 -48q-51 0 -83 25.5t-32 71.5q0 92 126 103l90 8q0 33 -19.5 49.5t-53.5 16.5q-41 0 -71 -24q-27 -19 -43 -3q-21 19 -3 39q47 42 120 42zM256 537q-26 -5 -89 -10
q-66 -7 -66 -47q0 -21 16.5 -33.5t45.5 -12.5q34 0 59 19.5t34 40.5v43z" />
    <glyph glyph-name="guillemotleft" unicode="&#xab;" horiz-adv-x="430" 
d="M40 293q0 19 22 41l117 111q13 11 27.5 5t14.5 -22q0 -13 -18 -31l-101 -106l101 -106q18 -18 18 -31q0 -16 -14.5 -22t-27.5 5l-117 111q-22 22 -22 41v4zM209 293q0 19 22 41l117 111q14 11 28 5t14 -22q0 -13 -18 -31l-101 -106l101 -106q18 -18 18 -31q0 -16 -14 -22
t-28 5l-117 111q-22 22 -22 41v4z" />
    <glyph glyph-name="logicalnot" unicode="&#xac;" horiz-adv-x="496" 
d="M404 313q20 0 33.5 -13t13.5 -33v-99q0 -17 -12.5 -29t-29.5 -12t-29 12t-12 29v78h-289q-14 0 -24 10t-10 23q0 14 10 24t24 10h325z" />
    <glyph glyph-name="uni00AD" unicode="&#xad;" horiz-adv-x="420" 
d="M341 313q14 0 24 -10t10 -24q0 -13 -10 -23t-24 -10h-262q-14 0 -24 10t-10 23q0 14 10 24t24 10h262z" />
    <glyph glyph-name="registered" unicode="&#xae;" horiz-adv-x="808" 
d="M404 707q140 0 247 -101.5t107 -255.5t-107 -255.5t-247 -101.5t-247 101.5t-107 255.5t107 255.5t247 101.5zM404 628q-108 0 -188 -79t-80 -199t80 -199t188 -79t188 79t80 199t-80 199t-188 79zM398 541q65 0 103.5 -33t38.5 -84q0 -41 -24.5 -71.5t-71.5 -42.5
l106 -145h-58l-102 143h-62v-143h-54v376h124zM402 492h-75v-135h75q39 0 61 17.5t22 49.5t-22 50t-61 18z" />
    <glyph glyph-name="macron" unicode="&#xaf;" horiz-adv-x="377" 
d="M340 700q15 0 26 -10.5t11 -25.5t-11 -25.5t-26 -10.5h-303q-15 0 -26 10.5t-11 25.5t11 25.5t26 10.5h303z" />
    <glyph glyph-name="degree" unicode="&#xb0;" horiz-adv-x="384" 
d="M192 719q61 0 104 -43t43 -103q0 -61 -43 -104t-104 -43t-104 43t-43 104q0 60 43 103t104 43zM192 657q-37 0 -60 -25.5t-23 -58.5t23 -58.5t60 -25.5t60 25.5t23 58.5t-23 58.5t-60 25.5z" />
    <glyph glyph-name="plusminus" unicode="&#xb1;" horiz-adv-x="447" 
d="M81 323q-14 0 -25 10t-11 23q0 14 11 24t25 10h109v107q0 14 10 25t23 11q14 0 24 -11t10 -25v-107h108q15 0 26 -10t11 -24q0 -13 -11.5 -23t-25.5 -10h-108v-110q0 -15 -10 -26t-24 -11q-13 0 -23 11.5t-10 25.5v110h-109zM365 68q15 0 26 -10t11 -24q0 -13 -11.5 -23
t-25.5 -10h-284q-14 0 -25 10t-11 23q0 14 11 24t25 10h284z" />
    <glyph glyph-name="uni00B2" unicode="&#xb2;" horiz-adv-x="261" 
d="M129 704q34 0 59 -22.5t25 -52.5q0 -26 -14.5 -47t-53.5 -61l-47 -49h118v-32h-168v32l68 69q28 29 36.5 38.5t15.5 22.5t7 27q0 18 -14 31t-32 13q-19 0 -33 -13t-14 -37v-14h-37v14q0 35 24.5 58t59.5 23z" />
    <glyph glyph-name="uni00B3" unicode="&#xb3;" horiz-adv-x="273" 
d="M136 703q32 0 56 -20.5t24 -47.5q0 -32 -30 -53q42 -18 42 -66q0 -34 -27.5 -57t-64.5 -23q-41 0 -67 27t-24 64h38q-2 -24 13.5 -41.5t39.5 -17.5q22 0 38 13.5t16 34.5q0 53 -74 46v30q63 3 63 43q0 15 -12.5 26t-30.5 11q-22 0 -34.5 -15t-11.5 -41h-38
q-2 38 22.5 62.5t61.5 24.5z" />
    <glyph glyph-name="acute" unicode="&#xb4;" horiz-adv-x="164" 
d="M114 772q19 0 32 -13t13 -32q0 -14 -10 -27l-94 -125q-9 -11 -23 -11q-15 0 -23 11t-1 26l65 143q12 28 41 28z" />
    <glyph glyph-name="uni00B5" unicode="&#xb5;" horiz-adv-x="590" 
d="M488 523q17 0 29.5 -12.5t12.5 -29.5v-444q0 -17 -12.5 -29.5t-29.5 -12.5t-29 12.5t-12 29.5v81q-6 -36 -57 -80.5t-130 -44.5q-67 0 -117 36v-182q0 -17 -12 -29.5t-29 -12.5t-29.5 12.5t-12.5 29.5v635q0 17 12.5 29t29.5 12h2h3q17 0 29 -12.5t12 -29.5v-265
q0 -76 39 -113t97 -37q69 0 112 45.5t51 97.5v272q0 17 12.5 29.5t28.5 12.5z" />
    <glyph glyph-name="paragraph" unicode="&#xb6;" horiz-adv-x="782" 
d="M670 705q17 0 29.5 -12.5t12.5 -29.5v-626q0 -17 -12.5 -29.5t-29.5 -12.5q-16 0 -28.5 12.5t-12.5 29.5v626q0 17 12 29.5t29 12.5zM513 700q20 0 33 -13t13 -33v-616q0 -17 -12.5 -30t-30.5 -13q-17 0 -29.5 13t-12.5 30v224h-144q-117 0 -185.5 60t-68.5 160
q0 96 69.5 157t184.5 61h183zM332 336h142v290h-142q-81 0 -127 -37.5t-46 -106.5q0 -73 45.5 -109.5t127.5 -36.5z" />
    <glyph glyph-name="periodcentered" unicode="&#xb7;" horiz-adv-x="201" 
d="M101 231q-21 0 -36 15t-15 36q0 20 15 35t36 15q20 0 35 -15t15 -35q0 -21 -15 -36t-35 -15z" />
    <glyph glyph-name="cedilla" unicode="&#xb8;" horiz-adv-x="168" 
d="M80 -49q36 -2 62 -26t26 -59q0 -46 -42.5 -70.5t-105.5 -19.5q-10 1 -15.5 7t-3.5 13q4 13 23 13q35 -1 55.5 15t20.5 40q0 22 -17 34.5t-39 6.5q-20 -7 -30 10q-8 13 0 28l36 57h78z" />
    <glyph glyph-name="uni00B9" unicode="&#xb9;" horiz-adv-x="192" 
d="M117 701v-261h-37v221l-17 -11l-18 31l35 20h37z" />
    <glyph glyph-name="ordmasculine" unicode="&#xba;" horiz-adv-x="387" 
d="M193 705q59 0 106.5 -44t47.5 -117t-47.5 -117.5t-106.5 -44.5q-58 0 -105.5 44.5t-47.5 117.5t47.5 117t105.5 44zM193 646q-38 0 -65.5 -27t-27.5 -75t27.5 -75.5t65.5 -27.5t66 27.5t28 75.5t-27.5 75t-66.5 27z" />
    <glyph glyph-name="guillemotright" unicode="&#xbb;" horiz-adv-x="430" 
d="M221 293v-4q0 -19 -22 -41l-117 -111q-14 -11 -28 -5t-14 22q0 13 18 31l101 106l-101 106q-18 18 -18 31q0 16 14 22t28 -5l117 -111q22 -22 22 -41zM390 293v-4q0 -19 -22 -41l-117 -111q-13 -11 -27.5 -5t-14.5 22q0 13 18 31l101 106l-101 106q-18 18 -18 31
q0 16 14.5 22t27.5 -5l117 -111q22 -22 22 -41z" />
    <glyph glyph-name="onequarter" unicode="&#xbc;" horiz-adv-x="569" 
d="M100 701v-261h-37v221l-17 -11l-18 31l35 20h37zM503 700l-430 -700h-48l436 700h42zM517 261v-154h27v-31h-27v-76h-37v76h-132l132 185h37zM480 202l-65 -95h65v95z" />
    <glyph glyph-name="onehalf" unicode="&#xbd;" horiz-adv-x="544" 
d="M100 701v-261h-37v221l-17 -11l-18 31l35 20h37zM503 700l-430 -700h-48l436 700h42zM432 264q34 0 59 -22.5t25 -52.5q0 -26 -14.5 -47t-53.5 -61l-47 -49h118v-32h-168v32l68 69q28 29 36.5 38.5t15.5 22.5t7 27q0 18 -14 31t-32 13q-19 0 -33 -13t-14 -37v-14h-37v14
q0 35 24.5 58t59.5 23z" />
    <glyph glyph-name="threequarters" unicode="&#xbe;" horiz-adv-x="587" 
d="M116 703q32 0 56 -20.5t24 -47.5q0 -32 -30 -53q42 -18 42 -66q0 -34 -27.5 -57t-64.5 -23q-41 0 -67 27t-24 64h38q-2 -24 13.5 -41.5t39.5 -17.5q22 0 38 13.5t16 34.5q0 53 -74 46v30q63 3 63 43q0 15 -12.5 26t-30.5 11q-22 0 -34.5 -15t-11.5 -41h-38
q-2 38 22.5 62.5t61.5 24.5zM531 700l-430 -700h-48l436 700h42zM535 261v-154h27v-31h-27v-76h-37v76h-132l132 185h37zM498 202l-65 -95h65v95z" />
    <glyph glyph-name="questiondown" unicode="&#xbf;" horiz-adv-x="507" 
d="M247 522q21 0 36 -15t15 -36q0 -20 -15 -35t-36 -15q-20 0 -35 15t-15 35q0 21 15 36t35 15zM252 -187q-91 0 -154 54.5t-63 139.5q0 42 17.5 75.5t42.5 56.5t49.5 44.5t42 49t17.5 60.5q0 18 11.5 30.5t30.5 12.5q20 0 31.5 -12.5t11.5 -30.5q0 -39 -17.5 -72t-43 -57
t-50.5 -46.5t-42.5 -51.5t-17.5 -61q0 -49 37.5 -84t96.5 -35q61 0 98 39t36 107q0 18 11.5 30.5t31.5 12.5q21 0 32 -12.5t11 -30.5q0 -100 -64.5 -159.5t-155.5 -59.5z" />
    <glyph glyph-name="Agrave" unicode="&#xc0;" 
d="M335 755l-94 125q-10 13 -10 27q0 19 13 32t32 13q29 0 41 -28l65 -143q7 -15 -1 -26t-23 -11q-14 0 -23 11zM660 58q5 -10 5 -22q0 -16 -12 -28t-30 -12q-27 0 -40 27l-71 164h-324l-71 -164q-13 -27 -40 -27q-18 0 -30 12t-12 28q0 12 5 22l268 614q14 32 42 32t41 -32
zM218 256h264l-132 307z" />
    <glyph glyph-name="Aacute" unicode="&#xc1;" 
d="M330 744q-15 0 -23 11t-1 26l65 143q12 28 41 28q19 0 32 -13t13 -32q0 -14 -10 -27l-94 -125q-9 -11 -23 -11zM660 58q5 -10 5 -22q0 -16 -12 -28t-30 -12q-27 0 -40 27l-71 164h-324l-71 -164q-13 -27 -40 -27q-18 0 -30 12t-12 28q0 12 5 22l268 614q14 32 42 32
t41 -32zM218 256h264l-132 307z" />
    <glyph glyph-name="Acircumflex" unicode="&#xc2;" 
d="M236 800q-15 0 -21 14t5 28l88 116q18 22 40 22h4q23 0 41 -22l88 -116q11 -14 5 -28t-21 -14q-16 0 -31 18l-84 100l-83 -100q-15 -18 -31 -18zM660 58q5 -10 5 -22q0 -16 -12 -28t-30 -12q-27 0 -40 27l-71 164h-324l-71 -164q-13 -27 -40 -27q-18 0 -30 12t-12 28
q0 12 5 22l268 614q14 32 42 32t41 -32zM218 256h264l-132 307z" />
    <glyph glyph-name="Atilde" unicode="&#xc3;" 
d="M191 800q-11 0 -17 8.5t-4 17.5q7 39 36.5 61.5t66.5 22.5q41 0 90.5 -33t73.5 -33q39 0 51 28q7 13 21 13q11 0 17.5 -8.5t4.5 -19.5q-8 -38 -36 -59.5t-65 -21.5q-39 0 -89.5 35.5t-78.5 35.5q-40 0 -50 -33q-6 -14 -21 -14zM660 58q5 -10 5 -22q0 -16 -12 -28t-30 -12
q-27 0 -40 27l-71 164h-324l-71 -164q-13 -27 -40 -27q-18 0 -30 12t-12 28q0 12 5 22l268 614q14 32 42 32t41 -32zM218 256h264l-132 307z" />
    <glyph glyph-name="Adieresis" unicode="&#xc4;" 
d="M231 792q-19 0 -33 14t-14 33t14 33t33 14t33 -14t14 -33t-14 -33t-33 -14zM469 792q-19 0 -33 14t-14 33t14 33t33 14t33 -14t14 -33t-14 -33t-33 -14zM660 58q5 -10 5 -22q0 -16 -12 -28t-30 -12q-27 0 -40 27l-71 164h-324l-71 -164q-13 -27 -40 -27q-18 0 -30 12
t-12 28q0 12 5 22l268 614q14 32 42 32t41 -32zM218 256h264l-132 307z" />
    <glyph glyph-name="Aring" unicode="&#xc5;" 
d="M351 789q-39 0 -66 26.5t-27 63.5q0 38 27 65t66 27q37 0 64 -27.5t27 -64.5t-27 -63.5t-64 -26.5zM350 917q-15 0 -25.5 -11t-10.5 -26t10.5 -25.5t25.5 -10.5q14 0 25 10.5t11 25.5t-11 26t-25 11zM660 58q5 -10 5 -22q0 -16 -12 -28t-30 -12q-27 0 -40 27l-71 164
h-324l-71 -164q-13 -27 -40 -27q-18 0 -30 12t-12 28q0 12 5 22l268 614q14 32 42 32t41 -32zM218 256h264l-132 307z" />
    <glyph glyph-name="AE" unicode="&#xc6;" horiz-adv-x="963" 
d="M890 75q15 0 26.5 -11t11.5 -26q0 -16 -11.5 -27t-26.5 -11h-368q-20 0 -33 13t-13 33v156h-235l-119 -176q-17 -26 -50 -26h-2q-25 0 -32.5 14.5t6.5 34.5l426 625q17 26 50 26h360q15 0 26.5 -11t11.5 -26q0 -16 -11.5 -27t-26.5 -11h-319v-237h225q15 0 26 -11t11 -25
q0 -15 -11 -25.5t-26 -10.5h-225v-241h329zM290 274h186v274z" />
    <glyph glyph-name="Ccedilla" unicode="&#xc7;" horiz-adv-x="653" 
d="M579 137q16 0 27.5 -10.5t11.5 -27.5q0 -26 -35 -49q-66 -49 -155 -56l-42 -43q36 -2 62 -26t26 -59q0 -46 -42.5 -70.5t-105.5 -19.5q-10 1 -15.5 7t-3.5 13q4 13 23 13q35 -1 55.5 15t20.5 40q0 22 -17 34.5t-39 6.5q-20 -7 -30 10q-8 13 0 28l34 53
q-125 18 -214.5 116.5t-89.5 237.5q0 153 106.5 255t245.5 102q103 0 181 -56q35 -24 35 -50q0 -17 -11.5 -27.5t-27.5 -10.5q-17 0 -42 19q-55 45 -136 45q-104 0 -183.5 -80t-79.5 -197t79.5 -197t182.5 -80q82 0 137 45q25 19 42 19z" />
    <glyph glyph-name="Egrave" unicode="&#xc8;" horiz-adv-x="547" 
d="M216 952q29 0 41 -28l65 -143q7 -15 -1 -26t-23 -11q-14 0 -23 11l-94 125q-10 13 -10 27q0 19 13 32t32 13zM145 75h329q15 0 26.5 -11t11.5 -26q0 -16 -11.5 -27t-26.5 -11h-368q-20 0 -33 13t-13 33v608q0 20 13 33t33 13h358q15 0 26.5 -11t11.5 -26q0 -16 -11.5 -27
t-26.5 -11h-319v-237h225q15 0 26 -11t11 -25q0 -15 -11 -25.5t-26 -10.5h-225v-241z" />
    <glyph glyph-name="Eacute" unicode="&#xc9;" horiz-adv-x="547" 
d="M352 952q19 0 32 -13t13 -32q0 -14 -10 -27l-94 -125q-9 -11 -23 -11q-15 0 -23 11t-1 26l65 143q12 28 41 28zM145 75h329q15 0 26.5 -11t11.5 -26q0 -16 -11.5 -27t-26.5 -11h-368q-20 0 -33 13t-13 33v608q0 20 13 33t33 13h358q15 0 26.5 -11t11.5 -26
q0 -16 -11.5 -27t-26.5 -11h-319v-237h225q15 0 26 -11t11 -25q0 -15 -11 -25.5t-26 -10.5h-225v-241z" />
    <glyph glyph-name="Ecircumflex" unicode="&#xca;" horiz-adv-x="547" 
d="M292 980q23 0 41 -22l88 -116q11 -14 5 -28t-21 -14q-16 0 -31 18l-84 100l-83 -100q-15 -18 -31 -18q-15 0 -21 14t5 28l88 116q18 22 40 22h4zM145 75h329q15 0 26.5 -11t11.5 -26q0 -16 -11.5 -27t-26.5 -11h-368q-20 0 -33 13t-13 33v608q0 20 13 33t33 13h358
q15 0 26.5 -11t11.5 -26q0 -16 -11.5 -27t-26.5 -11h-319v-237h225q15 0 26 -11t11 -25q0 -15 -11 -25.5t-26 -10.5h-225v-241z" />
    <glyph glyph-name="Edieresis" unicode="&#xcb;" horiz-adv-x="547" 
d="M171 792q-19 0 -33 14t-14 33t14 33t33 14t33 -14t14 -33t-14 -33t-33 -14zM409 792q-19 0 -33 14t-14 33t14 33t33 14t33 -14t14 -33t-14 -33t-33 -14zM145 75h329q15 0 26.5 -11t11.5 -26q0 -16 -11.5 -27t-26.5 -11h-368q-20 0 -33 13t-13 33v608q0 20 13 33t33 13
h358q15 0 26.5 -11t11.5 -26q0 -16 -11.5 -27t-26.5 -11h-319v-237h225q15 0 26 -11t11 -25q0 -15 -11 -25.5t-26 -10.5h-225v-241z" />
    <glyph glyph-name="Igrave" unicode="&#xcc;" horiz-adv-x="206" 
d="M30 952q29 0 41 -28l65 -143q7 -15 -1 -26t-23 -11q-14 0 -23 11l-94 125q-10 13 -10 27q0 19 13 32t32 13zM104 703q17 0 29.5 -13t12.5 -31v-620q0 -17 -12.5 -30.5t-29.5 -13.5q-18 0 -31 13t-13 31v620q0 18 12.5 31t31.5 13z" />
    <glyph glyph-name="Iacute" unicode="&#xcd;" horiz-adv-x="206" 
d="M166 952q19 0 32 -13t13 -32q0 -14 -10 -27l-94 -125q-9 -11 -23 -11q-15 0 -23 11t-1 26l65 143q12 28 41 28zM104 703q17 0 29.5 -13t12.5 -31v-620q0 -17 -12.5 -30.5t-29.5 -13.5q-18 0 -31 13t-13 31v620q0 18 12.5 31t31.5 13z" />
    <glyph glyph-name="Icircumflex" unicode="&#xce;" horiz-adv-x="206" 
d="M106 980q23 0 41 -22l88 -116q11 -14 5 -28t-21 -14q-16 0 -31 18l-84 100l-83 -100q-15 -18 -31 -18q-15 0 -21 14t5 28l88 116q18 22 40 22h4zM104 703q17 0 29.5 -13t12.5 -31v-620q0 -17 -12.5 -30.5t-29.5 -13.5q-18 0 -31 13t-13 31v620q0 18 12.5 31t31.5 13z" />
    <glyph glyph-name="Idieresis" unicode="&#xcf;" horiz-adv-x="206" 
d="M-15 792q-19 0 -33 14t-14 33t14 33t33 14t33 -14t14 -33t-14 -33t-33 -14zM223 792q-19 0 -33 14t-14 33t14 33t33 14t33 -14t14 -33t-14 -33t-33 -14zM104 703q17 0 29.5 -13t12.5 -31v-620q0 -17 -12.5 -30.5t-29.5 -13.5q-18 0 -31 13t-13 31v620q0 18 12.5 31
t31.5 13z" />
    <glyph glyph-name="Eth" unicode="&#xd0;" horiz-adv-x="705" 
d="M314 700q158 0 254.5 -93t96.5 -257t-96.5 -257t-254.5 -93h-150q-20 0 -33 13t-13 33v268h-24q-14 0 -24 10t-10 23q0 14 10 24t24 10h24v273q0 20 13 33t33 13h150zM314 73q128 0 197 70.5t69 206.5t-69 206.5t-197 70.5h-111v-246h153q14 0 24 -10t10 -24
q0 -13 -10 -23t-24 -10h-153v-241h111z" />
    <glyph glyph-name="Ntilde" unicode="&#xd1;" horiz-adv-x="679" 
d="M263 910q33 0 62.5 -16.5t55 -33t46.5 -16.5q39 0 51 28q7 13 21 13q11 0 17.5 -8.5t4.5 -19.5q-8 -38 -36 -59.5t-65 -21.5q-40 0 -90 35.5t-78 35.5q-40 0 -50 -33q-6 -14 -21 -14q-11 0 -17 8.5t-4 17.5q7 39 36.5 61.5t66.5 22.5zM576 703q17 0 30 -13.5t13 -30.5
v-623q0 -19 -11.5 -29.5t-27.5 -10.5q-25 0 -44 25l-390 526v-507q0 -17 -13 -30.5t-30 -13.5t-30 13.5t-13 30.5v623q0 19 11.5 29.5t27.5 10.5q25 0 44 -25l390 -526v507q0 17 13 30.5t30 13.5z" />
    <glyph glyph-name="Ograve" unicode="&#xd2;" horiz-adv-x="795" 
d="M324 952q29 0 41 -28l65 -143q7 -15 -1 -26t-23 -11q-14 0 -23 11l-94 125q-10 13 -10 27q0 19 13 32t32 13zM398 707q136 0 241.5 -102t105.5 -255t-105.5 -255t-241.5 -102q-88 0 -167.5 44.5t-130 127.5t-50.5 185t50.5 185t130 127.5t167.5 44.5zM398 627
q-104 0 -182 -78.5t-78 -198.5t78 -198.5t182 -78.5q103 0 181 78.5t78 198.5t-77.5 198.5t-181.5 78.5z" />
    <glyph glyph-name="Oacute" unicode="&#xd3;" horiz-adv-x="795" 
d="M460 952q19 0 32 -13t13 -32q0 -14 -10 -27l-94 -125q-9 -11 -23 -11q-15 0 -23 11t-1 26l65 143q12 28 41 28zM398 707q136 0 241.5 -102t105.5 -255t-105.5 -255t-241.5 -102q-88 0 -167.5 44.5t-130 127.5t-50.5 185t50.5 185t130 127.5t167.5 44.5zM398 627
q-104 0 -182 -78.5t-78 -198.5t78 -198.5t182 -78.5q103 0 181 78.5t78 198.5t-77.5 198.5t-181.5 78.5z" />
    <glyph glyph-name="Ocircumflex" unicode="&#xd4;" horiz-adv-x="795" 
d="M400 980q23 0 41 -22l88 -116q11 -14 5 -28t-21 -14q-16 0 -31 18l-84 100l-83 -100q-15 -18 -31 -18q-15 0 -21 14t5 28l88 116q18 22 40 22h4zM398 707q136 0 241.5 -102t105.5 -255t-105.5 -255t-241.5 -102q-88 0 -167.5 44.5t-130 127.5t-50.5 185t50.5 185
t130 127.5t167.5 44.5zM398 627q-104 0 -182 -78.5t-78 -198.5t78 -198.5t182 -78.5q103 0 181 78.5t78 198.5t-77.5 198.5t-181.5 78.5z" />
    <glyph glyph-name="Otilde" unicode="&#xd5;" horiz-adv-x="795" 
d="M321 910q41 0 90.5 -33t73.5 -33q39 0 51 28q7 13 21 13q11 0 17.5 -8.5t4.5 -19.5q-8 -38 -36 -59.5t-65 -21.5q-40 0 -90 35.5t-78 35.5q-40 0 -50 -33q-6 -14 -21 -14q-11 0 -17 8.5t-4 17.5q7 39 36.5 61.5t66.5 22.5zM398 707q136 0 241.5 -102t105.5 -255
t-105.5 -255t-241.5 -102q-88 0 -167.5 44.5t-130 127.5t-50.5 185t50.5 185t130 127.5t167.5 44.5zM398 627q-104 0 -182 -78.5t-78 -198.5t78 -198.5t182 -78.5q103 0 181 78.5t78 198.5t-77.5 198.5t-181.5 78.5z" />
    <glyph glyph-name="Odieresis" unicode="&#xd6;" horiz-adv-x="795" 
d="M279 792q-19 0 -33 14t-14 33t14 33t33 14t33 -14t14 -33t-14 -33t-33 -14zM517 792q-19 0 -33 14t-14 33t14 33t33 14t33 -14t14 -33t-14 -33t-33 -14zM398 707q136 0 241.5 -102t105.5 -255t-105.5 -255t-241.5 -102q-88 0 -167.5 44.5t-130 127.5t-50.5 185t50.5 185
t130 127.5t167.5 44.5zM398 627q-104 0 -182 -78.5t-78 -198.5t78 -198.5t182 -78.5q103 0 181 78.5t78 198.5t-77.5 198.5t-181.5 78.5z" />
    <glyph glyph-name="multiply" unicode="&#xd7;" horiz-adv-x="362" 
d="M305 196q11 -11 11.5 -25t-9.5 -25q-9 -10 -23.5 -9t-25.5 12l-76 76l-78 -78q-11 -10 -25.5 -10.5t-24.5 9.5q-10 9 -9 23.5t12 25.5l78 78l-77 76q-11 11 -12 25.5t9 24.5t24.5 9t25.5 -11l77 -77l75 75q11 11 25.5 12t23.5 -9q10 -10 9.5 -24.5t-11.5 -25.5l-75 -75z
" />
    <glyph glyph-name="Oslash" unicode="&#xd8;" horiz-adv-x="795" 
d="M587 648q72 -48 115 -125.5t43 -172.5q0 -153 -105.5 -255t-241.5 -102q-60 0 -115 21l-21 -45q-12 -23 -37 -23q-17 0 -28.5 11.5t-11.5 28.5q0 10 3 18l22 47q-73 48 -116.5 125.5t-43.5 173.5q0 102 50.5 185t130 127.5t167.5 44.5q60 0 116 -21l19 40q12 23 37 23
q17 0 28.5 -11.5t11.5 -28.5q0 -11 -3 -18zM138 350q0 -142 108 -225l233 488q-40 14 -81 14q-104 0 -182 -78.5t-78 -198.5zM398 73q103 0 181 78.5t78 198.5q0 142 -106 224l-233 -487q40 -14 80 -14z" />
    <glyph glyph-name="Ugrave" unicode="&#xd9;" horiz-adv-x="670" 
d="M261 952q29 0 41 -28l65 -143q7 -15 -1 -26t-23 -11q-14 0 -23 11l-94 125q-10 13 -10 27q0 19 13 32t32 13zM563 703q18 0 30 -12t12 -29v-402q0 -123 -75.5 -195t-194.5 -72q-120 0 -195 71.5t-75 195.5v402q0 17 12 29t30 12t30.5 -12t12.5 -29v-401
q0 -94 50.5 -144.5t134.5 -50.5t134.5 50.5t50.5 144.5v401q0 17 12.5 29t30.5 12z" />
    <glyph glyph-name="Uacute" unicode="&#xda;" horiz-adv-x="670" 
d="M397 952q19 0 32 -13t13 -32q0 -14 -10 -27l-94 -125q-9 -11 -23 -11q-15 0 -23 11t-1 26l65 143q12 28 41 28zM563 703q18 0 30 -12t12 -29v-402q0 -123 -75.5 -195t-194.5 -72q-120 0 -195 71.5t-75 195.5v402q0 17 12 29t30 12t30.5 -12t12.5 -29v-401
q0 -94 50.5 -144.5t134.5 -50.5t134.5 50.5t50.5 144.5v401q0 17 12.5 29t30.5 12z" />
    <glyph glyph-name="Ucircumflex" unicode="&#xdb;" horiz-adv-x="670" 
d="M337 980q23 0 41 -22l88 -116q11 -14 5 -28t-21 -14q-16 0 -31 18l-84 100l-83 -100q-15 -18 -31 -18q-15 0 -21 14t5 28l88 116q18 22 40 22h4zM563 703q18 0 30 -12t12 -29v-402q0 -123 -75.5 -195t-194.5 -72q-120 0 -195 71.5t-75 195.5v402q0 17 12 29t30 12
t30.5 -12t12.5 -29v-401q0 -94 50.5 -144.5t134.5 -50.5t134.5 50.5t50.5 144.5v401q0 17 12.5 29t30.5 12z" />
    <glyph glyph-name="Udieresis" unicode="&#xdc;" horiz-adv-x="670" 
d="M216 792q-20 0 -33.5 14t-13.5 33t14 33t33 14t33 -14t14 -33t-13.5 -33t-33.5 -14zM454 792q-20 0 -33.5 14t-13.5 33t14 33t33 14t33 -14t14 -33t-13.5 -33t-33.5 -14zM563 703q18 0 30 -12t12 -29v-402q0 -123 -75.5 -195t-194.5 -72q-120 0 -195 71.5t-75 195.5v402
q0 17 12 29t30 12t30.5 -12t12.5 -29v-401q0 -94 50.5 -144.5t134.5 -50.5t134.5 50.5t50.5 144.5v401q0 17 12.5 29t30.5 12z" />
    <glyph glyph-name="Yacute" unicode="&#xdd;" horiz-adv-x="604" 
d="M364 952q19 0 32 -13t13 -32q0 -14 -10 -27l-94 -125q-9 -11 -23 -11q-15 0 -23 11t-1 26l65 143q12 28 41 28zM532 703q16 0 27.5 -11.5t11.5 -26.5q0 -14 -8 -25l-219 -317v-286q0 -17 -12.5 -29.5t-29.5 -12.5t-30 12.5t-13 29.5v286l-219 317q-7 11 -7 25
q0 15 11.5 26.5t27.5 11.5q20 0 33 -18l197 -289l197 289q13 18 33 18z" />
    <glyph glyph-name="Thorn" unicode="&#xde;" horiz-adv-x="605" 
d="M307 565q120 0 191.5 -59t71.5 -154q0 -101 -70.5 -157t-192.5 -56h-164v-139h-83v700h83v-135h164zM309 212q87 0 132.5 31.5t45.5 108.5q0 72 -47 106.5t-131 34.5h-166v-281h166z" />
    <glyph glyph-name="germandbls" unicode="&#xdf;" horiz-adv-x="610" 
d="M296 700q105 0 169.5 -47t64.5 -129q0 -56 -30 -93t-79 -47q70 -13 109.5 -60.5t39.5 -121.5q0 -97 -67 -149.5t-189 -52.5h-55q-41 0 -41 37t41 37h53q175 0 175 132q0 70 -47.5 103t-128.5 33h-52q-41 0 -41 37q0 36 41 36h53q65 0 100 29.5t35 77.5q0 54 -41.5 80
t-111.5 26q-151 0 -151 -127v-458q0 -43 -41 -43q-42 0 -42 43v458q0 92 62 145.5t174 53.5z" />
    <glyph glyph-name="agrave" unicode="&#xe0;" horiz-adv-x="607" 
d="M234 772q29 0 41 -28l65 -143q7 -15 -1 -26t-23 -11q-14 0 -23 11l-94 125q-10 13 -10 27q0 19 13 32t32 13zM286 526q58 0 106.5 -28t71.5 -77v60q0 17 12 29.5t29 12.5q18 0 30 -12.5t12 -29.5v-445q0 -17 -12.5 -29.5t-29.5 -12.5q-16 0 -28.5 12.5t-12.5 29.5v72
q-16 -48 -65 -81.5t-113 -33.5q-94 0 -170 71t-76 196q0 124 76.5 195t169.5 71zM298 66q66 0 118 50.5t52 143.5q0 95 -51.5 144.5t-118.5 49.5q-68 0 -121.5 -51t-53.5 -143t53.5 -143t121.5 -51z" />
    <glyph glyph-name="aacute" unicode="&#xe1;" horiz-adv-x="607" 
d="M370 772q19 0 32 -13t13 -32q0 -14 -10 -27l-94 -125q-9 -11 -23 -11q-15 0 -23 11t-1 26l65 143q12 28 41 28zM286 526q58 0 106.5 -28t71.5 -77v60q0 17 12 29.5t29 12.5q18 0 30 -12.5t12 -29.5v-445q0 -17 -12.5 -29.5t-29.5 -12.5q-16 0 -28.5 12.5t-12.5 29.5v72
q-16 -48 -65 -81.5t-113 -33.5q-94 0 -170 71t-76 196q0 124 76.5 195t169.5 71zM298 66q66 0 118 50.5t52 143.5q0 95 -51.5 144.5t-118.5 49.5q-68 0 -121.5 -51t-53.5 -143t53.5 -143t121.5 -51z" />
    <glyph glyph-name="acircumflex" unicode="&#xe2;" horiz-adv-x="607" 
d="M310 800q23 0 41 -22l88 -116q11 -14 5 -28t-21 -14q-16 0 -31 18l-84 100l-83 -100q-15 -18 -31 -18q-15 0 -21 14t5 28l88 116q18 22 40 22h4zM286 526q58 0 106.5 -28t71.5 -77v60q0 17 12 29.5t29 12.5q18 0 30 -12.5t12 -29.5v-445q0 -17 -12.5 -29.5t-29.5 -12.5
q-16 0 -28.5 12.5t-12.5 29.5v72q-16 -48 -65 -81.5t-113 -33.5q-94 0 -170 71t-76 196q0 124 76.5 195t169.5 71zM298 66q66 0 118 50.5t52 143.5q0 95 -51.5 144.5t-118.5 49.5q-68 0 -121.5 -51t-53.5 -143t53.5 -143t121.5 -51z" />
    <glyph glyph-name="atilde" unicode="&#xe3;" horiz-adv-x="607" 
d="M231 730q33 0 62.5 -16.5t55 -33t46.5 -16.5q39 0 51 28q7 13 21 13q11 0 17.5 -8.5t4.5 -19.5q-8 -38 -36 -59.5t-65 -21.5q-32 0 -61.5 18t-56 35.5t-50.5 17.5q-40 0 -50 -33q-6 -14 -21 -14q-11 0 -17 8.5t-4 17.5q7 39 36.5 61.5t66.5 22.5zM286 526q58 0 106.5 -28
t71.5 -77v60q0 17 12 29.5t29 12.5q18 0 30 -12.5t12 -29.5v-445q0 -17 -12.5 -29.5t-29.5 -12.5q-16 0 -28.5 12.5t-12.5 29.5v72q-16 -48 -65 -81.5t-113 -33.5q-94 0 -170 71t-76 196q0 124 76.5 195t169.5 71zM298 66q66 0 118 50.5t52 143.5q0 95 -51.5 144.5
t-118.5 49.5q-68 0 -121.5 -51t-53.5 -143t53.5 -143t121.5 -51z" />
    <glyph glyph-name="adieresis" unicode="&#xe4;" horiz-adv-x="607" 
d="M189 612q-19 0 -33 14t-14 33t14 33t33 14t33 -14t14 -33t-14 -33t-33 -14zM427 612q-19 0 -33 14t-14 33t14 33t33 14t33 -14t14 -33t-14 -33t-33 -14zM286 526q58 0 106.5 -28t71.5 -77v60q0 17 12 29.5t29 12.5q18 0 30 -12.5t12 -29.5v-445q0 -17 -12.5 -29.5
t-29.5 -12.5q-16 0 -28.5 12.5t-12.5 29.5v72q-16 -48 -65 -81.5t-113 -33.5q-94 0 -170 71t-76 196q0 124 76.5 195t169.5 71zM298 66q66 0 118 50.5t52 143.5q0 95 -51.5 144.5t-118.5 49.5q-68 0 -121.5 -51t-53.5 -143t53.5 -143t121.5 -51z" />
    <glyph glyph-name="aring" unicode="&#xe5;" horiz-adv-x="607" 
d="M309 791q37 0 64 -27.5t27 -64.5t-27 -63.5t-64 -26.5q-39 0 -66 26.5t-27 63.5q0 38 27 65t66 27zM308 737q-15 0 -25.5 -11t-10.5 -26t10.5 -25.5t25.5 -10.5q14 0 25 10.5t11 25.5t-11 26t-25 11zM286 526q58 0 106.5 -28t71.5 -77v60q0 17 12 29.5t29 12.5
q18 0 30 -12.5t12 -29.5v-445q0 -17 -12.5 -29.5t-29.5 -12.5q-16 0 -28.5 12.5t-12.5 29.5v72q-16 -48 -65 -81.5t-113 -33.5q-94 0 -170 71t-76 196q0 124 76.5 195t169.5 71zM298 66q66 0 118 50.5t52 143.5q0 95 -51.5 144.5t-118.5 49.5q-68 0 -121.5 -51t-53.5 -143
t53.5 -143t121.5 -51z" />
    <glyph glyph-name="ae" unicode="&#xe6;" horiz-adv-x="1016" 
d="M725 526q94 0 172.5 -69t78.5 -183q0 -47 -53 -47l-368 2q6 -79 58.5 -122t122.5 -43q66 0 116 38q22 15 35 15q14 0 22.5 -8.5t8.5 -22.5q0 -18 -22 -37q-62 -54 -162 -54q-111 0 -187 70v-29q0 -17 -12.5 -29.5t-29.5 -12.5q-16 0 -28.5 12.5t-12.5 29.5v72
q-16 -48 -65 -81.5t-113 -33.5q-94 0 -170 71t-76 196q0 124 76.5 195t169.5 71q58 0 106.5 -28t71.5 -77v60q0 17 12 29.5t29 12.5q18 0 30 -12.5t12 -29.5v-28q76 73 178 73zM298 66q66 0 118 50.5t52 143.5q0 95 -51.5 144.5t-118.5 49.5q-68 0 -121.5 -51t-53.5 -143
t53.5 -143t121.5 -51zM555 291h340q-6 78 -56.5 120t-113.5 42q-62 0 -113 -42t-57 -120z" />
    <glyph glyph-name="ccedilla" unicode="&#xe7;" horiz-adv-x="538" 
d="M463 145q15 0 25 -9.5t10 -24.5t-19 -36q-51 -63 -138 -77l-46 -47q36 -2 62 -26t26 -59q0 -46 -42.5 -70.5t-105.5 -19.5q-10 1 -15.5 7t-3.5 13q4 13 23 13q35 -1 55.5 15t20.5 40q0 22 -17 34.5t-39 6.5q-20 -7 -30 10q-8 13 0 28l35 55q-91 13 -157.5 81.5
t-66.5 180.5q0 64 24 116.5t62 84t83 48.5t91 17q113 0 179 -79q19 -24 19 -37q0 -15 -10 -24.5t-25 -9.5q-20 0 -35 19q-44 58 -124 58q-73 0 -127.5 -51t-54.5 -142q0 -90 54.5 -141t127.5 -51q80 0 124 58q15 19 35 19z" />
    <glyph glyph-name="egrave" unicode="&#xe8;" horiz-adv-x="587" 
d="M218 772q29 0 41 -28l65 -143q7 -15 -1 -26t-23 -11q-14 0 -23 11l-94 125q-10 13 -10 27q0 19 13 32t32 13zM296 526q94 0 172.5 -69t78.5 -183q0 -47 -53 -47l-368 2q6 -79 58.5 -122t122.5 -43q66 0 116 38q23 15 35 15q14 0 22.5 -8.5t8.5 -22.5q0 -18 -22 -37
q-62 -54 -162 -54q-106 0 -185.5 69t-79.5 195q0 85 41 148t98 91t117 28zM296 453q-62 0 -113 -42t-57 -120h340q-6 78 -56.5 120t-113.5 42z" />
    <glyph glyph-name="eacute" unicode="&#xe9;" horiz-adv-x="587" 
d="M354 772q19 0 32 -13t13 -32q0 -14 -10 -27l-94 -125q-9 -11 -23 -11q-15 0 -23 11t-1 26l65 143q12 28 41 28zM296 526q94 0 172.5 -69t78.5 -183q0 -47 -53 -47l-368 2q6 -79 58.5 -122t122.5 -43q66 0 116 38q23 15 35 15q14 0 22.5 -8.5t8.5 -22.5q0 -18 -22 -37
q-62 -54 -162 -54q-106 0 -185.5 69t-79.5 195q0 85 41 148t98 91t117 28zM296 453q-62 0 -113 -42t-57 -120h340q-6 78 -56.5 120t-113.5 42z" />
    <glyph glyph-name="ecircumflex" unicode="&#xea;" horiz-adv-x="587" 
d="M294 800q23 0 41 -22l88 -116q11 -14 5 -28t-21 -14q-16 0 -31 18l-84 100l-83 -100q-15 -18 -31 -18q-15 0 -21 14t5 28l88 116q18 22 40 22h4zM296 526q94 0 172.5 -69t78.5 -183q0 -47 -53 -47l-368 2q6 -79 58.5 -122t122.5 -43q66 0 116 38q23 15 35 15
q14 0 22.5 -8.5t8.5 -22.5q0 -18 -22 -37q-62 -54 -162 -54q-106 0 -185.5 69t-79.5 195q0 85 41 148t98 91t117 28zM296 453q-62 0 -113 -42t-57 -120h340q-6 78 -56.5 120t-113.5 42z" />
    <glyph glyph-name="edieresis" unicode="&#xeb;" horiz-adv-x="587" 
d="M173 612q-19 0 -33 14t-14 33t14 33t33 14t33 -14t14 -33t-14 -33t-33 -14zM411 612q-19 0 -33 14t-14 33t14 33t33 14t33 -14t14 -33t-14 -33t-33 -14zM296 526q94 0 172.5 -69t78.5 -183q0 -47 -53 -47l-368 2q6 -79 58.5 -122t122.5 -43q66 0 116 38q23 15 35 15
q14 0 22.5 -8.5t8.5 -22.5q0 -18 -22 -37q-62 -54 -162 -54q-106 0 -185.5 69t-79.5 195q0 85 41 148t98 91t117 28zM296 453q-62 0 -113 -42t-57 -120h340q-6 78 -56.5 120t-113.5 42z" />
    <glyph glyph-name="igrave" unicode="&#xec;" horiz-adv-x="233" 
d="M43 772q29 0 41 -28l65 -143q7 -15 -1 -26t-23 -11q-14 0 -23 11l-94 125q-10 13 -10 27q0 19 13 32t32 13zM117 523q17 0 29 -12.5t12 -28.5v-444q0 -17 -12.5 -29.5t-28.5 -12.5q-17 0 -29.5 12.5t-12.5 29.5v444q0 17 12.5 29t29.5 12z" />
    <glyph glyph-name="iacute" unicode="&#xed;" horiz-adv-x="233" 
d="M179 772q19 0 32 -13t13 -32q0 -14 -10 -27l-94 -125q-9 -11 -23 -11q-15 0 -23 11t-1 26l65 143q12 28 41 28zM117 523q17 0 29 -12.5t12 -28.5v-444q0 -17 -12.5 -29.5t-28.5 -12.5q-17 0 -29.5 12.5t-12.5 29.5v444q0 17 12.5 29t29.5 12z" />
    <glyph glyph-name="icircumflex" unicode="&#xee;" horiz-adv-x="233" 
d="M119 800q23 0 41 -22l88 -116q11 -14 5 -28t-21 -14q-16 0 -31 18l-84 100l-83 -100q-15 -18 -31 -18q-15 0 -21 14t5 28l88 116q18 22 40 22h4zM117 523q17 0 29 -12.5t12 -28.5v-444q0 -17 -12.5 -29.5t-28.5 -12.5q-17 0 -29.5 12.5t-12.5 29.5v444q0 17 12.5 29
t29.5 12z" />
    <glyph glyph-name="idieresis" unicode="&#xef;" horiz-adv-x="233" 
d="M-2 612q-20 0 -33.5 14t-13.5 33t14 33t33 14t33 -14t14 -33t-13.5 -33t-33.5 -14zM236 612q-20 0 -33.5 14t-13.5 33t14 33t33 14t33 -14t14 -33t-13.5 -33t-33.5 -14zM117 523q17 0 29 -12.5t12 -28.5v-444q0 -17 -12.5 -29.5t-28.5 -12.5q-17 0 -29.5 12.5t-12.5 29.5
v444q0 17 12.5 29t29.5 12z" />
    <glyph glyph-name="eth" unicode="&#xf0;" horiz-adv-x="586" 
d="M415 574q111 -157 111 -314q0 -132 -69 -201t-175 -69q-105 0 -173.5 68.5t-68.5 198.5q0 122 63.5 192.5t172.5 70.5q79 0 116 -40l-61 82l-70 -10q-16 -2 -28 7.5t-12 25.5q0 29 30 33l35 5l-17 22q-8 10 -8 22q0 16 11 26.5t26 10.5q19 0 30 -14l42 -56l55 8
q16 3 28 -7t12 -26q0 -13 -8.5 -21.5t-21.5 -10.5zM282 63q69 0 115 46.5t46 147.5q0 94 -43.5 142t-118.5 48t-116.5 -47.5t-41.5 -142.5q0 -101 46 -147.5t113 -46.5z" />
    <glyph glyph-name="ntilde" unicode="&#xf1;" horiz-adv-x="585" 
d="M215 730q33 0 62.5 -16.5t55 -33t46.5 -16.5q39 0 51 28q7 13 21 13q11 0 17.5 -8.5t4.5 -19.5q-8 -38 -36 -59.5t-65 -21.5q-32 0 -61.5 18t-56 35.5t-50.5 17.5q-40 0 -50 -33q-6 -14 -21 -14q-11 0 -17 8.5t-4 17.5q7 39 36.5 61.5t66.5 22.5zM330 525q81 0 138 -54
t57 -169v-265q0 -17 -12.5 -29.5t-29.5 -12.5t-29 12.5t-12 29.5v265q0 76 -39 113t-97 37q-69 0 -112 -45.5t-51 -97.5v-272q0 -17 -12.5 -29.5t-28.5 -12.5q-17 0 -29.5 12.5t-12.5 29.5v444q0 17 12.5 29.5t29.5 12.5t29 -12.5t12 -29.5v-81q6 36 57 80.5t130 44.5z" />
    <glyph glyph-name="ograve" unicode="&#xf2;" horiz-adv-x="601" 
d="M226 772q29 0 41 -28l65 -143q7 -15 -1 -26t-23 -11q-14 0 -23 11l-94 125q-10 13 -10 27q0 19 13 32t32 13zM300 526q45 0 90 -17t84 -49t63 -84.5t24 -116.5q0 -124 -81.5 -195t-179.5 -71q-45 0 -89.5 17t-83.5 48.5t-63 84t-24 116.5t24 116.5t63 84.5t84 49t89 17z
M300 453q-69 0 -123.5 -52t-54.5 -142t54.5 -141.5t123.5 -51.5t123.5 51.5t54.5 141.5q0 91 -54.5 142.5t-123.5 51.5z" />
    <glyph glyph-name="oacute" unicode="&#xf3;" horiz-adv-x="601" 
d="M362 772q19 0 32 -13t13 -32q0 -14 -10 -27l-94 -125q-9 -11 -23 -11q-15 0 -23 11t-1 26l65 143q12 28 41 28zM300 526q45 0 90 -17t84 -49t63 -84.5t24 -116.5q0 -124 -81.5 -195t-179.5 -71q-45 0 -89.5 17t-83.5 48.5t-63 84t-24 116.5t24 116.5t63 84.5t84 49t89 17
zM300 453q-69 0 -123.5 -52t-54.5 -142t54.5 -141.5t123.5 -51.5t123.5 51.5t54.5 141.5q0 91 -54.5 142.5t-123.5 51.5z" />
    <glyph glyph-name="ocircumflex" unicode="&#xf4;" horiz-adv-x="601" 
d="M302 800q23 0 41 -22l88 -116q11 -14 5 -28t-21 -14q-16 0 -31 18l-84 100l-83 -100q-15 -18 -31 -18q-15 0 -21 14t5 28l88 116q18 22 40 22h4zM300 526q45 0 90 -17t84 -49t63 -84.5t24 -116.5q0 -124 -81.5 -195t-179.5 -71q-45 0 -89.5 17t-83.5 48.5t-63 84
t-24 116.5t24 116.5t63 84.5t84 49t89 17zM300 453q-69 0 -123.5 -52t-54.5 -142t54.5 -141.5t123.5 -51.5t123.5 51.5t54.5 141.5q0 91 -54.5 142.5t-123.5 51.5z" />
    <glyph glyph-name="otilde" unicode="&#xf5;" horiz-adv-x="601" 
d="M223 730q33 0 62.5 -16.5t55 -33t46.5 -16.5q39 0 51 28q7 13 21 13q11 0 17.5 -8.5t4.5 -19.5q-8 -38 -36 -59.5t-65 -21.5q-40 0 -90 35.5t-78 35.5q-40 0 -50 -33q-6 -14 -21 -14q-11 0 -17 8.5t-4 17.5q7 39 36.5 61.5t66.5 22.5zM300 526q45 0 90 -17t84 -49
t63 -84.5t24 -116.5q0 -124 -81.5 -195t-179.5 -71q-45 0 -89.5 17t-83.5 48.5t-63 84t-24 116.5t24 116.5t63 84.5t84 49t89 17zM300 453q-69 0 -123.5 -52t-54.5 -142t54.5 -141.5t123.5 -51.5t123.5 51.5t54.5 141.5q0 91 -54.5 142.5t-123.5 51.5z" />
    <glyph glyph-name="odieresis" unicode="&#xf6;" horiz-adv-x="601" 
d="M181 612q-19 0 -33 14t-14 33t14 33t33 14t33 -14t14 -33t-14 -33t-33 -14zM419 612q-19 0 -33 14t-14 33t14 33t33 14t33 -14t14 -33t-14 -33t-33 -14zM300 526q45 0 90 -17t84 -49t63 -84.5t24 -116.5q0 -124 -81.5 -195t-179.5 -71q-45 0 -89.5 17t-83.5 48.5t-63 84
t-24 116.5t24 116.5t63 84.5t84 49t89 17zM300 453q-69 0 -123.5 -52t-54.5 -142t54.5 -141.5t123.5 -51.5t123.5 51.5t54.5 141.5q0 91 -54.5 142.5t-123.5 51.5z" />
    <glyph glyph-name="divide" unicode="&#xf7;" horiz-adv-x="447" 
d="M224 385q-21 0 -36 15t-15 36q0 20 15 35t36 15q20 0 35 -15t15 -35q0 -21 -15 -36t-35 -15zM365 313q15 0 26 -10t11 -24q0 -13 -11.5 -23t-25.5 -10h-284q-14 0 -25 10t-11 23q0 14 11 24t25 10h284zM224 73q-21 0 -36 15t-15 36q0 20 15 35t36 15q20 0 35 -15t15 -35
q0 -21 -15 -36t-35 -15z" />
    <glyph glyph-name="oslash" unicode="&#xf8;" horiz-adv-x="601" 
d="M440 485q121 -77 121 -226q0 -124 -81.5 -195t-179.5 -71q-46 0 -88 16l-20 -41q-10 -22 -35 -22q-16 0 -27 11t-11 27q0 7 4 17l21 44q-104 78 -104 214q0 64 24 116.5t63 84.5t84 49t89 17q36 0 70 -10l21 44q10 22 35 22q16 0 27 -11t11 -27q0 -7 -4 -17zM122 259
q0 -89 56 -143l160 333q-17 4 -38 4q-69 0 -123.5 -52t-54.5 -142zM300 66q69 0 123.5 51.5t54.5 141.5q0 102 -71 157l-163 -340q26 -10 56 -10z" />
    <glyph glyph-name="ugrave" unicode="&#xf9;" horiz-adv-x="585" 
d="M218 772q29 0 41 -28l65 -143q7 -15 -1 -26t-23 -11q-14 0 -23 11l-94 125q-10 13 -10 27q0 19 13 32t32 13zM255 -7q-81 0 -138 54t-57 169v265q0 17 12.5 29.5t29.5 12.5t29 -12.5t12 -29.5v-265q0 -76 39 -113t97 -37q69 0 112 45.5t51 97.5v272q0 17 12.5 29.5
t28.5 12.5q17 0 29.5 -12.5t12.5 -29.5v-444q0 -17 -12.5 -29.5t-29.5 -12.5t-29 12.5t-12 29.5v81q-6 -36 -57 -80.5t-130 -44.5z" />
    <glyph glyph-name="uacute" unicode="&#xfa;" horiz-adv-x="585" 
d="M354 772q19 0 32 -13t13 -32q0 -14 -10 -27l-94 -125q-9 -11 -23 -11q-15 0 -23 11t-1 26l65 143q12 28 41 28zM255 -7q-81 0 -138 54t-57 169v265q0 17 12.5 29.5t29.5 12.5t29 -12.5t12 -29.5v-265q0 -76 39 -113t97 -37q69 0 112 45.5t51 97.5v272q0 17 12.5 29.5
t28.5 12.5q17 0 29.5 -12.5t12.5 -29.5v-444q0 -17 -12.5 -29.5t-29.5 -12.5t-29 12.5t-12 29.5v81q-6 -36 -57 -80.5t-130 -44.5z" />
    <glyph glyph-name="ucircumflex" unicode="&#xfb;" horiz-adv-x="585" 
d="M294 800q23 0 41 -22l88 -116q11 -14 5 -28t-21 -14q-16 0 -31 18l-84 100l-83 -100q-15 -18 -31 -18q-15 0 -21 14t5 28l88 116q18 22 40 22h4zM255 -7q-81 0 -138 54t-57 169v265q0 17 12.5 29.5t29.5 12.5t29 -12.5t12 -29.5v-265q0 -76 39 -113t97 -37q69 0 112 45.5
t51 97.5v272q0 17 12.5 29.5t28.5 12.5q17 0 29.5 -12.5t12.5 -29.5v-444q0 -17 -12.5 -29.5t-29.5 -12.5t-29 12.5t-12 29.5v81q-6 -36 -57 -80.5t-130 -44.5z" />
    <glyph glyph-name="udieresis" unicode="&#xfc;" horiz-adv-x="585" 
d="M173 612q-19 0 -33 14t-14 33t14 33t33 14t33 -14t14 -33t-14 -33t-33 -14zM411 612q-19 0 -33 14t-14 33t14 33t33 14t33 -14t14 -33t-14 -33t-33 -14zM255 -7q-81 0 -138 54t-57 169v265q0 17 12.5 29.5t29.5 12.5t29 -12.5t12 -29.5v-265q0 -76 39 -113t97 -37
q69 0 112 45.5t51 97.5v272q0 17 12.5 29.5t28.5 12.5q17 0 29.5 -12.5t12.5 -29.5v-444q0 -17 -12.5 -29.5t-29.5 -12.5t-29 12.5t-12 29.5v81q-6 -36 -57 -80.5t-130 -44.5z" />
    <glyph glyph-name="yacute" unicode="&#xfd;" horiz-adv-x="543" 
d="M251 564q-15 0 -23 11t-1 26l65 143q12 28 41 28q19 0 32 -13t13 -32q0 -14 -10 -27l-94 -125q-9 -11 -23 -11zM474 523q16 0 27.5 -11.5t11.5 -26.5q0 -7 -4 -19l-274 -633q-12 -28 -39 -28q-16 0 -26.5 11.5t-10.5 26.5q0 7 4 19l67 156l-196 448q-4 12 -4 19
q0 15 11.5 26.5t27.5 11.5q27 0 39 -28l163 -382l164 382q12 28 39 28z" />
    <glyph glyph-name="thorn" unicode="&#xfe;" horiz-adv-x="607" 
d="M321 526q93 0 169.5 -71t76.5 -195q0 -125 -76 -196t-170 -71q-64 0 -112.5 32.5t-64.5 79.5v-258q0 -17 -12.5 -29.5t-29.5 -12.5t-29.5 12.5t-12.5 29.5v825q0 17 12.5 29.5t29.5 12.5t29.5 -12.5t12.5 -29.5v-249q24 49 72 76t105 27zM309 66q68 0 121.5 51t53.5 143
t-53.5 143t-121.5 51q-67 0 -118.5 -49.5t-51.5 -144.5q0 -93 52 -143.5t118 -50.5z" />
    <glyph glyph-name="ydieresis" unicode="&#xff;" horiz-adv-x="543" 
d="M152 612q-20 0 -33.5 14t-13.5 33t14 33t33 14t33 -14t14 -33t-13.5 -33t-33.5 -14zM390 612q-20 0 -33.5 14t-13.5 33t14 33t33 14t33 -14t14 -33t-13.5 -33t-33.5 -14zM474 523q16 0 27.5 -11.5t11.5 -26.5q0 -7 -4 -19l-274 -633q-12 -28 -39 -28q-16 0 -26.5 11.5
t-10.5 26.5q0 7 4 19l67 156l-196 448q-4 12 -4 19q0 15 11.5 26.5t27.5 11.5q27 0 39 -28l163 -382l164 382q12 28 39 28z" />
    <glyph glyph-name="Amacron" unicode="&#x100;" 
d="M199 808q-15 0 -26 10.5t-11 25.5t11 25.5t26 10.5h303q15 0 26 -10.5t11 -25.5t-11 -25.5t-26 -10.5h-303zM660 58q5 -10 5 -22q0 -16 -12 -28t-30 -12q-27 0 -40 27l-71 164h-324l-71 -164q-13 -27 -40 -27q-18 0 -30 12t-12 28q0 12 5 22l268 614q14 32 42 32t41 -32z
M218 256h264l-132 307z" />
    <glyph glyph-name="amacron" unicode="&#x101;" horiz-adv-x="607" 
d="M460 700q15 0 26 -10.5t11 -25.5t-11 -25.5t-26 -10.5h-303q-15 0 -26 10.5t-11 25.5t11 25.5t26 10.5h303zM286 526q58 0 106.5 -28t71.5 -77v60q0 17 12 29.5t29 12.5q18 0 30 -12.5t12 -29.5v-445q0 -17 -12.5 -29.5t-29.5 -12.5q-16 0 -28.5 12.5t-12.5 29.5v72
q-16 -48 -65 -81.5t-113 -33.5q-94 0 -170 71t-76 196q0 124 76.5 195t169.5 71zM298 66q66 0 118 50.5t52 143.5q0 95 -51.5 144.5t-118.5 49.5q-68 0 -121.5 -51t-53.5 -143t53.5 -143t121.5 -51z" />
    <glyph glyph-name="Abreve" unicode="&#x102;" 
d="M350 785q-62 0 -103 36t-53 89q-4 16 6 29t26 13q23 0 32 -22q9 -31 33.5 -50t58.5 -19t58.5 19t33.5 50q7 22 32 22q16 0 26 -13t5 -29q-11 -53 -51.5 -89t-103.5 -36zM660 58q5 -10 5 -22q0 -16 -12 -28t-30 -12q-27 0 -40 27l-71 164h-324l-71 -164q-13 -27 -40 -27
q-18 0 -30 12t-12 28q0 12 5 22l268 614q14 32 42 32t41 -32zM218 256h264l-132 307z" />
    <glyph glyph-name="abreve" unicode="&#x103;" horiz-adv-x="607" 
d="M432 772q16 0 26 -13t5 -29q-11 -53 -51.5 -89t-103.5 -36q-62 0 -103 36t-53 89q-4 16 6 29t26 13q23 0 32 -22q9 -31 33.5 -50t58.5 -19t58.5 19t33.5 50q7 22 32 22zM286 526q58 0 106.5 -28t71.5 -77v60q0 17 12 29.5t29 12.5q18 0 30 -12.5t12 -29.5v-445
q0 -17 -12.5 -29.5t-29.5 -12.5q-16 0 -28.5 12.5t-12.5 29.5v72q-16 -48 -65 -81.5t-113 -33.5q-94 0 -170 71t-76 196q0 124 76.5 195t169.5 71zM298 66q66 0 118 50.5t52 143.5q0 95 -51.5 144.5t-118.5 49.5q-68 0 -121.5 -51t-53.5 -143t53.5 -143t121.5 -51z" />
    <glyph glyph-name="Aogonek" unicode="&#x104;" 
d="M665 42q4 -29 -17 -53t-49 -37.5t-52 -33t-24 -40.5q0 -39 57 -39q37 0 37 -24q0 -25 -59 -25q-45 0 -79.5 20t-34.5 63q0 30 22.5 55.5t49 40t46.5 32.5t15 35l-65 151h-324l-71 -164q-13 -27 -40 -27q-18 0 -30 12t-12 28q0 12 5 22l268 614q14 32 42 32t41 -32
l269 -614q4 -7 5 -16zM218 256h264l-132 307z" />
    <glyph glyph-name="aogonek" unicode="&#x105;" horiz-adv-x="607" 
d="M505 523q18 0 30 -12.5t12 -29.5v-445v-4q-2 -27 -24 -49t-47 -34.5t-45.5 -31t-20.5 -40.5q0 -40 58 -40q35 0 35 -21q0 -27 -65 -27q-44 0 -75.5 20t-31.5 61q0 31 21 55t45.5 36t45.5 32t21 45v70q-16 -48 -65 -81.5t-113 -33.5q-94 0 -170 71t-76 196q0 124 76.5 195
t169.5 71q58 0 106.5 -28t71.5 -77v60q0 17 12 29.5t29 12.5zM298 66q66 0 118 50.5t52 143.5q0 95 -51.5 144.5t-118.5 49.5q-68 0 -121.5 -51t-53.5 -143t53.5 -143t121.5 -51z" />
    <glyph glyph-name="Cacute" unicode="&#x106;" horiz-adv-x="653" 
d="M453 952q19 0 32 -13t13 -32q0 -14 -10 -27l-94 -125q-9 -11 -23 -11q-15 0 -23 11t-1 26l65 143q12 28 41 28zM579 137q16 0 27.5 -10.5t11.5 -27.5q0 -26 -35 -49q-76 -57 -183 -57q-88 0 -168 44.5t-131 127.5t-51 185q0 153 106.5 255t245.5 102q103 0 181 -56
q35 -24 35 -50q0 -17 -11.5 -27.5t-27.5 -10.5q-17 0 -42 19q-55 45 -136 45q-104 0 -183.5 -80t-79.5 -197t79.5 -197t182.5 -80q82 0 137 45q25 19 42 19z" />
    <glyph glyph-name="cacute" unicode="&#x107;" horiz-adv-x="538" 
d="M362 772q19 0 32 -13t13 -32q0 -14 -10 -27l-94 -125q-9 -11 -23 -11q-15 0 -23 11t-1 26l65 143q12 28 41 28zM463 145q15 0 25 -9.5t10 -24.5t-19 -36q-66 -80 -179 -80q-99 0 -179.5 70.5t-80.5 194.5q0 64 24 116.5t62 84t83 48.5t91 17q113 0 179 -79q19 -24 19 -37
q0 -15 -10 -24.5t-25 -9.5q-20 0 -35 19q-44 58 -124 58q-73 0 -127.5 -51t-54.5 -142q0 -90 54.5 -141t127.5 -51q80 0 124 58q15 19 35 19z" />
    <glyph glyph-name="Cdotaccent" unicode="&#x10a;" horiz-adv-x="653" 
d="M391 849q-18 0 -31 12.5t-13 31.5q0 18 13 30.5t31 12.5t30.5 -12.5t12.5 -30.5q0 -19 -12.5 -31.5t-30.5 -12.5zM579 137q16 0 27.5 -10.5t11.5 -27.5q0 -26 -35 -49q-76 -57 -183 -57q-88 0 -168 44.5t-131 127.5t-51 185q0 153 106.5 255t245.5 102q103 0 181 -56
q35 -24 35 -50q0 -17 -11.5 -27.5t-27.5 -10.5q-17 0 -42 19q-55 45 -136 45q-104 0 -183.5 -80t-79.5 -197t79.5 -197t182.5 -80q82 0 137 45q25 19 42 19z" />
    <glyph glyph-name="cdotaccent" unicode="&#x10b;" horiz-adv-x="538" 
d="M300 669q-18 0 -31 12.5t-13 31.5q0 18 13 30.5t31 12.5t30.5 -12.5t12.5 -30.5q0 -19 -12.5 -31.5t-30.5 -12.5zM463 145q15 0 25 -9.5t10 -24.5t-19 -36q-66 -80 -179 -80q-99 0 -179.5 70.5t-80.5 194.5q0 64 24 116.5t62 84t83 48.5t91 17q113 0 179 -79
q19 -24 19 -37q0 -15 -10 -24.5t-25 -9.5q-20 0 -35 19q-44 58 -124 58q-73 0 -127.5 -51t-54.5 -142q0 -90 54.5 -141t127.5 -51q80 0 124 58q15 19 35 19z" />
    <glyph glyph-name="Ccaron" unicode="&#x10c;" horiz-adv-x="653" 
d="M393 800h-4q-22 0 -40 22l-88 116q-11 14 -5 28t21 14q16 0 31 -18l83 -100l84 100q15 18 31 18q15 0 21 -14t-5 -28l-88 -116q-18 -22 -41 -22zM579 137q16 0 27.5 -10.5t11.5 -27.5q0 -26 -35 -49q-76 -57 -183 -57q-88 0 -168 44.5t-131 127.5t-51 185
q0 153 106.5 255t245.5 102q103 0 181 -56q35 -24 35 -50q0 -17 -11.5 -27.5t-27.5 -10.5q-17 0 -42 19q-55 45 -136 45q-104 0 -183.5 -80t-79.5 -197t79.5 -197t182.5 -80q82 0 137 45q25 19 42 19z" />
    <glyph glyph-name="ccaron" unicode="&#x10d;" horiz-adv-x="538" 
d="M302 620h-4q-22 0 -40 22l-88 116q-11 14 -5 28t21 14q16 0 31 -18l83 -100l84 100q15 18 31 18q15 0 21 -14t-5 -28l-88 -116q-18 -22 -41 -22zM463 145q15 0 25 -9.5t10 -24.5t-19 -36q-66 -80 -179 -80q-99 0 -179.5 70.5t-80.5 194.5q0 64 24 116.5t62 84t83 48.5
t91 17q113 0 179 -79q19 -24 19 -37q0 -15 -10 -24.5t-25 -9.5q-20 0 -35 19q-44 58 -124 58q-73 0 -127.5 -51t-54.5 -142q0 -90 54.5 -141t127.5 -51q80 0 124 58q15 19 35 19z" />
    <glyph glyph-name="Dcaron" unicode="&#x10e;" horiz-adv-x="647" 
d="M333 800h-4q-22 0 -40 22l-88 116q-11 14 -5 28t21 14q16 0 31 -18l83 -100l84 100q15 18 31 18q15 0 21 -14t-5 -28l-88 -116q-18 -22 -41 -22zM256 700q158 0 254.5 -93t96.5 -257t-96.5 -257t-254.5 -93h-150q-20 0 -33 13t-13 33v608q0 20 13 33t33 13h150zM256 73
q128 0 197 70.5t69 206.5t-69 206.5t-197 70.5h-111v-554h111z" />
    <glyph glyph-name="dcaron" unicode="&#x10f;" horiz-adv-x="740" 
d="M505 714q17 0 29.5 -12.5t12.5 -29.5v-636q0 -17 -12.5 -29.5t-29.5 -12.5q-16 0 -28.5 12.5t-12.5 29.5v72q-16 -48 -65 -81.5t-113 -33.5q-94 0 -170 71t-76 196q0 124 76.5 195t169.5 71q57 0 105 -27t72 -76v249q0 17 12.5 29.5t29.5 12.5zM690 705q19 0 32 -13
t13 -32q0 -14 -10 -27l-94 -125q-9 -11 -23 -11q-15 0 -23 11t-1 26l65 143q12 28 41 28zM298 66q66 0 118 50.5t52 143.5q0 95 -51.5 144.5t-118.5 49.5q-68 0 -121.5 -51t-53.5 -143t53.5 -143t121.5 -51z" />
    <glyph glyph-name="Dcroat" unicode="&#x110;" horiz-adv-x="705" 
d="M314 700q158 0 254.5 -93t96.5 -257t-96.5 -257t-254.5 -93h-150q-20 0 -33 13t-13 33v268h-24q-14 0 -24 10t-10 23q0 14 10 24t24 10h24v273q0 20 13 33t33 13h150zM314 73q128 0 197 70.5t69 206.5t-69 206.5t-197 70.5h-111v-246h153q14 0 24 -10t10 -24
q0 -13 -10 -23t-24 -10h-153v-241h111z" />
    <glyph glyph-name="dcroat" unicode="&#x111;" horiz-adv-x="620" 
d="M580 641q14 0 25 -10t11 -23q0 -14 -11 -24t-25 -10h-33v-538q0 -17 -12.5 -29.5t-29.5 -12.5q-16 0 -28.5 12.5t-12.5 29.5v72q-16 -48 -65 -81.5t-113 -33.5q-94 0 -170 71t-76 196q0 124 76.5 195t169.5 71q57 0 105 -27t72 -76v151h-180q-14 0 -25 10t-11 24
q0 13 11 23t25 10h180v31q0 17 12.5 29.5t29.5 12.5t29.5 -12.5t12.5 -29.5v-31h33zM298 66q66 0 118 50.5t52 143.5q0 95 -51.5 144.5t-118.5 49.5q-68 0 -121.5 -51t-53.5 -143t53.5 -143t121.5 -51z" />
    <glyph glyph-name="Emacron" unicode="&#x112;" horiz-adv-x="547" 
d="M442 880q15 0 26 -10.5t11 -25.5t-11 -25.5t-26 -10.5h-303q-15 0 -26 10.5t-11 25.5t11 25.5t26 10.5h303zM145 75h329q15 0 26.5 -11t11.5 -26q0 -16 -11.5 -27t-26.5 -11h-368q-20 0 -33 13t-13 33v608q0 20 13 33t33 13h358q15 0 26.5 -11t11.5 -26q0 -16 -11.5 -27
t-26.5 -11h-319v-237h225q15 0 26 -11t11 -25q0 -15 -11 -25.5t-26 -10.5h-225v-241z" />
    <glyph glyph-name="emacron" unicode="&#x113;" horiz-adv-x="587" 
d="M444 700q15 0 26 -10.5t11 -25.5t-11 -25.5t-26 -10.5h-303q-15 0 -26 10.5t-11 25.5t11 25.5t26 10.5h303zM296 526q94 0 172.5 -69t78.5 -183q0 -47 -53 -47l-368 2q6 -79 58.5 -122t122.5 -43q66 0 116 38q23 15 35 15q14 0 22.5 -8.5t8.5 -22.5q0 -18 -22 -37
q-62 -54 -162 -54q-106 0 -185.5 69t-79.5 195q0 85 41 148t98 91t117 28zM296 453q-62 0 -113 -42t-57 -120h340q-6 78 -56.5 120t-113.5 42z" />
    <glyph glyph-name="Edotaccent" unicode="&#x116;" horiz-adv-x="547" 
d="M290 849q-18 0 -31 12.5t-13 31.5q0 18 13 30.5t31 12.5t30.5 -12.5t12.5 -30.5q0 -19 -12.5 -31.5t-30.5 -12.5zM145 75h329q15 0 26.5 -11t11.5 -26q0 -16 -11.5 -27t-26.5 -11h-368q-20 0 -33 13t-13 33v608q0 20 13 33t33 13h358q15 0 26.5 -11t11.5 -26
q0 -16 -11.5 -27t-26.5 -11h-319v-237h225q15 0 26 -11t11 -25q0 -15 -11 -25.5t-26 -10.5h-225v-241z" />
    <glyph glyph-name="edotaccent" unicode="&#x117;" horiz-adv-x="587" 
d="M292 669q-18 0 -31 12.5t-13 31.5q0 18 13 30.5t31 12.5t30.5 -12.5t12.5 -30.5q0 -19 -12.5 -31.5t-30.5 -12.5zM296 526q94 0 172.5 -69t78.5 -183q0 -47 -53 -47l-368 2q6 -79 58.5 -122t122.5 -43q66 0 116 38q23 15 35 15q14 0 22.5 -8.5t8.5 -22.5q0 -18 -22 -37
q-62 -54 -162 -54q-106 0 -185.5 69t-79.5 195q0 85 41 148t98 91t117 28zM296 453q-62 0 -113 -42t-57 -120h340q-6 78 -56.5 120t-113.5 42z" />
    <glyph glyph-name="Eogonek" unicode="&#x118;" horiz-adv-x="560" 
d="M512 38q0 -16 -11.5 -27t-26.5 -11h2q-52 -12 -95 -40.5t-43 -70.5q0 -25 17.5 -38.5t43.5 -13.5q33 0 33 -21q0 -27 -65 -27q-45 0 -76 21.5t-31 69.5q0 54 45.5 87t73.5 33h-273q-20 0 -33 13t-13 33v608q0 20 13 33t33 13h358q15 0 26.5 -11t11.5 -26q0 -16 -11.5 -27
t-26.5 -11h-319v-237h225q15 0 26 -11t11 -25q0 -15 -11 -25.5t-26 -10.5h-225v-241h329q15 0 26.5 -11t11.5 -26z" />
    <glyph glyph-name="eogonek" unicode="&#x119;" horiz-adv-x="585" 
d="M296 526q94 0 172.5 -69t78.5 -183q0 -47 -53 -47l-368 2q6 -79 58.5 -122t122.5 -43q66 0 116 38q23 15 35 15q14 0 22.5 -8.5t8.5 -22.5q0 -18 -22 -37q-41 -36 -107 -49q-52 -12 -95 -40.5t-43 -70.5q0 -25 17.5 -38.5t43.5 -13.5q33 0 33 -21q0 -27 -65 -27
q-45 0 -76 21.5t-31 69.5q0 50 38.5 81t73.5 38q-92 16 -154 82.5t-62 177.5q0 85 41 148t98 91t117 28zM126 291h340q-6 78 -56.5 120t-113.5 42q-62 0 -113 -42t-57 -120z" />
    <glyph glyph-name="Ecaron" unicode="&#x11a;" horiz-adv-x="547" 
d="M292 800h-4q-22 0 -40 22l-88 116q-11 14 -5 28t21 14q16 0 31 -18l83 -100l84 100q15 18 31 18q15 0 21 -14t-5 -28l-88 -116q-18 -22 -41 -22zM145 75h329q15 0 26.5 -11t11.5 -26q0 -16 -11.5 -27t-26.5 -11h-368q-20 0 -33 13t-13 33v608q0 20 13 33t33 13h358
q15 0 26.5 -11t11.5 -26q0 -16 -11.5 -27t-26.5 -11h-319v-237h225q15 0 26 -11t11 -25q0 -15 -11 -25.5t-26 -10.5h-225v-241z" />
    <glyph glyph-name="ecaron" unicode="&#x11b;" horiz-adv-x="587" 
d="M294 620h-4q-22 0 -40 22l-88 116q-11 14 -5 28t21 14q16 0 31 -18l83 -100l84 100q15 18 31 18q15 0 21 -14t-5 -28l-88 -116q-18 -22 -41 -22zM296 526q94 0 172.5 -69t78.5 -183q0 -47 -53 -47l-368 2q6 -79 58.5 -122t122.5 -43q66 0 116 38q23 15 35 15
q14 0 22.5 -8.5t8.5 -22.5q0 -18 -22 -37q-62 -54 -162 -54q-106 0 -185.5 69t-79.5 195q0 85 41 148t98 91t117 28zM296 453q-62 0 -113 -42t-57 -120h340q-6 78 -56.5 120t-113.5 42z" />
    <glyph glyph-name="Gbreve" unicode="&#x11e;" horiz-adv-x="761" 
d="M521 952q16 0 26 -13t5 -29q-11 -53 -51.5 -89t-103.5 -36q-62 0 -103 36t-53 89q-4 16 6 29t26 13q23 0 32 -22q9 -31 33.5 -50t58.5 -19t58.5 19t33.5 50q7 22 32 22zM673 356q22 0 33.5 -13.5t10.5 -36.5q-6 -145 -95.5 -229t-218.5 -84q-139 0 -246 102t-107 255
t106.5 255t245.5 102q103 0 181 -56q35 -24 35 -50q0 -17 -11.5 -27.5t-27.5 -10.5q-17 0 -42 19q-55 45 -136 45q-104 0 -183.5 -80t-79.5 -197q0 -118 80 -197.5t185 -79.5q91 0 156.5 57.5t74.5 153.5h-167q-16 0 -27 10.5t-11 25.5t11 25.5t27 10.5h206z" />
    <glyph glyph-name="gbreve" unicode="&#x11f;" horiz-adv-x="608" 
d="M313 605q-62 0 -103 36t-53 89q-4 16 6 29t26 13q23 0 32 -22q9 -31 33.5 -50t58.5 -19t58.5 19t33.5 50q7 22 32 22q16 0 26 -13t5 -29q-11 -53 -51.5 -89t-103.5 -36zM505 523q18 0 30 -12.5t12 -29.5v-471q0 -59 -23.5 -103t-62 -67t-79.5 -34t-84 -11q-81 0 -140 32
q-25 12 -25 35q0 14 10 24t24 10q9 0 22 -5q48 -24 110 -24q73 0 119 37t46 106v98q-16 -48 -65 -81.5t-113 -33.5q-94 0 -170 71t-76 196q0 124 76.5 195t169.5 71q58 0 106.5 -28t71.5 -77v60q0 17 12 29.5t29 12.5zM298 66q66 0 118 50.5t52 143.5q0 95 -51.5 144.5
t-118.5 49.5q-68 0 -121.5 -51t-53.5 -143t53.5 -143t121.5 -51z" />
    <glyph glyph-name="Gdotaccent" unicode="&#x120;" horiz-adv-x="761" 
d="M397 849q-18 0 -31 12.5t-13 31.5q0 18 13 30.5t31 12.5t30.5 -12.5t12.5 -30.5q0 -19 -12.5 -31.5t-30.5 -12.5zM673 356q22 0 33.5 -13.5t10.5 -36.5q-6 -145 -95.5 -229t-218.5 -84q-139 0 -246 102t-107 255t106.5 255t245.5 102q103 0 181 -56q35 -24 35 -50
q0 -17 -11.5 -27.5t-27.5 -10.5q-17 0 -42 19q-55 45 -136 45q-104 0 -183.5 -80t-79.5 -197q0 -118 80 -197.5t185 -79.5q91 0 156.5 57.5t74.5 153.5h-167q-16 0 -27 10.5t-11 25.5t11 25.5t27 10.5h206z" />
    <glyph glyph-name="gdotaccent" unicode="&#x121;" horiz-adv-x="608" 
d="M313 669q-18 0 -31 12.5t-13 31.5q0 18 13 30.5t31 12.5t30.5 -12.5t12.5 -30.5q0 -19 -12.5 -31.5t-30.5 -12.5zM505 523q18 0 30 -12.5t12 -29.5v-471q0 -59 -23.5 -103t-62 -67t-79.5 -34t-84 -11q-81 0 -140 32q-25 12 -25 35q0 14 10 24t24 10q9 0 22 -5
q48 -24 110 -24q73 0 119 37t46 106v98q-16 -48 -65 -81.5t-113 -33.5q-94 0 -170 71t-76 196q0 124 76.5 195t169.5 71q58 0 106.5 -28t71.5 -77v60q0 17 12 29.5t29 12.5zM298 66q66 0 118 50.5t52 143.5q0 95 -51.5 144.5t-118.5 49.5q-68 0 -121.5 -51t-53.5 -143
t53.5 -143t121.5 -51z" />
    <glyph glyph-name="Gcommaaccent" unicode="&#x122;" horiz-adv-x="761" 
d="M673 356q22 0 33.5 -13.5t10.5 -36.5q-6 -137 -87.5 -220.5t-202.5 -91.5q-1 -4 -5 -12l-79 -161q-11 -24 -40 -24h-6q-15 0 -20.5 9.5t0.5 23.5l55 157q3 7 6 12q-120 24 -204 120.5t-84 230.5q0 153 106.5 255t245.5 102q103 0 181 -56q35 -24 35 -50
q0 -17 -11.5 -27.5t-27.5 -10.5q-17 0 -42 19q-55 45 -136 45q-104 0 -183.5 -80t-79.5 -197q0 -118 80 -197.5t185 -79.5q91 0 156.5 57.5t74.5 153.5h-167q-16 0 -27 10.5t-11 25.5t11 25.5t27 10.5h206z" />
    <glyph glyph-name="gcommaaccent" unicode="&#x123;" horiz-adv-x="608" 
d="M505 523q18 0 30 -12.5t12 -29.5v-471q0 -59 -23.5 -103t-62 -67t-79.5 -34t-84 -11q-81 0 -140 32q-25 12 -25 35q0 14 10 24t24 10q9 0 22 -5q48 -24 110 -24q73 0 119 37t46 106v98q-16 -48 -65 -81.5t-113 -33.5q-94 0 -170 71t-76 196q0 109 60.5 177.5t144.5 84.5
q2 10 5 14l79 161q11 24 40 24h6q15 0 20.5 -9.5t-0.5 -23.5l-55 -157q-1 -4 -5 -10q93 -22 129 -100v60q0 17 12 29.5t29 12.5zM298 66q66 0 118 50.5t52 143.5q0 95 -51.5 144.5t-118.5 49.5q-68 0 -121.5 -51t-53.5 -143t53.5 -143t121.5 -51z" />
    <glyph glyph-name="Hbar" unicode="&#x126;" horiz-adv-x="654" 
d="M552 703q17 0 29.5 -13t12.5 -30v-620q0 -17 -12.5 -30t-29.5 -13q-18 0 -30.5 12.5t-12.5 30.5v265h-364v-265q0 -17 -12.5 -30t-29.5 -13q-18 0 -30.5 13t-12.5 30v620q0 17 12.5 30t30.5 13q17 0 29.5 -13t12.5 -30v-118h364v118q0 18 12.5 30.5t30.5 12.5zM145 379
h364v96h-364v-96z" />
    <glyph glyph-name="hbar" unicode="&#x127;" horiz-adv-x="620" 
d="M365 525q81 0 138 -54t57 -169v-265q0 -17 -12.5 -29.5t-29.5 -12.5t-29 12.5t-12 29.5v265q0 76 -39 113t-97 37q-69 0 -112 -45.5t-51 -97.5v-272q0 -17 -12.5 -29.5t-28.5 -12.5q-17 0 -29.5 12.5t-12.5 29.5v519h-31q-14 0 -24 10t-10 24q0 13 10 23t24 10h31v50
q0 17 12.5 29t29.5 12t29 -12t12 -29v-50h69q14 0 24 -10t10 -23q0 -14 -10 -24t-24 -10h-69v-156q6 36 57 80.5t130 44.5z" />
    <glyph glyph-name="Imacron" unicode="&#x12a;" horiz-adv-x="206" 
d="M256 880q15 0 26 -10.5t11 -25.5t-11 -25.5t-26 -10.5h-303q-15 0 -26 10.5t-11 25.5t11 25.5t26 10.5h303zM104 703q17 0 29.5 -13t12.5 -31v-620q0 -17 -12.5 -30.5t-29.5 -13.5q-18 0 -31 13t-13 31v620q0 18 12.5 31t31.5 13z" />
    <glyph glyph-name="imacron" unicode="&#x12b;" horiz-adv-x="233" 
d="M269 700q15 0 26 -10.5t11 -25.5t-11 -25.5t-26 -10.5h-303q-15 0 -26 10.5t-11 25.5t11 25.5t26 10.5h303zM117 523q17 0 29 -12.5t12 -28.5v-444q0 -17 -12.5 -29.5t-28.5 -12.5q-17 0 -29.5 12.5t-12.5 29.5v444q0 17 12.5 29t29.5 12z" />
    <glyph glyph-name="Iogonek" unicode="&#x12e;" horiz-adv-x="209" 
d="M149 659v-620v-1q0 -30 -22 -53t-48 -35t-48 -31.5t-22 -41.5q0 -40 59 -40q35 0 35 -21q0 -27 -65 -27q-44 0 -75.5 19.5t-31.5 61.5q0 26 13.5 45.5t33 32.5t39 25t33 28t13.5 37v1v620q0 18 12.5 31t31.5 13q17 0 29.5 -13t12.5 -31z" />
    <glyph glyph-name="iogonek" unicode="&#x12f;" horiz-adv-x="211" 
d="M108 669q-18 0 -31 12.5t-13 31.5q0 18 13 30.5t31 12.5t30.5 -12.5t12.5 -30.5q0 -19 -12.5 -31.5t-30.5 -12.5zM108 523q16 0 28.5 -12.5t12.5 -28.5v-444q0 -30 -21.5 -53t-47 -35.5t-47 -31.5t-21.5 -41q0 -40 58 -40q35 0 35 -21q0 -27 -65 -27q-44 0 -75.5 19.5
t-31.5 60.5q0 31 21 55t45.5 36.5t45.5 32.5t21 45v444q0 17 12.5 29t29.5 12z" />
    <glyph glyph-name="Idotaccent" unicode="&#x130;" horiz-adv-x="206" 
d="M104 849q-18 0 -31 12.5t-13 31.5q0 18 13 30.5t31 12.5t30.5 -12.5t12.5 -30.5q0 -19 -12.5 -31.5t-30.5 -12.5zM104 703q17 0 29.5 -13t12.5 -31v-620q0 -17 -12.5 -30.5t-29.5 -13.5q-18 0 -31 13t-13 31v620q0 18 12.5 31t31.5 13z" />
    <glyph glyph-name="dotlessi" unicode="&#x131;" horiz-adv-x="233" 
d="M117 523q17 0 29 -12.5t12 -28.5v-444q0 -17 -12.5 -29.5t-28.5 -12.5q-17 0 -29.5 12.5t-12.5 29.5v444q0 17 12.5 29t29.5 12z" />
    <glyph glyph-name="IJ" unicode="&#x132;" horiz-adv-x="717" 
d="M104 703q17 0 29.5 -13t12.5 -31v-620q0 -17 -12.5 -30.5t-29.5 -13.5q-18 0 -31 13t-13 31v620q0 18 12.5 31t31.5 13zM614 703q17 0 30 -12.5t13 -28.5v-402q0 -140 -64.5 -203.5t-165.5 -63.5q-98 0 -159 52q-27 22 -27 45q0 15 9.5 26t26.5 11q21 0 33 -12
q53 -44 117 -44q143 0 143 189v402q0 17 13 29t31 12z" />
    <glyph glyph-name="ij" unicode="&#x133;" horiz-adv-x="442" 
d="M103 640q-17 0 -30 12.5t-13 29.5t13 29.5t30 12.5t29.5 -12.5t12.5 -29.5t-12.5 -29.5t-29.5 -12.5zM340 640q-17 0 -30 12.5t-13 29.5t13 29.5t30 12.5t29.5 -12.5t12.5 -29.5t-12.5 -29.5t-29.5 -12.5zM103 523q17 0 29 -12.5t12 -29.5v-444q0 -18 -12 -30.5
t-29 -12.5t-29.5 12.5t-12.5 30.5v444q0 17 12.5 29.5t29.5 12.5zM340 523q17 0 29 -12.5t12 -29.5v-541q0 -75 -35.5 -110t-93.5 -35q-43 0 -76 18q-31 17 -31 42q0 19 15.5 30t33.5 4q35 -15 50 -15q54 0 54 80v527q0 17 12.5 29.5t29.5 12.5z" />
    <glyph glyph-name="Kcommaaccent" unicode="&#x136;" horiz-adv-x="647" 
d="M607 60q10 -12 10 -26q0 -16 -11.5 -27.5t-27.5 -11.5q-17 0 -28 13l-283 307l-122 -125v-152q0 -17 -13 -30t-30 -13t-29.5 13.5t-12.5 30.5v623q0 17 12.5 30t29.5 13t30 -13t13 -30v-360l379 389q16 14 30 14q16 0 27.5 -11.5t11.5 -27.5t-9 -26l-264 -271zM351 20
q36 0 17 -38l-79 -161q-11 -24 -40 -24h-6q-15 0 -20.5 9.5t0.5 23.5l55 157q12 33 42 33h31z" />
    <glyph glyph-name="kcommaaccent" unicode="&#x137;" horiz-adv-x="526" 
d="M490 58q11 -11 11 -27q0 -15 -10.5 -25.5t-25.5 -10.5q-18 0 -27 11l-216 228l-79 -79v-118q0 -17 -12.5 -29.5t-28.5 -12.5q-17 0 -29.5 12.5t-12.5 29.5v636q0 17 12.5 29t29.5 12q16 0 28.5 -12t12.5 -29v-418l251 256q10 12 28 12q16 0 27 -11t11 -27q0 -17 -11 -26
l-175 -174zM288 20q36 0 17 -38l-79 -161q-11 -24 -40 -24h-6q-15 0 -20.5 9.5t0.5 23.5l55 157q12 33 42 33h31z" />
    <glyph glyph-name="Lacute" unicode="&#x139;" horiz-adv-x="518" 
d="M196 950q19 0 32 -13t13 -32q0 -14 -10 -27l-94 -125q-9 -11 -23 -11q-15 0 -23 11t-1 26l65 143q12 28 41 28zM145 75h300q16 0 27 -10.5t11 -26.5t-11 -27t-27 -11h-339q-20 0 -33 13t-13 33v613q0 18 12.5 31t30.5 13q17 0 29.5 -13t12.5 -31v-584z" />
    <glyph glyph-name="lacute" unicode="&#x13a;" horiz-adv-x="203" 
d="M164 952q19 0 32 -13t13 -32q0 -14 -10 -27l-94 -125q-9 -11 -23 -11q-15 0 -23 11t-1 26l65 143q12 28 41 28zM143 37q0 -17 -12.5 -29.5t-28.5 -12.5q-17 0 -29.5 12.5t-12.5 29.5v636q0 17 12.5 29t29.5 12q16 0 28.5 -12t12.5 -29v-636z" />
    <glyph glyph-name="Lcommaaccent" unicode="&#x13b;" horiz-adv-x="518" 
d="M445 75q16 0 27 -10.5t11 -26.5t-11 -27t-27 -11h-125q-2 -8 -6 -18l-79 -161q-11 -24 -40 -24h-6q-15 0 -20.5 9.5t0.5 23.5l55 157l6 13h-124q-20 0 -33 13t-13 33v613q0 18 12.5 31t30.5 13q17 0 29.5 -13t12.5 -31v-584h300z" />
    <glyph glyph-name="lcommaaccent" unicode="&#x13c;" horiz-adv-x="203" 
d="M143 673v-636q0 -17 -11 -28q2 -13 -6 -27l-79 -161q-11 -24 -40 -24h-6q-15 0 -20.5 9.5t0.5 23.5l55 157q10 27 29 31q-5 10 -5 19v636q0 17 12.5 29t29.5 12q16 0 28.5 -12t12.5 -29z" />
    <glyph glyph-name="Lcaron" unicode="&#x13d;" horiz-adv-x="518" 
d="M261 540q-15 0 -20.5 9.5t0.5 23.5l55 157q12 33 42 33h31q36 0 17 -38l-79 -161q-11 -24 -40 -24h-6zM145 75h300q16 0 27 -10.5t11 -26.5t-11 -27t-27 -11h-339q-20 0 -33 13t-13 33v613q0 18 12.5 31t30.5 13q17 0 29.5 -13t12.5 -31v-584z" />
    <glyph glyph-name="lcaron" unicode="&#x13e;" horiz-adv-x="389" 
d="M143 37q0 -17 -12.5 -29.5t-28.5 -12.5q-17 0 -29.5 12.5t-12.5 29.5v636q0 17 12.5 29t29.5 12q16 0 28.5 -12t12.5 -29v-636zM236 477q-15 0 -20.5 9.5t0.5 23.5l55 157q12 33 42 33h31q36 0 17 -38l-79 -161q-11 -24 -40 -24h-6z" />
    <glyph glyph-name="Ldot" unicode="&#x13f;" horiz-adv-x="518" 
d="M145 75h300q16 0 27 -10.5t11 -26.5t-11 -27t-27 -11h-339q-20 0 -33 13t-13 33v613q0 18 12.5 31t30.5 13q17 0 29.5 -13t12.5 -31v-584zM352 318q-21 0 -36 15t-15 36q0 20 15 35t36 15q20 0 35 -15t15 -35q0 -21 -15 -36t-35 -15z" />
    <glyph glyph-name="ldot" unicode="&#x140;" horiz-adv-x="385" 
d="M143 37q0 -17 -12.5 -29.5t-28.5 -12.5q-17 0 -29.5 12.5t-12.5 29.5v636q0 17 12.5 29t29.5 12q16 0 28.5 -12t12.5 -29v-636zM275 316q-21 0 -36 15t-15 36q0 20 15 35t36 15q20 0 35 -15t15 -35q0 -21 -15 -36t-35 -15z" />
    <glyph glyph-name="Lslash" unicode="&#x141;" horiz-adv-x="583" 
d="M510 75q16 0 27 -10.5t11 -26.5t-11 -27t-27 -11h-339q-20 0 -33 13t-13 33v182l-9 -10q-9 -10 -24 -10q-14 0 -23 9t-9 23q0 13 9 22l56 59v338q0 18 12.5 31t30.5 13q17 0 29.5 -13t12.5 -31v-249l74 78q8 10 23 10q13 0 22.5 -9.5t9.5 -22.5q0 -11 -9 -22l-120 -127
v-242h300z" />
    <glyph glyph-name="lslash" unicode="&#x142;" horiz-adv-x="309" 
d="M289 462q0 -13 -8 -23l-93 -98v-304q0 -17 -12.5 -29.5t-28.5 -12.5q-17 0 -29.5 12.5t-12.5 29.5v217l-29 -31q-10 -10 -24 -10q-13 0 -22.5 9.5t-9.5 22.5q0 14 9 23l76 80v325q0 17 12.5 29t29.5 12t29 -12t12 -29v-238l46 48q9 10 24 10q13 0 22 -9t9 -22z" />
    <glyph glyph-name="Nacute" unicode="&#x143;" horiz-adv-x="679" 
d="M402 952q19 0 32 -13t13 -32q0 -14 -10 -27l-94 -125q-9 -11 -23 -11q-15 0 -23 11t-1 26l65 143q12 28 41 28zM576 703q17 0 30 -13.5t13 -30.5v-623q0 -19 -11.5 -29.5t-27.5 -10.5q-25 0 -44 25l-390 526v-507q0 -17 -13 -30.5t-30 -13.5t-30 13.5t-13 30.5v623
q0 19 11.5 29.5t27.5 10.5q25 0 44 -25l390 -526v507q0 17 13 30.5t30 13.5z" />
    <glyph glyph-name="nacute" unicode="&#x144;" horiz-adv-x="585" 
d="M354 772q19 0 32 -13t13 -32q0 -14 -10 -27l-94 -125q-9 -11 -23 -11q-15 0 -23 11t-1 26l65 143q12 28 41 28zM330 525q81 0 138 -54t57 -169v-265q0 -17 -12.5 -29.5t-29.5 -12.5t-29 12.5t-12 29.5v265q0 76 -39 113t-97 37q-69 0 -112 -45.5t-51 -97.5v-272
q0 -17 -12.5 -29.5t-28.5 -12.5q-17 0 -29.5 12.5t-12.5 29.5v444q0 17 12.5 29.5t29.5 12.5t29 -12.5t12 -29.5v-81q6 36 57 80.5t130 44.5z" />
    <glyph glyph-name="Ncommaaccent" unicode="&#x145;" horiz-adv-x="679" 
d="M576 703q17 0 30 -13.5t13 -30.5v-623q0 -19 -11.5 -29.5t-27.5 -10.5q-25 0 -44 25l-390 526v-507q0 -17 -13 -30.5t-30 -13.5t-30 13.5t-13 30.5v623q0 19 11.5 29.5t27.5 10.5q25 0 44 -25l390 -526v507q0 17 13 30.5t30 13.5zM239 -203q-15 0 -20.5 9.5t0.5 23.5
l55 157q12 33 42 33h31q36 0 17 -38l-79 -161q-11 -24 -40 -24h-6z" />
    <glyph glyph-name="ncommaaccent" unicode="&#x146;" horiz-adv-x="585" 
d="M330 525q81 0 138 -54t57 -169v-265q0 -17 -12.5 -29.5t-29.5 -12.5t-29 12.5t-12 29.5v265q0 76 -39 113t-97 37q-69 0 -112 -45.5t-51 -97.5v-272q0 -17 -12.5 -29.5t-28.5 -12.5q-17 0 -29.5 12.5t-12.5 29.5v444q0 17 12.5 29.5t29.5 12.5t29 -12.5t12 -29.5v-81
q6 36 57 80.5t130 44.5zM191 -203q-15 0 -20.5 9.5t0.5 23.5l55 157q12 33 42 33h31q36 0 17 -38l-79 -161q-11 -24 -40 -24h-6z" />
    <glyph glyph-name="Ncaron" unicode="&#x147;" horiz-adv-x="679" 
d="M342 800h-4q-22 0 -40 22l-88 116q-11 14 -5 28t21 14q16 0 31 -18l83 -100l84 100q15 18 31 18q15 0 21 -14t-5 -28l-88 -116q-18 -22 -41 -22zM576 703q17 0 30 -13.5t13 -30.5v-623q0 -19 -11.5 -29.5t-27.5 -10.5q-25 0 -44 25l-390 526v-507q0 -17 -13 -30.5
t-30 -13.5t-30 13.5t-13 30.5v623q0 19 11.5 29.5t27.5 10.5q25 0 44 -25l390 -526v507q0 17 13 30.5t30 13.5z" />
    <glyph glyph-name="ncaron" unicode="&#x148;" horiz-adv-x="585" 
d="M294 620h-4q-22 0 -40 22l-88 116q-11 14 -5 28t21 14q16 0 31 -18l83 -100l84 100q15 18 31 18q15 0 21 -14t-5 -28l-88 -116q-18 -22 -41 -22zM330 525q81 0 138 -54t57 -169v-265q0 -17 -12.5 -29.5t-29.5 -12.5t-29 12.5t-12 29.5v265q0 76 -39 113t-97 37
q-69 0 -112 -45.5t-51 -97.5v-272q0 -17 -12.5 -29.5t-28.5 -12.5q-17 0 -29.5 12.5t-12.5 29.5v444q0 17 12.5 29.5t29.5 12.5t29 -12.5t12 -29.5v-81q6 36 57 80.5t130 44.5z" />
    <glyph glyph-name="Eng" unicode="&#x14a;" horiz-adv-x="679" 
d="M576 703q17 0 30 -13.5t13 -30.5v-636q0 -140 -64.5 -203.5t-165.5 -63.5q-98 0 -159 52q-27 22 -27 45q0 15 9.5 26t26.5 11q21 0 33 -12q53 -44 117 -44q143 0 143 189v3l-386 521v-507q0 -17 -13 -30.5t-30 -13.5t-30 13.5t-13 30.5v623q0 19 11.5 29.5t27.5 10.5
q25 0 44 -25l389 -525v272q0 6 1 8v226q0 17 13 30.5t30 13.5z" />
    <glyph glyph-name="eng" unicode="&#x14b;" horiz-adv-x="590" 
d="M525 158q5 -10 5 -20v-198q0 -145 -127 -145q-34 0 -75 16q-26 9 -26 36q0 19 15.5 30.5t33.5 6.5q22 -8 44 -8q52 0 52 81v60q-5 10 -5 20v265q0 76 -39 113t-97 37q-69 0 -112 -45.5t-51 -97.5v-272q0 -17 -12.5 -29.5t-28.5 -12.5q-17 0 -29.5 12.5t-12.5 29.5v444
q0 17 12.5 29.5t29.5 12.5t29 -12.5t12 -29.5v-81q6 36 57 80.5t130 44.5q81 0 138 -54t57 -169v-144z" />
    <glyph glyph-name="Omacron" unicode="&#x14c;" horiz-adv-x="795" 
d="M550 880q15 0 26 -10.5t11 -25.5t-11 -25.5t-26 -10.5h-303q-15 0 -26 10.5t-11 25.5t11 25.5t26 10.5h303zM398 707q136 0 241.5 -102t105.5 -255t-105.5 -255t-241.5 -102q-88 0 -167.5 44.5t-130 127.5t-50.5 185t50.5 185t130 127.5t167.5 44.5zM398 627
q-104 0 -182 -78.5t-78 -198.5t78 -198.5t182 -78.5q103 0 181 78.5t78 198.5t-77.5 198.5t-181.5 78.5z" />
    <glyph glyph-name="omacron" unicode="&#x14d;" horiz-adv-x="601" 
d="M452 700q15 0 26 -10.5t11 -25.5t-11 -25.5t-26 -10.5h-303q-15 0 -26 10.5t-11 25.5t11 25.5t26 10.5h303zM300 526q45 0 90 -17t84 -49t63 -84.5t24 -116.5q0 -124 -81.5 -195t-179.5 -71q-45 0 -89.5 17t-83.5 48.5t-63 84t-24 116.5t24 116.5t63 84.5t84 49t89 17z
M300 453q-69 0 -123.5 -52t-54.5 -142t54.5 -141.5t123.5 -51.5t123.5 51.5t54.5 141.5q0 91 -54.5 142.5t-123.5 51.5z" />
    <glyph glyph-name="Ohungarumlaut" unicode="&#x150;" horiz-adv-x="795" 
d="M385 952q19 0 32 -13t13 -32q0 -14 -10 -27l-94 -125q-9 -11 -23 -11q-15 0 -23 11t-1 26l65 143q12 28 41 28zM552 952q19 0 32 -13t13 -32q0 -14 -10 -27l-94 -125q-9 -11 -23 -11q-15 0 -23 11t-1 26l65 143q12 28 41 28zM398 707q136 0 241.5 -102t105.5 -255
t-105.5 -255t-241.5 -102q-88 0 -167.5 44.5t-130 127.5t-50.5 185t50.5 185t130 127.5t167.5 44.5zM398 627q-104 0 -182 -78.5t-78 -198.5t78 -198.5t182 -78.5q103 0 181 78.5t78 198.5t-77.5 198.5t-181.5 78.5z" />
    <glyph glyph-name="ohungarumlaut" unicode="&#x151;" horiz-adv-x="601" 
d="M287 772q19 0 32 -13t13 -32q0 -14 -10 -27l-94 -125q-9 -11 -23 -11q-15 0 -23 11t-1 26l65 143q12 28 41 28zM454 772q19 0 32 -13t13 -32q0 -14 -10 -27l-94 -125q-9 -11 -23 -11q-15 0 -23 11t-1 26l65 143q12 28 41 28zM300 526q45 0 90 -17t84 -49t63 -84.5
t24 -116.5q0 -124 -81.5 -195t-179.5 -71q-45 0 -89.5 17t-83.5 48.5t-63 84t-24 116.5t24 116.5t63 84.5t84 49t89 17zM300 453q-69 0 -123.5 -52t-54.5 -142t54.5 -141.5t123.5 -51.5t123.5 51.5t54.5 141.5q0 91 -54.5 142.5t-123.5 51.5z" />
    <glyph glyph-name="OE" unicode="&#x152;" horiz-adv-x="1136" 
d="M1063 75q15 0 26.5 -11t11.5 -26q0 -16 -11.5 -27t-26.5 -11h-368q-20 0 -33 13t-13 33v59q-49 -53 -115 -82.5t-136 -29.5q-88 0 -167.5 44.5t-130 127.5t-50.5 185t50.5 185t130 127.5t167.5 44.5q70 0 136 -29.5t115 -82.5v59q0 20 13 33t33 13h358q15 0 26.5 -11
t11.5 -26q0 -16 -11.5 -27t-26.5 -11h-319v-185q6 -26 9 -52h216q15 0 26 -11t11 -25q0 -15 -11 -25.5t-26 -10.5h-216q-2 -29 -9 -56v-185h329zM398 73q86 0 157.5 57t93.5 150v140q-22 93 -93 150t-158 57q-104 0 -182 -78.5t-78 -198.5t78 -198.5t182 -78.5z" />
    <glyph glyph-name="oe" unicode="&#x153;" horiz-adv-x="1025" 
d="M735 526q94 0 172.5 -69t78.5 -183q0 -47 -53 -47l-368 2q6 -79 58.5 -122t122.5 -43q66 0 116 38q22 15 35 15q14 0 22.5 -8.5t8.5 -22.5q0 -18 -22 -37q-62 -54 -162 -54q-67 0 -128 29.5t-97 86.5q-37 -57 -97.5 -87.5t-121.5 -30.5q-45 0 -89.5 17t-83.5 48.5t-63 84
t-24 116.5t24 116.5t63 84.5t84 49t89 17q61 0 121.5 -31t97.5 -88q37 57 96.5 88t119.5 31zM300 66q69 0 123.5 51.5t54.5 141.5q0 91 -54.5 142.5t-123.5 51.5t-123.5 -52t-54.5 -142t54.5 -141.5t123.5 -51.5zM565 291h340q-6 78 -56.5 120t-113.5 42q-62 0 -113 -42
t-57 -120z" />
    <glyph glyph-name="Racute" unicode="&#x154;" horiz-adv-x="592" 
d="M284 744q-15 0 -23 11t-1 26l65 143q12 28 41 28q19 0 32 -13t13 -32q0 -14 -10 -27l-94 -125q-9 -11 -23 -11zM542 64q10 -13 10 -28q0 -17 -11 -28t-27 -11q-20 0 -32 16l-198 249h-139v-224q0 -17 -12.5 -30t-29.5 -13q-18 0 -30.5 13t-12.5 30v616q0 20 13 33t33 13
h183q115 0 184.5 -61t69.5 -157q0 -81 -45 -136t-126 -75zM145 626v-290h142q82 0 127.5 36.5t45.5 109.5q0 69 -46 106.5t-127 37.5h-142z" />
    <glyph glyph-name="racute" unicode="&#x155;" horiz-adv-x="395" 
d="M206 564q-15 0 -23 11t-1 26l65 143q12 28 41 28q19 0 32 -13t13 -32q0 -14 -10 -27l-94 -125q-9 -11 -23 -11zM320 525q21 0 33 -11t12 -28q0 -18 -14 -29t-40 -11q-67 0 -113.5 -42.5t-54.5 -94.5v-272q0 -17 -12 -29.5t-29 -12.5t-29.5 12.5t-12.5 29.5v444
q0 17 12.5 29.5t29.5 12.5t29 -12.5t12 -29.5v-81q6 35 56 80t121 45z" />
    <glyph glyph-name="Rcommaaccent" unicode="&#x156;" horiz-adv-x="592" 
d="M542 64q10 -13 10 -28q0 -17 -11 -28t-27 -11q-20 0 -32 16l-198 249h-139v-224q0 -17 -12.5 -30t-29.5 -13q-18 0 -30.5 13t-12.5 30v616q0 20 13 33t33 13h183q115 0 184.5 -61t69.5 -157q0 -81 -45 -136t-126 -75zM145 626v-290h142q82 0 127.5 36.5t45.5 109.5
q0 69 -46 106.5t-127 37.5h-142zM314 20q36 0 17 -38l-79 -161q-11 -24 -40 -24h-6q-15 0 -20.5 9.5t0.5 23.5l55 157q12 33 42 33h31z" />
    <glyph glyph-name="rcommaaccent" unicode="&#x157;" horiz-adv-x="395" 
d="M320 525q21 0 33 -11t12 -28q0 -18 -14 -29t-40 -11q-67 0 -113.5 -42.5t-54.5 -94.5v-272q0 -16 -12 -30q1 -9 -6 -25l-79 -161q-11 -24 -40 -24h-6q-15 0 -20.5 9.5t0.5 23.5l55 157q10 26 29 32q-4 10 -4 18v444q0 17 12.5 29.5t29.5 12.5t29 -12.5t12 -29.5v-81
q6 35 56 80t121 45z" />
    <glyph glyph-name="Rcaron" unicode="&#x158;" horiz-adv-x="592" 
d="M262 822l-88 116q-11 14 -5 28t21 14q16 0 31 -18l83 -100l84 100q15 18 31 18q15 0 21 -14t-5 -28l-88 -116q-18 -22 -41 -22h-4q-22 0 -40 22zM542 64q10 -13 10 -28q0 -17 -11 -28t-27 -11q-20 0 -32 16l-198 249h-139v-224q0 -17 -12.5 -30t-29.5 -13q-18 0 -30.5 13
t-12.5 30v616q0 20 13 33t33 13h183q115 0 184.5 -61t69.5 -157q0 -81 -45 -136t-126 -75zM145 626v-290h142q82 0 127.5 36.5t45.5 109.5q0 69 -46 106.5t-127 37.5h-142z" />
    <glyph glyph-name="rcaron" unicode="&#x159;" horiz-adv-x="395" 
d="M184 642l-88 116q-11 14 -5 28t21 14q16 0 31 -18l83 -100l84 100q15 18 31 18q15 0 21 -14t-5 -28l-88 -116q-18 -22 -41 -22h-4q-22 0 -40 22zM320 525q21 0 33 -11t12 -28q0 -18 -14 -29t-40 -11q-67 0 -113.5 -42.5t-54.5 -94.5v-272q0 -17 -12 -29.5t-29 -12.5
t-29.5 12.5t-12.5 29.5v444q0 17 12.5 29.5t29.5 12.5t29 -12.5t12 -29.5v-81q6 35 56 80t121 45z" />
    <glyph glyph-name="Sacute" unicode="&#x15a;" horiz-adv-x="558" 
d="M335 952q19 0 32 -13t13 -32q0 -14 -10 -27l-94 -125q-9 -11 -23 -11q-15 0 -23 11t-1 26l65 143q12 28 41 28zM276 707q127 0 193 -98q18 -25 18 -41q0 -14 -10 -24t-26 -10q-22 0 -38 21q-48 76 -135 76q-59 0 -94.5 -28t-35.5 -76q0 -39 26 -66.5t79 -49.5l57 -22
q108 -42 158 -85t50 -116q0 -90 -73.5 -142.5t-167.5 -52.5q-70 0 -131 31t-92 87q-14 25 -14 37q0 16 9.5 27t26.5 11q25 0 42 -26q49 -90 159 -90q63 0 109 29.5t46 88.5q0 50 -32.5 76t-103.5 53l-63 25q-82 32 -126.5 75.5t-44.5 109.5q0 80 61.5 130t152.5 50z" />
    <glyph glyph-name="sacute" unicode="&#x15b;" horiz-adv-x="462" 
d="M293 772q19 0 32 -13t13 -32q0 -14 -10 -27l-94 -125q-9 -11 -23 -11q-15 0 -23 11t-1 26l65 143q12 28 41 28zM229 526q114 0 167 -81q10 -17 10 -32t-9.5 -23.5t-24.5 -8.5q-21 0 -39 25q-35 51 -104 51q-45 0 -71 -20.5t-26 -53.5q0 -55 81 -76l64 -16
q73 -20 111.5 -53t38.5 -89q0 -72 -58.5 -113t-141.5 -41q-62 0 -110 24.5t-67 61.5q-15 26 -15 41q0 14 9 24.5t25 10.5q23 0 36 -25q32 -66 122 -66q51 0 84.5 20.5t33.5 57.5q0 54 -83 76l-75 20q-136 36 -136 142q0 64 51 104t127 40z" />
    <glyph glyph-name="Scedilla" unicode="&#x15e;" horiz-adv-x="558" 
d="M518 188q0 -81 -59.5 -131.5t-144.5 -61.5l-43 -44q36 -2 62 -26t26 -59q0 -46 -42.5 -70.5t-105.5 -19.5q-10 1 -15.5 7t-3.5 13q4 13 23 13q35 -1 55.5 15t20.5 40q0 22 -17 34.5t-39 6.5q-20 -7 -30 10q-8 13 0 28l33 53q-59 8 -108.5 37.5t-75.5 77.5q-14 25 -14 37
q0 16 9.5 27t26.5 11q25 0 42 -26q49 -90 159 -90q63 0 109 29.5t46 88.5q0 50 -32.5 76t-103.5 53l-63 25q-82 32 -126.5 75.5t-44.5 109.5q0 80 61.5 130t152.5 50q127 0 193 -98q18 -25 18 -41q0 -14 -10 -24t-26 -10q-22 0 -38 21q-48 76 -135 76q-59 0 -94.5 -28
t-35.5 -76q0 -39 26 -66.5t79 -49.5l57 -22q108 -42 158 -85t50 -116z" />
    <glyph glyph-name="scedilla" unicode="&#x15f;" horiz-adv-x="462" 
d="M427 149q0 -62 -43 -101t-110 -49l-47 -48q36 -2 62 -26t26 -59q0 -46 -42.5 -70.5t-105.5 -19.5q-10 1 -15.5 7t-3.5 13q4 13 23 13q35 -1 55.5 15t20.5 40q0 22 -17 34.5t-39 6.5q-20 -7 -30 10q-8 13 0 28l34 54q-51 6 -90 29t-55 55q-15 26 -15 41q0 14 9 24.5
t25 10.5q23 0 36 -25q32 -66 122 -66q51 0 84.5 20.5t33.5 57.5q0 54 -83 76l-75 20q-136 36 -136 142q0 64 51 104t127 40q114 0 167 -81q10 -17 10 -32t-9.5 -23.5t-24.5 -8.5q-21 0 -39 25q-35 51 -104 51q-45 0 -71 -20.5t-26 -53.5q0 -55 81 -76l64 -16
q73 -20 111.5 -53t38.5 -89z" />
    <glyph glyph-name="Scaron" unicode="&#x160;" horiz-adv-x="558" 
d="M275 800h-4q-22 0 -40 22l-88 116q-11 14 -5 28t21 14q16 0 31 -18l83 -100l84 100q15 18 31 18q15 0 21 -14t-5 -28l-88 -116q-18 -22 -41 -22zM276 707q127 0 193 -98q18 -25 18 -41q0 -14 -10 -24t-26 -10q-22 0 -38 21q-48 76 -135 76q-59 0 -94.5 -28t-35.5 -76
q0 -39 26 -66.5t79 -49.5l57 -22q108 -42 158 -85t50 -116q0 -90 -73.5 -142.5t-167.5 -52.5q-70 0 -131 31t-92 87q-14 25 -14 37q0 16 9.5 27t26.5 11q25 0 42 -26q49 -90 159 -90q63 0 109 29.5t46 88.5q0 50 -32.5 76t-103.5 53l-63 25q-82 32 -126.5 75.5t-44.5 109.5
q0 80 61.5 130t152.5 50z" />
    <glyph glyph-name="scaron" unicode="&#x161;" horiz-adv-x="462" 
d="M233 620h-4q-22 0 -40 22l-88 116q-11 14 -5 28t21 14q16 0 31 -18l83 -100l84 100q15 18 31 18q15 0 21 -14t-5 -28l-88 -116q-18 -22 -41 -22zM229 526q114 0 167 -81q10 -17 10 -32t-9.5 -23.5t-24.5 -8.5q-21 0 -39 25q-35 51 -104 51q-45 0 -71 -20.5t-26 -53.5
q0 -55 81 -76l64 -16q73 -20 111.5 -53t38.5 -89q0 -72 -58.5 -113t-141.5 -41q-62 0 -110 24.5t-67 61.5q-15 26 -15 41q0 14 9 24.5t25 10.5q23 0 36 -25q32 -66 122 -66q51 0 84.5 20.5t33.5 57.5q0 54 -83 76l-75 20q-136 36 -136 142q0 64 51 104t127 40z" />
    <glyph glyph-name="uni0162" unicode="&#x162;" horiz-adv-x="565" 
d="M497 700q15 0 26.5 -11t11.5 -26q0 -16 -11.5 -27t-26.5 -11h-172v-582h14q0 -29 -17 -55t-35 -38q36 -3 61 -27t25 -60q0 -46 -42.5 -70.5t-105.5 -19.5q-11 0 -15.5 5t-2.5 12q7 15 24 15q35 1 54.5 17.5t19.5 40.5q0 23 -16.5 36t-38.5 5q-18 -8 -28 8q-8 14 -1 30
q22 49 27 72q-8 13 -8 26v585h-173q-15 0 -26 11t-11 27q0 15 11 26t26 11h430z" />
    <glyph glyph-name="uni0163" unicode="&#x163;" horiz-adv-x="327" 
d="M297 44q0 -33 -49 -44l-48 -49q36 -2 62 -26t26 -59q0 -46 -42.5 -70.5t-105.5 -19.5q-10 1 -15.5 7t-3.5 13q4 13 23 13q35 -1 55.5 15t20.5 40q0 22 -17 34.5t-39 6.5q-20 -7 -30 10q-8 13 0 28l35 55q-70 16 -70 110v343h-44q-16 0 -25.5 9.5t-9.5 25.5t9.5 25t25.5 9
h44v86q0 17 12.5 29t29.5 12t29 -12t12 -29v-86h80q15 0 25 -9.5t10 -24.5q0 -16 -10 -25.5t-25 -9.5h-80v-340q0 -44 38 -44q6 0 39 6q16 4 27 -5t11 -24z" />
    <glyph glyph-name="Tcaron" unicode="&#x164;" horiz-adv-x="565" 
d="M284 800h-4q-22 0 -40 22l-88 116q-11 14 -5 28t21 14q16 0 31 -18l83 -100l84 100q15 18 31 18q15 0 21 -14t-5 -28l-88 -116q-18 -22 -41 -22zM497 700q15 0 26.5 -11t11.5 -26q0 -16 -11.5 -27t-26.5 -11h-172v-585q0 -18 -12.5 -31.5t-29.5 -13.5q-18 0 -30.5 13.5
t-12.5 31.5v585h-173q-15 0 -26 11t-11 27q0 15 11 26t26 11h430z" />
    <glyph glyph-name="tcaron" unicode="&#x165;" horiz-adv-x="384" 
d="M324 755q19 0 32 -13t13 -32q0 -14 -10 -27l-94 -125q-9 -11 -23 -11q-15 0 -23 11t-1 26l65 143q12 28 41 28zM262 451h-80v-340q0 -44 38 -44q6 0 39 6q16 4 27 -5t11 -24q0 -25 -27.5 -37t-66.5 -12q-47 0 -75.5 24.5t-28.5 88.5v343h-44q-16 0 -25.5 9.5t-9.5 25.5
t9.5 25t25.5 9h44v86q0 17 12.5 29t29.5 12t29 -12t12 -29v-86h80q15 0 25 -9.5t10 -24.5q0 -16 -10 -25.5t-25 -9.5z" />
    <glyph glyph-name="Tbar" unicode="&#x166;" horiz-adv-x="565" 
d="M497 700q15 0 26.5 -11t11.5 -26q0 -16 -11.5 -27t-26.5 -11h-172v-105h110q15 0 26 -10.5t11 -25.5t-11 -25.5t-26 -10.5h-110v-408q0 -18 -12.5 -31.5t-29.5 -13.5q-18 0 -30.5 13.5t-12.5 31.5v408h-108q-15 0 -26 10.5t-11 25.5t11 25.5t26 10.5h108v105h-173
q-15 0 -26 11t-11 27q0 15 11 26t26 11h430z" />
    <glyph glyph-name="tbar" unicode="&#x167;" horiz-adv-x="327" 
d="M259 73q16 4 27 -5t11 -24q0 -25 -27.5 -37t-66.5 -12q-47 0 -75.5 24.5t-28.5 88.5v197h-38q-15 0 -25.5 10.5t-10.5 26.5q0 15 11 25.5t25 10.5h38v73h-44q-16 0 -25.5 9.5t-9.5 25.5t9.5 25t25.5 9h44v86q0 17 12.5 29t29.5 12t29 -12t12 -29v-86h80q15 0 25 -9.5
t10 -24.5q0 -16 -10 -25.5t-25 -9.5h-80v-73h77q15 0 26 -10.5t11 -25.5q0 -16 -11 -26.5t-26 -10.5h-77v-194q0 -44 38 -44q6 0 39 6z" />
    <glyph glyph-name="Umacron" unicode="&#x16a;" horiz-adv-x="670" 
d="M487 880q15 0 26 -10.5t11 -25.5t-11 -25.5t-26 -10.5h-303q-15 0 -26 10.5t-11 25.5t11 25.5t26 10.5h303zM563 703q18 0 30 -12t12 -29v-402q0 -123 -75.5 -195t-194.5 -72q-120 0 -195 71.5t-75 195.5v402q0 17 12 29t30 12t30.5 -12t12.5 -29v-401q0 -94 50.5 -144.5
t134.5 -50.5t134.5 50.5t50.5 144.5v401q0 17 12.5 29t30.5 12z" />
    <glyph glyph-name="umacron" unicode="&#x16b;" horiz-adv-x="585" 
d="M444 700q15 0 26 -10.5t11 -25.5t-11 -25.5t-26 -10.5h-303q-15 0 -26 10.5t-11 25.5t11 25.5t26 10.5h303zM255 -7q-81 0 -138 54t-57 169v265q0 17 12.5 29.5t29.5 12.5t29 -12.5t12 -29.5v-265q0 -76 39 -113t97 -37q69 0 112 45.5t51 97.5v272q0 17 12.5 29.5
t28.5 12.5q17 0 29.5 -12.5t12.5 -29.5v-444q0 -17 -12.5 -29.5t-29.5 -12.5t-29 12.5t-12 29.5v81q-6 -36 -57 -80.5t-130 -44.5z" />
    <glyph glyph-name="Ubreve" unicode="&#x16c;" horiz-adv-x="670" 
d="M459 952q16 0 26 -13t5 -29q-11 -53 -51.5 -89t-103.5 -36q-62 0 -103 36t-53 89q-4 16 6 29t26 13q23 0 32 -22q9 -31 33.5 -50t58.5 -19t58.5 19t33.5 50q7 22 32 22zM563 703q18 0 30 -12t12 -29v-402q0 -123 -75.5 -195t-194.5 -72q-120 0 -195 71.5t-75 195.5v402
q0 17 12 29t30 12t30.5 -12t12.5 -29v-401q0 -94 50.5 -144.5t134.5 -50.5t134.5 50.5t50.5 144.5v401q0 17 12.5 29t30.5 12z" />
    <glyph glyph-name="ubreve" unicode="&#x16d;" horiz-adv-x="585" 
d="M416 772q16 0 26 -13t5 -29q-11 -53 -51.5 -89t-103.5 -36q-62 0 -103 36t-53 89q-4 16 6 29t26 13q23 0 32 -22q9 -31 33.5 -50t58.5 -19t58.5 19t33.5 50q7 22 32 22zM255 -7q-81 0 -138 54t-57 169v265q0 17 12.5 29.5t29.5 12.5t29 -12.5t12 -29.5v-265
q0 -76 39 -113t97 -37q69 0 112 45.5t51 97.5v272q0 17 12.5 29.5t28.5 12.5q17 0 29.5 -12.5t12.5 -29.5v-444q0 -17 -12.5 -29.5t-29.5 -12.5t-29 12.5t-12 29.5v81q-6 -36 -57 -80.5t-130 -44.5z" />
    <glyph glyph-name="Uring" unicode="&#x16e;" horiz-adv-x="670" 
d="M336 971q37 0 64 -27.5t27 -64.5t-27 -63.5t-64 -26.5q-39 0 -66 26.5t-27 63.5q0 38 27 65t66 27zM335 917q-15 0 -25.5 -11t-10.5 -26t10.5 -25.5t25.5 -10.5q14 0 25 10.5t11 25.5t-11 26t-25 11zM563 703q18 0 30 -12t12 -29v-402q0 -123 -75.5 -195t-194.5 -72
q-120 0 -195 71.5t-75 195.5v402q0 17 12 29t30 12t30.5 -12t12.5 -29v-401q0 -94 50.5 -144.5t134.5 -50.5t134.5 50.5t50.5 144.5v401q0 17 12.5 29t30.5 12z" />
    <glyph glyph-name="uring" unicode="&#x16f;" horiz-adv-x="585" 
d="M293 791q37 0 64 -27.5t27 -64.5t-27 -63.5t-64 -26.5q-39 0 -66 26.5t-27 63.5q0 38 27 65t66 27zM292 737q-15 0 -25.5 -11t-10.5 -26t10.5 -25.5t25.5 -10.5q14 0 25 10.5t11 25.5t-11 26t-25 11zM255 -7q-81 0 -138 54t-57 169v265q0 17 12.5 29.5t29.5 12.5
t29 -12.5t12 -29.5v-265q0 -76 39 -113t97 -37q69 0 112 45.5t51 97.5v272q0 17 12.5 29.5t28.5 12.5q17 0 29.5 -12.5t12.5 -29.5v-444q0 -17 -12.5 -29.5t-29.5 -12.5t-29 12.5t-12 29.5v81q-6 -36 -57 -80.5t-130 -44.5z" />
    <glyph glyph-name="Uhungarumlaut" unicode="&#x170;" horiz-adv-x="670" 
d="M322 952q19 0 32 -13t13 -32q0 -14 -10 -27l-94 -125q-9 -11 -23 -11q-15 0 -23 11t-1 26l65 143q12 28 41 28zM489 952q19 0 32 -13t13 -32q0 -14 -10 -27l-94 -125q-9 -11 -23 -11q-15 0 -23 11t-1 26l65 143q12 28 41 28zM563 703q18 0 30 -12t12 -29v-402
q0 -123 -75.5 -195t-194.5 -72q-120 0 -195 71.5t-75 195.5v402q0 17 12 29t30 12t30.5 -12t12.5 -29v-401q0 -94 50.5 -144.5t134.5 -50.5t134.5 50.5t50.5 144.5v401q0 17 12.5 29t30.5 12z" />
    <glyph glyph-name="uhungarumlaut" unicode="&#x171;" horiz-adv-x="585" 
d="M279 772q19 0 32 -13t13 -32q0 -14 -10 -27l-94 -125q-9 -11 -23 -11q-15 0 -23 11t-1 26l65 143q12 28 41 28zM446 772q19 0 32 -13t13 -32q0 -14 -10 -27l-94 -125q-9 -11 -23 -11q-15 0 -23 11t-1 26l65 143q12 28 41 28zM255 -7q-81 0 -138 54t-57 169v265
q0 17 12.5 29.5t29.5 12.5t29 -12.5t12 -29.5v-265q0 -76 39 -113t97 -37q69 0 112 45.5t51 97.5v272q0 17 12.5 29.5t28.5 12.5q17 0 29.5 -12.5t12.5 -29.5v-444q0 -17 -12.5 -29.5t-29.5 -12.5t-29 12.5t-12 29.5v81q-6 -36 -57 -80.5t-130 -44.5z" />
    <glyph glyph-name="Uogonek" unicode="&#x172;" horiz-adv-x="670" 
d="M563 703q18 0 30 -12t12 -29v-402q0 -106 -56 -174.5t-150 -86.5q-52 -13 -93 -41.5t-41 -68.5q0 -25 17.5 -38.5t43.5 -13.5q33 0 33 -21q0 -27 -65 -27q-45 0 -76 21.5t-31 69.5q0 46 32 75.5t68 40.5q-101 15 -161.5 84.5t-60.5 179.5v402q0 17 12 29t30 12t30.5 -12
t12.5 -29v-401q0 -94 50.5 -144.5t134.5 -50.5t134.5 50.5t50.5 144.5v401q0 17 12.5 29t30.5 12z" />
    <glyph glyph-name="uogonek" unicode="&#x173;" horiz-adv-x="585" 
d="M483 523q17 0 29.5 -12.5t12.5 -29.5v-444v-2q-1 -28 -23 -51t-47.5 -35t-46.5 -31t-21 -41q0 -40 59 -40q35 0 35 -21q0 -27 -65 -27q-44 0 -75.5 19.5t-31.5 61.5q0 31 21 55t45.5 36t45.5 32t21 45v80q-6 -36 -57 -80.5t-130 -44.5q-81 0 -138 54t-57 169v265
q0 17 12.5 29.5t29.5 12.5t29 -12.5t12 -29.5v-265q0 -76 39 -113t97 -37q69 0 112 45.5t51 97.5v272q0 17 12.5 29.5t28.5 12.5z" />
    <glyph glyph-name="Wcircumflex" unicode="&#x174;" horiz-adv-x="1027" 
d="M516 980q23 0 41 -22l88 -116q11 -14 5 -28t-21 -14q-16 0 -31 18l-84 100l-83 -100q-15 -18 -31 -18q-15 0 -21 14t5 28l88 116q18 22 40 22h4zM951 703q17 0 29 -12t12 -28q0 -10 -4 -22l-192 -614q-10 -32 -45 -32q-33 0 -44 32l-193 521l-194 -521q-11 -32 -44 -32
q-34 0 -45 32l-191 614q-5 15 -5 22q0 16 12 28t30 12q13 0 24.5 -8t15.5 -19l162 -540l197 539q10 28 37 28q28 0 39 -28l196 -539l162 540q4 11 15.5 19t25.5 8z" />
    <glyph glyph-name="wcircumflex" unicode="&#x175;" horiz-adv-x="819" 
d="M411 800q23 0 41 -22l88 -116q11 -14 5 -28t-21 -14q-16 0 -31 18l-84 100l-83 -100q-15 -18 -31 -18q-15 0 -21 14t5 28l88 116q18 22 40 22h4zM749 523q16 0 28 -11.5t12 -27.5q0 -1 -5 -19l-148 -435q-11 -32 -39 -32q-27 0 -40 32l-148 368l-147 -368
q-13 -32 -40 -32q-28 0 -39 32l-148 435q-5 18 -5 19q0 16 11.5 27.5t27.5 11.5q28 0 37 -23l121 -375l144 372q11 26 38 26q28 0 39 -26l144 -372l121 375q8 23 36 23z" />
    <glyph glyph-name="Ycircumflex" unicode="&#x176;" horiz-adv-x="604" 
d="M304 980q23 0 41 -22l88 -116q11 -14 5 -28t-21 -14q-16 0 -31 18l-84 100l-83 -100q-15 -18 -31 -18q-15 0 -21 14t5 28l88 116q18 22 40 22h4zM532 703q16 0 27.5 -11.5t11.5 -26.5q0 -14 -8 -25l-219 -317v-286q0 -17 -12.5 -29.5t-29.5 -12.5t-30 12.5t-13 29.5v286
l-219 317q-7 11 -7 25q0 15 11.5 26.5t27.5 11.5q20 0 33 -18l197 -289l197 289q13 18 33 18z" />
    <glyph glyph-name="ycircumflex" unicode="&#x177;" horiz-adv-x="543" 
d="M157 620q-15 0 -21 14t5 28l88 116q18 22 40 22h4q23 0 41 -22l88 -116q11 -14 5 -28t-21 -14q-16 0 -31 18l-84 100l-83 -100q-15 -18 -31 -18zM474 523q16 0 27.5 -11.5t11.5 -26.5q0 -7 -4 -19l-274 -633q-12 -28 -39 -28q-16 0 -26.5 11.5t-10.5 26.5q0 7 4 19
l67 156l-196 448q-4 12 -4 19q0 15 11.5 26.5t27.5 11.5q27 0 39 -28l163 -382l164 382q12 28 39 28z" />
    <glyph glyph-name="Ydieresis" unicode="&#x178;" horiz-adv-x="604" 
d="M183 792q-19 0 -33 14t-14 33t14 33t33 14t33 -14t14 -33t-14 -33t-33 -14zM421 792q-19 0 -33 14t-14 33t14 33t33 14t33 -14t14 -33t-14 -33t-33 -14zM532 703q16 0 27.5 -11.5t11.5 -26.5q0 -14 -8 -25l-219 -317v-286q0 -17 -12.5 -29.5t-29.5 -12.5t-30 12.5
t-13 29.5v286l-219 317q-7 11 -7 25q0 15 11.5 26.5t27.5 11.5q20 0 33 -18l197 -289l197 289q13 18 33 18z" />
    <glyph glyph-name="Zacute" unicode="&#x179;" horiz-adv-x="572" 
d="M353 952q19 0 32 -13t13 -32q0 -14 -10 -27l-94 -125q-9 -11 -23 -11q-15 0 -23 11t-1 26l65 143q12 28 41 28zM469 700q38 0 54 -29.5t-6 -60.5l-385 -535h362q16 0 27 -10.5t11 -26.5t-11 -27t-27 -11h-393q-38 0 -54.5 29.5t6.5 60.5l384 535h-342q-16 0 -27 11
t-11 27q0 15 11 26t27 11h374z" />
    <glyph glyph-name="zacute" unicode="&#x17a;" horiz-adv-x="493" 
d="M307 772q19 0 32 -13t13 -32q0 -14 -10 -27l-94 -125q-9 -11 -23 -11q-15 0 -23 11t-1 26l65 143q12 28 41 28zM386 520q40 0 55.5 -31t-12.5 -64l-299 -352h286q15 0 26 -11t11 -25q0 -16 -11 -26.5t-26 -10.5h-316q-40 0 -55 31t13 64l299 353h-269q-15 0 -26 10.5
t-11 25.5t11 25.5t26 10.5h298z" />
    <glyph glyph-name="Zdotaccent" unicode="&#x17b;" horiz-adv-x="572" 
d="M291 849q-18 0 -31 12.5t-13 31.5q0 18 13 30.5t31 12.5t30.5 -12.5t12.5 -30.5q0 -19 -12.5 -31.5t-30.5 -12.5zM469 700q38 0 54 -29.5t-6 -60.5l-385 -535h362q16 0 27 -10.5t11 -26.5t-11 -27t-27 -11h-393q-38 0 -54.5 29.5t6.5 60.5l384 535h-342q-16 0 -27 11
t-11 27q0 15 11 26t27 11h374z" />
    <glyph glyph-name="zdotaccent" unicode="&#x17c;" horiz-adv-x="493" 
d="M245 669q-18 0 -31 12.5t-13 31.5q0 18 13 30.5t31 12.5t30.5 -12.5t12.5 -30.5q0 -19 -12.5 -31.5t-30.5 -12.5zM386 520q40 0 55.5 -31t-12.5 -64l-299 -352h286q15 0 26 -11t11 -25q0 -16 -11 -26.5t-26 -10.5h-316q-40 0 -55 31t13 64l299 353h-269q-15 0 -26 10.5
t-11 25.5t11 25.5t26 10.5h298z" />
    <glyph glyph-name="Zcaron" unicode="&#x17d;" horiz-adv-x="572" 
d="M293 800h-4q-22 0 -40 22l-88 116q-11 14 -5 28t21 14q16 0 31 -18l83 -100l84 100q15 18 31 18q15 0 21 -14t-5 -28l-88 -116q-18 -22 -41 -22zM469 700q38 0 54 -29.5t-6 -60.5l-385 -535h362q16 0 27 -10.5t11 -26.5t-11 -27t-27 -11h-393q-38 0 -54.5 29.5t6.5 60.5
l384 535h-342q-16 0 -27 11t-11 27q0 15 11 26t27 11h374z" />
    <glyph glyph-name="zcaron" unicode="&#x17e;" horiz-adv-x="493" 
d="M247 620h-4q-22 0 -40 22l-88 116q-11 14 -5 28t21 14q16 0 31 -18l83 -100l84 100q15 18 31 18q15 0 21 -14t-5 -28l-88 -116q-18 -22 -41 -22zM386 520q40 0 55.5 -31t-12.5 -64l-299 -352h286q15 0 26 -11t11 -25q0 -16 -11 -26.5t-26 -10.5h-316q-40 0 -55 31t13 64
l299 353h-269q-15 0 -26 10.5t-11 25.5t11 25.5t26 10.5h298z" />
    <glyph glyph-name="florin" unicode="&#x192;" horiz-adv-x="308" 
d="M260 520q15 0 25 -9.5t10 -24.5q0 -16 -10 -25.5t-25 -9.5h-61v-481q0 -144 -123 -162q-21 -3 -34.5 7.5t-13.5 28.5q0 29 29 36q32 5 45.5 28.5t13.5 72.5v470h-56q-15 0 -25 9.5t-10 25.5q0 15 10 24.5t25 9.5h56v23q0 145 124 162q21 3 34.5 -7.5t13.5 -28.5
q0 -13 -8.5 -23t-20.5 -12q-32 -6 -46 -29.5t-14 -72.5v-12h61z" />
    <glyph glyph-name="uni01CD" unicode="&#x1cd;" 
d="M308 822l-88 116q-11 14 -5 28t21 14q16 0 31 -18l83 -100l84 100q15 18 31 18q15 0 21 -14t-5 -28l-88 -116q-18 -22 -41 -22h-4q-22 0 -40 22zM660 58q5 -10 5 -22q0 -16 -12 -28t-30 -12q-27 0 -40 27l-71 164h-324l-71 -164q-13 -27 -40 -27q-18 0 -30 12t-12 28
q0 12 5 22l268 614q14 32 42 32t41 -32zM218 256h264l-132 307z" />
    <glyph glyph-name="uni01CE" unicode="&#x1ce;" horiz-adv-x="607" 
d="M310 620h-4q-22 0 -40 22l-88 116q-11 14 -5 28t21 14q16 0 31 -18l83 -100l84 100q15 18 31 18q15 0 21 -14t-5 -28l-88 -116q-18 -22 -41 -22zM286 526q58 0 106.5 -28t71.5 -77v60q0 17 12 29.5t29 12.5q18 0 30 -12.5t12 -29.5v-445q0 -17 -12.5 -29.5t-29.5 -12.5
q-16 0 -28.5 12.5t-12.5 29.5v72q-16 -48 -65 -81.5t-113 -33.5q-94 0 -170 71t-76 196q0 124 76.5 195t169.5 71zM298 66q66 0 118 50.5t52 143.5q0 95 -51.5 144.5t-118.5 49.5q-68 0 -121.5 -51t-53.5 -143t53.5 -143t121.5 -51z" />
    <glyph glyph-name="uni01CF" unicode="&#x1cf;" horiz-adv-x="206" 
d="M106 800h-4q-22 0 -40 22l-88 116q-11 14 -5 28t21 14q16 0 31 -18l83 -100l84 100q15 18 31 18q15 0 21 -14t-5 -28l-88 -116q-18 -22 -41 -22zM104 703q17 0 29.5 -13t12.5 -31v-620q0 -17 -12.5 -30.5t-29.5 -13.5q-18 0 -31 13t-13 31v620q0 18 12.5 31t31.5 13z" />
    <glyph glyph-name="uni01D0" unicode="&#x1d0;" horiz-adv-x="233" 
d="M119 620h-4q-22 0 -40 22l-88 116q-11 14 -5 28t21 14q16 0 31 -18l83 -100l84 100q15 18 31 18q15 0 21 -14t-5 -28l-88 -116q-18 -22 -41 -22zM117 523q17 0 29 -12.5t12 -28.5v-444q0 -17 -12.5 -29.5t-28.5 -12.5q-17 0 -29.5 12.5t-12.5 29.5v444q0 17 12.5 29
t29.5 12z" />
    <glyph glyph-name="uni01D1" unicode="&#x1d1;" horiz-adv-x="795" 
d="M400 800h-4q-22 0 -40 22l-88 116q-11 14 -5 28t21 14q16 0 31 -18l83 -100l84 100q15 18 31 18q15 0 21 -14t-5 -28l-88 -116q-18 -22 -41 -22zM398 707q136 0 241.5 -102t105.5 -255t-105.5 -255t-241.5 -102q-88 0 -167.5 44.5t-130 127.5t-50.5 185t50.5 185
t130 127.5t167.5 44.5zM398 627q-104 0 -182 -78.5t-78 -198.5t78 -198.5t182 -78.5q103 0 181 78.5t78 198.5t-77.5 198.5t-181.5 78.5z" />
    <glyph glyph-name="uni01D2" unicode="&#x1d2;" horiz-adv-x="601" 
d="M302 620h-4q-22 0 -40 22l-88 116q-11 14 -5 28t21 14q16 0 31 -18l83 -100l84 100q15 18 31 18q15 0 21 -14t-5 -28l-88 -116q-18 -22 -41 -22zM300 526q45 0 90 -17t84 -49t63 -84.5t24 -116.5q0 -124 -81.5 -195t-179.5 -71q-45 0 -89.5 17t-83.5 48.5t-63 84
t-24 116.5t24 116.5t63 84.5t84 49t89 17zM300 453q-69 0 -123.5 -52t-54.5 -142t54.5 -141.5t123.5 -51.5t123.5 51.5t54.5 141.5q0 91 -54.5 142.5t-123.5 51.5z" />
    <glyph glyph-name="uni01D3" unicode="&#x1d3;" horiz-adv-x="670" 
d="M337 800h-4q-22 0 -40 22l-88 116q-11 14 -5 28t21 14q16 0 31 -18l83 -100l84 100q15 18 31 18q15 0 21 -14t-5 -28l-88 -116q-18 -22 -41 -22zM563 703q18 0 30 -12t12 -29v-402q0 -123 -75.5 -195t-194.5 -72q-120 0 -195 71.5t-75 195.5v402q0 17 12 29t30 12
t30.5 -12t12.5 -29v-401q0 -94 50.5 -144.5t134.5 -50.5t134.5 50.5t50.5 144.5v401q0 17 12.5 29t30.5 12z" />
    <glyph glyph-name="uni01D4" unicode="&#x1d4;" horiz-adv-x="585" 
d="M294 620h-4q-22 0 -40 22l-88 116q-11 14 -5 28t21 14q16 0 31 -18l83 -100l84 100q15 18 31 18q15 0 21 -14t-5 -28l-88 -116q-18 -22 -41 -22zM255 -7q-81 0 -138 54t-57 169v265q0 17 12.5 29.5t29.5 12.5t29 -12.5t12 -29.5v-265q0 -76 39 -113t97 -37q69 0 112 45.5
t51 97.5v272q0 17 12.5 29.5t28.5 12.5q17 0 29.5 -12.5t12.5 -29.5v-444q0 -17 -12.5 -29.5t-29.5 -12.5t-29 12.5t-12 29.5v81q-6 -36 -57 -80.5t-130 -44.5z" />
    <glyph glyph-name="uni01EA" unicode="&#x1ea;" horiz-adv-x="795" 
d="M462 -1q-52 -12 -94 -40.5t-42 -69.5q0 -25 17.5 -38.5t43.5 -13.5q33 0 33 -21q0 -27 -65 -27q-45 0 -76 21.5t-31 69.5q0 46 32.5 76t69.5 41q-124 19 -212 117t-88 236q0 102 50.5 185t130 127.5t167.5 44.5q136 0 241.5 -102t105.5 -255q0 -134 -82.5 -230.5
t-200.5 -120.5zM138 350q0 -120 78 -198.5t182 -78.5q103 0 181 78.5t78 198.5t-77.5 198.5t-181.5 78.5t-182 -78.5t-78 -198.5z" />
    <glyph glyph-name="uni01EB" unicode="&#x1eb;" horiz-adv-x="601" 
d="M561 259q0 -105 -59 -172t-144 -87h1q-52 -12 -95 -40.5t-43 -70.5q0 -25 17.5 -38.5t43.5 -13.5q33 0 33 -21q0 -27 -65 -27q-45 0 -76 21.5t-31 69.5t36 78.5t71 39.5q-86 18 -148 85.5t-62 175.5q0 64 24 116.5t63 84.5t84 49t89 17q45 0 90 -17t84 -49t63 -84.5
t24 -116.5zM300 66q69 0 123.5 51.5t54.5 141.5q0 91 -54.5 142.5t-123.5 51.5t-123.5 -52t-54.5 -142t54.5 -141.5t123.5 -51.5z" />
    <glyph glyph-name="Scommaaccent" unicode="&#x218;" horiz-adv-x="558" 
d="M518 188q0 -83 -63 -134.5t-150 -59.5q-2 -6 -5 -12l-79 -161q-11 -24 -40 -24h-6q-15 0 -20.5 9.5t0.5 23.5l55 157q3 7 6 12q-115 25 -162 112q-14 25 -14 37q0 16 9.5 27t26.5 11q25 0 42 -26q49 -90 159 -90q63 0 109 29.5t46 88.5q0 50 -32.5 76t-103.5 53l-63 25
q-82 32 -126.5 75.5t-44.5 109.5q0 80 61.5 130t152.5 50q127 0 193 -98q18 -25 18 -41q0 -14 -10 -24t-26 -10q-22 0 -38 21q-48 76 -135 76q-59 0 -94.5 -28t-35.5 -76q0 -39 26 -66.5t79 -49.5l57 -22q108 -42 158 -85t50 -116z" />
    <glyph glyph-name="scommaaccent" unicode="&#x219;" horiz-adv-x="462" 
d="M427 149q0 -64 -47 -104t-118 -48q-2 -6 -6 -15l-79 -161q-11 -24 -40 -24h-6q-15 0 -20.5 9.5t0.5 23.5l55 157q4 10 6 13q-43 10 -75.5 31.5t-46.5 49.5q-15 26 -15 41q0 14 9 24.5t25 10.5q23 0 36 -25q32 -66 122 -66q51 0 84.5 20.5t33.5 57.5q0 54 -83 76l-75 20
q-136 36 -136 142q0 64 51 104t127 40q114 0 167 -81q10 -17 10 -32t-9.5 -23.5t-24.5 -8.5q-21 0 -39 25q-35 51 -104 51q-45 0 -71 -20.5t-26 -53.5q0 -55 81 -76l64 -16q73 -20 111.5 -53t38.5 -89z" />
    <glyph glyph-name="uni021A" unicode="&#x21a;" horiz-adv-x="565" 
d="M497 700q15 0 26.5 -11t11.5 -26q0 -16 -11.5 -27t-26.5 -11h-172v-585q0 -18 -13 -33q2 -11 -6 -26l-79 -161q-11 -24 -40 -24h-6q-15 0 -20.5 9.5t0.5 23.5l55 157q10 26 30 32q-6 9 -6 22v585h-173q-15 0 -26 11t-11 27q0 15 11 26t26 11h430z" />
    <glyph glyph-name="uni021B" unicode="&#x21b;" horiz-adv-x="327" 
d="M259 73q16 4 27 -5t11 -24q0 -38 -62 -47q-1 -6 -6 -15l-79 -161q-11 -24 -40 -24h-6q-15 0 -20.5 9.5t0.5 23.5l55 157q5 12 10 18q-50 24 -50 103v343h-44q-16 0 -25.5 9.5t-9.5 25.5t9.5 25t25.5 9h44v86q0 17 12.5 29t29.5 12t29 -12t12 -29v-86h80q15 0 25 -9.5
t10 -24.5q0 -16 -10 -25.5t-25 -9.5h-80v-340q0 -44 38 -44q6 0 39 6z" />
    <glyph glyph-name="uni0237" unicode="&#x237;" horiz-adv-x="236" 
d="M135 523q17 0 29 -12.5t12 -29.5v-541q0 -75 -35.5 -110t-93.5 -35q-43 0 -76 18q-31 17 -31 42q0 19 15.5 30t33.5 4q35 -15 50 -15q54 0 54 80v527q0 17 12.5 29.5t29.5 12.5z" />
    <glyph glyph-name="circumflex" unicode="&#x2c6;" horiz-adv-x="275" 
d="M139 800q23 0 41 -22l88 -116q11 -14 5 -28t-21 -14q-16 0 -31 18l-84 100l-83 -100q-15 -18 -31 -18q-15 0 -21 14t5 28l88 116q18 22 40 22h4z" />
    <glyph glyph-name="caron" unicode="&#x2c7;" horiz-adv-x="275" 
d="M139 620h-4q-22 0 -40 22l-88 116q-11 14 -5 28t21 14q16 0 31 -18l83 -100l84 100q15 18 31 18q15 0 21 -14t-5 -28l-88 -116q-18 -22 -41 -22z" />
    <glyph glyph-name="breve" unicode="&#x2d8;" horiz-adv-x="314" 
d="M281 772q16 0 26 -13t5 -29q-11 -53 -51.5 -89t-103.5 -36q-62 0 -103 36t-53 89q-4 16 6 29t26 13q23 0 32 -22q9 -31 33.5 -50t58.5 -19t58.5 19t33.5 50q7 22 32 22z" />
    <glyph glyph-name="dotaccent" unicode="&#x2d9;" horiz-adv-x="97" 
d="M49 669q-18 0 -31 12.5t-13 31.5q0 18 13 30.5t31 12.5t30.5 -12.5t12.5 -30.5q0 -19 -12.5 -31.5t-30.5 -12.5z" />
    <glyph glyph-name="ring" unicode="&#x2da;" horiz-adv-x="184" 
d="M93 791q37 0 64 -27.5t27 -64.5t-27 -63.5t-64 -26.5q-39 0 -66 26.5t-27 63.5q0 38 27 65t66 27zM92 737q-15 0 -25.5 -11t-10.5 -26t10.5 -25.5t25.5 -10.5q14 0 25 10.5t11 25.5t-11 26t-25 11z" />
    <glyph glyph-name="ogonek" unicode="&#x2db;" horiz-adv-x="216" 
d="M216 0q-52 -12 -95 -40.5t-43 -70.5q0 -25 17.5 -38.5t43.5 -13.5q33 0 33 -21q0 -27 -65 -27q-45 0 -76 21.5t-31 69.5q0 54 45.5 87t73.5 33h97z" />
    <glyph glyph-name="tilde" unicode="&#x2dc;" horiz-adv-x="372" 
d="M109 730q41 0 90.5 -33t73.5 -33q39 0 51 28q7 13 21 13q11 0 17.5 -8.5t4.5 -19.5q-8 -38 -36 -59.5t-65 -21.5q-40 0 -90 35.5t-78 35.5q-40 0 -50 -33q-6 -14 -21 -14q-11 0 -17 8.5t-4 17.5q7 39 36.5 61.5t66.5 22.5z" />
    <glyph glyph-name="hungarumlaut" unicode="&#x2dd;" horiz-adv-x="349" 
d="M114 772q19 0 32 -13t13 -32q0 -14 -10 -27l-94 -125q-9 -11 -23 -11q-15 0 -23 11t-1 26l65 143q12 28 41 28zM281 772q19 0 32 -13t13 -32q0 -14 -10 -27l-94 -125q-9 -11 -23 -11q-15 0 -23 11t-1 26l65 143q12 28 41 28z" />
    <glyph glyph-name="uni0326" unicode="&#x326;" horiz-adv-x="0" 
d="M-166 -203q-15 0 -20.5 9.5t0.5 23.5l55 157q12 33 42 33h31q36 0 17 -38l-79 -161q-11 -24 -40 -24h-6z" />
    <glyph glyph-name="uni0394" unicode="&#x394;" horiz-adv-x="733" 
d="M378 700l305 -700h-633l305 700h23zM367 561l-208 -488h415z" />
    <glyph glyph-name="uni03A9" unicode="&#x3a9;" horiz-adv-x="794" 
d="M678 79q41 0 41 -39q0 -40 -41 -40h-167v115l40 31q109 85 109 210q0 118 -79.5 194.5t-183.5 76.5t-183 -76t-79 -195q0 -126 108 -210l40 -31v-115h-167q-41 0 -41 40q0 39 41 39h84q-150 113 -150 277q0 149 106 250t241 101t241 -101t106 -250q0 -164 -150 -277h84z
" />
    <glyph glyph-name="uni03BC" unicode="&#x3bc;" horiz-adv-x="590" 
d="M488 523q17 0 29.5 -12.5t12.5 -29.5v-444q0 -17 -12.5 -29.5t-29.5 -12.5t-29 12.5t-12 29.5v81q-6 -36 -57 -80.5t-130 -44.5q-67 0 -117 36v-182q0 -17 -12 -29.5t-29 -12.5t-29.5 12.5t-12.5 29.5v635q0 17 12.5 29t29.5 12h2h3q17 0 29 -12.5t12 -29.5v-265
q0 -76 39 -113t97 -37q69 0 112 45.5t51 97.5v272q0 17 12.5 29.5t28.5 12.5z" />
    <glyph glyph-name="pi" unicode="&#x3c0;" horiz-adv-x="680" 
d="M562 67q19 0 32 4q15 3 28 -7.5t13 -26.5q0 -12 -7.5 -21.5t-18.5 -12.5q-36 -9 -63 -9q-46 0 -77.5 23.5t-31.5 76.5v354h-205v-411q0 -17 -12 -29.5t-29 -12.5t-29.5 12.5t-12.5 29.5v411h-68q-14 0 -25 10.5t-11 25.5t11 25.5t25 10.5h506q15 0 26 -10.5t11 -25.5
t-11 -25.5t-26 -10.5h-67v-326q0 -33 9.5 -44t32.5 -11z" />
    <glyph glyph-name="uni0401" unicode="&#x401;" horiz-adv-x="547" 
d="M154 792q-20 0 -33.5 14t-13.5 33t14 33t33 14t33 -14t14 -33t-13.5 -33t-33.5 -14zM392 792q-20 0 -33.5 14t-13.5 33t14 33t33 14t33 -14t14 -33t-13.5 -33t-33.5 -14zM145 75h329q15 0 26.5 -11t11.5 -26q0 -16 -11.5 -27t-26.5 -11h-368q-20 0 -33 13t-13 33v608
q0 20 13 33t33 13h358q15 0 26.5 -11t11.5 -26q0 -16 -11.5 -27t-26.5 -11h-319v-237h225q15 0 26 -11t11 -25q0 -15 -11 -25.5t-26 -10.5h-225v-241z" />
    <glyph glyph-name="uni0404" unicode="&#x404;" horiz-adv-x="638" 
d="M554 137q16 0 27.5 -10.5t11.5 -27.5q0 -26 -35 -49q-76 -57 -183 -57q-88 0 -168 44.5t-131 127.5t-51 185q0 153 106.5 255t245.5 102q103 0 181 -56q35 -24 35 -50q0 -17 -11.5 -27.5t-27.5 -10.5q-17 0 -42 19q-55 45 -136 45q-94 0 -171 -68t-90 -172h198
q14 0 25 -10.5t11 -25.5t-10.5 -26t-25.5 -11h-198q13 -104 89.5 -172.5t170.5 -68.5q82 0 137 45q25 19 42 19z" />
    <glyph glyph-name="uni0407" unicode="&#x407;" horiz-adv-x="206" 
d="M-15 792q-19 0 -33 14t-14 33t14 33t33 14t33 -14t14 -33t-14 -33t-33 -14zM223 792q-19 0 -33 14t-14 33t14 33t33 14t33 -14t14 -33t-14 -33t-33 -14zM104 703q17 0 29.5 -13t12.5 -31v-620q0 -17 -12.5 -30.5t-29.5 -13.5q-18 0 -31 13t-13 31v620q0 18 12.5 31
t31.5 13z" />
    <glyph glyph-name="uni0410" unicode="&#x410;" 
d="M660 58q5 -10 5 -22q0 -16 -12 -28t-30 -12q-27 0 -40 27l-71 164h-324l-71 -164q-13 -27 -40 -27q-18 0 -30 12t-12 28q0 12 5 22l268 614q14 32 42 32t41 -32zM218 256h264l-132 307z" />
    <glyph glyph-name="uni0411" unicode="&#x411;" horiz-adv-x="583" 
d="M289 427q117 0 185.5 -57t68.5 -155q0 -97 -69 -156t-185 -59h-183q-20 0 -33 13t-13 33v612v3v3q0 15 11 25.5t25 10.5h356q14 0 25 -10.5t11 -25.5t-11 -25.5t-25 -10.5h-307v-201h144zM287 74q82 0 127.5 36t45.5 105q0 70 -45.5 104.5t-127.5 34.5h-142v-280h142z
" />
    <glyph glyph-name="uni0412" unicode="&#x412;" horiz-adv-x="584" 
d="M396 385q148 -47 148 -186q0 -94 -66.5 -146.5t-191.5 -52.5h-180q-20 0 -33 13t-13 33v608q0 20 13 33t33 13h175q102 0 161 -46.5t59 -127.5q0 -106 -105 -141zM145 627v-215h136q137 0 137 105q0 52 -35.5 81t-101.5 29h-136zM286 73q175 0 175 131q0 65 -44 102.5
t-131 37.5h-141v-271h141z" />
    <glyph glyph-name="uni0413" unicode="&#x413;" horiz-adv-x="523" 
d="M451 700q15 0 26 -10.5t11 -25.5t-11 -25.5t-26 -10.5h-308v-590q0 -17 -12.5 -29.5t-28.5 -12.5q-17 0 -29.5 12.5t-12.5 29.5v616q0 20 13 33t33 13h345z" />
    <glyph glyph-name="uni0414" unicode="&#x414;" horiz-adv-x="791" 
d="M666 73h48q20 0 33.5 -13.5t13.5 -33.5v-71q0 -19 -13.5 -32.5t-31.5 -13.5t-31.5 13.5t-13.5 32.5v45h-551v-45q0 -19 -13.5 -32.5t-31.5 -13.5t-31.5 13.5t-13.5 32.5v71q0 20 13 33.5t33 13.5h26q21 31 31 106t11.5 142.5t1.5 210.5v28v94q0 20 13 33t33 13h428
q20 0 33 -13t13 -33v-581zM185 73h398v555h-354v-68q0 -152 -1.5 -224t-11.5 -151t-31 -112z" />
    <glyph glyph-name="uni0415" unicode="&#x415;" horiz-adv-x="547" 
d="M145 75h329q15 0 26.5 -11t11.5 -26q0 -16 -11.5 -27t-26.5 -11h-368q-20 0 -33 13t-13 33v608q0 20 13 33t33 13h358q15 0 26.5 -11t11.5 -26q0 -16 -11.5 -27t-26.5 -11h-319v-237h225q15 0 26 -11t11 -25q0 -15 -11 -25.5t-26 -10.5h-225v-241z" />
    <glyph glyph-name="uni0416" unicode="&#x416;" horiz-adv-x="1089" 
d="M1049 60q10 -12 10 -26q0 -16 -11.5 -27.5t-27.5 -11.5q-17 0 -28 13l-283 307l-122 -125v-152q0 -17 -12 -29q-12 -14 -30 -14h-1q-18 0 -30 14q-12 12 -12 29v152l-122 125l-283 -307q-11 -13 -28 -13q-16 0 -27.5 11.5t-11.5 27.5q0 14 10 26l287 309l-264 271
q-9 10 -9 26t11.5 27.5t27.5 11.5q14 0 30 -14l379 -389v360q0 17 12.5 30t29.5 13h1q17 0 29.5 -13t12.5 -30v-360l379 389q16 14 30 14q16 0 27.5 -11.5t11.5 -27.5t-9 -26l-264 -271z" />
    <glyph glyph-name="uni0417" unicode="&#x417;" horiz-adv-x="570" 
d="M279 707q90 0 154.5 -53.5t64.5 -127.5q0 -55 -38 -96.5t-103 -56.5q72 -9 122.5 -55.5t50.5 -120.5q0 -90 -72.5 -148.5t-178.5 -58.5q-90 0 -154 45t-82 118q-6 19 4 36.5t32 17.5q15 0 26.5 -9t15.5 -20q15 -53 59.5 -84t100.5 -31q63 0 113 35t50 99q0 58 -45.5 92.5
t-123.5 41.5q-14 1 -24 12t-10 25t9.5 24t23.5 12q69 8 103.5 42t34.5 77q0 48 -39 79.5t-94 31.5q-49 0 -87 -28.5t-50 -82.5q-9 -31 -42 -31q-21 0 -31.5 16.5t-5.5 35.5q15 75 74.5 119t141.5 44z" />
    <glyph glyph-name="uni0418" unicode="&#x418;" horiz-adv-x="679" 
d="M103 703q17 0 30 -13.5t13 -30.5v-507l390 526q19 25 44 25q16 0 27.5 -10.5t11.5 -29.5v-623q0 -17 -13 -30.5t-30 -13.5t-30 13.5t-13 30.5v507l-390 -526q-19 -25 -44 -25q-16 0 -27.5 10.5t-11.5 29.5v623q0 17 13 30.5t30 13.5z" />
    <glyph glyph-name="uni0419" unicode="&#x419;" horiz-adv-x="679" 
d="M464 952q16 0 26 -13t5 -29q-11 -53 -51.5 -89t-103.5 -36q-62 0 -103 36t-53 89q-4 16 6 29t26 13q23 0 32 -22q9 -31 33.5 -50t58.5 -19t58.5 19t33.5 50q7 22 32 22zM103 703q17 0 30 -13.5t13 -30.5v-507l390 526q19 25 44 25q16 0 27.5 -10.5t11.5 -29.5v-623
q0 -17 -13 -30.5t-30 -13.5t-30 13.5t-13 30.5v507l-390 -526q-19 -25 -44 -25q-16 0 -27.5 10.5t-11.5 29.5v623q0 17 13 30.5t30 13.5z" />
    <glyph glyph-name="uni041A" unicode="&#x41a;" horiz-adv-x="647" 
d="M607 60q10 -12 10 -26q0 -16 -11.5 -27.5t-27.5 -11.5q-17 0 -28 13l-283 307l-122 -125v-152q0 -17 -13 -30t-30 -13t-29.5 13.5t-12.5 30.5v623q0 17 12.5 30t29.5 13t30 -13t13 -30v-360l379 389q16 14 30 14q16 0 27.5 -11.5t11.5 -27.5t-9 -26l-264 -271z" />
    <glyph glyph-name="uni041B" unicode="&#x41b;" horiz-adv-x="721" 
d="M615 700q20 0 33 -13t13 -33v-616q0 -17 -12.5 -29.5t-29.5 -12.5t-29 12.5t-12 29.5v590h-364v-522q0 -112 -109 -112q-90 0 -90 46q0 17 12.5 27t27.5 8q19 -7 39 -7q19 0 28 10t9 36v540q0 20 13.5 33t33.5 13h437z" />
    <glyph glyph-name="uni041C" unicode="&#x41c;" horiz-adv-x="864" 
d="M767 703q15 0 26 -10t11 -28v-624q0 -18 -12.5 -31t-30.5 -13q-17 0 -30 13.5t-13 30.5v468l-248 -460q-13 -25 -38 -25q-23 0 -37 25l-249 460v-468q0 -18 -12.5 -31t-30.5 -13t-30.5 13t-12.5 31v624q0 18 11.5 28t26.5 10q29 0 44 -29l290 -530l290 530q17 29 45 29z
" />
    <glyph glyph-name="uni041D" unicode="&#x41d;" horiz-adv-x="654" 
d="M509 660q0 18 12.5 30.5t30.5 12.5q17 0 29.5 -13t12.5 -30v-620q0 -17 -12.5 -30t-29.5 -13q-18 0 -30.5 12.5t-12.5 30.5v265h-364v-265q0 -17 -12.5 -30t-29.5 -13q-18 0 -30.5 13t-12.5 30v620q0 17 12.5 30t30.5 13q17 0 29.5 -13t12.5 -30v-281h364v281z" />
    <glyph glyph-name="uni041E" unicode="&#x41e;" horiz-adv-x="795" 
d="M398 707q136 0 241.5 -102t105.5 -255t-105.5 -255t-241.5 -102q-88 0 -167.5 44.5t-130 127.5t-50.5 185t50.5 185t130 127.5t167.5 44.5zM398 627q-104 0 -182 -78.5t-78 -198.5t78 -198.5t182 -78.5q103 0 181 78.5t78 198.5t-77.5 198.5t-181.5 78.5z" />
    <glyph glyph-name="uni041F" unicode="&#x41f;" horiz-adv-x="661" 
d="M555 700q20 0 33 -13t13 -33v-616q0 -17 -12.5 -29.5t-28.5 -12.5q-17 0 -29.5 12.5t-12.5 29.5v590h-375v-590q0 -17 -12.5 -29.5t-28.5 -12.5q-17 0 -29.5 12.5t-12.5 29.5v616q0 20 13 33t33 13h449z" />
    <glyph glyph-name="uni0420" unicode="&#x420;" horiz-adv-x="578" 
d="M289 700q115 0 184.5 -61t69.5 -157q0 -100 -68.5 -160t-185.5 -60h-144v-224q0 -17 -12.5 -30t-29.5 -13q-18 0 -30.5 13t-12.5 30v616q0 20 13 33t33 13h183zM287 336q82 0 127.5 36.5t45.5 109.5q0 69 -46 106.5t-127 37.5h-142v-290h142z" />
    <glyph glyph-name="uni0421" unicode="&#x421;" horiz-adv-x="653" 
d="M579 137q16 0 27.5 -10.5t11.5 -27.5q0 -26 -35 -49q-76 -57 -183 -57q-88 0 -168 44.5t-131 127.5t-51 185q0 153 106.5 255t245.5 102q103 0 181 -56q35 -24 35 -50q0 -17 -11.5 -27.5t-27.5 -10.5q-17 0 -42 19q-55 45 -136 45q-104 0 -183.5 -80t-79.5 -197
t79.5 -197t182.5 -80q82 0 137 45q25 19 42 19z" />
    <glyph glyph-name="uni0422" unicode="&#x422;" horiz-adv-x="565" 
d="M497 700q15 0 26.5 -11t11.5 -26q0 -16 -11.5 -27t-26.5 -11h-172v-585q0 -18 -12.5 -31.5t-29.5 -13.5q-18 0 -30.5 13.5t-12.5 31.5v585h-173q-15 0 -26 11t-11 27q0 15 11 26t26 11h430z" />
    <glyph glyph-name="uni0423" unicode="&#x423;" horiz-adv-x="620" 
d="M515 684q12 21 34 21q15 0 26.5 -11.5t11.5 -27.5q0 -10 -5 -18l-347 -632q-11 -20 -33 -20q-16 0 -27 11t-11 27q0 10 4 18l99 179l-230 417q-4 8 -4 18q0 16 11 27.5t27 11.5q23 0 33 -21l206 -374z" />
    <glyph glyph-name="uni0424" unicode="&#x424;" horiz-adv-x="817" 
d="M777 350q0 -124 -92.5 -204.5t-235.5 -80.5v-28q0 -17 -12.5 -29.5t-29.5 -12.5t-29 12.5t-12 29.5v28q-142 1 -234 81t-92 204t92 204t234 81v28q0 17 12 29.5t29 12.5t29.5 -12.5t12.5 -29.5v-28q143 0 235.5 -80.5t92.5 -204.5zM123 350q0 -91 62.5 -151t180.5 -61
v425q-118 -1 -180.5 -61.5t-62.5 -151.5zM449 138q119 0 182 60.5t63 151.5t-63 152t-182 61v-425z" />
    <glyph glyph-name="uni0425" unicode="&#x425;" horiz-adv-x="633" 
d="M578 61q10 -13 10 -29t-11.5 -26.5t-28.5 -10.5q-21 0 -36 20l-195 278l-197 -278q-14 -20 -35 -20q-17 0 -28.5 10.5t-11.5 26.5t10 29l214 300l-198 276q-10 15 -10 30t11.5 25.5t28.5 10.5q22 0 36 -20l180 -255l179 255q14 20 36 20q16 0 27.5 -10.5t11.5 -25.5
t-10 -30l-198 -276z" />
    <glyph glyph-name="uni0426" unicode="&#x426;" horiz-adv-x="722" 
d="M646 73q20 0 33 -13.5t13 -33.5v-64q0 -17 -12 -29t-28 -12q-18 0 -30 12t-12 29v38h-504q-20 0 -33 13t-13 33v616q0 17 12.5 29.5t29.5 12.5q16 0 28.5 -12.5t12.5 -29.5v-590h324v1h51v589q0 17 12.5 29.5t29.5 12.5q16 0 28.5 -12.5t12.5 -29.5v-589h45z" />
    <glyph glyph-name="uni0427" unicode="&#x427;" horiz-adv-x="596" 
d="M453 662q0 17 12 29t29 12t29.5 -12t12.5 -29v-624q0 -17 -12.5 -29.5t-29.5 -12.5t-29 12.5t-12 29.5v285q-14 -34 -65 -68.5t-129 -34.5q-90 0 -152 49.5t-62 153.5v239q0 17 12.5 29t29.5 12t29 -12.5t12 -28.5v-239q0 -64 41 -97t102 -33q69 0 116.5 37.5t65.5 83.5
v248z" />
    <glyph glyph-name="uni0428" unicode="&#x428;" horiz-adv-x="1059" 
d="M958 704q17 0 29 -12.5t12 -29.5v-616q0 -20 -13 -33t-33 -13h-847q-20 0 -33 13t-13 33v616q0 17 12.5 29.5t29.5 12.5t29 -12.5t12 -29.5v-589h345v589q0 17 12.5 29.5t29.5 12.5t29 -12.5t12 -29.5v-589h345v589q0 17 12.5 29.5t29.5 12.5z" />
    <glyph glyph-name="uni0429" unicode="&#x429;" horiz-adv-x="1120" 
d="M1044 73q20 0 33 -13.5t13 -33.5v-64q0 -17 -12 -29t-28 -12q-18 0 -30 12t-12 29v38h-902q-20 0 -33 13t-13 33v616q0 17 12.5 29.5t29.5 12.5t29 -12.5t12 -29.5v-589h345v589q0 17 12.5 29.5t29.5 12.5t29 -12.5t12 -29.5v-589h345v589q0 17 12.5 29.5t29.5 12.5
t29 -12.5t12 -29.5v-589h45z" />
    <glyph glyph-name="uni042A" unicode="&#x42a;" horiz-adv-x="668" 
d="M374 438q117 0 185.5 -60t68.5 -160q0 -96 -69.5 -157t-184.5 -61h-183q-20 0 -33 13t-13 33v586h-89q-14 0 -25 11t-11 26t11 25.5t25 10.5h132q17 0 29.5 -13t12.5 -30v-224h144zM372 74q81 0 127 37.5t46 106.5q0 73 -45.5 109.5t-127.5 36.5h-142v-290h142z" />
    <glyph glyph-name="uni042B" unicode="&#x42b;" horiz-adv-x="813" 
d="M289 438q117 0 185.5 -60t68.5 -160q0 -96 -69.5 -157t-184.5 -61h-183q-20 0 -33 13t-13 33v616q0 17 12.5 30t30.5 13q17 0 29.5 -13t12.5 -30v-224h144zM711 703q17 0 29.5 -13t12.5 -31v-620q0 -17 -12.5 -30.5t-29.5 -13.5q-18 0 -31 13t-13 31v620q0 18 12.5 31
t31.5 13zM287 74q81 0 127 37.5t46 106.5q0 73 -45.5 109.5t-127.5 36.5h-142v-290h142z" />
    <glyph glyph-name="uni042C" unicode="&#x42c;" horiz-adv-x="578" 
d="M289 438q117 0 185.5 -60t68.5 -160q0 -96 -69.5 -157t-184.5 -61h-183q-20 0 -33 13t-13 33v616q0 17 12.5 30t30.5 13q17 0 29.5 -13t12.5 -30v-224h144zM287 74q81 0 127 37.5t46 106.5q0 73 -45.5 109.5t-127.5 36.5h-142v-290h142z" />
    <glyph glyph-name="uni042D" unicode="&#x42d;" horiz-adv-x="638" 
d="M241 707q139 0 245.5 -102t106.5 -255q0 -102 -51 -185t-131 -127.5t-168 -44.5q-107 0 -183 57q-35 23 -35 49q0 17 11.5 27.5t27.5 10.5q17 0 42 -19q55 -45 137 -45q94 0 170.5 68.5t89.5 172.5h-198q-15 0 -25.5 11t-10.5 26t11 25.5t25 10.5h198q-13 104 -90 172
t-171 68q-81 0 -136 -45q-25 -19 -42 -19q-16 0 -27.5 10.5t-11.5 27.5q0 26 35 50q78 56 181 56z" />
    <glyph glyph-name="uni042E" unicode="&#x42e;" horiz-adv-x="989" 
d="M592 707q136 0 241.5 -102t105.5 -255t-105.5 -255t-241.5 -102q-128 0 -230.5 91t-115.5 230h-100v-275q0 -17 -12.5 -30.5t-29.5 -13.5q-18 0 -31 13t-13 31v620q0 18 12.5 31t31.5 13q17 0 29.5 -13t12.5 -31v-272h100q14 139 116 229.5t230 90.5zM592 73
q103 0 181 78.5t78 198.5t-77.5 198.5t-181.5 78.5t-182 -78.5t-78 -198.5t78 -198.5t182 -78.5z" />
    <glyph glyph-name="uni042F" unicode="&#x42f;" horiz-adv-x="592" 
d="M486 700q20 0 33 -13t13 -33v-616q0 -17 -12.5 -30t-30.5 -13q-17 0 -29.5 13t-12.5 30v224h-139l-198 -249q-12 -16 -32 -16q-16 0 -27 11t-11 28q0 15 10 28l170 207q-81 20 -126 75t-45 136q0 96 69.5 157t184.5 61h183zM305 336h142v290h-142q-81 0 -127 -37.5
t-46 -106.5q0 -73 45.5 -109.5t127.5 -36.5z" />
    <glyph glyph-name="uni0430" unicode="&#x430;" horiz-adv-x="607" 
d="M286 526q58 0 106.5 -28t71.5 -77v60q0 17 12 29.5t29 12.5q18 0 30 -12.5t12 -29.5v-445q0 -17 -12.5 -29.5t-29.5 -12.5q-16 0 -28.5 12.5t-12.5 29.5v72q-16 -48 -65 -81.5t-113 -33.5q-94 0 -170 71t-76 196q0 124 76.5 195t169.5 71zM298 66q66 0 118 50.5t52 143.5
q0 95 -51.5 144.5t-118.5 49.5q-68 0 -121.5 -51t-53.5 -143t53.5 -143t121.5 -51z" />
    <glyph glyph-name="uni0431" unicode="&#x431;" horiz-adv-x="608" 
d="M322 526q93 0 169.5 -71t76.5 -195q0 -125 -76 -196t-170 -71q-64 0 -113 33.5t-65 81.5v-72q0 -17 -12.5 -29.5t-28.5 -12.5q-17 0 -29.5 12.5t-12.5 29.5v484q0 93 47.5 136.5t150.5 43.5h79q56 0 80 16q14 10 27 10q14 0 22.5 -9.5t8.5 -22.5q0 -20 -12 -32
q-34 -35 -117 -35h-88q-58 0 -86.5 -25.5t-28.5 -81.5v-99q23 49 71.5 77t106.5 28zM310 66q68 0 121.5 51t53.5 143t-53.5 143t-121.5 51q-67 0 -118.5 -49.5t-51.5 -144.5q0 -93 52 -143.5t118 -50.5z" />
    <glyph glyph-name="uni0432" unicode="&#x432;" horiz-adv-x="548" 
d="M405 288q108 -35 108 -137q0 -74 -55.5 -112.5t-162.5 -38.5h-189q-20 0 -33 13t-13 33v428q0 20 13 33t33 13h189q84 0 131.5 -34.5t47.5 -95.5q0 -79 -69 -102zM143 450v-136h151q97 0 97 67q0 69 -97 69h-151zM295 70q136 0 136 86q0 92 -136 92h-152v-178h152z" />
    <glyph glyph-name="uni0433" unicode="&#x433;" horiz-adv-x="479" 
d="M412 520q15 0 26 -10.5t11 -25.5t-11 -25.5t-26 -10.5h-269v-410q0 -17 -12.5 -29.5t-28.5 -12.5q-17 0 -29.5 12.5t-12.5 29.5v436q0 20 13 33t33 13h306z" />
    <glyph glyph-name="uni0434" unicode="&#x434;" horiz-adv-x="636" 
d="M565 73q20 0 33 -13.5t13 -33.5v-66q0 -17 -12.5 -29.5t-29.5 -12.5t-29 12.5t-12 29.5v40h-420v-40q0 -17 -12 -29.5t-29 -12.5t-29.5 12.5t-12.5 29.5v66q0 20 13 33.5t33 13.5h8q20 44 26 114.5t6 205.5v81q0 20 13 33t33 13h351q20 0 33 -13t13 -33v-401h11zM194 393
q0 -248 -29 -320h306v375h-277v-55z" />
    <glyph glyph-name="uni0435" unicode="&#x435;" horiz-adv-x="587" 
d="M296 526q94 0 172.5 -69t78.5 -183q0 -47 -53 -47l-368 2q6 -79 58.5 -122t122.5 -43q66 0 116 38q23 15 35 15q14 0 22.5 -8.5t8.5 -22.5q0 -18 -22 -37q-62 -54 -162 -54q-106 0 -185.5 69t-79.5 195q0 85 41 148t98 91t117 28zM296 453q-62 0 -113 -42t-57 -120h340
q-6 78 -56.5 120t-113.5 42z" />
    <glyph glyph-name="uni0436" unicode="&#x436;" horiz-adv-x="802" 
d="M767 62q11 -13 11 -27q0 -16 -11.5 -27.5t-27.5 -11.5t-28 12l-208 212l-60 -60v-123q0 -17 -12.5 -29t-28.5 -12h-1q-17 0 -29 12t-12 29v123l-60 60l-208 -212q-12 -12 -28 -12t-27.5 11.5t-11.5 27.5q0 14 11 27l211 212l-184 184q-11 11 -11 27t11 27t27 11
q15 0 27 -12l243 -244v215v2q1 16 13 27.5t28 11.5h1q16 0 28.5 -12.5t12.5 -28.5v-215l243 244q12 12 27 12q16 0 27 -11t11 -27t-11 -27l-184 -184z" />
    <glyph glyph-name="uni0437" unicode="&#x437;" horiz-adv-x="507" 
d="M248 525q77 0 132 -40.5t55 -98.5q0 -41 -27.5 -69.5t-67.5 -38.5q47 -7 87 -40t40 -89q0 -71 -63.5 -113.5t-150.5 -42.5q-78 0 -134 36t-76 96q-7 20 3 37t31 17q27 0 37 -24q13 -43 51.5 -67t88.5 -24t90.5 23.5t39.5 65.5q0 38 -36 62t-96 26q-15 0 -25 9t-10 23
t9.5 23t24.5 11q101 7 101 72q0 34 -32.5 54.5t-72.5 20.5q-39 0 -72 -20t-46 -53q-2 -8 -11.5 -14t-21.5 -6q-22 0 -31.5 19t0.5 39q18 47 68.5 76.5t114.5 29.5z" />
    <glyph glyph-name="uni0438" unicode="&#x438;" horiz-adv-x="590" 
d="M422 499q27 37 67.5 24t40.5 -59v-427q0 -17 -12.5 -29.5t-29.5 -12.5t-29 12.5t-12 29.5v369l-280 -385q-27 -37 -67 -24t-40 59v427q0 17 12.5 29.5t29.5 12.5t29 -12.5t12 -29.5v-369z" />
    <glyph glyph-name="uni0439" unicode="&#x439;" horiz-adv-x="590" 
d="M419 772q16 0 26 -13t5 -29q-11 -53 -51.5 -89t-103.5 -36q-62 0 -103 36t-53 89q-4 16 6 29t26 13q23 0 32 -22q9 -31 33.5 -50t58.5 -19t58.5 19t33.5 50q7 22 32 22zM422 499q27 37 67.5 24t40.5 -59v-427q0 -17 -12.5 -29.5t-29.5 -12.5t-29 12.5t-12 29.5v369
l-280 -385q-27 -37 -67 -24t-40 59v427q0 17 12.5 29.5t29.5 12.5t29 -12.5t12 -29.5v-369z" />
    <glyph glyph-name="uni043A" unicode="&#x43a;" horiz-adv-x="503" 
d="M467 62q11 -13 11 -27q0 -16 -11.5 -27.5t-27.5 -11.5t-28 12l-208 212l-60 -60v-123q0 -17 -12.5 -29t-28.5 -12q-17 0 -29.5 12.5t-12.5 29.5v444q0 17 12.5 29t29.5 12q16 0 28.5 -12.5t12.5 -28.5v-215l243 244q12 12 27 12q16 0 27 -11t11 -27t-11 -27l-184 -184z
" />
    <glyph glyph-name="uni043B" unicode="&#x43b;" horiz-adv-x="635" 
d="M529 520q20 0 33 -13t13 -33v-438q0 -17 -12.5 -29.5t-28.5 -12.5q-17 0 -29.5 12.5t-12.5 29.5v412h-285v-341q0 -113 -108 -113q-36 0 -60 11.5t-24 34.5q0 16 12.5 26t27.5 7q25 -5 32 -5q37 0 37 46v360q0 20 13 33t33 13h359z" />
    <glyph glyph-name="uni043C" unicode="&#x43c;" horiz-adv-x="781" 
d="M589 486q17 31 49 37t57.5 -13.5t25.5 -55.5v-416q0 -17 -12.5 -29.5t-29.5 -12.5t-29 12.5t-12 29.5v367l-206 -387q-13 -23 -42 -23t-41 23l-206 387v-367q0 -17 -12.5 -29.5t-28.5 -12.5q-17 0 -29.5 12.5t-12.5 29.5v416q0 36 25.5 55.5t57.5 13.5t49 -37l198 -375z
" />
    <glyph glyph-name="uni043D" unicode="&#x43d;" horiz-adv-x="575" 
d="M432 482q0 17 12 29t29 12t29.5 -12t12.5 -29v-444q0 -17 -12.5 -29.5t-29.5 -12.5t-29 12.5t-12 29.5v186h-289v-186q0 -17 -12.5 -29.5t-28.5 -12.5q-17 0 -29.5 12.5t-12.5 29.5v444q0 17 12.5 29t29.5 12q16 0 28.5 -12.5t12.5 -28.5v-185h289v185z" />
    <glyph glyph-name="uni043E" unicode="&#x43e;" horiz-adv-x="601" 
d="M300 526q45 0 90 -17t84 -49t63 -84.5t24 -116.5q0 -124 -81.5 -195t-179.5 -71q-45 0 -89.5 17t-83.5 48.5t-63 84t-24 116.5t24 116.5t63 84.5t84 49t89 17zM300 453q-69 0 -123.5 -52t-54.5 -142t54.5 -141.5t123.5 -51.5t123.5 51.5t54.5 141.5q0 91 -54.5 142.5
t-123.5 51.5z" />
    <glyph glyph-name="uni043F" unicode="&#x43f;" horiz-adv-x="571" 
d="M465 520q20 0 33 -13t13 -33v-436q0 -17 -12.5 -29.5t-28.5 -12.5q-17 0 -29.5 12.5t-12.5 29.5v410h-285v-410q0 -17 -12.5 -29.5t-28.5 -12.5q-17 0 -29.5 12.5t-12.5 29.5v436q0 20 13 33t33 13h359z" />
    <glyph glyph-name="uni0440" unicode="&#x440;" horiz-adv-x="607" 
d="M321 526q93 0 169.5 -71t76.5 -195q0 -125 -76 -196t-170 -71q-64 0 -112.5 32.5t-64.5 79.5v-258q0 -17 -12.5 -29.5t-29.5 -12.5t-29.5 12.5t-12.5 29.5v634q0 17 12 29.5t30 12.5q17 0 29 -12.5t12 -29.5v-60q23 49 71.5 77t106.5 28zM309 66q68 0 121.5 51t53.5 143
t-53.5 143t-121.5 51q-67 0 -118.5 -49.5t-51.5 -144.5q0 -93 52 -143.5t118 -50.5z" />
    <glyph glyph-name="uni0441" unicode="&#x441;" horiz-adv-x="538" 
d="M463 145q15 0 25 -9.5t10 -24.5t-19 -36q-66 -80 -179 -80q-99 0 -179.5 70.5t-80.5 194.5q0 64 24 116.5t62 84t83 48.5t91 17q113 0 179 -79q19 -24 19 -37q0 -15 -10 -24.5t-25 -9.5q-20 0 -35 19q-44 58 -124 58q-73 0 -127.5 -51t-54.5 -142q0 -90 54.5 -141
t127.5 -51q80 0 124 58q15 19 35 19z" />
    <glyph glyph-name="uni0442" unicode="&#x442;" horiz-adv-x="468" 
d="M401 520q15 0 26 -10.5t11 -25.5t-11 -25.5t-26 -10.5h-126v-410q0 -17 -12 -29.5t-29 -12.5t-29.5 12.5t-12.5 29.5v410h-126q-14 0 -25 10.5t-11 25.5t11 25.5t25 10.5h335z" />
    <glyph glyph-name="uni0443" unicode="&#x443;" horiz-adv-x="543" 
d="M474 523q16 0 27.5 -11.5t11.5 -26.5q0 -7 -4 -19l-274 -633q-12 -28 -39 -28q-16 0 -26.5 11.5t-10.5 26.5q0 7 4 19l67 156l-196 448q-4 12 -4 19q0 15 11.5 26.5t27.5 11.5q27 0 39 -28l163 -382l164 382q12 28 39 28z" />
    <glyph glyph-name="uni0444" unicode="&#x444;" horiz-adv-x="1011" 
d="M725 526q93 0 169.5 -71t76.5 -195q0 -125 -76 -196t-170 -71q-64 0 -112.5 32.5t-64.5 79.5v-258q0 -17 -12.5 -29.5t-29.5 -12.5t-29.5 12.5t-12.5 29.5v252q-23 -49 -71.5 -77t-106.5 -28q-93 0 -169.5 71t-76.5 195q0 125 76 196t170 71q64 0 112.5 -32.5t64.5 -79.5
v258q0 17 12.5 29.5t29.5 12.5t29.5 -12.5t12.5 -29.5v-252q23 49 71.5 77t106.5 28zM298 66q57 0 105 37.5t61 109.5v93q-13 72 -61.5 110t-104.5 38q-68 0 -121.5 -51t-53.5 -143t53.5 -143t121.5 -51zM713 66q68 0 121.5 51t53.5 143t-53.5 143t-121.5 51
q-57 0 -105 -37.5t-61 -109.5v-93q13 -72 61.5 -110t104.5 -38z" />
    <glyph glyph-name="uni0445" unicode="&#x445;" horiz-adv-x="498" 
d="M456 54q7 -10 7 -22q0 -15 -11 -26t-26 -11q-17 0 -29 15l-148 195l-147 -195q-12 -15 -30 -15q-14 0 -25.5 11t-11.5 26q0 12 8 22l160 208l-156 202q-8 10 -8 22q0 15 11.5 26t26.5 11q19 0 29 -15l143 -189l143 189q12 15 30 15q15 0 26.5 -11t11.5 -26q0 -11 -9 -22
l-156 -202z" />
    <glyph glyph-name="uni0446" unicode="&#x446;" horiz-adv-x="611" 
d="M535 73q20 0 33 -13.5t13 -33.5v-64q0 -17 -12 -29t-29 -12t-29 12t-12 29v38h-393q-20 0 -33 13t-13 33v436q0 17 12.5 29.5t29.5 12.5q16 0 28.5 -12.5t12.5 -29.5v-410h225v1h60v409q0 17 12.5 29.5t29.5 12.5q16 0 28.5 -12.5t12.5 -29.5v-409h24z" />
    <glyph glyph-name="uni0447" unicode="&#x447;" horiz-adv-x="554" 
d="M411 482q0 17 12.5 29t29.5 12t29 -12.5t12 -28.5v-444q0 -17 -12.5 -29.5t-28.5 -12.5q-17 0 -29.5 12.5t-12.5 29.5v227q-7 -31 -54.5 -68t-122.5 -37q-80 0 -134.5 49t-54.5 149v124q0 17 12.5 29t29.5 12t29 -12.5t12 -28.5v-125q0 -57 31 -89.5t87 -32.5
q63 0 110 39t55 87v121z" />
    <glyph glyph-name="uni0448" unicode="&#x448;" horiz-adv-x="791" 
d="M648 483q0 17 12.5 29.5t29.5 12.5t29 -12.5t12 -29.5v-437q0 -20 -13 -33t-33 -13h-579q-20 0 -33 13t-13 33v437q0 17 12.5 29.5t29.5 12.5t29 -12.5t12 -29.5v-410h211v410q0 17 12.5 29.5t29.5 12.5t29 -12.5t12 -29.5v-410h211v410z" />
    <glyph glyph-name="uni0449" unicode="&#x449;" horiz-adv-x="831" 
d="M755 73q20 0 33 -13.5t13 -33.5v-64q0 -17 -12 -29t-29 -12t-29 12t-12 29v38h-613q-20 0 -33 13t-13 33v437q0 17 12.5 29.5t29.5 12.5t29 -12.5t12 -29.5v-410h211v410q0 17 12.5 29.5t29.5 12.5t29 -12.5t12 -29.5v-410h211v410q0 17 12.5 29.5t29.5 12.5t29 -12.5
t12 -29.5v-410h24z" />
    <glyph glyph-name="uni044A" unicode="&#x44a;" horiz-adv-x="631" 
d="M392 316q99 0 151.5 -41.5t52.5 -117.5q0 -75 -53 -116t-151 -41h-213q-20 0 -33 13t-13 33v405h-62q-14 0 -25 10.5t-11 25.5t11 25.5t25 10.5h104q17 0 29 -12.5t12 -28.5v-166h176zM393 73q68 0 94 22t26 62q0 87 -120 87h-177v-171h177z" />
    <glyph glyph-name="uni044B" unicode="&#x44b;" horiz-adv-x="750" 
d="M319 316q99 0 151.5 -41.5t52.5 -117.5q0 -75 -53 -116t-151 -41h-213q-20 0 -33 13t-13 33v436q0 17 12.5 29t29.5 12q16 0 28.5 -12.5t12.5 -28.5v-166h176zM648 523q17 0 29.5 -12t12.5 -29v-444q0 -17 -12.5 -29.5t-29.5 -12.5t-29 12.5t-12 29.5v444q0 17 12 29
t29 12zM320 73q68 0 94 22t26 62q0 87 -120 87h-177v-171h177z" />
    <glyph glyph-name="uni044C" unicode="&#x44c;" horiz-adv-x="558" 
d="M319 316q99 0 151.5 -41.5t52.5 -117.5q0 -75 -53 -116t-151 -41h-213q-20 0 -33 13t-13 33v436q0 17 12.5 29t29.5 12q16 0 28.5 -12.5t12.5 -28.5v-166h176zM320 73q68 0 94 22t26 62q0 87 -120 87h-177v-171h177z" />
    <glyph glyph-name="uni044D" unicode="&#x44d;" horiz-adv-x="538" 
d="M238 526q46 0 91 -17t83 -48.5t62 -84t24 -116.5q0 -124 -80.5 -194.5t-179.5 -70.5q-113 0 -179 80q-19 21 -19 36t10 24.5t25 9.5q20 0 35 -19q43 -58 124 -58q65 0 116.5 41t62.5 115h-133q-16 0 -26 10t-10 24q0 15 10 24.5t26 9.5h134q-10 77 -62 119t-118 42
q-80 0 -124 -58q-15 -19 -35 -19q-15 0 -25 9.5t-10 24.5q0 13 19 37q66 79 179 79z" />
    <glyph glyph-name="uni044E" unicode="&#x44e;" horiz-adv-x="784" 
d="M478 526q45 0 90 -17t84 -49t63 -84.5t24 -116.5q0 -124 -81.5 -195t-179.5 -71q-89 0 -167 60.5t-91 167.5h-77v-183q0 -17 -12.5 -29.5t-28.5 -12.5q-17 0 -29.5 12.5t-12.5 29.5v444q0 17 12.5 29t29.5 12q16 0 28.5 -12.5t12.5 -28.5v-186h77q13 107 91 168.5
t167 61.5zM478 66q69 0 123.5 51.5t54.5 141.5q0 91 -54.5 142.5t-123.5 51.5t-123.5 -52t-54.5 -142t54.5 -141.5t123.5 -51.5z" />
    <glyph glyph-name="uni044F" unicode="&#x44f;" horiz-adv-x="553" 
d="M447 520q20 0 33 -13t13 -33v-436q0 -17 -12.5 -29t-29.5 -12t-29 12.5t-12 28.5v166h-129l-180 -196q-12 -12 -27 -12t-26 11t-11 27q0 13 10 25l142 147q-77 10 -118 50t-41 107q0 75 53 116t151 41h213zM410 276v171h-177q-68 0 -94 -22t-26 -62q0 -87 120 -87h177z
" />
    <glyph glyph-name="uni0451" unicode="&#x451;" horiz-adv-x="587" 
d="M172 612q-20 0 -33.5 14t-13.5 33t14 33t33 14t33 -14t14 -33t-13.5 -33t-33.5 -14zM410 612q-20 0 -33.5 14t-13.5 33t14 33t33 14t33 -14t14 -33t-13.5 -33t-33.5 -14zM296 526q94 0 172.5 -69t78.5 -183q0 -47 -53 -47l-368 2q6 -79 58.5 -122t122.5 -43q66 0 116 38
q23 15 35 15q14 0 22.5 -8.5t8.5 -22.5q0 -18 -22 -37q-62 -54 -162 -54q-106 0 -185.5 69t-79.5 195q0 85 41 148t98 91t117 28zM296 453q-62 0 -113 -42t-57 -120h340q-6 78 -56.5 120t-113.5 42z" />
    <glyph glyph-name="uni0454" unicode="&#x454;" horiz-adv-x="538" 
d="M463 145q15 0 25 -9.5t10 -24.5t-19 -36q-66 -80 -179 -80q-99 0 -179.5 70.5t-80.5 194.5q0 64 24 116.5t62 84t83 48.5t91 17q113 0 179 -79q19 -24 19 -37q0 -15 -10 -24.5t-25 -9.5q-20 0 -35 19q-44 58 -124 58q-66 0 -118 -42t-62 -119h134q16 0 26 -9.5t10 -24.5
q0 -14 -10 -24t-26 -10h-133q11 -74 62.5 -115t116.5 -41q80 0 124 58q15 19 35 19z" />
    <glyph glyph-name="uni0457" unicode="&#x457;" horiz-adv-x="233" 
d="M-2 612q-20 0 -33.5 14t-13.5 33t14 33t33 14t33 -14t14 -33t-13.5 -33t-33.5 -14zM236 612q-20 0 -33.5 14t-13.5 33t14 33t33 14t33 -14t14 -33t-13.5 -33t-33.5 -14zM117 523q17 0 29 -12.5t12 -28.5v-444q0 -17 -12.5 -29.5t-28.5 -12.5q-17 0 -29.5 12.5t-12.5 29.5
v444q0 17 12.5 29t29.5 12z" />
    <glyph glyph-name="uni0490" unicode="&#x490;" horiz-adv-x="523" 
d="M447 756q17 0 29 -11.5t12 -28.5v-52q0 -15 -11 -25.5t-26 -10.5h-308v-590q0 -17 -12.5 -29.5t-28.5 -12.5q-17 0 -29.5 12.5t-12.5 29.5v616q0 20 13 33t33 13h301v16q0 16 11.5 28t28.5 12z" />
    <glyph glyph-name="uni0491" unicode="&#x491;" horiz-adv-x="479" 
d="M408 581q17 0 29 -12t12 -29v-58q-1 -14 -12 -24t-25 -10h-269v-410q0 -17 -12.5 -29.5t-28.5 -12.5q-17 0 -29.5 12.5t-12.5 29.5v436q0 20 13 33t33 13h262v20q0 17 12 29t28 12z" />
    <glyph glyph-name="Wgrave" unicode="&#x1e80;" horiz-adv-x="1027" 
d="M440 952q29 0 41 -28l65 -143q7 -15 -1 -26t-23 -11q-14 0 -23 11l-94 125q-10 13 -10 27q0 19 13 32t32 13zM951 703q17 0 29 -12t12 -28q0 -10 -4 -22l-192 -614q-10 -32 -45 -32q-33 0 -44 32l-193 521l-194 -521q-11 -32 -44 -32q-34 0 -45 32l-191 614q-5 15 -5 22
q0 16 12 28t30 12q13 0 24.5 -8t15.5 -19l162 -540l197 539q10 28 37 28q28 0 39 -28l196 -539l162 540q4 11 15.5 19t25.5 8z" />
    <glyph glyph-name="wgrave" unicode="&#x1e81;" horiz-adv-x="819" 
d="M335 772q29 0 41 -28l65 -143q7 -15 -1 -26t-23 -11q-14 0 -23 11l-94 125q-10 13 -10 27q0 19 13 32t32 13zM749 523q16 0 28 -11.5t12 -27.5q0 -1 -5 -19l-148 -435q-11 -32 -39 -32q-27 0 -40 32l-148 368l-147 -368q-13 -32 -40 -32q-28 0 -39 32l-148 435
q-5 18 -5 19q0 16 11.5 27.5t27.5 11.5q28 0 37 -23l121 -375l144 372q11 26 38 26q28 0 39 -26l144 -372l121 375q8 23 36 23z" />
    <glyph glyph-name="Wacute" unicode="&#x1e82;" horiz-adv-x="1027" 
d="M576 952q19 0 32 -13t13 -32q0 -14 -10 -27l-94 -125q-9 -11 -23 -11q-15 0 -23 11t-1 26l65 143q12 28 41 28zM951 703q17 0 29 -12t12 -28q0 -10 -4 -22l-192 -614q-10 -32 -45 -32q-33 0 -44 32l-193 521l-194 -521q-11 -32 -44 -32q-34 0 -45 32l-191 614
q-5 15 -5 22q0 16 12 28t30 12q13 0 24.5 -8t15.5 -19l162 -540l197 539q10 28 37 28q28 0 39 -28l196 -539l162 540q4 11 15.5 19t25.5 8z" />
    <glyph glyph-name="wacute" unicode="&#x1e83;" horiz-adv-x="819" 
d="M471 772q19 0 32 -13t13 -32q0 -14 -10 -27l-94 -125q-9 -11 -23 -11q-15 0 -23 11t-1 26l65 143q12 28 41 28zM749 523q16 0 28 -11.5t12 -27.5q0 -1 -5 -19l-148 -435q-11 -32 -39 -32q-27 0 -40 32l-148 368l-147 -368q-13 -32 -40 -32q-28 0 -39 32l-148 435
q-5 18 -5 19q0 16 11.5 27.5t27.5 11.5q28 0 37 -23l121 -375l144 372q11 26 38 26q28 0 39 -26l144 -372l121 375q8 23 36 23z" />
    <glyph glyph-name="Wdieresis" unicode="&#x1e84;" horiz-adv-x="1027" 
d="M395 792q-19 0 -33 14t-14 33t14 33t33 14t33 -14t14 -33t-14 -33t-33 -14zM633 792q-19 0 -33 14t-14 33t14 33t33 14t33 -14t14 -33t-14 -33t-33 -14zM951 703q17 0 29 -12t12 -28q0 -10 -4 -22l-192 -614q-10 -32 -45 -32q-33 0 -44 32l-193 521l-194 -521
q-11 -32 -44 -32q-34 0 -45 32l-191 614q-5 15 -5 22q0 16 12 28t30 12q13 0 24.5 -8t15.5 -19l162 -540l197 539q10 28 37 28q28 0 39 -28l196 -539l162 540q4 11 15.5 19t25.5 8z" />
    <glyph glyph-name="wdieresis" unicode="&#x1e85;" horiz-adv-x="819" 
d="M290 612q-20 0 -33.5 14t-13.5 33t14 33t33 14t33 -14t14 -33t-13.5 -33t-33.5 -14zM528 612q-20 0 -33.5 14t-13.5 33t14 33t33 14t33 -14t14 -33t-13.5 -33t-33.5 -14zM749 523q16 0 28 -11.5t12 -27.5q0 -1 -5 -19l-148 -435q-11 -32 -39 -32q-27 0 -40 32l-148 368
l-147 -368q-13 -32 -40 -32q-28 0 -39 32l-148 435q-5 18 -5 19q0 16 11.5 27.5t27.5 11.5q28 0 37 -23l121 -375l144 372q11 26 38 26q28 0 39 -26l144 -372l121 375q8 23 36 23z" />
    <glyph glyph-name="Ygrave" unicode="&#x1ef2;" horiz-adv-x="604" 
d="M228 952q29 0 41 -28l65 -143q7 -15 -1 -26t-23 -11q-14 0 -23 11l-94 125q-10 13 -10 27q0 19 13 32t32 13zM532 703q16 0 27.5 -11.5t11.5 -26.5q0 -14 -8 -25l-219 -317v-286q0 -17 -12.5 -29.5t-29.5 -12.5t-30 12.5t-13 29.5v286l-219 317q-7 11 -7 25
q0 15 11.5 26.5t27.5 11.5q20 0 33 -18l197 -289l197 289q13 18 33 18z" />
    <glyph glyph-name="ygrave" unicode="&#x1ef3;" horiz-adv-x="543" 
d="M256 575l-94 125q-10 13 -10 27q0 19 13 32t32 13q29 0 41 -28l65 -143q7 -15 -1 -26t-23 -11q-14 0 -23 11zM474 523q16 0 27.5 -11.5t11.5 -26.5q0 -7 -4 -19l-274 -633q-12 -28 -39 -28q-16 0 -26.5 11.5t-10.5 26.5q0 7 4 19l67 156l-196 448q-4 12 -4 19
q0 15 11.5 26.5t27.5 11.5q27 0 39 -28l163 -382l164 382q12 28 39 28z" />
    <glyph glyph-name="endash" unicode="&#x2013;" horiz-adv-x="609" 
d="M530 313q14 0 24 -10t10 -24q0 -13 -10 -23t-24 -10h-451q-14 0 -24 10t-10 23q0 14 10 24t24 10h451z" />
    <glyph glyph-name="emdash" unicode="&#x2014;" horiz-adv-x="669" 
d="M590 313q14 0 24 -10t10 -24q0 -13 -10 -23t-24 -10h-511q-14 0 -24 10t-10 23q0 14 10 24t24 10h511z" />
    <glyph glyph-name="quoteleft" unicode="&#x2018;" horiz-adv-x="214" 
d="M161 700q15 0 20.5 -9.5t-0.5 -23.5l-55 -157q-12 -33 -42 -33h-31q-36 0 -17 38l79 161q11 24 40 24h6z" />
    <glyph glyph-name="quoteright" unicode="&#x2019;" horiz-adv-x="214" 
d="M53 477q-15 0 -20.5 9.5t0.5 23.5l55 157q12 33 42 33h31q36 0 17 -38l-79 -161q-11 -24 -40 -24h-6z" />
    <glyph glyph-name="quotesinglbase" unicode="&#x201a;" horiz-adv-x="219" 
d="M53 -123q-15 0 -20.5 9.5t0.5 23.5l55 157q12 33 42 33h31q36 0 17 -38l-79 -161q-11 -24 -40 -24h-6z" />
    <glyph glyph-name="quotedblleft" unicode="&#x201c;" horiz-adv-x="358" 
d="M162 700q15 0 20.5 -9.5t-0.5 -23.5l-55 -157q-12 -33 -42 -33h-31q-36 0 -17 38l79 161q11 24 40 24h6zM305 700q15 0 20.5 -9.5t-0.5 -23.5l-55 -157q-12 -33 -42 -33h-31q-36 0 -17 38l79 161q11 24 40 24h6z" />
    <glyph glyph-name="quotedblright" unicode="&#x201d;" horiz-adv-x="358" 
d="M53 477q-15 0 -20.5 9.5t0.5 23.5l55 157q12 33 42 33h31q36 0 17 -38l-79 -161q-11 -24 -40 -24h-6zM196 477q-15 0 -20.5 9.5t0.5 23.5l55 157q12 33 42 33h31q36 0 17 -38l-79 -161q-11 -24 -40 -24h-6z" />
    <glyph glyph-name="quotedblbase" unicode="&#x201e;" horiz-adv-x="363" 
d="M53 -123q-15 0 -20.5 9.5t0.5 23.5l55 157q12 33 42 33h31q36 0 17 -38l-79 -161q-11 -24 -40 -24h-6zM196 -123q-15 0 -20.5 9.5t0.5 23.5l55 157q12 33 42 33h31q36 0 17 -38l-79 -161q-11 -24 -40 -24h-6z" />
    <glyph glyph-name="dagger" unicode="&#x2020;" horiz-adv-x="322" 
d="M277 562v-58h-86l-16 -203h-27l-16 203h-87v58h82l-11 138h91l-11 -138h81z" />
    <glyph glyph-name="daggerdbl" unicode="&#x2021;" horiz-adv-x="312" 
d="M187 563h85v-58h-91l-14 -131h-21l-14 131h-92v58h86l-15 137h91zM167 326l14 -131h91v-58h-85l15 -137h-91l15 137h-86v58h92l14 131h21z" />
    <glyph glyph-name="bullet" unicode="&#x2022;" horiz-adv-x="223" 
d="M112 224q-26 0 -44 17.5t-18 43.5t18 43.5t44 17.5t43.5 -18t17.5 -43t-17.5 -43t-43.5 -18z" />
    <glyph glyph-name="ellipsis" unicode="&#x2026;" horiz-adv-x="675" 
d="M91 -2q-21 0 -36 15t-15 36q0 20 15 35t36 15q20 0 35 -15t15 -35q0 -21 -15 -36t-35 -15zM338 -2q-21 0 -36 15t-15 36q0 20 15 35t36 15q20 0 35 -15t15 -35q0 -21 -15 -36t-35 -15zM585 -2q-21 0 -36 15t-15 36q0 20 15 35t36 15q20 0 35 -15t15 -35q0 -21 -15 -36
t-35 -15z" />
    <glyph glyph-name="perthousand" unicode="&#x2030;" horiz-adv-x="1016" 
d="M168 705q52 0 88 -35.5t36 -87.5q0 -51 -36 -87t-88 -36q-51 0 -87 36t-36 87q0 52 36 87.5t87 35.5zM521 674q11 17 31 17q16 0 27.5 -11.5t11.5 -27.5q0 -10 -7 -21l-404 -603q-12 -17 -33 -17q-16 0 -27 11t-11 27q0 13 6 22zM168 645q-27 0 -45.5 -18t-18.5 -45
t18.5 -45t45.5 -18q25 0 44 18.5t19 44.5t-19 44.5t-44 18.5zM529 241q52 0 88 -35.5t36 -87.5q0 -51 -36 -87t-88 -36q-51 0 -87 36t-36 87q0 52 36 87.5t87 35.5zM847 241q51 0 87.5 -36t36.5 -87t-36.5 -87t-87.5 -36t-87 36t-36 87q0 52 36 87.5t87 35.5zM529 181
q-27 0 -45.5 -18t-18.5 -45t18.5 -45t45.5 -18q25 0 44 18.5t19 44.5t-19 44.5t-44 18.5zM847 181q-27 0 -45.5 -18t-18.5 -45t18.5 -45t45.5 -18q25 0 43.5 18t18.5 45t-18.5 45t-43.5 18z" />
    <glyph glyph-name="guilsinglleft" unicode="&#x2039;" horiz-adv-x="261" 
d="M40 293q0 19 22 41l117 111q13 11 27.5 5t14.5 -22q0 -13 -18 -31l-101 -106l101 -106q18 -18 18 -31q0 -16 -14.5 -22t-27.5 5l-117 111q-22 22 -22 41v4z" />
    <glyph glyph-name="guilsinglright" unicode="&#x203a;" horiz-adv-x="261" 
d="M221 293v-4q0 -19 -22 -41l-117 -111q-14 -11 -28 -5t-14 22q0 13 18 31l101 106l-101 106q-18 18 -18 31q0 16 14 22t28 -5l117 -111q22 -22 22 -41z" />
    <glyph glyph-name="fraction" unicode="&#x2044;" horiz-adv-x="108" 
d="M288 700l-430 -700h-48l436 700h42z" />
    <glyph glyph-name="Euro" unicode="&#x20ac;" horiz-adv-x="702" 
d="M628 137q16 0 27.5 -10.5t11.5 -27.5q0 -26 -35 -49q-76 -57 -183 -57q-113 0 -209 72.5t-128 188.5h-45q-13 0 -22.5 9.5t-9.5 22.5t9.5 22.5t22.5 9.5h33q-1 10 -1 32v19h-32q-13 0 -22.5 9.5t-9.5 22.5t9.5 22.5t22.5 9.5h41q29 121 127 197.5t216 76.5q103 0 181 -56
q35 -24 35 -50q0 -17 -11.5 -27.5t-27.5 -10.5q-17 0 -42 19q-55 45 -136 45q-83 0 -154 -54t-97 -140h129q14 0 23 -9.5t9 -22.5t-9.5 -22.5t-22.5 -9.5h-140q-1 -6 -1 -19q0 -12 2 -32h139q13 0 22.5 -9.5t9.5 -22.5q0 -14 -9 -23t-23 -9h-125q29 -81 98 -131t148 -50
q82 0 137 45q25 19 42 19z" />
    <glyph glyph-name="uni20B4" unicode="&#x20b4;" horiz-adv-x="598" 
d="M526 322q13 0 22.5 -9.5t9.5 -21.5t-9.5 -21t-22.5 -9h-340q-30 -28 -30 -73q0 -59 46 -88.5t109 -29.5q109 0 159 90q17 26 42 26q17 0 26.5 -11t9.5 -27q0 -12 -14 -37q-31 -56 -92 -87t-131 -31q-94 0 -167.5 52.5t-73.5 142.5q0 41 17 73h-15q-13 0 -22.5 9t-9.5 21
t9.5 21.5t22.5 9.5h70q38 27 103 54h-173q-13 0 -22.5 9.5t-9.5 21.5t9.5 21t22.5 9h314q54 35 54 90q0 48 -35.5 76t-94.5 28q-87 0 -135 -76q-16 -21 -38 -21q-16 0 -26 10t-10 24q0 16 18 41q66 98 193 98q91 0 152.5 -50t61.5 -130q0 -51 -28 -90h28q13 0 22.5 -9
t9.5 -21t-9.5 -21.5t-22.5 -9.5h-99q-31 -18 -72 -34l-50 -20h221z" />
    <glyph glyph-name="trademark" unicode="&#x2122;" horiz-adv-x="551" 
d="M238 700v-35h-66v-145h-41v145h-66v35h173zM486 700v-180h-39v90l-60 -90h-14l-60 90v-90h-40v180h22l84 -125l85 125h22z" />
    <glyph glyph-name="oneeighth" unicode="&#x215b;" horiz-adv-x="556" 
d="M100 701v-261h-37v221l-17 -11l-18 31l35 20h37zM503 700l-430 -700h-48l436 700h42zM439 263q36 0 57.5 -20t21.5 -47q0 -34 -30 -53q43 -21 43 -66q0 -34 -27 -56.5t-65 -22.5q-37 0 -64 22.5t-27 56.5q0 45 43 66q-30 19 -30 53q0 26 21.5 46.5t56.5 20.5zM439 232
q-20 0 -30.5 -10.5t-10.5 -25.5t12.5 -27t28.5 -12q17 0 29 11.5t12 27.5q0 36 -41 36zM439 126q-22 0 -38 -14t-16 -35q0 -20 16 -34t38 -14q24 0 39 13t15 35t-15 35.5t-39 13.5z" />
    <glyph glyph-name="threeeighths" unicode="&#x215c;" horiz-adv-x="574" 
d="M116 703q32 0 56 -20.5t24 -47.5q0 -32 -30 -53q42 -18 42 -66q0 -34 -27.5 -57t-64.5 -23q-41 0 -67 27t-24 64h38q-2 -24 13.5 -41.5t39.5 -17.5q22 0 38 13.5t16 34.5q0 53 -74 46v30q63 3 63 43q0 15 -12.5 26t-30.5 11q-22 0 -34.5 -15t-11.5 -41h-38
q-2 38 22.5 62.5t61.5 24.5zM523 700l-430 -700h-48l436 700h42zM457 263q36 0 57.5 -20t21.5 -47q0 -34 -30 -53q43 -21 43 -66q0 -34 -27 -56.5t-65 -22.5q-37 0 -64 22.5t-27 56.5q0 45 43 66q-30 19 -30 53q0 26 21.5 46.5t56.5 20.5zM457 232q-20 0 -30.5 -10.5
t-10.5 -25.5t12.5 -27t28.5 -12q17 0 29 11.5t12 27.5q0 36 -41 36zM457 126q-22 0 -38 -14t-16 -35q0 -20 16 -34t38 -14q24 0 39 13t15 35t-15 35.5t-39 13.5z" />
    <glyph glyph-name="fiveeighths" unicode="&#x215d;" horiz-adv-x="576" 
d="M186 701v-32h-104l-8 -58q22 10 45 10q35 0 63 -26.5t28 -65.5t-28 -66t-67 -27q-33 0 -58.5 18.5t-31.5 43.5l33 19q2 -20 17.5 -34.5t39.5 -14.5q23 0 40 17.5t17 43.5q0 25 -16.5 42.5t-36.5 17.5q-35 0 -57 -29l-32 8l18 133h138zM523 700l-430 -700h-48l436 700h42z
M459 263q36 0 57.5 -20t21.5 -47q0 -34 -30 -53q43 -21 43 -66q0 -34 -27 -56.5t-65 -22.5q-37 0 -64 22.5t-27 56.5q0 45 43 66q-30 19 -30 53q0 26 21.5 46.5t56.5 20.5zM459 232q-20 0 -30.5 -10.5t-10.5 -25.5t12.5 -27t28.5 -12q17 0 29 11.5t12 27.5q0 36 -41 36z
M459 126q-22 0 -38 -14t-16 -35q0 -20 16 -34t38 -14q24 0 39 13t15 35t-15 35.5t-39 13.5z" />
    <glyph glyph-name="seveneighths" unicode="&#x215e;" horiz-adv-x="556" 
d="M200 701l-102 -261h-39l89 229h-121v32h173zM503 700l-430 -700h-48l436 700h42zM439 263q36 0 57.5 -20t21.5 -47q0 -34 -30 -53q43 -21 43 -66q0 -34 -27 -56.5t-65 -22.5q-37 0 -64 22.5t-27 56.5q0 45 43 66q-30 19 -30 53q0 26 21.5 46.5t56.5 20.5zM439 232
q-20 0 -30.5 -10.5t-10.5 -25.5t12.5 -27t28.5 -12q17 0 29 11.5t12 27.5q0 36 -41 36zM439 126q-22 0 -38 -14t-16 -35q0 -20 16 -34t38 -14q24 0 39 13t15 35t-15 35.5t-39 13.5z" />
    <glyph glyph-name="partialdiff" unicode="&#x2202;" horiz-adv-x="549" 
d="M223 689l125 -171q11 -16 44.5 -59.5t45.5 -62t32 -53t27 -64t7 -62.5q0 -97 -69.5 -162t-160.5 -65t-160 64t-69 157t69 158t160 65q30 0 59 -11l-169 222q-8 10 -8 22q0 16 10.5 27t26.5 11q18 0 30 -16zM274 357q-60 0 -104.5 -41.5t-44.5 -104.5t44.5 -105.5
t104.5 -42.5t105.5 42.5t45.5 105.5q0 65 -41.5 105.5t-109.5 40.5z" />
    <glyph glyph-name="product" unicode="&#x220f;" horiz-adv-x="681" 
d="M45 754q0 20 13 33t33 13h499q20 0 33 -13t13 -33v-909q0 -16 -11.5 -28t-26.5 -12q-16 0 -28 11.5t-12 28.5v878h-435v-878q0 -16 -11.5 -28t-26.5 -12q-17 0 -28.5 11.5t-11.5 28.5v909z" />
    <glyph glyph-name="summation" unicode="&#x2211;" horiz-adv-x="631" 
d="M547 800q16 0 27.5 -11.5t11.5 -27.5t-11.5 -27.5t-27.5 -11.5h-404l222 -398q11 -19 0 -38l-222 -398h404q16 0 27.5 -11.5t11.5 -27.5t-11.5 -27.5t-27.5 -11.5h-445q-35 0 -50.5 26.5t1.5 56.5l230 412l-230 412q-17 30 -1.5 56.5t50.5 26.5h445z" />
    <glyph glyph-name="minus" unicode="&#x2212;" horiz-adv-x="425" 
d="M365 313q15 0 26 -10t11 -24q0 -13 -11.5 -23t-25.5 -10h-284q-14 0 -25 10t-11 23q0 14 11 24t25 10h284z" />
    <glyph glyph-name="radical" unicode="&#x221a;" horiz-adv-x="716" 
d="M632 804q19 0 30.5 -14.5t7.5 -34.5l-235 -904q-5 -19 -22 -32.5t-38 -13.5q-19 0 -35 11.5t-22 28.5l-151 421h-78q-18 0 -31 12.5t-13 31.5q0 18 13 31t31 13h104q29 0 40 -27l140 -404l220 852q9 29 39 29z" />
    <glyph glyph-name="infinity" unicode="&#x221e;" horiz-adv-x="825" 
d="M602 426q72 0 122.5 -47t50.5 -117q0 -72 -50.5 -119.5t-122.5 -47.5q-100 0 -189 106q-91 -106 -190 -106q-72 0 -122.5 47.5t-50.5 119.5q0 70 50.5 117t122.5 47q98 0 190 -104q90 104 189 104zM225 163q72 0 141 99q-69 97 -141 97q-43 0 -70 -28.5t-27 -68.5
q0 -41 27 -70t70 -29zM599 163q44 0 71 29t27 70q0 40 -27 68.5t-71 28.5q-73 0 -140 -97q67 -99 140 -99z" />
    <glyph glyph-name="integral" unicode="&#x222b;" horiz-adv-x="281" 
d="M271 800v-72q-46 0 -65 -23.5t-19 -81.5v-647q0 -90 -43 -128t-124 -38v72q46 0 65 23.5t19 81.5v647q0 90 43.5 128t123.5 38z" />
    <glyph glyph-name="approxequal" unicode="&#x2248;" horiz-adv-x="485" 
d="M156 422q46 0 100.5 -34t82.5 -34q43 0 58 23q13 15 23 15q23 0 20 -22q-7 -38 -35.5 -60t-72.5 -22q-36 0 -68.5 18.5t-62 37t-57.5 18.5q-42 0 -58 -28q-8 -17 -22 -17q-22 0 -17 21q7 39 36 61.5t73 22.5zM156 259q46 0 100.5 -34t82.5 -34q43 0 58 23q13 15 23 15
q23 0 20 -22q-7 -38 -35.5 -60t-72.5 -22q-36 0 -68.5 18.5t-62 37t-57.5 18.5q-42 0 -58 -28q-8 -17 -22 -17q-22 0 -17 21q7 39 36 61.5t73 22.5z" />
    <glyph glyph-name="notequal" unicode="&#x2260;" horiz-adv-x="447" 
d="M365 230q15 0 26 -10t11 -24q0 -13 -11.5 -23t-25.5 -10h-152l-57 -146q-8 -21 -31 -21q-18 0 -27.5 14.5t-2.5 29.5l48 123h-62q-14 0 -25 10t-11 23q0 14 11 24t25 10h88l38 99h-126q-14 0 -25 10t-11 23q0 14 11 24t25 10h152l57 148q7 22 31 22q18 0 27.5 -15
t3.5 -30l-49 -125h62q15 0 26 -10t11 -24q0 -13 -11.5 -23t-25.5 -10h-88l-38 -99h126z" />
    <glyph glyph-name="lessequal" unicode="&#x2264;" horiz-adv-x="447" 
d="M339 571q6 3 14 3q13 0 22 -9.5t9 -22.5q0 -17 -17 -28l-251 -139l250 -138q18 -10 18 -29q0 -13 -9.5 -22.5t-21.5 -9.5q-8 0 -15 5l-264 147q-29 16 -29 46.5t29 46.5zM365 68q15 0 26 -10t11 -24q0 -13 -11.5 -23t-25.5 -10h-284q-14 0 -25 10t-11 23q0 14 11 24
t25 10h284z" />
    <glyph glyph-name="greaterequal" unicode="&#x2265;" horiz-adv-x="447" 
d="M108 571l265 -150q29 -16 29 -46.5t-29 -46.5l-264 -147q-7 -5 -15 -5q-12 0 -21.5 9.5t-9.5 22.5q0 19 18 29l250 138l-251 139q-17 11 -17 28q0 13 9 22.5t22 9.5q8 0 14 -3zM82 68h284q14 0 25 -10t11 -24q0 -13 -11 -23t-25 -10h-284q-14 0 -25.5 10t-11.5 23
q0 14 11 24t26 10z" />
    <glyph glyph-name="lozenge" unicode="&#x25ca;" horiz-adv-x="505" 
d="M253 705q25 0 45.5 -14t29.5 -36l129 -289q6 -16 0 -32l-129 -289q-9 -22 -29.5 -36t-45.5 -14t-45.5 14t-30.5 36l-128 289q-7 16 0 32l128 289q10 22 30.5 36t45.5 14zM253 66l125 284l-125 284l-126 -284z" />
    <glyph glyph-name="Q.ss01" horiz-adv-x="794" 
d="M730 -11q16 0 26.5 -11t10.5 -28q0 -32 -40 -57t-92 -25q-42 0 -83.5 20t-68.5 43.5t-63.5 43.5t-69.5 20q-53 0 -102 -55q-14 -14 -30 -14t-28.5 12t-12.5 29q0 15 12 29q22 24 46 40q-83 45 -134 127.5t-51 186.5q0 102 50.5 185t130 127.5t167.5 44.5
q136 0 241.5 -102t105.5 -255q0 -122 -70 -213.5t-175 -126.5q29 -22 42.5 -32t38 -20.5t47.5 -10.5q40 0 73 31q11 11 29 11zM138 350q0 -120 78 -198.5t182 -78.5q103 0 181 78.5t78 198.5t-77.5 198.5t-181.5 78.5t-182 -78.5t-78 -198.5z" />
    <glyph glyph-name="R.ss01" horiz-adv-x="626" 
d="M567 129q15 0 24.5 -10t9.5 -25q0 -16 -9 -30q-42 -70 -129 -70q-53 0 -89 25t-55.5 61.5t-38.5 74.5t-52.5 68.5t-82.5 37.5v-223q0 -17 -12.5 -30t-29.5 -13q-18 0 -30.5 13t-12.5 30v616q0 20 13 33t33 13h183q115 0 184.5 -61t69.5 -157q0 -100 -68.5 -160
t-185.5 -60h-13q30 -22 54.5 -59t37.5 -65t38 -49t59 -21q46 0 71 42q11 19 31 19zM287 626h-142v-290h142q82 0 127.5 36.5t45.5 109.5q0 69 -46 106.5t-127 37.5z" />
    <glyph glyph-name="R.ss02" horiz-adv-x="592" 
d="M434 294q66 -27 92 -87t26 -165q0 -21 -12.5 -33t-29.5 -12q-18 0 -30.5 12t-12.5 33q0 122 -36.5 171t-143.5 49h-142v-224q0 -17 -12.5 -30t-29.5 -13q-18 0 -30.5 13t-12.5 30v616q0 20 13 33t33 13h183q115 0 184.5 -61t69.5 -157q0 -130 -109 -188zM145 336h142
q82 0 127.5 36.5t45.5 109.5q0 69 -46 106.5t-127 37.5h-142v-290z" />
    <glyph glyph-name="i.loclTRK" horiz-adv-x="233" 
d="M117 669q-18 0 -31 12.5t-13 31.5q0 18 13 30.5t31 12.5t30.5 -12.5t12.5 -30.5q0 -19 -12.5 -31.5t-30.5 -12.5zM117 523q17 0 29 -12.5t12 -28.5v-444q0 -17 -12.5 -29.5t-28.5 -12.5q-17 0 -29.5 12.5t-12.5 29.5v444q0 17 12.5 29t29.5 12z" />
    <glyph glyph-name="t_t" horiz-adv-x="637" 
d="M569 73q16 4 27 -5t11 -24q0 -25 -27.5 -37t-66.5 -12q-47 0 -75.5 24.5t-28.5 88.5v343h-227v-340q0 -44 38 -44q6 0 39 6q16 4 27 -5t11 -24q0 -25 -27.5 -37t-66.5 -12q-47 0 -75.5 24.5t-28.5 88.5v343h-44q-16 0 -25.5 9.5t-9.5 25.5t9.5 25t25.5 9h44v86
q0 17 12.5 29t29.5 12t29 -12t12 -29v-86h227v86q0 17 12.5 29t29.5 12t29 -12t12 -29v-86h80q15 0 25 -9.5t10 -24.5q0 -16 -10 -25.5t-25 -9.5h-80v-340q0 -44 38 -44q6 0 39 6z" />
    <glyph glyph-name="zero.tf" 
d="M340 707q114 0 192.5 -92.5t78.5 -251.5v-24q0 -159 -78.5 -251.5t-192.5 -92.5q-113 0 -191.5 92.5t-78.5 251.5v24q0 159 78.5 251.5t191.5 92.5zM340 635q-85 0 -136 -77t-51 -195v-24q0 -119 51 -195t136 -76q86 0 137 76t51 195v24q0 118 -51 195t-137 77z" />
    <glyph glyph-name="one.tf" 
d="M340 700q20 0 33 -13t13 -33v-616q0 -17 -12.5 -29.5t-28.5 -12.5q-17 0 -29.5 12.5t-12.5 29.5v590h-68q-14 0 -25 10.5t-11 25.5t11 25.5t25 10.5h105z" />
    <glyph glyph-name="two.tf" 
d="M340 707q94 0 157.5 -59.5t63.5 -141.5q0 -16 -2.5 -30.5t-9 -30t-12 -27.5t-18.5 -29.5t-21.5 -28t-27.5 -31.5t-29.5 -31.5t-35 -36t-36.5 -38.5l-143 -148h306q15 0 25.5 -11t10.5 -27q0 -15 -11 -26t-25 -11h-339q-44 0 -60 35t14 67l143 151q19 20 48 49.5t43 43.5
t33.5 35.5t28.5 34.5t18.5 29.5t13 31.5t3.5 32q0 56 -41 90t-94 34q-50 0 -89 -30.5t-48 -87.5q-3 -15 -15.5 -25.5t-28.5 -10.5q-21 0 -31 16.5t-5 39.5q15 75 72.5 123.5t141.5 48.5z" />
    <glyph glyph-name="three.tf" 
d="M482 700q37 0 53.5 -28.5t-5.5 -58.5l-147 -197q78 -12 138 -67t60 -142q0 -95 -69.5 -156t-171.5 -61q-85 0 -148.5 45.5t-81.5 122.5q-5 19 5.5 35.5t30.5 16.5q14 0 25 -8t14 -20q12 -55 56.5 -87t98.5 -32q62 0 110 37.5t48 106.5q0 67 -49 103.5t-115 46.5
q-38 7 -38 39q0 13 19 40l139 192h-285q-15 0 -25.5 10.5t-10.5 25.5t10.5 25.5t25.5 10.5h313z" />
    <glyph glyph-name="four.tf" 
d="M484 255h43q15 0 26 -10t11 -24q0 -15 -11 -25.5t-26 -10.5h-43v-148q0 -17 -12 -29.5t-29 -12.5t-29.5 12.5t-12.5 29.5v148h-249q-40 0 -53 27.5t9 57.5l279 402q16 23 39.5 27t40.5 -11t17 -42v-391zM401 574l-217 -319h217v319z" />
    <glyph glyph-name="five.tf" 
d="M466 700q14 0 25 -10.5t11 -25.5t-11 -25.5t-25 -10.5h-247l-25 -206q52 48 144 48q93 0 161.5 -67t68.5 -172q0 -104 -72 -172.5t-179 -68.5q-67 0 -121 29.5t-87 78.5q-10 12 -10 26q0 16 11.5 27t27.5 11q22 0 33 -18q21 -35 60 -58t87 -23q67 0 117 45.5t50 122.5
q0 74 -47.5 120.5t-112.5 46.5q-69 0 -127 -52q-13 -11 -36 -11q-24 0 -38 18t-11 42l33 266q2 17 14.5 28t29.5 11h276z" />
    <glyph glyph-name="six.tf" 
d="M432 705q16 0 26.5 -11t10.5 -27q0 -12 -8 -22l-169 -222q29 11 59 11q91 0 160 -65t69 -158t-69 -157t-160 -64t-160.5 65t-69.5 162q0 33 7 62.5t27 64t32 53t45.5 62t44.5 59.5l125 171q12 16 30 16zM351 357q-68 0 -109.5 -40.5t-41.5 -105.5q0 -63 45.5 -105.5
t105.5 -42.5t104.5 42.5t44.5 105.5t-44.5 104.5t-104.5 41.5z" />
    <glyph glyph-name="seven.tf" 
d="M515 700q32 0 47.5 -24t1.5 -53l-286 -604q-10 -24 -36 -24q-16 0 -28 12t-12 28q0 7 4 17l279 576h-311q-14 0 -25 10.5t-11 25.5t11 25.5t25 10.5h341z" />
    <glyph glyph-name="eight.tf" 
d="M468 392q51 -28 81.5 -75t30.5 -109q0 -97 -69 -157t-161 -60t-161.5 60.5t-69.5 156.5q0 62 30.5 109t81.5 75q-69 53 -69 137q0 74 52 126t136 52t136 -52t52 -126q0 -85 -70 -137zM240 528q0 -44 32 -75.5t78 -31.5t77.5 32t31.5 75t-30.5 75t-78.5 32
q-49 0 -79.5 -32t-30.5 -75zM350 63q60 0 103 41t43 104q0 64 -42.5 104t-103.5 40t-104 -40t-43 -104t43.5 -104.5t103.5 -40.5z" />
    <glyph glyph-name="nine.tf" 
d="M269 -6q-16 0 -26.5 11t-10.5 27q0 12 8 22l169 222q-29 -11 -59 -11q-91 0 -160 65t-69 158t69 157t160 64t160.5 -65t69.5 -162q0 -33 -7 -62.5t-27 -64t-32 -53t-45.5 -62t-44.5 -59.5l-125 -171q-12 -16 -30 -16zM350 342q68 0 109.5 40.5t41.5 105.5
q0 63 -45.5 105.5t-105.5 42.5t-104.5 -42.5t-44.5 -105.5t44.5 -104.5t104.5 -41.5z" />
    <glyph glyph-name="zero.dnom" horiz-adv-x="260" 
d="M130 263q47 0 76 -35t29 -91v-13q0 -56 -29 -91t-76 -35q-45 0 -75 35t-30 91v13q0 56 30 91t75 35zM130 232q-29 0 -48.5 -25.5t-19.5 -69.5v-13q0 -44 19.5 -69.5t48.5 -25.5q31 0 49.5 25t18.5 70v13q0 45 -18.5 70t-49.5 25z" />
    <glyph glyph-name="one.dnom" horiz-adv-x="122" 
d="M97 261v-261h-37v221l-17 -11l-18 31l35 20h37z" />
    <glyph glyph-name="two.dnom" horiz-adv-x="221" 
d="M109 264q34 0 59 -22.5t25 -52.5q0 -26 -14.5 -47t-53.5 -61l-47 -49h118v-32h-168v32l68 69q28 29 36.5 38.5t15.5 22.5t7 27q0 18 -14 31t-32 13q-19 0 -33 -13t-14 -37v-14h-37v14q0 35 24.5 58t59.5 23z" />
    <glyph glyph-name="three.dnom" horiz-adv-x="233" 
d="M116 263q32 0 56 -20.5t24 -47.5q0 -32 -30 -53q42 -18 42 -66q0 -34 -27.5 -57t-64.5 -23q-41 0 -67 27t-24 64h38q-2 -24 13.5 -41.5t39.5 -17.5q22 0 38 13.5t16 34.5q0 53 -74 46v30q63 3 63 43q0 15 -12.5 26t-30.5 11q-22 0 -34.5 -15t-11.5 -41h-38
q-2 38 22.5 62.5t61.5 24.5z" />
    <glyph glyph-name="four.dnom" horiz-adv-x="246" 
d="M194 261v-154h27v-31h-27v-76h-37v76h-132l132 185h37zM157 202l-65 -95h65v95z" />
    <glyph glyph-name="five.dnom" horiz-adv-x="235" 
d="M186 261v-32h-104l-8 -58q22 10 45 10q35 0 63 -26.5t28 -65.5t-28 -66t-67 -27q-33 0 -58.5 18.5t-31.5 43.5l33 19q2 -20 17.5 -34.5t39.5 -14.5q23 0 40 17.5t17 43.5q0 25 -16.5 42.5t-36.5 17.5q-35 0 -57 -29l-32 8l18 133h138z" />
    <glyph glyph-name="six.dnom" horiz-adv-x="223" 
d="M174 261l-68 -96h6q34 0 60 -25t26 -59q0 -35 -26 -60t-60 -25t-60.5 25t-26.5 60q0 16 5.5 31.5t10 23t18 25t16.5 21.5l57 79h42zM112 133q-22 0 -36 -14t-14 -38q0 -23 15.5 -38t34.5 -15q18 0 33.5 15t15.5 38t-15 37.5t-34 14.5z" />
    <glyph glyph-name="seven.dnom" horiz-adv-x="223" 
d="M198 261l-102 -261h-39l89 229h-121v32h173z" />
    <glyph glyph-name="eight.dnom" horiz-adv-x="233" 
d="M116 263q36 0 57.5 -20t21.5 -47q0 -34 -30 -53q43 -21 43 -66q0 -34 -27 -56.5t-65 -22.5q-37 0 -64 22.5t-27 56.5q0 45 43 66q-30 19 -30 53q0 26 21.5 46.5t56.5 20.5zM116 232q-20 0 -30.5 -10.5t-10.5 -25.5t12.5 -27t28.5 -12q18 0 29.5 11.5t11.5 27.5
q0 36 -41 36zM116 126q-22 0 -38 -14t-16 -35q0 -20 16 -34t38 -14q24 0 39 13t15 35t-15 35.5t-39 13.5z" />
    <glyph glyph-name="nine.dnom" horiz-adv-x="224" 
d="M112 264q34 0 60.5 -24.5t26.5 -59.5q0 -13 -2.5 -24t-9 -22.5t-10.5 -18t-14.5 -19.5t-14.5 -18l-56 -78h-43l68 95h-5q-35 0 -61 25.5t-26 59.5q0 35 26.5 59.5t60.5 24.5zM112 232q-19 0 -34.5 -15t-15.5 -37q0 -23 15.5 -38t34.5 -15q22 0 35.5 14.5t13.5 38.5
q0 22 -15.5 37t-33.5 15z" />
    <glyph glyph-name="zero.numr" horiz-adv-x="260" 
d="M130 703q47 0 76 -35t29 -91v-13q0 -56 -29 -91t-76 -35q-45 0 -75 35t-30 91v13q0 56 30 91t75 35zM130 672q-29 0 -48.5 -25.5t-19.5 -69.5v-13q0 -44 19.5 -69.5t48.5 -25.5q31 0 49.5 25t18.5 70v13q0 45 -18.5 70t-49.5 25z" />
    <glyph glyph-name="one.numr" horiz-adv-x="122" 
d="M97 701v-261h-37v221l-17 -11l-18 31l35 20h37z" />
    <glyph glyph-name="two.numr" horiz-adv-x="221" 
d="M109 704q34 0 59 -22.5t25 -52.5q0 -26 -14.5 -47t-53.5 -61l-47 -49h118v-32h-168v32l68 69q28 29 36.5 38.5t15.5 22.5t7 27q0 18 -14 31t-32 13q-19 0 -33 -13t-14 -37v-14h-37v14q0 35 24.5 58t59.5 23z" />
    <glyph glyph-name="three.numr" horiz-adv-x="233" 
d="M116 703q32 0 56 -20.5t24 -47.5q0 -32 -30 -53q42 -18 42 -66q0 -34 -27.5 -57t-64.5 -23q-41 0 -67 27t-24 64h38q-2 -24 13.5 -41.5t39.5 -17.5q22 0 38 13.5t16 34.5q0 53 -74 46v30q63 3 63 43q0 15 -12.5 26t-30.5 11q-22 0 -34.5 -15t-11.5 -41h-38
q-2 38 22.5 62.5t61.5 24.5z" />
    <glyph glyph-name="four.numr" horiz-adv-x="246" 
d="M194 701v-154h27v-31h-27v-76h-37v76h-132l132 185h37zM157 642l-65 -95h65v95z" />
    <glyph glyph-name="five.numr" horiz-adv-x="235" 
d="M186 701v-32h-104l-8 -58q22 10 45 10q35 0 63 -26.5t28 -65.5t-28 -66t-67 -27q-33 0 -58.5 18.5t-31.5 43.5l33 19q2 -20 17.5 -34.5t39.5 -14.5q23 0 40 17.5t17 43.5q0 25 -16.5 42.5t-36.5 17.5q-35 0 -57 -29l-32 8l18 133h138z" />
    <glyph glyph-name="six.numr" horiz-adv-x="223" 
d="M174 701l-68 -96h6q34 0 60 -25t26 -59q0 -35 -26 -60t-60 -25t-60.5 25t-26.5 60q0 16 5.5 31.5t10 23t18 25t16.5 21.5l57 79h42zM112 573q-22 0 -36 -14t-14 -38q0 -23 15.5 -38t34.5 -15q18 0 33.5 15t15.5 38t-15 37.5t-34 14.5z" />
    <glyph glyph-name="seven.numr" horiz-adv-x="223" 
d="M198 701l-102 -261h-39l89 229h-121v32h173z" />
    <glyph glyph-name="eight.numr" horiz-adv-x="233" 
d="M116 703q36 0 57.5 -20t21.5 -47q0 -34 -30 -53q43 -21 43 -66q0 -34 -27 -56.5t-65 -22.5q-37 0 -64 22.5t-27 56.5q0 45 43 66q-30 19 -30 53q0 26 21.5 46.5t56.5 20.5zM116 672q-20 0 -30.5 -10.5t-10.5 -25.5t12.5 -27t28.5 -12q18 0 29.5 11.5t11.5 27.5
q0 36 -41 36zM116 566q-22 0 -38 -14t-16 -35q0 -20 16 -34t38 -14q24 0 39 13t15 35t-15 35.5t-39 13.5z" />
    <glyph glyph-name="nine.numr" horiz-adv-x="224" 
d="M112 704q34 0 60.5 -24.5t26.5 -59.5q0 -13 -2.5 -24t-9 -22.5t-10.5 -18t-14.5 -19.5t-14.5 -18l-56 -78h-43l68 95h-5q-35 0 -61 25.5t-26 59.5q0 35 26.5 59.5t60.5 24.5zM112 672q-19 0 -34.5 -15t-15.5 -37q0 -23 15.5 -38t34.5 -15q22 0 35.5 14.5t13.5 38.5
q0 22 -15.5 37t-33.5 15z" />
    </font>
</defs>
</svg>
