<svg xmlns="http://www.w3.org/2000/svg" width="28" height="28" viewBox="0 0 28 28"><g><g><path fill="#151515" d="M17.054 8.321A2.32 2.32 0 0 0 14.734 6H12.32A2.321 2.321 0 0 0 10 8.321v16.168a2.321 2.321 0 0 0 2.321 2.321h2.412a2.32 2.32 0 0 0 2.321-2.321z"/></g><g><path fill="#151515" d="M7.054 14.497A2.497 2.497 0 0 0 4.557 12h-2.06A2.497 2.497 0 0 0 0 14.497v10.349a2.497 2.497 0 0 0 2.497 2.497h2.06a2.497 2.497 0 0 0 2.497-2.497z"/></g><g><path fill="#151515" d="M28.054 2.321A2.32 2.32 0 0 0 25.734 0H23.32A2.32 2.32 0 0 0 21 2.321v22.34a2.32 2.32 0 0 0 2.321 2.321h2.412a2.32 2.32 0 0 0 2.321-2.32z"/></g></g></svg>